<svg width="1920" height="1194" viewBox="0 0 1920 1194" fill="none" xmlns="http://www.w3.org/2000/svg">
<g opacity="0.35" clip-path="url(#clip0_142_2798)">
<mask id="mask0_142_2798" style="mask-type:luminance" maskUnits="userSpaceOnUse" x="38" y="-176" width="2272" height="1387">
<path d="M2309.44 1209.57C2276.45 1204.31 2241.31 1200.41 2203.74 1198.17C1665.29 1165.98 1575.65 954.22 1479.02 725.956C1462.29 686.429 1445.35 646.406 1425.81 606.676C1359.6 472.083 1287.37 345.395 1171.6 280.014C1055.79 214.618 896.521 210.594 656.328 321.402C416.631 431.975 260.084 457.808 164.751 383.774C69.377 309.708 35.0694 135.623 39.8838 -153.603C40.0084 -161.075 40.0775 -168.481 40.1036 -175.835L38.6988 -175.835C38.6741 -168.49 38.6048 -161.091 38.4805 -153.628C33.6573 136.066 68.1165 310.506 163.894 384.884C259.712 459.295 416.706 433.492 656.918 322.679C896.63 212.096 1055.49 216.054 1170.9 281.234C1286.35 346.429 1358.45 472.909 1424.55 607.296C1444.04 646.924 1460.99 686.963 1477.73 726.506C1574.53 955.184 1664.33 1167.33 2203.66 1199.57C2241.27 1201.82 2276.43 1205.72 2309.44 1210.99L2309.44 1209.57Z" fill="white"/>
</mask>
<g mask="url(#mask0_142_2798)">
<path d="M2309.44 -175.835L2309.44 1210.99L33.6567 1210.99L33.6568 -175.835L2309.44 -175.835Z" fill="#B3B3B3"/>
</g>
<mask id="mask1_142_2798" style="mask-type:luminance" maskUnits="userSpaceOnUse" x="35" y="-176" width="2275" height="1396">
<path d="M2309.44 1218C2282.1 1214.63 2253.35 1212.21 2223.05 1210.86C1684.17 1186.97 1591.28 976.621 1491.15 749.868C1473.81 710.604 1456.26 670.843 1436.11 631.425C1367.84 497.867 1293.67 372.306 1176.9 308.717C1060.11 245.115 900.791 243.548 662.327 358.041C424.363 472.297 268.232 500.536 171.771 427.977C75.2669 355.391 38.2825 181.853 38.6463 -107.412C38.6751 -130.806 38.2234 -153.615 37.3201 -175.835L35.9136 -175.835C36.8182 -153.619 37.2691 -130.81 37.2405 -107.416C36.878 182.316 74.0193 356.204 170.928 429.098C267.879 502.024 424.458 473.808 662.935 359.305C900.914 245.043 1059.81 246.557 1176.22 309.949C1292.66 373.358 1366.7 498.714 1434.86 632.066C1454.96 671.393 1472.53 711.164 1489.87 750.442C1590.18 977.602 1683.24 1188.34 2222.99 1212.26C2253.32 1213.61 2282.09 1216.04 2309.44 1219.42L2309.44 1218Z" fill="white"/>
</mask>
<g mask="url(#mask1_142_2798)">
<path d="M2309.44 -175.835L2309.44 1219.42L35.9131 1219.42L35.9131 -175.835L2309.44 -175.835Z" fill="#B3B3B3"/>
</g>
<mask id="mask2_142_2798" style="mask-type:luminance" maskUnits="userSpaceOnUse" x="30" y="-176" width="2280" height="1405">
<path d="M2309.44 1227.42C2287.82 1225.5 2265.44 1224.1 2242.07 1223.42C1702.88 1207.84 1606.76 998.944 1503.16 773.766C1485.2 734.748 1467.03 695.241 1446.3 656.181C1375.98 523.691 1299.89 399.291 1182.15 337.506C1064.39 275.708 905.071 276.595 668.4 394.748C432.222 512.656 276.543 543.295 178.977 472.234C81.3672 401.141 41.7146 228.195 37.6246 -61.0425C37.0584 -101.053 35.1265 -139.354 31.9161 -175.835L30.512 -175.835C33.7234 -139.354 35.6568 -101.048 36.2227 -61.0251C40.3201 228.681 80.1316 401.976 178.15 473.368C276.214 544.791 432.341 514.166 669.027 396.003C905.222 278.088 1064.12 277.153 1181.49 338.748C1298.89 400.353 1374.85 524.554 1445.06 656.841C1465.79 695.897 1483.95 735.37 1501.88 774.353C1605.68 999.94 1701.97 1209.22 2242.02 1224.83C2265.42 1225.51 2287.81 1226.9 2309.44 1228.83L2309.44 1227.42L2309.44 1227.42Z" fill="white"/>
</mask>
<g mask="url(#mask2_142_2798)">
<path d="M2309.44 -175.835L2309.44 1228.83L30.5115 1228.83L30.5115 -175.835L2309.44 -175.835Z" fill="#B3B3B3"/>
</g>
<mask id="mask3_142_2798" style="mask-type:luminance" maskUnits="userSpaceOnUse" x="22" y="-176" width="2288" height="1416">
<path d="M2309.44 1237.61C2293.63 1236.72 2277.48 1236.09 2260.78 1235.86C1721.41 1228.59 1622.1 1021.19 1515.03 797.637C1496.48 758.896 1477.69 719.669 1456.37 680.941C1384.02 549.554 1306.03 426.341 1187.35 366.376C1068.65 306.4 909.364 309.74 674.542 431.526C440.206 553.059 285.02 586.093 186.369 516.542C87.6765 446.962 45.367 274.647 36.825 -14.4919C35.1265 -71.9565 30.6673 -125.849 23.6993 -175.835L22.2835 -175.835C29.2591 -125.848 33.723 -71.9437 35.4207 -14.4541C43.979 275.154 86.4546 447.815 185.561 517.688C284.711 587.595 440.348 554.566 675.189 432.771C909.54 311.232 1068.41 307.848 1186.72 367.626C1305.04 427.415 1382.9 550.433 1455.14 681.624C1476.48 720.364 1495.24 759.548 1513.77 798.247C1621.03 1022.21 1720.53 1229.98 2260.76 1237.27C2277.47 1237.49 2293.62 1238.13 2309.44 1239.01L2309.44 1237.61L2309.44 1237.61Z" fill="white"/>
</mask>
<g mask="url(#mask3_142_2798)">
<path d="M2309.44 -175.835L2309.44 1239.01L22.2834 1239.01L22.2835 -175.835L2309.44 -175.835Z" fill="#B3B3B3"/>
</g>
<mask id="mask4_142_2798" style="mask-type:luminance" maskUnits="userSpaceOnUse" x="10" y="-176" width="2300" height="1426">
<path d="M2309.44 1248.52C2299.52 1248.28 2289.44 1248.16 2279.19 1248.18C1739.78 1249.21 1637.27 1043.37 1526.79 821.494C1507.64 783.056 1488.26 744.136 1466.33 705.719C1391.97 575.458 1312.08 453.458 1192.5 395.33C1072.9 337.192 913.681 342.987 680.758 468.374C448.322 593.501 293.661 628.924 193.952 560.899C94.1995 492.846 49.2425 321.204 36.2496 32.2313C32.8355 -43.6964 24.6946 -113.314 12.4105 -175.835L10.9839 -175.835C23.2833 -113.317 31.4322 -43.6789 34.8484 32.2925C47.8636 321.733 92.9908 493.722 193.161 562.058C293.375 630.428 448.483 595.007 681.421 469.609C913.873 344.475 1072.67 338.644 1191.88 396.595C1311.12 454.554 1390.87 576.356 1465.12 706.414C1487.03 744.799 1506.4 783.702 1525.53 822.122C1636.22 1044.41 1738.91 1250.62 2279.19 1249.58C2289.44 1249.56 2299.52 1249.68 2309.44 1249.92L2309.44 1248.52Z" fill="white"/>
</mask>
<g mask="url(#mask4_142_2798)">
<path d="M2309.44 -175.835L2309.44 1250.62L10.9839 1250.62L10.9839 -175.835L2309.44 -175.835Z" fill="#B3B3B3"/>
</g>
<mask id="mask5_142_2798" style="mask-type:luminance" maskUnits="userSpaceOnUse" x="-4" y="-176" width="2314" height="1439">
<path d="M2309.44 1260.31C2305.38 1260.34 2301.4 1260.3 2297.29 1260.38C1757.96 1269.72 1652.3 1065.48 1538.41 845.335C1518.68 807.187 1498.7 768.562 1476.18 730.502C1399.82 601.401 1318.07 480.647 1197.6 424.368C1077.12 368.08 918.012 376.326 687.045 505.289C456.564 633.981 302.468 671.783 201.724 605.301C100.936 538.795 53.3409 367.866 35.9022 79.1278C30.1243 -16.5254 16.9913 -102.036 -2.31512 -175.835L-3.76019 -175.835C15.5726 -102.052 28.7186 -16.5107 34.5005 79.2093C51.969 368.417 99.74 539.687 200.949 606.475C302.205 673.292 456.749 635.484 687.73 506.512C918.226 377.814 1076.92 369.536 1197.01 425.645C1317.12 481.758 1398.73 602.318 1474.97 731.219C1497.48 769.275 1517.45 807.868 1537.17 845.982C1651.27 1066.54 1757.11 1271.14 2297.31 1261.78C2301.42 1261.71 2305.39 1261.75 2309.44 1261.72L2309.44 1260.31L2309.44 1260.31Z" fill="white"/>
</mask>
<g mask="url(#mask5_142_2798)">
<path d="M2309.44 -175.835L2309.44 1271.14L-3.75977 1271.14L-3.7597 -175.835L2309.44 -175.835Z" fill="#B3B3B3"/>
</g>
<mask id="mask6_142_2798" style="mask-type:luminance" maskUnits="userSpaceOnUse" x="-23" y="-176" width="2333" height="1451">
<path d="M2309.44 1272.61C1775.25 1288.65 1666.76 1086.76 1549.91 869.163C1529.59 831.327 1509.02 793.018 1485.92 755.299C1407.58 627.391 1323.98 507.912 1202.66 453.497C1081.32 399.069 922.361 409.766 693.409 542.27C464.936 674.496 311.44 714.667 209.685 649.748C107.883 584.798 57.6643 414.625 35.7813 126.188C26.9065 9.18874 7.23883 -92.4388 -21.0114 -175.835L-22.4877 -175.835C5.80475 -92.474 25.5013 9.19302 34.3846 126.293C56.303 415.199 106.703 585.714 208.928 650.933C311.2 716.182 465.146 675.999 694.115 543.485C922.603 411.248 1081.15 400.528 1202.08 454.776C1323.05 509.038 1406.51 628.325 1484.72 756.035C1507.81 793.733 1528.37 832.017 1548.67 869.825C1665.73 1087.81 1774.42 1290.07 2309.44 1274.02L2309.44 1272.61Z" fill="white"/>
</mask>
<g mask="url(#mask6_142_2798)">
<path d="M2309.44 -175.835L2309.44 1290.07L-22.4878 1290.07L-22.4877 -175.835L2309.44 -175.835Z" fill="#B3B3B3"/>
</g>
<mask id="mask7_142_2798" style="mask-type:luminance" maskUnits="userSpaceOnUse" x="-47" y="-176" width="2357" height="1465">
<path d="M2309.44 1285.41C1790.56 1304.56 1680.14 1106.37 1561.28 892.973C1540.38 855.463 1519.23 817.48 1495.54 780.115C1415.25 653.429 1329.81 535.248 1207.68 482.709C1085.51 430.157 926.734 443.3 699.85 579.317C473.437 715.049 320.579 757.581 217.837 694.235C115.049 630.864 62.2146 461.482 35.8938 173.416C23.0545 32.8935 -5.03973 -85.169 -44.4929 -175.835L-46.0217 -175.835C-6.5014 -85.2419 21.6461 32.8701 34.5 173.543C60.8628 462.074 113.882 631.793 217.099 695.428C320.365 759.096 473.672 716.545 700.573 580.523C927 444.78 1085.36 431.618 1207.12 483.998C1328.9 536.386 1414.19 654.376 1494.36 780.865C1518.02 818.195 1539.17 856.163 1560.05 893.659C1679.14 1107.45 1789.75 1305.98 2309.44 1286.82L2309.44 1285.41Z" fill="white"/>
</mask>
<g mask="url(#mask7_142_2798)">
<path d="M2309.44 -175.835L2309.44 1305.98L-46.0217 1305.98L-46.0217 -175.835L2309.44 -175.835Z" fill="#B3B3B3"/>
</g>
<mask id="mask8_142_2798" style="mask-type:luminance" maskUnits="userSpaceOnUse" x="-76" y="-176" width="2386" height="1478">
<path d="M2309.44 1298.45C1805.63 1320.36 1693.3 1125.96 1572.53 916.778C1551.06 879.603 1529.33 841.961 1505.06 804.944C1422.82 679.51 1335.58 562.662 1212.65 512.009C1089.69 461.345 931.13 476.933 706.365 616.428C482.072 755.632 329.884 800.512 226.181 738.761C122.429 676.978 66.9949 508.431 36.2435 220.804C18.3697 53.6232 -20.6706 -81.3395 -74.1557 -175.835L-75.7602 -175.835C-22.1716 -81.4853 16.9488 53.5471 34.8467 220.951C65.648 509.043 121.274 677.924 225.459 739.963C329.694 802.032 482.329 757.126 707.11 617.62C931.419 478.408 1089.56 462.809 1212.11 513.306C1334.68 563.811 1421.77 680.472 1503.89 805.715C1528.1 842.655 1549.84 880.301 1571.31 917.481C1692.3 1127.04 1804.83 1321.79 2309.44 1299.85L2309.44 1298.45Z" fill="white"/>
</mask>
<g mask="url(#mask8_142_2798)">
<path d="M2309.44 -175.835L2309.44 1321.79L-75.7603 1321.79L-75.7602 -175.835L2309.44 -175.835Z" fill="#B3B3B3"/>
</g>
<mask id="mask9_142_2798" style="mask-type:luminance" maskUnits="userSpaceOnUse" x="-115" y="-176" width="2425" height="1492">
<path d="M2309.44 1311.77C1820.32 1336.17 1706.22 1145.53 1583.64 940.574C1561.6 903.728 1539.29 866.422 1514.46 829.792C1430.3 705.639 1341.27 590.149 1217.57 541.396C1093.85 492.633 935.552 510.661 712.96 653.603C490.836 796.246 339.359 843.466 234.715 783.317C130.024 723.14 72.003 555.469 36.827 268.349C12.5015 69.7973 -41.0715 -82.704 -112.371 -175.408L-112.703 -175.835L-114.483 -175.835L-113.485 -174.548C-42.331 -82.0334 11.1421 70.2257 35.4349 268.52C70.6668 556.1 128.886 724.104 234.015 784.532C339.19 844.985 491.116 797.735 713.721 654.783C935.862 512.133 1093.74 494.099 1217.06 542.702C1340.4 591.316 1429.27 706.62 1513.3 830.581C1538.09 867.151 1560.4 904.455 1582.43 941.295C1705.23 1146.62 1819.54 1337.6 2309.44 1313.17L2309.44 1311.77Z" fill="white"/>
</mask>
<g mask="url(#mask9_142_2798)">
<path d="M2309.44 -175.835L2309.44 1337.6L-114.483 1337.6L-114.483 -175.835L2309.44 -175.835Z" fill="#B3B3B3"/>
</g>
<mask id="mask10_142_2798" style="mask-type:luminance" maskUnits="userSpaceOnUse" x="-170" y="-176" width="2480" height="1506">
<path d="M2309.44 1325.37C1834.65 1351.99 1718.91 1165.09 1594.63 964.362C1572.03 927.868 1549.15 890.913 1523.75 854.661C1437.69 731.819 1346.89 617.714 1222.46 570.871C1098 524.02 939.999 544.486 719.636 690.839C499.734 836.886 348.999 886.434 243.444 827.904C137.838 769.347 77.2415 602.587 37.6507 316.045C10.2725 117.891 -45.6425 -33.7643 -118.361 -125.36C-133.94 -144.984 -150.295 -161.853 -167.307 -175.836L-169.531 -175.836C-152.119 -161.706 -135.387 -144.542 -119.461 -124.483C-46.8915 -33.0764 8.91827 118.343 36.263 316.238C75.917 603.243 136.714 770.329 242.76 829.131C348.853 887.957 500.035 838.371 720.412 692.008C940.329 545.951 1097.91 525.487 1221.96 572.186C1346.04 618.892 1436.68 732.813 1522.6 855.465C1547.95 891.637 1570.83 928.601 1593.43 965.105C1717.94 1166.2 1833.89 1353.43 2309.44 1326.78L2309.44 1325.37Z" fill="white"/>
</mask>
<g mask="url(#mask10_142_2798)">
<path d="M2309.44 -175.835L2309.44 1353.43L-169.531 1353.43L-169.531 -175.835L2309.44 -175.835Z" fill="#B3B3B3"/>
</g>
<mask id="mask11_142_2798" style="mask-type:luminance" maskUnits="userSpaceOnUse" x="-391" y="-172" width="2701" height="1516">
<path d="M2309.44 1339.17C1848.74 1367.7 1731.37 1184.63 1605.49 988.148C1582.33 952.01 1558.89 915.418 1532.93 879.552C1444.99 758.05 1352.44 645.355 1227.31 600.437C1102.14 555.508 944.471 578.406 726.388 728.135C508.759 877.553 358.805 929.416 252.361 872.521C145.868 815.599 82.7139 649.79 38.7168 363.891C8.29058 166.184 -49.9528 15.4065 -124.072 -75.0549C-165.057 -125.079 -210.911 -156.68 -259.616 -167.604C-301.737 -177.05 -345.966 -171.027 -390.999 -148.084L-390.999 -146.508C-346.046 -169.564 -301.917 -175.655 -259.923 -166.235C-211.536 -155.384 -165.947 -123.943 -125.159 -74.1625C-51.1909 16.1167 6.94317 166.658 37.3294 364.108C81.3972 650.467 144.759 816.596 251.699 873.756C358.687 930.944 509.086 879.034 727.185 729.294C944.83 579.864 1102.08 556.975 1226.83 601.758C1351.61 646.548 1443.99 759.06 1531.8 880.372C1557.69 916.142 1581.14 952.751 1604.3 988.905C1730.41 1185.74 1847.99 1369.15 2309.44 1340.58L2309.44 1339.17Z" fill="white"/>
</mask>
<g mask="url(#mask11_142_2798)">
<path d="M2309.44 -177.049L2309.44 1369.15L-390.999 1369.15L-390.999 -177.05L2309.44 -177.049Z" fill="#B3B3B3"/>
</g>
<mask id="mask12_142_2798" style="mask-type:luminance" maskUnits="userSpaceOnUse" x="-391" y="-119" width="2701" height="1477">
<path d="M2309.44 1353.22C1862.48 1383.43 1743.6 1204.17 1616.22 1011.93C1592.49 976.125 1568.47 939.87 1542 904.461C1452.2 784.333 1357.94 673.082 1232.11 630.093C1106.27 587.098 948.974 612.422 733.221 765.492C517.92 918.246 368.783 972.411 261.475 917.161C154.119 861.887 88.418 697.074 40.0249 411.888C6.56084 214.676 -53.9975 64.8122 -129.504 -24.5021C-171.256 -73.89 -217.59 -104.782 -266.455 -114.953C-306.656 -123.322 -348.552 -117.661 -390.999 -96.7428L-390.999 -95.1771C-348.629 -116.201 -306.828 -121.92 -266.741 -113.576C-218.189 -103.471 -172.12 -72.7386 -130.573 -23.5939C-55.226 65.5293 5.21831 215.158 38.639 412.12C87.1111 697.768 153.024 862.905 260.83 918.411C368.685 973.942 518.267 919.718 734.036 766.635C949.357 613.872 1106.23 588.564 1231.66 631.419C1357.11 674.28 1451.21 785.356 1540.88 905.306C1567.36 940.728 1591.35 976.943 1615.05 1012.71C1742.66 1205.29 1861.76 1384.87 2309.44 1354.63L2309.44 1353.22Z" fill="white"/>
</mask>
<g mask="url(#mask12_142_2798)">
<path d="M2309.44 -123.321L2309.44 1384.87L-390.999 1384.87L-390.999 -123.322L2309.44 -123.321Z" fill="#B3B3B3"/>
</g>
<mask id="mask13_142_2798" style="mask-type:luminance" maskUnits="userSpaceOnUse" x="-391" y="-66" width="2701" height="1434">
<path d="M2126.99 1367.85C1837.86 1343.7 1735.36 1194.16 1626.82 1035.71C1602.55 1000.27 1577.96 964.388 1550.96 929.402C1459.32 810.668 1363.36 700.881 1236.89 659.836C1110.4 618.786 953.509 646.53 740.138 802.908C527.213 958.959 378.929 1015.41 270.781 961.824C162.587 908.21 94.3555 744.43 41.5796 460.022C5.08354 263.347 -57.7756 114.436 -134.646 26.2951C-177.152 -22.4413 -223.956 -52.6169 -272.971 -62.0333C-311.311 -69.4001 -350.987 -64.0687 -390.999 -44.9902L-390.999 -43.4274C-351.06 -62.6089 -311.47 -68.0017 -273.238 -60.6554C-224.538 -51.2998 -178 -21.2771 -135.7 27.2227C-58.9914 115.175 3.75005 263.855 40.199 460.277C93.0618 745.144 161.51 909.245 270.159 963.083C378.853 1016.94 527.583 960.427 740.97 804.036C953.912 647.974 1110.38 620.255 1236.45 661.17C1362.55 702.094 1458.35 811.709 1549.85 930.263C1576.88 965.281 1601.43 1001.12 1625.67 1036.51C1732.47 1192.42 1833.43 1339.71 2111.39 1367.85L2126.99 1367.85ZM2309.44 1367.53C2307.89 1367.65 2306.37 1367.74 2304.82 1367.85L2309.44 1367.85L2309.44 1367.53Z" fill="white"/>
</mask>
<g mask="url(#mask13_142_2798)">
<path d="M2309.44 -69.3995L2309.44 1367.85L-390.999 1367.85L-390.999 -69.3997L2309.44 -69.3995Z" fill="#B3B3B3"/>
</g>
<mask id="mask14_142_2798" style="mask-type:luminance" maskUnits="userSpaceOnUse" x="-391" y="-12" width="2420" height="1380">
<path d="M2028.79 1367.85C1822.88 1321.56 1732.35 1193.77 1637.3 1059.5C1612.49 1024.45 1587.37 988.96 1559.81 954.367C1466.35 837.058 1368.7 728.762 1241.62 689.671C1114.52 650.575 958.076 680.73 747.137 840.378C536.637 999.691 389.239 1058.43 280.281 1006.51C171.276 954.568 100.531 791.857 43.3816 508.293C3.86369 312.208 -61.2797 164.282 -139.5 77.3368C-182.752 29.2597 -230.015 -0.190162 -279.169 -8.85154C-315.708 -15.2912 -353.274 -10.2396 -391 7.17934L-391 8.72609C-353.341 -8.78782 -315.854 -13.8904 -279.414 -7.46971C-230.574 1.13625 -183.581 30.4358 -140.54 78.2782C-62.487 165.038 2.53557 312.733 42.0053 508.571C99.2469 792.59 170.213 955.617 279.677 1007.78C389.188 1059.96 537.03 1001.15 747.983 841.498C958.497 682.174 1114.52 652.045 1241.21 691.015C1367.92 729.992 1465.4 838.116 1558.71 955.245C1586.26 989.815 1611.36 1025.28 1636.16 1060.31C1730.43 1193.49 1820.23 1320.33 2022.17 1367.85L2028.79 1367.85Z" fill="white"/>
</mask>
<g mask="url(#mask14_142_2798)">
<path d="M2028.79 -15.2908L2028.79 1367.85L-391 1367.85L-391 -15.2909L2028.79 -15.2908Z" fill="#B3B3B3"/>
</g>
<mask id="mask15_142_2798" style="mask-type:luminance" maskUnits="userSpaceOnUse" x="-391" y="42" width="2369" height="1326">
<path d="M1977.89 1367.85C1816.24 1313.77 1733.76 1201.05 1647.65 1083.29C1622.3 1048.62 1596.64 1013.52 1568.55 979.363C1473.3 863.51 1374 756.732 1246.33 719.602C1118.63 682.466 962.673 715.03 754.219 877.904C546.198 1040.44 399.72 1101.44 289.974 1051.21C180.181 1000.95 106.942 839.35 45.4359 556.703C2.90141 361.244 -64.5098 214.341 -144.057 128.613C-188.043 81.2091 -235.754 52.4889 -285.038 44.5883C-319.842 39.0059 -355.415 43.8069 -390.998 59.7329L-390.998 61.2738C-355.476 45.2559 -319.976 40.4055 -285.261 45.9717C-236.297 53.8225 -188.86 82.3961 -145.088 129.569C-65.7044 215.12 1.58525 361.796 44.063 557.002C105.67 840.106 179.138 1002.02 289.391 1052.48C399.693 1102.97 546.613 1041.9 755.084 879.012C963.12 716.464 1118.66 683.935 1245.93 720.948C1373.23 757.967 1472.36 864.578 1567.47 980.256C1595.54 1014.41 1621.19 1049.48 1646.52 1084.12C1732.07 1201.12 1814.06 1313.15 1973.35 1367.85L1977.89 1367.85Z" fill="white"/>
</mask>
<g mask="url(#mask15_142_2798)">
<path d="M1977.89 39.0059L1977.89 1367.85L-390.998 1367.85L-390.998 39.0058L1977.89 39.0059Z" fill="#B3B3B3"/>
</g>
<mask id="mask16_142_2798" style="mask-type:luminance" maskUnits="userSpaceOnUse" x="-391" y="96" width="2334" height="1272">
<path d="M1942.6 1367.85C1811.83 1310.88 1736.32 1210.97 1657.87 1107.08C1632 1072.82 1605.81 1038.14 1577.18 1004.39C1480.16 890.015 1379.22 784.776 1251 749.62C1122.75 714.456 967.309 749.417 761.384 915.486C555.889 1081.21 410.369 1144.46 299.865 1095.92C189.311 1047.37 113.593 886.908 47.7422 605.241C2.20292 410.465 -67.4616 264.616 -148.321 180.122C-193.032 133.399 -241.18 105.419 -290.579 98.2755C-323.723 93.4849 -357.416 98.0729 -391 112.67L-391 114.203C-357.471 99.5177 -323.842 94.8845 -290.778 99.6647C-241.698 106.762 -193.826 134.6 -149.334 181.093C-68.6455 265.408 0.891643 411.031 46.3731 605.562C112.329 887.681 188.28 1048.44 299.297 1097.2C410.365 1145.99 556.329 1082.66 762.266 916.579C967.774 750.845 1122.8 715.925 1250.62 750.973C1378.48 786.028 1479.24 891.098 1576.11 1005.3C1604.69 1038.98 1630.88 1073.67 1656.75 1107.93C1734.74 1211.2 1809.82 1310.56 1938.97 1367.85L1942.6 1367.85Z" fill="white"/>
</mask>
<g mask="url(#mask16_142_2798)">
<path d="M1942.6 93.4846L1942.6 1367.85L-390.999 1367.85L-390.999 93.4845L1942.6 93.4846Z" fill="#B3B3B3"/>
</g>
</g>
<defs>
<clipPath id="clip0_142_2798">
<rect width="1544" height="2701" fill="white" transform="matrix(4.37114e-08 -1 -1 -4.37114e-08 2310 1369)"/>
</clipPath>
</defs>
</svg>
