<svg width="1920" height="1548" viewBox="0 0 1920 1548" fill="none" xmlns="http://www.w3.org/2000/svg">
<path opacity="0.35" d="M57.155 138.035C57.6301 137.773 58.0996 137.546 58.5747 137.287C58.1062 137.605 57.6365 137.912 57.168 138.231C56.7075 138.514 56.2468 138.771 55.7852 139.056C56.2417 138.71 56.6985 138.379 57.155 138.035ZM2309.55 414.629C2310.16 414.109 2310.78 413.583 2311.39 413.06C2311.84 412.798 2312.29 412.529 2312.74 412.268C2312.06 412.798 2311.38 413.333 2310.7 413.861C2310.32 414.121 2309.94 414.369 2309.55 414.629ZM72.7466 128.822C73.252 128.593 73.7593 128.354 74.2622 128.128C73.7966 128.393 73.3359 128.635 72.8699 128.902C72.3486 129.17 71.824 129.457 71.3 129.728C71.7822 129.418 72.2649 129.13 72.7466 128.822ZM64.3369 132.679C65.5093 132.146 66.6819 131.607 67.856 131.065C66.7507 131.787 65.6448 132.556 64.541 133.288C63.3831 133.904 62.2261 134.513 61.0696 135.116C62.1582 134.306 63.2473 133.479 64.3369 132.679ZM2301.85 419.766C2302.96 418.747 2304.07 417.715 2305.18 416.687C2306.05 416.194 2306.92 415.666 2307.78 415.168C2306.64 416.145 2305.5 417.12 2304.36 418.092C2303.52 418.652 2302.68 419.208 2301.85 419.766ZM2296.91 424.321C2297.39 423.884 2297.87 423.439 2298.35 422.998C2298.76 422.727 2299.17 422.451 2299.57 422.181C2299.08 422.6 2298.59 423.027 2298.1 423.44C2297.7 423.737 2297.31 424.023 2296.91 424.321ZM89.2571 120.661C89.7402 120.489 90.2246 120.311 90.7078 120.14C90.2446 120.357 89.7786 120.6 89.3154 120.82C88.8379 121.017 88.3601 121.225 87.8821 121.425C88.3391 121.178 88.7991 120.906 89.2571 120.661ZM81.1196 123.579C82.3635 123.109 83.5945 122.7 84.8345 122.247C83.678 122.88 82.5186 123.535 81.3621 124.178C80.1326 124.707 78.9109 125.188 77.6807 125.734C78.8264 125.015 79.9739 124.289 81.1196 123.579ZM71.9114 127.202C73.6995 126.492 75.4885 125.771 77.27 125.093C75.6475 126.115 74.0264 127.101 72.4023 128.142C70.6882 128.911 68.9692 129.712 67.2532 130.505C68.8059 129.379 70.3594 128.309 71.9114 127.202ZM2294.67 424.55C2296.22 423.029 2297.78 421.485 2299.33 419.947C2300.35 419.377 2301.36 418.847 2302.37 418.272C2300.89 419.645 2299.4 421.022 2297.92 422.386C2296.84 423.101 2295.75 423.84 2294.67 424.55ZM2288.78 430.368C2289.81 429.361 2290.85 428.334 2291.88 427.309C2292.72 426.758 2293.57 426.171 2294.42 425.617C2293.38 426.581 2292.33 427.55 2291.3 428.501C2290.46 429.125 2289.62 429.747 2288.78 430.368ZM2284.06 435.042C2284.36 434.741 2284.67 434.431 2284.98 434.126C2285.36 433.848 2285.74 433.562 2286.11 433.285C2285.87 433.504 2285.63 433.735 2285.39 433.952C2284.95 434.319 2284.5 434.675 2284.06 435.042ZM107.184 113.528C107.702 113.393 108.22 113.258 108.74 113.118C108.255 113.3 107.77 113.497 107.285 113.679C106.765 113.848 106.245 114.018 105.724 114.186C106.209 113.972 106.698 113.74 107.184 113.528ZM98.1274 116.083C99.6162 115.633 101.109 115.169 102.589 114.754C101.408 115.28 100.229 115.812 99.0476 116.348C97.5127 116.87 95.9653 117.437 94.4238 117.993C95.6582 117.345 96.8916 116.72 98.1274 116.083ZM88.7251 118.88C90.5422 118.342 92.3589 117.802 94.176 117.258C92.4348 118.172 90.698 119.018 88.9553 119.954C87.3569 120.533 85.7583 121.105 84.1609 121.674C85.6843 120.744 87.2046 119.792 88.7251 118.88ZM79.7576 121.727C81.7759 121.052 83.7942 120.376 85.7988 119.751C84.1331 120.765 82.4626 121.85 80.7964 122.885C78.7424 123.653 76.6741 124.494 74.6072 125.321C76.3237 124.11 78.04 122.914 79.7576 121.727ZM2287.96 428.936C2289.78 427.025 2291.61 425.11 2293.43 423.191C2294.61 422.541 2295.78 421.907 2296.96 421.251C2295.12 423.073 2293.28 424.9 2291.44 426.705C2290.28 427.462 2289.12 428.185 2287.96 428.936ZM2281.27 435.959C2282.79 434.368 2284.32 432.76 2285.85 431.156C2286.85 430.507 2287.86 429.904 2288.86 429.25C2287.42 430.684 2285.97 432.121 2284.53 433.531C2283.45 434.332 2282.35 435.164 2281.27 435.959ZM2275.45 442.072C2276.37 441.11 2277.3 440.126 2278.23 439.147C2279.06 438.544 2279.9 437.895 2280.73 437.289C2279.82 438.192 2278.91 439.104 2278 439.983C2277.15 440.678 2276.3 441.379 2275.45 442.072ZM2271 446.738L2271.33 446.395C2271.53 446.232 2271.73 446.062 2271.94 445.899L2271.75 446.075L2271 446.738ZM126.03 107.755C126.584 107.649 127.128 107.572 127.681 107.469C127.177 107.613 126.673 107.762 126.17 107.907C125.609 108.039 125.053 108.159 124.492 108.294C125.004 108.117 125.518 107.928 126.03 107.755ZM116.029 109.802C117.496 109.501 118.966 109.188 120.431 108.896C119.116 109.356 117.804 109.803 116.488 110.276C115.003 110.655 113.508 111.063 112.019 111.456C113.358 110.886 114.691 110.36 116.029 109.802ZM106.364 111.834C108.246 111.412 110.114 111.038 111.989 110.635C110.307 111.35 108.624 112.062 106.938 112.797C105.225 113.266 103.521 113.7 101.802 114.188C103.323 113.416 104.846 112.587 106.364 111.834ZM96.958 114.082C99.0566 113.574 101.157 113.062 103.247 112.579C101.45 113.485 99.647 114.436 97.8469 115.365C95.7466 115.975 93.6399 116.612 91.5332 117.244C93.3423 116.171 95.1504 115.13 96.958 114.082ZM87.512 116.4C89.8118 115.807 92.0959 115.263 94.3882 114.696C92.4045 115.86 90.4207 116.973 88.437 118.166C86.28 118.831 84.1243 119.494 81.9597 120.192C83.8088 118.923 85.6602 117.642 87.512 116.4ZM2281.66 432.913C2283.58 430.775 2285.5 428.641 2287.42 426.498C2288.71 425.796 2290 425.078 2291.29 424.369C2289.33 426.432 2287.37 428.497 2285.41 430.545C2284.15 431.35 2282.91 432.114 2281.66 432.913ZM2274.5 440.879C2276.27 438.916 2278.04 436.935 2279.82 434.958C2280.98 434.222 2282.13 433.506 2283.29 432.764C2281.45 434.7 2279.61 436.645 2277.78 438.558C2276.68 439.356 2275.59 440.087 2274.5 440.879ZM2267.85 448.272C2269.31 446.667 2270.78 445.025 2272.24 443.39C2273.19 442.705 2274.14 442.061 2275.1 441.372C2273.68 442.862 2272.27 444.357 2270.86 445.813C2269.86 446.62 2268.85 447.47 2267.85 448.272ZM2262.24 454.498C2263.07 453.587 2263.9 452.669 2264.74 451.736C2265.41 451.204 2266.08 450.672 2266.75 450.136C2266 450.925 2265.25 451.726 2264.51 452.487C2263.75 453.152 2262.99 453.835 2262.24 454.498ZM145.06 103.638C145.686 103.566 146.316 103.483 146.94 103.416L146.017 103.598C145.421 103.689 144.833 103.753 144.236 103.847C144.509 103.779 144.785 103.706 145.06 103.638ZM134.895 104.832C136.333 104.668 137.773 104.498 139.213 104.325C137.721 104.714 136.24 105.06 134.747 105.463C133.367 105.702 131.986 105.947 130.609 106.178C132.043 105.705 133.465 105.293 134.895 104.832ZM124.667 106.243C126.685 105.93 128.709 105.605 130.712 105.334C129.09 105.869 127.459 106.453 125.834 107.005C123.847 107.381 121.845 107.81 119.847 108.23C121.452 107.573 123.063 106.881 124.667 106.243ZM115.065 107.685C117.205 107.36 119.34 107.047 121.483 106.721C119.59 107.487 117.697 108.274 115.801 109.063C113.663 109.51 111.534 109.931 109.392 110.384C111.286 109.457 113.174 108.586 115.065 107.685ZM104.91 109.463C107.419 108.989 109.932 108.507 112.422 108.09C110.315 109.107 108.211 110.059 106.1 111.108C103.827 111.62 101.539 112.186 99.2527 112.745C101.138 111.662 103.026 110.517 104.91 109.463ZM95.5405 111.173C97.9185 110.728 100.284 110.319 102.66 109.873C100.669 111.001 98.6741 112.201 96.6799 113.359C94.3074 113.94 91.9485 114.468 89.5718 115.059C91.5608 113.738 93.5515 112.466 95.5405 111.173ZM2275.28 436.932C2277.27 434.591 2279.26 432.239 2281.25 429.892C2282.65 429.14 2284.07 428.331 2285.47 427.569C2283.44 429.832 2281.41 432.094 2279.38 434.347C2278.02 435.213 2276.65 436.073 2275.28 436.932ZM2268.12 445.387C2269.96 443.242 2271.82 441.029 2273.67 438.835C2274.96 438.028 2276.25 437.208 2277.54 436.392C2275.63 438.528 2273.71 440.672 2271.8 442.786C2270.57 443.669 2269.35 444.51 2268.12 445.387ZM2260.75 453.899C2262.54 451.823 2264.32 449.793 2266.11 447.728C2267.25 446.914 2268.39 446.118 2269.54 445.298C2267.79 447.256 2266.03 449.23 2264.3 451.137C2263.11 452.083 2261.93 452.96 2260.75 453.899ZM2253.57 462.171L2258.21 456.82C2259.26 455.996 2260.3 455.21 2261.34 454.381C2259.81 456.052 2258.28 457.681 2256.75 459.357C2255.69 460.276 2254.62 461.259 2253.57 462.171ZM2247.7 468.927C2248.59 467.915 2249.47 466.892 2250.36 465.872C2250.93 465.379 2251.49 464.916 2252.07 464.423C2251.16 465.399 2250.26 466.383 2249.35 467.363C2248.8 467.876 2248.25 468.415 2247.7 468.927ZM165.033 100.964C165.44 100.953 165.85 100.937 166.256 100.926C165.572 100.973 164.879 101.047 164.192 101.101L165.033 100.964ZM154.694 101.308C156.146 101.234 157.576 101.213 159.024 101.153C157.537 101.41 156.055 101.647 154.563 101.919C153.185 102.046 151.818 102.135 150.438 102.269C151.86 101.931 153.274 101.634 154.694 101.308ZM143.926 101.998C145.898 101.868 147.875 101.733 149.841 101.619C148.201 102.012 146.547 102.466 144.902 102.876C142.894 103.096 140.877 103.347 138.862 103.587C140.55 103.058 142.241 102.507 143.926 101.998ZM133.822 102.742C136.115 102.541 138.394 102.374 140.673 102.206C138.692 102.817 136.709 103.437 134.726 104.074C132.431 104.368 130.138 104.66 127.831 104.987C129.833 104.203 131.824 103.498 133.822 102.742ZM123.327 103.755C125.841 103.501 128.35 103.257 130.851 103.029C128.721 103.847 126.594 104.644 124.459 105.495C122.13 105.834 119.797 106.188 117.461 106.546C119.416 105.624 121.374 104.647 123.327 103.755ZM113.427 104.861C115.984 104.544 118.536 104.245 121.076 103.971C118.999 104.932 116.918 105.948 114.839 106.939C112.268 107.358 109.685 107.813 107.098 108.28C109.209 107.111 111.317 105.999 113.427 104.861ZM103.229 106.173C105.927 105.812 108.618 105.471 111.307 105.135C109.091 106.342 106.877 107.483 104.659 108.727C102.176 109.179 99.6963 109.622 97.2083 110.088C99.2156 108.795 101.22 107.435 103.229 106.173ZM2268.97 440.914C2271.09 438.306 2273.24 435.634 2275.38 432.972C2276.75 432.251 2278.11 431.585 2279.48 430.854C2277.4 433.315 2275.31 435.782 2273.23 438.225C2271.81 439.115 2270.39 440.036 2268.97 440.914ZM2261.36 450.161C2263.41 447.666 2265.43 445.234 2267.47 442.745C2268.85 441.894 2270.24 440.991 2271.62 440.13C2269.63 442.476 2267.64 444.823 2265.66 447.125C2264.23 448.142 2262.8 449.154 2261.36 450.161ZM2253.88 459.249C2255.77 456.949 2257.66 454.657 2259.56 452.357C2260.9 451.412 2262.25 450.449 2263.6 449.496C2261.66 451.739 2259.71 453.965 2257.76 456.223C2256.47 457.246 2255.17 458.234 2253.88 459.249ZM2246.63 468.055C2248.31 466.015 2250.01 463.95 2251.7 461.89C2252.88 460.974 2254.05 460.066 2255.23 459.144C2253.46 461.188 2251.68 463.233 2249.91 465.271C2248.81 466.218 2247.72 467.112 2246.63 468.055ZM2239.7 476.446C2241.11 474.748 2242.53 473.021 2243.96 471.289C2244.88 470.506 2245.79 469.748 2246.71 468.961C2245.2 470.704 2243.69 472.455 2242.19 474.167C2241.35 474.945 2240.53 475.671 2239.7 476.446ZM2233.1 484.279C2234.08 483.105 2235.06 481.945 2236.04 480.789C2236.65 480.227 2237.25 479.691 2237.86 479.128C2236.86 480.265 2235.88 481.348 2234.88 482.483C2234.29 483.07 2233.69 483.696 2233.1 484.279ZM186.114 99.8509C186.401 99.8652 186.687 99.8817 186.974 99.8966C186.302 99.9184 185.639 99.9126 184.966 99.9349C185.35 99.9041 185.731 99.8791 186.114 99.8509ZM174.792 99.4311C176.455 99.4593 178.124 99.4747 179.772 99.5327C178.437 99.6514 177.092 99.7955 175.753 99.9232C174.158 99.9413 172.562 99.9594 170.96 100.001C172.237 99.8083 173.516 99.6131 174.792 99.4311ZM164.208 99.2156C166.202 99.2481 168.186 99.2997 170.177 99.3375C168.437 99.6013 166.684 99.9067 164.938 100.189C162.932 100.25 160.925 100.314 158.916 100.379C160.68 99.9897 162.448 99.5854 164.208 99.2156ZM153.31 99.2726C155.789 99.23 158.272 99.1773 160.732 99.1821C158.676 99.6295 156.625 100.065 154.564 100.539C152.067 100.662 149.547 100.848 147.031 101.022C149.13 100.4 151.215 99.8663 153.31 99.2726ZM142.7 99.4162C145.238 99.3513 147.748 99.3524 150.275 99.3093C148.111 99.9339 145.945 100.575 143.776 101.23C141.383 101.395 139.012 101.511 136.612 101.696C138.642 100.941 140.676 100.142 142.7 99.4162ZM132.146 99.887C134.834 99.753 137.523 99.6157 140.191 99.5269C138.01 100.321 135.825 101.159 133.64 101.984C130.955 102.213 128.252 102.49 125.551 102.764C127.751 101.769 129.947 100.848 132.146 99.887ZM121.62 100.436C124.422 100.258 127.204 100.125 129.99 99.9833C127.7 100.996 125.414 101.95 123.12 102.999C120.522 103.271 117.924 103.537 115.313 103.843C117.416 102.719 119.52 101.526 121.62 100.436ZM111.42 101.218C114.199 100.99 116.976 100.765 119.736 100.579C117.557 101.723 115.375 102.938 113.192 104.115C110.422 104.45 107.64 104.815 104.856 105.189C107.042 103.825 109.232 102.546 111.42 101.218ZM2262.55 444.888C2264.88 441.921 2267.19 438.99 2269.52 435.996C2270.94 435.259 2272.35 434.545 2273.77 433.8C2271.52 436.599 2269.26 439.396 2267.03 442.142C2265.53 443.062 2264.04 443.978 2262.55 444.888ZM2254.69 454.882C2256.88 452.093 2259.06 449.328 2261.26 446.535C2262.67 445.672 2264.09 444.859 2265.5 443.987C2263.37 446.589 2261.24 449.152 2259.1 451.762C2257.63 452.794 2256.15 453.862 2254.69 454.882ZM2247.08 464.543C2249.07 462.025 2251.06 459.487 2253.06 456.949C2254.47 455.975 2255.88 454.94 2257.29 453.957C2255.27 456.41 2253.26 458.855 2251.24 461.302C2249.86 462.385 2248.47 463.471 2247.08 464.543ZM2239.7 473.923C2241.5 471.651 2243.33 469.311 2245.15 466.99C2246.46 465.986 2247.76 464.955 2249.07 463.943C2247.21 466.205 2245.35 468.476 2243.5 470.701C2242.23 471.786 2240.97 472.847 2239.7 473.923ZM2232.14 483.337C2233.85 481.199 2235.55 479.091 2237.25 476.977C2238.44 475.967 2239.64 474.952 2240.84 473.936C2239.08 476.048 2237.34 478.096 2235.58 480.199C2234.43 481.26 2233.29 482.281 2232.14 483.337ZM2224.95 492.301L2229.12 487.1C2230.06 486.245 2230.99 485.401 2231.93 484.54C2230.43 486.314 2228.93 488.094 2227.43 489.878C2226.6 490.701 2225.78 491.481 2224.95 492.301ZM2218.78 499.987C2219.56 499.018 2220.34 498.033 2221.13 497.056C2221.61 496.579 2222.1 496.117 2222.58 495.64C2221.74 496.641 2220.89 497.65 2220.05 498.645L2218.78 499.987ZM208.402 100.474C208.567 100.494 208.729 100.521 208.893 100.541C208.381 100.516 207.86 100.513 207.346 100.488L206.94 100.452C207.428 100.455 207.914 100.469 208.402 100.474ZM196.052 99.1225C197.677 99.2922 199.307 99.4497 200.925 99.629C199.869 99.6349 198.8 99.6785 197.741 99.6902C195.924 99.5668 194.087 99.4933 192.258 99.3981C193.519 99.3173 194.794 99.1949 196.052 99.1225ZM185.229 98.0851C187.368 98.2553 189.491 98.4618 191.616 98.6623C189.775 98.7826 187.925 98.9294 186.078 99.0688C184.045 98.9741 182.034 98.8336 179.992 98.7597C181.739 98.5293 183.487 98.2984 185.229 98.0851ZM173.87 97.2802C176.345 97.4488 178.818 97.618 181.282 97.8053C179.094 98.0899 176.915 98.3399 174.718 98.6528C172.298 98.5889 169.865 98.549 167.434 98.5059C169.586 98.0665 171.723 97.6909 173.87 97.2802ZM162.581 96.6923C165.321 96.796 168.059 96.904 170.772 97.0604C168.557 97.4988 166.336 97.9675 164.114 98.4373C161.495 98.416 158.859 98.4336 156.219 98.4634C158.339 97.8755 160.465 97.2509 162.581 96.6923ZM151.864 96.2853C154.59 96.3752 157.307 96.4869 160.025 96.5954C157.747 97.2073 155.464 97.8553 153.182 98.5006C150.457 98.5309 147.737 98.5501 145.004 98.6017C147.295 97.7914 149.576 97.061 151.864 96.2853ZM140.69 96.1597C143.689 96.1597 146.698 96.1406 149.664 96.2076C147.287 97.0232 144.915 97.7967 142.532 98.6506C139.747 98.7304 136.929 98.8858 134.117 99.0273C136.307 98.0798 138.501 97.0737 140.69 96.1597ZM130.293 96.106C133.135 96.09 135.945 96.1411 138.775 96.1491C136.506 97.1072 134.232 98.1292 131.96 99.1231C129.116 99.2608 126.288 99.3598 123.432 99.5253C125.719 98.3463 128.005 97.2461 130.293 96.106ZM119.384 96.3997C122.418 96.3002 125.459 96.189 128.463 96.1549C126.109 97.3387 123.756 98.4559 121.401 99.6801C118.578 99.8588 115.727 100.1 112.879 100.334C115.047 99.0273 117.215 97.6707 119.384 96.3997ZM2256.37 448.571C2258.76 445.396 2261.14 442.261 2263.55 439.079C2265.03 438.322 2266.51 437.549 2267.99 436.782C2265.59 439.864 2263.21 442.862 2260.81 445.924C2259.33 446.827 2257.85 447.677 2256.37 448.571ZM2248.17 459.409C2250.5 456.335 2252.83 453.252 2255.16 450.163C2256.62 449.291 2258.06 448.453 2259.52 447.571C2257.21 450.51 2254.91 453.426 2252.6 456.357C2251.12 457.38 2249.65 458.397 2248.17 459.409ZM2240.28 469.836C2242.44 467.01 2244.61 464.114 2246.78 461.243C2248.18 460.285 2249.57 459.39 2250.97 458.424C2248.88 461.091 2246.78 463.768 2244.69 466.404C2243.22 467.536 2241.75 468.716 2240.28 469.836ZM2232.48 480.035C2234.51 477.39 2236.51 474.796 2238.54 472.14C2239.94 471.071 2241.36 469.929 2242.77 468.851C2240.77 471.381 2238.77 473.893 2236.78 476.391C2235.35 477.603 2233.91 478.835 2232.48 480.035ZM2224.76 490.072L2230.32 482.845C2231.65 481.73 2233 480.569 2234.33 479.446C2232.44 481.799 2230.55 484.145 2228.66 486.511C2227.36 487.702 2226.06 488.89 2224.76 490.072ZM2217.34 499.711C2218.94 497.641 2220.55 495.544 2222.15 493.454C2223.31 492.403 2224.48 491.33 2225.64 490.274C2223.98 492.339 2222.33 494.409 2220.67 496.462C2219.56 497.554 2218.45 498.625 2217.34 499.711ZM2210.13 509.079C2211.46 507.366 2212.81 505.606 2214.15 503.853C2215.05 502.975 2215.96 502.096 2216.86 501.215C2215.51 502.905 2214.15 504.603 2212.81 506.259C2211.92 507.19 2211.02 508.153 2210.13 509.079ZM2203.58 517.447C2204.21 516.633 2204.84 515.831 2205.47 515.028C2205.88 514.605 2206.29 514.172 2206.7 513.748C2205.97 514.638 2205.25 515.519 2204.52 516.417C2204.2 516.764 2203.89 517.101 2203.58 517.447ZM231.43 102.992C231.757 103.057 232.09 103.111 232.416 103.178C231.988 103.121 231.553 103.078 231.123 103.022C230.834 102.974 230.549 102.922 230.26 102.875C230.65 102.909 231.038 102.956 231.43 102.992ZM218.765 100.62C220.364 100.922 221.963 101.219 223.564 101.518C222.366 101.425 221.155 101.361 219.954 101.275C218.233 101.024 216.498 100.804 214.773 100.563C216.1 100.591 217.44 100.582 218.765 100.62ZM207.035 98.682C209.409 99.0331 211.791 99.3726 214.14 99.7711C212.239 99.7333 210.333 99.7083 208.424 99.6902C206.12 99.4029 203.801 99.1507 201.477 98.906C203.332 98.8187 205.185 98.748 207.035 98.682ZM195.564 96.928C198.055 97.2743 200.508 97.6909 202.985 98.0617C200.669 98.1628 198.37 98.2096 196.044 98.3415C193.678 98.0995 191.328 97.8265 188.953 97.6047C191.164 97.3498 193.36 97.1525 195.564 96.928ZM183.529 95.4878C186.328 95.8091 189.127 96.1278 191.905 96.4896C189.67 96.7332 187.42 97.0269 185.177 97.3025C182.435 97.0743 179.667 96.8992 176.902 96.7173C179.11 96.3087 181.327 95.8661 183.529 95.4878ZM172.276 94.2801C175.171 94.5541 178.052 94.8558 180.922 95.176C178.553 95.5958 176.177 96.0437 173.801 96.4981C170.924 96.3161 168.04 96.1475 165.141 96.0134C167.525 95.3957 169.896 94.8611 172.276 94.2801ZM160.753 93.2858C163.79 93.5289 166.816 93.7901 169.834 94.07C167.382 94.6791 164.934 95.2654 162.473 95.9134C159.632 95.7889 156.783 95.6836 153.926 95.5905C156.2 94.8286 158.482 94.012 160.753 93.2858ZM149.701 92.5675C152.748 92.7319 155.797 92.8926 158.812 93.1176C156.458 93.8795 154.096 94.7084 151.737 95.5064C148.704 95.4277 145.64 95.4138 142.577 95.3973C144.954 94.4142 147.327 93.5103 149.701 92.5675ZM138.587 91.9733C141.684 92.1185 144.763 92.2957 147.846 92.4675C145.404 93.4475 142.966 94.3658 140.523 95.3872C137.626 95.3665 134.734 95.3378 131.826 95.3404C134.08 94.2269 136.335 93.0506 138.587 91.9733ZM127.693 91.6929C130.813 91.7413 133.943 91.7647 137.023 91.8898C134.717 93.0022 132.406 94.1897 130.098 95.341C127.001 95.3649 123.858 95.4904 120.728 95.5937C123.047 94.2413 125.372 93.0038 127.693 91.6929ZM2250.16 452.263C2252.61 448.911 2255.06 445.561 2257.51 442.194C2259.02 441.435 2260.54 440.619 2262.05 439.849C2259.6 443.101 2257.16 446.313 2254.71 449.554C2253.2 450.465 2251.68 451.363 2250.16 452.263ZM2241.87 463.631C2244.25 460.383 2246.64 457.088 2249.03 453.812C2250.52 452.929 2252.02 452.039 2253.51 451.147C2251.11 454.319 2248.72 457.491 2246.33 460.644C2244.84 461.663 2243.36 462.622 2241.87 463.631ZM2233.61 474.922C2235.92 471.791 2238.25 468.584 2240.58 465.401C2242.03 464.418 2243.48 463.47 2244.94 462.477C2242.65 465.511 2240.35 468.578 2238.07 471.556C2236.59 472.693 2235.1 473.797 2233.61 474.922ZM2225.34 486.087C2227.59 483.044 2229.83 480.036 2232.08 476.993C2233.5 475.92 2234.91 474.92 2236.33 473.837C2234.17 476.664 2232.02 479.434 2229.85 482.262C2228.35 483.518 2226.83 484.843 2225.34 486.087ZM2217.43 496.755C2219.42 494.079 2221.41 491.385 2223.41 488.692C2224.83 487.516 2226.27 486.256 2227.69 485.07C2225.69 487.674 2223.69 490.274 2221.69 492.87C2220.27 494.153 2218.85 495.48 2217.43 496.755ZM2209.79 507.068C2211.55 504.698 2213.34 502.276 2215.12 499.866C2216.44 498.686 2217.77 497.438 2219.09 496.25C2217.29 498.597 2215.48 500.953 2213.69 503.264C2212.39 504.529 2211.08 505.81 2209.79 507.068ZM2201.84 517.676C2203.57 515.364 2205.28 513.117 2207.02 510.797C2208.18 509.681 2209.35 508.527 2210.5 507.405C2208.66 509.784 2206.83 512.099 2204.99 514.462C2203.94 515.556 2202.9 516.588 2201.84 517.676ZM2194.65 527.223C2195.9 525.553 2197.16 523.886 2198.41 522.224C2199.24 521.376 2200.06 520.557 2200.88 519.707C2199.62 521.319 2198.35 522.939 2197.08 524.56C2196.27 525.447 2195.46 526.338 2194.65 527.223ZM2187.88 536.205C2188.57 535.285 2189.28 534.352 2189.97 533.425C2190.34 533.024 2190.72 532.61 2191.08 532.207C2190.29 533.221 2189.49 534.247 2188.7 535.252C2188.43 535.565 2188.15 535.892 2187.88 536.205ZM255.145 107.492C255.42 107.568 255.698 107.64 255.972 107.717C255.636 107.633 255.305 107.541 254.968 107.459L255.145 107.492ZM242.765 104.135C244.357 104.54 245.918 105.001 247.504 105.419C246.17 105.204 244.826 105.01 243.488 104.804C241.844 104.436 240.199 104.072 238.553 103.711C239.953 103.86 241.369 103.975 242.765 104.135ZM230.098 101.129C232.417 101.673 234.744 102.206 237.053 102.77C235.197 102.579 233.342 102.383 231.478 102.21C229.076 101.726 226.645 101.298 224.223 100.851C226.187 100.928 228.142 101.03 230.098 101.129ZM217.744 98.4064C220.487 98.965 223.222 99.538 225.938 100.147C223.558 100.046 221.193 99.9057 218.802 99.8365C216.243 99.3806 213.678 98.9331 211.097 98.5182C213.32 98.4575 215.53 98.4389 217.744 98.4064ZM205.631 95.9666C208.426 96.5082 211.199 97.086 213.98 97.6483C211.677 97.6999 209.355 97.8148 207.043 97.8973C204.28 97.4648 201.513 97.0386 198.739 96.6252C201.036 96.405 203.343 96.1549 205.631 95.9666ZM193.601 93.9013C196.691 94.3988 199.787 94.8871 202.842 95.4458C200.411 95.6586 197.975 95.8948 195.536 96.1432C192.442 95.7203 189.305 95.3798 186.177 95.0255C188.66 94.611 191.126 94.2764 193.601 93.9013ZM181.728 92.0041C184.874 92.467 187.992 92.9793 191.113 93.4847C188.569 93.8832 186.029 94.262 183.476 94.7015C180.532 94.3631 177.597 94.0082 174.634 93.7076C176.997 93.1426 179.368 92.533 181.728 92.0041ZM170.143 90.4602C173.283 90.8587 176.419 91.2678 179.534 91.7115C177.092 92.2696 174.637 92.9016 172.19 93.4964C169.06 93.1959 165.909 92.9362 162.753 92.6825C165.222 91.9047 167.68 91.1965 170.143 90.4602ZM158.463 89.0988C161.744 89.4441 165.015 89.8069 168.264 90.2096C165.725 90.9795 163.193 91.6887 160.648 92.501C157.587 92.2659 154.505 92.068 151.416 91.8866C153.764 90.9619 156.117 89.9835 158.463 89.0988ZM147.278 87.9816C150.447 88.2758 153.604 88.596 156.753 88.928C154.358 89.8404 151.956 90.8337 149.558 91.7871C146.399 91.603 143.235 91.4285 140.057 91.2795C142.465 90.1373 144.872 89.0823 147.278 87.9816ZM135.884 87.1075C139.183 87.3277 142.485 87.5395 145.747 87.8278C143.304 88.9541 140.864 90.0229 138.42 91.1928C135.313 91.0625 132.162 91.0125 129.019 90.9507C131.307 89.6659 133.594 88.3524 135.884 87.1075ZM2243.94 455.967C2246.49 452.362 2249.06 448.721 2251.62 445.099C2253.1 444.365 2254.58 443.68 2256.08 442.934C2253.58 446.364 2251.08 449.789 2248.58 453.203C2247.04 454.119 2245.48 455.064 2243.94 455.967ZM2235.53 467.882C2237.96 464.459 2240.42 460.948 2242.87 457.479C2244.4 456.59 2245.93 455.652 2247.45 454.752C2245.01 458.105 2242.55 461.486 2240.12 464.803C2238.59 465.839 2237.06 466.857 2235.53 467.882ZM2227.06 479.776C2229.47 476.399 2231.89 473.01 2234.31 469.599C2235.82 468.596 2237.32 467.585 2238.83 466.571C2236.42 469.862 2234.01 473.155 2231.62 476.401C2230.1 477.548 2228.58 478.639 2227.06 479.776ZM2218.55 491.652C2220.91 488.358 2223.27 485.071 2225.64 481.765C2227.12 480.661 2228.6 479.587 2230.08 478.471C2227.7 481.693 2225.33 484.884 2222.95 488.101C2221.47 489.319 2220.02 490.445 2218.55 491.652ZM2210.15 503.38C2212.39 500.261 2214.65 497.097 2216.91 493.944C2218.33 492.779 2219.74 491.679 2221.16 490.505C2218.99 493.437 2216.82 496.375 2214.66 499.281C2213.16 500.625 2211.65 502.047 2210.15 503.38ZM2202.21 514.444C2204.21 511.681 2206.23 508.851 2208.25 506.036C2209.62 504.819 2210.98 503.618 2212.35 502.392C2210.42 505.011 2208.48 507.647 2206.56 510.21C2205.12 511.6 2203.65 513.062 2202.21 514.444ZM2194.17 525.5C2196 522.988 2197.81 520.496 2199.63 518C2200.96 516.731 2202.31 515.369 2203.64 514.09C2201.74 516.61 2199.85 519.119 2197.94 521.657C2196.68 522.95 2195.43 524.214 2194.17 525.5ZM2186.15 536.533C2187.83 534.222 2189.52 531.896 2191.21 529.573C2192.31 528.451 2193.41 527.329 2194.51 526.201C2192.84 528.427 2191.16 530.66 2189.48 532.876C2188.38 534.082 2187.25 535.334 2186.15 536.533ZM2179.06 546.273C2180.18 544.739 2181.32 543.175 2182.45 541.616C2183.24 540.762 2184.02 539.929 2184.82 539.072C2183.65 540.624 2182.48 542.186 2181.32 543.709C2180.57 544.575 2179.82 545.409 2179.06 546.273ZM2172.76 554.885C2173.32 554.123 2173.87 553.396 2174.43 552.63L2175.2 551.755C2174.54 552.623 2173.88 553.468 2173.22 554.337L2172.76 554.885ZM267.384 109.785C269.205 110.375 271.018 110.981 272.821 111.598C271.371 111.24 269.913 110.899 268.457 110.552C266.87 110.072 265.298 109.564 263.705 109.095C264.927 109.332 266.163 109.54 267.384 109.785ZM254.514 105.67C256.803 106.388 259.081 107.129 261.364 107.86C259.339 107.478 257.321 107.08 255.287 106.722C252.982 106.082 250.664 105.472 248.354 104.843C250.414 105.103 252.462 105.388 254.514 105.67ZM241.251 101.808C244.136 102.612 247.026 103.405 249.881 104.257C247.542 103.955 245.216 103.627 242.865 103.357C240.045 102.639 237.188 101.989 234.335 101.33C236.648 101.466 238.948 101.641 241.251 101.808ZM228.507 98.3304C231.481 99.097 234.432 99.8987 237.379 100.71C234.988 100.555 232.574 100.468 230.172 100.347C227.303 99.6849 224.443 99.0034 221.553 98.3793C223.872 98.3623 226.199 98.3155 228.507 98.3304ZM216.14 95.2601C219.245 96.014 222.341 96.7832 225.428 97.5669C222.887 97.5664 220.34 97.5829 217.786 97.6217C214.678 96.9737 211.558 96.3507 208.431 95.7384C211.01 95.541 213.571 95.4181 216.14 95.2601ZM203.503 92.4436C206.88 93.1522 210.262 93.854 213.6 94.6307C210.95 94.8063 208.304 94.9584 205.641 95.1771C202.477 94.585 199.274 94.0556 196.073 93.5257C198.551 93.1639 201.034 92.7686 203.503 92.4436ZM191.634 89.9458C194.846 90.5799 198.018 91.2827 201.208 91.9547C198.675 92.3005 196.124 92.7255 193.582 93.1107C190.395 92.583 187.228 92.018 184.02 91.5275C186.562 90.9699 189.098 90.4623 191.634 89.9458ZM179.347 87.7491C182.764 88.3375 186.18 88.928 189.561 89.5755C186.933 90.1213 184.31 90.6252 181.675 91.2157C178.451 90.7449 175.196 90.3325 171.942 89.9197C174.411 89.1887 176.883 88.4375 179.347 87.7491ZM167.638 85.8077C170.949 86.3185 174.24 86.8622 177.524 87.4229C175.041 88.1252 172.548 88.9243 170.061 89.6681C166.771 89.2541 163.475 88.8551 160.157 88.4902C162.653 87.5581 165.145 86.6973 167.638 85.8077ZM155.791 84.0909C159.204 84.5602 162.604 85.0523 165.99 85.5689C163.444 86.4855 160.899 87.3469 158.35 88.3103C155.136 87.9645 151.909 87.6453 148.671 87.3442C151.044 86.2653 153.42 85.1294 155.791 84.0909ZM144.318 82.6603C147.682 83.0466 151.044 83.4387 154.371 83.8861C151.962 84.9491 149.552 86.0865 147.139 87.1915C143.82 86.8941 140.47 86.6515 137.117 86.4174C139.515 85.1209 141.918 83.9153 144.318 82.6603ZM2237.74 459.614C2240.41 455.735 2243.08 451.821 2245.76 447.928C2247.26 447.196 2248.76 446.489 2250.27 445.747C2247.65 449.455 2245.03 453.184 2242.41 456.877C2240.86 457.784 2239.3 458.717 2237.74 459.614ZM2229.14 472.161C2231.66 468.502 2234.23 464.734 2236.78 461.018C2238.3 460.143 2239.82 459.273 2241.35 458.387C2238.85 461.929 2236.33 465.518 2233.85 469.006C2232.28 470.052 2230.71 471.126 2229.14 472.161ZM2220.48 484.652C2222.99 481.033 2225.48 477.47 2227.99 473.835C2229.54 472.818 2231.09 471.75 2232.64 470.722C2230.14 474.233 2227.66 477.696 2225.17 481.179C2223.61 482.346 2222.04 483.499 2220.48 484.652ZM2211.86 497.068C2214.28 493.577 2216.71 490.084 2219.15 486.576C2220.68 485.448 2222.21 484.307 2223.74 483.168C2221.31 486.577 2218.87 489.969 2216.44 493.36C2214.91 494.616 2213.39 495.823 2211.86 497.068ZM2203.34 509.33C2205.66 506.012 2208 502.629 2210.33 499.268C2211.82 498.058 2213.31 496.871 2214.8 495.652C2212.46 498.926 2210.11 502.22 2207.78 505.451C2206.29 506.774 2204.82 508.018 2203.34 509.33ZM2194.83 521.507C2197.08 518.3 2199.32 515.094 2201.58 511.856C2203.02 510.593 2204.44 509.379 2205.88 508.106C2203.63 511.233 2201.39 514.336 2199.15 517.427C2197.7 518.809 2196.27 520.134 2194.83 521.507ZM2186.52 533.308C2188.59 530.366 2190.65 527.441 2192.72 524.502C2194.07 523.225 2195.39 522.022 2196.74 520.737C2194.73 523.501 2192.73 526.256 2190.72 529.022C2189.32 530.448 2187.91 531.891 2186.52 533.308ZM2178.32 544.949C2180.17 542.331 2182.03 539.682 2183.89 537.04C2185.17 535.742 2186.47 534.401 2187.76 533.094C2185.82 535.761 2183.88 538.435 2181.95 541.072C2180.73 542.388 2179.53 543.64 2178.32 544.949ZM2170.73 555.716C2172.24 553.593 2173.77 551.414 2175.29 549.244C2176.36 548.099 2177.42 546.986 2178.49 545.836C2176.97 547.936 2175.44 550.034 2173.93 552.092C2172.86 553.304 2171.8 554.509 2170.73 555.716ZM2162.97 566.594C2164.19 564.879 2165.4 563.184 2166.61 561.489C2167.38 560.626 2168.15 559.748 2168.91 558.884C2167.65 560.595 2166.37 562.318 2165.1 564.046C2164.39 564.888 2163.68 565.754 2162.97 566.594ZM2155.99 576.365L2157.51 574.233C2157.67 574.047 2157.82 573.872 2157.98 573.686C2157.37 574.51 2156.76 575.345 2156.15 576.168L2155.99 576.365ZM293.38 117.86C295.406 118.676 297.445 119.471 299.45 120.319C297.956 119.821 296.456 119.337 294.957 118.85C293.387 118.245 291.845 117.597 290.266 117.006C291.301 117.298 292.349 117.564 293.38 117.86ZM280.216 112.561C282.552 113.458 284.844 114.421 287.163 115.343C284.987 114.746 282.821 114.126 280.633 113.553C278.403 112.758 276.18 111.95 273.941 111.171C276.04 111.62 278.129 112.088 280.216 112.561ZM266.191 107.408C269.039 108.447 271.889 109.483 274.724 110.542C272.329 110.027 269.94 109.498 267.53 109.014C264.676 108.068 261.79 107.168 258.912 106.26C261.348 106.617 263.768 107.019 266.191 107.408ZM252.488 102.712C255.739 103.77 258.993 104.821 262.201 105.944C259.693 105.56 257.158 105.241 254.635 104.893C251.519 103.938 248.376 103.026 245.225 102.127C247.647 102.322 250.079 102.484 252.488 102.712ZM239.729 98.574C242.95 99.5715 246.137 100.629 249.332 101.67C246.678 101.435 244.016 101.221 241.348 101.028C238.194 100.139 235.062 99.2167 231.885 98.3681C234.511 98.4032 237.115 98.5001 239.729 98.574ZM226.54 94.6972C229.97 95.6804 233.393 96.6806 236.791 97.71C234.051 97.6478 231.316 97.5611 228.562 97.544C225.299 96.6992 222.009 95.8974 218.715 95.101C221.328 94.9552 223.941 94.8025 226.54 94.6972ZM213.804 91.2364C217.25 92.1281 220.694 93.0256 224.1 93.98C221.469 94.0998 218.815 94.3083 216.174 94.4711C212.77 93.6651 209.34 92.9048 205.901 92.1627C208.54 91.8291 211.172 91.5269 213.804 91.2364ZM201.398 88.0332C204.855 88.8807 208.263 89.8042 211.694 90.6917C208.966 91.0045 206.244 91.2928 203.507 91.6525C200.202 90.9438 196.914 90.2112 193.588 89.5393C196.195 89.019 198.8 88.5098 201.398 88.0332ZM188.868 85.2321C192.394 85.9955 195.921 86.7521 199.404 87.5809C196.806 88.0667 194.198 88.6221 191.595 89.152C188.132 88.4795 184.624 87.8831 181.12 87.2798C183.707 86.568 186.287 85.9003 188.868 85.2321ZM176.641 82.6305C180.182 83.3424 183.693 84.1 187.203 84.8607C184.565 85.5529 181.933 86.2163 179.29 86.9537C175.93 86.3733 172.574 85.7864 169.186 85.2507C171.672 84.3734 174.16 83.4658 176.641 82.6305ZM164.662 80.3748C168.13 81.0036 171.59 81.6474 175.027 82.3273C172.534 83.1742 170.033 84.1212 167.539 85.0124C164.09 84.4788 160.617 83.985 157.137 83.5073C159.646 82.4177 162.153 81.4207 164.662 80.3748ZM152.708 78.3345C156.243 78.9011 159.767 79.4868 163.266 80.112C160.731 81.176 158.2 82.1842 155.667 83.294C152.313 82.8401 148.939 82.422 145.554 82.024C147.938 80.7855 150.322 79.5305 152.708 78.3345ZM2231.71 462.991C2234.42 458.933 2237.15 454.843 2239.86 450.771C2241.39 450.042 2242.92 449.298 2244.45 448.559C2241.74 452.507 2239.03 456.473 2236.32 460.409C2234.78 461.293 2233.25 462.116 2231.71 462.991ZM2222.73 476.439C2225.39 472.475 2228.1 468.399 2230.79 464.372C2232.31 463.508 2233.83 462.687 2235.36 461.812C2232.75 465.624 2230.11 469.493 2227.52 473.242C2225.93 474.292 2224.32 475.401 2222.73 476.439ZM2213.88 489.547C2216.48 485.681 2219.07 481.873 2221.68 477.999C2223.24 476.986 2224.8 475.951 2226.36 474.926C2223.79 478.643 2221.25 482.285 2218.68 485.992C2217.08 487.168 2215.47 488.381 2213.88 489.547ZM2205.12 502.519C2207.61 498.83 2210.11 495.127 2212.62 491.415C2214.19 490.273 2215.77 489.069 2217.34 487.915C2214.84 491.516 2212.35 495.105 2209.86 498.685C2208.28 499.967 2206.7 501.25 2205.12 502.519ZM2196.46 515.34C2198.85 511.82 2201.27 508.216 2203.68 504.644C2205.23 503.403 2206.78 502.136 2208.33 500.885C2205.92 504.355 2203.5 507.856 2201.11 511.274C2199.56 512.644 2198.01 513.981 2196.46 515.34ZM2187.74 528.14C2190.1 524.666 2192.45 521.249 2194.82 517.761C2196.33 516.442 2197.84 515.129 2199.36 513.8C2196.98 517.2 2194.62 520.535 2192.25 523.919C2190.74 525.35 2189.24 526.72 2187.74 528.14ZM2178.87 541.108C2181.18 537.735 2183.48 534.362 2185.8 530.976C2187.25 529.615 2188.69 528.285 2190.14 526.913C2187.89 530.113 2185.64 533.3 2183.4 536.49C2181.89 538.01 2180.37 539.601 2178.87 541.108ZM2170.66 553.112C2172.62 550.25 2174.61 547.341 2176.59 544.443C2177.98 543.051 2179.38 541.622 2180.77 540.22C2178.77 543.056 2176.78 545.904 2174.8 548.702C2173.41 550.182 2172.04 551.641 2170.66 553.112ZM2162.3 565.278C2164.18 562.547 2166.06 559.821 2167.96 557.059C2169.23 555.708 2170.5 554.352 2171.77 552.994C2169.88 555.672 2168 558.298 2166.12 560.953C2164.85 562.383 2163.57 563.855 2162.3 565.278ZM2154.15 577.047C2155.69 574.823 2157.22 572.606 2158.76 570.395C2159.82 569.201 2160.91 567.951 2161.97 566.751C2160.32 569.059 2158.67 571.378 2157.01 573.694C2156.05 574.832 2155.11 575.914 2154.15 577.047ZM2146.74 587.732C2147.85 586.143 2148.96 584.539 2150.06 582.941C2150.76 582.117 2151.46 581.315 2152.16 580.489C2151.01 582.097 2149.86 583.718 2148.71 585.312C2148.06 586.126 2147.4 586.92 2146.74 587.732ZM2140.35 596.967C2140.71 596.448 2141.08 595.915 2141.44 595.39L2142.07 594.612C2141.58 595.297 2141.11 595.942 2140.62 596.621L2140.35 596.967ZM320.943 128.737C322.91 129.706 324.89 130.653 326.843 131.64C325.57 131.104 324.292 130.579 323.017 130.051C321.35 129.267 319.707 128.449 318.031 127.68C318.996 128.04 319.98 128.371 320.943 128.737ZM306.843 121.956C309.425 123.144 311.988 124.361 314.543 125.587C312.265 124.757 309.996 123.911 307.704 123.108C305.489 122.135 303.301 121.121 301.071 120.172C302.999 120.756 304.924 121.35 306.843 121.956ZM292.642 115.525C295.498 116.779 298.31 118.093 301.145 119.375C298.619 118.609 296.101 117.829 293.559 117.097C290.684 115.917 287.801 114.753 284.913 113.598C287.503 114.208 290.066 114.878 292.642 115.525ZM277.87 109.366C281.198 110.722 284.525 112.082 287.821 113.486C285.351 112.891 282.857 112.353 280.371 111.791C277.051 110.514 273.682 109.312 270.319 108.1C272.834 108.525 275.369 108.906 277.87 109.366ZM264.246 104.012C267.727 105.324 271.196 106.65 274.632 108.025C271.873 107.535 269.102 107.08 266.325 106.634C262.931 105.422 259.518 104.237 256.084 103.084C258.816 103.362 261.529 103.691 264.246 104.012ZM250.829 98.9975C254.323 100.25 257.765 101.578 261.229 102.878C258.35 102.555 255.484 102.205 252.588 101.931C249.278 100.835 245.987 99.7083 242.652 98.6496C245.385 98.7437 248.11 98.8602 250.829 98.9975ZM237.227 94.3918C240.837 95.5857 244.438 96.7912 248.008 98.0415C245.282 97.9196 242.537 97.8659 239.799 97.7888C236.238 96.6928 232.637 95.658 229.036 94.6264C231.77 94.5286 234.503 94.444 237.227 94.3918ZM224.089 90.2001C227.771 91.3263 231.44 92.4744 235.079 93.6651C232.254 93.7321 229.431 93.7938 226.594 93.9082C223.057 92.9038 219.501 91.9302 215.927 90.9864C218.654 90.697 221.371 90.4448 224.089 90.2001ZM211.262 86.328C214.876 87.3788 218.45 88.4896 222.038 89.5808C219.304 89.8383 216.56 90.1378 213.815 90.4421C210.299 89.5217 206.785 88.596 203.243 87.7145C205.919 87.2341 208.593 86.7622 211.262 86.328ZM198.356 82.855C202.096 83.8249 205.846 84.782 209.538 85.8274C206.826 86.2775 204.112 86.7388 201.394 87.2362C197.792 86.3701 194.135 85.5944 190.486 84.8033C193.112 84.1329 195.734 83.4812 198.356 82.855ZM185.935 79.6491C189.555 80.5381 193.134 81.4862 196.725 82.4214C194.094 83.0583 191.456 83.7504 188.82 84.4325C185.279 83.6594 181.751 82.8662 178.18 82.1368C180.767 81.2749 183.351 80.4668 185.935 79.6491ZM173.361 76.7528C177.07 77.579 180.77 78.4191 184.44 79.3054C181.814 80.1428 179.192 80.9483 176.564 81.8325C173.049 81.1308 169.505 80.4796 165.955 79.8358C168.425 78.8144 170.892 77.7328 173.361 76.7528ZM161.277 74.1613C164.887 74.8971 168.479 75.6627 172.053 76.4517C169.556 77.4503 167.056 78.5313 164.558 79.5741C161.009 78.9373 157.448 78.3206 153.867 77.736C156.337 76.5054 158.808 75.3467 161.277 74.1613ZM2225.64 466.388C2228.4 462.159 2231.18 457.883 2233.95 453.626C2235.49 452.902 2237.04 452.123 2238.59 451.388C2235.83 455.515 2233.07 459.661 2230.33 463.765C2228.76 464.65 2227.2 465.514 2225.64 466.388ZM2216.52 480.374C2219.25 476.207 2222 471.971 2224.76 467.75C2226.31 466.886 2227.85 466.022 2229.41 465.147C2226.67 469.243 2223.92 473.366 2221.21 477.402C2219.64 478.421 2218.08 479.366 2216.52 480.374ZM2207.28 494.411C2210.03 490.23 2212.76 486.099 2215.51 481.906C2217.06 480.911 2218.6 479.968 2220.16 478.963C2217.47 482.945 2214.82 486.865 2212.14 490.837C2210.52 492.013 2208.89 493.246 2207.28 494.411ZM2198.33 508.003C2200.93 504.062 2203.54 500.094 2206.15 496.125C2207.73 494.993 2209.3 493.847 2210.88 492.705C2208.32 496.502 2205.75 500.296 2203.2 504.067C2201.58 505.366 2199.95 506.717 2198.33 508.003ZM2189.52 521.4C2191.99 517.675 2194.49 513.848 2196.98 510.064C2198.57 508.804 2200.18 507.464 2201.77 506.19C2199.29 509.863 2196.8 513.575 2194.34 517.188C2192.74 518.59 2191.12 520.01 2189.52 521.4ZM2180.59 534.822C2183.06 531.113 2185.49 527.469 2187.96 523.758C2189.53 522.402 2191.11 520.998 2192.68 519.629C2190.22 523.245 2187.78 526.789 2185.32 530.403C2183.74 531.884 2182.17 533.354 2180.59 534.822ZM2171.6 548.332C2173.99 544.741 2176.39 541.14 2178.79 537.53C2180.32 536.109 2181.85 534.671 2183.38 533.239C2180.95 536.799 2178.52 540.352 2176.09 543.893C2174.59 545.403 2173.1 546.833 2171.6 548.332ZM2162.95 561.33C2165.14 558.047 2167.37 554.696 2169.58 551.366C2171.03 549.93 2172.46 548.541 2173.9 547.095C2171.75 550.251 2169.59 553.425 2167.45 556.531C2165.95 558.124 2164.44 559.747 2162.95 561.33ZM2154.28 574.251C2156.36 571.153 2158.42 568.117 2160.5 565.01C2161.91 563.522 2163.34 561.974 2164.75 560.477C2162.57 563.636 2160.43 566.708 2158.25 569.863C2156.92 571.354 2155.61 572.768 2154.28 574.251ZM2145.92 586.668L2151.4 578.528C2152.61 577.183 2153.81 575.881 2155.02 574.529L2149.55 582.424C2148.34 583.85 2147.13 585.25 2145.92 586.668ZM2137.85 598.654C2139.35 596.43 2140.86 594.177 2142.38 591.93C2143.41 590.728 2144.44 589.519 2145.47 588.311C2143.95 590.51 2142.43 592.718 2140.92 594.887C2139.89 596.141 2138.87 597.406 2137.85 598.654ZM2130.31 609.825C2131.34 608.315 2132.37 606.792 2133.4 605.258C2134.1 604.398 2134.82 603.51 2135.53 602.647C2134.36 604.324 2133.21 605.937 2132.04 607.606C2131.47 608.34 2130.89 609.093 2130.31 609.825ZM350.42 142.98C352.343 144.105 354.283 145.208 356.195 146.346C355.062 145.761 353.919 145.194 352.782 144.616C350.979 143.603 349.193 142.568 347.377 141.573C348.39 142.045 349.412 142.503 350.42 142.98ZM335.215 134.382C338.019 135.904 340.819 137.434 343.59 139.001C341.271 137.941 338.951 136.878 336.614 135.845C334.314 134.636 332.047 133.379 329.728 132.195C331.558 132.922 333.394 133.637 335.215 134.382ZM320.33 126.405C323.353 127.969 326.331 129.593 329.325 131.196C326.619 130.126 323.925 129.03 321.196 127.997C318.283 126.561 315.389 125.098 312.453 123.695C315.096 124.56 317.704 125.503 320.33 126.405ZM305.032 118.755C308.382 120.399 311.71 122.077 315.034 123.757C312.39 122.879 309.725 122.044 307.062 121.204C303.709 119.647 300.325 118.136 296.943 116.622C299.644 117.323 302.35 118.013 305.032 118.755ZM290.263 111.857C293.942 113.522 297.624 115.18 301.253 116.913C298.466 116.165 295.651 115.473 292.844 114.768C289.197 113.181 285.498 111.667 281.799 110.155C284.63 110.698 287.45 111.268 290.263 111.857ZM275.975 105.533C279.729 107.134 283.458 108.766 287.164 110.431C284.123 109.814 281.096 109.16 278.033 108.596C274.506 107.164 270.968 105.745 267.402 104.37C270.27 104.727 273.123 105.131 275.975 105.533ZM262.017 99.6604C265.735 101.169 269.392 102.757 273.074 104.313C270.188 103.922 267.284 103.578 264.38 103.236C260.774 101.864 257.17 100.486 253.533 99.1582C256.364 99.3157 259.202 99.4545 262.017 99.6604ZM248.081 94.3232C251.938 95.7666 255.793 97.2142 259.602 98.7267C256.72 98.5304 253.831 98.3612 250.934 98.2144C247.141 96.8668 243.294 95.6 239.451 94.328C242.339 94.286 245.205 94.3158 248.081 94.3232ZM234.41 89.3377C238.294 90.7007 242.155 92.0962 245.99 93.5241C243.099 93.53 240.205 93.5454 237.301 93.6012C233.613 92.3824 229.912 91.1838 226.186 90.0245C228.929 89.7899 231.678 89.5265 234.41 89.3377ZM221.288 84.8171C225.068 86.0796 228.811 87.3937 232.56 88.7008C229.759 88.9051 226.946 89.152 224.132 89.4052C220.419 88.2641 216.705 87.1271 212.958 86.0349C215.741 85.5896 218.512 85.2124 221.288 84.8171ZM207.988 80.6546C211.886 81.8309 215.796 82.9939 219.639 84.2484C216.854 84.6543 214.069 85.072 211.276 85.5252C207.543 84.4601 203.755 83.4759 199.972 82.4848C202.646 81.8564 205.318 81.2366 207.988 80.6546ZM195.175 76.7943C198.972 77.8871 202.719 79.05 206.48 80.1912C203.769 80.7913 201.056 81.4042 198.339 82.0527C194.686 81.0919 191.052 80.1034 187.37 79.1894C189.973 78.3744 192.576 77.5625 195.175 76.7943ZM182.415 73.334C186.195 74.3305 189.968 75.3355 193.701 76.3942C191.095 77.1736 188.484 78.019 185.874 78.8442C182.159 77.9408 178.405 77.0965 174.645 76.2591C177.237 75.2392 179.825 74.3082 182.415 73.334ZM169.851 70.109C173.629 71.0379 177.382 72.0029 181.123 72.9845C178.507 73.9757 175.892 74.9051 173.275 75.9436C169.678 75.1472 166.078 74.3561 162.45 73.6064C164.917 72.428 167.383 71.2432 169.851 70.109ZM2219.55 469.802C2222.39 465.341 2225.26 460.819 2228.12 456.32C2229.65 455.616 2231.17 454.943 2232.7 454.229C2229.89 458.538 2227.08 462.869 2224.29 467.143C2222.71 468.026 2221.13 468.931 2219.55 469.802ZM2210.27 484.331C2213.07 479.962 2215.88 475.563 2218.69 471.146C2220.26 470.284 2221.84 469.38 2223.41 468.505C2220.61 472.792 2217.82 477.074 2215.04 481.31C2213.45 482.33 2211.86 483.322 2210.27 484.331ZM2200.92 498.883C2203.72 494.524 2206.5 490.211 2209.3 485.837C2210.88 484.839 2212.45 483.849 2214.03 482.84C2211.24 487.098 2208.47 491.294 2205.68 495.537C2204.09 496.682 2202.51 497.75 2200.92 498.883ZM2191.61 513.375C2194.35 509.129 2197.1 504.844 2199.84 500.562C2201.42 499.445 2202.98 498.379 2204.55 497.25C2201.86 501.339 2199.17 505.433 2196.5 509.49C2194.87 510.782 2193.24 512.096 2191.61 513.375ZM2182.51 527.523C2185.12 523.48 2187.77 519.353 2190.4 515.256C2191.98 514.015 2193.56 512.802 2195.14 511.55C2192.58 515.438 2190.01 519.353 2187.47 523.187C2185.83 524.611 2184.16 526.112 2182.51 527.523ZM2173.41 541.542C2175.95 537.617 2178.48 533.743 2181.02 529.817C2182.64 528.435 2184.28 526.952 2185.9 525.558C2183.36 529.374 2180.85 533.142 2178.31 536.96C2176.68 538.476 2175.04 540.037 2173.41 541.542ZM2164.35 555.495C2166.8 551.726 2169.26 547.937 2171.72 544.143C2173.31 542.679 2174.92 541.143 2176.51 539.666C2174.03 543.393 2171.55 547.116 2169.09 550.816C2167.5 552.389 2165.93 553.934 2164.35 555.495ZM2155.3 569.442C2157.67 565.807 2160.08 562.083 2162.47 558.389C2164 556.88 2165.53 555.369 2167.07 553.848C2164.7 557.403 2162.33 560.989 2159.99 564.484C2158.43 566.132 2156.86 567.806 2155.3 569.442ZM2146.52 582.844C2148.74 579.44 2150.95 576.103 2153.17 572.704C2154.61 571.199 2156.03 569.757 2157.47 568.242C2155.27 571.503 2153.1 574.726 2150.9 577.999C2149.43 579.627 2147.98 581.225 2146.52 582.844ZM2137.69 596.292L2143.91 586.819C2145.28 585.306 2146.65 583.794 2148.02 582.271C2145.96 585.323 2143.91 588.378 2141.86 591.416C2140.47 593.036 2139.08 594.681 2137.69 596.292ZM2129.07 609.429C2130.88 606.679 2132.71 603.88 2134.54 601.091C2135.79 599.64 2137.06 598.133 2138.32 596.674C2136.5 599.38 2134.68 602.097 2132.88 604.758C2131.61 606.295 2130.33 607.898 2129.07 609.429ZM2120.95 621.727C2122.48 619.417 2123.98 617.168 2125.51 614.847C2126.46 613.7 2127.39 612.604 2128.34 611.451C2126.76 613.774 2125.19 616.058 2123.61 618.389C2122.72 619.519 2121.84 620.601 2120.95 621.727ZM2113.18 633.44C2114.22 631.864 2115.27 630.291 2116.31 628.725C2116.9 627.983 2117.48 627.253 2118.07 626.509C2116.96 628.14 2115.84 629.782 2114.73 631.414C2114.21 632.094 2113.7 632.759 2113.18 633.44ZM2107.11 642.583L2107.17 642.485L2107.19 642.464L2107.11 642.583ZM382.488 161.57C384.166 162.714 385.866 163.832 387.538 164.986C386.438 164.31 385.32 163.661 384.217 162.991C382.56 161.901 380.938 160.766 379.273 159.69C380.352 160.304 381.412 160.95 382.488 161.57ZM365.377 150.31C368.37 152.205 371.365 154.098 374.319 156.042C372.045 154.778 369.753 153.542 367.461 152.304C364.998 150.779 362.566 149.21 360.08 147.715C361.842 148.586 363.624 149.423 365.377 150.31ZM349.601 140.498C352.854 142.453 356.073 144.454 359.287 146.459C356.427 145.051 353.583 143.615 350.697 142.251C347.817 140.576 344.967 138.858 342.059 137.22C344.585 138.289 347.092 139.395 349.601 140.498ZM333.899 131.246C337.337 133.208 340.708 135.256 344.11 137.263C341.242 136.039 338.368 134.828 335.477 133.647C332.051 131.77 328.618 129.901 325.16 128.067C328.084 129.102 330.996 130.166 333.899 131.246ZM317.848 122.464C321.577 124.473 325.295 126.496 328.986 128.555C326.198 127.549 323.371 126.623 320.561 125.658C316.782 123.707 312.95 121.823 309.122 119.938C312.036 120.768 314.954 121.587 317.848 122.464ZM302.677 114.626C306.697 116.633 310.719 118.64 314.677 120.728C311.542 119.802 308.408 118.876 305.25 118.002C301.38 116.127 297.467 114.315 293.541 112.516C296.604 113.178 299.635 113.913 302.677 114.626ZM287.711 107.286C291.734 109.191 295.722 111.142 299.692 113.118C296.618 112.417 293.535 111.737 290.438 111.089C286.652 109.365 282.862 107.644 279.03 105.981C281.926 106.409 284.831 106.811 287.711 107.286ZM273.48 100.672C277.386 102.436 281.243 104.263 285.111 106.078C282.129 105.602 279.126 105.184 276.126 104.761C272.239 103.098 268.344 101.447 264.422 99.836C267.454 100.072 270.464 100.383 273.48 100.672ZM258.899 94.4243C263.035 96.148 267.174 97.8686 271.25 99.6742C268.218 99.3981 265.19 99.0991 262.141 98.8773C258.224 97.3046 254.241 95.8246 250.264 94.3333C253.145 94.3535 256.032 94.3551 258.899 94.4243ZM245.057 88.7636C249.03 90.332 252.972 91.9408 256.896 93.5736C254 93.5161 251.082 93.5417 248.172 93.5348C244.256 92.0648 240.329 90.6049 236.367 89.1972C239.273 89.0083 242.163 88.9009 245.057 88.7636ZM231.259 83.4371C235.28 84.9432 239.262 86.5031 243.244 88.063C240.319 88.2135 237.4 88.338 234.464 88.5412C230.648 87.1995 226.824 85.8716 222.972 84.5836C225.734 84.2 228.504 83.7722 231.259 83.4371ZM217.756 78.6441C221.767 80.0231 225.786 81.3925 229.739 82.8497C226.94 83.1987 224.131 83.6169 221.322 84.0159C217.414 82.7311 213.451 81.5207 209.489 80.3115C212.249 79.7177 215.002 79.1884 217.756 78.6441ZM204.587 74.1252C208.512 75.4174 212.381 76.7858 216.271 78.127C213.511 78.6798 210.747 79.2453 207.98 79.8481C204.194 78.6909 200.432 77.4982 196.611 76.3878C199.271 75.6095 201.929 74.8572 204.587 74.1252ZM191.314 70.0026C195.299 71.2092 199.277 72.4216 203.209 73.6974C200.52 74.446 197.828 75.1919 195.135 75.9878C191.337 74.9035 187.49 73.8874 183.641 72.8733C186.2 71.9184 188.759 70.9118 191.314 70.0026ZM178.574 66.2188C182.429 67.3196 186.253 68.464 190.07 69.6158C187.498 70.5362 184.924 71.5555 182.35 72.5222C178.565 71.5278 174.78 70.5309 170.963 69.5839C173.498 68.4262 176.037 67.3302 178.574 66.2188ZM2213.43 473.228C2216.38 468.501 2219.36 463.7 2222.33 458.923C2223.87 458.229 2225.39 457.562 2226.93 456.857C2224.02 461.425 2221.11 466.018 2218.22 470.542C2216.63 471.42 2215.02 472.362 2213.43 473.228ZM2204 488.302C2206.87 483.715 2209.74 479.129 2212.64 474.499C2214.21 473.647 2215.79 472.75 2217.37 471.886C2214.51 476.364 2211.67 480.806 2208.83 485.242C2207.22 486.261 2205.61 487.297 2204 488.302ZM2194.52 503.381C2197.37 498.844 2200.21 494.342 2203.07 489.787C2204.66 488.79 2206.26 487.756 2207.86 486.748C2205.02 491.182 2202.2 495.56 2199.37 499.976C2197.75 501.125 2196.14 502.244 2194.52 503.381ZM2185.09 518.397C2187.88 513.973 2190.69 509.496 2193.49 505.032C2195.09 503.907 2196.69 502.791 2198.29 501.655C2195.5 506.004 2192.7 510.365 2189.93 514.672C2188.31 515.943 2186.71 517.138 2185.09 518.397ZM2175.67 533.356C2178.41 529.017 2181.17 524.625 2183.93 520.238C2185.53 518.997 2187.12 517.806 2188.72 516.553C2185.98 520.799 2183.25 525.046 2180.54 529.246C2178.91 530.64 2177.29 531.977 2175.67 533.356ZM2166.2 548.288C2168.92 543.991 2171.62 539.742 2174.35 535.436C2175.93 534.093 2177.5 532.839 2179.08 531.484C2176.46 535.533 2173.86 539.531 2171.24 543.574C2169.57 545.116 2167.86 546.761 2166.2 548.288ZM2157.05 562.711C2159.59 558.713 2162.14 554.684 2164.7 550.655C2166.31 549.181 2167.93 547.66 2169.55 546.175C2167.02 550.074 2164.49 553.975 2161.98 557.843C2160.34 559.46 2158.69 561.106 2157.05 562.711ZM2147.95 577.06C2150.37 573.256 2152.84 569.355 2155.29 565.488C2156.88 563.927 2158.5 562.31 2160.1 560.737C2157.62 564.561 2155.12 568.403 2152.67 572.17C2151.08 573.825 2149.52 575.419 2147.95 577.06ZM2138.71 591.482C2141.13 587.702 2143.52 583.971 2145.93 580.203C2147.46 578.621 2148.97 577.067 2150.5 575.473C2148.13 579.086 2145.77 582.668 2143.4 586.292C2141.84 588.019 2140.27 589.769 2138.71 591.482ZM2129.58 605.733C2131.82 602.24 2134.07 598.729 2136.32 595.218C2137.8 593.59 2139.3 591.904 2140.79 590.264C2138.53 593.71 2136.27 597.158 2134.02 600.581C2132.54 602.298 2131.06 604.027 2129.58 605.733ZM2120.95 619.208C2122.93 616.128 2124.93 612.987 2126.94 609.86C2128.27 608.318 2129.59 606.841 2130.93 605.289C2128.95 608.318 2126.96 611.362 2125 614.335C2123.64 615.98 2122.3 617.571 2120.95 619.208ZM2112.27 632.651C2114.11 629.802 2115.92 627.022 2117.76 624.175C2118.94 622.748 2120.12 621.34 2121.31 619.906C2119.46 622.681 2117.62 625.448 2115.77 628.245C2114.6 629.721 2113.44 631.181 2112.27 632.651ZM2103.85 645.655L2108.25 638.859C2109.21 637.656 2110.17 636.439 2111.14 635.23C2109.64 637.483 2108.14 639.747 2106.65 641.992C2105.72 643.214 2104.78 644.439 2103.85 645.655ZM2096.08 657.656C2096.99 656.253 2097.92 654.826 2098.83 653.411C2099.44 652.623 2100.05 651.811 2100.66 651.022C2099.7 652.455 2098.75 653.904 2097.8 655.318C2097.23 656.095 2096.65 656.882 2096.08 657.656ZM416.819 185.023C418.849 186.605 420.91 188.152 422.92 189.759C421.03 188.379 419.146 186.993 417.24 185.631C415.969 184.661 414.713 183.672 413.434 182.71C414.564 183.478 415.693 184.247 416.819 185.023ZM398.5 171.091C401.259 173.115 404.014 175.144 406.741 177.208C404.615 175.802 402.445 174.465 400.305 173.081C397.631 171.157 394.993 169.192 392.292 167.301C394.372 168.548 396.434 169.821 398.5 171.091ZM380.835 158.43C384.291 160.825 387.71 163.265 391.119 165.716C388.368 164.078 385.598 162.467 382.822 160.867C379.708 158.757 376.623 156.61 373.474 154.544C375.932 155.834 378.398 157.108 380.835 158.43ZM364.223 147.164C367.898 149.58 371.511 152.073 375.141 154.545C371.993 152.881 368.856 151.199 365.674 149.589C362.135 147.332 358.609 145.062 355.029 142.858C358.116 144.251 361.162 145.72 364.223 147.164ZM347.334 136.405C351.27 138.854 355.159 141.363 359.049 143.869C356.013 142.473 352.953 141.121 349.89 139.773C346.003 137.434 342.079 135.141 338.147 132.857C341.216 134.027 344.291 135.185 347.334 136.405ZM331.045 126.674C335.2 129.096 339.347 131.53 343.442 134.028C340.367 132.822 337.267 131.665 334.167 130.51C329.992 128.141 325.745 125.865 321.501 123.584C324.699 124.577 327.873 125.626 331.045 126.674ZM315.179 117.7C319.476 120.053 323.758 122.421 327.987 124.86C324.693 123.794 321.401 122.72 318.081 121.714C314.042 119.558 309.964 117.453 305.866 115.374C308.98 116.124 312.086 116.897 315.179 117.7ZM299.882 109.476C304.053 111.646 308.177 113.872 312.291 116.113C309.17 115.321 306.021 114.601 302.878 113.865C298.834 111.829 294.791 109.791 290.695 107.823C293.767 108.348 296.83 108.896 299.882 109.476ZM284.97 101.901C289.156 103.977 293.302 106.103 297.443 108.237C294.263 107.649 291.09 107.049 287.888 106.519C283.865 104.612 279.825 102.729 275.757 100.882C278.837 101.192 281.907 101.536 284.97 101.901ZM270.034 94.8446C274.339 96.8194 278.653 98.7826 282.888 100.845C279.811 100.493 276.721 100.19 273.628 99.8929C269.481 98.0409 265.27 96.2741 261.058 94.5068C264.056 94.5924 267.049 94.7057 270.034 94.8446ZM255.661 88.3486C259.868 90.1884 264.038 92.0765 268.19 93.9843C265.137 93.8534 262.084 93.7146 259.017 93.6396C255.011 91.9605 251.001 90.2852 246.949 88.6695C249.858 88.5418 252.763 88.4247 255.661 88.3486ZM241.604 82.3507C245.723 84.0611 249.804 85.8216 253.878 87.5884C250.972 87.6746 248.051 87.8294 245.135 87.9683C241.085 86.3695 237.018 84.7937 232.923 83.2556C235.824 82.9125 238.712 82.6412 241.604 82.3507ZM227.497 76.765C231.719 78.3882 235.948 80.0077 240.107 81.7123C237.174 82.0144 234.25 82.2746 231.308 82.6321C227.327 81.1574 223.295 79.7544 219.26 78.3536C222.007 77.8205 224.756 77.2508 227.497 76.765ZM214.065 71.6167C218.114 73.1101 222.1 74.6838 226.11 76.2277C223.335 76.7251 220.555 77.2875 217.774 77.837C213.832 76.4692 209.92 75.061 205.94 73.7426C208.651 73.0047 211.359 72.3062 214.065 71.6167ZM200.536 66.8935C204.61 68.2841 208.681 69.6791 212.7 71.1405C209.99 71.8385 207.277 72.5679 204.563 73.3133C200.597 72.0205 196.575 70.8022 192.554 69.5844C195.215 68.6464 197.874 67.784 200.536 66.8935ZM187.319 62.4554C191.348 63.7615 195.339 65.1138 199.326 66.4716C196.644 67.3771 193.96 68.2331 191.275 69.1886C187.428 68.024 183.583 66.8514 179.702 65.7337C182.24 64.6271 184.78 63.5157 187.319 62.4554ZM2207.48 476.35C2210.47 471.46 2213.5 466.486 2216.52 461.538C2218.06 460.849 2219.61 460.151 2221.16 459.452C2218.16 464.274 2215.15 469.121 2212.17 473.888C2210.6 474.735 2209.04 475.513 2207.48 476.35ZM2197.7 492.292C2200.7 487.402 2203.69 482.54 2206.71 477.609C2208.27 476.779 2209.82 476 2211.38 475.159C2208.43 479.871 2205.52 484.52 2202.59 489.195C2200.96 490.211 2199.32 491.29 2197.7 492.292ZM2188.09 507.904C2191 503.185 2193.89 498.496 2196.8 493.756C2198.41 492.763 2200.04 491.685 2201.66 490.678C2198.76 495.292 2195.89 499.854 2193.01 504.448C2191.37 505.599 2189.73 506.766 2188.09 507.904ZM2178.52 523.456C2181.37 518.85 2184.23 514.179 2187.09 509.529C2188.72 508.403 2190.35 507.236 2191.97 506.098C2189.13 510.627 2186.28 515.176 2183.45 519.66C2181.81 520.937 2180.17 522.19 2178.52 523.456ZM2168.95 538.963C2171.76 534.419 2174.58 529.849 2177.41 525.262C2179.04 524.012 2180.67 522.762 2182.3 521.5C2179.48 525.974 2176.67 530.427 2173.87 534.86C2172.22 536.255 2170.59 537.583 2168.95 538.963ZM2159.33 554.454C2162.12 549.957 2164.89 545.505 2167.69 540.994C2169.31 539.634 2170.92 538.311 2172.55 536.939C2169.76 541.342 2167 545.692 2164.21 550.08C2162.58 551.577 2160.97 552.972 2159.33 554.454ZM2149.71 569.952C2152.44 565.572 2155.18 561.146 2157.92 556.725C2159.53 555.269 2161.12 553.885 2162.73 552.416C2160.08 556.604 2157.42 560.801 2154.78 564.952C2153.1 566.596 2151.39 568.321 2149.71 569.952ZM2140.5 584.783C2143.03 580.72 2145.59 576.587 2148.15 572.471C2149.77 570.9 2151.4 569.312 2153.02 567.728C2150.48 571.727 2147.94 575.726 2145.42 579.679C2143.78 581.385 2142.13 583.09 2140.5 584.783ZM2130.93 600.05C2133.5 595.946 2136.05 591.891 2138.61 587.791C2140.21 586.148 2141.81 584.476 2143.41 582.82C2140.87 586.792 2138.34 590.728 2135.8 594.702C2134.18 596.478 2132.55 598.288 2130.93 600.05ZM2121.81 614.612C2124.15 610.88 2126.5 607.124 2128.86 603.366C2130.38 601.711 2131.88 600.102 2133.41 598.435C2131.07 602.081 2128.74 605.731 2126.42 609.347C2124.87 611.124 2123.35 612.848 2121.81 614.612ZM2112.78 629.028C2114.96 625.564 2117.17 622.021 2119.38 618.497C2120.84 616.82 2122.31 615.159 2123.78 613.471C2121.59 616.89 2119.39 620.317 2117.22 623.683C2115.74 625.468 2114.26 627.253 2112.78 629.028ZM2103.6 643.55C2105.69 640.246 2107.75 636.989 2109.83 633.699C2111.19 632.075 2112.56 630.415 2113.93 628.78C2111.85 631.979 2109.78 635.176 2107.7 638.395C2106.34 640.104 2104.96 641.851 2103.6 643.55ZM2094.67 657.684L2100.04 649.181C2101.25 647.678 2102.48 646.107 2103.69 644.596C2101.89 647.38 2100.08 650.173 2098.29 652.941C2097.09 654.506 2095.86 656.128 2094.67 657.684ZM2086.31 670.893C2087.73 668.654 2089.17 666.375 2090.61 664.104C2091.52 662.918 2092.42 661.783 2093.33 660.593C2091.91 662.795 2090.48 665.009 2089.08 667.17C2088.16 668.416 2087.23 669.653 2086.31 670.893ZM2078.46 683.245C2079.44 681.71 2080.39 680.23 2081.37 678.691C2081.82 678.085 2082.27 677.494 2082.72 676.887C2081.65 678.517 2080.58 680.156 2079.5 681.803C2079.16 682.29 2078.81 682.759 2078.46 683.245ZM166.873 62.217C169.323 60.9407 171.765 59.6037 174.217 58.3711C178.222 59.5851 182.209 60.8215 186.168 62.0962C183.608 63.1704 181.048 64.2791 178.49 65.4001C174.644 64.3041 170.764 63.255 166.873 62.217ZM158.47 66.6434C160.938 65.3038 163.411 64.0339 165.883 62.7395C169.73 63.7604 173.558 64.8069 177.362 65.8863C174.822 67.0068 172.281 68.1309 169.741 69.2966C166.008 68.3794 162.244 67.5021 158.47 66.6434ZM150.261 71.2235C152.654 69.8743 155.042 68.4922 157.437 67.1855C161.189 68.0346 164.918 68.9162 168.629 69.8217C166.139 70.9719 163.648 72.1588 161.157 73.3532C157.546 72.6148 153.912 71.9072 150.261 71.2235ZM142.068 75.9165C144.455 74.5189 146.849 73.1622 149.242 71.8077C152.844 72.4764 156.419 73.1846 159.986 73.9081C157.509 75.1035 155.034 76.2947 152.56 77.5338C149.078 76.972 145.583 76.4267 142.068 75.9165ZM133.987 80.7365C136.323 79.3182 138.66 77.9041 141 76.5283C144.488 77.0289 147.945 77.5796 151.402 78.1318C148.987 79.349 146.573 80.6078 144.159 81.8681C140.779 81.4739 137.398 81.0808 133.987 80.7365ZM126.024 85.6753C128.324 84.2298 130.625 82.7976 132.93 81.3925C136.283 81.7266 139.599 82.124 142.924 82.5055C140.515 83.7701 138.107 85.0161 135.7 86.3227C132.48 86.0971 129.271 85.854 126.024 85.6753ZM118.058 90.7225C120.337 89.2408 122.621 87.8118 124.903 86.3717C128.115 86.5435 131.281 86.7952 134.469 87.0127C132.143 88.2837 129.819 89.6069 127.493 90.9188C124.349 90.8518 121.226 90.7443 118.058 90.7225ZM110.347 95.8804C112.546 94.4046 114.743 92.9054 116.945 91.4673C120.044 91.4838 123.091 91.6025 126.171 91.6599C123.834 92.9873 121.495 94.2679 119.16 95.6357C116.22 95.7245 113.307 95.7533 110.347 95.8804ZM102.384 101.214C104.614 99.6668 106.853 98.2319 109.085 96.7242C112.018 96.5928 114.915 96.5343 117.828 96.4422C115.61 97.7483 113.395 99.1209 111.178 100.466C108.25 100.707 105.331 100.931 102.384 101.214ZM94.8799 106.61C96.9604 105.122 99.0366 103.577 101.12 102.123C103.997 101.84 106.859 101.589 109.719 101.348C107.47 102.721 105.219 104.02 102.97 105.431C100.282 105.803 97.584 106.199 94.8799 106.61ZM87.1887 112.139C89.2864 110.593 91.3889 109.12 93.489 107.61C96.1531 107.198 98.8232 106.77 101.472 106.4C99.4006 107.709 97.3296 109.101 95.2585 110.445C92.5825 110.968 89.8792 111.574 87.1887 112.139ZM79.8137 117.7C81.7534 116.228 83.6912 114.697 85.6338 113.257C88.2725 112.694 90.9314 112.076 93.554 111.554C91.4351 112.938 89.3137 114.274 87.1965 115.692C84.7468 116.326 82.2754 117.031 79.8137 117.7ZM72.5164 123.321C74.418 121.838 76.321 120.379 78.2241 118.925C80.5305 118.291 82.8374 117.653 85.1353 117.047C83.2307 118.334 81.3276 119.714 79.426 121.032C77.1272 121.782 74.8232 122.544 72.5164 123.321ZM65.2986 128.985C67.0918 127.548 68.8877 126.144 70.6821 124.733C72.8699 123.987 75.0439 123.292 77.2278 122.566C75.3391 123.883 73.4497 125.176 71.561 126.521C69.4714 127.353 67.3923 128.134 65.2986 128.985ZM58.5498 134.539C60.1626 133.212 61.7732 131.861 63.3892 130.556C65.2224 129.803 67.0405 129.124 68.8667 128.402C67.231 129.578 65.5979 130.811 63.9634 132.012C62.1599 132.851 60.3589 133.671 58.5498 134.539ZM51.4204 140.403C52.9329 139.128 54.4509 137.921 55.9648 136.665C57.6587 135.843 59.3591 134.984 61.0491 134.188C59.6194 135.249 58.1907 136.309 56.7612 137.385C54.9858 138.35 53.1992 139.413 51.4204 140.403ZM45.2708 145.707C46.2974 144.82 47.322 143.884 48.3503 143.007L51.95 140.973C50.8025 141.853 49.6526 142.744 48.5051 143.642C47.4268 144.326 46.3496 145.018 45.2708 145.707ZM40.2715 150.09L41.5098 149.004C41.929 148.732 42.3474 148.468 42.7668 148.201C42.3313 148.548 41.8972 148.894 41.4604 149.238C41.0637 149.523 40.6682 149.803 40.2715 150.09ZM2324.09 404.352C2324.59 404.107 2325.09 403.852 2325.59 403.607C2324.78 404.173 2323.96 404.748 2323.15 405.323L2321.94 406.027C2322.66 405.471 2323.37 404.915 2324.09 404.352ZM2318.11 407.315C2319 406.889 2319.89 406.422 2320.78 405.993C2319.57 406.94 2318.36 407.881 2317.15 408.828C2316.3 409.32 2315.45 409.827 2314.6 410.319C2315.77 409.317 2316.94 408.332 2318.11 407.315ZM2312.5 409.933C2313.53 409.447 2314.56 408.992 2315.59 408.501C2314.05 409.825 2312.52 411.119 2310.99 412.427C2309.91 413.049 2308.82 413.708 2307.74 414.326C2309.32 412.864 2310.91 411.427 2312.5 409.933ZM2306.78 412.587C2307.95 412.041 2309.13 411.502 2310.31 410.951C2308.45 412.685 2306.61 414.362 2304.77 416.064C2303.6 416.721 2302.44 417.367 2301.28 418.017C2303.11 416.211 2304.93 414.441 2306.78 412.587ZM2300.83 415.343C2302.15 414.741 2303.48 414.114 2304.8 413.504C2302.82 415.486 2300.87 417.386 2298.91 419.322C2297.65 420.022 2296.4 420.699 2295.14 421.393C2297.03 419.398 2298.93 417.377 2300.83 415.343ZM2294.91 418.078C2296.3 417.455 2297.7 416.782 2299.09 416.151C2297.05 418.331 2295.03 420.442 2293 422.57C2291.65 423.315 2290.29 424.067 2288.94 424.805C2290.92 422.586 2292.92 420.332 2294.91 418.078ZM2289.15 420.567C2290.55 419.952 2291.95 419.375 2293.35 418.752C2291.22 421.155 2289.11 423.518 2286.99 425.876C2285.53 426.668 2284.07 427.505 2282.61 428.286C2284.79 425.717 2286.96 423.165 2289.15 420.567ZM2283.37 423.067C2284.79 422.452 2286.22 421.841 2287.64 421.218C2285.36 423.924 2283.09 426.588 2280.82 429.272C2279.39 430.033 2277.97 430.771 2276.55 431.523C2278.82 428.692 2281.09 425.887 2283.37 423.067ZM2277.57 425.568C2279.03 424.955 2280.48 424.31 2281.93 423.688C2279.6 426.573 2277.27 429.458 2274.94 432.351C2273.49 433.11 2272.05 433.836 2270.61 434.587C2272.92 431.609 2275.26 428.558 2277.57 425.568ZM2271.8 428.031C2273.26 427.423 2274.73 426.78 2276.2 426.163C2273.83 429.214 2271.44 432.341 2269.08 435.375C2267.59 436.148 2266.09 436.925 2264.59 437.689C2266.98 434.514 2269.4 431.239 2271.8 428.031ZM2266.15 430.296C2267.6 429.704 2269.06 429.148 2270.51 428.546C2268.04 431.849 2265.56 435.195 2263.1 438.46C2261.57 439.241 2260.03 440.066 2258.5 440.835C2261.04 437.348 2263.59 433.833 2266.15 430.296ZM2260.46 432.575C2261.94 431.984 2263.42 431.396 2264.9 430.796C2262.27 434.424 2259.67 438.003 2257.07 441.576C2255.55 442.336 2254.03 443.078 2252.51 443.828C2255.16 440.087 2257.79 436.38 2260.46 432.575ZM2254.7 434.882C2256.21 434.293 2257.72 433.668 2259.23 433.069C2256.52 436.926 2253.85 440.682 2251.17 444.477C2249.65 445.226 2248.13 445.937 2246.61 446.676C2249.31 442.751 2251.98 438.863 2254.7 434.882ZM2248.96 437.134C2250.47 436.557 2251.98 435.953 2253.49 435.366C2250.75 439.393 2248.03 443.333 2245.31 447.306C2243.77 448.051 2242.23 448.798 2240.69 449.534C2243.45 445.406 2246.19 441.311 2248.96 437.134ZM2243.33 439.222C2244.82 438.659 2246.32 438.131 2247.81 437.561C2244.99 441.798 2242.21 445.958 2239.41 450.151C2237.86 450.892 2236.3 451.673 2234.74 452.403C2237.6 448.011 2240.45 443.654 2243.33 439.222ZM2237.66 441.316C2239.17 440.761 2240.68 440.204 2242.19 439.64C2239.28 444.132 2236.39 448.552 2233.49 453.008C2231.95 453.732 2230.4 454.446 2228.86 455.16C2231.79 450.543 2234.71 445.964 2237.66 441.316ZM2231.98 443.416C2233.5 442.869 2235.03 442.285 2236.55 441.728C2233.57 446.415 2230.63 451.036 2227.67 455.695C2226.13 456.405 2224.59 457.072 2223.05 457.77C2226.03 452.982 2228.99 448.231 2231.98 443.416ZM2226.33 445.454C2227.85 444.919 2229.36 444.368 2230.88 443.823C2227.87 448.675 2224.88 453.467 2221.87 458.299C2220.32 459.002 2218.77 459.7 2217.22 460.393C2220.26 455.407 2223.28 450.461 2226.33 445.454ZM454.649 215.212C456.223 216.632 457.742 218.111 459.304 219.544C458.563 218.912 457.818 218.284 457.075 217.655C454.567 215.419 452.017 213.23 449.478 211.03C451.208 212.416 452.931 213.811 454.649 215.212ZM434.502 197.579C437.365 200.007 440.174 202.497 443.002 204.965C440.375 202.909 437.768 200.826 435.115 198.806C432.466 196.608 429.819 194.411 427.144 192.246C429.608 194.007 432.059 195.787 434.502 197.579ZM415.189 181.68C418.633 184.428 422.017 187.243 425.413 190.044C422.706 188.125 419.965 186.252 417.231 184.371C413.732 181.629 410.235 178.885 406.687 176.2C409.535 178.006 412.369 179.834 415.189 181.68ZM396.643 167.291C400.54 170.223 404.365 173.237 408.204 176.235C405.107 174.263 401.989 172.325 398.861 170.405C395.062 167.604 391.26 164.804 387.408 162.067C390.499 163.788 393.583 165.519 396.643 167.291ZM378.978 154.368C383.119 157.314 387.185 160.342 391.265 163.356C387.909 161.46 384.555 159.56 381.164 157.722C377.115 154.91 373.041 152.131 368.938 149.385C372.305 151.01 375.645 152.684 378.978 154.368ZM361.147 142.13C365.54 145.085 369.908 148.067 374.24 151.092C371.026 149.506 367.78 147.983 364.538 146.453C360.211 143.615 355.82 140.854 351.424 138.1C354.671 139.43 357.928 140.743 361.147 142.13ZM344.395 131.284C348.964 134.152 353.532 137.02 358.017 139.986C354.566 138.525 351.111 137.078 347.627 135.682C343.253 132.98 338.811 130.358 334.361 127.748C337.726 128.883 341.058 130.087 344.395 131.284ZM327.81 121.108C332.385 123.83 336.936 126.58 341.434 129.393C338.071 128.207 334.692 127.053 331.299 125.932C326.999 123.426 322.662 120.961 318.293 118.536C321.47 119.383 324.656 120.205 327.81 121.108ZM312.197 111.991C316.59 114.477 320.922 117.028 325.251 119.587C321.983 118.67 318.695 117.803 315.403 116.947C311.124 114.593 306.849 112.231 302.512 109.95C305.757 110.583 308.975 111.298 312.197 111.991ZM296.518 103.36C300.983 105.759 305.407 108.21 309.812 110.677C306.574 109.999 303.332 109.329 300.07 108.708C295.815 106.498 291.531 104.323 287.219 102.183C290.322 102.566 293.434 102.92 296.518 103.36ZM281.295 95.5176C285.758 97.7531 290.226 99.9833 294.615 102.312C291.47 101.876 288.304 101.504 285.142 101.127C280.809 99.0012 276.412 96.9572 272.01 94.9191C275.116 95.076 278.205 95.3026 281.295 95.5176ZM266.412 88.171C270.804 90.2714 275.15 92.4255 279.482 94.5972C276.383 94.394 273.28 94.204 270.164 94.0588C265.977 92.1228 261.786 90.1884 257.546 88.3178C260.505 88.2513 263.465 88.1837 266.412 88.171ZM251.913 81.4063C256.231 83.369 260.507 85.3805 264.774 87.4054C261.775 87.4293 258.772 87.4788 255.762 87.5575C251.592 85.7359 247.398 83.9419 243.177 82.1874C246.092 81.9033 249.006 81.6378 251.913 81.4063ZM237.545 75.1498C241.862 76.9805 246.183 78.8058 250.436 80.7179C247.522 80.9568 244.599 81.2553 241.677 81.5489C237.476 79.8183 233.218 78.1579 228.954 76.5059C231.823 76.008 234.682 75.5962 237.545 75.1498ZM223.598 69.2657C227.828 70.9857 231.989 72.7919 236.173 74.5662C233.291 75.0232 230.413 75.4435 227.527 75.9532C223.496 74.3933 219.498 72.7909 215.428 71.2805C218.152 70.5952 220.879 69.9025 223.598 69.2657ZM209.659 63.8774C213.899 65.4809 218.135 67.0887 222.313 68.7688C219.566 69.4184 216.814 70.1047 214.064 70.8054C209.989 69.3163 205.852 67.9069 201.717 66.4944C204.363 65.6155 207.012 64.7095 209.659 63.8774ZM196.211 58.86C200.32 60.3443 204.391 61.8771 208.459 63.4135C205.809 64.2525 203.159 65.1857 200.508 66.0731C196.481 64.7005 192.463 63.3151 188.4 61.9904C191.002 60.9109 193.607 59.8926 196.211 58.86ZM182.854 54.2112C186.948 55.6003 191.022 57.0102 195.065 58.4615C192.458 59.5 189.852 60.5449 187.247 61.6318C183.27 60.3448 179.252 59.11 175.226 57.8864C177.764 56.6149 180.312 55.4349 182.854 54.2112ZM2211.36 463.024C2214.49 457.792 2217.61 452.6 2220.75 447.349C2222.25 446.83 2223.76 446.343 2225.27 445.814C2222.19 450.872 2219.13 455.873 2216.06 460.914C2214.49 461.609 2212.92 462.339 2211.36 463.024ZM2201.5 479.488C2204.54 474.431 2207.62 469.283 2210.68 464.161C2212.24 463.482 2213.8 462.749 2215.36 462.059C2212.31 467.052 2209.26 472.071 2206.24 477C2204.66 477.842 2203.08 478.656 2201.5 479.488ZM2191.55 496.017C2194.62 490.917 2197.67 485.873 2200.75 480.736C2202.33 479.911 2203.9 479.095 2205.47 478.258C2202.4 483.268 2199.37 488.189 2196.32 493.165C2194.72 494.148 2193.14 495.047 2191.55 496.017ZM2181.63 512.448C2184.66 507.431 2187.68 502.438 2190.72 497.397C2192.3 496.435 2193.87 495.54 2195.46 494.566C2192.5 499.384 2189.56 504.154 2186.61 508.948C2184.96 510.097 2183.28 511.313 2181.63 512.448ZM2171.92 528.542C2174.82 523.752 2177.75 518.887 2180.67 514.049C2182.31 512.924 2183.97 511.708 2185.61 510.57C2182.71 515.283 2179.8 520.023 2176.93 524.686C2175.26 525.967 2173.58 527.275 2171.92 528.542ZM2162.19 544.605C2165.07 539.856 2167.95 535.104 2170.85 530.317C2172.5 529.064 2174.16 527.758 2175.82 526.492C2172.93 531.162 2170.07 535.79 2167.2 540.421C2165.53 541.825 2163.86 543.216 2162.19 544.605ZM2152.43 560.638C2155.29 555.95 2158.12 551.3 2160.98 546.594C2162.63 545.223 2164.29 543.837 2165.94 542.453C2163.1 547.043 2160.27 551.583 2157.44 556.154C2155.76 557.669 2154.1 559.138 2152.43 560.638ZM2142.68 576.679C2145.47 572.103 2148.28 567.472 2151.09 562.853C2152.73 561.375 2154.38 559.917 2156.03 558.425C2153.23 562.936 2150.43 567.463 2147.65 571.928C2145.98 573.544 2144.34 575.077 2142.68 576.679ZM2133 592.549C2135.72 588.106 2138.45 583.617 2141.19 579.126C2142.83 577.554 2144.45 576.031 2146.09 574.446C2143.41 578.742 2140.75 583.018 2138.09 587.272C2136.4 589.016 2134.69 590.82 2133 592.549ZM2123.46 608.11C2126.05 603.875 2128.63 599.68 2131.23 595.444C2132.88 593.757 2134.56 591.979 2136.21 590.278C2133.58 594.48 2130.97 598.646 2128.34 602.844C2126.7 604.624 2125.09 606.343 2123.46 608.11ZM2113.97 623.572C2116.47 619.499 2118.99 615.392 2121.51 611.286C2123.1 609.571 2124.67 607.885 2126.27 606.157C2123.79 610.112 2121.31 614.075 2118.85 617.992C2117.22 619.854 2115.59 621.725 2113.97 623.572ZM2104.54 638.931C2106.91 635.089 2109.31 631.164 2111.71 627.259C2113.27 625.483 2114.85 623.664 2116.42 621.874C2114.04 625.675 2111.66 629.464 2109.3 633.216C2107.72 635.104 2106.12 637.056 2104.54 638.931ZM2095.18 654.066C2097.42 650.435 2099.65 646.841 2101.89 643.229C2103.36 641.48 2104.84 639.686 2106.32 637.925C2104.04 641.523 2101.77 645.112 2099.49 648.722C2098.05 650.524 2096.62 652.276 2095.18 654.066ZM2086.12 668.702C2088.14 665.443 2090.17 662.163 2092.2 658.888C2093.52 657.251 2094.82 655.665 2096.14 654.018C2094.12 657.226 2092.09 660.442 2090.07 663.622C2088.75 665.337 2087.45 666.996 2086.12 668.702ZM2077.38 682.836C2079.1 680.069 2080.84 677.248 2082.58 674.436C2083.75 672.919 2084.92 671.42 2086.1 669.896C2084.33 672.696 2082.57 675.483 2080.82 678.237C2079.67 679.782 2078.53 681.297 2077.38 682.836ZM2068.76 696.672C2070.18 694.386 2071.59 692.148 2073.01 689.868L2075.62 686.371C2074.16 688.656 2072.7 690.953 2071.23 693.258L2068.76 696.672ZM2060.68 709.614L2063.18 705.61L2064.55 703.708C2063.65 705.113 2062.75 706.532 2061.86 707.932L2060.68 709.614ZM2033.8 751.157L2033.24 752.035C1572.18 1444.84 1334.68 1596.64 1174.14 1491.01C1063.8 1418.41 989.71 1224.16 904.361 1000.38C806.543 743.902 693.929 448.658 494.942 253.093C493.883 252.008 492.847 250.897 491.784 249.817C682.672 431.058 797.062 705.388 897.95 947.466C987.905 1163.31 1067.17 1353.49 1180.47 1429.22C1346 1539.86 1584.06 1406.06 2033.8 751.157ZM2046.1 731.631C2045.21 733.042 2044.35 734.408 2043.47 735.805C1587.42 1403.22 1347.32 1539.85 1180.85 1428.58C1067.73 1352.98 988.511 1162.89 898.603 947.161C794.785 698.053 676.676 414.813 475.663 233.88C472.133 230.473 468.543 227.131 464.967 223.776C662.648 390.62 784.127 657.649 892.407 895.75C986.48 1102.61 1070.62 1287.62 1186.2 1366.19C1358.12 1483.07 1599.45 1364.33 2046.1 731.631ZM2057.05 714.087C2055.69 716.267 2054.32 718.461 2052.97 720.626C1601.92 1362.11 1359.14 1482.87 1186.58 1365.56C1071.17 1287.1 987.076 1102.18 893.049 895.422C782.848 653.099 658.989 380.824 455.075 214.571C450.938 210.828 446.721 207.173 442.505 203.515C644.374 355.8 772.069 613.284 887.211 845.535C984.841 1042.46 1073.47 1221.23 1190.71 1302.4C1369.19 1425.96 1613.83 1323.25 2057.05 714.087ZM2067.96 696.615C2066.18 699.458 2064.4 702.311 2062.62 705.168C1615.89 1321.36 1370.09 1425.67 1191.1 1301.77C1074.01 1220.71 985.426 1042.02 887.842 845.186C771.136 609.783 641.535 348.478 434.918 196.931C430.609 193.274 426.241 189.678 421.854 186.106C626.95 323.809 760.583 571.096 882.522 796.844C982.995 982.851 1075.56 1154.21 1193.7 1237.62C1379.14 1368.55 1627.5 1282.64 2067.96 696.615ZM2078.49 679.695C2076.46 682.965 2074.45 686.204 2072.44 689.432C1629.19 1281.07 1379.94 1368.2 1194.09 1236.99C1076.1 1153.68 983.571 982.398 883.142 796.47C759.825 568.176 624.565 317.863 415.561 181C411.08 177.425 406.547 173.908 401.987 170.419C610.054 293.483 749.609 530.589 878.529 749.688C980.941 923.737 1076.66 1086.41 1194.74 1171.56C1387.64 1310.68 1640.11 1242.74 2078.49 679.695ZM2088.67 663.239C2086.45 666.824 2084.23 670.418 2082.03 673.968C1641.49 1241.44 1388.33 1310.27 1195.14 1170.94C1077.19 1085.88 981.506 923.27 879.134 749.289C749.047 528.209 608.142 288.803 396.98 166.589C392.436 163.176 387.825 159.84 383.204 156.514C593.889 264.956 739.371 491.804 875.448 704.072C978.641 865.045 1076.45 1017.61 1193.23 1103.8C1394.24 1252.15 1651.41 1203.71 2088.67 663.239ZM2098.81 646.851C2096.42 650.713 2094.04 654.556 2091.65 658.422C1652.6 1202.6 1394.89 1251.71 1193.64 1103.18C1076.96 1017.07 979.192 864.563 876.036 703.649C738.988 489.865 592.404 261.309 379.312 153.667C374.599 150.327 369.808 147.08 365.005 143.843C578.338 237.579 729.928 454.468 873.529 659.989C975.993 806.632 1074.4 947.473 1188.31 1033.68C1398.4 1192.68 1661.11 1165.77 2098.81 646.851ZM2108.92 630.449C2106.39 634.569 2103.87 638.662 2101.35 642.741C1662.15 1164.8 1399.01 1192.22 1188.73 1033.07C1074.91 946.929 976.53 806.134 874.102 659.541C729.562 452.676 576.949 234.271 361.444 141.406C356.887 138.363 352.27 135.39 347.631 132.442C563.591 211.413 721.524 418.573 873.066 617.421C972.774 748.257 1069.73 875.477 1178.66 960.221C1399.15 1131.76 1668.61 1129.2 2108.92 630.449ZM2119.04 613.945C2116.42 618.23 2113.79 622.525 2111.18 626.765C1669.59 1128.24 1399.74 1131.29 1179.08 959.613C1070.22 874.925 973.299 747.745 873.621 616.948C721.25 417.012 562.416 208.688 344.668 130.55C340.102 127.667 335.503 124.823 330.861 122.029C549.643 186.063 714.318 383.932 874.39 576.333C968.511 689.461 1061.05 800.687 1162.08 881.711C1394.96 1068.47 1672.93 1094.61 2119.04 613.945ZM2129.01 597.698C2126.33 602.072 2123.66 606.408 2120.99 610.771C1673.8 1093.79 1395.54 1067.98 1162.51 881.107C1061.54 800.13 969.022 688.933 874.926 575.833C714.028 382.439 548.498 183.493 328.054 120.361C323.65 117.736 319.257 115.096 314.792 112.543C536.637 161.421 708.573 350.449 877.889 536.668C962.135 629.323 1045.74 721.272 1134.54 794.916C1382.97 1000.94 1671.97 1063.63 2129.01 597.698ZM2139.19 581.033C2136.35 585.69 2133.53 590.311 2130.7 594.93C1672.76 1062.92 1383.53 1000.45 1134.98 794.322C1046.22 720.716 962.634 628.783 878.402 536.146C708.343 349.11 535.64 159.253 312.405 111.23C307.888 108.68 303.329 106.179 298.744 103.711C524.316 136.854 704.37 317.794 884.001 498.356C950.828 565.529 1017.6 632.647 1086.65 692.088C1356.62 924.497 1661.26 1039.29 2139.19 581.033ZM2149.25 564.502C2146.39 569.206 2143.52 573.932 2140.68 578.587C1661.98 1038.67 1357.17 923.999 1087.1 691.504C1018.08 632.089 951.315 564.977 884.492 497.808C704.183 316.568 523.459 134.917 296.709 102.592C292.272 100.224 287.769 97.9356 283.259 95.6559C513.044 112.522 702.152 285.969 893.235 461.306C1228.78 769.199 1570.52 1082.52 2149.25 564.502ZM2159.28 548.013C2156.37 552.793 2153.49 557.527 2150.6 562.287C1571.19 1082.13 1229.34 768.718 893.7 460.736C701.984 284.815 512.252 110.8 281.444 94.735C277.037 92.5122 272.629 90.2932 268.163 88.1412C502.836 87.9241 702.196 254.733 906.168 425.411C1248.19 711.608 1603.23 1008.48 2159.28 548.013ZM2169.29 531.52C2166.34 536.387 2163.42 541.192 2160.49 546.025C1603.88 1008.06 1248.73 711.099 906.609 424.821C702.036 253.64 502.094 86.3685 266.523 87.3772C262.205 85.3156 257.86 83.2876 253.486 81.2957C493.785 63.0055 704.91 223.917 923.463 390.561C1270.92 655.496 1637.19 934.654 2169.29 531.52ZM2179.24 515.021C2176.28 519.934 2173.3 524.885 2170.36 529.745C1637.83 934.186 1271.43 654.957 923.878 389.949C704.755 222.869 493.093 61.5376 252.007 80.6062C247.702 78.6633 243.341 76.789 238.969 74.9253C485.849 37.1574 710.654 193.245 945.88 356.644C1297.52 600.911 1672.45 861.34 2179.24 515.021ZM2189.41 498.177C2186.32 503.298 2183.25 508.376 2180.18 513.469C1673.06 860.863 1298 600.345 946.271 356.012C710.493 192.229 485.176 35.7933 237.597 74.3412C233.365 72.5387 229.169 70.6936 224.895 68.9465C479.292 10.1421 720.052 162.575 974.306 323.574C1328.66 547.959 1709.23 788.822 2189.41 498.177ZM2199.53 481.375C2196.42 486.564 2193.34 491.642 2190.24 496.798C1709.81 788.327 1329.12 547.372 974.671 322.927C719.88 161.588 478.627 8.86206 223.609 68.4491C219.402 66.7519 215.127 65.1367 210.853 63.5199C473.953 -18.4884 733.625 131.627 1009.78 291.317C1364.97 496.713 1747.44 717.751 2199.53 481.375ZM2209.54 464.676C2206.45 469.84 2203.34 475.033 2200.28 480.127C1748.01 717.22 1365.41 496.11 1010.12 290.655C733.446 130.665 473.306 -19.7349 209.654 63.0565C205.548 61.5025 201.452 59.9379 197.308 58.4338C470.268 -49.0762 752.357 100.33 1053.54 259.937C1407.17 447.337 1787.11 648.65 2209.54 464.676ZM2219.7 447.706C2216.53 453.007 2213.38 458.252 2210.22 463.538C1787.67 648.091 1407.6 446.719 1053.86 259.263C752.162 99.3859 469.615 -50.2695 196.162 58.0343C192.082 56.5649 187.958 55.1502 183.828 53.743C468.112 -82.3858 777.193 68.4986 1107.14 229.667C1456.19 400.162 1828.58 581.977 2219.7 447.706ZM2434 81.6239C2358.54 212.994 2287.43 334.44 2220.3 446.702C1829.11 581.409 1456.59 399.528 1107.44 228.982C777.005 67.576 467.487 -83.519 182.777 53.377C104.43 26.8352 17.321 11.2466 -80 9.23607V9.98994C16.9243 11.9925 103.715 27.4747 181.805 53.8457C179.246 55.0821 176.684 56.26 174.129 57.5432C98.0352 34.5239 13.7637 22.1753 -80 22.9541V23.7069C13.3616 22.9339 97.3059 35.1852 173.135 58.0348C170.677 59.276 168.227 60.63 165.77 61.9148C91.8564 42.3238 10.3391 33.1189 -80 36.6296V37.384C9.93945 33.8871 91.127 43.0096 164.78 62.4357C162.29 63.745 159.798 65.016 157.313 66.3699C85.6167 50.1737 6.8833 44.072 -80 50.2589V51.0133C6.47217 44.8525 84.8677 50.8701 156.281 66.9131C153.882 68.2283 151.49 69.6381 149.094 70.9953C79.5647 58.1008 3.53979 55.0257 -80 63.8375V64.5962C3.13452 55.8227 78.825 58.8302 148.076 71.5784C145.661 72.9521 143.246 74.3098 140.836 75.7276C73.4907 66.0944 0.190186 65.9896 -80 77.3635V78.1233C-0.230713 66.7993 72.7256 66.8387 139.769 76.3378C137.424 77.7237 135.083 79.1703 132.742 80.5977C67.5552 74.1416 -3.08008 76.9464 -80 90.831V91.5982C-3.49438 77.7764 66.7981 74.9179 131.685 81.2531C129.357 82.6795 127.027 84.1186 124.702 85.5869C61.6714 82.2416 -6.31714 87.898 -80 104.234V105.005C-6.75366 88.7546 60.8655 83.0588 123.579 86.2839C121.29 87.7352 119.002 89.2025 116.713 90.6964C55.833 90.4044 -9.521 98.8416 -79.9995 117.565V118.343C-9.96655 99.7274 55.001 91.2854 115.547 91.4769C113.308 92.9474 111.07 94.461 108.832 95.9703C50.0806 98.649 -12.665 109.768 -79.9995 130.816V131.604C-13.1436 110.692 49.1787 99.5955 107.571 96.8141C105.327 98.3362 103.082 99.8205 100.84 101.384C44.2632 106.976 -15.8367 120.705 -79.9995 143.985V144.782C-16.3118 121.658 43.3679 107.961 99.5774 102.291C97.4456 103.784 95.3213 105.351 93.1936 106.881C38.7036 115.302 -18.866 131.572 -79.9995 157.053V157.865C-19.3833 132.583 37.7227 116.369 91.8037 107.881C89.6438 109.442 87.4788 110.941 85.3232 112.541C33.0034 123.714 -21.9626 142.449 -79.9995 170.013V170.839C-22.5122 143.514 31.9636 124.86 83.8359 113.643C81.8494 115.125 79.8723 116.71 77.8899 118.224C27.6228 132.075 -24.885 153.221 -79.9995 182.852V183.698C-25.4648 154.352 26.5176 133.32 76.3003 119.449C74.3113 120.976 72.3198 122.484 70.3333 124.045C22.1772 140.478 -27.8359 163.963 -79.9995 195.552V196.422C-28.4961 165.199 20.9121 141.872 68.5007 125.457C66.6704 126.903 64.8467 128.407 63.0188 129.882C16.9136 148.825 -30.6838 174.592 -79.9995 208.098V208.997C-31.429 175.974 15.4692 150.487 60.9229 131.608C59.1362 133.062 57.3501 134.535 55.5645 136.016C11.5635 157.369 -33.5608 185.216 -79.9995 220.475V221.405C-34.469 186.802 9.79712 159.345 52.9827 138.141C51.2991 139.552 49.6133 140.939 47.9314 142.376C6.11572 166.001 -36.48 195.809 -79.9995 232.65V233.617C-37.449 197.552 4.22021 168.216 45.1431 144.819C43.7864 145.988 42.4324 147.198 41.0779 148.384C1.21387 174.251 -39.1108 206.065 -79.9995 244.595V245.6C-40.3975 208.223 -1.31934 177.127 37.3203 151.679C36.1533 152.712 34.9844 153.701 33.8188 154.747C-3.93921 182.693 -41.8611 216.319 -79.9995 256.277V257.342C-43.9094 219.5 -8.01562 187.371 27.7327 160.315C27.3423 160.673 26.9531 161.045 26.564 161.404C-9.07056 191.262 -44.5847 226.464 -79.9995 267.66V268.776C-48.6101 232.198 -17.1404 200.32 14.4233 172.724C-17.3984 203.255 -48.8735 238.441 -79.9995 278.669V279.87C-44.7673 234.292 -9.0835 195.225 27.0376 161.982C31.9976 157.826 36.9619 153.796 41.927 149.829C47.1282 146.098 52.3276 142.42 57.5234 138.9C62.7837 135.672 68.0349 132.552 73.2793 129.546C78.7356 126.762 84.1758 124.104 89.6086 121.526C95.6035 119.044 101.581 116.66 107.538 114.406C113.837 112.363 120.11 110.443 126.354 108.658C132.996 107.088 139.6 105.664 146.171 104.36C153.126 103.312 160.032 102.426 166.902 101.651C172.952 101.238 178.966 100.927 184.945 100.714C192.47 100.748 199.943 100.919 207.342 101.27C215.317 101.946 223.223 102.781 231.047 103.799C239.442 105.196 247.754 106.762 255.974 108.52C264.813 110.719 273.554 113.1 282.19 115.682C291.505 118.759 300.684 122.071 309.752 125.576C319.528 129.636 329.138 133.967 338.624 138.494C348.815 143.637 358.821 149.059 368.677 154.701C379.329 161.068 389.779 167.719 400.04 174.625C411.879 182.886 423.459 191.485 434.789 200.404C449.157 212.039 463.137 224.148 476.701 236.745C491.493 250.808 505.779 265.441 519.645 280.524C723.218 506.127 827.385 834.208 915.357 1111.36C973.015 1293.01 1023.73 1452.78 1090.96 1547.55H1091.85C1024.54 1452.95 973.77 1293.01 916.032 1111.12C836.06 859.174 742.716 565.151 573.507 344.207C733.148 549.087 827.424 819.596 909.537 1055.3C987.822 1280.01 1055.09 1473.07 1157.51 1547.55H1158.78C1056.06 1473.67 988.671 1280.27 910.207 1055.04C820.091 796.365 715.366 495.757 525.667 285.916C705.356 480.645 811.155 758.008 903.7 1000.66C989.097 1224.56 1063.22 1418.92 1173.77 1491.65C1332.32 1595.97 1565.67 1449.86 2014.17 781.784C1716.31 1238.99 1513.58 1469.02 1365.89 1547.55H1367.4C1511.69 1470.12 1708.26 1248.8 1994.08 813.81C1745.23 1203.5 1564.09 1433.47 1426.89 1547.55H1427.89C1570.51 1428.71 1760.42 1185.09 2024.09 767.871C2030.54 757.944 2037.07 747.802 2043.61 737.642C2049.9 728.157 2056.19 718.672 2062.55 709.008C2068.07 700.863 2073.63 692.604 2079.22 684.299C2085.48 675.276 2091.79 666.147 2098.13 656.921C2103.5 649.373 2108.88 641.793 2114.3 634.117C2120.18 626.071 2126.14 617.838 2132.1 609.589C2137.73 602.103 2143.35 594.636 2149.03 587.006C2154.35 580.148 2159.72 573.137 2165.09 566.126C2170.61 559.235 2176.11 552.39 2181.69 545.354C2186.79 539.197 2191.95 532.896 2197.1 526.615C2202.31 520.579 2207.48 514.629 2212.73 508.469C2217.58 503.086 2222.48 497.534 2227.37 492.024C2232.57 486.512 2237.81 480.902 2243.05 475.259C2247.83 470.454 2252.62 465.621 2257.42 460.717C2262.35 456.047 2267.26 451.439 2272.23 446.646C2276.76 442.62 2281.28 438.679 2285.84 434.547C2290.06 431.074 2294.27 427.631 2298.51 424.062C2302.7 420.907 2306.89 417.742 2311.1 414.496C2315.23 411.694 2319.37 408.86 2323.52 405.97C2327.59 403.556 2331.67 401.067 2335.74 398.572C2368.37 382.082 2401.12 363.219 2434 341.781V340.897C2403.73 360.655 2373.56 378.228 2343.5 393.77C2373.45 375.108 2403.62 354.424 2434 331.533V330.611C2400.88 355.593 2368.02 377.949 2335.4 397.903C2334.95 398.134 2334.49 398.353 2334.03 398.582C2366.98 375.255 2400.3 349.438 2434 320.915V319.948C2398.8 349.761 2364.02 376.617 2329.63 400.766C2328.76 401.198 2327.89 401.631 2327.02 402.06C2362.15 374.294 2397.79 343.674 2434 309.958V308.949C2396.66 343.74 2359.91 375.227 2323.71 403.701C2322.63 404.233 2321.54 404.794 2320.45 405.32C2357.6 373.074 2395.43 337.625 2434 298.705V297.658C2394.49 337.546 2355.75 373.781 2317.73 406.669C2316.59 407.219 2315.44 407.728 2314.3 408.272C2353.32 371.586 2393.2 331.301 2434 287.198V286.115C2392.44 331.06 2351.82 372.034 2312.11 409.288C2310.82 409.892 2309.54 410.472 2308.26 411.07C2349.11 369.895 2391.01 324.761 2434 275.452V274.34C2390.34 324.439 2347.82 370.241 2306.37 411.946C2304.97 412.598 2303.56 413.257 2302.16 413.9C2344.86 368.146 2388.78 318.102 2434 263.495V262.351C2388.17 317.731 2343.66 368.43 2300.42 414.708C2298.99 415.359 2297.55 416.06 2296.12 416.702C2340.65 366.316 2386.58 311.304 2434 251.355V250.184C2386 310.884 2339.54 366.531 2294.5 417.435C2293.08 418.07 2291.67 418.648 2290.25 419.274C2336.55 364.253 2384.42 304.313 2434 239.053V237.851C2383.88 303.845 2335.51 364.4 2288.74 419.924C2287.28 420.563 2285.83 421.179 2284.38 421.808C2332.44 362.159 2382.27 297.233 2434 226.604V225.372C2381.75 296.73 2331.45 362.268 2282.94 422.429C2281.47 423.063 2280 423.712 2278.53 424.336C2328.35 360.005 2380.11 290.053 2434 214.025V212.769C2379.61 289.526 2327.38 360.096 2277.15 424.932C2275.65 425.564 2274.16 426.248 2272.66 426.869C2324.24 357.815 2377.95 282.791 2434 201.323V200.043C2377.49 282.216 2323.34 357.843 2271.37 427.389C2269.9 427.998 2268.44 428.556 2266.96 429.155C2320.23 355.452 2375.85 275.375 2434 188.514V187.214C2375.4 274.776 2319.36 355.445 2265.72 429.654C2264.23 430.261 2262.73 430.851 2261.24 431.448C2316.2 353.053 2373.73 267.899 2434 175.611V174.282C2373.29 267.276 2315.35 353.038 2260.02 431.937C2258.5 432.543 2256.99 433.167 2255.47 433.762C2312.15 350.624 2371.6 260.369 2434 162.609V161.262C2371.15 259.739 2311.3 350.593 2254.26 434.245C2252.73 434.841 2251.2 435.478 2249.68 436.065C2308.09 348.149 2369.45 252.789 2434 149.524V148.156C2369.02 252.123 2307.28 348.078 2248.53 436.491C2247.02 437.067 2245.52 437.593 2244.01 438.159C2304.11 345.5 2367.35 245.077 2434 136.365V134.977C2366.93 244.397 2303.31 345.425 2242.88 438.578C2241.37 439.147 2239.85 439.701 2238.33 440.261C2300.12 342.836 2365.25 237.321 2434 123.132V121.73C2364.83 236.63 2299.33 342.761 2237.22 440.673C2235.69 441.234 2234.16 441.816 2232.64 442.368C2296.12 340.156 2363.13 229.527 2434 109.839V108.418C2362.72 228.827 2295.33 340.081 2231.54 442.774C2230.01 443.325 2228.48 443.904 2226.95 444.445C2292.11 337.449 2361.02 221.688 2434 96.4858V95.0489C2360.62 220.953 2291.36 337.314 2225.88 444.805C2224.37 445.337 2222.86 445.822 2221.35 446.345C2288.18 334.592 2358.94 213.744 2434 83.0774V81.6239Z" fill="#B3B3B3"/>
</svg>
