<svg width="1440" height="843" viewBox="0 0 1440 843" fill="none" xmlns="http://www.w3.org/2000/svg">
<path d="M1365.65 204.431C1364.25 204.702 1362.85 204.975 1361.45 205.248C1364.37 204.8 1367.31 204.36 1370.26 203.931C1368.71 204.09 1367.19 204.267 1365.65 204.431ZM160.246 374.832C158.713 374.128 157.191 373.438 155.662 372.74C154.427 372.399 153.18 372.046 151.941 371.701C154.717 372.754 157.504 373.819 160.246 374.832ZM1327.36 211.55C1325.85 211.956 1324.38 212.385 1322.88 212.797C1325.98 212.085 1329.09 211.379 1332.22 210.687C1330.6 210.973 1328.98 211.259 1327.36 211.55ZM1346.45 206.602C1342.53 207.579 1338.67 208.589 1334.81 209.6C1338.68 208.926 1342.59 208.272 1346.5 207.627C1350.42 206.813 1354.35 206.012 1358.31 205.229C1354.34 205.671 1350.38 206.131 1346.45 206.602ZM174.434 379.992C171.644 378.51 168.895 377.075 166.093 375.578C163.881 374.985 161.679 374.405 159.455 373.798C162.137 375.026 164.82 376.253 167.49 377.467C169.808 378.313 172.13 379.163 174.434 379.992ZM181.996 383.99C180.797 383.358 179.589 382.718 178.386 382.082C177.103 381.623 175.793 381.134 174.504 380.67C177.025 381.804 179.495 382.878 181.996 383.99ZM1290.35 221.438C1288.34 222.156 1286.3 222.863 1284.31 223.594C1287.76 222.492 1291.22 221.388 1294.72 220.312C1293.27 220.687 1291.8 221.058 1290.35 221.438ZM1308.92 215.007C1304.85 216.369 1300.8 217.741 1296.8 219.14C1300.65 218.156 1304.53 217.186 1308.43 216.233C1312.53 215.039 1316.69 213.88 1320.85 212.721C1316.84 213.464 1312.88 214.234 1308.92 215.007ZM1327.59 208.98C1322.78 210.478 1317.99 211.993 1313.27 213.545C1317.89 212.661 1322.53 211.794 1327.2 210.951C1331.95 209.665 1336.77 208.417 1341.61 207.188C1336.91 207.766 1332.24 208.363 1327.59 208.98ZM186.465 384.268C183.179 382.303 179.917 380.365 176.606 378.37C173.99 377.688 171.344 376.974 168.71 376.273C172.031 378.036 175.319 379.762 178.636 381.52C181.264 382.458 183.855 383.352 186.465 384.268ZM197.44 390.798C194.676 389.162 191.891 387.501 189.104 385.839C186.85 385.051 184.613 384.284 182.345 383.481C184.89 384.832 187.443 386.194 189.95 387.5C192.443 388.596 194.967 389.727 197.44 390.798ZM204.302 394.866C203.334 394.298 202.363 393.727 201.384 393.145C200.525 392.775 199.685 392.427 198.824 392.055C200.643 392.984 202.48 393.934 204.302 394.866ZM1253.47 234.628C1251.66 235.464 1249.88 236.313 1248.08 237.156C1251.71 235.643 1255.37 234.147 1259.06 232.663C1257.19 233.314 1255.32 233.969 1253.47 234.628ZM1271.69 226.483C1267.69 228.206 1263.77 229.967 1259.85 231.731C1263.63 230.416 1267.45 229.125 1271.29 227.842C1275.27 226.314 1279.26 224.792 1283.31 223.305C1279.42 224.352 1275.53 225.406 1271.69 226.483ZM1290.18 218.802C1285.4 220.724 1280.69 222.679 1276.02 224.66C1280.69 223.374 1285.38 222.102 1290.13 220.86C1294.81 219.182 1299.53 217.525 1304.31 215.9C1299.56 216.844 1294.86 217.817 1290.18 218.802ZM1308.73 211.604C1303.57 213.536 1298.49 215.501 1293.46 217.498C1298.51 216.447 1303.6 215.417 1308.73 214.414C1313.76 212.732 1318.86 211.081 1324 209.46C1318.87 210.152 1313.78 210.868 1308.73 211.604ZM197.957 388.277C194.304 385.867 190.661 383.47 186.972 381.015C184.21 380.317 181.468 379.641 178.687 378.922C182.275 381.077 185.79 383.146 189.36 385.278C192.226 386.279 195.113 387.304 197.957 388.277ZM209.852 396.084C206.601 393.961 203.326 391.807 200.044 389.646C197.384 388.739 194.678 387.779 191.998 386.848C195.229 388.778 198.465 390.716 201.65 392.591C204.4 393.774 207.123 394.926 209.852 396.084ZM220.819 403.213C218.134 401.478 215.456 399.748 212.745 397.982C210.44 397.009 208.116 396.014 205.795 395.023C208.715 396.723 211.602 398.385 214.515 400.078C216.638 401.148 218.71 402.159 220.819 403.213ZM228.869 408.376C227.771 407.671 226.672 406.965 225.578 406.265C224.665 405.812 223.75 405.356 222.834 404.901C224.853 406.068 226.873 407.236 228.869 408.376ZM1217.91 251.087C1215.96 252.216 1213.99 253.338 1212.06 254.479C1215.92 252.426 1219.83 250.394 1223.78 248.381C1221.8 249.275 1219.87 250.184 1217.91 251.087ZM1235.65 241.132C1231.68 243.29 1227.74 245.46 1223.87 247.658C1227.72 245.916 1231.62 244.199 1235.54 242.492C1239.46 240.57 1243.42 238.67 1247.42 236.784C1243.46 238.218 1239.54 239.667 1235.65 241.132ZM1253.36 231.798C1248.62 234.205 1243.95 236.641 1239.34 239.109C1243.92 237.405 1248.54 235.724 1253.2 234.065C1257.84 231.93 1262.53 229.826 1267.27 227.745C1262.6 229.077 1257.95 230.424 1253.36 231.798ZM1271.5 222.873C1266.39 225.292 1261.37 227.754 1256.41 230.245C1261.39 228.776 1266.4 227.327 1271.46 225.907C1276.44 223.763 1281.46 221.643 1286.57 219.567C1281.51 220.647 1276.48 221.747 1271.5 222.873ZM1289.9 214.471C1284.56 216.829 1279.3 219.231 1274.11 221.666C1279.36 220.49 1284.64 219.337 1289.98 218.213C1295.19 216.119 1300.46 214.054 1305.81 212.029C1300.47 212.82 1295.17 213.634 1289.9 214.471ZM209.011 391.991C205.148 389.222 201.288 386.458 197.38 383.635C194.517 382.936 191.609 382.181 188.725 381.456C192.616 384.039 196.441 386.541 200.3 389.085C203.228 390.082 206.107 391.021 209.011 391.991ZM221.797 401.108C218.127 398.503 214.429 395.864 210.717 393.207C207.917 392.276 205.128 391.358 202.306 390.401C205.893 392.764 209.48 395.129 213.017 397.431C215.955 398.671 218.884 399.9 221.797 401.108ZM234.174 409.854C230.792 407.477 227.406 405.094 223.985 402.669C221.294 401.557 218.622 400.467 215.909 399.329C219.254 401.496 222.53 403.577 225.855 405.717C228.623 407.091 231.429 408.51 234.174 409.854ZM245.383 417.686C242.717 415.829 240.038 413.954 237.358 412.079C235.119 410.988 232.864 409.877 230.609 408.768C233.152 410.401 235.703 412.048 238.214 413.644C240.607 414.996 243.007 416.357 245.383 417.686ZM252.16 422.421C251.641 422.062 251.109 421.687 250.585 421.322C249.983 420.987 249.361 420.629 248.758 420.293C249.894 421.005 251.023 421.709 252.16 422.421ZM1183.33 271.282C1181.45 272.645 1179.6 274.026 1177.74 275.398C1181.56 272.843 1185.43 270.306 1189.34 267.787C1187.33 268.947 1185.33 270.113 1183.33 271.282ZM1200.39 259.401C1196.53 262 1192.75 264.628 1189 267.271C1192.73 265.129 1196.47 262.994 1200.27 260.887C1204.08 258.537 1207.92 256.2 1211.83 253.893C1207.97 255.709 1204.17 257.551 1200.39 259.401ZM1217.71 248.092C1213.11 251.001 1208.58 253.941 1204.12 256.911C1208.57 254.769 1213.06 252.646 1217.6 250.548C1222.12 247.927 1226.71 245.334 1231.36 242.769C1226.77 244.522 1222.22 246.295 1217.71 248.092ZM1235.16 237.412C1230.23 240.336 1225.36 243.293 1220.57 246.285C1225.45 244.358 1230.38 242.458 1235.36 240.581C1240.19 237.953 1245.11 235.359 1250.08 232.795C1245.06 234.311 1240.09 235.849 1235.16 237.412ZM1252.93 227.233C1247.69 230.119 1242.55 233.058 1237.48 236.025C1242.63 234.404 1247.83 232.805 1253.08 231.236C1258.21 228.633 1263.39 226.061 1268.67 223.533C1263.38 224.741 1258.14 225.975 1252.93 227.233ZM1271.18 217.566C1265.73 220.353 1260.38 223.189 1255.11 226.062C1260.45 224.781 1265.84 223.524 1271.27 222.295C1276.58 219.777 1281.97 217.294 1287.45 214.859C1281.99 215.736 1276.56 216.64 1271.18 217.566ZM220.048 395.66C215.921 392.485 211.79 389.308 207.61 386.069C204.717 385.384 201.834 384.711 198.92 384.002C202.977 386.927 206.97 389.774 210.986 392.65C214.008 393.655 217.053 394.686 220.048 395.66ZM233.339 405.838C229.416 402.845 225.462 399.815 221.49 396.763C218.575 395.819 215.63 394.84 212.691 393.866C216.569 396.641 220.441 399.41 224.264 402.12C227.302 403.374 230.329 404.616 233.339 405.838ZM246.348 415.719C242.652 412.924 238.946 410.117 235.204 407.266C232.307 406.094 229.376 404.883 226.453 403.681C230.217 406.339 233.914 408.918 237.643 411.535C240.571 412.96 243.448 414.325 246.348 415.719ZM258.95 425.199C255.603 422.689 252.238 420.156 248.86 417.609C246.173 416.323 243.483 415.034 240.772 413.72C244.152 416.089 247.536 418.464 250.869 420.777C253.599 422.293 256.246 423.712 258.95 425.199ZM270.345 433.727C267.702 431.761 265.045 429.777 262.366 427.768C260.104 426.531 257.858 425.312 255.579 424.054C258.523 426.081 261.401 428.029 264.331 430.038C266.355 431.292 268.334 432.491 270.345 433.727ZM278.204 439.527C277.443 438.964 276.684 438.403 275.928 437.847C275.374 437.508 274.824 437.175 274.269 436.835C275.578 437.728 276.908 438.648 278.204 439.527ZM1150.82 294.988C1148.67 296.907 1146.49 298.822 1144.38 300.755C1148.29 297.496 1152.26 294.256 1156.29 291.04C1154.47 292.355 1152.63 293.666 1150.82 294.988ZM1166.56 281.402C1162.77 284.563 1159.04 287.743 1155.37 290.946C1159.05 288.287 1162.78 285.643 1166.56 283.017C1170.29 280.158 1174.08 277.323 1177.9 274.501C1174.08 276.784 1170.3 279.087 1166.56 281.402ZM1183.09 268.063C1178.61 271.543 1174.23 275.059 1169.92 278.603C1174.21 275.98 1178.55 273.376 1182.94 270.796C1187.33 267.633 1191.78 264.492 1196.31 261.389C1191.86 263.593 1187.45 265.818 1183.09 268.063ZM1199.96 255.384C1195.15 258.881 1190.44 262.415 1185.8 265.984C1190.49 263.592 1195.24 261.225 1200.04 258.881C1204.77 255.689 1209.57 252.53 1214.46 249.408C1209.58 251.377 1204.74 253.369 1199.96 255.384ZM1217.13 243.302C1212.05 246.756 1207.06 250.253 1202.16 253.786C1207.18 251.685 1212.26 249.608 1217.39 247.559C1222.36 244.418 1227.41 241.314 1232.55 238.249C1227.36 239.908 1222.22 241.592 1217.13 243.302ZM1234.6 231.818C1229.28 235.175 1224.09 238.589 1218.97 242.035C1224.22 240.285 1229.52 238.559 1234.86 236.862C1240.05 233.797 1245.32 230.77 1250.69 227.787C1245.28 229.105 1239.92 230.449 1234.6 231.818ZM1252.59 220.882C1247.07 224.114 1241.65 227.399 1236.34 230.729C1241.74 229.349 1247.18 227.993 1252.67 226.665C1258.04 223.705 1263.5 220.789 1269.07 217.925C1263.54 218.885 1258.05 219.872 1252.59 220.882ZM230.832 399.091C226.533 395.575 222.234 392.059 217.879 388.475C214.948 387.805 211.991 387.105 209.037 386.409C213.318 389.72 217.532 392.952 221.764 396.206C224.806 397.19 227.816 398.137 230.832 399.091ZM244.706 410.396C240.544 407.017 236.348 403.596 232.13 400.149C229.165 399.214 226.195 398.274 223.205 397.31C227.324 400.475 231.434 403.628 235.493 406.721C238.585 407.97 241.643 409.181 244.706 410.396ZM258.44 421.502C254.406 418.252 250.362 414.989 246.273 411.674C243.301 410.498 240.357 409.357 237.358 408.148C241.328 411.166 245.233 414.106 249.159 417.07C252.257 418.553 255.374 420.057 258.44 421.502ZM271.852 432.26C268.074 429.24 264.268 426.186 260.446 423.111C257.535 421.745 254.609 420.359 251.67 418.96C255.353 421.739 259.036 424.517 262.668 427.234C265.73 428.909 268.823 430.624 271.852 432.26ZM284.594 442.413C281.251 439.761 277.897 437.096 274.509 434.391C271.727 432.895 268.89 431.331 266.081 429.802C269.506 432.352 272.856 434.813 276.252 437.328C279.039 439.03 281.835 440.744 284.594 442.413ZM296.271 451.622C293.72 449.614 291.153 447.587 288.59 445.564C286.365 444.225 284.072 442.804 281.828 441.443C284.363 443.317 286.911 445.206 289.416 447.043C291.71 448.58 293.996 450.108 296.271 451.622ZM302.943 456.885L302.354 456.42C302.122 456.266 301.882 456.104 301.65 455.95L302.943 456.885ZM1119.29 323.499C1117.58 325.384 1115.94 327.286 1114.26 329.18C1117.98 325.345 1121.77 321.532 1125.62 317.734C1123.48 319.647 1121.39 321.576 1119.29 323.499ZM1134.65 307.201C1131.15 310.808 1127.7 314.434 1124.32 318.079C1127.59 315.152 1130.9 312.24 1134.26 309.34C1137.79 305.977 1141.37 302.624 1145.04 299.303C1141.53 301.922 1138.07 304.555 1134.65 307.201ZM1150.1 291.83C1145.92 295.844 1141.83 299.886 1137.82 303.954C1141.94 300.798 1146.13 297.663 1150.38 294.548C1154.51 290.871 1158.72 287.221 1163 283.597C1158.65 286.321 1154.34 289.066 1150.1 291.83ZM1165.96 277.135C1161.3 281.282 1156.74 285.465 1152.3 289.689C1156.85 286.748 1161.46 283.83 1166.14 280.935C1170.66 277.161 1175.26 273.41 1179.96 269.703C1175.23 272.158 1170.57 274.636 1165.96 277.135ZM1182.47 262.933C1177.56 267.01 1172.76 271.129 1168.06 275.287C1172.89 272.692 1177.76 270.113 1182.71 267.566C1187.5 263.825 1192.41 260.125 1197.4 256.465C1192.37 258.598 1187.39 260.754 1182.47 262.933ZM1199.27 249.45C1194.13 253.422 1189.12 257.444 1184.19 261.503C1189.27 259.265 1194.41 257.053 1199.6 254.867C1204.62 251.212 1209.74 247.599 1214.96 244.029C1209.68 245.811 1204.45 247.618 1199.27 249.45ZM1216.37 236.649C1211.05 240.47 1205.87 244.356 1200.77 248.274C1206.06 246.411 1211.41 244.573 1216.8 242.762C1221.99 239.238 1227.28 235.753 1232.67 232.318C1227.19 233.736 1221.76 235.181 1216.37 236.649ZM1234.13 224.412C1228.59 228.089 1223.17 231.822 1217.86 235.604C1223.3 234.13 1228.77 232.681 1234.3 231.258C1239.68 227.863 1245.15 224.512 1250.74 221.218C1245.17 222.258 1239.63 223.323 1234.13 224.412ZM241.597 402.464C237.099 398.583 232.603 394.704 228.047 390.751C225.105 390.102 222.154 389.443 219.19 388.768C223.64 392.428 228.018 395.999 232.416 399.596C235.485 400.562 238.554 401.529 241.597 402.464ZM255.967 414.825C251.583 411.064 247.183 407.284 242.74 403.453C239.744 402.534 236.736 401.602 233.714 400.653C238.024 404.175 242.323 407.685 246.569 411.128C249.709 412.37 252.857 413.619 255.967 414.825ZM270.08 426.9C265.897 423.338 261.648 419.694 257.397 416.048C254.337 414.866 251.226 413.623 248.136 412.406C252.381 415.844 256.557 419.198 260.75 422.573C263.883 424.043 266.979 425.469 270.08 426.9ZM284.1 438.779C280.011 435.32 275.952 431.9 271.817 428.384C268.811 427.001 265.791 425.6 262.755 424.181C266.797 427.433 270.835 430.68 274.818 433.858C277.947 435.542 281.003 437.135 284.1 438.779ZM297.732 450.278C293.953 447.103 290.136 443.884 286.3 440.641C283.331 439.072 280.375 437.518 277.376 435.912C281.266 439.007 285.081 442.011 288.929 445.056C291.904 446.845 294.789 448.526 297.732 450.278ZM310.865 461.264C307.485 458.447 304.07 455.585 300.65 452.719C297.962 451.125 295.302 449.566 292.588 447.942C295.971 450.617 299.361 453.301 302.694 455.913C305.448 457.734 308.138 459.477 310.865 461.264ZM322.842 471.209C320.159 468.986 317.514 466.812 314.809 464.564C312.667 463.166 310.554 461.805 308.396 460.387C311.266 462.621 314.073 464.779 316.93 466.996C318.917 468.421 320.87 469.802 322.842 471.209ZM329.964 477.094L329.112 476.389L328.459 475.928C328.957 476.312 329.468 476.713 329.964 477.094ZM1090.89 355.403C1088.93 358.091 1086.95 360.776 1085.04 363.474C1088.64 358.832 1092.31 354.202 1096.07 349.593C1094.33 351.527 1092.6 353.463 1090.89 355.403ZM1104.52 337.323C1101.14 341.621 1097.85 345.944 1094.61 350.281C1097.91 346.597 1101.27 342.924 1104.68 339.266C1108.03 335.319 1111.46 331.39 1114.93 327.474C1111.41 330.744 1107.94 334.028 1104.52 337.323ZM1118.95 319.669C1115 324.344 1111.14 329.047 1107.37 333.774C1111.12 330.21 1114.92 326.66 1118.78 323.127C1122.76 318.742 1126.83 314.385 1130.99 310.058C1126.92 313.245 1122.91 316.449 1118.95 319.669ZM1133.74 302.764C1129.42 307.53 1125.2 312.332 1121.07 317.161C1125.38 313.688 1129.73 310.23 1134.17 306.795C1138.46 302.38 1142.85 297.995 1147.34 293.642C1142.74 296.66 1138.22 299.705 1133.74 302.764ZM1149.18 286.435C1144.5 291.192 1139.92 295.987 1135.47 300.827C1140.14 297.658 1144.86 294.507 1149.65 291.383C1154.17 287.051 1158.76 282.742 1163.47 278.484C1158.65 281.113 1153.89 283.763 1149.18 286.435ZM1165.22 270.74C1160.29 275.388 1155.48 280.082 1150.79 284.818C1155.65 282.076 1160.56 279.354 1165.54 276.658C1170.37 272.347 1175.31 268.083 1180.36 263.86C1175.26 266.132 1170.21 268.423 1165.22 270.74ZM1181.56 255.853C1176.45 260.329 1171.48 264.862 1166.6 269.432C1171.7 267.073 1176.87 264.741 1182.08 262.431C1187.09 258.276 1192.19 254.163 1197.41 250.1C1192.08 251.995 1186.79 253.911 1181.56 255.853ZM1198.35 241.695C1193.04 245.989 1187.87 250.347 1182.8 254.747C1188.12 252.78 1193.49 250.841 1198.91 248.924C1204.06 244.942 1209.31 240.997 1214.68 237.11C1209.19 238.613 1203.75 240.143 1198.35 241.695ZM1215.8 228.154C1210.28 232.278 1204.89 236.459 1199.62 240.692C1205.05 239.136 1210.53 237.605 1216.05 236.1C1221.4 232.256 1226.88 228.466 1232.48 224.732C1226.88 225.849 1221.32 226.989 1215.8 228.154ZM252.23 405.68C247.613 401.502 242.916 397.226 238.218 392.95C235.251 392.321 232.279 391.684 229.29 391.029C233.903 395.031 238.463 398.969 243.01 402.892C246.096 403.837 249.17 404.766 252.23 405.68ZM267.054 419.047C262.497 414.947 257.923 410.825 253.302 406.646C250.269 405.743 247.214 404.814 244.154 403.88C248.698 407.798 253.189 411.649 257.677 415.497C260.831 416.715 263.93 417.866 267.054 419.047ZM281.778 432.256C277.314 428.262 272.834 424.248 268.307 420.177C265.233 419.018 262.196 417.902 259.093 416.709C263.45 420.446 267.815 424.19 272.098 427.836C275.339 429.327 278.572 430.807 281.778 432.256ZM296.313 445.239C292.024 441.426 287.651 437.51 283.287 433.604C280.16 432.196 277.03 430.784 273.87 429.336C278.138 432.962 282.358 436.527 286.577 440.092C289.824 441.809 293.104 443.568 296.313 445.239ZM310.66 457.94C306.517 454.279 302.364 450.605 298.17 446.883C295.063 445.271 291.916 443.608 288.775 441.954C292.858 445.399 296.897 448.792 300.925 452.169C304.171 454.094 307.453 456.062 310.66 457.94ZM324.596 470.211C320.762 466.845 316.918 463.468 313.031 460.038C310.003 458.272 306.901 456.416 303.839 454.608C307.597 457.761 311.364 460.923 315.059 463.997C318.244 466.076 321.448 468.178 324.596 470.211ZM337.823 481.802C334.534 478.934 331.182 475.987 327.838 473.053C325 471.227 322.07 469.289 319.201 467.425C322.583 470.226 325.954 473.013 329.312 475.783C332.157 477.799 335.009 479.824 337.823 481.802ZM349.894 492.274C347.414 490.124 344.932 487.974 342.445 485.816C340.184 484.235 337.847 482.558 335.566 480.952C338.124 483.054 340.622 485.083 343.157 487.156C345.41 488.872 347.66 490.583 349.894 492.274ZM357.288 498.683L357.006 498.44L356.703 498.209L357.288 498.683ZM1064.58 392.183C1063.07 394.778 1061.61 397.378 1060.14 399.978C1063.2 395.048 1066.35 390.126 1069.55 385.214C1067.88 387.535 1066.22 389.858 1064.58 392.183ZM1076.98 371.651C1073.99 376.431 1071.06 381.223 1068.21 386.027C1071.01 382.126 1073.86 378.23 1076.76 374.343C1079.85 369.794 1083.01 365.254 1086.25 360.733C1083.11 364.364 1080.02 368.004 1076.98 371.651ZM1089.85 351.878C1086.22 357.209 1082.7 362.568 1079.28 367.944C1082.91 363.64 1086.6 359.343 1090.36 355.063C1093.93 350.182 1097.58 345.319 1101.31 340.479C1097.42 344.264 1093.61 348.067 1089.85 351.878ZM1103.64 332.424C1099.61 337.889 1095.7 343.387 1091.9 348.913C1095.88 344.919 1099.9 340.932 1104.01 336.966C1108.01 331.872 1112.13 326.809 1116.34 321.776C1112.04 325.308 1107.81 328.86 1103.64 332.424ZM1117.71 313.976C1113.42 319.364 1109.28 324.799 1105.23 330.257C1109.57 326.577 1113.99 322.915 1118.47 319.27C1122.72 314.238 1127.08 309.236 1131.55 304.274C1126.87 307.489 1122.26 310.723 1117.71 313.976ZM1132.68 296.004C1128.02 301.372 1123.48 306.781 1119.1 312.238C1123.76 308.919 1128.48 305.616 1133.28 302.338C1137.79 297.383 1142.39 292.458 1147.14 287.586C1142.26 290.372 1137.44 293.177 1132.68 296.004ZM1148.08 278.899C1143.25 284.055 1138.55 289.265 1133.98 294.515C1138.84 291.644 1143.77 288.797 1148.75 285.969C1153.5 281.133 1158.38 276.345 1163.38 271.601C1158.22 274.01 1153.13 276.446 1148.08 278.899ZM1163.95 262.575C1158.91 267.543 1154.03 272.575 1149.25 277.644C1154.38 275.158 1159.56 272.688 1164.81 270.248C1169.73 265.613 1174.75 261.018 1179.91 256.479C1174.53 258.485 1169.22 260.521 1163.95 262.575ZM1180.5 246.952C1175.2 251.743 1170.03 256.588 1165.02 261.496C1170.36 259.422 1175.74 257.363 1181.19 255.337C1186.27 250.895 1191.43 246.486 1196.76 242.148C1191.3 243.726 1185.87 245.327 1180.5 246.952ZM1197.55 232.121C1192.09 236.686 1186.77 241.31 1181.58 245.988C1187.01 244.351 1192.49 242.74 1198.01 241.152C1203.31 236.868 1208.74 232.64 1214.3 228.471C1208.67 229.663 1203.09 230.882 1197.55 232.121ZM262.844 408.797C258.038 404.258 253.204 399.686 248.336 395.071C245.368 394.466 242.37 393.826 239.379 393.193C244.14 397.525 248.898 401.851 253.581 406.088C256.685 407.011 259.767 407.907 262.844 408.797ZM278.135 423.218C273.422 418.79 268.617 414.248 263.819 409.717C260.77 408.837 257.729 407.967 254.653 407.055C259.333 411.287 263.98 415.479 268.591 419.626C271.774 420.824 274.984 422.056 278.135 423.218ZM293.255 437.377C288.626 433.05 283.983 428.706 279.288 424.297C276.168 423.152 272.992 421.938 269.843 420.754C274.459 424.904 279.02 428.986 283.572 433.057C286.817 434.518 290.045 435.959 293.255 437.377ZM308.246 451.353C303.737 447.16 299.207 442.941 294.631 438.666C291.47 437.273 288.275 435.838 285.08 434.404C289.565 438.414 294.044 442.417 298.453 446.336C301.748 448.046 304.988 449.688 308.246 451.353ZM323.028 465.077C318.705 461.081 314.303 456.985 309.904 452.894C306.719 451.272 303.529 449.645 300.308 447.978C304.672 451.853 309.011 455.696 313.312 459.492C316.592 461.404 319.786 463.212 323.028 465.077ZM337.661 478.559C333.49 474.724 329.295 470.86 325.069 466.958C321.916 465.149 318.782 463.364 315.593 461.51C319.807 465.224 323.956 468.859 328.114 472.503C331.344 474.581 334.469 476.528 337.661 478.559ZM351.931 491.635C348.033 488.073 344.135 484.512 340.185 480.884C337.162 478.968 334.169 477.089 331.111 475.13C334.997 478.534 338.864 481.915 342.689 485.243C345.815 487.429 348.843 489.494 351.931 491.635ZM365.469 503.987C362.106 500.932 358.685 497.804 355.264 494.678C352.496 492.767 349.76 490.896 346.962 488.948C350.381 491.918 353.808 494.897 357.179 497.808C359.983 499.917 362.696 501.915 365.469 503.987ZM378.171 515.476C375.524 513.085 372.853 510.666 370.191 508.258C368.057 506.671 365.943 505.109 363.79 503.499C366.448 505.781 369.092 508.047 371.731 510.307C373.875 512.027 376.045 513.778 378.171 515.476ZM1041.35 433.212C1039.85 436.507 1038.37 439.803 1036.94 443.1C1039.82 437.153 1042.77 431.203 1045.83 425.257C1044.31 427.909 1042.83 430.561 1041.35 433.212ZM1052.09 410.424C1049.47 415.736 1046.93 421.056 1044.46 426.381C1047.08 421.788 1049.75 417.194 1052.48 412.604C1055.12 407.703 1057.82 402.806 1060.58 397.919C1057.7 402.084 1054.87 406.254 1052.09 410.424ZM1063.56 388.143C1060.4 394.042 1057.33 399.959 1054.36 405.888C1057.51 401.221 1060.74 396.557 1064.02 391.9C1067.28 386.266 1070.66 380.648 1074.13 375.048C1070.53 379.405 1067.03 383.774 1063.56 388.143ZM1075.72 366.505C1072.08 372.689 1068.55 378.898 1065.16 385.131C1068.84 380.527 1072.61 375.931 1076.43 371.343C1080 365.648 1083.66 359.969 1087.44 354.319C1083.47 358.371 1079.56 362.434 1075.72 366.505ZM1088.57 345.591C1084.64 351.736 1080.83 357.916 1077.14 364.124C1081.13 359.92 1085.18 355.726 1089.31 351.545C1093.24 345.756 1097.31 340.001 1101.49 334.277C1097.12 338.034 1092.82 341.807 1088.57 345.591ZM1102.03 325.421C1097.8 331.472 1093.73 337.574 1089.77 343.702C1094.16 339.808 1098.59 335.923 1103.12 332.059C1107.27 326.424 1111.52 320.818 1115.91 315.255C1111.22 318.628 1106.59 322.017 1102.03 325.421ZM1116.34 305.921C1111.83 311.825 1107.44 317.771 1103.22 323.766C1107.82 320.349 1112.5 316.953 1117.22 313.57C1121.64 308.029 1126.2 302.531 1130.89 297.079C1125.98 300.007 1121.14 302.957 1116.34 305.921ZM1131.17 287.293C1126.43 292.991 1121.85 298.747 1117.4 304.543C1122.28 301.533 1127.21 298.535 1132.21 295.563C1136.84 290.222 1141.59 284.927 1146.48 279.683C1141.32 282.198 1136.22 284.735 1131.17 287.293ZM1146.57 269.499C1141.6 274.982 1136.8 280.531 1132.12 286.122C1137.24 283.537 1142.41 280.971 1147.65 278.428C1152.46 273.291 1157.39 268.191 1162.47 263.155C1157.12 265.247 1151.82 267.363 1146.57 269.499ZM1162.76 252.444C1157.55 257.716 1152.47 263.042 1147.56 268.433C1152.84 266.294 1158.16 264.172 1163.54 262.077C1168.57 257.125 1173.73 252.223 1179.05 247.385C1173.57 249.047 1168.15 250.737 1162.76 252.444ZM1179.38 236.304C1174.02 241.308 1168.79 246.371 1163.71 251.492C1169.14 249.778 1174.61 248.089 1180.13 246.42C1185.34 241.702 1190.68 237.04 1196.16 232.438C1190.53 233.702 1184.94 234.994 1179.38 236.304ZM273.393 411.818C268.399 406.917 263.424 402.041 258.357 397.052C255.392 396.474 252.442 395.911 249.454 395.305C254.371 399.967 259.245 404.574 264.098 409.156C267.203 410.051 270.316 410.956 273.393 411.818ZM289.047 427.146C284.172 422.381 279.263 417.576 274.314 412.722C271.258 411.868 268.156 410.963 265.072 410.076C269.934 414.667 274.793 419.255 279.572 423.744C282.761 424.914 285.89 426.013 289.047 427.146ZM304.619 442.338C299.839 437.689 294.975 432.937 290.109 428.182C286.981 427.064 283.867 425.964 280.706 424.807C285.483 429.291 290.218 433.725 294.922 438.121C298.178 439.555 301.398 440.947 304.619 442.338ZM320.146 457.393C315.4 452.798 310.667 448.218 305.851 443.538C302.672 442.168 299.511 440.821 296.297 439.41C300.973 443.776 305.589 448.07 310.195 452.351C313.524 454.047 316.856 455.747 320.146 457.393ZM335.523 472.243C330.912 467.801 326.277 463.329 321.594 458.797C318.366 457.185 315.118 455.551 311.853 453.892C316.385 458.104 320.904 462.3 325.36 466.419C328.75 468.362 332.176 470.352 335.523 472.243ZM350.656 486.801C346.241 482.569 341.749 478.24 337.255 473.91C333.999 472.076 330.694 470.181 327.399 468.297C331.782 472.345 336.15 476.373 340.465 480.337C343.86 482.489 347.305 484.703 350.656 486.801ZM365.583 501.061C361.353 497.028 357.099 492.964 352.811 488.86C349.574 486.839 346.264 484.731 342.985 482.66C347.208 486.533 351.355 490.312 355.521 494.114C358.875 496.43 362.272 498.799 365.583 501.061ZM380.139 514.897C376.207 511.168 372.282 507.448 368.297 503.653C365.187 501.536 361.996 499.318 358.849 497.152C362.733 500.693 366.58 504.19 370.407 507.659C373.652 510.072 376.937 512.535 380.139 514.897ZM394.1 528.107C390.681 524.883 387.218 521.604 383.744 518.312C380.905 516.228 377.99 514.047 375.118 511.921C378.528 515.01 381.947 518.111 385.298 521.127C388.239 523.462 391.194 525.817 394.1 528.107ZM406.511 539.772C404.018 537.433 401.494 535.058 398.982 532.696C396.87 531.037 394.74 529.358 392.609 527.676C395.239 530.031 397.894 532.418 400.507 534.751C402.531 536.453 404.504 538.09 406.511 539.772ZM1021.52 478.171C1020.39 481.478 1019.28 484.784 1018.2 488.087C1020.44 482.05 1022.77 475.997 1025.17 469.939C1023.94 472.683 1022.71 475.432 1021.52 478.171ZM1030.39 453.381C1028.14 459.345 1025.99 465.312 1023.9 471.275C1026.06 466.389 1028.28 461.494 1030.55 456.595C1032.93 450.852 1035.39 445.106 1037.92 439.362C1035.36 444.038 1032.85 448.714 1030.39 453.381ZM1040.15 428.805C1037.35 435.498 1034.66 442.198 1032.09 448.905C1034.91 443.614 1037.8 438.314 1040.75 433.014C1043.53 426.866 1046.37 420.719 1049.33 414.586C1046.21 419.326 1043.14 424.069 1040.15 428.805ZM1050.52 405.008C1047.4 411.825 1044.41 418.663 1041.53 425.509C1044.78 420.401 1048.11 415.289 1051.52 410.179C1054.68 403.749 1057.97 397.332 1061.37 390.936C1057.68 395.623 1054.07 400.316 1050.52 405.008ZM1061.86 381.573C1058.34 388.514 1054.92 395.477 1051.68 402.469C1055.38 397.6 1059.14 392.73 1063 387.867C1066.45 381.453 1069.98 375.053 1073.68 368.687C1069.67 372.975 1065.74 377.274 1061.86 381.573ZM1073.89 358.939C1070.09 365.743 1066.46 372.584 1062.95 379.451C1066.96 375.026 1071.02 370.602 1075.17 366.19C1078.92 359.805 1082.82 353.452 1086.84 347.133C1082.46 351.059 1078.13 354.994 1073.89 358.939ZM1086.67 337.125C1082.57 343.797 1078.6 350.507 1074.81 357.26C1079.14 353.244 1083.56 349.239 1088.04 345.244C1092.04 339.014 1096.13 332.809 1100.39 326.655C1095.75 330.131 1091.19 333.624 1086.67 337.125ZM1100.28 316.041C1095.91 322.521 1091.68 329.046 1087.62 335.619C1092.19 332.082 1096.81 328.552 1101.51 325.042C1105.78 318.938 1110.23 312.887 1114.8 306.877C1109.91 309.916 1105.06 312.97 1100.28 316.041ZM1114.45 295.906C1109.85 302.139 1105.43 308.435 1101.13 314.77C1105.98 311.663 1110.89 308.572 1115.86 305.499C1120.35 299.621 1124.97 293.787 1129.75 288.008C1124.6 290.623 1119.49 293.254 1114.45 295.906ZM1129.47 276.583C1124.58 282.603 1119.81 288.665 1115.24 294.803C1120.34 292.127 1125.5 289.475 1130.71 286.838C1135.4 281.201 1140.18 275.597 1145.16 270.069C1139.89 272.221 1134.65 274.391 1129.47 276.583ZM1145.12 258.169C1140.04 263.911 1135.09 269.706 1130.31 275.567C1135.54 273.362 1140.81 271.177 1146.13 269.012C1151.07 263.571 1156.17 258.197 1161.41 252.877C1155.94 254.618 1150.51 256.385 1145.12 258.169ZM1161.31 240.685C1156.04 246.145 1150.9 251.665 1145.94 257.251C1151.37 255.456 1156.84 253.679 1162.36 251.927C1167.47 246.762 1172.72 241.655 1178.11 236.609C1172.47 237.945 1166.87 239.305 1161.31 240.685ZM283.815 414.667C278.719 409.492 273.592 404.279 268.41 398.998C265.434 398.442 262.423 397.844 259.424 397.261C264.538 402.296 269.561 407.22 274.6 412.163C277.696 413.027 280.747 413.837 283.815 414.667ZM299.967 431.033C294.893 425.9 289.819 420.764 284.669 415.536C281.619 414.713 278.596 413.922 275.518 413.066C280.52 417.97 285.472 422.816 290.4 427.631C293.595 428.773 296.804 429.931 299.967 431.033ZM315.96 447.193C310.999 442.193 305.982 437.122 300.939 432.018C297.802 430.928 294.631 429.797 291.463 428.668C296.386 433.479 301.308 438.288 306.145 442.991C309.427 444.405 312.714 445.825 315.96 447.193ZM331.828 463.163C326.972 458.286 322.059 453.34 317.12 448.361C313.906 447.01 310.635 445.59 307.384 444.194C312.264 448.936 317.08 453.6 321.886 458.252C325.224 459.919 328.53 461.545 331.828 463.163ZM347.616 478.973C342.821 474.178 338.038 469.397 333.169 464.512C329.911 462.919 326.628 461.295 323.333 459.654C328.116 464.282 332.839 468.835 337.548 473.37C340.939 475.281 344.268 477.116 347.616 478.973ZM363.241 494.564C358.596 489.941 353.918 485.273 349.197 480.554C345.907 478.734 342.61 476.908 339.278 475.036C343.918 479.503 348.537 483.947 353.096 488.314C356.52 490.451 359.861 492.484 363.241 494.564ZM378.644 509.877C374.2 505.473 369.67 500.963 365.142 496.455C361.846 494.432 358.558 492.419 355.218 490.342C359.697 494.63 364.159 498.898 368.564 503.094C371.971 505.415 375.282 507.614 378.644 509.877ZM393.876 524.922C389.605 520.709 385.313 516.471 380.984 512.188C377.725 510.001 374.482 507.833 371.179 505.593C375.494 509.697 379.729 513.702 383.983 517.731C387.329 520.188 390.575 522.52 393.876 524.922ZM408.88 539.675C404.859 535.73 400.844 531.792 396.765 527.775C393.652 525.517 390.551 523.274 387.396 520.967C391.411 524.763 395.375 528.497 399.329 532.219C402.543 534.741 405.709 537.205 408.88 539.675ZM423.053 553.552C419.6 550.182 416.106 546.761 412.598 543.32C409.761 541.12 406.88 538.863 404.009 536.619C407.507 539.906 410.994 543.181 414.435 546.397C417.326 548.806 420.196 551.186 423.053 553.552ZM435.694 565.857C433.197 563.431 430.665 560.962 428.145 558.508C426.082 556.808 424.031 555.123 421.95 553.399C424.436 555.716 426.947 558.064 429.407 560.347C431.515 562.199 433.605 564.029 435.694 565.857ZM1004.98 528.003C1004.06 531.746 1003.19 535.48 1002.32 539.21C1004.22 532.188 1006.19 525.137 1008.26 518.062C1007.14 521.386 1006.06 524.694 1004.98 528.003ZM1012.1 500.628C1010.34 507.023 1008.65 513.411 1007.04 519.784C1008.89 514.265 1010.78 508.728 1012.74 503.174C1014.55 497.327 1016.41 491.469 1018.35 485.605C1016.22 490.625 1014.13 495.635 1012.1 500.628ZM1019.8 474.101C1017.57 481.303 1015.48 488.501 1013.46 495.691C1015.88 489.821 1018.35 483.935 1020.91 478.029C1023.21 471.297 1025.61 464.558 1028.09 457.819C1025.26 463.259 1022.5 468.689 1019.8 474.101ZM1028.55 447.594C1025.92 455.157 1023.4 462.726 1021.02 470.295C1023.88 464.611 1026.78 458.915 1029.79 453.205C1032.44 446.147 1035.21 439.09 1038.11 432.044C1034.85 437.235 1031.68 442.421 1028.55 447.594ZM1037.95 421.988C1034.99 429.577 1032.2 437.187 1029.52 444.803C1032.8 439.402 1036.13 433.991 1039.56 428.573C1042.53 421.438 1045.62 414.314 1048.84 407.209C1045.14 412.138 1041.52 417.066 1037.95 421.988ZM1048.39 396.781C1045.09 404.367 1041.92 411.977 1038.91 419.61C1042.51 414.66 1046.2 409.704 1049.95 404.747C1053.22 397.609 1056.65 390.494 1060.21 383.407C1056.21 387.863 1052.26 392.323 1048.39 396.781ZM1059.43 372.653C1055.84 380.046 1052.47 387.486 1049.19 394.942C1053.16 390.389 1057.2 385.834 1061.3 381.285C1064.85 374.274 1068.54 367.292 1072.39 360.346C1068 364.441 1063.69 368.547 1059.43 372.653ZM1071.61 348.998C1067.67 356.295 1063.86 363.63 1060.25 371.011C1064.55 366.875 1068.9 362.741 1073.34 358.617C1077.14 351.796 1081.09 345.008 1085.2 338.267C1080.61 341.835 1076.08 345.411 1071.61 348.998ZM1084.4 326.427C1080.22 333.443 1076.21 340.514 1072.36 347.624C1076.89 343.993 1081.49 340.371 1086.14 336.761C1090.24 330.094 1094.51 323.477 1098.92 316.905C1094.02 320.065 1089.19 323.242 1084.4 326.427ZM1098.01 304.726C1093.54 311.499 1089.24 318.331 1085.11 325.213C1089.94 322.007 1094.83 318.813 1099.78 315.633C1104.09 309.235 1108.54 302.876 1113.17 296.58C1108.06 299.278 1103.02 301.998 1098.01 304.726ZM1112.51 283.886C1107.76 290.405 1103.17 296.978 1098.76 303.615C1103.78 300.884 1108.85 298.164 1113.97 295.465C1118.54 289.292 1123.29 283.181 1128.18 277.125C1122.91 279.361 1117.68 281.615 1112.51 283.886ZM1127.6 264.093C1122.64 270.298 1117.86 276.568 1113.23 282.896C1118.44 280.615 1123.71 278.354 1129.02 276.109C1133.81 270.204 1138.78 264.366 1143.88 258.582C1138.41 260.399 1132.98 262.238 1127.6 264.093ZM1143.31 245.259C1138.13 251.17 1133.14 257.16 1128.3 263.202C1133.72 261.336 1139.19 259.489 1144.7 257.664C1149.68 252.039 1154.83 246.48 1160.12 240.981C1154.48 242.385 1148.87 243.812 1143.31 245.259ZM294.245 417.474C289.011 411.989 283.694 406.403 278.358 400.794C275.39 400.265 272.424 399.738 269.433 399.182C274.654 404.503 279.827 409.764 284.958 414.975C288.055 415.81 291.175 416.672 294.245 417.474ZM310.724 434.704C305.517 429.265 300.333 423.852 295.045 418.313C291.99 417.518 288.895 416.673 285.812 415.844C291.005 421.117 296.118 426.29 301.233 431.466C304.419 432.573 307.57 433.637 310.724 434.704ZM327.136 451.823C322.011 446.486 316.857 441.111 311.65 435.673C308.515 434.616 305.373 433.547 302.206 432.451C307.317 437.622 312.393 442.75 317.422 447.819C320.693 449.194 323.902 450.493 327.136 451.823ZM343.459 468.804C338.431 463.584 333.316 458.258 328.194 452.924C324.989 451.61 321.823 450.345 318.582 448.987C323.579 454.025 328.563 459.046 333.472 463.975C336.824 465.613 340.149 467.217 343.459 468.804ZM359.716 485.641C354.739 480.493 349.738 475.315 344.679 470.066C341.402 468.499 338.131 466.94 334.813 465.323C339.767 470.293 344.626 475.147 349.503 480.022C352.922 481.915 356.341 483.805 359.716 485.641ZM375.85 502.29C370.969 497.261 366.079 492.221 361.118 487.091C357.794 485.288 354.449 483.461 351.083 481.604C355.914 486.432 360.691 491.191 365.443 495.921C368.922 498.056 372.419 500.215 375.85 502.29ZM391.812 518.708C387.087 513.859 382.311 508.945 377.502 503.992C374.143 501.966 370.748 499.893 367.344 497.81C372.021 502.464 376.68 507.096 381.274 511.646C384.792 514.007 388.344 516.411 391.812 518.708ZM407.559 534.843C403.025 530.211 398.409 525.475 393.791 520.736C390.428 518.514 387.02 516.236 383.61 513.954C388.116 518.415 392.603 522.85 397.035 527.217C400.546 529.763 404.1 532.362 407.559 534.843ZM423.094 550.672C418.742 546.244 414.381 541.805 409.966 537.299C406.65 534.927 403.29 532.502 399.926 530.071C404.323 534.397 408.638 538.622 412.969 542.867C416.38 545.514 419.732 548.087 423.094 550.672ZM438.352 566.156C434.268 562.021 430.184 557.884 426.037 553.67C422.895 551.262 419.778 548.885 416.594 546.422C420.61 550.353 424.569 554.212 428.525 558.066C431.809 560.773 435.114 563.508 438.352 566.156ZM452.66 580.618C449.178 577.11 445.655 573.548 442.116 569.966C439.288 567.661 436.458 565.353 433.596 563.003C437.153 566.463 440.686 569.894 444.186 573.285C447.044 575.771 449.838 578.177 452.66 580.618ZM465.595 593.624C463.12 591.141 460.607 588.61 458.108 586.098C456.027 584.304 453.907 582.462 451.806 580.644C454.253 583.008 456.726 585.405 459.14 587.727C461.295 589.696 463.46 591.681 465.595 593.624ZM992.46 580.737C991.835 584.69 991.207 588.645 990.62 592.578C991.954 585.352 993.376 578.067 994.861 570.753C994.05 574.09 993.242 577.422 992.46 580.737ZM997.395 551.95C996.084 558.959 994.862 565.947 993.706 572.904C995.123 567.037 996.592 561.137 998.108 555.21C999.547 548.553 1001.07 541.866 1002.65 535.162C1000.84 540.786 999.101 546.38 997.395 551.95ZM1003.24 522.945C1001.56 530.75 999.973 538.541 998.484 546.307C1000.38 540.194 1002.36 534.038 1004.38 527.864C1006.2 520.4 1008.11 512.914 1010.13 505.414C1007.77 511.286 1005.49 517.126 1003.24 522.945ZM1009.89 494.435C1007.82 502.67 1005.87 510.9 1004.06 519.111C1006.46 512.933 1008.95 506.713 1011.49 500.478C1013.61 492.779 1015.83 485.068 1018.17 477.352C1015.34 483.068 1012.59 488.764 1009.89 494.435ZM1017.4 466.43C1015.02 474.728 1012.79 483.032 1010.68 491.33C1013.45 485.559 1016.3 479.756 1019.2 473.942C1021.65 466.019 1024.27 458.094 1027 450.177C1023.74 455.608 1020.53 461.032 1017.4 466.43ZM1025.86 438.979C1023.11 447.335 1020.5 455.707 1018.06 464.086C1021.28 458.539 1024.59 452.967 1027.96 447.386C1030.67 439.592 1033.49 431.803 1036.48 424.035C1032.88 429.026 1029.34 434.01 1025.86 438.979ZM1035.2 412.286C1032.15 420.483 1029.27 428.712 1026.54 436.953C1030.08 431.898 1033.69 426.829 1037.36 421.753C1040.41 413.94 1043.64 406.153 1047.01 398.388C1043 403.025 1039.08 407.659 1035.2 412.286ZM1045.52 386.262C1042.11 394.342 1038.87 402.458 1035.81 410.603C1039.75 405.909 1043.74 401.209 1047.82 396.506C1051.12 388.939 1054.54 381.393 1058.14 373.889C1053.88 378.012 1049.66 382.139 1045.52 386.262ZM1056.74 361.154C1053.03 368.984 1049.51 376.861 1046.16 384.774C1050.33 380.631 1054.57 376.486 1058.87 372.345C1062.49 364.866 1066.34 357.438 1070.31 350.045C1065.72 353.741 1061.21 357.447 1056.74 361.154ZM1068.72 337.031C1064.73 344.584 1060.98 352.207 1057.34 359.857C1061.86 356.116 1066.43 352.377 1071.07 348.648C1074.94 341.47 1078.97 334.335 1083.17 327.253C1078.3 330.501 1073.48 333.763 1068.72 337.031ZM1081.83 313.686C1077.51 321.016 1073.33 328.397 1069.38 335.841C1074.16 332.564 1078.99 329.295 1083.88 326.039C1088.01 319.113 1092.28 312.23 1096.76 305.413C1091.73 308.158 1086.76 310.916 1081.83 313.686ZM1095.65 291.426C1091.07 298.432 1086.68 305.507 1082.46 312.633C1087.43 309.843 1092.44 307.066 1097.51 304.302C1101.92 297.61 1106.55 290.989 1111.31 284.419C1106.04 286.738 1100.83 289.076 1095.65 291.426ZM1110.16 270.207C1105.34 276.892 1100.74 283.661 1096.26 290.474C1101.48 288.112 1106.72 285.759 1112.03 283.429C1116.67 277.053 1121.48 270.74 1126.45 264.488C1120.98 266.377 1115.55 268.282 1110.16 270.207ZM1125.57 249.969C1120.45 256.354 1115.51 262.811 1110.77 269.341C1116.19 267.408 1121.65 265.494 1127.15 263.597C1132 257.518 1137.01 251.495 1142.2 245.548C1136.62 247.002 1131.08 248.476 1125.57 249.969ZM304.545 420.082C299.185 414.303 293.744 408.423 288.286 402.525C285.323 402.023 282.345 401.504 279.359 400.974C284.724 406.614 290.075 412.238 295.335 417.75C298.426 418.554 301.481 419.312 304.545 420.082ZM321.454 438.289C316.117 432.548 310.746 426.767 305.318 420.915C302.266 420.15 299.218 419.388 296.139 418.59C301.466 424.171 306.706 429.645 311.95 435.123C315.133 436.196 318.303 437.255 321.454 438.289ZM338.32 456.402C333.019 450.715 327.705 445.011 322.316 439.217C319.183 438.192 316.041 437.155 312.877 436.092C318.131 441.58 323.326 446.995 328.497 452.38C331.774 453.723 335.082 455.106 338.32 456.402ZM355.014 474.288C349.829 468.741 344.581 463.117 339.305 457.458C336.089 456.174 332.808 454.81 329.555 453.481C334.734 458.875 339.898 464.248 344.984 469.527C348.343 471.133 351.697 472.735 355.014 474.288ZM371.625 492.038C366.528 486.602 361.355 481.07 356.163 475.517C352.875 473.981 349.532 472.377 346.203 470.79C351.32 476.1 356.396 481.358 361.426 486.559C364.851 488.417 368.246 490.237 371.625 492.038ZM388.165 509.643C383.113 504.272 378.074 498.915 372.938 493.44C369.594 491.663 366.215 489.843 362.826 488.01C367.875 493.228 372.84 498.344 377.805 503.458C381.291 505.56 384.728 507.601 388.165 509.643ZM404.57 527.055C399.65 521.841 394.7 516.59 389.694 511.269C386.304 509.261 382.892 507.225 379.455 505.158C384.376 510.225 389.251 515.235 394.086 520.195C397.618 522.528 401.09 524.787 404.57 527.055ZM420.806 544.235C416.05 539.213 411.222 534.102 406.376 528.967C402.962 526.747 399.526 524.502 396.062 522.22C400.824 527.105 405.575 531.976 410.248 536.748C413.806 539.293 417.301 541.758 420.806 544.235ZM437.008 561.312C432.38 556.445 427.686 551.492 422.972 546.518C419.562 544.115 416.126 541.679 412.664 539.211C417.281 543.924 421.873 548.604 426.412 553.219C429.964 555.942 433.511 558.659 437.008 561.312ZM452.888 577.974C448.432 573.306 443.987 568.651 439.461 563.895C436.112 561.361 432.747 558.809 429.349 556.211C433.786 560.716 438.134 565.111 442.502 569.529C445.982 572.368 449.461 575.204 452.888 577.974ZM468.272 594.054C464.206 589.813 460.131 585.561 456 581.237C452.791 578.651 449.51 575.974 446.253 573.328C450.388 577.506 454.462 581.606 458.529 585.698C461.809 588.526 465.039 591.288 468.272 594.054ZM482.979 609.372C479.451 605.707 475.876 601.984 472.286 598.241C469.449 595.821 466.618 593.411 463.743 590.943C467.291 594.508 470.808 598.033 474.299 601.527C477.211 604.165 480.106 606.782 482.979 609.372ZM496.159 623.032C493.679 620.467 491.157 617.848 488.651 615.251C486.591 613.403 484.493 611.504 482.414 609.631C484.867 612.079 487.335 614.548 489.753 616.953C491.882 618.972 494.05 621.04 496.159 623.032ZM1000.26 515.059C998.487 524.079 996.856 533.087 995.355 542.075C997.717 535.702 1000.14 529.283 1002.63 522.828C1004.46 514.371 1006.39 505.899 1008.48 497.417C1005.68 503.327 1002.94 509.215 1000.26 515.059ZM1006.64 485.376C1004.53 494.417 1002.58 503.459 1000.78 512.492C1003.55 506.463 1006.37 500.399 1009.28 494.302C1011.41 485.757 1013.7 477.204 1016.13 468.657C1012.9 474.255 1009.74 479.83 1006.64 485.376ZM1013.98 456.271C1011.54 465.24 1009.27 474.224 1007.15 483.208C1010.31 477.58 1013.51 471.929 1016.8 466.25C1019.24 457.754 1021.83 449.263 1024.59 440.789C1020.99 445.969 1017.47 451.129 1013.98 456.271ZM1022.33 427.853C1019.54 436.682 1016.95 445.541 1014.51 454.41C1018.03 449.213 1021.61 443.997 1025.27 438.764C1028.02 430.396 1030.92 422.043 1034 413.718C1030.05 418.439 1026.15 423.156 1022.33 427.853ZM1031.68 400.26C1028.55 408.89 1025.62 417.559 1022.85 426.251C1026.7 421.527 1030.63 416.784 1034.61 412.035C1037.67 403.829 1040.88 395.646 1044.28 387.504C1040.02 391.761 1035.82 396.014 1031.68 400.26ZM1042.08 373.462C1038.59 381.897 1035.27 390.374 1032.16 398.893C1036.37 394.593 1040.61 390.288 1044.94 385.979C1048.3 377.987 1051.85 370.033 1055.57 362.123C1051.02 365.901 1046.52 369.683 1042.08 373.462ZM1053.43 347.657C1049.63 355.802 1046.01 364 1042.58 372.243C1047.05 368.438 1051.59 364.63 1056.18 360.826C1059.82 353.111 1063.59 345.424 1067.59 337.804C1062.82 341.083 1058.1 344.368 1053.43 347.657ZM1065.68 322.89C1061.57 330.712 1057.69 338.602 1053.96 346.535C1058.64 343.238 1063.39 339.945 1068.18 336.658C1072.15 329.155 1076.34 321.718 1080.69 314.329C1075.64 317.174 1070.63 320.026 1065.68 322.89ZM1078.88 299.152C1074.47 306.659 1070.26 314.236 1066.23 321.867C1071.2 318.992 1076.24 316.13 1081.31 313.276C1085.55 306.102 1089.95 298.984 1094.54 291.931C1089.27 294.325 1084.05 296.732 1078.88 299.152ZM1092.99 276.444C1088.28 283.638 1083.74 290.899 1079.41 298.231C1084.61 295.801 1089.86 293.383 1095.15 290.981C1099.63 284.125 1104.25 277.315 1109.09 270.589C1103.69 272.525 1098.32 274.475 1092.99 276.444ZM1107.79 254.884C1102.84 261.704 1098.14 268.62 1093.56 275.579C1098.89 273.61 1104.28 271.66 1109.69 269.723C1114.43 263.168 1119.35 256.678 1124.46 250.266C1118.87 251.788 1113.31 253.326 1107.79 254.884ZM983.628 637.647C983.258 642.101 982.91 646.537 982.582 650.954C983.456 642.856 984.381 634.692 985.394 626.454C984.786 630.207 984.207 633.929 983.628 637.647ZM986.56 606.706C985.763 614.175 985.036 621.607 984.375 628.995C985.39 622.664 986.435 616.297 987.541 609.874C988.467 603.035 989.428 596.167 990.481 589.254C989.136 595.108 987.825 600.932 986.56 606.706ZM990.253 575.912C989.123 584.371 988.097 592.795 987.164 601.176C988.67 594.393 990.223 587.563 991.845 580.677C993.091 572.848 994.412 564.983 995.833 557.088C993.924 563.4 992.055 569.687 990.253 575.912ZM993.907 550.804C992.795 557.846 991.762 564.872 990.8 571.877C992.733 565.255 994.723 558.582 996.78 551.866C998.336 543.494 1000.02 535.086 1001.82 526.663C999.432 532.888 997.096 539.089 994.831 545.234C994.519 547.091 994.2 548.95 993.907 550.804ZM314.838 422.634C309.335 416.542 303.76 410.364 298.168 404.163C295.211 403.688 292.232 403.188 289.252 402.685C294.744 408.62 300.218 414.534 305.614 420.353C308.699 421.126 311.781 421.895 314.838 422.634ZM332.104 441.728C326.652 435.707 321.12 429.587 315.568 423.441C312.522 422.707 309.46 421.953 306.387 421.186C311.845 427.069 317.255 432.896 322.619 438.664C325.794 439.703 328.961 440.731 332.104 441.728ZM349.29 460.688C343.868 454.712 338.445 448.733 332.933 442.647C329.804 441.656 326.642 440.624 323.48 439.593C328.913 445.435 334.267 451.179 339.61 456.912C342.871 458.213 346.068 459.433 349.29 460.688ZM366.419 479.547C361.068 473.662 355.668 467.716 350.224 461.717C347.018 460.473 343.827 459.247 340.585 457.957C345.926 463.686 351.23 469.368 356.479 474.984C359.826 476.547 363.113 478.035 366.419 479.547ZM383.46 498.275C378.199 492.503 372.838 486.606 367.473 480.707C364.194 479.211 360.949 477.759 357.628 476.213C362.872 481.822 368.114 487.429 373.257 492.914C376.687 494.737 380.078 496.511 383.46 498.275ZM400.433 516.867C395.217 511.159 389.968 505.412 384.66 499.59C381.311 497.847 377.973 496.12 374.578 494.321C379.777 499.863 384.899 505.31 390.012 510.745C393.511 512.818 396.985 514.858 400.433 516.867ZM417.294 535.288C412.166 529.692 407.022 524.077 401.803 518.367C398.399 516.39 394.993 514.41 391.539 512.371C396.641 517.792 401.675 523.129 406.689 528.44C410.248 530.754 413.788 533.043 417.294 535.288ZM434.011 553.506C429.019 548.074 423.973 542.576 418.885 537.025C415.439 534.824 411.989 532.618 408.492 530.351C413.462 535.616 418.399 540.837 423.277 545.987C426.882 548.527 430.463 551.038 434.011 553.506ZM450.691 571.632C445.819 566.348 440.856 560.95 435.884 555.542C432.419 553.138 428.959 550.74 425.44 548.267C430.277 553.373 435.109 558.471 439.85 563.455C443.481 566.202 447.119 568.959 450.691 571.632ZM467.041 589.33C462.358 584.269 457.627 579.147 452.861 573.981C449.394 571.395 445.856 568.717 442.334 566.06C447.06 571.024 451.751 575.946 456.397 580.81C459.986 583.702 463.51 586.512 467.041 589.33ZM483.213 606.774C478.718 601.934 474.233 597.104 469.662 592.167C466.268 589.466 462.836 586.717 459.389 583.948C463.886 588.651 468.296 593.245 472.718 597.854C476.241 600.858 479.748 603.843 483.213 606.774ZM498.919 623.657C494.777 619.214 490.617 614.746 486.403 610.211C483.189 607.501 479.982 604.799 476.718 602.026C480.89 606.368 484.998 610.63 489.099 614.883C492.409 617.855 495.659 620.75 498.919 623.657ZM513.967 639.777C510.406 635.972 506.794 632.102 503.17 628.215C500.287 625.653 497.347 623.018 494.423 620.405C498.025 624.136 501.592 627.82 505.135 631.476C508.084 634.249 511.059 637.057 513.967 639.777ZM527.233 653.927C524.745 651.278 522.214 648.573 519.699 645.891C517.708 644.035 515.745 642.216 513.735 640.336C516.219 642.892 518.702 645.448 521.153 647.962C523.18 649.95 525.226 651.963 527.233 653.927ZM1002.53 473.393C1000.39 483.005 998.409 492.628 996.611 502.25C999.702 496.586 1002.86 490.879 1006.06 485.143C1008.19 476.048 1010.45 466.953 1012.9 457.874C1009.39 463.07 1005.93 468.252 1002.53 473.393ZM1009.86 443.37C1007.36 452.81 1005.03 462.273 1002.89 471.749C1006.34 466.534 1009.86 461.282 1013.42 456.012C1015.87 447.052 1018.46 438.102 1021.25 429.182C1017.4 433.93 1013.61 438.66 1009.86 443.37ZM1018.28 414.117C1015.41 423.35 1012.73 432.618 1010.24 441.912C1014.04 437.147 1017.87 432.366 1021.78 427.564C1024.55 418.781 1027.51 410.024 1030.66 401.303C1026.48 405.583 1022.35 409.859 1018.28 414.117ZM1027.76 385.812C1024.54 394.772 1021.51 403.777 1018.68 412.818C1022.77 408.538 1026.93 404.241 1031.14 399.94C1034.25 391.36 1037.57 382.821 1041.06 374.325C1036.57 378.157 1032.15 381.987 1027.76 385.812ZM1038.28 358.485C1034.71 367.148 1031.36 375.868 1028.19 384.631C1032.59 380.793 1037.05 376.95 1041.56 373.104C1044.99 364.818 1048.6 356.576 1052.41 348.388C1047.65 351.751 1042.95 355.118 1038.28 358.485ZM1049.8 332.21C1045.9 340.546 1042.23 348.954 1038.73 357.404C1043.42 354.022 1048.15 350.64 1052.93 347.262C1056.66 339.288 1060.54 331.355 1064.65 323.493C1059.65 326.391 1054.71 329.299 1049.8 332.21ZM1062.39 306.963C1058.15 314.981 1054.11 323.067 1050.28 331.214C1055.21 328.29 1060.18 325.371 1065.2 322.461C1069.24 314.782 1073.47 307.164 1077.89 299.611C1072.68 302.051 1067.51 304.501 1062.39 306.963ZM1075.91 282.867C1071.36 290.528 1067 298.258 1062.85 306.06C1068 303.592 1073.19 301.136 1078.42 298.69C1082.75 291.331 1087.28 284.039 1091.99 276.817C1086.59 278.817 1081.24 280.837 1075.91 282.867ZM1090.26 259.917C1085.44 267.207 1080.85 274.583 1076.42 282.017C1081.77 279.982 1087.14 277.956 1092.56 275.949C1097.15 268.954 1101.87 262.007 1106.83 255.151C1101.27 256.722 1095.75 258.312 1090.26 259.917ZM978.783 696.821C978.709 701.367 978.655 705.89 978.616 710.389C978.952 702.193 979.337 693.897 979.783 685.516C979.441 689.304 979.104 693.078 978.783 696.821ZM979.627 664.478C979.339 672.359 979.115 680.185 978.949 687.95C979.52 681.565 980.124 675.114 980.763 668.61C981.234 661.131 981.758 653.59 982.346 645.997C981.405 652.215 980.502 658.373 979.627 664.478ZM981.186 632.028C980.651 640.939 980.21 649.798 979.853 658.591C980.863 651.655 981.923 644.633 983.024 637.557C983.724 629.158 984.502 620.697 985.373 612.187C983.931 618.865 982.54 625.476 981.186 632.028ZM983.554 599.627C982.738 609.047 982.04 618.425 981.449 627.745C982.905 620.76 984.4 613.713 985.96 606.589C986.906 597.737 987.953 588.832 989.114 579.888C987.209 586.528 985.36 593.107 983.554 599.627ZM986.805 567.451C985.685 577.097 984.705 586.712 983.848 596.284C985.736 589.504 987.659 582.674 989.658 575.767C990.77 567.444 991.982 559.089 993.306 550.711C993.431 549.914 993.569 549.114 993.703 548.315C991.345 554.749 989.054 561.125 986.805 567.451ZM991.013 535.604C989.567 545.33 988.277 555.039 987.128 564.72C989.447 558.219 991.805 551.672 994.242 545.061C995.746 535.877 997.377 526.67 999.166 517.449C996.384 523.549 993.681 529.595 991.013 535.604ZM991.708 531C991.589 531.777 991.474 532.552 991.356 533.328C994.076 527.219 996.842 521.068 999.68 514.868C1001.49 505.689 1003.43 496.499 1005.55 487.311C1002.4 492.966 999.307 498.585 996.266 504.17C994.613 513.118 993.082 522.065 991.708 531ZM325.047 425.047C319.407 418.652 313.704 412.179 307.981 405.682C305.032 405.236 302.09 404.796 299.118 404.322C304.736 410.55 310.334 416.755 315.865 422.876C318.939 423.617 322 424.341 325.047 425.047ZM342.663 445.012C337.103 438.719 331.423 432.276 325.754 425.848C322.717 425.147 319.659 424.419 316.594 423.684C322.181 429.868 327.756 436.039 333.24 442.096C336.404 443.097 339.531 444.051 342.663 445.012ZM360.277 464.929C354.701 458.628 349.117 452.316 343.447 445.898C340.326 444.944 337.222 444.008 334.07 443.014C339.619 449.143 345.076 455.157 350.535 461.174C353.792 462.438 357.057 463.713 360.277 464.929ZM377.813 484.73C372.304 478.514 366.753 472.248 361.147 465.913C357.945 464.707 354.707 463.455 351.467 462.202C356.956 468.252 362.394 474.238 367.788 480.17C371.134 481.695 374.509 483.258 377.813 484.73ZM395.225 504.358C389.818 498.27 384.322 492.073 378.812 485.857C375.53 484.398 372.168 482.841 368.843 481.329C374.26 487.287 379.666 493.23 384.981 499.061C388.41 500.844 391.844 502.634 395.225 504.358ZM412.571 523.871C407.227 517.867 401.81 511.771 396.364 505.64C393.009 503.934 389.583 502.14 386.18 500.375C391.541 506.255 396.86 512.083 402.123 517.842C405.625 519.876 409.119 521.901 412.571 523.871ZM429.844 543.254C424.551 537.32 419.252 531.379 413.864 525.326C410.444 523.379 406.961 521.352 403.491 519.341C408.787 525.136 413.999 530.822 419.201 536.499C422.772 538.78 426.329 541.044 429.844 543.254ZM447.009 562.476C441.831 556.685 436.609 550.839 431.333 544.923C427.86 542.745 424.319 540.482 420.792 538.235C425.976 543.89 431.106 549.479 436.194 555.012C439.822 557.529 443.44 560.034 447.009 562.476ZM464.099 581.57C459.039 575.926 453.902 570.185 448.74 564.411C445.226 562.013 441.635 559.516 438.064 557.046C443.171 562.599 448.249 568.12 453.253 573.545C456.911 576.273 460.503 578.92 464.099 581.57ZM480.975 600.375C476.058 594.906 471.048 589.319 466.029 583.721C462.507 581.132 458.953 578.503 455.372 575.838C460.311 581.193 465.24 586.534 470.079 591.762C473.752 594.686 477.364 597.532 480.975 600.375ZM497.772 619.028C492.963 613.694 488.129 608.329 483.233 602.885C479.74 600.143 476.274 597.434 472.723 594.616C477.473 599.743 482.171 604.805 486.838 609.83C490.501 612.919 494.173 616.02 497.772 619.028ZM514.151 637.164C509.605 632.138 505.052 627.104 500.423 621.972C496.988 619.109 493.512 616.194 490.018 613.257C494.614 618.2 499.127 623.036 503.64 627.875C507.189 631.028 510.663 634.088 514.151 637.164ZM530.232 654.913C526.031 650.285 521.801 645.619 517.522 640.891C514.27 638.032 511.006 635.156 507.701 632.229C511.905 636.732 516.046 641.153 520.175 645.559C523.547 648.702 526.916 651.842 530.232 654.913ZM545.452 671.661C541.868 667.726 538.226 663.716 534.573 659.694C531.682 657.025 528.743 654.296 525.81 651.572C529.456 655.459 533.063 659.292 536.648 663.1C539.592 665.966 542.55 668.849 545.452 671.661ZM558.868 686.366C556.407 683.672 553.9 680.92 551.413 678.194C549.433 676.282 547.477 674.404 545.477 672.467C548.044 675.187 550.595 677.886 553.128 680.562C555.054 682.513 556.96 684.438 558.868 686.366ZM997.662 458.839C995.464 468.846 993.462 478.873 991.651 488.911C995.043 483.692 998.464 478.445 1001.96 473.154C1004.09 463.604 1006.41 454.068 1008.92 444.555C1005.12 449.34 1001.36 454.106 997.662 458.839ZM1005.09 428.063C1002.52 437.832 1000.14 447.635 997.962 457.462C1001.69 452.702 1005.47 447.907 1009.3 443.097C1011.78 433.743 1014.46 424.415 1017.33 415.121C1013.2 419.452 1009.13 423.766 1005.09 428.063ZM1013.67 398.195C1010.72 407.698 1007.96 417.245 1005.42 426.828C1009.48 422.505 1013.57 418.168 1017.73 413.811C1020.56 404.717 1023.58 395.659 1026.8 386.646C1022.38 390.504 1018 394.356 1013.67 398.195ZM1023.38 369.338C1020.05 378.532 1016.94 387.779 1014.02 397.072C1018.38 393.214 1022.78 389.343 1027.23 385.466C1030.4 376.657 1033.75 367.889 1037.32 359.179C1032.63 362.568 1027.98 365.956 1023.38 369.338ZM1034.18 341.57C1030.49 350.421 1027.03 359.336 1023.76 368.303C1028.38 364.905 1033.06 361.501 1037.77 358.098C1041.27 349.61 1044.93 341.16 1048.83 332.785C1043.91 335.71 1039.02 338.638 1034.18 341.57ZM1046.01 314.938C1041.98 323.425 1038.2 331.993 1034.59 340.61C1039.45 337.666 1044.36 334.726 1049.31 331.789C1053.15 323.6 1057.2 315.476 1061.45 307.418C1056.26 309.915 1051.12 312.424 1046.01 314.938ZM1058.96 289.42C1054.58 297.555 1050.4 305.761 1046.45 314.04C1051.57 311.523 1056.72 309.012 1061.92 306.512C1066.06 298.681 1070.42 290.92 1074.97 283.228C1069.6 285.28 1064.26 287.344 1058.96 289.42ZM1072.86 265.099C1068.17 272.856 1063.67 280.683 1059.4 288.591C1064.72 286.508 1070.08 284.437 1075.47 282.379C1079.9 274.92 1084.49 267.514 1089.31 260.199C1083.79 261.816 1078.31 263.452 1072.86 265.099ZM977.705 758.138C977.921 763.02 978.151 767.871 978.395 772.687C978.23 763.917 978.1 755.01 978.022 745.98C977.909 750.064 977.803 754.118 977.705 758.138ZM976.515 724.634C976.733 732.873 977.006 741.037 977.326 749.118C977.506 742.392 977.707 735.581 977.938 728.691C977.931 721.021 977.968 713.272 978.055 705.453C977.52 711.914 977.004 718.325 976.515 724.634ZM975.959 690.817C976.014 700.209 976.156 709.521 976.369 718.747C976.94 711.516 977.536 704.196 978.173 696.776C978.316 687.969 978.528 679.075 978.822 670.11C977.835 677.097 976.882 684.003 975.959 690.817ZM976.154 656.855C975.978 666.782 975.912 676.642 975.941 686.421C976.927 679.192 977.955 671.845 979.018 664.428C979.359 655.07 979.794 645.635 980.334 636.137C978.9 643.13 977.512 650.03 976.154 656.855ZM977.195 622.925C976.745 633.134 976.425 643.292 976.22 653.381C977.628 646.331 979.086 639.168 980.579 631.945C981.158 622.296 981.848 612.585 982.665 602.824C980.797 609.604 978.98 616.298 977.195 622.925ZM979.167 589.195C978.408 599.538 977.798 609.845 977.322 620.099C979.151 613.322 981.029 606.451 982.95 599.516C983.799 589.718 984.778 579.87 985.9 569.991C983.607 576.459 981.367 582.86 979.167 589.195ZM982.148 555.775C981.055 566.146 980.125 576.496 979.346 586.811C981.583 580.383 983.873 573.872 986.206 567.309C987.349 557.461 988.641 547.581 990.09 537.684C987.396 543.767 984.747 549.804 982.148 555.775ZM986.188 522.846C984.74 533.157 983.469 543.461 982.364 553.746C984.996 547.707 987.689 541.59 990.42 535.437C990.645 533.929 990.872 532.419 991.103 530.91C992.384 522.574 993.81 514.228 995.336 505.881C992.241 511.578 989.185 517.242 986.188 522.846ZM987.368 514.684C987.048 516.823 986.736 518.961 986.432 521.099C989.464 515.435 992.547 509.719 995.681 503.962C997.476 494.245 999.446 484.529 1001.59 474.821C998.134 480.07 994.737 485.278 991.377 490.454C989.932 498.528 988.577 506.606 987.368 514.684ZM335.188 427.337C329.436 420.668 323.623 413.927 317.785 407.152C314.845 406.733 311.868 406.27 308.905 405.822C314.658 412.353 320.389 418.858 326.058 425.285C329.119 425.991 332.154 426.665 335.188 427.337ZM353.209 448.222C347.502 441.614 341.677 434.86 335.862 428.118C332.837 427.45 329.818 426.789 326.766 426.088C332.462 432.547 338.17 439.02 343.757 445.345C346.912 446.31 350.087 447.299 353.209 448.222ZM371.116 468.942C365.446 462.387 359.738 455.78 353.968 449.1C350.857 448.183 347.685 447.189 344.541 446.231C350.239 452.68 355.863 459.039 361.463 465.369C364.705 466.589 367.911 467.768 371.116 468.942ZM388.989 489.598C383.356 483.092 377.69 476.545 371.957 469.915C368.766 468.75 365.561 467.565 362.333 466.353C367.987 472.742 373.578 479.053 379.133 485.319C382.458 486.797 385.706 488.175 388.989 489.598ZM406.805 510.163C401.24 503.745 395.597 497.23 389.927 490.681C386.661 489.269 383.417 487.885 380.108 486.419C385.681 492.705 391.23 498.963 396.699 505.12C400.108 506.853 403.441 508.489 406.805 510.163ZM424.547 530.615C419.056 524.291 413.457 517.835 407.854 511.374C404.516 509.716 401.223 508.117 397.837 506.402C403.331 512.587 408.813 518.759 414.2 524.811C417.689 526.797 421.109 528.694 424.547 530.615ZM442.225 550.95C436.764 544.672 431.293 538.383 425.73 531.978C422.322 530.079 418.952 528.229 415.492 526.266C420.949 532.395 426.309 538.405 431.668 544.412C435.23 546.646 438.719 548.787 442.225 550.95ZM459.804 571.137C454.44 564.982 449.04 558.782 443.571 552.496C440.103 550.364 436.678 548.283 433.155 546.081C438.518 552.091 443.813 558.017 449.075 563.901C452.7 566.375 456.24 568.741 459.804 571.137ZM477.364 591.266C472.084 585.221 466.737 579.091 461.349 572.909C457.835 570.553 454.376 568.267 450.803 565.835C456.067 571.721 461.29 577.555 466.449 583.309C470.128 586.014 473.748 588.643 477.364 591.266ZM494.738 611.144C489.587 605.259 484.336 599.248 479.073 593.221C475.522 590.652 471.987 588.103 468.375 585.455C473.515 591.189 478.64 596.902 483.672 602.499C487.392 605.42 491.085 608.308 494.738 611.144ZM512.008 630.852C506.965 625.103 501.857 619.273 496.712 613.396C493.146 610.635 489.563 607.854 485.934 605.011C490.96 610.598 495.957 616.15 500.882 621.611C504.615 624.723 508.344 627.828 512.008 630.852ZM528.982 650.171C524.13 644.654 519.278 639.139 514.332 633.503C510.779 630.58 507.151 627.56 503.534 624.554C508.421 629.969 513.224 635.279 518.018 640.576C521.712 643.824 525.357 647.01 528.982 650.171ZM545.763 669.22C541.138 663.978 536.493 658.709 531.777 653.35C528.324 650.349 524.891 647.371 521.376 644.29C526 649.397 530.543 654.399 535.079 659.393C538.675 662.714 542.231 665.983 545.763 669.22ZM562.11 687.727C557.881 682.947 553.613 678.117 549.3 673.231C546.008 670.222 542.633 667.107 539.283 664.025C543.559 668.727 547.77 673.348 551.963 677.947C555.361 681.226 558.772 684.523 562.11 687.727ZM577.518 705.12C573.905 701.05 570.228 696.897 566.543 692.734C563.671 689.987 560.802 687.243 557.887 684.44C561.575 688.48 565.217 692.458 568.84 696.415C571.756 699.346 574.645 702.245 577.518 705.12ZM591.152 720.46C588.716 717.724 586.233 714.926 583.771 712.157C581.8 710.19 579.825 708.218 577.832 706.225C580.534 709.167 583.199 712.064 585.862 714.957C587.652 716.827 589.378 718.613 591.152 720.46ZM980.215 820.987C980.724 826.134 981.236 831.258 981.763 836.323C981.107 827.225 980.465 817.95 979.856 808.508C979.974 812.708 980.093 816.869 980.215 820.987ZM977.079 786.662C977.791 795.27 978.554 803.771 979.349 812.164C979.154 805.3 978.967 798.325 978.797 791.251C978.33 783.245 977.894 775.133 977.498 766.926C977.347 773.602 977.209 780.184 977.079 786.662ZM974.478 751.685C975.117 761.419 975.829 771.052 976.594 780.574C976.746 773.228 976.909 765.757 977.095 758.169C976.693 749.05 976.346 739.82 976.068 730.491C975.52 737.666 974.992 744.733 974.478 751.685ZM972.552 716.326C973.007 726.775 973.542 737.156 974.183 747.392C974.738 739.917 975.304 732.347 975.903 724.622C975.645 714.885 975.467 705.046 975.381 695.117C974.416 702.287 973.473 709.375 972.552 716.326ZM971.37 681.094C971.588 691.764 971.961 702.333 972.4 712.832C973.359 705.597 974.337 698.257 975.347 690.792C975.288 680.686 975.329 670.489 975.486 660.22C974.096 667.234 972.726 674.185 971.389 680.995L971.37 681.094ZM971.139 645.55C971.073 656.472 971.133 667.343 971.331 678.125C972.705 671.123 974.109 664.004 975.543 656.791C975.726 646.476 976.027 636.09 976.464 625.645C974.684 632.273 972.927 638.848 971.207 645.298L971.139 645.55ZM971.829 610.416C971.445 621.376 971.235 632.289 971.148 643.145C972.928 636.472 974.741 629.69 976.588 622.831C977.048 612.409 977.646 601.933 978.395 591.417C976.174 597.821 973.981 604.172 971.829 610.416ZM973.613 575.48C972.881 586.445 972.321 597.387 971.918 608.284C974.096 601.962 976.31 595.552 978.562 589.07C979.328 578.63 980.246 568.152 981.334 557.65C978.722 563.658 976.149 569.606 973.613 575.48ZM976.472 541.103C975.371 551.978 974.469 562.843 973.725 573.683C976.297 567.73 978.899 561.712 981.55 555.622C982.646 545.232 983.911 534.822 985.354 524.405C982.349 530.03 979.397 535.589 976.472 541.103ZM980.541 507.227C979.052 517.97 977.758 528.721 976.651 539.461C979.597 533.909 982.57 528.313 985.599 522.651C985.975 519.966 986.361 517.281 986.763 514.595C987.902 506.986 989.174 499.376 990.522 491.77C987.154 496.965 983.827 502.12 980.541 507.227ZM985.717 474.203C983.84 484.717 982.212 495.258 980.733 505.799C984.043 500.656 987.401 495.458 990.797 490.227C992.603 480.122 994.599 470.028 996.794 459.955C993.057 464.737 989.367 469.488 985.717 474.203ZM992.246 441.825C989.95 452.148 987.84 462.504 985.968 472.882C989.636 468.146 993.338 463.379 997.093 458.577C999.266 448.691 1001.64 438.829 1004.21 428.999C1000.18 433.296 996.191 437.575 992.246 441.825ZM999.842 410.551C997.167 420.538 994.76 430.582 992.507 440.646C996.47 436.378 1000.49 432.078 1004.54 427.764C1007.08 418.131 1009.83 408.533 1012.79 398.98C1008.42 402.853 1004.12 406.707 999.842 410.551ZM1008.74 380.199C1005.65 389.911 1002.76 399.675 1000.11 409.487C1004.41 405.625 1008.75 401.749 1013.14 397.857C1016.04 388.523 1019.16 379.233 1022.49 369.998C1017.86 373.406 1013.29 376.806 1008.74 380.199ZM1018.85 350.935C1015.37 360.293 1012.11 369.712 1009.08 379.187C1013.64 375.785 1018.22 372.376 1022.86 368.96C1026.13 359.956 1029.59 351.003 1033.27 342.116C1028.43 345.055 1023.62 347.996 1018.85 350.935ZM1029.98 322.9C1026.15 331.864 1022.58 340.911 1019.19 350.005C1023.98 347.056 1028.81 344.106 1033.68 341.156C1037.29 332.504 1041.08 323.904 1045.11 315.382C1040.03 317.882 1034.99 320.389 1029.98 322.9ZM1042.19 296.059C1038 304.638 1034.09 313.314 1030.34 322.039C1035.37 319.518 1040.43 317.001 1045.54 314.49C1049.49 306.175 1053.69 297.939 1058.07 289.768C1052.74 291.855 1047.45 293.952 1042.19 296.059ZM1055.62 270.388C1051.06 278.588 1046.72 286.87 1042.62 295.23C1047.88 293.123 1053.18 291.026 1058.51 288.938C1062.78 281.006 1067.27 273.154 1071.96 265.373C1066.48 267.03 1061.04 268.703 1055.62 270.388ZM345.302 429.553C339.421 422.592 333.475 415.553 327.496 408.472C324.566 408.08 321.64 407.694 318.688 407.275C324.556 414.084 330.39 420.853 336.17 427.553C339.218 428.226 342.282 428.915 345.302 429.553ZM363.603 451.204C357.786 444.326 351.887 437.345 345.96 430.33C342.946 429.696 339.884 429.002 336.844 428.334C342.693 435.115 348.544 441.897 354.285 448.546C357.422 449.47 360.498 450.32 363.603 451.204ZM381.904 472.835C376.079 465.953 370.25 459.064 364.322 452.055C361.227 451.176 358.152 450.322 355.025 449.403C360.829 456.124 366.583 462.781 372.284 469.375C375.51 470.553 378.716 471.705 381.904 472.835ZM400.173 494.411C394.395 487.589 388.579 480.723 382.697 473.772C379.52 472.648 376.337 471.517 373.123 470.347C378.894 477.021 384.59 483.601 390.26 490.15C393.574 491.583 396.902 493.032 400.173 494.411ZM418.388 515.903C412.666 509.155 406.88 502.328 401.05 495.446C397.795 494.078 394.495 492.655 391.197 491.233C396.911 497.831 402.587 504.385 408.195 510.853C411.595 512.539 415.036 514.277 418.388 515.903ZM436.515 537.27C430.866 530.615 425.125 523.847 419.363 517.052C416.03 515.439 412.624 513.735 409.245 512.063C414.892 518.578 420.541 525.092 426.076 531.465C429.56 533.406 433.085 535.397 436.515 537.27ZM454.581 558.537C448.984 551.953 443.332 545.299 437.625 538.577C434.219 536.723 430.721 534.75 427.262 532.828C432.872 539.288 438.412 545.659 443.918 551.988C447.477 554.178 451.079 556.422 454.581 558.537ZM472.584 579.7C467.042 573.19 461.483 566.658 455.833 560.012C452.362 557.92 448.79 555.699 445.262 553.535C450.802 559.903 456.262 566.17 461.697 572.405C465.329 574.841 469.014 577.345 472.584 579.7ZM490.483 600.714C485.033 594.32 479.547 587.881 473.987 581.35C470.458 579.027 466.83 576.578 463.241 574.177C468.719 580.461 474.142 586.676 479.509 592.822C483.196 595.489 486.862 598.131 490.483 600.714ZM508.323 621.626C502.943 615.324 497.509 608.955 492.015 602.512C488.446 599.971 484.848 597.396 481.215 594.774C486.582 600.919 491.919 607.025 497.171 613.027C500.912 615.922 504.653 618.819 508.323 621.626ZM525.986 642.296C520.74 636.161 515.427 629.945 510.068 623.669C506.465 620.922 502.811 618.108 499.141 615.274C504.409 621.292 509.665 627.294 514.816 633.164C518.583 636.264 522.291 639.289 525.986 642.296ZM543.506 662.759C538.421 656.826 533.259 650.796 528.062 644.721C524.451 641.79 520.784 638.788 517.103 635.768C522.22 641.596 527.286 647.361 532.303 653.062C536.072 656.339 539.81 659.577 543.506 662.759ZM560.822 682.944C555.915 677.232 550.922 671.409 545.906 665.558C542.329 662.486 538.735 659.394 535.089 656.232C540.072 661.894 544.961 667.434 549.843 672.966C553.553 676.356 557.184 679.647 560.822 682.944ZM577.929 702.838C573.271 697.428 568.534 691.918 563.778 686.382C560.292 683.232 556.753 680.01 553.201 676.774C557.905 682.101 562.528 687.325 567.135 692.529C570.751 695.988 574.382 699.468 577.929 702.838ZM594.45 722C590.167 717.038 585.837 712.016 581.472 706.95C578.196 703.847 574.882 700.694 571.546 697.513C575.887 702.412 580.162 707.226 584.416 712.014C587.789 715.379 591.138 718.714 594.45 722ZM610.186 740.203C606.506 735.952 602.816 731.687 599.076 727.358C596.246 724.559 593.446 721.798 590.572 718.942C594.329 723.165 598.03 727.316 601.717 731.45C604.576 734.415 607.37 737.295 610.186 740.203ZM623.932 756.064C621.499 753.259 619.091 750.488 616.63 747.649C614.726 745.69 612.788 743.685 610.864 741.7C613.543 744.697 616.17 747.627 618.811 750.574C620.539 752.431 622.221 754.229 623.932 756.064ZM1086.67 242.212C1081.08 243.456 1075.51 244.716 1069.97 245.993C1065.13 253.786 1060.5 261.661 1056.06 269.611C1061.49 267.924 1066.94 266.249 1072.43 264.59C1076.98 257.055 1081.71 249.585 1086.67 242.212ZM1104.59 238.307C1098.89 239.523 1093.22 240.757 1087.58 242.009C1082.61 249.36 1077.89 256.806 1073.33 264.316C1078.81 262.664 1084.31 261.023 1089.85 259.402C1094.56 252.29 1099.49 245.264 1104.59 238.307ZM1122.57 234.554C1116.85 235.719 1111.17 236.905 1105.52 238.107C1100.42 245.035 1095.5 252.037 1090.8 259.119C1096.29 257.516 1101.82 255.931 1107.38 254.361C1112.23 247.677 1117.34 241.089 1122.57 234.554ZM1140.63 230.955C1134.9 232.067 1129.21 233.2 1123.54 234.352C1118.31 240.861 1113.22 247.426 1108.37 254.085C1113.92 252.521 1119.51 250.978 1125.13 249.453C1130.13 243.217 1135.3 237.053 1140.63 230.955ZM1158.68 227.542C1152.99 228.59 1147.33 229.657 1141.71 230.745C1136.38 236.813 1131.23 242.951 1126.24 249.155C1131.75 247.663 1137.3 246.19 1142.89 244.736C1147.97 238.931 1153.25 233.206 1158.68 227.542ZM1176.89 224.29C1171.17 225.285 1165.47 226.301 1159.81 227.34C1154.39 232.979 1149.09 238.67 1144 244.448C1149.6 242.995 1155.23 241.562 1160.91 240.152C1166.08 234.8 1171.4 229.506 1176.89 224.29ZM1195.26 221.2C1189.48 222.143 1183.74 223.109 1178.03 224.097C1172.55 229.278 1167.25 234.538 1162.1 239.856C1167.7 238.47 1173.33 237.105 1179.01 235.763C1184.28 230.847 1189.69 225.989 1195.26 221.2ZM1213.66 218.302C1207.9 219.18 1202.17 220.082 1196.47 221.008C1190.93 225.759 1185.54 230.58 1180.29 235.458C1185.89 234.14 1191.52 232.842 1197.2 231.571C1202.56 227.091 1208.04 222.664 1213.66 218.302ZM1232.11 215.594C1226.36 216.408 1220.65 217.246 1214.96 218.108C1209.37 222.43 1203.91 226.815 1198.59 231.255C1204.18 230.009 1209.81 228.789 1215.48 227.592C1220.91 223.539 1226.45 219.537 1232.11 215.594ZM1250.61 213.081C1244.88 213.829 1239.18 214.603 1233.52 215.399C1227.88 219.306 1222.37 223.27 1216.97 227.286C1222.55 226.113 1228.18 224.966 1233.84 223.843C1239.33 220.206 1244.91 216.616 1250.61 213.081ZM1269.17 210.764C1263.46 211.446 1257.79 212.153 1252.15 212.884C1246.49 216.378 1240.94 219.926 1235.49 223.522C1241.07 222.425 1246.68 221.352 1252.33 220.305C1257.84 217.077 1263.45 213.896 1269.17 210.764ZM1287.77 208.647C1282.1 209.261 1276.46 209.902 1270.86 210.565C1265.2 213.651 1259.64 216.787 1254.18 219.968C1259.73 218.947 1265.32 217.951 1270.94 216.983C1276.47 214.161 1282.07 211.38 1287.77 208.647ZM1306.41 206.734C1300.79 207.279 1295.21 207.851 1289.66 208.446C1284.04 211.127 1278.5 213.854 1273.05 216.623C1278.56 215.683 1284.1 214.77 1289.69 213.881C1295.18 211.458 1300.75 209.074 1306.41 206.734ZM1325.04 205.027C1319.51 205.503 1314.02 206.005 1308.55 206.529C1303 208.81 1297.53 211.132 1292.14 213.494C1297.57 212.64 1303.04 211.813 1308.54 211.01C1313.97 208.977 1319.47 206.982 1325.04 205.027ZM1343.55 203.534C1338.17 203.938 1332.83 204.369 1327.51 204.818C1322.09 206.704 1316.74 208.625 1311.46 210.583C1316.74 209.824 1322.07 209.092 1327.42 208.381C1332.73 206.731 1338.11 205.116 1343.55 203.534ZM1361.73 202.263C1356.61 202.593 1351.53 202.951 1346.47 203.321C1341.26 204.819 1336.1 206.341 1331.01 207.902C1336.07 207.242 1341.18 206.613 1346.31 205.999C1351.41 204.727 1356.53 203.475 1361.73 202.263ZM1379.89 201.184C1375.09 201.443 1370.34 201.731 1365.6 202.026C1360.87 203.112 1356.19 204.229 1351.55 205.364C1356.18 204.827 1360.85 204.323 1365.53 203.825C1370.28 202.92 1375.07 202.043 1379.89 201.184ZM1396.58 200.354C1392.61 200.53 1388.69 200.741 1384.76 200.942C1380.86 201.62 1376.97 202.307 1373.12 203.018C1377 202.624 1380.92 202.259 1384.83 201.894C1388.73 201.369 1392.64 200.85 1396.58 200.354ZM1407.48 199.934C1406.35 199.977 1405.22 200.018 1404.1 200.063C1402.76 200.224 1401.42 200.386 1400.08 200.551C1402.54 200.343 1405 200.129 1407.48 199.934ZM134.127 365.551C132.76 365.299 131.386 365.041 130.016 364.785C132.843 365.617 135.67 366.447 138.483 367.261C137.044 366.706 135.572 366.113 134.127 365.551ZM144.19 367.369C141.9 366.963 139.617 366.564 137.316 366.146C140.073 367.21 142.791 368.231 145.531 369.277C147.753 369.906 149.954 370.511 152.166 371.128C149.531 369.903 146.843 368.615 144.19 367.369ZM154.213 369.121C151.646 368.684 149.054 368.22 146.472 367.767C149.611 369.238 152.765 370.725 155.876 372.164C158.529 372.897 161.178 373.626 163.812 374.339C160.64 372.632 157.413 370.861 154.213 369.121ZM164.12 370.757C161.445 370.32 158.786 369.901 156.096 369.447C159.499 371.294 162.952 373.2 166.319 375.005C169.144 375.763 171.96 376.511 174.765 377.247C171.245 375.117 167.676 372.928 164.12 370.757ZM174.065 372.36C171.298 371.928 168.508 371.47 165.725 371.019C169.435 373.281 173.179 375.586 176.846 377.799C179.734 378.553 182.595 379.274 185.463 380.003C181.691 377.489 177.876 374.922 174.065 372.36ZM183.918 373.852C181.112 373.434 178.303 373.012 175.479 372.574C179.399 375.207 183.341 377.867 187.216 380.445C190.164 381.191 193.124 381.949 196.05 382.67C192.036 379.767 187.979 376.811 183.918 373.852ZM193.758 375.283C190.923 374.881 188.082 374.473 185.229 374.051C189.376 377.07 193.535 380.107 197.631 383.065C200.591 383.79 203.506 384.462 206.444 385.162C202.248 381.908 198.006 378.599 193.758 375.283ZM203.586 376.656C200.728 376.271 197.844 375.858 194.968 375.453C199.285 378.82 203.611 382.2 207.872 385.501C210.864 386.21 213.866 386.93 216.836 387.613C212.456 384.005 208.022 380.332 203.586 376.656ZM213.321 377.916C210.462 377.551 207.615 377.201 204.737 376.817C209.223 380.532 213.721 384.263 218.146 387.906C221.135 388.589 224.099 389.244 227.065 389.902C222.532 385.966 217.915 381.927 213.321 377.916ZM223.057 379.134C220.183 378.789 217.287 378.419 214.395 378.053C219.05 382.117 223.715 386.192 228.308 390.18C231.325 390.845 234.329 391.496 237.321 392.135C232.585 387.825 227.857 383.523 223.057 379.134ZM232.746 380.257C229.866 379.932 226.977 379.598 224.078 379.253C228.927 383.686 233.703 388.03 238.483 392.378C241.493 393.017 244.501 393.654 247.488 394.265C242.611 389.641 237.708 384.984 232.746 380.257ZM242.415 381.309C239.531 381.005 236.644 380.698 233.741 380.373C238.74 385.135 243.692 389.84 248.607 394.5C251.612 395.113 254.585 395.686 257.567 396.272C252.573 391.353 247.487 386.323 242.415 381.309ZM252.065 382.312C249.184 382.03 246.271 381.712 243.371 381.408C248.476 386.455 253.604 391.528 258.631 396.48C261.645 397.069 264.673 397.676 267.662 398.238C262.51 392.986 257.292 387.654 252.065 382.312ZM261.63 383.194C258.754 382.933 255.885 382.68 252.991 382.398C258.252 387.776 263.497 393.134 268.687 398.423C271.689 398.984 274.66 399.505 277.64 400.038C272.334 394.461 267.006 388.857 261.63 383.194ZM271.187 384.029C268.314 383.791 265.429 383.537 262.538 383.277C267.948 388.977 273.3 394.606 278.64 400.219C281.637 400.754 284.63 401.281 287.604 401.788C282.162 395.906 276.709 390.011 271.187 384.029ZM280.709 384.791C277.841 384.575 274.956 384.338 272.07 384.1C277.623 390.114 283.103 396.04 288.57 401.948C291.559 402.455 294.54 402.952 297.506 403.43C291.943 397.261 286.368 391.077 280.709 384.791ZM290.177 385.46C287.315 385.265 284.46 385.077 281.58 384.861C287.268 391.178 292.869 397.391 298.457 403.587C301.437 404.066 304.391 404.513 307.348 404.964C301.665 398.512 295.97 392.046 290.177 385.46ZM299.634 386.082C296.779 385.909 293.903 385.712 291.03 385.518C296.848 392.132 302.566 398.625 308.273 405.103C311.243 405.554 314.231 406.024 317.178 406.447C311.374 399.713 305.552 392.957 299.634 386.082ZM309.038 386.607C306.191 386.458 303.337 386.3 300.472 386.128C306.41 393.025 312.257 399.813 318.081 406.57C321.04 406.992 323.966 407.375 326.902 407.769C320.991 400.769 315.05 393.731 309.038 386.607ZM976.521 814.279C977.731 824.393 978.997 834.376 980.304 844.214L980.088 837.076C979.929 831.815 979.767 826.475 979.608 821.066C978.685 811.689 977.794 802.189 976.961 792.547L976.892 796.02C976.769 802.21 976.647 808.298 976.521 814.279ZM972.525 777.902C973.609 788.731 974.763 799.46 976 810.014C976.095 805.406 976.188 800.738 976.282 796.008L976.468 786.723C975.627 776.619 974.857 766.358 974.157 755.997L974.132 756.342C973.591 763.667 973.06 770.857 972.525 777.902ZM969.204 741.449C970.087 752.554 971.105 763.52 972.177 774.397C972.624 768.463 973.07 762.429 973.523 756.299L973.863 751.711C973.178 741.203 972.582 730.57 972.086 719.838C971.114 727.177 970.158 734.386 969.204 741.449ZM966.752 704.504C967.38 715.918 968.122 727.258 968.99 738.474C969.894 731.75 970.802 724.897 971.724 717.927L971.935 716.342C971.462 705.615 971.069 694.804 970.82 683.898C969.447 690.886 968.096 697.761 966.752 704.504ZM965.176 667.836C965.509 679.323 966.006 690.734 966.613 702.067C967.978 695.2 969.352 688.203 970.749 681.087C970.524 670.117 970.457 659.042 970.507 647.922C968.709 654.668 966.935 661.31 965.176 667.836ZM964.655 631.186C964.655 642.733 964.815 654.236 965.127 665.668C966.905 659.062 968.697 652.342 970.516 645.515C970.582 634.559 970.751 623.553 971.115 612.491C968.936 618.814 966.786 625.051 964.655 631.186ZM965.19 594.957C964.831 606.455 964.665 617.92 964.648 629.34C966.77 623.224 968.91 617.014 971.081 610.714L971.203 610.357C971.589 599.343 972.151 588.278 972.874 577.192L972.596 577.834C970.099 583.616 967.634 589.326 965.19 594.957ZM966.932 559.081C966.186 570.497 965.627 581.904 965.254 593.277C967.494 588.113 969.753 582.883 972.036 577.593L972.986 575.396C973.714 564.493 974.578 553.564 975.664 542.625L973.839 546.066C971.517 550.446 969.216 554.785 966.932 559.081ZM969.81 523.917C968.67 535.148 967.772 546.384 967.023 557.606C969.1 553.698 971.191 549.755 973.298 545.779L975.843 540.983C976.938 530.161 978.238 519.327 979.721 508.502C978.194 510.877 976.664 513.256 975.152 515.609L969.81 523.917ZM974.061 489.282C972.494 500.356 971.111 511.45 969.965 522.547L974.638 515.279L979.913 507.074C981.38 496.487 982.974 485.898 984.838 475.336C981.95 479.07 979.077 482.786 976.234 486.469L974.061 489.282ZM979.445 455.656C977.475 466.428 975.777 477.24 974.232 488.062L975.751 486.096C978.835 482.102 981.953 478.068 985.089 474.015C986.954 463.577 989.07 453.162 991.363 442.777C987.352 447.101 983.382 451.393 979.445 455.656ZM986.237 422.822C983.821 433.36 981.596 443.939 979.633 454.555C983.596 450.265 987.587 445.949 991.624 441.599C993.872 431.482 996.284 421.387 998.958 411.346C994.683 415.19 990.439 419.018 986.237 422.822ZM994.28 391.054C991.454 401.244 988.856 411.489 986.485 421.777C990.695 417.966 994.945 414.133 999.229 410.282C1001.87 400.44 1004.73 390.64 1007.81 380.898C1003.27 384.294 998.751 387.681 994.28 391.054ZM1003.46 360.474C1000.24 370.282 997.31 380.167 994.543 390.09C999.039 386.701 1003.57 383.298 1008.14 379.885C1011.17 370.369 1014.44 360.91 1017.91 351.512C1013.06 354.503 1008.25 357.492 1003.46 360.474ZM1013.96 330.998C1010.32 340.457 1006.91 349.986 1003.74 359.58C1008.55 356.585 1013.38 353.585 1018.26 350.581C1021.65 341.448 1025.22 332.365 1029.06 323.364C1023.99 325.906 1018.96 328.452 1013.96 330.998ZM1025.69 302.742C1021.67 311.8 1017.87 320.931 1014.31 330.137C1019.31 327.59 1024.35 325.045 1029.41 322.503C1033.16 313.755 1037.04 305.048 1041.22 296.445C1036.01 298.537 1030.84 300.637 1025.69 302.742ZM1038.46 275.796C1034.11 284.429 1029.97 293.142 1026.06 301.93C1031.22 299.818 1036.42 297.713 1041.65 295.617C1045.75 287.227 1050.09 278.917 1054.66 270.689C1049.23 272.38 1043.83 274.081 1038.46 275.796ZM1052.24 250.15C1047.55 258.358 1043.09 266.656 1038.85 275.032C1044.23 273.313 1049.65 271.606 1055.1 269.911C1059.53 261.936 1064.16 254.034 1069.01 246.214C1063.39 247.511 1057.8 248.823 1052.24 250.15ZM336.616 409.039L318.408 387.065C315.569 386.936 312.729 386.804 309.874 386.655C315.908 393.805 321.87 400.867 327.802 407.892C330.749 408.285 333.692 408.673 336.616 409.039ZM355.304 431.587C349.307 424.352 343.29 417.095 337.187 409.73C334.269 409.366 331.336 408.986 328.395 408.594C334.4 415.706 340.37 422.775 346.28 429.767C349.314 430.405 352.298 430.983 355.304 431.587ZM373.998 454.131C368.025 446.93 362.012 439.678 355.933 432.346C352.934 431.744 349.951 431.164 346.924 430.53C352.878 437.575 358.811 444.597 364.651 451.503C367.775 452.389 370.907 453.287 373.998 454.131ZM392.624 476.585C386.697 469.442 380.715 462.231 374.682 454.956C371.6 454.117 368.485 453.234 365.37 452.353C371.326 459.396 377.182 466.316 383.034 473.231C386.243 474.365 389.453 475.499 392.624 476.585ZM411.194 498.96C405.318 491.883 399.378 484.725 393.394 477.513C390.233 476.433 387.024 475.293 383.826 474.167C389.742 481.156 395.587 488.057 401.396 494.915C404.689 496.299 407.944 497.631 411.194 498.96ZM429.73 521.282C423.897 514.261 417.989 507.144 412.043 499.982C408.805 498.663 405.553 497.323 402.273 495.95C408.142 502.877 413.961 509.743 419.719 516.534C423.095 518.166 426.402 519.711 429.73 521.282ZM448.221 543.536C442.438 536.578 436.57 529.515 430.67 522.412C427.358 520.853 424.052 519.302 420.693 517.682C426.506 524.537 432.291 531.357 437.991 538.071C441.448 539.952 444.818 541.722 448.221 543.536ZM466.66 565.708C460.916 558.803 455.127 551.842 449.268 544.795C445.884 542.996 442.518 541.22 439.081 539.355C444.841 546.139 450.562 552.875 456.206 559.515C459.742 561.645 463.183 563.653 466.66 565.708ZM485.035 587.786C479.352 580.959 473.633 574.09 467.833 567.118C464.379 565.082 460.942 563.068 457.432 560.959C463.147 567.68 468.764 574.28 474.366 580.862C477.974 583.236 481.49 585.492 485.035 587.786ZM503.478 609.923C497.826 603.141 492.13 596.306 486.36 589.376C482.845 587.108 479.336 584.847 475.76 582.499C481.402 589.127 486.963 595.654 492.492 602.139C496.173 604.758 499.865 607.392 503.478 609.923ZM521.71 631.785C516.152 625.124 510.546 618.403 504.868 611.591C501.296 609.095 497.659 606.515 494.022 603.934C499.603 610.479 505.115 616.938 510.579 623.338C514.316 626.187 518.045 629.027 521.71 631.785ZM539.802 653.453C534.362 646.942 528.871 640.366 523.313 633.705C519.698 630.993 516.004 628.179 512.321 625.377C517.816 631.812 523.252 638.171 528.629 644.456C532.404 647.52 536.103 650.486 539.802 653.453ZM557.844 675.031C552.498 668.642 547.101 662.187 541.636 655.647C538.004 652.743 534.367 649.83 530.663 646.833C536.003 653.074 541.293 659.251 546.517 665.344C550.323 668.613 554.114 671.862 557.844 675.031ZM575.678 696.33C570.484 690.132 565.24 683.871 559.929 677.524C556.295 674.444 552.62 671.312 548.912 668.137C554.146 674.241 559.337 680.29 564.454 686.246C568.248 689.675 571.962 693.002 575.678 696.33ZM593.411 717.474C588.39 711.491 583.319 705.448 578.183 699.32C574.594 696.114 570.984 692.88 567.321 689.579C572.332 695.408 577.307 701.193 582.206 706.88C585.964 710.442 589.731 714.014 593.411 717.474ZM610.702 738.051C605.967 732.421 601.191 726.74 596.35 720.975C592.86 717.704 589.31 714.355 585.75 710.992C590.514 716.519 595.252 722.014 599.911 727.408C603.541 730.998 607.146 734.555 610.702 738.051ZM627.57 758.085C623.216 752.918 618.834 747.717 614.386 742.431C611.134 739.244 607.89 736.069 604.576 732.801C608.963 737.875 613.336 742.933 617.631 747.889C620.987 751.343 624.278 754.713 627.57 758.085ZM643.574 777.05C639.867 772.662 636.159 768.271 632.382 763.794C629.579 760.933 626.75 758.037 623.901 755.116C627.71 759.507 631.517 763.894 635.255 768.192C638.065 771.192 640.808 774.107 643.574 777.05ZM657.486 793.499C655.097 790.677 652.741 787.898 650.322 785.038C648.537 783.145 646.685 781.165 644.881 779.248C647.529 782.287 650.175 785.322 652.787 788.314C654.365 790.057 655.922 791.773 657.486 793.499ZM544.046 657.583C549.613 664.246 555.107 670.814 560.551 677.321C758.499 845.075 847.544 871.37 898.701 821.756C928.934 792.436 946.002 736.589 964.55 667.805C964.216 656.261 964.051 644.635 964.034 632.969C942.082 696.072 921.938 748.556 891.327 779.118C835.367 834.99 744.535 817.499 544.046 657.583ZM525.398 635.255C531.07 642.051 536.667 648.752 542.215 655.392C743.85 816.664 834.944 834.55 890.898 778.685C921.678 747.953 941.877 694.891 964.028 631.128C964.027 619.646 964.154 608.12 964.495 596.558C939.684 653.657 916.982 702.439 886.543 733.834C824.919 797.391 731.677 789.603 525.398 635.255ZM506.744 612.891C512.508 619.805 518.195 626.622 523.835 633.382C731.089 788.882 824.496 796.951 886.106 733.408C916.726 701.825 939.529 652.539 964.56 594.88C964.917 583.427 965.476 571.936 966.211 560.437C939.806 610.058 915.55 653.729 886.373 684.944C817.673 758.439 721.777 762.744 506.744 612.891ZM488.085 590.495C493.909 597.489 499.653 604.382 505.356 611.225C721.234 762.076 817.248 758.002 885.928 684.528C915.279 653.128 939.67 609.041 966.301 558.964C967.036 547.698 967.898 536.418 969.024 525.141C866.375 684.638 792.521 786.392 488.085 590.495ZM469.397 568.044C475.254 575.083 481.023 582.014 486.762 588.906C792.735 786.303 866.211 683.816 969.178 523.772C970.312 512.613 971.697 501.458 973.259 490.32C855.934 642.227 772.032 745.931 469.397 568.044ZM450.696 545.558C456.596 552.654 462.443 559.685 468.225 566.635C772.183 745.77 855.781 641.441 973.43 489.1C974.966 478.226 976.665 467.362 978.631 456.537L976.682 458.647C845.208 601.004 749.889 704.063 450.696 545.558ZM431.98 523.034C437.921 530.185 443.826 537.293 449.65 544.299C749.497 703.577 844.771 600.58 976.235 458.233L978.819 455.437C980.77 444.791 982.963 434.177 985.368 423.607C982.211 426.467 979.069 429.314 975.946 432.145C832.53 562.185 724.288 660.209 431.98 523.034ZM413.251 500.481C419.232 507.686 425.173 514.84 431.041 521.904C723.907 659.72 832.116 561.736 975.538 431.693C978.875 428.667 982.237 425.62 985.616 422.562C987.98 412.231 990.583 401.946 993.405 391.713C986.619 396.833 979.907 401.922 973.259 406.964C818.821 524.094 697.583 615.964 413.251 500.481ZM394.512 477.904C400.528 485.154 406.497 492.346 412.402 499.459C697.211 615.467 818.434 523.62 972.891 406.476C979.744 401.279 986.668 396.029 993.669 390.749C996.431 380.788 999.368 370.867 1002.58 361.023C990.711 368.436 979.032 375.813 967.514 383.092C803.392 486.829 669.477 571.457 394.512 477.904ZM375.701 455.227C381.769 462.544 387.783 469.793 393.743 476.977C669.111 570.95 803.031 486.335 967.189 382.575C978.902 375.172 990.782 367.669 1002.86 360.129C1006.03 350.513 1009.4 340.954 1013.04 331.474C993.97 341.205 975.369 350.942 957.07 360.523C785.185 450.531 639.451 526.793 375.701 455.227ZM356.886 432.538C362.988 439.898 369.021 447.174 375.016 454.402C639.104 526.293 784.852 450.017 956.788 359.983C975.288 350.295 994.095 340.45 1013.38 330.612C1016.94 321.374 1020.74 312.212 1024.76 303.124C995.49 315.116 967.177 327.298 939.398 339.257C762.545 415.391 606.871 482.351 356.886 432.538ZM338.07 409.837L356.258 431.779C606.523 481.833 762.237 414.857 939.156 338.695C967.128 326.653 995.638 314.384 1025.13 302.312C1029.04 293.495 1033.18 284.752 1037.54 276.089C993.614 290.136 951.581 304.884 910.396 319.345C732.748 381.722 570.598 438.619 338.07 409.837ZM319.232 387.101L337.497 409.146C570.256 438.095 732.465 381.174 910.195 318.769C951.562 304.244 993.786 289.429 1037.92 275.326C1042.17 266.926 1046.62 258.603 1051.32 250.37C985.708 266.047 923.763 283.712 863.026 301.047C691.076 350.122 528.644 396.453 319.232 387.101ZM-7.8516 -8C51.6355 63.8277 107.781 131.669 160.764 195.686C216.904 263.521 269.454 327.015 318.702 386.462C528.303 395.915 690.815 349.561 862.859 300.458C923.773 283.073 985.902 265.356 1051.72 249.643C1112.75 143.019 1212.27 51.1319 1369.83 -8H1371.73C1213.68 50.9563 1113.87 142.791 1052.65 249.423C1058.23 248.093 1063.84 246.778 1069.47 245.479C1136.42 137.809 1245.27 46.4389 1418.36 -8H1420.55C1246.83 46.2253 1137.61 137.553 1070.43 245.256C1075.99 243.977 1081.57 242.715 1087.19 241.468C1158.8 135.541 1273.79 46.7871 1456 -2.80388V-2.14726C1274.4 47.3262 1159.64 135.735 1088.09 241.265C1093.74 240.014 1099.42 238.779 1105.13 237.564C1176.36 140.806 1286.5 59.7272 1456 13.1981V13.8517C1287.1 60.2583 1177.21 140.998 1106.06 237.363C1111.73 236.158 1117.43 234.97 1123.17 233.803C1193.71 145.969 1298.88 72.352 1456 28.9508V29.6036C1299.49 72.8779 1194.59 146.159 1124.14 233.601C1129.83 232.447 1135.55 231.311 1141.3 230.198C1210.82 151.015 1310.89 84.6172 1456 44.4025V45.0747C1311.54 85.1575 1211.78 151.214 1142.37 229.995C1148.03 228.903 1153.71 227.834 1159.43 226.784C1227.6 155.928 1322.46 96.4715 1456 59.4883V60.1561C1323.12 97.0023 1228.58 156.125 1160.56 226.582C1166.23 225.544 1171.93 224.529 1177.67 223.536C1244.13 160.688 1333.64 107.886 1456 74.1696V74.8289C1334.29 108.403 1245.1 160.879 1178.8 223.343C1184.54 222.353 1190.32 221.384 1196.13 220.44C1260.5 165.298 1344.54 118.923 1456 88.4948V89.1523C1345.19 119.433 1261.52 165.487 1197.34 220.246C1203.08 219.319 1208.85 218.414 1214.65 217.533C1276.56 169.704 1354.99 129.415 1456 102.274V102.92C1355.65 129.908 1277.63 169.888 1215.95 217.339C1221.68 216.474 1227.44 215.634 1233.23 214.818C1292.3 173.894 1365.02 139.361 1456 115.483V116.137C1365.71 139.857 1293.42 174.076 1234.64 214.622C1240.35 213.823 1246.1 213.048 1251.89 212.297C1307.72 177.837 1374.62 148.689 1456 128.021V128.663C1375.34 149.166 1308.93 178.014 1253.43 212.1C1259.12 211.367 1264.86 210.658 1270.63 209.974C1322.84 181.513 1383.82 157.388 1456 139.848V140.492C1384.59 157.862 1324.14 181.685 1272.32 209.774C1278 209.108 1283.71 208.465 1289.46 207.849C1337.66 184.886 1392.62 165.365 1456 150.831V151.479C1393.44 165.837 1339.09 185.054 1291.35 207.648C1296.99 207.049 1302.67 206.476 1308.38 205.928C1352.19 187.934 1401.03 172.582 1456 160.893V161.539C1401.93 173.046 1353.78 188.094 1310.52 205.724C1316.1 205.195 1321.71 204.693 1327.36 204.215C1366.42 190.628 1409.08 179.002 1456 169.955V170.577C1410.07 179.439 1368.22 190.778 1329.83 204.007C1335.3 203.551 1340.8 203.121 1346.33 202.715C1380.32 192.939 1416.76 184.55 1456 177.889V178.491C1417.88 184.965 1382.42 193.078 1349.26 202.502C1354.64 202.116 1360.05 201.755 1365.5 201.415C1394.07 194.856 1424.18 189.209 1456 184.643V185.268C1425.61 189.632 1396.79 194.988 1369.37 201.178C1374.44 200.874 1379.55 200.592 1384.67 200.33C1407.55 196.352 1431.3 192.922 1456 190.104V190.707C1433.1 193.322 1411.02 196.464 1389.7 200.08C1394.45 199.852 1399.23 199.642 1404.03 199.45C1420.93 197.422 1438.25 195.674 1456 194.219V194.809C1440.86 196.05 1426.02 197.503 1411.51 199.165C1415.43 199.025 1419.38 198.901 1423.34 198.785C1434.07 198.053 1444.97 197.43 1456 196.909V197.53C1450.56 197.786 1445.16 198.064 1439.8 198.373C1445.16 198.268 1450.57 198.192 1456 198.135V198.763C1445 198.879 1434.11 199.089 1423.36 199.401C1410.35 200.288 1397.55 201.329 1384.95 202.502C1371.93 204.255 1359.15 206.171 1346.61 208.234C1333.67 210.929 1321.02 213.796 1308.63 216.82C1295.96 220.507 1283.62 224.38 1271.57 228.402C1259.32 233.119 1247.4 238.009 1235.81 243.054C1223.7 248.993 1211.97 255.116 1200.63 261.401C1188.99 268.588 1177.81 275.962 1166.99 283.475C1155.79 292.057 1145.07 300.816 1134.77 309.71C1124.44 319.542 1114.61 329.535 1105.19 339.626C1095.36 351.191 1086.09 362.897 1077.29 374.674C1068.71 387.327 1060.66 400.072 1053.06 412.839C1045.2 427.457 1037.94 442.125 1031.16 456.75C1024.7 472.331 1018.79 487.896 1013.34 503.343C1007.93 520.814 1003.1 538.178 998.714 555.322C994.724 573.751 991.245 591.984 988.16 609.876C985.454 629.88 983.253 649.544 981.367 668.728C980.079 689.229 979.198 709.273 978.549 728.694C978.566 750.212 978.92 771.105 979.405 791.184C980.612 811.885 982.024 831.882 983.457 850.999H982.71C981.954 844.089 981.206 837.108 980.485 830.005L980.698 837.059C980.832 841.498 980.965 845.883 981.094 850.21L981.2 850.999H980.507L980.485 850.276C979.081 839.888 977.728 829.295 976.429 818.576C976.183 829.791 975.911 840.612 975.56 850.999H974.95C975.344 839.308 975.64 827.065 975.91 814.331C974.619 803.507 973.394 792.533 972.257 781.42C970.316 806.753 968.304 830.133 965.597 851H964.984C967.814 829.19 969.885 804.615 971.91 777.93C970.794 766.82 969.75 755.594 968.826 744.245C963.181 785.842 957.543 822.317 949 851H948.366C957.105 821.725 962.809 784.255 968.586 741.469C967.683 730.073 966.925 718.53 966.269 706.924C953.8 769.299 941.861 820.504 920.073 851H919.321C941.468 820.282 953.457 768.097 966.13 704.495C965.499 693.064 964.956 681.561 964.599 669.971C946.235 737.924 929.178 793.051 899.126 822.196C847.969 871.808 759.233 845.963 562.632 679.81C568.111 686.357 573.515 692.807 578.869 699.195C662.592 773.987 726.442 822.931 775.791 851H774.72C725.985 823.143 663.221 775.092 581.368 702.178C586.674 708.508 591.902 714.737 597.086 720.91C657.113 777.183 706.756 819.937 747.987 851H747.162C706.749 820.524 658.313 778.893 600.009 724.393C605.144 730.506 610.196 736.513 615.209 742.472C659.498 785.875 698.048 821.798 731.666 851H730.875C698.375 822.762 661.286 788.268 618.893 746.849C623.766 752.639 628.576 758.345 633.333 763.985C665.582 796.911 694.745 825.81 721.151 851H720.393C695.487 827.243 668.133 800.19 638.069 769.596C642.545 774.9 646.998 780.174 651.375 785.349C673.843 809.174 694.787 831.011 714.345 851H713.617C696.146 833.149 677.576 813.832 657.802 792.94C661.651 797.486 665.492 802.02 669.269 806.473C683.505 822.11 697.115 836.929 710.159 851H709.411C699.719 840.547 689.724 829.695 679.379 818.383C681.861 821.302 684.303 824.17 686.753 827.049C693.973 835.243 701.02 843.213 707.928 851H706.398C699.725 843.197 692.934 835.238 685.989 827.077C674.741 814.311 663.132 801.074 651.117 787.308C640.437 775.507 629.414 763.26 618.076 750.607C607.413 739.151 596.418 727.265 585.125 714.996C574.571 703.98 563.71 692.569 552.566 680.795C542.174 670.272 531.527 659.422 520.595 648.209C510.39 638.201 499.978 627.928 489.281 617.293C479.306 607.839 469.15 598.154 458.731 588.135C449.033 579.272 439.153 570.181 429.053 560.812C419.62 552.527 409.988 543.995 400.188 535.25C390.783 527.342 381.15 519.15 371.377 510.781C362.132 503.367 352.716 495.74 343.132 487.904C334.413 481.269 325.544 474.447 316.555 467.479C307.558 461.032 298.413 454.403 289.099 447.567C280.847 442.037 272.465 436.349 263.994 430.549C255.439 425.254 246.765 419.816 237.943 414.197C230.138 409.788 222.224 405.249 214.246 400.632C206.151 396.55 197.991 392.391 189.682 388.054C182.284 384.805 174.813 381.468 167.261 378.036C160.023 375.392 152.707 372.656 145.339 369.86C138.293 367.87 131.181 365.806 124.004 363.666C79.6017 355.194 33.05 344.315 -16 330.698V330.065C30.9527 343.102 75.6096 353.623 118.291 361.932C75.8098 349.098 31.1552 333.776 -16 315.657V315.005C33.3252 333.967 79.9252 349.881 124.146 363.069C126.477 363.513 128.787 363.935 131.107 364.367C84.9813 346.356 36.0879 325.13 -16 300.279V299.604C37.2902 325.036 87.2417 346.683 134.296 364.961C136.9 365.44 139.505 365.918 142.095 366.381C92.888 343.194 40.3649 316.11 -16 284.626V283.926C41.2378 315.906 94.5154 343.35 144.376 366.78C147.1 367.262 149.82 367.741 152.527 368.205C100.418 339.82 44.4447 306.862 -16 268.743V268.02C45.1796 306.61 101.776 339.914 154.418 368.535C157.202 369.009 159.963 369.455 162.731 369.91C107.798 336.309 48.4468 297.445 -16 252.669V251.925C49.0783 297.148 108.957 336.34 164.336 370.171C167.182 370.635 170.043 371.116 172.871 371.559C115.138 332.71 52.4303 287.905 -16 236.431V235.668C52.9935 287.574 116.165 332.697 174.287 371.774C177.151 372.221 179.994 372.644 182.841 373.07C122.359 328.965 56.352 278.223 -16 220.058V219.275C56.8799 277.872 123.315 328.934 184.153 373.268C187.04 373.698 189.921 374.12 192.79 374.53C129.566 325.149 60.2705 268.448 -16 203.566V202.764C60.7616 268.072 130.453 325.089 194 374.698C196.901 375.109 199.802 375.522 202.684 375.912C136.736 321.246 64.1692 258.578 -16 186.971V186.151C64.6406 258.187 137.586 321.175 203.837 376.072C206.736 376.463 209.61 376.822 212.491 377.191C143.842 317.238 68.0238 248.598 -16 170.286V169.452C68.4663 248.183 144.634 317.14 213.565 377.329C216.477 377.699 219.393 378.078 222.286 378.426C150.948 313.184 71.8769 238.553 -16 153.524V152.675C72.2988 238.118 151.709 313.072 223.307 378.545C226.218 378.894 229.113 379.226 232.005 379.554C158.008 309.04 75.7009 228.421 -16 136.693V135.83C76.1187 227.982 158.751 308.92 233.001 379.669C235.916 379.998 238.82 380.311 241.716 380.619C165.042 304.809 79.541 218.249 -16 119.801V118.924C79.9423 217.792 165.753 304.667 242.673 380.718C245.584 381.025 248.501 381.34 251.393 381.625C172.054 300.523 83.3582 208.01 -16 102.856V101.967C83.7527 207.544 172.757 300.383 252.328 381.721C255.231 382.005 258.105 382.255 260.99 382.518C179.011 296.143 87.138 197.688 -16 85.8621V84.9613C87.5208 197.207 179.689 295.98 261.897 382.601C264.795 382.864 267.693 383.123 270.573 383.364C185.967 291.727 90.9102 187.317 -16 68.8241V67.9124C91.285 186.823 186.631 291.556 271.457 383.435C274.35 383.675 277.237 383.909 280.112 384.127C192.882 287.229 94.6611 176.884 -16 51.7473V50.827C95.0309 176.386 193.544 287.062 280.982 384.197C283.868 384.415 286.734 384.608 289.601 384.805C199.757 282.652 98.3891 166.392 -16 34.6344V33.7048C98.7533 165.883 200.415 282.484 290.455 384.863C293.333 385.059 296.216 385.26 299.077 385.435C206.635 278.05 102.113 155.863 -16 17.4931V16.5522C102.475 155.348 207.272 277.859 299.916 385.482C302.786 385.655 305.64 385.809 308.493 385.961C213.446 273.333 105.837 145.304 -16 0.319564V-0.628694C106.19 144.775 214.074 273.132 309.329 386.009C312.188 386.159 315.036 386.295 317.878 386.425C268.73 327.101 216.297 263.747 160.292 196.076C107.215 131.943 50.9607 63.9721 -8.64648 -8H-7.8516Z" fill="#A3A3A3" fill-opacity="0.18"/>
</svg>
