<svg width="71" height="71" viewBox="0 0 71 71" fill="none" xmlns="http://www.w3.org/2000/svg">
<g clip-path="url(#clip0_52_7605)">
<path d="M69.5733 35.878C68.9036 35.4258 67.7571 34.6514 62.6458 37.5946C62.8938 30.3574 58.1272 22.3056 54.9595 18.3715C53.1525 16.0713 51.1246 13.9534 48.9049 12.0481C49.6837 10.7774 49.6426 8.3757 52.2272 5.06116C52.8917 4.20775 53.5791 3.32596 53.1977 2.23222C52.3452 -0.198638 46.2415 0.682196 43.7201 1.17762C41.6563 1.73044 39.4626 1.52435 37.5378 0.596744C36.3355 -0.129515 34.847 -0.197052 33.5837 0.417121C32.6084 0.952185 30.3435 2.3722 30.3646 4.00038C30.3787 4.69034 30.784 5.31212 31.4094 5.60367C32.9215 6.38241 33.4946 10.3389 34.8395 12.3791C33.1157 13.7972 31.507 15.3496 30.0284 17.0215C29.9234 17.1382 20.09 28.6066 21.0775 38.0704C16.8981 39.1221 13.3279 41.8318 11.1906 45.5743L10.7946 45.0852C9.91473 43.9963 8.31858 43.827 7.22974 44.7069C7.22879 44.7077 7.22784 44.7085 7.22689 44.7093L1.44186 49.3945C0.353026 50.2741 0.18339 51.8698 1.06311 52.9586C1.06407 52.9599 1.06502 52.961 1.06597 52.9623L14.9114 70.0589C15.7919 71.1474 17.3882 71.3161 18.4767 70.4356C18.4773 70.4351 18.4778 70.4347 18.4784 70.4342L24.2644 65.7493V65.7486C25.3531 64.8673 25.5211 63.2705 24.6398 62.1818C24.6395 62.1815 24.6394 62.1812 24.639 62.1809L24.3296 61.7988C31.7937 59.1644 36.7015 61.5908 41.6205 61.5908C54.195 61.5908 68.191 45.9781 70.242 39.3219C70.8731 37.275 70.2266 36.3195 69.5733 35.878ZM33.2181 3.76797C33.7004 3.3312 34.2326 2.95293 34.8035 2.64092C35.2203 2.41057 35.4884 2.48556 36.553 2.93454C38.9428 4.05809 41.6485 4.31682 44.2079 3.6665C46.2483 3.22038 48.3436 3.07801 50.4256 3.24416C50.3594 3.33151 50.2906 3.4195 50.2262 3.50178C48.8008 5.33289 48.1633 6.32121 46.8092 10.5207C45.4632 9.5633 43.8699 9.01397 42.22 8.9385C40.3027 9.09403 38.4635 9.76718 36.8987 10.8863C35.8118 9.12748 35.3205 5.438 33.2181 3.76797ZM31.917 18.7144C35.9994 14.1614 39.7727 11.5227 42.2684 11.4749L42.3229 11.4743C44.7568 11.4743 48.6365 14.5621 52.9839 19.9616C57.1433 25.1279 61.0468 33.3295 59.9261 39.277C58.2883 40.3474 56.3571 41.701 54.0786 43.4004C53.9185 42.9785 53.6657 42.598 53.3387 42.287C52.1435 41.1419 49.8795 40.6997 46.612 40.9673C45.7217 41.041 44.4394 41.0659 43.0706 41.0377C43.0847 40.9859 43.0955 40.9332 43.1025 40.88V39.7777C48.848 38.6202 49.1545 31.1282 41.9054 30.3916C37.2214 29.916 38.424 25.9903 41.8342 25.9903C42.8949 25.948 43.9104 26.4228 44.5578 27.2642C44.9423 27.8496 45.7286 28.0128 46.3141 27.6283C46.8996 27.2439 47.0627 26.4575 46.6783 25.872C45.8371 24.6659 44.5505 23.8439 43.1025 23.5874V22.4882C43.1025 21.7878 42.5346 21.2199 41.8342 21.2199C41.1338 21.2199 40.5659 21.7878 40.5659 22.4882V23.5905C34.8633 24.7394 34.4998 32.1936 41.6496 32.9152C46.4427 33.403 45.2904 37.3777 41.8342 37.3777C40.7571 37.4254 39.727 36.9337 39.087 36.0661C38.7113 35.4748 37.9272 35.3003 37.336 35.676C36.7518 36.0473 36.5731 36.8182 36.9344 37.4088C37.7682 38.6643 39.0812 39.5219 40.5659 39.7808V40.88C40.5659 40.8966 40.5747 40.9104 40.5754 40.9269C39.2969 40.8695 38.0271 40.6902 36.7827 40.3914C33.727 39.488 33.777 38.9308 30.295 38.1836C28.0993 37.6872 25.8423 37.5171 23.5968 37.6789C22.9525 30.4874 30.0162 20.8345 31.917 18.7144ZM16.8826 68.4623L3.03786 51.3663L8.82257 46.6807L21.2806 62.0623L21.2904 62.0744L22.6692 63.7767L16.8826 68.4623ZM41.5748 59.0541C36.8987 59.0365 31.1914 56.3778 22.6451 59.7183L12.8944 47.6779C16.5102 41.3112 22.0343 39.0062 29.7638 40.6642C32.9646 41.3502 32.7711 41.8505 36.0644 42.8236C39.6039 43.5256 43.2214 43.7514 46.8208 43.4949C50.3346 43.2044 51.354 43.898 51.5831 44.1179C51.6971 44.2158 51.7558 44.363 51.7404 44.5124C51.7076 45.3223 49.3939 47.4794 46.6052 48.6071C44.5962 49.4209 41.4713 49.1285 38.4499 48.8455C35.541 48.5749 32.7952 48.3179 30.7342 48.9774C30.0691 49.197 29.7081 49.9142 29.9277 50.5793C30.1446 51.2361 30.8478 51.5979 31.5083 51.3926C33.0745 50.8903 35.6866 51.135 38.214 51.3715C41.5369 51.6818 44.9751 52.0031 47.5566 50.959C49.3539 50.2181 51.0048 49.1629 52.4319 47.8429C63.8395 38.9763 67.1892 38.0556 67.9626 37.9806C67.4896 42.2109 53.9218 59.0541 41.5748 59.0541Z" fill="#1FA169"/>
</g>
<defs>
<clipPath id="clip0_52_7605">
<rect width="71" height="71" fill="white"/>
</clipPath>
</defs>
</svg>
