<svg width="71" height="71" viewBox="0 0 71 71" fill="none" xmlns="http://www.w3.org/2000/svg">
<path d="M61.7651 45.0331C60.9482 44.2586 59.8749 43.8116 58.7497 43.7775C57.6244 43.7433 56.526 44.1243 55.6636 44.8478L46.2871 52.0355C45.7548 52.4424 45.1658 52.7693 44.5387 53.0056C44.8832 52.3348 45.0493 51.5866 45.0212 50.833C44.993 50.0795 44.7716 49.3458 44.3781 48.7025C43.9846 48.0592 43.4323 47.5279 42.7743 47.1596C42.1162 46.7913 41.3745 46.5985 40.6204 46.5995H29.4801C28.6124 45.5368 27.5423 44.6569 26.3319 44.0111C25.1214 43.3652 23.7948 42.9661 22.4289 42.8371C20.7198 42.6869 19.003 43.0224 17.4761 43.805V40.1846C17.4762 40.0571 17.4511 39.9308 17.4024 39.813C17.3536 39.6952 17.2821 39.5882 17.192 39.498C17.1018 39.4079 16.9948 39.3364 16.877 39.2876C16.7592 39.2389 16.6329 39.2138 16.5054 39.2139H8.75586C8.62836 39.2138 8.5021 39.2389 8.3843 39.2876C8.2665 39.3364 8.15946 39.4079 8.06931 39.498C7.97915 39.5882 7.90765 39.6952 7.8589 39.813C7.81014 39.9308 7.78508 40.0571 7.78516 40.1846V65.4478C7.78508 65.5753 7.81014 65.7016 7.8589 65.8194C7.90765 65.9372 7.97915 66.0442 8.06931 66.1344C8.15946 66.2245 8.2665 66.296 8.3843 66.3448C8.5021 66.3935 8.62836 66.4186 8.75586 66.4185H16.5054C16.6329 66.4186 16.7592 66.3935 16.877 66.3448C16.9948 66.296 17.1018 66.2245 17.192 66.1344C17.2821 66.0442 17.3536 65.9372 17.4024 65.8194C17.4511 65.7016 17.4762 65.5753 17.4761 65.4478V63.4337L33.2886 66.555C36.1312 67.124 39.0661 67.0366 41.8698 66.2995C44.6735 65.5625 47.272 64.1951 49.4672 62.3016L61.6109 51.889C62.1019 51.4678 62.4987 50.948 62.7754 50.3633C63.0522 49.7786 63.2028 49.1422 63.2173 48.4955C63.2319 47.8487 63.1101 47.2062 62.8599 46.6097C62.6097 46.0131 62.2367 45.4759 61.7651 45.0331ZM15.5347 64.4771H9.72656V41.1553H15.5347V64.4771ZM60.3457 50.4169L48.203 60.8284C46.2302 62.5298 43.8951 63.7585 41.3756 64.4209C38.8561 65.0832 36.2186 65.1619 33.6641 64.6507L17.4761 61.4546V46.0948C18.8589 45.0852 20.5625 44.6146 22.2675 44.7713C23.8528 44.9033 26.1825 45.6033 28.2736 48.1809C28.3646 48.2932 28.4795 48.3837 28.6099 48.4459C28.7403 48.5081 28.883 48.5404 29.0275 48.5404H40.6204C41.2721 48.5404 41.8972 48.7993 42.358 49.2601C42.8188 49.7209 43.0777 50.3459 43.0777 50.9977C43.0777 51.6494 42.8188 52.2744 42.358 52.7352C41.8972 53.196 41.2721 53.4549 40.6204 53.4549C40.611 53.4549 40.6027 53.4549 40.5933 53.4549H29.023C28.7656 53.4549 28.5187 53.5572 28.3366 53.7392C28.1546 53.9213 28.0523 54.1682 28.0523 54.4256C28.0523 54.6831 28.1546 54.93 28.3366 55.112C28.5187 55.2941 28.7656 55.3963 29.023 55.3963H42.0848C44.0289 55.3936 45.9187 54.7544 47.4653 53.5764L56.8778 46.3566C57.4161 45.8971 58.115 45.6703 58.8206 45.726C59.5262 45.7818 60.1807 46.1155 60.6402 46.6539C61.0997 47.1922 61.3265 47.8911 61.2708 48.5967C61.215 49.3023 60.8813 49.9568 60.3429 50.4163L60.3457 50.4169Z" fill="#1FA169"/>
<path d="M31.1413 36.8167H35.4679C35.4973 36.8167 35.5255 36.8284 35.5464 36.8492C35.5672 36.87 35.5788 36.8982 35.5788 36.9276V41.2542C35.5788 41.7985 35.7951 42.3205 36.18 42.7054C36.5649 43.0903 37.0869 43.3065 37.6312 43.3065H39.911C40.1805 43.3065 40.4473 43.2534 40.6964 43.1503C40.9454 43.0472 41.1716 42.896 41.3622 42.7054C41.5528 42.5148 41.7039 42.2886 41.8071 42.0396C41.9102 41.7906 41.9633 41.5237 41.9633 41.2542V36.9276C41.9633 36.8982 41.975 36.87 41.9958 36.8492C42.0166 36.8284 42.0448 36.8167 42.0742 36.8167H46.4008C46.9451 36.8167 47.4671 36.6005 47.852 36.2156C48.2369 35.8307 48.4531 35.3087 48.4531 34.7643V32.4846C48.4531 31.9403 48.2369 31.4182 47.852 31.0333C47.4671 30.6485 46.9451 30.4322 46.4008 30.4322H42.0742C42.0448 30.4322 42.0166 30.4205 41.9958 30.3997C41.975 30.3789 41.9633 30.3507 41.9633 30.3213V25.9947C41.9633 25.7252 41.9102 25.4583 41.8071 25.2093C41.7039 24.9603 41.5528 24.7341 41.3622 24.5435C41.1716 24.3529 40.9454 24.2017 40.6964 24.0986C40.4473 23.9955 40.1805 23.9424 39.911 23.9424H37.6301C37.0858 23.9424 36.5637 24.1586 36.1789 24.5435C35.794 24.9284 35.5777 25.4504 35.5777 25.9947V30.3213C35.5777 30.3507 35.566 30.3789 35.5452 30.3997C35.5244 30.4205 35.4962 30.4322 35.4668 30.4322H31.1402C30.5959 30.4322 30.0739 30.6485 29.689 31.0333C29.3041 31.4182 29.0879 31.9403 29.0879 32.4846V34.7643C29.0879 35.0339 29.141 35.3009 29.2442 35.55C29.3474 35.7991 29.4987 36.0254 29.6894 36.216C29.8801 36.4065 30.1065 36.5577 30.3556 36.6608C30.6047 36.7638 30.8717 36.8168 31.1413 36.8167ZM31.0304 32.4851C31.0304 32.4557 31.0421 32.4275 31.0629 32.4067C31.0837 32.3859 31.1119 32.3742 31.1413 32.3742H35.4679C36.0122 32.3742 36.5342 32.158 36.9191 31.7731C37.304 31.3882 37.5202 30.8662 37.5202 30.3218V25.9953C37.5202 25.9659 37.5319 25.9376 37.5527 25.9168C37.5735 25.896 37.6018 25.8843 37.6312 25.8843H39.911C39.9404 25.8843 39.9686 25.896 39.9894 25.9168C40.0102 25.9376 40.0219 25.9659 40.0219 25.9953V30.3218C40.0219 30.8662 40.2381 31.3882 40.623 31.7731C41.0079 32.158 41.5299 32.3742 42.0742 32.3742H46.4008C46.4302 32.3742 46.4584 32.3859 46.4792 32.4067C46.5 32.4275 46.5117 32.4557 46.5117 32.4851V34.7649C46.5117 34.7943 46.5 34.8225 46.4792 34.8433C46.4584 34.8641 46.4302 34.8758 46.4008 34.8758H42.0742C41.5299 34.8758 41.0079 35.0921 40.623 35.4769C40.2381 35.8618 40.0219 36.3839 40.0219 36.9282V41.2547C40.0219 41.2842 40.0102 41.3124 39.9894 41.3332C39.9686 41.354 39.9404 41.3657 39.911 41.3657H37.6301C37.6007 41.3657 37.5724 41.354 37.5516 41.3332C37.5308 41.3124 37.5191 41.2842 37.5191 41.2547V36.9282C37.5191 36.3839 37.3029 35.8618 36.918 35.4769C36.5331 35.0921 36.0111 34.8758 35.4668 34.8758H31.1402C31.1108 34.8758 31.0826 34.8641 31.0618 34.8433C31.041 34.8225 31.0293 34.7943 31.0293 34.7649L31.0304 32.4851Z" fill="#1FA169"/>
<path d="M11.1168 24.3507H15.4434C15.4728 24.3507 15.501 24.3624 15.5218 24.3832C15.5426 24.404 15.5543 24.4322 15.5543 24.4616V28.7882C15.5543 29.3325 15.7705 29.8545 16.1554 30.2394C16.5403 30.6243 17.0623 30.8405 17.6066 30.8405H19.8864C20.1559 30.8405 20.4228 30.7874 20.6718 30.6843C20.9208 30.5812 21.1471 30.43 21.3376 30.2394C21.5282 30.0488 21.6794 29.8226 21.7825 29.5736C21.8857 29.3246 21.9387 29.0577 21.9387 28.7882V24.4616C21.9387 24.4322 21.9504 24.404 21.9712 24.3832C21.992 24.3624 22.0203 24.3507 22.0497 24.3507H26.3762C26.6458 24.3507 26.9126 24.2976 27.1616 24.1945C27.4106 24.0913 27.6369 23.9401 27.8275 23.7496C28.0181 23.559 28.1692 23.3327 28.2724 23.0837C28.3755 22.8347 28.4286 22.5679 28.4286 22.2983V20.0186C28.4286 19.4743 28.2124 18.9522 27.8275 18.5673C27.4426 18.1825 26.9206 17.9662 26.3762 17.9662H22.0497C22.0203 17.9662 21.992 17.9545 21.9712 17.9337C21.9504 17.9129 21.9387 17.8847 21.9387 17.8553V13.5343C21.9387 13.2648 21.8857 12.9979 21.7825 12.7489C21.6794 12.4999 21.5282 12.2736 21.3376 12.0831C21.1471 11.8925 20.9208 11.7413 20.6718 11.6382C20.4228 11.535 20.1559 11.4819 19.8864 11.4819H17.6066C17.0623 11.4819 16.5403 11.6982 16.1554 12.0831C15.7705 12.4679 15.5543 12.99 15.5543 13.5343V17.8608C15.5543 17.8754 15.5514 17.8898 15.5459 17.9033C15.5403 17.9168 15.5321 17.929 15.5218 17.9393C15.5115 17.9496 15.4993 17.9578 15.4858 17.9633C15.4724 17.9689 15.4579 17.9718 15.4434 17.9718H11.1168C10.8473 17.9718 10.5804 18.0249 10.3314 18.128C10.0824 18.2311 9.85615 18.3823 9.66557 18.5729C9.47499 18.7635 9.32382 18.9897 9.22068 19.2387C9.11754 19.4877 9.06445 19.7546 9.06445 20.0241V22.2983C9.06445 22.8427 9.28068 23.3647 9.66557 23.7496C10.0505 24.1345 10.5725 24.3507 11.1168 24.3507ZM11.0059 20.0197C11.0059 19.9903 11.0175 19.962 11.0384 19.9412C11.0592 19.9204 11.0874 19.9087 11.1168 19.9087H15.4434C15.9877 19.9087 16.5097 19.6925 16.8946 19.3076C17.2795 18.9227 17.4957 18.4007 17.4957 17.8564V13.5343C17.4957 13.5049 17.5074 13.4766 17.5282 13.4558C17.549 13.435 17.5772 13.4233 17.6066 13.4233H19.8864C19.9158 13.4233 19.944 13.435 19.9649 13.4558C19.9857 13.4766 19.9973 13.5049 19.9973 13.5343V17.8608C19.9973 18.1304 20.0504 18.3972 20.1536 18.6462C20.2567 18.8952 20.4079 19.1215 20.5985 19.3121C20.789 19.5026 21.0153 19.6538 21.2643 19.757C21.5133 19.8601 21.7802 19.9132 22.0497 19.9132H26.3762C26.4057 19.9132 26.4339 19.9249 26.4547 19.9457C26.4755 19.9665 26.4872 19.9947 26.4872 20.0241V22.2983C26.4872 22.3278 26.4755 22.356 26.4547 22.3768C26.4339 22.3976 26.4057 22.4093 26.3762 22.4093H22.0497C21.7802 22.4093 21.5133 22.4624 21.2643 22.5655C21.0153 22.6686 20.789 22.8198 20.5985 23.0104C20.4079 23.201 20.2567 23.4272 20.1536 23.6762C20.0504 23.9252 19.9973 24.1921 19.9973 24.4616V28.7882C19.9973 28.8176 19.9857 28.8458 19.9649 28.8666C19.944 28.8874 19.9158 28.8991 19.8864 28.8991H17.6066C17.5772 28.8991 17.549 28.8874 17.5282 28.8666C17.5074 28.8458 17.4957 28.8176 17.4957 28.7882V24.4616C17.4957 23.9173 17.2795 23.3953 16.8946 23.0104C16.5097 22.6255 15.9877 22.4093 15.4434 22.4093H11.1168C11.1022 22.4093 11.0878 22.4064 11.0743 22.4008C11.0609 22.3953 11.0487 22.3871 11.0384 22.3768C11.0281 22.3665 11.0199 22.3543 11.0143 22.3408C11.0087 22.3273 11.0059 22.3129 11.0059 22.2983V20.0197Z" fill="#1FA169"/>
<path d="M44.6266 16.9529H48.9531C48.9825 16.9529 49.0108 16.9646 49.0316 16.9854C49.0524 17.0062 49.0641 17.0344 49.0641 17.0638V21.3904C49.0641 21.9347 49.2803 22.4567 49.6652 22.8416C50.0501 23.2265 50.5721 23.4428 51.1164 23.4428H53.3962C53.9405 23.4428 54.4625 23.2265 54.8474 22.8416C55.2323 22.4567 55.4485 21.9347 55.4485 21.3904V17.0638C55.4485 17.0344 55.4602 17.0062 55.481 16.9854C55.5018 16.9646 55.53 16.9529 55.5595 16.9529H59.886C60.1555 16.9529 60.4224 16.8998 60.6714 16.7967C60.9204 16.6935 61.1467 16.5424 61.3372 16.3518C61.5278 16.1612 61.679 15.935 61.7821 15.686C61.8853 15.437 61.9384 15.1701 61.9384 14.9006V12.6208C61.9384 12.0765 61.7221 11.5545 61.3372 11.1696C60.9524 10.7847 60.4303 10.5685 59.886 10.5685H55.5595C55.53 10.5685 55.5018 10.5568 55.481 10.536C55.4602 10.5152 55.4485 10.4869 55.4485 10.4575V6.13096C55.4485 5.58664 55.2323 5.06462 54.8474 4.67973C54.4625 4.29484 53.9405 4.07861 53.3962 4.07861H51.1164C50.5721 4.07861 50.0501 4.29484 49.6652 4.67973C49.2803 5.06462 49.0641 5.58664 49.0641 6.13096V10.4575C49.0641 10.4869 49.0524 10.5152 49.0316 10.536C49.0108 10.5568 48.9825 10.5685 48.9531 10.5685H44.6266C44.357 10.5685 44.0902 10.6215 43.8412 10.7247C43.5922 10.8278 43.3659 10.979 43.1753 11.1696C42.9848 11.3602 42.8336 11.5864 42.7304 11.8354C42.6273 12.0844 42.5742 12.3513 42.5742 12.6208V14.9006C42.5742 15.1701 42.6273 15.437 42.7304 15.686C42.8336 15.935 42.9848 16.1612 43.1753 16.3518C43.3659 16.5424 43.5922 16.6935 43.8412 16.7967C44.0902 16.8998 44.357 16.9529 44.6266 16.9529ZM44.5156 12.6214C44.5156 12.5919 44.5273 12.5637 44.5481 12.5429C44.5689 12.5221 44.5971 12.5104 44.6266 12.5104H48.9531C49.4974 12.5104 50.0195 12.2942 50.4044 11.9093C50.7892 11.5244 51.0055 11.0024 51.0055 10.4581V6.13151C51.0055 6.10209 51.0172 6.07387 51.038 6.05307C51.0588 6.03226 51.087 6.02057 51.1164 6.02057H53.3962C53.4256 6.02057 53.4538 6.03226 53.4746 6.05307C53.4954 6.07387 53.5071 6.10209 53.5071 6.13151V10.4581C53.5071 11.0024 53.7233 11.5244 54.1082 11.9093C54.4931 12.2942 55.0151 12.5104 55.5595 12.5104H59.886C59.9154 12.5104 59.9437 12.5221 59.9645 12.5429C59.9853 12.5637 59.997 12.5919 59.997 12.6214V14.9011C59.997 14.9305 59.9853 14.9588 59.9645 14.9796C59.9437 15.0004 59.9154 15.0121 59.886 15.0121H55.5595C55.0151 15.0121 54.4931 15.2283 54.1082 15.6132C53.7233 15.9981 53.5071 16.5201 53.5071 17.0644V21.391C53.5071 21.4055 53.5042 21.42 53.4987 21.4334C53.4931 21.4469 53.4849 21.4591 53.4746 21.4694C53.4643 21.4797 53.4521 21.4879 53.4386 21.4935C53.4252 21.499 53.4107 21.5019 53.3962 21.5019H51.1164C51.1018 21.5019 51.0874 21.499 51.074 21.4935C51.0605 21.4879 51.0483 21.4797 51.038 21.4694C51.0277 21.4591 51.0195 21.4469 51.0139 21.4334C51.0083 21.42 51.0055 21.4055 51.0055 21.391V17.0644C51.0055 16.5201 50.7892 15.9981 50.4044 15.6132C50.0195 15.2283 49.4974 15.0121 48.9531 15.0121H44.6266C44.5971 15.0121 44.5689 15.0004 44.5481 14.9796C44.5273 14.9588 44.5156 14.9305 44.5156 14.9011V12.6214Z" fill="#1FA169"/>
</svg>
