<svg width="71" height="71" viewBox="0 0 71 71" fill="none" xmlns="http://www.w3.org/2000/svg">
<path d="M59.9063 17.75C58.5898 17.75 57.3029 17.3596 56.2082 16.6282C55.1136 15.8968 54.2605 14.8573 53.7567 13.641C53.2529 12.4247 53.1211 11.0864 53.3779 9.79518C53.6347 8.504 54.2687 7.31797 55.1996 6.38707C56.1305 5.45618 57.3165 4.82223 58.6077 4.5654C59.8989 4.30857 61.2372 4.44038 62.4535 4.94418C63.6698 5.44798 64.7093 6.30112 65.4407 7.39574C66.1721 8.49035 66.5625 9.77727 66.5625 11.0938C66.5606 12.8585 65.8587 14.5504 64.6108 15.7983C63.3629 17.0462 61.671 17.7481 59.9063 17.75ZM59.9063 6.65625C59.0286 6.65625 58.1707 6.91651 57.4409 7.40411C56.7112 7.89171 56.1424 8.58475 55.8065 9.3956C55.4707 10.2064 55.3828 11.0987 55.554 11.9595C55.7252 12.8203 56.1479 13.6109 56.7685 14.2315C57.3891 14.8521 58.1797 15.2748 59.0405 15.446C59.9013 15.6172 60.7936 15.5293 61.6044 15.1935C62.4153 14.8576 63.1083 14.2888 63.5959 13.5591C64.0835 12.8294 64.3438 11.9714 64.3438 11.0938C64.3424 9.91727 63.8745 8.78935 63.0426 7.95745C62.2107 7.12555 61.0827 6.6576 59.9063 6.65625Z" fill="#1FA169"/>
<path d="M11.0938 17.75C9.77727 17.75 8.49035 17.3596 7.39574 16.6282C6.30112 15.8968 5.44798 14.8573 4.94418 13.641C4.44038 12.4247 4.30857 11.0864 4.5654 9.79518C4.82223 8.504 5.45618 7.31797 6.38707 6.38707C7.31797 5.45618 8.504 4.82223 9.79518 4.5654C11.0864 4.30857 12.4247 4.44038 13.641 4.94418C14.8573 5.44798 15.8968 6.30112 16.6282 7.39574C17.3596 8.49035 17.75 9.77727 17.75 11.0938C17.7481 12.8585 17.0462 14.5504 15.7983 15.7983C14.5504 17.0462 12.8585 17.7481 11.0938 17.75ZM11.0938 6.65625C10.2161 6.65625 9.35815 6.91651 8.62841 7.40411C7.89867 7.89171 7.3299 8.58475 6.99404 9.3956C6.65817 10.2064 6.5703 11.0987 6.74152 11.9595C6.91274 12.8203 7.33537 13.6109 7.95597 14.2315C8.57656 14.8521 9.36725 15.2748 10.228 15.446C11.0888 15.6172 11.9811 15.5293 12.7919 15.1935C13.6028 14.8576 14.2958 14.2888 14.7834 13.5591C15.271 12.8294 15.5313 11.9714 15.5313 11.0938C15.5299 9.91727 15.062 8.78935 14.2301 7.95745C13.3982 7.12555 12.2702 6.6576 11.0938 6.65625Z" fill="#1FA169"/>
<path d="M59.9063 66.5625C58.5898 66.5625 57.3029 66.1721 56.2082 65.4407C55.1136 64.7093 54.2605 63.6698 53.7567 62.4535C53.2529 61.2372 53.1211 59.8989 53.3779 58.6077C53.6347 57.3165 54.2687 56.1305 55.1996 55.1996C56.1305 54.2687 57.3165 53.6347 58.6077 53.3779C59.8989 53.1211 61.2372 53.2529 62.4535 53.7567C63.6698 54.2605 64.7093 55.1136 65.4407 56.2082C66.1721 57.3029 66.5625 58.5898 66.5625 59.9063C66.5606 61.671 65.8587 63.3629 64.6108 64.6108C63.3629 65.8587 61.671 66.5606 59.9063 66.5625ZM59.9063 55.4688C59.0286 55.4688 58.1707 55.729 57.4409 56.2166C56.7112 56.7042 56.1424 57.3972 55.8065 58.2081C55.4707 59.0189 55.3828 59.9112 55.554 60.772C55.7252 61.6328 56.1479 62.4234 56.7685 63.044C57.3891 63.6646 58.1797 64.0873 59.0405 64.2585C59.9013 64.4297 60.7936 64.3418 61.6044 64.006C62.4153 63.6701 63.1083 63.1013 63.5959 62.3716C64.0835 61.6419 64.3438 60.7839 64.3438 59.9063C64.3424 58.7298 63.8745 57.6019 63.0426 56.77C62.2107 55.9381 61.0827 55.4701 59.9063 55.4688Z" fill="#1FA169"/>
<path d="M11.0938 66.5625C9.77727 66.5625 8.49035 66.1721 7.39574 65.4407C6.30112 64.7093 5.44798 63.6698 4.94418 62.4535C4.44038 61.2372 4.30857 59.8989 4.5654 58.6077C4.82223 57.3165 5.45618 56.1305 6.38707 55.1996C7.31797 54.2687 8.504 53.6347 9.79518 53.3779C11.0864 53.1211 12.4247 53.2529 13.641 53.7567C14.8573 54.2605 15.8968 55.1136 16.6282 56.2082C17.3596 57.3029 17.75 58.5898 17.75 59.9063C17.7481 61.671 17.0462 63.3629 15.7983 64.6108C14.5504 65.8587 12.8585 66.5606 11.0938 66.5625ZM11.0938 55.4688C10.2161 55.4688 9.35815 55.729 8.62841 56.2166C7.89867 56.7042 7.3299 57.3972 6.99404 58.2081C6.65817 59.0189 6.5703 59.9112 6.74152 60.772C6.91274 61.6328 7.33537 62.4234 7.95597 63.044C8.57656 63.6646 9.36725 64.0873 10.228 64.2585C11.0888 64.4297 11.9811 64.3418 12.7919 64.006C13.6028 63.6701 14.2958 63.1013 14.7834 62.3716C15.271 61.6419 15.5313 60.7839 15.5313 59.9063C15.5299 58.7298 15.062 57.6019 14.2301 56.77C13.3982 55.9381 12.2702 55.4701 11.0938 55.4688Z" fill="#1FA169"/>
<path d="M58.7969 28.8438C58.7919 24.4319 57.0371 20.2022 53.9174 17.0826C50.7978 13.9629 46.5681 12.2081 42.1562 12.2031H28.8438C24.4319 12.2081 20.2022 13.9629 17.0826 17.0826C13.9629 20.2022 12.2081 24.4319 12.2031 28.8438V42.1562C12.2081 46.5681 13.9629 50.7978 17.0826 53.9174C20.2022 57.0371 24.4319 58.7919 28.8438 58.7969H42.1562C46.5681 58.7919 50.7978 57.0371 53.9174 53.9174C57.0371 50.7978 58.7919 46.5681 58.7969 42.1562V28.8438ZM42.1562 14.4219C45.9799 14.4261 49.6457 15.9469 52.3494 18.6506C55.0531 21.3543 56.5739 25.0201 56.5781 28.8438V34.3908L52.0323 34.3912C52.6852 33.1818 52.9007 31.784 52.6422 30.4341C52.3371 28.9486 51.4949 27.6277 50.2769 26.7241C49.0589 25.8205 47.5506 25.3977 46.0404 25.5365C44.5302 25.6753 43.1241 26.366 42.0912 27.4764C41.0583 28.5869 40.4711 30.0392 40.4418 31.5554C40.4415 32.546 40.6886 33.5209 41.1606 34.3917L36.6083 34.3914L36.6088 27.8168C36.6083 27.591 36.5445 27.3698 36.4248 27.1783C36.3051 26.9867 36.1342 26.8326 35.9314 26.7331C35.7286 26.6337 35.502 26.593 35.2773 26.6156C35.0526 26.6383 34.8387 26.7233 34.6598 26.8612C33.7559 27.6704 32.6544 28.2267 31.4666 28.4738C30.4991 28.505 29.5558 28.1673 28.8281 27.5289C28.1003 26.8906 27.6425 25.9995 27.5474 25.0361C27.4523 24.0728 27.7269 23.1093 28.3158 22.3409C28.9046 21.5726 29.7636 21.0569 30.7185 20.8983C31.4053 20.7665 32.1147 20.8175 32.7755 21.0463C33.4364 21.2751 34.0254 21.6736 34.4837 22.2019C34.6508 22.3917 34.873 22.5247 35.1192 22.5823C35.3655 22.6399 35.6235 22.6192 35.8575 22.5231C36.0914 22.427 36.2895 22.2603 36.4242 22.0463C36.559 21.8323 36.6235 21.5815 36.6089 21.3291L36.6098 14.4219H42.1562ZM14.4219 28.8438C14.4261 25.0201 15.9469 21.3543 18.6506 18.6506C21.3543 15.9469 25.0201 14.4261 28.8438 14.4219H34.3911L34.3906 19.3328C33.1451 18.6779 31.7159 18.4597 30.3318 18.7131C28.8305 18.9685 27.4814 19.7821 26.555 20.9908C25.6287 22.1994 25.1937 23.7137 25.3373 25.2297C25.4809 26.7458 26.1925 28.1514 27.3294 29.1646C28.4662 30.1778 29.9442 30.7236 31.4667 30.6925C32.5071 30.6181 33.5122 30.284 34.3901 29.7207L34.3897 34.3912L27.7122 34.3906C27.4637 34.3905 27.2213 34.4672 27.0182 34.6102C26.815 34.7531 26.6609 34.9554 26.5771 35.1893C26.4933 35.4232 26.4839 35.6772 26.55 35.9167C26.6162 36.1562 26.7547 36.3693 26.9467 36.527C27.4765 36.956 27.8798 37.5209 28.1134 38.1613C28.3471 38.8016 28.4024 39.4935 28.2733 40.1628C28.1261 40.9056 27.7624 41.5882 27.228 42.1246C26.6936 42.661 26.0124 43.0273 25.2702 43.1773C24.7029 43.3092 24.1133 43.3127 23.5444 43.1877C22.9756 43.0626 22.4418 42.812 21.9821 42.4543C21.5225 42.0966 21.1485 41.6407 20.8875 41.12C20.6265 40.5993 20.4851 40.0269 20.4736 39.4446C20.4753 38.885 20.6014 38.3329 20.8426 37.8281C21.0838 37.3232 21.4342 36.8783 21.8684 36.5254C22.0643 36.3618 22.2034 36.1403 22.2657 35.8928C22.328 35.6453 22.3103 35.3844 22.2153 35.1475C22.1202 34.9106 21.9526 34.7099 21.7365 34.5741C21.5204 34.4384 21.2668 34.3745 21.0122 34.3916L14.4219 34.3908V28.8438ZM28.8438 56.5781C25.0201 56.5739 21.3543 55.0531 18.6506 52.3494C15.9469 49.6457 14.4261 45.9799 14.4219 42.1562V36.6095L18.9731 36.6099C18.5014 37.4802 18.2545 38.4546 18.2549 39.4446C18.2841 40.9608 18.8714 42.4131 19.9043 43.5236C20.9372 44.634 22.3432 45.3247 23.8534 45.4635C25.3636 45.6023 26.872 45.1795 28.09 44.2759C29.308 43.3723 30.1501 42.0514 30.4553 40.5659C30.7136 39.2162 30.4984 37.8187 29.8459 36.6094L34.3895 36.6097L34.389 43.1183L34.3955 43.21C34.4136 43.4479 34.5019 43.6751 34.6492 43.8627C34.7966 44.0504 34.9963 44.19 35.2231 44.264C35.4499 44.338 35.6936 44.3429 35.9233 44.2782C36.1529 44.2135 36.3581 44.082 36.513 43.9005C36.8878 43.4672 37.3519 43.1201 37.8734 42.8829C38.3949 42.6457 38.9616 42.524 39.5345 42.5262C40.5021 42.4951 41.4453 42.833 42.173 43.4715C42.9007 44.11 43.3585 45.0012 43.4535 45.9647C43.5485 46.9281 43.2736 47.8916 42.6846 48.6599C42.0956 49.4282 41.2365 49.9438 40.2815 50.1023C39.5944 50.2343 38.8847 50.1831 38.2237 49.954C37.5627 49.7248 36.9736 49.3257 36.5157 48.7968C36.3488 48.6065 36.1267 48.4731 35.8804 48.4151C35.6341 48.3572 35.3758 48.3776 35.1416 48.4735C34.9075 48.5694 34.7091 48.7361 34.5742 48.9502C34.4393 49.1643 34.3746 49.4152 34.3892 49.6678L34.3909 56.5781H28.8438ZM56.5781 42.1562C56.5739 45.9799 55.0531 49.6457 52.3494 52.3494C49.6457 55.0531 45.9799 56.5739 42.1562 56.5781H36.6096L36.6083 51.6661C37.8535 52.3219 39.2828 52.5407 40.6671 52.2874C42.1686 52.0325 43.5182 51.2191 44.4449 50.0106C45.3717 48.802 45.8071 47.2877 45.6637 45.7714C45.5204 44.2552 44.8089 42.8493 43.672 41.8358C42.5352 40.8224 41.0571 40.2764 39.5345 40.3074C38.5141 40.3062 37.5091 40.5556 36.6077 41.0338L36.6081 36.6099L43.2905 36.6104C43.5389 36.6105 43.7812 36.5338 43.9843 36.3908C44.1874 36.2479 44.3413 36.0456 44.4251 35.8118C44.5088 35.578 44.5182 35.324 44.452 35.0846C44.3859 34.8452 44.2473 34.6321 44.0554 34.4745C43.621 34.1218 43.2705 33.6769 43.0293 33.172C42.7881 32.6671 42.6621 32.1149 42.6605 31.5554C42.672 30.973 42.8134 30.4006 43.0744 29.8799C43.3354 29.3592 43.7094 28.9033 44.169 28.5456C44.6287 28.1879 45.1625 27.9373 45.7313 27.8123C46.3002 27.6872 46.8898 27.6907 47.4572 27.8226C48.1993 27.9726 48.8805 28.3389 49.4149 28.8754C49.9493 29.4118 50.313 30.0944 50.4602 30.8371C50.5892 31.5064 50.5339 32.1982 50.3004 32.8385C50.0668 33.4789 49.6638 34.0438 49.1342 34.473C48.942 34.6305 48.8031 34.8436 48.7367 35.0831C48.6702 35.3226 48.6795 35.5767 48.7631 35.8108C48.8467 36.0448 49.0007 36.2473 49.2038 36.3904C49.407 36.5336 49.6495 36.6105 49.898 36.6105L56.5781 36.6095V42.1562Z" fill="#1FA169"/>
</svg>
