<svg width="71" height="71" viewBox="0 0 71 71" fill="none" xmlns="http://www.w3.org/2000/svg">
<path d="M63.4445 34.7154L60.1164 31.3872C59.9077 31.1825 59.6266 31.0684 59.3343 31.0698C59.0419 31.0712 58.7619 31.188 58.5552 31.3947C58.3485 31.6014 58.2317 31.8814 58.2303 32.1737C58.2289 32.4661 58.3429 32.7472 58.5477 32.9559L59.982 34.3903H51.0117C50.7175 34.3903 50.4353 34.5072 50.2273 34.7152C50.0192 34.9233 49.9023 35.2055 49.9023 35.4997C49.9023 35.7939 50.0192 36.0761 50.2273 36.2841C50.4353 36.4922 50.7175 36.6091 51.0117 36.6091H59.982L58.5476 38.0435C58.3448 38.2526 58.2324 38.5331 58.2346 38.8244C58.2368 39.1157 58.3535 39.3944 58.5595 39.6004C58.7655 39.8063 59.0442 39.923 59.3355 39.9252C59.6268 39.9274 59.9073 39.815 60.1164 39.6121L63.4445 36.284C63.5475 36.181 63.6293 36.0588 63.685 35.9242C63.7408 35.7896 63.7695 35.6454 63.7695 35.4997C63.7695 35.354 63.7408 35.2098 63.685 35.0752C63.6293 34.9406 63.5475 34.8183 63.4445 34.7154Z" fill="#1FA169"/>
<path d="M56.5158 10.3037H51.8096C51.5154 10.3037 51.2332 10.4206 51.0252 10.6286C50.8171 10.8367 50.7002 11.1189 50.7002 11.4131C50.7002 11.7073 50.8171 11.9895 51.0252 12.1975C51.2332 12.4056 51.5154 12.5225 51.8096 12.5225H53.8375L47.4945 18.8645C47.2909 19.0735 47.1778 19.3542 47.1797 19.6459C47.1816 19.9377 47.2983 20.2169 47.5046 20.4232C47.7109 20.6295 47.9901 20.7462 48.2819 20.7481C48.5736 20.75 48.8543 20.6369 49.0633 20.4333L55.4064 14.091V16.1193C55.4064 16.4135 55.5233 16.6957 55.7313 16.9037C55.9394 17.1118 56.2216 17.2287 56.5158 17.2287C56.81 17.2287 57.0922 17.1118 57.3002 16.9037C57.5083 16.6957 57.6252 16.4135 57.6252 16.1193V11.4131C57.6253 11.2674 57.5966 11.1231 57.5409 10.9884C57.4852 10.8538 57.4035 10.7315 57.3004 10.6285C57.1974 10.5254 57.0751 10.4437 56.9404 10.388C56.8058 10.3323 56.6615 10.3036 56.5158 10.3037Z" fill="#1FA169"/>
<path d="M55.4064 54.8803V56.9086L49.0632 50.5663C48.8546 50.361 48.5734 50.2464 48.2807 50.2476C47.988 50.2487 47.7076 50.3655 47.5007 50.5725C47.2937 50.7794 47.177 51.0598 47.1758 51.3525C47.1746 51.6451 47.2892 51.9264 47.4945 52.135L53.8374 58.4771H51.8096C51.5153 58.4771 51.2332 58.5939 51.0251 58.802C50.8171 59.01 50.7002 59.2922 50.7002 59.5864C50.7002 59.8807 50.8171 60.1628 51.0251 60.3709C51.2332 60.5789 51.5153 60.6958 51.8096 60.6958H56.5157C56.6615 60.6959 56.8057 60.6673 56.9404 60.6115C57.075 60.5558 57.1973 60.4741 57.3004 60.3711C57.4034 60.268 57.4851 60.1457 57.5408 60.0111C57.5966 59.8764 57.6252 59.7321 57.6251 59.5864V54.8803C57.6251 54.5861 57.5082 54.3039 57.3002 54.0959C57.0921 53.8878 56.81 53.7709 56.5157 53.7709C56.2215 53.7709 55.9393 53.8878 55.7313 54.0959C55.5232 54.3039 55.4064 54.5861 55.4064 54.8803Z" fill="#1FA169"/>
<path d="M19.9902 34.3903H11.0199L12.4543 32.9558C12.6594 32.7472 12.7738 32.466 12.7726 32.1734C12.7713 31.8808 12.6546 31.6006 12.4477 31.3937C12.2408 31.1868 11.9605 31.0701 11.668 31.0689C11.3754 31.0676 11.0942 31.182 10.8856 31.3872L7.55743 34.7153C7.45439 34.8183 7.37266 34.9406 7.31689 35.0752C7.26113 35.2097 7.23242 35.354 7.23242 35.4997C7.23242 35.6453 7.26113 35.7896 7.31689 35.9242C7.37266 36.0588 7.45439 36.181 7.55743 36.284L10.8856 39.6122C11.0941 39.8178 11.3755 39.9326 11.6683 39.9315C11.9611 39.9305 12.2417 39.8137 12.4488 39.6066C12.6558 39.3996 12.7726 39.119 12.7736 38.8262C12.7747 38.5333 12.6599 38.252 12.4543 38.0434L11.0199 36.609H19.9902C20.2845 36.609 20.5666 36.4921 20.7747 36.2841C20.9827 36.076 21.0996 35.7939 21.0996 35.4996C21.0996 35.2054 20.9827 34.9232 20.7747 34.7152C20.5666 34.5071 20.2845 34.3903 19.9902 34.3903Z" fill="#1FA169"/>
<path d="M23.5076 18.8645L17.1646 12.5225H19.1925C19.4867 12.5225 19.7689 12.4056 19.977 12.1975C20.185 11.9895 20.3019 11.7073 20.3019 11.4131C20.3019 11.1189 20.185 10.8367 19.977 10.6286C19.7689 10.4206 19.4867 10.3037 19.1925 10.3037H14.4863C14.3406 10.3036 14.1963 10.3323 14.0617 10.388C13.9271 10.4437 13.8047 10.5254 13.7017 10.6285C13.5987 10.7315 13.5169 10.8538 13.4612 10.9884C13.4055 11.1231 13.3769 11.2674 13.377 11.4131V16.1193C13.377 16.4135 13.4938 16.6957 13.7019 16.9037C13.9099 17.1117 14.1921 17.2286 14.4863 17.2286C14.7806 17.2286 15.0627 17.1117 15.2708 16.9037C15.4788 16.6957 15.5957 16.4135 15.5957 16.1193V14.091L21.9389 20.4333C22.1471 20.6404 22.4289 20.7564 22.7226 20.756C23.0163 20.7556 23.2978 20.6388 23.5054 20.4311C23.7131 20.2235 23.8299 19.9419 23.8303 19.6483C23.8307 19.3546 23.7147 19.0728 23.5076 18.8645Z" fill="#1FA169"/>
<path d="M21.9389 50.5665L15.5957 56.9088V54.8805C15.5957 54.5863 15.4788 54.3041 15.2708 54.0961C15.0627 53.888 14.7806 53.7712 14.4863 53.7712C14.1921 53.7712 13.9099 53.888 13.7019 54.0961C13.4938 54.3041 13.377 54.5863 13.377 54.8805V59.5867C13.3769 59.7324 13.4055 59.8767 13.4612 60.0113C13.5169 60.146 13.5987 60.2683 13.7017 60.3713C13.8047 60.4744 13.9271 60.5561 14.0617 60.6118C14.1963 60.6675 14.3406 60.6962 14.4863 60.6961H19.1925C19.4867 60.6961 19.7689 60.5792 19.977 60.3711C20.185 60.1631 20.3019 59.8809 20.3019 59.5867C20.3019 59.2925 20.185 59.0103 19.977 58.8023C19.7689 58.5942 19.4867 58.4773 19.1925 58.4773H17.1646L23.5076 52.1353C23.7132 51.9267 23.828 51.6454 23.827 51.3525C23.826 51.0596 23.7092 50.7791 23.5021 50.572C23.2951 50.3649 23.0145 50.2481 22.7216 50.2471C22.4288 50.2461 22.1474 50.3609 21.9389 50.5665Z" fill="#1FA169"/>
<path d="M35.5 19.3066C34.0738 19.3066 32.6797 18.8837 31.4938 18.0914C30.308 17.299 29.3837 16.1728 28.838 14.8552C28.2922 13.5376 28.1494 12.0877 28.4276 10.6889C28.7059 9.29014 29.3926 8.00527 30.4011 6.9968C31.4096 5.98834 32.6944 5.30156 34.0932 5.02333C35.492 4.74509 36.9419 4.88789 38.2595 5.43367C39.5771 5.97945 40.7033 6.90369 41.4957 8.08952C42.288 9.27536 42.7109 10.6695 42.7109 12.0957C42.7087 14.0075 41.9483 15.8403 40.5965 17.1922C39.2446 18.544 37.4118 19.3044 35.5 19.3066ZM35.5 7.10352C34.5126 7.10352 33.5475 7.39631 32.7265 7.94485C31.9055 8.4934 31.2657 9.27308 30.8878 10.1853C30.51 11.0975 30.4111 12.1012 30.6037 13.0696C30.7964 14.038 31.2718 14.9275 31.97 15.6257C32.6682 16.3239 33.5577 16.7993 34.5261 16.992C35.4945 17.1846 36.4982 17.0857 37.4104 16.7079C38.3226 16.33 39.1023 15.6902 39.6509 14.8692C40.1994 14.0483 40.4922 13.0831 40.4922 12.0957C40.4907 10.7721 39.9643 9.5032 39.0284 8.56729C38.0925 7.63139 36.8236 7.10496 35.5 7.10352Z" fill="#1FA169"/>
<path d="M41.0877 66.5625H29.9138C29.1987 66.55 28.5177 66.2545 28.0201 65.7407C27.5226 65.2269 27.2491 64.5367 27.2596 63.8216V44.999C27.2607 44.8868 27.2197 44.7782 27.1447 44.6946L25.1297 42.5679C24.6629 42.0742 24.4042 41.4197 24.407 40.7403V26.7474C24.3848 25.5627 24.8331 24.4175 25.6537 23.5628C26.4743 22.708 27.6003 22.2135 28.785 22.1875H42.2166C43.4013 22.2135 44.5273 22.708 45.3479 23.5628C46.1685 24.4175 46.6168 25.5627 46.5945 26.7474V40.7403C46.5973 41.4195 46.339 42.0738 45.873 42.5679L43.8547 44.6967C43.7809 44.78 43.7408 44.8877 43.742 44.999V63.8216C43.7525 64.5367 43.479 65.2269 42.9814 65.7407C42.4839 66.2545 41.8029 66.55 41.0877 66.5625ZM28.785 24.4062C28.1887 24.4319 27.6269 24.6926 27.2223 25.1313C26.8177 25.57 26.6032 26.1511 26.6258 26.7474V40.7403C26.6247 40.8519 26.6657 40.9598 26.7406 41.0425L28.7568 43.1713C29.2227 43.6655 29.481 44.3198 29.4783 44.999V63.8216C29.4696 63.948 29.5101 64.0728 29.5912 64.1701C29.6724 64.2674 29.7879 64.3296 29.9138 64.3438H41.0877C41.2136 64.3296 41.3292 64.2674 41.4104 64.1701C41.4915 64.0728 41.532 63.948 41.5233 63.8216V44.999C41.5205 44.3209 41.7779 43.6675 42.2426 43.1735L44.262 41.0425C44.3362 40.9594 44.3768 40.8517 44.3758 40.7403V26.7474C44.3983 26.1511 44.1839 25.57 43.7793 25.1313C43.3747 24.6926 42.8129 24.4319 42.2166 24.4062H28.785Z" fill="#1FA169"/>
</svg>
