<svg width="71" height="71" viewBox="0 0 71 71" fill="none" xmlns="http://www.w3.org/2000/svg">
<path d="M68.3785 33.4599L53.6017 21.2568C53.27 20.9828 52.8107 20.9251 52.4224 21.1081C52.0341 21.2912 51.7856 21.6828 51.7856 22.1121V28.8604C47.9627 29.1489 44.3018 30.3625 41.0469 32.4149V19.2155H47.7031C48.1325 19.2155 48.5241 18.967 48.7071 18.5788C48.8902 18.1894 48.8325 17.7301 48.5585 17.3995L36.3553 2.6215C35.9338 2.11119 35.0662 2.11119 34.6447 2.6215L22.4415 17.3984C22.1675 17.729 22.1098 18.1883 22.2929 18.5776C22.4759 18.9659 22.8675 19.2144 23.2969 19.2144H29.9531V44.03C26.8058 41.8845 23.1571 40.4235 19.2144 39.9043V33.0295C19.2144 32.6001 18.9659 32.2085 18.5776 32.0255C18.1893 31.8436 17.73 31.9012 17.3983 32.1741L2.62145 44.3762C2.3663 44.5869 2.21875 44.9009 2.21875 45.2315C2.21875 45.5621 2.3663 45.876 2.62145 46.0868L17.3983 58.2899C17.7289 58.5629 18.1882 58.6194 18.5776 58.4386C18.9659 58.2556 19.2144 57.8639 19.2144 57.4346V51.1844C25.4191 52.6809 29.9531 58.3188 29.9531 64.7942V67.6719C29.9531 68.2843 30.4501 68.7813 31.0625 68.7813H39.9375C40.5499 68.7813 41.0469 68.2843 41.0469 67.6719V52.3836C41.0469 46.1024 45.6774 40.8739 51.7856 40.0063V46.5184C51.7856 46.9477 52.0341 47.3393 52.4224 47.5224C52.8129 47.7054 53.27 47.6488 53.6017 47.3737L68.3785 35.1706C68.6337 34.9598 68.7812 34.6458 68.7812 34.3152C68.7812 33.9846 68.6337 33.6707 68.3785 33.4599ZM38.8281 66.5626H32.1719V64.7942C32.1719 56.7901 26.1923 49.8909 18.2636 48.7449C17.9408 48.6994 17.6213 48.7926 17.3784 49.0045C17.1354 49.2153 16.9956 49.5214 16.9956 49.8432V55.0805L5.06984 45.2326L16.9956 35.3847V40.8983C16.9956 41.4729 17.4338 41.9522 18.0052 42.0032C29.6813 43.0538 38.8281 53.0648 38.8281 64.7953V66.5626ZM54.0044 44.1632V38.7871C54.0044 38.4832 53.8801 38.1925 53.6594 37.9839C53.4397 37.7743 53.1502 37.6711 52.8395 37.6789C44.9818 38.066 38.827 44.5248 38.827 52.3836V54.6212C37.285 51.201 35.0008 48.1702 32.1708 45.7451V18.1051C32.1708 17.4927 31.6738 16.9957 31.0614 16.9957H25.651L35.4989 5.0699L45.3468 16.9957H39.9364C39.324 16.9957 38.827 17.4927 38.827 18.1051V34.536C38.827 34.9576 39.0666 35.3436 39.4449 35.53C39.8243 35.7175 40.2747 35.6731 40.6098 35.4169C44.2019 32.6734 48.4619 31.1535 52.9272 31.0204C53.5273 31.0026 54.0033 30.5112 54.0033 29.911V24.4651L65.929 34.313L54.0033 44.1609L54.0044 44.1632Z" fill="#1FA169"/>
</svg>
