<svg width="71" height="71" viewBox="0 0 71 71" fill="none" xmlns="http://www.w3.org/2000/svg">
<path d="M14.4219 66.0713H7.76562C7.32444 66.0708 6.90145 65.8953 6.58949 65.5834C6.27752 65.2714 6.10204 64.8484 6.10156 64.4072V54.4229C6.10204 53.9817 6.27752 53.5587 6.58949 53.2467C6.90145 52.9347 7.32444 52.7593 7.76562 52.7588H14.4219C14.8631 52.7593 15.286 52.9347 15.598 53.2467C15.91 53.5587 16.0855 53.9817 16.0859 54.4229V64.4072C16.0855 64.8484 15.91 65.2714 15.598 65.5834C15.286 65.8953 14.8631 66.0708 14.4219 66.0713ZM8.32031 63.8525H13.8672V54.9775H8.32031V63.8525Z" fill="#1FA169"/>
<path d="M26.625 66.0713H19.9688C19.5276 66.0708 19.1046 65.8953 18.7926 65.5834C18.4806 65.2714 18.3052 64.8484 18.3047 64.4072V47.7666C18.3052 47.3254 18.4806 46.9024 18.7926 46.5905C19.1046 46.2785 19.5276 46.103 19.9688 46.1025H26.625C27.0662 46.103 27.4892 46.2785 27.8011 46.5905C28.1131 46.9024 28.2886 47.3254 28.2891 47.7666V64.4072C28.2886 64.8484 28.1131 65.2714 27.8011 65.5834C27.4892 65.8953 27.0662 66.0708 26.625 66.0713ZM20.5234 63.8525H26.0703V48.3213H20.5234V63.8525Z" fill="#1FA169"/>
<path d="M38.8281 66.0713H32.1719C31.7307 66.0708 31.3077 65.8953 30.9957 65.5834C30.6838 65.2714 30.5083 64.8484 30.5078 64.4072V41.1104C30.5083 40.6692 30.6838 40.2462 30.9957 39.9342C31.3077 39.6222 31.7307 39.4468 32.1719 39.4463H38.8281C39.2693 39.4468 39.6923 39.6222 40.0043 39.9342C40.3162 40.2462 40.4917 40.6692 40.4922 41.1104V64.4072C40.4917 64.8484 40.3162 65.2714 40.0043 65.5834C39.6923 65.8953 39.2693 66.0708 38.8281 66.0713ZM32.7266 63.8525H38.2734V41.665H32.7266V63.8525Z" fill="#1FA169"/>
<path d="M51.0312 66.0713H44.375C43.9338 66.0708 43.5108 65.8953 43.1989 65.5834C42.8869 65.2714 42.7114 64.8484 42.7109 64.4072V30.0166C42.7114 29.5754 42.8869 29.1524 43.1989 28.8405C43.5108 28.5285 43.9338 28.353 44.375 28.3525H51.0312C51.4724 28.353 51.8954 28.5285 52.2074 28.8405C52.5194 29.1524 52.6948 29.5754 52.6953 30.0166V64.4072C52.6948 64.8484 52.5194 65.2714 52.2074 65.5834C51.8954 65.8953 51.4724 66.0708 51.0312 66.0713ZM44.9297 63.8525H50.4766V30.5713H44.9297V63.8525Z" fill="#1FA169"/>
<path d="M63.2344 66.0713H56.5781C56.1369 66.0708 55.714 65.8953 55.402 65.5834C55.09 65.2714 54.9145 64.8484 54.9141 64.4072V16.7041C54.9145 16.2629 55.09 15.8399 55.402 15.528C55.714 15.216 56.1369 15.0405 56.5781 15.04H63.2344C63.6756 15.0405 64.0985 15.216 64.4105 15.528C64.7225 15.8399 64.898 16.2629 64.8984 16.7041V64.4072C64.898 64.8484 64.7225 65.2714 64.4105 65.5834C64.0985 65.8953 63.6756 66.0708 63.2344 66.0713ZM57.1328 63.8525H62.6797V17.2588H57.1328V63.8525Z" fill="#1FA169"/>
<path d="M56.8085 5.78781C56.7426 5.51251 56.5746 5.27255 56.3384 5.11651C56.1022 4.96047 55.8155 4.90001 55.5364 4.94738L50.5177 5.87101C50.2309 5.92695 49.9777 6.09379 49.8132 6.33529C49.6487 6.5768 49.5861 6.87346 49.6391 7.16084C49.692 7.44823 49.8562 7.70311 50.096 7.87015C50.3357 8.03718 50.6317 8.10286 50.9196 8.05293L53.4689 7.58388C46.6497 18.7465 37.4782 28.2877 26.5936 35.5425C20.5797 39.5258 14.104 42.7636 7.30897 45.1845C7.17175 45.2334 7.04552 45.3089 6.93747 45.4066C6.82942 45.5044 6.74168 45.6224 6.67926 45.7541C6.61684 45.8857 6.58095 46.0283 6.57366 46.1738C6.56636 46.3193 6.5878 46.4648 6.63674 46.6021C6.68568 46.7393 6.76117 46.8655 6.85889 46.9736C6.95662 47.0816 7.07467 47.1694 7.20631 47.2318C7.47216 47.3578 7.7772 47.3731 8.05433 47.2743C15.0188 44.7929 21.656 41.4744 27.82 37.3918C38.8708 30.0284 48.1989 20.3628 55.1648 9.05722L55.57 11.2581C55.6233 11.5475 55.7894 11.8038 56.0317 11.9707C56.1516 12.0533 56.2867 12.1115 56.4292 12.142C56.5716 12.1724 56.7187 12.1745 56.862 12.1481C57.0052 12.1217 57.1419 12.0674 57.2641 11.9882C57.3864 11.909 57.4919 11.8064 57.5745 11.6865C57.6572 11.5665 57.7154 11.4314 57.7458 11.289C57.7762 11.1465 57.7783 10.9995 57.7519 10.8562C57.6936 10.5389 56.8823 6.1019 56.8085 5.78781Z" fill="#1FA169"/>
</svg>
