<svg width="19" height="24" viewBox="0 0 19 24" fill="none" xmlns="http://www.w3.org/2000/svg">
<path d="M9.24829 0C4.1487 0 0 3.99984 0 8.91633C0 12.4294 1.52572 15.9829 4.41224 19.1929C6.56817 21.5905 8.70475 22.9489 8.79473 23.0056C8.93247 23.0924 9.09044 23.1358 9.24841 23.1358C9.40626 23.1358 9.56423 23.0924 9.70208 23.0056C9.79195 22.9489 11.9289 21.5905 14.0848 19.1931C16.9715 15.9829 18.4974 12.4294 18.4974 8.91633C18.4973 3.99984 14.3481 0 9.24829 0ZM9.24829 21.3552C7.54736 20.1334 1.65815 15.431 1.65815 8.91633C1.65815 4.88122 5.06301 1.59844 9.24829 1.59844C13.4339 1.59844 16.8391 4.88122 16.8391 8.91633C16.8391 15.431 10.9493 20.1334 9.24829 21.3552Z" fill="#1FA169"/>
<path d="M9.24883 5.37601C7.22478 5.37601 5.57812 6.96347 5.57812 8.91486C5.57812 10.8657 7.22478 12.4529 9.24883 12.4529C11.2729 12.4529 12.9194 10.8657 12.9194 8.91486C12.9194 6.96358 11.2728 5.37601 9.24883 5.37601ZM9.24883 10.8544C8.13909 10.8544 7.23628 9.98432 7.23628 8.91486C7.23628 7.84486 8.13909 6.97445 9.24883 6.97445C10.3585 6.97445 11.2613 7.84486 11.2613 8.91486C11.2613 9.98432 10.3585 10.8544 9.24883 10.8544Z" fill="#1FA169"/>
</svg>
