<svg width="1278" height="188" viewBox="0 0 1278 188" fill="none" xmlns="http://www.w3.org/2000/svg">
<g opacity="0.52">
<path d="M-115.897 534.562C-83.6367 569.646 -18.7241 597.77 18.8971 577.766C47.2735 562.642 59.9979 528.233 86.0161 517.195C129.858 498.637 189.864 526.737 241.083 568.349C288.109 605.956 334.761 651.226 375.631 689.468C404.628 715.471 446.805 748.89 451.853 712.606C462.247 650.775 409.184 517.453 384.358 435.878C364.503 364.296 344.502 279.267 371.736 227.25C390.714 191.146 438.917 192.602 485.693 204.463C589.077 230.19 710.308 273.957 810.532 328.499C942.887 399.968 1036.63 511.634 1122.26 579.718C1196.86 636.142 1275.82 672.478 1396.87 574.326C1480.76 505.628 1561.1 390.311 1629.82 279.475C1698.74 167.395 1756.03 59.7954 1798.15 -22.1477" stroke="#A3A3A3" stroke-width="1.0852" stroke-miterlimit="10"/>
<path opacity="0.9783" d="M-128.51 521.61C-96.6566 556.128 -32.2105 583.229 5.57975 562.888C34.2515 547.413 47.5023 512.902 73.88 501.72C117.386 483.207 178.77 509.637 230.404 551.647C277.141 589.077 322.428 632.908 363.617 669.22C393.5 694.64 433.984 723.548 438.786 687.502C448.633 625.384 397.345 497.232 373.26 416.213C356.285 354.168 342.127 287.907 355.057 236.392C357.171 228.047 360.152 220.845 363.741 214.807C384.103 180.376 432.073 182.423 478.475 194.355C581.678 220.398 701.919 263.064 802.854 314.604C936.552 382.411 1033.59 489.893 1120.61 558.488C1197.44 616.197 1277.22 656.206 1398.25 562.721C1482.31 497.049 1563.72 380.947 1633.77 268.524C1703.97 154.855 1762.82 44.8658 1805.39 -37.3403" stroke="#A3A3A3" stroke-width="1.0852" stroke-miterlimit="10"/>
<path opacity="0.9565" d="M-141.132 508.634C-106.259 539.781 -48.3204 569.976 -7.95143 547.796C20.9878 532.11 34.8165 497.423 61.5515 486.102C105.77 467.3 167.556 493.166 219.524 534.645C266.66 571.759 310.461 613.24 351.419 648.785C381.109 673.761 420.875 698.23 425.454 662.579C434.8 600.288 385.449 477.172 362.17 396.759C346.107 336.765 332.899 272.514 346.766 223.188C349.033 215.196 352.144 208.316 355.861 202.563C377.122 169.505 425.345 172.38 471.396 184.381C574.599 210.751 692.34 252.996 795.186 301.152C930.959 364.285 1031.05 468.84 1118.66 537.211C1197.87 596.188 1278.57 639.642 1399.55 551.016C1483.58 488.655 1566.08 371.753 1637.55 257.637C1709.14 142.284 1769.71 29.718 1812.63 -52.5415" stroke="#A3A3A3" stroke-width="1.0852" stroke-miterlimit="10"/>
<path opacity="0.9348" d="M-153.741 495.663C-122.844 528.903 -59.4911 553.197 -21.6687 532.533C7.53587 516.504 21.9573 481.839 49.039 470.388C93.9748 451.295 156.264 476.519 208.435 517.389C255.102 553.481 298.103 593.955 339.05 628.187C369.04 652.594 407.506 673.008 411.88 637.831C420.778 575.485 373.478 457.241 351.1 377.534C335.983 319.577 323.766 257.34 338.581 210.208C341.001 202.567 344.029 195.315 348.095 190.53C372.5 161.789 414.219 161.628 464.452 174.55C567.3 200.737 684.067 242.838 787.54 288.155C923.927 347.523 1027.34 447.363 1116.37 515.942C1198.12 576.161 1279.84 622.829 1400.74 539.231C1484.52 480.44 1568.12 362.765 1641.11 246.873C1714.18 129.764 1776.62 14.4356 1819.82 -67.7278" stroke="#A3A3A3" stroke-width="1.0852" stroke-miterlimit="10"/>
<path opacity="0.913" d="M-166.313 482.717C-135.731 515.123 -68.8621 538.639 -35.5402 517.137C-9.23747 499.8 10.2515 466.691 36.3638 454.613C79.4356 434.208 144.828 459.591 197.138 499.905C243.349 534.908 285.625 574.478 326.531 607.431C356.76 631.231 393.904 647.848 398.092 613.242C406.607 550.96 361.297 437.261 340.064 358.542C326.036 302.736 314.799 242.421 330.509 197.457C333.075 190.16 336.276 183.243 340.449 178.715C365.703 151.308 407.44 152.253 457.653 164.869C560.974 190.562 677.576 232.732 779.943 275.622C915.409 332.147 1022.44 425.504 1113.77 494.739C1198.18 556.192 1281.09 605.791 1401.81 527.397C1485.06 472.464 1569.81 354.018 1644.45 236.221C1719.11 117.25 1783.67 -1.07566 1826.99 -82.8777" stroke="#A3A3A3" stroke-width="1.0852" stroke-miterlimit="10"/>
<path opacity="0.8913" d="M-178.824 469.823C-148.665 501.598 -82.8364 523.26 -49.538 501.652C-22.9763 484.039 -2.8646 450.996 23.5451 438.82C67.2996 418.152 133.098 442.72 185.633 482.234C231.384 516.077 273.08 554.864 313.885 586.545C344.295 609.695 380.121 622.818 384.124 588.818C392.276 526.598 349.161 417.763 329.084 339.805C316.113 285.925 305.897 227.722 322.557 184.95C325.281 177.995 328.647 171.405 332.927 167.127C359.035 141.039 401.18 142.681 450.999 155.338C554.712 181.415 669.22 223.228 772.417 263.551C907.926 316.342 1017.97 404.402 1110.84 473.65C1198.07 536.308 1282.38 588.568 1402.76 515.529C1485.21 464.653 1571.14 345.43 1647.54 225.621C1723.91 104.698 1790.76 -16.8071 1834.1 -97.9827" stroke="#A3A3A3" stroke-width="1.0852" stroke-miterlimit="10"/>
<path opacity="0.8696" d="M-191.253 457.002C-161.524 488.12 -96.8362 507.781 -63.6341 486.108C-36.79 468.265 -16.3701 437.343 10.5961 423.039C53.9525 399.472 125.33 428.429 173.917 464.403C218.17 496.17 261.173 535.962 301.135 565.531C337.201 592.204 362.688 591.386 370.005 564.534C384.478 513.327 337.237 398.209 318.17 321.316C306.214 269.416 297.123 213.263 314.731 172.675C317.618 166.056 321.146 159.794 325.536 155.762C352.643 130.865 395.124 133.464 444.948 146.322C549.285 173.007 661.113 214.148 764.987 251.935C900.226 301.058 1013.17 383.681 1107.6 452.721C1197.87 516.5 1283.47 571.241 1403.58 503.64C1485.02 456.985 1572.19 336.91 1650.49 214.969C1728.67 91.9894 1797.99 -32.8548 1841.17 -113.032" stroke="#A3A3A3" stroke-width="1.0852" stroke-miterlimit="10"/>
<path opacity="0.8478" d="M-203.573 444.278C-174.283 474.711 -110.823 492.234 -77.7903 470.554C-50.7215 452.456 -29.7131 421.671 -2.45163 407.321C41.5703 383.574 113.13 411.373 161.999 446.468C205.888 477.045 248.414 516.043 288.312 544.433C324.172 569.98 348.671 566.831 355.772 540.418C370.003 489.033 325.129 378.83 307.348 303.115C296.423 253.169 288.501 199.082 307.046 160.673C310.098 154.385 313.791 148.443 318.292 144.648C346.525 120.844 390.082 124.855 439.475 137.959C543.518 165.295 652.254 206.067 757.685 240.792C892.867 285.297 1009.1 364.061 1104.06 432.036C1197.57 496.884 1284.38 553.89 1404.27 491.781C1484.51 449.433 1572.99 328.437 1653.3 204.256C1733.42 79.1294 1805.36 -49.1805 1848.17 -127.991" stroke="#A3A3A3" stroke-width="1.0852" stroke-miterlimit="10"/>
<path opacity="0.8261" d="M-215.765 431.675C-186.924 461.389 -124.772 476.654 -91.9828 455.024C-64.7106 436.684 -43.1223 406.083 -15.5912 391.701C29.0642 367.794 100.716 394.33 149.871 428.461C193.29 457.707 235.767 496.151 275.425 523.269C311.011 547.651 334.541 542.372 341.442 516.466C355.468 465.051 313.019 359.612 296.616 285.209C286.731 237.185 280.024 185.185 299.49 148.942C302.706 142.979 306.911 137.982 311.178 133.79C336.25 108.912 391.773 118.586 434.271 130.024C538.303 157.209 644.986 197.801 750.516 230.111C884.73 271.248 1003.66 344.156 1100.22 411.644C1197.08 477.458 1285.2 536.529 1404.82 479.962C1483.68 441.959 1573.61 319.87 1656.07 193.303C1738.25 65.9016 1812.96 -65.9767 1855.09 -142.859" stroke="#A3A3A3" stroke-width="1.0852" stroke-miterlimit="10"/>
<path opacity="0.8043" d="M-227.8 419.219C-200.466 447.058 -138.519 461.945 -106.175 439.564C-78.5928 420.16 -56.553 390.642 -28.7908 376.222C16.4617 352.171 88.1025 377.355 137.551 410.432C180.574 438.354 223.068 476.214 262.517 502.073C297.767 525.24 320.367 518.033 327.066 492.685C340.862 441.401 300.75 340.297 286.005 267.615C277.409 222.281 271.468 171.014 292.087 137.486C295.539 131.895 299.866 127.147 304.221 123.187C329.171 100.184 388.68 111.533 429.343 122.494C533.349 149.525 637.98 189.852 743.525 219.88C876.519 257.83 997.953 324.747 1096.1 391.609C1196.48 458.289 1285.89 519.215 1405.23 468.213C1482.56 434.544 1574.06 311.199 1658.8 182.11C1743.18 52.3145 1820.8 -83.2218 1861.95 -157.622" stroke="#A3A3A3" stroke-width="1.0852" stroke-miterlimit="10"/>
<path opacity="0.7826" d="M-239.658 406.93C-212.777 434.119 -154.514 446.256 -120.34 424.207C-90.9983 404.974 -69.3158 373.13 -42.0351 360.92C5.91372 339.142 71.2672 359.242 125.03 392.426C167.372 418.159 209.691 455.435 249.596 480.885C284.856 503.482 306.104 493.857 312.655 469.101C326.319 418.079 288.713 321.463 275.513 250.362C267.957 206.871 263.373 157.725 284.824 126.332C288.441 121.058 292.588 116.215 297.405 112.865C325.812 92.8896 381.886 103.994 424.656 115.36C528.604 142.224 631.909 181.696 736.715 210.11C868.126 245.893 990.93 305.311 1091.71 372.01C1195.62 439.842 1291.42 497.449 1405.48 456.576C1462.33 436.509 1541.98 336.254 1600.19 255.842C1705 109.737 1793.64 -39.9849 1868.7 -172.254" stroke="#A3A3A3" stroke-width="1.0852" stroke-miterlimit="10"/>
<path opacity="0.7609" d="M-251.319 394.835C-224.858 421.222 -168.017 430.813 -134.447 408.997C-105.013 389.548 -82.7722 358.13 -55.3032 345.843C-6.89638 323.868 58.3864 342.672 112.319 374.492C154.147 398.754 197.343 435.966 236.687 459.747C268.633 478.961 293.444 473.075 298.246 445.73C308.597 388.134 276.733 302.843 265.155 233.469C258.645 191.776 255.47 144.777 277.711 115.484C281.494 110.519 285.931 106.35 291.48 103.806C325.176 88.2201 376.298 97.1185 420.205 108.591C524.016 135.213 627.121 176.815 730.126 200.841C858.229 230.925 985.229 288.016 1087.09 352.909C1194.99 420.465 1289.12 489.578 1405.57 445.071C1549.79 386.572 1787.45 -39.581 1875.37 -186.757" stroke="#A3A3A3" stroke-width="1.0852" stroke-miterlimit="10"/>
<path opacity="0.7391" d="M-262.753 382.956C-235.016 410.177 -181.09 413.624 -148.46 393.974C-119.336 375.991 -96.2222 343.354 -68.5669 331.026C-19.7621 308.877 45.356 326.312 99.4295 356.683C140.789 379.476 185.042 416.63 223.821 438.703C255.275 456.499 278.826 449.112 283.876 422.601C294.73 366.528 264.935 283.355 254.948 216.966C249.334 177.133 247.768 132.197 270.758 104.963C274.708 100.296 280.625 98.2325 286.341 95.9384C321.198 81.8276 371.892 90.7431 415.976 102.173C519.385 128.507 619.595 172.564 723.984 193.722C852.996 220.071 980.324 272.097 1082.24 334.39C1141.91 370.96 1197.13 405.262 1252.52 425.022C1298.25 441.223 1347.83 457.883 1406.03 431.339C1567.94 352.755 1787.26 -43.7628 1881.93 -201.1" stroke="#A3A3A3" stroke-width="1.0852" stroke-miterlimit="10"/>
<path opacity="0.7174" d="M-273.943 371.317C-246.763 397.497 -194.2 398.559 -162.352 379.174C-132.925 360.869 -111.339 328.73 -81.8093 316.514C-30.2053 295.031 32.1286 310.35 86.3583 339.046C127.699 360.676 171.466 397.118 211.005 417.803C246.79 436.701 262.405 422.911 269.553 399.742C284.18 352.665 252.846 265.073 244.883 200.876C240.545 163.57 238.29 117.162 265.168 96.5626C269.669 93.1268 275.522 90.5719 281.402 88.5087C317.348 75.7833 367.655 84.6924 411.944 96.0816C514.803 122.084 614.836 166.569 718.138 187.002C847.021 212.626 971.794 254.914 1077.19 316.526C1138.29 352.353 1194.86 387.66 1250.78 408.597C1298.14 426.069 1345.99 443.776 1406.81 416.542C1571.51 337.759 1789.88 -53.091 1888.38 -215.284" stroke="#A3A3A3" stroke-width="1.0852" stroke-miterlimit="10"/>
<path opacity="0.6957" d="M-284.861 359.945C-259.78 386.009 -205.685 382.516 -176.089 364.646C-146.765 346.364 -124.579 314.626 -95.0023 302.352C-43.1908 280.709 18.8435 294.567 73.1246 321.649C114.889 342.242 159.029 377.513 198.263 397.118C232.747 414.49 248.271 399.763 255.314 377.205C269.863 330.791 241.14 247.411 234.979 185.24C231.78 150.648 230.526 106.126 259.893 88.7931C264.969 85.8149 270.615 83.3476 276.649 81.4983C313.624 70.0749 363.311 79.1849 408.097 90.3047C511.159 115.507 610.151 160.782 712.584 180.661C840.959 205.673 963.731 239.045 1071.98 299.403C1134.45 334.36 1192.38 370.564 1248.82 392.579C1297.62 411.248 1344.55 428.981 1407.8 401.185C1574.95 322.545 1792.38 -62.3528 1894.7 -229.288" stroke="#A3A3A3" stroke-width="1.0852" stroke-miterlimit="10"/>
<path opacity="0.6739" d="M-295.488 348.86C-270.942 373.729 -218.288 367.909 -189.637 350.42C-160.39 331.971 -137.702 300.898 -108.118 288.574C-56.1849 266.799 5.46417 279.148 59.741 304.537C102.04 324.08 146.726 358.218 185.618 376.698C218.683 392.511 234.219 376.978 241.185 355.025C255.675 309.405 229.55 230.089 225.246 170.084C222.978 134.944 224.012 98.0657 254.815 81.4684C260.032 78.6826 265.889 76.5275 272.074 74.877C310.01 64.6659 359.42 73.7224 404.429 84.8208C506.896 109.726 605.805 155.114 707.324 174.677C834.308 199.227 956.05 224.627 1066.65 283.293C1179.09 341.59 1282.55 441.978 1408.96 385.376C1578.65 306.719 1794.79 -71.5782 1900.9 -243.104" stroke="#A3A3A3" stroke-width="1.0852" stroke-miterlimit="10"/>
<path opacity="0.6522" d="M-305.799 338.086C-281.788 361.69 -230.588 353.582 -202.965 336.54C-173.836 317.95 -150.681 287.589 -121.134 275.229C-69.1661 253.344 -7.99206 264.152 46.2206 287.775C88.9585 306.164 133.993 338.775 172.879 356.37C204.976 370.973 220.295 354.545 227.181 333.261C241.62 288.57 218.06 213.171 215.679 155.45C214.487 120.743 218.407 89.7126 249.899 74.5627C255.258 72.0099 261.314 70.09 267.642 68.6212C306.479 59.5368 355.665 68.5314 400.911 79.6127C502.798 104.215 601.91 149.869 702.338 169.028C826.062 192.781 950.368 212.393 1061.25 268.06C1177.46 325.091 1280.35 426.358 1410.24 369.222C1582.36 290.584 1797.07 -80.7224 1906.97 -256.71" stroke="#A3A3A3" stroke-width="1.0852" stroke-miterlimit="10"/>
<path opacity="0.6304" d="M-315.771 327.65C-292.291 349.909 -242.568 339.581 -216.041 323.05C-187.046 304.385 -164.037 276.306 -134.023 262.356C-84.2402 238.906 -18.6021 249.519 32.576 271.421C76.2063 289.656 120.059 318.639 159.745 335.933C191.933 350.091 206.526 332.48 213.323 311.968C227.682 268.3 209.077 198.708 206.284 141.373C204.76 107.462 214.84 80.7714 245.131 68.046C250.674 65.7284 256.876 64.003 263.343 62.7052C303.023 54.6621 352.294 63.383 397.538 74.6588C497.947 99.3014 598.58 144.683 697.622 163.692C818.074 187.004 945.085 202.588 1055.8 253.96C1175.77 308.387 1278.52 410.44 1411.61 352.808C1586.04 274.2 1799.23 -89.779 1912.89 -270.109" stroke="#A3A3A3" stroke-width="1.0852" stroke-miterlimit="10"/>
<path opacity="0.6087" d="M-325.382 317.574C-299.629 336.239 -256.472 327.629 -228.829 309.984C-200.031 291.24 -176.641 263.876 -146.754 249.996C-96.9925 226.594 -32.3366 235.428 18.8308 255.54C62.5745 272.366 105.732 298.512 146.43 315.785C175.537 328.149 195.184 313.518 199.622 291.221C209.209 242.336 195.043 180.56 197.061 127.899C198.405 96.8961 208.991 73.1108 240.488 61.8949C246.276 59.8509 252.551 58.2517 259.151 57.11C299.633 50.0375 348.765 58.7007 394.285 69.9487C494.225 94.277 594.936 139.662 693.16 158.648C811.709 181.723 937.948 194.913 1050.4 241.444C1176.12 291.918 1275.97 394.403 1413.03 336.23C1589.66 257.635 1801.23 -98.7331 1918.67 -283.279" stroke="#A3A3A3" stroke-width="1.0852" stroke-miterlimit="10"/>
<path opacity="0.587" d="M-334.607 307.883C-309.843 325.465 -267.685 314.737 -241.297 297.383C-212.602 278.128 -189.006 251.989 -159.299 238.19C-109.642 214.869 -46.0798 221.931 5.00203 240.189C48.8335 255.527 91.9438 279.242 132.918 295.989C162.35 308.041 181.443 292.863 186.089 271.085C195.986 223.962 182.802 163.495 188.006 115.065C191.135 87.0336 205.364 65.5724 235.944 56.0754C241.896 54.2346 248.316 52.7978 255.048 51.8015C296.292 45.6269 345.335 54.2346 391.142 65.4569C490.654 89.4838 591.456 134.79 688.94 153.87C805.841 176.885 931.466 187.992 1045.18 229.987C1175.59 276.428 1274.28 378.129 1414.48 319.571C1593.07 241.087 1803.09 -107.561 1924.29 -296.211" stroke="#A3A3A3" stroke-width="1.0852" stroke-miterlimit="10"/>
<path opacity="0.5652" d="M-343.428 298.6C-319.112 314.455 -277.305 301.997 -253.414 285.29C-226.398 265.875 -199.413 240.876 -171.629 226.985C-124.8 203.067 -59.7479 208.951 -8.8844 225.444C34.9963 239.242 78.2436 261.114 119.21 276.629C148.962 287.924 167.728 273.591 172.733 251.653C182.958 206.315 172.799 149.929 179.123 102.925C182.631 77.0514 203.797 57.9911 231.487 50.5679C237.596 48.9152 244.16 47.6303 251.021 46.7666C292.988 41.4216 341.988 49.9736 388.092 61.1703C487.219 84.9064 588.122 130.063 684.955 149.339C800.453 172.445 925.296 181.869 1040.17 219.536C1174.39 261.77 1273.37 361.827 1415.92 302.905C1596.54 224.291 1804.79 -116.369 1929.75 -308.903" stroke="#A3A3A3" stroke-width="1.0852" stroke-miterlimit="10"/>
<path opacity="0.5435" d="M-351.817 289.748C-327.956 303.825 -287.964 289.754 -265.139 273.739C-238.288 254.334 -210.768 228.717 -183.71 216.415C-135.5 194.139 -76.027 197.23 -22.7988 211.358C20.3073 222.604 64.2393 243.612 105.304 257.783C135.7 268.282 154.686 255.794 159.559 233.012C168.894 189.256 159.959 137.465 171.389 93.5459C177.955 68.6061 199.385 51.8506 227.091 45.3447C233.357 43.863 240.062 42.7192 247.049 41.9774C289.71 37.3999 338.711 45.8963 385.124 57.0716C483.93 80.5383 584.901 125.46 681.193 145.037C795.509 168.372 919.57 176.443 1035.36 210.048C1172.52 248.115 1273.04 345.586 1417.33 286.312C1599.83 207.518 1806.34 -124.962 1935.04 -321.333" stroke="#A3A3A3" stroke-width="1.0852" stroke-miterlimit="10"/>
<path opacity="0.5217" d="M-359.757 281.354C-336.343 293.547 -298.189 278.076 -276.444 262.775C-249.782 243.462 -222.392 218.783 -195.512 206.524C-147.696 184.389 -89.2992 185.924 -36.7173 198.008C6.33739 207.724 50.1325 226.745 91.1991 239.541C121.587 249.008 141.331 238.541 146.563 215.264C155.812 174.078 149.478 124.722 163.826 84.8634C172.457 61.076 194.94 46.0779 222.734 40.3823C229.152 39.0567 235.996 38.0433 243.107 37.4168C286.436 33.5449 335.482 41.9943 382.213 53.1504C480.752 76.3627 581.786 120.981 677.632 140.947C790.971 164.634 914.243 171.655 1030.76 201.47C1170.2 235.524 1273.15 329.485 1418.69 269.862C1602.95 190.801 1807.73 -133.424 1940.15 -333.49" stroke="#A3A3A3" stroke-width="1.0852" stroke-miterlimit="10"/>
<path opacity="0.5" d="M-367.219 273.442C-344.252 283.646 -307.964 267.015 -287.29 252.436C-260.852 233.262 -233.659 209.552 -206.997 197.357C-159.665 175.41 -102.435 175.419 -50.6016 185.461C-7.56836 193.487 40.2179 214.867 76.9082 221.999C110.076 228.473 124.416 222.914 133.74 198.526C146.34 165.977 139.858 113.096 156.356 76.737C166.628 54.1405 190.452 40.6369 218.403 35.6575C224.973 34.4751 231.953 33.5858 239.189 33.0641C283.163 29.8443 332.296 38.2487 379.354 49.3877C477.683 72.3626 578.772 116.613 674.27 137.048C786.812 161.194 909.304 167.454 1026.38 193.754C1169.85 224.573 1275.95 309.713 1419.98 253.62C1599.64 181.033 1808.55 -140.943 1945.09 -345.366" stroke="#A3A3A3" stroke-width="1.0852" stroke-miterlimit="10"/>
<path opacity="0.4783" d="M-374.189 266.016C-351.687 274.181 -317.693 256.633 -297.641 242.757C-270.921 223.786 -244.59 201.128 -218.131 188.946C-171.353 167.164 -115.27 165.71 -64.4132 173.779C-21.3029 180.312 26.1174 198.481 62.4525 205.248C95.019 211.303 111.127 206.353 121.088 182.904C133.997 152.762 130.455 102.173 148.941 69.1043C160.935 47.6452 185.905 35.4907 214.078 31.1377C220.797 30.0859 227.915 29.3119 235.275 28.8864C279.879 26.2674 329.135 34.6312 376.534 45.7574C474.713 68.5142 575.849 112.333 671.09 133.306C783.003 158.005 904.714 163.773 1022.21 186.833C1166.49 213.956 1276.55 294.308 1421.18 237.63C1602.62 164.292 1809.63 -149.183 1949.84 -356.965" stroke="#A3A3A3" stroke-width="1.0852" stroke-miterlimit="10"/>
<path opacity="0.4565" d="M-380.874 258.848C-367.623 265.933 -332.872 251.613 -307.462 233.782C-281.336 215.192 -256.938 194.545 -229.906 180.945C-182.494 156.978 -126.366 156.944 -78.1113 163.037C-35.1401 168.175 11.4241 183.62 47.8491 189.397C80.2936 194.53 97.9208 190.474 108.593 168.538C122.054 141.01 121.242 91.9959 141.54 61.9271C155.262 41.5648 181.27 30.6096 209.742 26.8104C216.612 25.8804 223.866 25.2134 231.35 24.8777C276.568 22.8167 325.985 31.1463 373.739 42.2596C471.826 64.8177 573.005 108.146 668.083 129.721C779.517 155.052 900.444 160.585 1018.26 180.676C1162.96 204.391 1277.2 279.308 1422.29 221.965C1605.41 147.751 1810.57 -157.282 1954.4 -368.256" stroke="#A3A3A3" stroke-width="1.0852" stroke-miterlimit="10"/>
<path opacity="0.4348" d="M-387.388 251.848C-374.711 257.836 -341.58 243.112 -316.771 225.495C-291.384 207.238 -267.899 186.944 -241.648 173.321C-195.552 149.294 -140.976 147.554 -93.9837 152.302C-50.7579 156.386 -4.02455 169.68 33.1237 174.546C57.0703 177.377 88.5048 178.484 96.0889 155.46C106.924 122.544 113.081 82.7212 134.117 55.1452C148.836 35.8092 176.521 25.9359 205.374 22.6412C212.396 21.8224 219.785 21.2536 227.393 21.0035C273.221 19.4577 322.828 27.7596 370.948 38.8643C469.01 61.2385 570.309 104.123 665.226 126.257C776.226 152.183 896.642 157.898 1014.51 175.211C1159.1 195.689 1277.38 263.835 1423.28 206.652C1607.81 132.757 1812.91 -167.795 1958.76 -379.254" stroke="#A3A3A3" stroke-width="1.0852" stroke-miterlimit="10"/>
<path opacity="0.413" d="M-393.742 245.008C-381.591 249.93 -349.836 234.987 -325.868 217.558C-301.38 199.541 -278.597 179.701 -253.198 166.09C-209.163 142.365 -156.121 138.587 -110.402 142.034C-66.2258 145.089 -19.6808 156.92 18.3149 160.814C42.2551 162.982 74.1518 163.959 83.2489 143.389C96.4806 113.372 103.814 74.1563 126.633 48.7162C143.064 30.3637 171.654 21.4653 200.957 18.6132C208.131 17.897 215.657 17.4245 223.391 17.2513C269.821 16.1866 319.655 24.4649 368.151 35.5654C466.249 57.7771 567.569 100.077 662.506 122.905C773.27 149.574 892.89 155.516 1010.95 170.398C1155.46 188.071 1277.88 249.851 1424.14 191.753C1610.13 116.658 1813.45 -175.494 1962.92 -389.935" stroke="#A3A3A3" stroke-width="1.0852" stroke-miterlimit="10"/>
<path opacity="0.3913" d="M-399.942 238.323C-388.279 242.214 -357.874 227.126 -334.747 209.921C-311.17 192.148 -288.495 171.307 -264.552 159.236C-221.279 137.341 -173.328 131.038 -126.751 132.428C-83.2045 133.576 -36.3107 143.849 1.87335 147.47C25.9847 149.478 57.9135 150.985 69.0565 131.645C85.3911 103.257 94.4348 66.2158 119.066 42.593C137.207 25.1876 166.658 17.1572 196.485 14.7049C203.812 14.0871 211.476 13.7001 219.338 13.6017C266.371 12.986 316.455 21.2472 365.344 32.3477C463.536 54.4183 564.882 96.0921 659.919 119.646C770.559 147.101 889.378 153.487 1007.58 166.187C1151.78 181.336 1278.22 236.435 1424.87 177.302C1612.21 100.875 1813.81 -183.047 1966.87 -400.294" stroke="#A3A3A3" stroke-width="1.0852" stroke-miterlimit="10"/>
<path opacity="0.3696" d="M-405.996 231.783C-394.778 234.68 -365.708 219.513 -343.424 202.56C-320.745 185.091 -298.842 164.808 -275.728 152.728C-234.137 130.92 -188.005 123.566 -143.028 123.452C-100.38 123.211 -54.6783 131.32 -16.8132 134.04C7.74546 135.553 39.5758 136.956 53.3617 119.965C74.0876 94.3883 84.9053 58.7457 111.373 36.7349C131.223 20.2424 161.507 12.9797 191.929 10.8994C199.412 10.3713 207.258 9.98003 215.206 10.0399C262.737 10.3734 312.944 18.0403 362.5 29.2028C460.839 51.1451 562.219 92.1626 657.437 116.47C768.045 144.732 886.068 151.768 1004.38 162.528C1079.19 169.21 1145.13 178.846 1216.45 188.394C1284.59 197.192 1350.78 193.564 1425.45 163.343C1614.03 85.4493 1814 -190.438 1970.6 -410.312" stroke="#A3A3A3" stroke-width="1.0852" stroke-miterlimit="10"/>
<path opacity="0.3478" d="M-411.913 225.379C-401.106 227.325 -373.827 212.164 -351.912 195.46C-329.921 178.546 -310.104 159.016 -286.727 146.545C-246.298 124.981 -202.552 116.594 -159.215 115.073C-117.618 113.515 -73.2065 119.61 -35.8506 121.404C-10.9303 122.379 20.5448 123.476 36.4835 108.521C61.1941 85.304 75.2218 51.6176 103.525 31.0907C125.088 15.479 156.191 8.90251 187.279 7.16432C194.921 6.72175 202.905 6.41601 210.99 6.53573C259.118 7.21776 309.685 14.9424 359.617 26.1027C458.158 47.936 559.587 88.2693 655.053 113.344C765.71 142.429 882.941 150.31 1001.35 159.36C1075.11 164.925 1143.58 171.316 1215.17 178.938C1283.98 186.029 1351.03 180.674 1425.89 149.887C1615.59 70.4 1814.01 -197.684 1974.11 -420.008" stroke="#A3A3A3" stroke-width="1.0852" stroke-miterlimit="10"/>
<path opacity="0.3261" d="M-417.699 219.106C-407.269 220.118 -381.255 205.004 -360.217 188.608C-339.099 172.028 -320.364 154.028 -297.555 140.667C-258.841 118.013 -215.846 109.955 -175.297 107.261C-134.988 104.486 -92.1946 109.057 -55.1833 109.547C-29.7494 109.711 0.831194 110.597 18.5397 97.3666C47.2842 75.9011 65.0505 44.9813 95.4984 25.6175C118.773 10.8546 150.704 4.89806 182.524 3.48484C190.328 3.12352 198.456 2.90336 206.676 3.07868C255.412 4.09209 306.355 11.8786 356.681 23.0411C455.472 44.7782 556.97 84.4124 652.75 110.257C763.525 140.163 879.98 149.072 998.474 156.636C1071.31 161.256 1142.16 164.491 1214.01 170.155C1283.38 175.474 1351.21 168.355 1426.16 136.975C1616.87 55.7718 1813.85 -204.754 1977.4 -429.353" stroke="#A3A3A3" stroke-width="1.0852" stroke-miterlimit="10"/>
<path opacity="0.3043" d="M-423.366 212.953C-413.278 213.056 -388.514 198.045 -368.357 181.978C-348.117 165.736 -330.064 148.283 -308.223 135.068C-271.833 113.045 -230.477 103.424 -191.27 99.9771C-151.563 96.4174 -111.925 97.0716 -74.7622 98.4442C-50.745 99.1091 -17.5109 97.0074 -0.358752 86.5569C32.2185 66.5153 54.4381 38.6465 87.2657 20.2747C112.254 6.3349 145.035 0.938542 177.651 -0.162528C185.62 -0.444744 193.893 -0.585844 202.252 -0.35494C251.607 0.979172 302.941 8.82778 353.683 20.0031C452.771 41.6632 554.361 80.5833 650.516 107.191C761.464 137.905 877.159 148.009 995.732 154.304C1067.89 158.139 1140.81 158.349 1212.96 162.041C1282.78 165.535 1351.27 156.611 1426.27 124.622C1617.93 41.5713 1813.51 -211.784 1980.46 -438.352" stroke="#A3A3A3" stroke-width="1.0852" stroke-miterlimit="10"/>
<path opacity="0.2826" d="M-428.919 206.913C-419.144 206.137 -395.621 191.276 -376.34 175.56C-356.977 159.679 -339.607 142.773 -318.737 129.732C-284.076 108.067 -244.68 97.7235 -207.123 93.1974C-168.828 88.5216 -130.601 87.8631 -94.5423 88.0812C-70.5336 88.0341 -38.3737 85.616 -20.1067 76.1426C16.1835 57.1528 43.4021 32.4996 78.7977 15.0278C105.509 1.88555 139.171 -2.99335 172.641 -3.78869C180.782 -3.99394 189.202 -4.05596 197.705 -3.77375C247.691 -2.12962 299.432 5.78953 350.606 16.9798C450.039 38.5758 551.742 76.7776 648.327 104.135C759.5 135.632 874.454 147.088 993.109 152.317C1064.92 155.501 1139.18 153.414 1212 154.594C1282.52 155.672 1351.01 145.565 1426.21 112.854C1618.64 27.8558 1812.96 -218.478 1983.28 -446.988" stroke="#A3A3A3" stroke-width="1.0852" stroke-miterlimit="10"/>
<path opacity="0.2609" d="M-434.37 200.978C-424.881 199.347 -402.589 184.678 -384.178 169.334C-365.693 153.816 -348.622 136.408 -329.103 124.632C-294.955 104.078 -260.236 93.1567 -222.848 86.8796C-186.877 80.8675 -149.782 78.9668 -114.47 78.4173C-90.2858 77.8786 -59.6902 74.8405 -40.595 66.1495C-0.574845 47.7948 31.8718 26.4832 70.073 9.82393C98.8089 -2.65558 133.297 -6.54033 167.486 -7.4276C175.695 -7.65209 184.375 -7.54305 193.022 -7.20739C243.655 -5.25753 295.817 2.73643 347.443 13.9481C447.263 35.4927 549.108 72.9847 646.174 101.065C757.608 133.304 871.854 146.256 990.592 150.618C1062.43 153.269 1137.33 149.634 1211.15 147.793C1282.45 145.929 1350.5 135.192 1425.97 101.67C1619.04 14.6258 1812.21 -224.99 1985.86 -455.268" stroke="#A3A3A3" stroke-width="1.0852" stroke-miterlimit="10"/>
<path opacity="0.2391" d="M-439.722 195.142C-430.494 192.676 -409.422 178.241 -391.882 163.288C-374.268 148.17 -357.927 131.386 -339.333 119.754C-306.989 99.5623 -273.975 88.1368 -238.438 80.9937C-204.046 74.0987 -168.424 71.0691 -134.507 69.4272C-110.618 68.1358 -81.362 64.6872 -61.7233 56.6163C-18.5573 38.6827 21.0947 20.6893 61.0721 4.63933C90.756 -7.30567 127.014 -10.5618 162.176 -11.0856C170.578 -11.2246 179.399 -11.0514 188.201 -10.6623C239.497 -8.40884 292.094 -0.333656 344.188 10.9058C444.436 32.4141 546.45 69.2027 644.047 97.9737C755.774 130.905 869.421 145.484 988.169 149.162C1060.09 151.405 1135.86 145.32 1210.34 141.702C1281.06 138.262 1350.91 124.994 1425.55 91.0936C1618.85 2.24904 1811.25 -231.261 1988.2 -463.172" stroke="#A3A3A3" stroke-width="1.0852" stroke-miterlimit="10"/>
<path opacity="0.2174" d="M-444.986 189.39C-435.998 186.113 -416.137 171.944 -399.469 157.397C-382.715 142.707 -367.437 127.611 -349.433 115.069C-319.645 94.3155 -285.638 82.8964 -253.891 75.5011C-221.132 67.8064 -186.74 64.0778 -154.608 61.0674C-128.662 58.5382 -101.596 54.5551 -83.3949 47.5574C-37.4063 29.6004 10.2729 14.6835 51.7718 -0.575372C82.4936 -12.003 120.502 -14.6349 156.698 -14.7888C165.297 -14.8423 174.265 -14.6028 183.221 -14.1602C235.198 -11.6032 288.242 -3.43812 340.824 7.83341C441.539 29.3203 543.747 65.4246 641.917 94.8392C753.957 128.41 867.407 144.751 985.815 147.896C1123.94 152.223 1274.87 152.065 1424.95 81.1155C1618.66 -9.95471 1810.11 -237.363 1990.29 -470.709" stroke="#A3A3A3" stroke-width="1.0852" stroke-miterlimit="10"/>
<path opacity="0.1957" d="M-450.17 183.722C-441.402 179.65 -422.745 165.78 -406.942 151.655C-391.054 137.39 -376.444 122.83 -359.41 110.567C-332.703 91.2519 -298.57 77.6114 -269.198 70.3743C-237.576 62.4466 -205.424 57.2127 -174.732 53.3045C-149.829 50.0568 -123.82 45.6633 -105.514 38.9863C-56.8205 20.7876 -0.912971 8.49413 42.1588 -5.84972C74.0962 -16.7428 113.761 -18.7718 151.048 -18.5537C159.848 -18.5216 168.971 -18.2137 178.087 -17.7156C230.763 -14.8485 284.266 -6.58733 337.355 4.72056C438.575 26.1968 541.001 61.6427 639.788 91.6495C752.159 125.783 865.44 143.979 983.528 146.771C1121.02 150.714 1273.32 144.706 1424.17 71.7426C1618.15 -21.6089 1808.76 -243.247 1992.13 -477.865" stroke="#A3A3A3" stroke-width="1.0852" stroke-miterlimit="10"/>
<path opacity="0.1739" d="M-455.282 178.125C-446.716 173.272 -429.262 159.73 -414.32 146.036C-399.293 132.209 -385.357 118.186 -369.28 106.218C-344.158 87.4375 -312.176 73.5041 -284.367 65.57C-254.477 56.9304 -224.162 50.9483 -194.855 46.0865C-170.994 42.0713 -146.253 37.3613 -127.999 30.8981C-77.1204 12.212 -11.7477 2.25318 32.21 -11.2269C65.0312 -21.7459 106.774 -23.018 145.208 -22.4001C154.218 -22.2804 163.497 -21.9041 172.778 -21.3504C226.173 -18.169 280.148 -9.80088 333.76 1.5519C435.523 23.0324 538.207 57.8412 637.627 88.3847C750.319 123.007 863.489 143.124 981.274 145.732C1118.42 149.463 1271.46 138.018 1423.2 62.9638C1617.19 -32.5962 1807.25 -249.022 1993.71 -484.642" stroke="#A3A3A3" stroke-width="1.0852" stroke-miterlimit="10"/>
<path opacity="0.1522" d="M-460.328 172.594C-451.948 166.975 -435.692 153.782 -421.611 140.533C-407.442 127.155 -394.176 113.671 -379.049 102.012C-355.485 83.7858 -325.643 69.6408 -299.396 61.0653C-271.285 51.7864 -242.662 44.9576 -214.943 39.3795C-192.319 34.7764 -168.762 29.611 -150.771 23.3018C-94.1912 3.11695 -30.8108 -4.62047 21.9102 -16.7301C59.159 -25.4531 99.5024 -27.2768 139.172 -26.3382C148.395 -26.1266 157.834 -25.6819 167.285 -25.0683C221.42 -21.562 275.875 -13.0784 330.027 -1.67432C432.371 19.8211 535.339 54.0249 635.418 85.0409C748.425 120.063 861.537 142.157 979.036 144.74C1116.18 148.42 1269.33 132.038 1422.04 54.7796C1616 -43.1045 1805.48 -254.463 1995.02 -491.028" stroke="#A3A3A3" stroke-width="1.0852" stroke-miterlimit="10"/>
<path opacity="0.1304" d="M-465.321 167.117C-457.114 160.746 -442.059 147.92 -428.834 135.122C-415.521 122.2 -402.985 109.263 -388.728 97.9247C-366.138 79.9527 -340.107 66.7698 -314.286 56.8195C-288.443 46.85 -262.085 39.7112 -234.971 33.1283C-213.584 27.9073 -191.332 22.3827 -173.75 16.1697C-112.272 -5.82818 -46.2895 -14.1771 11.2487 -22.4041C50.2951 -28.1382 91.8518 -31.7621 132.931 -30.3938C142.375 -30.088 151.981 -29.5707 161.605 -28.8951C216.502 -25.0531 271.479 -16.4348 326.158 -4.98369C429.054 16.5246 532.403 50.1725 633.152 81.5925C746.454 116.925 859.575 141.025 976.804 143.736C1114.2 147.518 1266.84 126.73 1420.68 47.1643C1614.77 -53.1956 1803.54 -259.722 1996.07 -497.027" stroke="#A3A3A3" stroke-width="1.0852" stroke-miterlimit="10"/>
<path opacity="0.1087" d="M-470.264 161.688C-462.22 154.571 -448.363 142.13 -435.992 129.794C-423.531 117.338 -411.665 104.944 -398.328 93.9415C-377.196 76.5061 -353.097 63.2098 -329.041 52.8042C-304.968 42.3836 -280.343 34.5072 -254.916 27.2829C-234.866 21.5659 -213.95 15.6436 -196.868 9.484C-131.628 -14.3868 -60.1867 -22.075 0.214843 -28.2795C40.3848 -32.6367 84.0836 -36.4145 126.483 -34.5801C136.154 -34.1761 145.932 -33.5817 155.735 -32.842C211.416 -28.6494 266.962 -19.8771 322.148 -8.37679C425.555 13.1379 529.4 46.2833 630.817 78.0348C744.378 113.581 857.593 139.695 974.561 142.675C1112.47 146.735 1264.38 121.962 1419.13 40.1087C1612.89 -62.5324 1801.33 -264.663 1996.86 -502.631" stroke="#A3A3A3" stroke-width="1.0852" stroke-miterlimit="10"/>
<path opacity="0.087" d="M-475.169 156.298C-467.277 148.443 -454.625 136.4 -443.103 124.53C-431.49 112.542 -420.289 100.697 -407.86 90.0458C-388.165 73.1642 -365.971 59.8017 -343.67 48.9899C-321.354 38.1652 -298.461 29.611 -274.762 21.8009C-256.082 15.6264 -236.566 9.35346 -220.066 3.22168C-151.858 -22.4429 -77.5656 -30.238 -13.4406 -34.7749C29.5328 -38.0417 75.3994 -41.2487 119.813 -38.9076C129.715 -38.4009 139.683 -37.7253 149.66 -36.9171C206.076 -32.3632 262.273 -23.4199 317.977 -11.864C421.923 9.66561 526.321 42.3449 628.384 74.3551C742.148 110.017 855.556 138.13 972.275 141.514C1110.9 146.012 1261.75 117.748 1417.37 33.5899C1610.68 -71.2897 1798.88 -269.356 1997.36 -507.833" stroke="#A3A3A3" stroke-width="1.0852" stroke-miterlimit="10"/>
<path opacity="0.0652" d="M-480.042 150.938C-472.299 142.35 -460.853 130.713 -450.176 119.315C-439.412 107.802 -428.866 96.5068 -417.331 86.2166C-399.06 69.9101 -378.739 56.5177 -358.177 45.3423C-337.603 34.1563 -316.439 24.9737 -294.497 16.6248C-277.206 10.0312 -259.145 3.45892 -243.287 -2.66003C-172.652 -30.1504 -96.8256 -38.5912 -28.8935 -41.7555C17.8185 -44.1115 65.992 -46.303 112.92 -43.4018C123.049 -42.786 133.227 -42.0228 143.379 -41.1462C200.527 -36.216 257.411 -27.0845 313.648 -15.4666C418.138 6.08441 523.053 38.2741 625.81 70.4938C739.814 106.215 853.463 136.278 969.939 140.195C1109.45 145.29 1259 114.021 1415.42 27.5735C1608.15 -79.4826 1796.22 -273.805 1997.59 -512.641" stroke="#A3A3A3" stroke-width="1.0852" stroke-miterlimit="10"/>
<path opacity="0.0435" d="M-484.889 145.602C-477.29 136.283 -467.056 125.056 -457.225 114.135C-447.304 103.101 -437.409 92.3573 -426.76 82.4391C-409.89 66.7226 -391.414 53.3367 -372.575 41.8321C-353.726 30.3211 -334.28 20.544 -314.115 11.7012C-298.225 4.72496 -281.653 -2.09529 -266.485 -8.19928C-193.609 -37.6673 -116.751 -47.2242 -44.9092 -48.9901C5.91581 -50.3414 56.1909 -51.5429 105.8 -48.0772C116.162 -47.3567 126.558 -46.4909 136.886 -45.5394C194.786 -40.2137 252.369 -30.8749 309.152 -19.1907C414.181 2.39025 519.475 33.9921 623.056 66.402C737.432 102.164 851.304 134.104 967.531 138.671C1107.98 144.525 1256.21 110.699 1413.27 22.0278C1605.31 -87.1214 1793.33 -278.015 1997.54 -517.054" stroke="#A3A3A3" stroke-width="1.0852" stroke-miterlimit="10"/>
<path opacity="0.0217" d="M-489.723 140.28C-482.265 130.227 -473.252 119.416 -464.264 108.976C-455.184 98.4226 -445.93 88.2372 -436.155 78.7017C-420.665 63.5924 -404.008 50.2406 -386.875 38.4389C-369.733 26.6307 -351.999 16.2957 -333.612 6.99322C-319.131 -0.335846 -304.067 -7.35064 -289.62 -13.4311C-214.665 -45.0543 -136.3 -55.539 -61.4493 -56.452C-6.7359 -57.1639 45.9424 -57.0592 98.4473 -52.9392C109.045 -52.1075 119.668 -51.1326 130.179 -50.1C188.849 -44.353 247.143 -34.794 304.484 -23.035C410.072 -1.41343 515.771 29.5983 620.173 62.1429C734.881 97.871 849.056 131.583 965.032 136.907C1106.41 143.682 1253.41 107.719 1410.92 16.9306C1602.17 -94.2005 1790.21 -281.97 1997.21 -521.05" stroke="#A3A3A3" stroke-width="1.0852" stroke-miterlimit="10"/>
</g>
</svg>
