<svg width="380" height="455" viewBox="0 0 380 455" fill="none" xmlns="http://www.w3.org/2000/svg">
<g opacity="0.5">
<mask id="mask0_375_3805" style="mask-type:luminance" maskUnits="userSpaceOnUse" x="-60" y="-553" width="1606" height="1069">
<path d="M-58.5 515.5L-58.5 -552.5L1545.5 -552.5L1545.5 515.5L-58.5 515.5Z" fill="white" stroke="white"/>
</mask>
<g mask="url(#mask0_375_3805)">
<g opacity="0.52">
<path d="M-96.8972 647.562C-64.6367 682.646 0.275906 710.77 37.8971 690.766C66.2735 675.642 78.9979 641.233 105.016 630.195C148.858 611.637 208.864 639.737 260.083 681.349C307.109 718.956 353.761 764.226 394.631 802.468C423.628 828.471 465.805 861.89 470.853 825.606C481.247 763.775 428.184 630.453 403.358 548.878C383.503 477.296 363.502 392.267 390.736 340.25C409.714 304.146 457.917 305.602 504.693 317.463C608.077 343.19 729.308 386.957 829.532 441.499C961.887 512.968 1055.63 624.634 1141.26 692.718C1215.86 749.142 1294.82 785.478 1415.87 687.326C1499.76 618.628 1580.1 503.311 1648.82 392.475C1717.74 280.395 1775.03 172.795 1817.15 90.8523" stroke="#A3A3A3" stroke-width="1.0852" stroke-miterlimit="10"/>
<path opacity="0.9783" d="M-109.51 634.61C-77.6566 669.128 -13.2105 696.229 24.5798 675.888C53.2515 660.413 66.5023 625.902 92.88 614.72C136.386 596.207 197.77 622.637 249.404 664.647C296.141 702.077 341.428 745.908 382.617 782.22C412.5 807.64 452.984 836.548 457.786 800.502C467.633 738.384 416.345 610.232 392.26 529.213C375.285 467.168 361.127 400.907 374.057 349.392C376.171 341.047 379.152 333.845 382.741 327.807C403.103 293.376 451.073 295.423 497.475 307.355C600.678 333.398 720.919 376.064 821.854 427.604C955.552 495.411 1052.59 602.893 1139.61 671.488C1216.44 729.197 1296.22 769.206 1417.25 675.721C1501.31 610.049 1582.72 493.947 1652.77 381.524C1722.97 267.855 1781.82 157.866 1824.39 75.6597" stroke="#A3A3A3" stroke-width="1.0852" stroke-miterlimit="10"/>
<path opacity="0.9565" d="M-122.132 621.634C-87.2588 652.781 -29.3204 682.976 11.0486 660.796C39.9878 645.11 53.8165 610.423 80.5515 599.102C124.77 580.3 186.556 606.166 238.524 647.645C285.66 684.759 329.461 726.24 370.419 761.785C400.109 786.761 439.875 811.23 444.454 775.579C453.8 713.288 404.449 590.172 381.17 509.759C365.107 449.765 351.899 385.514 365.766 336.188C368.033 328.196 371.144 321.316 374.861 315.563C396.122 282.505 444.345 285.38 490.396 297.381C593.599 323.751 711.34 365.996 814.186 414.152C949.959 477.285 1050.05 581.84 1137.66 650.211C1216.87 709.188 1297.57 752.642 1418.55 664.016C1502.58 601.655 1585.08 484.753 1656.55 370.637C1728.14 255.284 1788.71 142.718 1831.63 60.4585" stroke="#A3A3A3" stroke-width="1.0852" stroke-miterlimit="10"/>
<path opacity="0.9348" d="M-134.741 608.663C-103.844 641.903 -40.4911 666.197 -2.66871 645.533C26.5359 629.504 40.9573 594.839 68.039 583.388C112.975 564.295 175.264 589.519 227.435 630.389C274.102 666.481 317.103 706.955 358.05 741.187C388.04 765.594 426.506 786.008 430.88 750.831C439.778 688.485 392.478 570.241 370.1 490.534C354.983 432.577 342.766 370.34 357.581 323.208C360.001 315.567 363.029 308.315 367.095 303.53C391.5 274.789 433.219 274.628 483.452 287.55C586.3 313.737 703.067 355.838 806.54 401.155C942.927 460.523 1046.34 560.363 1135.37 628.942C1217.12 689.161 1298.84 735.829 1419.74 652.231C1503.52 593.44 1587.12 475.765 1660.11 359.873C1733.18 242.764 1795.62 127.436 1838.82 45.2722" stroke="#A3A3A3" stroke-width="1.0852" stroke-miterlimit="10"/>
<path opacity="0.913" d="M-147.313 595.717C-116.731 628.123 -49.8621 651.639 -16.5402 630.137C9.76253 612.8 29.2515 579.691 55.3638 567.613C98.4356 547.208 163.828 572.591 216.138 612.905C262.349 647.908 304.625 687.478 345.531 720.431C375.76 744.231 412.904 760.848 417.092 726.242C425.607 663.96 380.297 550.261 359.064 471.542C345.036 415.736 333.799 355.421 349.509 310.457C352.075 303.16 355.276 296.243 359.449 291.715C384.703 264.308 426.44 265.253 476.653 277.869C579.974 303.562 696.576 345.732 798.943 388.622C934.409 445.147 1041.44 538.504 1132.77 607.739C1217.18 669.192 1300.09 718.791 1420.81 640.397C1504.06 585.464 1588.81 467.018 1663.45 349.221C1738.11 230.25 1802.67 111.924 1845.99 30.1223" stroke="#A3A3A3" stroke-width="1.0852" stroke-miterlimit="10"/>
<path opacity="0.8913" d="M-159.824 582.823C-129.665 614.598 -63.8364 636.26 -30.538 614.652C-3.97633 597.039 16.1354 563.996 42.5451 551.82C86.2996 531.152 152.098 555.72 204.633 595.234C250.384 629.077 292.08 667.864 332.885 699.545C363.295 722.695 399.121 735.818 403.124 701.818C411.276 639.598 368.161 530.763 348.084 452.805C335.113 398.925 324.897 340.722 341.557 297.95C344.281 290.995 347.647 284.405 351.927 280.127C378.035 254.039 420.18 255.681 469.999 268.338C573.712 294.415 688.22 336.228 791.417 376.551C926.926 429.342 1036.97 517.402 1129.84 586.65C1217.07 649.308 1301.38 701.568 1421.76 628.529C1504.21 577.653 1590.14 458.43 1666.54 338.621C1742.91 217.698 1809.76 96.1929 1853.1 15.0173" stroke="#A3A3A3" stroke-width="1.0852" stroke-miterlimit="10"/>
<path opacity="0.8696" d="M-172.253 570.002C-142.524 601.12 -77.8362 620.781 -44.6341 599.108C-17.79 581.265 2.62991 550.343 29.5961 536.039C72.9525 512.472 144.33 541.429 192.917 577.403C237.17 609.17 280.173 648.962 320.135 678.531C356.201 705.204 381.688 704.386 389.005 677.534C403.478 626.327 356.237 511.209 337.17 434.316C325.214 382.416 316.123 326.263 333.731 285.675C336.618 279.056 340.146 272.794 344.536 268.762C371.643 243.865 414.124 246.464 463.948 259.322C568.285 286.007 680.113 327.148 783.987 364.935C919.226 414.058 1032.17 496.681 1126.6 565.721C1216.87 629.5 1302.47 684.241 1422.58 616.64C1504.02 569.985 1591.19 449.91 1669.49 327.969C1747.67 204.989 1816.99 80.1452 1860.17 -0.0319824" stroke="#A3A3A3" stroke-width="1.0852" stroke-miterlimit="10"/>
<path opacity="0.8478" d="M-184.573 557.278C-155.283 587.711 -91.8234 605.234 -58.7903 583.554C-31.7215 565.456 -10.7131 534.671 16.5484 520.321C60.5703 496.574 132.13 524.373 180.999 559.468C224.888 590.045 267.414 629.043 307.312 657.433C343.172 682.98 367.671 679.831 374.772 653.418C389.003 602.033 344.129 491.83 326.348 416.115C315.423 366.169 307.501 312.082 326.046 273.673C329.098 267.385 332.791 261.443 337.292 257.648C365.525 233.844 409.082 237.855 458.475 250.959C562.518 278.295 671.254 319.067 776.685 353.792C911.867 398.297 1028.1 477.061 1123.06 545.036C1216.57 609.884 1303.38 666.89 1423.27 604.781C1503.51 562.433 1591.99 441.437 1672.3 317.256C1752.42 192.129 1824.36 63.8195 1867.17 -14.9915" stroke="#A3A3A3" stroke-width="1.0852" stroke-miterlimit="10"/>
<path opacity="0.8261" d="M-196.765 544.675C-167.924 574.389 -105.772 589.654 -72.9828 568.024C-45.7106 549.684 -24.1223 519.083 3.4088 504.701C48.0642 480.794 119.716 507.33 168.871 541.461C212.29 570.707 254.767 609.151 294.425 636.269C330.011 660.651 353.541 655.372 360.442 629.466C374.468 578.051 332.019 472.612 315.616 398.209C305.731 350.185 299.024 298.185 318.49 261.942C321.706 255.979 325.911 250.982 330.178 246.79C355.25 221.912 410.773 231.586 453.271 243.024C557.303 270.209 663.986 310.801 769.516 343.111C903.73 384.248 1022.66 457.156 1119.22 524.644C1216.08 590.458 1304.2 649.529 1423.82 592.962C1502.68 554.959 1592.61 432.87 1675.07 306.303C1757.25 178.902 1831.96 47.0233 1874.09 -29.8591" stroke="#A3A3A3" stroke-width="1.0852" stroke-miterlimit="10"/>
<path opacity="0.8043" d="M-208.8 532.219C-181.466 560.058 -119.519 574.945 -87.1753 552.564C-59.5928 533.16 -37.553 503.642 -9.79076 489.222C35.4617 465.171 107.102 490.355 156.551 523.432C199.574 551.354 242.068 589.214 281.517 615.073C316.767 638.24 339.367 631.033 346.066 605.685C359.862 554.401 319.75 453.297 305.005 380.615C296.409 335.281 290.468 284.014 311.087 250.486C314.539 244.895 318.866 240.147 323.221 236.187C348.171 213.184 407.68 224.533 448.343 235.494C552.349 262.525 656.98 302.852 762.525 332.88C895.519 370.83 1016.95 437.747 1115.1 504.609C1215.48 571.289 1304.89 632.215 1424.23 581.213C1501.56 547.544 1593.06 424.199 1677.8 295.11C1762.18 165.315 1839.8 29.7782 1880.95 -44.6221" stroke="#A3A3A3" stroke-width="1.0852" stroke-miterlimit="10"/>
<path opacity="0.7826" d="M-220.658 519.93C-193.777 547.119 -135.514 559.256 -101.34 537.207C-71.9983 517.974 -50.3158 486.13 -23.0351 473.92C24.9137 452.142 90.2672 472.242 144.03 505.426C186.372 531.159 228.691 568.435 268.596 593.885C303.856 616.482 325.104 606.857 331.655 582.101C345.319 531.079 307.713 434.463 294.513 363.362C286.957 319.871 282.373 270.725 303.824 239.332C307.441 234.058 311.588 229.215 316.405 225.865C344.812 205.89 400.886 216.994 443.656 228.36C547.604 255.224 650.909 294.696 755.715 323.11C887.126 358.893 1009.93 418.311 1110.71 485.01C1214.62 552.842 1310.42 610.449 1424.48 569.576C1481.33 549.509 1560.98 449.254 1619.19 368.842C1724 222.737 1812.64 73.0151 1887.7 -59.2544" stroke="#A3A3A3" stroke-width="1.0852" stroke-miterlimit="10"/>
<path opacity="0.7609" d="M-232.319 507.835C-205.858 534.222 -149.017 543.813 -115.447 521.997C-86.0132 502.548 -63.7722 471.13 -36.3032 458.843C12.1036 436.868 77.3864 455.672 131.319 487.492C173.147 511.754 216.343 548.966 255.687 572.747C287.633 591.961 312.444 586.075 317.246 558.73C327.597 501.134 295.733 415.843 284.155 346.469C277.645 304.776 274.47 257.777 296.711 228.484C300.494 223.519 304.931 219.35 310.48 216.806C344.176 201.22 395.298 210.118 439.205 221.591C543.016 248.213 646.121 289.815 749.126 313.841C877.229 343.925 1004.23 401.016 1106.09 465.909C1213.99 533.465 1308.12 602.578 1424.57 558.071C1568.79 499.572 1806.45 73.419 1894.37 -73.7566" stroke="#A3A3A3" stroke-width="1.0852" stroke-miterlimit="10"/>
<path opacity="0.7391" d="M-243.753 495.956C-216.016 523.177 -162.09 526.624 -129.46 506.974C-100.336 488.991 -77.2222 456.354 -49.5669 444.026C-0.7621 421.877 64.356 439.312 118.429 469.683C159.789 492.476 204.042 529.63 242.821 551.703C274.275 569.499 297.826 562.112 302.876 535.601C313.73 479.528 283.935 396.355 273.948 329.966C268.334 290.133 266.768 245.197 289.758 217.963C293.708 213.296 299.625 211.232 305.341 208.938C340.198 194.828 390.892 203.743 434.976 215.173C538.385 241.507 638.595 285.564 742.984 306.722C871.996 333.071 999.324 385.097 1101.24 447.39C1160.91 483.96 1216.13 518.262 1271.52 538.022C1317.25 554.223 1366.83 570.883 1425.03 544.339C1586.94 465.755 1806.26 69.2372 1900.93 -88.1003" stroke="#A3A3A3" stroke-width="1.0852" stroke-miterlimit="10"/>
<path opacity="0.7174" d="M-254.943 484.317C-227.763 510.497 -175.2 511.559 -143.352 492.174C-113.925 473.869 -92.3391 441.73 -62.8093 429.514C-11.2053 408.031 51.1286 423.35 105.358 452.046C146.699 473.676 190.466 510.118 230.005 530.803C265.79 549.701 281.405 535.911 288.553 512.742C303.18 465.665 271.846 378.073 263.883 313.876C259.545 276.57 257.29 230.162 284.168 209.563C288.669 206.127 294.522 203.572 300.402 201.509C336.348 188.783 386.655 197.692 430.944 209.082C533.803 235.084 633.836 279.569 737.138 300.002C866.021 325.626 990.794 367.914 1096.19 429.526C1157.29 465.353 1213.86 500.66 1269.78 521.597C1317.14 539.069 1364.99 556.776 1425.81 529.542C1590.51 450.759 1808.88 59.909 1907.38 -102.284" stroke="#A3A3A3" stroke-width="1.0852" stroke-miterlimit="10"/>
<path opacity="0.6957" d="M-265.861 472.945C-240.78 499.009 -186.685 495.516 -157.089 477.646C-127.765 459.364 -105.579 427.626 -76.0023 415.352C-24.1908 393.709 37.8435 407.567 92.1246 434.649C133.889 455.242 178.029 490.513 217.263 510.118C251.747 527.49 267.271 512.763 274.314 490.205C288.863 443.791 260.14 360.411 253.979 298.24C250.78 263.648 249.526 219.126 278.893 201.793C283.969 198.815 289.615 196.348 295.649 194.498C332.624 183.075 382.311 192.185 427.097 203.305C530.159 228.507 629.151 273.782 731.584 293.661C859.959 318.673 982.731 352.045 1090.98 412.403C1153.45 447.36 1211.38 483.564 1267.82 505.579C1316.62 524.248 1363.55 541.981 1426.8 514.185C1593.95 435.545 1811.38 50.6472 1913.7 -116.288" stroke="#A3A3A3" stroke-width="1.0852" stroke-miterlimit="10"/>
<path opacity="0.6739" d="M-276.488 461.86C-251.942 486.729 -199.288 480.909 -170.637 463.42C-141.39 444.971 -118.702 413.898 -89.1185 401.574C-37.1849 379.799 24.4642 392.148 78.741 417.537C121.04 437.08 165.726 471.218 204.618 489.698C237.683 505.511 253.219 489.978 260.185 468.025C274.675 422.405 248.55 343.089 244.246 283.084C241.978 247.944 243.012 211.066 273.815 194.468C279.032 191.683 284.889 189.528 291.074 187.877C329.01 177.666 378.42 186.722 423.429 197.821C525.896 222.726 624.805 268.114 726.324 287.677C853.308 312.227 975.05 337.627 1085.65 396.293C1198.09 454.59 1301.55 554.978 1427.96 498.376C1597.65 419.719 1813.79 41.4218 1919.9 -130.104" stroke="#A3A3A3" stroke-width="1.0852" stroke-miterlimit="10"/>
<path opacity="0.6522" d="M-286.799 451.086C-262.788 474.69 -211.588 466.582 -183.965 449.54C-154.836 430.95 -131.681 400.589 -102.134 388.229C-50.1661 366.344 11.0079 377.152 65.2206 400.775C107.959 419.164 152.993 451.775 191.879 469.37C223.976 483.973 239.295 467.545 246.181 446.261C260.62 401.57 237.06 326.171 234.679 268.45C233.487 233.743 237.407 202.713 268.899 187.563C274.258 185.01 280.314 183.09 286.642 181.621C325.479 172.537 374.665 181.531 419.911 192.613C521.798 217.215 620.91 262.869 721.338 282.028C845.062 305.781 969.368 325.393 1080.25 381.06C1196.46 438.091 1299.35 539.358 1429.24 482.222C1601.36 403.584 1816.07 32.2776 1925.97 -143.71" stroke="#A3A3A3" stroke-width="1.0852" stroke-miterlimit="10"/>
<path opacity="0.6304" d="M-296.771 440.65C-273.291 462.909 -223.568 452.581 -197.041 436.05C-168.046 417.385 -145.037 389.306 -115.023 375.356C-65.2402 351.906 0.397869 362.519 51.576 384.421C95.2063 402.656 139.059 431.639 178.745 448.933C210.933 463.091 225.526 445.48 232.323 424.968C246.682 381.3 228.077 311.708 225.284 254.373C223.76 220.462 233.84 193.771 264.131 181.046C269.674 178.728 275.876 177.003 282.343 175.705C322.023 167.662 371.294 176.383 416.538 187.659C516.947 212.301 617.58 257.683 716.622 276.692C837.074 300.004 964.085 315.588 1074.8 366.96C1194.77 421.387 1297.52 523.44 1430.61 465.808C1605.04 387.2 1818.23 23.221 1931.89 -157.109" stroke="#A3A3A3" stroke-width="1.0852" stroke-miterlimit="10"/>
<path opacity="0.6087" d="M-306.382 430.574C-280.629 449.239 -237.472 440.629 -209.829 422.984C-181.031 404.24 -157.641 376.876 -127.754 362.996C-77.9925 339.594 -13.3366 348.428 37.8308 368.54C81.5745 385.366 124.732 411.512 165.43 428.785C194.537 441.149 214.184 426.518 218.622 404.221C228.209 355.336 214.043 293.56 216.061 240.899C217.405 209.896 227.991 186.111 259.488 174.895C265.276 172.851 271.551 171.252 278.151 170.11C318.633 163.037 367.765 171.701 413.285 182.949C513.225 207.277 613.936 252.662 712.16 271.648C830.709 294.723 956.948 307.913 1069.4 354.444C1195.12 404.918 1294.97 507.403 1432.03 449.23C1608.66 370.635 1820.23 14.2669 1937.67 -170.279" stroke="#A3A3A3" stroke-width="1.0852" stroke-miterlimit="10"/>
<path opacity="0.587" d="M-315.607 420.883C-290.843 438.465 -248.685 427.737 -222.297 410.383C-193.602 391.128 -170.006 364.989 -140.299 351.19C-90.6421 327.869 -27.0798 334.931 24.002 353.189C67.8335 368.527 110.944 392.242 151.918 408.989C181.35 421.041 200.443 405.863 205.089 384.085C214.986 336.962 201.802 276.495 207.006 228.065C210.135 200.034 224.364 178.572 254.944 169.075C260.896 167.235 267.316 165.798 274.048 164.801C315.292 158.627 364.335 167.235 410.142 178.457C509.654 202.484 610.456 247.79 707.94 266.87C824.841 289.885 950.466 300.992 1064.18 342.987C1194.59 389.428 1293.28 491.129 1433.48 432.571C1612.07 354.087 1822.09 5.43928 1943.29 -183.211" stroke="#A3A3A3" stroke-width="1.0852" stroke-miterlimit="10"/>
<path opacity="0.5652" d="M-324.428 411.6C-300.112 427.455 -258.305 414.997 -234.414 398.29C-207.398 378.875 -180.413 353.876 -152.629 339.985C-105.8 316.067 -40.7479 321.951 10.1156 338.444C53.9963 352.242 97.2436 374.114 138.21 389.629C167.962 400.924 186.728 386.591 191.733 364.653C201.958 319.315 191.799 262.929 198.123 215.925C201.631 190.051 222.797 170.991 250.487 163.568C256.596 161.915 263.16 160.63 270.021 159.767C311.988 154.422 360.988 162.974 407.092 174.17C506.219 197.906 607.122 243.063 703.955 262.339C819.453 285.445 944.296 294.869 1059.17 332.536C1193.39 374.77 1292.37 474.827 1434.92 415.905C1615.54 337.291 1823.79 -3.36925 1948.75 -195.903" stroke="#A3A3A3" stroke-width="1.0852" stroke-miterlimit="10"/>
<path opacity="0.5435" d="M-332.817 402.748C-308.956 416.825 -268.964 402.754 -246.139 386.739C-219.288 367.334 -191.768 341.717 -164.71 329.415C-116.5 307.139 -57.027 310.23 -3.79877 324.358C39.3073 335.604 83.2393 356.612 124.304 370.783C154.7 381.282 173.686 368.794 178.559 346.012C187.894 302.256 178.959 250.465 190.389 206.546C196.955 181.606 218.385 164.851 246.091 158.345C252.357 156.863 259.062 155.719 266.049 154.977C308.71 150.4 357.711 158.896 404.124 170.072C502.93 193.538 603.901 238.46 700.193 258.037C814.509 281.372 938.57 289.443 1054.36 323.048C1191.52 361.115 1292.04 458.586 1436.33 399.312C1618.83 320.518 1825.34 -11.962 1954.04 -208.333" stroke="#A3A3A3" stroke-width="1.0852" stroke-miterlimit="10"/>
<path opacity="0.5217" d="M-340.757 394.354C-317.343 406.547 -279.189 391.076 -257.444 375.775C-230.782 356.462 -203.392 331.783 -176.512 319.524C-128.696 297.389 -70.2992 298.924 -17.7173 311.008C25.3374 320.724 69.1325 339.745 110.199 352.541C140.587 362.008 160.331 351.541 165.563 328.264C174.812 287.078 168.478 237.722 182.826 197.863C191.457 174.076 213.94 159.078 241.734 153.382C248.152 152.057 254.996 151.043 262.107 150.417C305.436 146.545 354.482 154.994 401.213 166.15C499.752 189.363 600.786 233.981 696.632 253.947C809.971 277.634 933.243 284.655 1049.76 314.47C1189.2 348.524 1292.15 442.485 1437.69 382.862C1621.95 303.801 1826.73 -20.4243 1959.15 -220.49" stroke="#A3A3A3" stroke-width="1.0852" stroke-miterlimit="10"/>
<path opacity="0.5" d="M-348.219 386.442C-325.253 396.646 -288.965 380.015 -268.29 365.436C-241.852 346.262 -214.659 322.552 -187.997 310.357C-140.665 288.41 -83.4347 288.419 -31.6017 298.461C11.4315 306.487 59.2177 327.867 95.908 334.999C129.076 341.473 143.416 335.914 152.74 311.526C165.34 278.977 158.858 226.096 175.356 189.737C185.628 167.141 209.452 153.637 237.403 148.657C243.972 147.475 250.953 146.586 258.188 146.064C302.163 142.844 351.296 151.249 398.354 162.388C496.683 185.363 597.772 229.613 693.27 250.048C805.812 274.194 928.304 280.454 1045.38 306.754C1188.85 337.573 1294.95 422.713 1438.98 366.62C1618.64 294.033 1827.55 -27.9435 1964.09 -232.366" stroke="#A3A3A3" stroke-width="1.0852" stroke-miterlimit="10"/>
<path opacity="0.4783" d="M-355.189 379.016C-332.687 387.181 -298.693 369.633 -278.641 355.757C-251.921 336.786 -225.591 314.128 -199.132 301.946C-152.353 280.164 -96.2704 278.71 -45.4133 286.779C-2.30298 293.312 45.1173 311.481 81.4523 318.248C114.019 324.303 130.127 319.353 140.088 295.904C152.997 265.762 149.455 215.173 167.94 182.104C179.935 160.645 204.905 148.491 233.078 144.138C239.797 143.086 246.915 142.312 254.274 141.886C298.878 139.267 348.135 147.631 395.534 158.757C493.713 181.514 594.849 225.333 690.09 246.306C802.003 271.005 923.714 276.773 1041.21 299.833C1185.49 326.956 1295.55 407.308 1440.18 350.63C1621.62 277.292 1828.63 -36.1833 1968.84 -243.965" stroke="#A3A3A3" stroke-width="1.0852" stroke-miterlimit="10"/>
<path opacity="0.4565" d="M-361.874 371.848C-348.623 378.933 -313.872 364.613 -288.462 346.782C-262.336 328.192 -237.938 307.545 -210.906 293.945C-163.494 269.978 -107.366 269.944 -59.1113 276.037C-16.1401 281.175 30.4241 296.62 66.8491 302.397C99.2936 307.53 116.921 303.474 127.593 281.538C141.054 254.01 140.242 204.996 160.54 174.927C174.262 154.565 200.27 143.61 228.742 139.81C235.612 138.88 242.866 138.213 250.35 137.878C295.568 135.817 344.985 144.146 392.739 155.26C490.826 177.818 592.005 221.146 687.083 242.721C798.517 268.052 919.444 273.585 1037.26 293.676C1181.96 317.391 1296.2 392.308 1441.29 334.965C1624.41 260.751 1829.57 -44.282 1973.4 -255.256" stroke="#A3A3A3" stroke-width="1.0852" stroke-miterlimit="10"/>
<path opacity="0.4348" d="M-368.388 364.848C-355.711 370.836 -322.58 356.112 -297.771 338.495C-272.384 320.238 -248.899 299.944 -222.648 286.321C-176.552 262.294 -121.976 260.554 -74.9837 265.302C-31.7579 269.386 14.9754 282.68 52.1237 287.546C76.0703 290.377 107.505 291.484 115.089 268.46C125.924 235.544 132.081 195.721 153.117 168.145C167.836 148.809 195.521 138.936 224.374 135.641C231.396 134.822 238.785 134.254 246.393 134.003C292.221 132.458 341.828 140.76 389.948 151.864C488.01 174.239 589.309 217.123 684.226 239.257C795.226 265.183 915.642 270.898 1033.51 288.211C1178.1 308.689 1296.38 376.835 1442.28 319.652C1626.81 245.757 1831.91 -54.7948 1977.76 -266.254" stroke="#A3A3A3" stroke-width="1.0852" stroke-miterlimit="10"/>
<path opacity="0.413" d="M-374.742 358.008C-362.591 362.93 -330.836 347.987 -306.868 330.558C-282.38 312.541 -259.597 292.701 -234.197 279.09C-190.163 255.365 -137.121 251.587 -91.4017 255.034C-47.2257 258.089 -0.680658 269.92 37.315 273.814C61.2552 275.982 93.1519 276.959 102.249 256.389C115.481 226.372 122.814 187.156 145.633 161.716C162.064 143.364 190.655 134.465 219.958 131.613C227.131 130.897 234.657 130.425 242.391 130.251C288.821 129.187 338.655 137.465 387.151 148.565C485.249 170.777 586.57 213.077 681.506 235.905C792.271 262.574 911.89 268.516 1029.95 283.398C1174.46 301.071 1296.88 362.851 1443.14 304.753C1629.13 229.658 1832.45 -62.4937 1981.92 -276.935" stroke="#A3A3A3" stroke-width="1.0852" stroke-miterlimit="10"/>
<path opacity="0.3913" d="M-380.942 351.323C-369.279 355.214 -338.874 340.126 -315.747 322.921C-292.17 305.148 -269.495 284.307 -245.552 272.236C-202.279 250.341 -154.328 244.038 -107.751 245.428C-64.2045 246.576 -17.3107 256.849 20.8733 260.47C44.9847 262.478 76.9135 263.985 88.0565 244.645C104.391 216.257 113.435 179.216 138.066 155.593C156.207 138.188 185.658 130.157 215.485 127.705C222.812 127.087 230.476 126.7 238.338 126.602C285.371 125.986 335.455 134.247 384.344 145.348C482.536 167.418 583.882 209.092 678.919 232.646C789.559 260.101 908.378 266.487 1026.58 279.187C1170.78 294.336 1297.22 349.435 1443.87 290.302C1631.21 213.875 1832.81 -70.0472 1985.87 -287.294" stroke="#A3A3A3" stroke-width="1.0852" stroke-miterlimit="10"/>
<path opacity="0.3696" d="M-386.996 344.783C-375.778 347.68 -346.708 332.513 -324.424 315.56C-301.744 298.091 -279.842 277.808 -256.727 265.728C-215.136 243.92 -169.005 236.566 -124.028 236.452C-81.3801 236.211 -35.6782 244.32 2.18694 247.04C26.7456 248.553 58.576 249.956 72.3618 232.965C93.0877 207.388 103.905 171.746 130.373 149.735C150.224 133.242 180.507 125.98 210.929 123.899C218.413 123.371 226.258 122.98 234.206 123.04C281.737 123.373 331.944 131.04 381.5 142.203C479.839 164.145 581.22 205.163 676.437 229.47C787.045 257.732 905.068 264.768 1023.38 275.528C1098.19 282.21 1164.13 291.846 1235.45 301.394C1303.59 310.192 1369.78 306.564 1444.45 276.343C1633.03 198.449 1833 -77.4382 1989.6 -297.312" stroke="#A3A3A3" stroke-width="1.0852" stroke-miterlimit="10"/>
<path opacity="0.3478" d="M-392.913 338.379C-382.106 340.325 -354.827 325.164 -332.912 308.46C-310.921 291.546 -291.104 272.016 -267.727 259.545C-227.298 237.981 -183.552 229.594 -140.215 228.073C-98.6179 226.515 -54.2065 232.61 -16.8506 234.404C8.06967 235.379 39.5448 236.476 55.4835 221.521C80.1941 198.304 94.2218 164.618 122.525 144.091C144.088 128.479 175.191 121.903 206.279 120.164C213.921 119.722 221.905 119.416 229.99 119.536C278.118 120.218 328.685 127.942 378.617 139.103C477.158 160.936 578.587 201.269 674.053 226.344C784.71 255.429 901.941 263.31 1020.35 272.36C1094.11 277.925 1162.58 284.316 1234.17 291.938C1302.98 299.029 1370.03 293.674 1444.89 262.887C1634.59 183.4 1833.01 -84.6839 1993.11 -307.008" stroke="#A3A3A3" stroke-width="1.0852" stroke-miterlimit="10"/>
<path opacity="0.3261" d="M-398.699 332.106C-388.269 333.118 -362.255 318.004 -341.217 301.608C-320.099 285.028 -301.364 267.028 -278.556 253.667C-239.841 231.013 -196.846 222.955 -156.297 220.261C-115.988 217.486 -73.1947 222.057 -36.1834 222.547C-10.7495 222.711 19.8311 223.597 37.5396 210.367C66.2841 188.901 84.0503 157.981 114.498 138.617C137.773 123.855 169.704 117.898 201.523 116.485C209.328 116.124 217.456 115.903 225.676 116.079C274.412 117.092 325.355 124.879 375.681 136.041C474.472 157.778 575.97 197.412 671.75 223.257C782.525 253.163 898.979 262.072 1017.47 269.636C1090.31 274.256 1161.16 277.491 1233.01 283.155C1302.38 288.474 1370.21 281.355 1445.16 249.975C1635.87 168.772 1832.85 -91.7542 1996.4 -316.353" stroke="#A3A3A3" stroke-width="1.0852" stroke-miterlimit="10"/>
<path opacity="0.3043" d="M-404.366 325.953C-394.278 326.056 -369.514 311.045 -349.357 294.978C-329.117 278.736 -311.064 261.283 -289.223 248.068C-252.833 226.045 -211.477 216.424 -172.27 212.977C-132.562 209.417 -92.9254 210.072 -55.7621 211.444C-31.7449 212.109 1.48927 210.007 18.6414 199.557C51.2186 179.515 73.4382 151.646 106.266 133.275C131.255 119.335 164.035 113.939 196.651 112.837C204.62 112.555 212.893 112.414 221.252 112.645C270.607 113.979 321.941 121.828 372.683 133.003C471.771 154.663 573.362 193.583 669.516 220.191C780.464 250.905 896.159 261.009 1014.73 267.304C1086.89 271.139 1159.81 271.349 1231.96 275.041C1301.78 278.535 1370.27 269.611 1445.27 237.622C1636.93 154.571 1832.51 -98.7839 1999.46 -325.352" stroke="#A3A3A3" stroke-width="1.0852" stroke-miterlimit="10"/>
<path opacity="0.2826" d="M-409.919 319.913C-400.144 319.137 -376.621 304.276 -357.34 288.56C-337.977 272.679 -320.607 255.773 -299.737 242.732C-265.076 221.067 -225.68 210.724 -188.123 206.197C-149.828 201.522 -111.601 200.863 -75.5423 201.081C-51.5336 201.034 -19.3737 198.616 -1.10666 189.143C35.1835 170.153 62.4021 145.5 97.7977 128.028C124.509 114.886 158.171 110.007 191.641 109.211C199.782 109.006 208.202 108.944 216.705 109.226C266.691 110.87 318.432 118.79 369.606 129.98C469.039 151.576 570.742 189.778 667.327 217.135C778.5 248.632 893.454 260.088 1012.11 265.317C1083.92 268.501 1158.18 266.414 1231 267.594C1301.52 268.672 1370.01 258.565 1445.21 225.854C1637.64 140.856 1831.96 -105.478 2002.28 -333.988" stroke="#A3A3A3" stroke-width="1.0852" stroke-miterlimit="10"/>
<path opacity="0.2609" d="M-415.37 313.978C-405.881 312.347 -383.589 297.678 -365.178 282.334C-346.693 266.816 -329.622 249.408 -310.103 237.632C-275.955 217.078 -241.236 206.157 -203.848 199.88C-167.877 193.867 -130.782 191.967 -95.4698 191.417C-71.2857 190.879 -40.6901 187.841 -21.5949 179.15C18.4253 160.795 50.872 139.483 89.0731 122.824C117.809 110.344 152.297 106.46 186.486 105.572C194.695 105.348 203.375 105.457 212.023 105.793C262.655 107.742 314.817 115.736 366.443 126.948C466.263 148.493 568.108 185.985 665.174 214.065C776.608 246.304 890.854 259.256 1009.59 263.618C1081.43 266.269 1156.33 262.634 1230.15 260.793C1301.45 258.929 1369.5 248.192 1444.97 214.67C1638.04 127.626 1831.21 -111.99 2004.86 -342.268" stroke="#A3A3A3" stroke-width="1.0852" stroke-miterlimit="10"/>
<path opacity="0.2391" d="M-420.722 308.142C-411.494 305.676 -390.422 291.241 -372.882 276.288C-355.268 261.17 -338.927 244.386 -320.333 232.754C-287.989 212.562 -254.975 201.137 -219.438 193.994C-185.046 187.099 -149.424 184.069 -115.507 182.427C-91.618 181.136 -62.362 177.687 -42.7233 169.616C0.442666 151.683 40.0947 133.689 80.0721 117.639C109.756 105.694 146.014 102.438 181.176 101.914C189.578 101.775 198.399 101.949 207.201 102.338C258.497 104.591 311.094 112.666 363.188 123.906C463.436 145.414 565.45 182.203 663.047 210.974C774.774 243.905 888.421 258.484 1007.17 262.162C1079.09 264.405 1154.86 258.32 1229.34 254.702C1300.06 251.262 1369.91 237.994 1444.55 204.094C1637.85 115.249 1830.25 -118.261 2007.2 -350.172" stroke="#A3A3A3" stroke-width="1.0852" stroke-miterlimit="10"/>
<path opacity="0.2174" d="M-425.987 302.39C-416.999 299.113 -397.137 284.944 -380.469 270.397C-363.715 255.707 -348.437 240.611 -330.433 228.069C-300.645 207.316 -266.638 195.896 -234.891 188.501C-202.132 180.806 -167.74 177.078 -135.608 174.067C-109.662 171.538 -82.5957 167.555 -64.395 160.557C-18.4064 142.6 29.2728 127.684 70.7717 112.425C101.494 100.997 139.502 98.3651 175.698 98.2112C184.297 98.1577 193.265 98.3972 202.221 98.8398C254.197 101.397 307.242 109.562 359.824 120.833C460.538 142.32 562.747 178.425 660.917 207.839C772.957 241.41 886.407 257.751 1004.82 260.896C1142.94 265.223 1293.87 265.065 1443.95 194.116C1637.66 103.045 1829.11 -124.363 2009.29 -357.709" stroke="#A3A3A3" stroke-width="1.0852" stroke-miterlimit="10"/>
<path opacity="0.1957" d="M-431.17 296.722C-422.402 292.65 -403.746 278.78 -387.942 264.655C-372.054 250.39 -357.445 235.83 -340.41 223.567C-313.703 204.252 -279.57 190.611 -250.198 183.374C-218.576 175.447 -186.424 170.213 -155.732 166.304C-130.829 163.057 -104.82 158.663 -86.5141 151.986C-37.8206 133.788 18.0869 121.494 61.1587 107.15C93.096 96.2572 132.761 94.2282 170.048 94.4463C178.848 94.4784 187.971 94.7863 197.087 95.2844C249.763 98.1515 303.265 106.413 356.355 117.721C457.574 139.197 560.001 174.643 658.788 204.649C771.159 238.783 884.44 256.979 1002.53 259.771C1140.02 263.714 1292.32 257.706 1443.17 184.743C1637.15 91.3911 1827.76 -130.247 2011.13 -364.865" stroke="#A3A3A3" stroke-width="1.0852" stroke-miterlimit="10"/>
<path opacity="0.1739" d="M-436.282 291.125C-427.716 286.272 -410.262 272.73 -395.32 259.036C-380.293 245.209 -366.357 231.186 -350.28 219.218C-325.158 200.438 -293.176 186.504 -265.367 178.57C-235.477 169.93 -205.162 163.948 -175.855 159.086C-151.994 155.071 -127.253 150.361 -108.999 143.898C-58.1204 125.212 7.25231 115.253 51.21 101.773C84.0312 91.2541 125.774 89.982 164.208 90.5999C173.218 90.7196 182.497 91.0959 191.778 91.6496C245.173 94.831 299.148 103.199 352.76 114.552C454.523 136.032 557.207 170.841 656.627 201.385C769.319 236.007 882.489 256.124 1000.27 258.732C1137.42 262.463 1290.46 251.018 1442.2 175.964C1636.19 80.4038 1826.25 -136.022 2012.71 -371.642" stroke="#A3A3A3" stroke-width="1.0852" stroke-miterlimit="10"/>
<path opacity="0.1522" d="M-441.328 285.594C-432.948 279.975 -416.692 266.782 -402.611 253.533C-388.442 240.155 -375.176 226.671 -360.049 215.012C-336.485 196.786 -306.643 182.641 -280.396 174.065C-252.285 164.786 -223.662 157.958 -195.943 152.38C-173.319 147.776 -149.762 142.611 -131.771 136.302C-75.1912 116.117 -11.8108 108.38 40.9102 96.2699C78.159 87.5469 118.502 85.7232 158.172 86.6618C167.395 86.8734 176.834 87.3181 186.285 87.9317C240.42 91.438 294.875 99.9216 349.027 111.326C451.371 132.821 554.339 167.025 654.418 198.041C767.425 233.063 880.537 255.157 998.036 257.74C1135.18 261.42 1288.33 245.038 1441.04 167.78C1635 69.8955 1824.48 -141.463 2014.02 -378.028" stroke="#A3A3A3" stroke-width="1.0852" stroke-miterlimit="10"/>
<path opacity="0.1304" d="M-446.321 280.117C-438.114 273.746 -423.059 260.92 -409.834 248.122C-396.521 235.2 -383.985 222.263 -369.728 210.925C-347.138 192.953 -321.107 179.77 -295.286 169.82C-269.443 159.85 -243.085 152.711 -215.971 146.128C-194.584 140.907 -172.332 135.383 -154.75 129.17C-93.2721 107.172 -27.2895 98.8229 30.2487 90.5959C69.2951 84.8618 110.852 81.2379 151.931 82.6062C161.375 82.912 170.981 83.4293 180.605 84.1049C235.502 87.9469 290.479 96.5652 345.158 108.016C448.054 129.525 551.403 163.172 652.152 194.593C765.454 229.925 878.575 254.025 995.804 256.736C1133.2 260.518 1285.84 239.73 1439.68 160.164C1633.77 59.8044 1822.54 -146.722 2015.07 -384.027" stroke="#A3A3A3" stroke-width="1.0852" stroke-miterlimit="10"/>
<path opacity="0.1087" d="M-451.264 274.688C-443.22 267.571 -429.363 255.13 -416.992 242.794C-404.531 230.338 -392.665 217.944 -379.328 206.941C-358.196 189.506 -334.097 176.21 -310.041 165.804C-285.968 155.384 -261.343 147.507 -235.916 140.283C-215.866 134.566 -194.95 128.644 -177.868 122.484C-112.628 98.6132 -41.1867 90.925 19.2148 84.7205C59.3848 80.3633 103.084 76.5855 145.483 78.4199C155.154 78.8239 164.932 79.4183 174.735 80.158C230.416 84.3506 285.962 93.1229 341.148 104.623C444.555 126.138 548.4 159.283 649.817 191.035C763.378 226.581 876.593 252.695 993.561 255.675C1131.47 259.735 1283.38 234.962 1438.13 153.109C1631.89 50.4676 1820.33 -151.663 2015.86 -389.631" stroke="#A3A3A3" stroke-width="1.0852" stroke-miterlimit="10"/>
<path opacity="0.087" d="M-456.169 269.298C-448.277 261.443 -435.625 249.4 -424.103 237.53C-412.489 225.542 -401.289 213.697 -388.86 203.046C-369.165 186.164 -346.971 172.802 -324.67 161.99C-302.354 151.165 -279.461 142.611 -255.762 134.801C-237.082 128.626 -217.565 122.353 -201.066 116.222C-132.858 90.5571 -58.5655 82.762 5.55957 78.2251C48.5329 74.9583 94.3995 71.7513 138.813 74.0924C148.715 74.5991 158.683 75.2747 168.66 76.0829C225.077 80.6368 281.273 89.5801 336.977 101.136C440.923 122.666 545.321 155.345 647.384 187.355C761.149 223.017 874.556 251.13 991.276 254.514C1129.9 259.012 1280.75 230.748 1436.37 146.59C1629.68 41.7103 1817.88 -156.356 2016.36 -394.833" stroke="#A3A3A3" stroke-width="1.0852" stroke-miterlimit="10"/>
<path opacity="0.0652" d="M-461.042 263.938C-453.299 255.35 -441.852 243.713 -431.176 232.315C-420.412 220.802 -409.866 209.507 -398.331 199.217C-380.06 182.91 -359.738 169.518 -339.177 158.342C-318.603 147.156 -297.439 137.974 -275.497 129.625C-258.206 123.031 -240.145 116.459 -224.287 110.34C-153.652 82.8496 -77.8255 74.4088 -9.89334 71.2445C36.8186 68.8885 84.9921 66.697 131.92 69.5982C142.049 70.214 152.227 70.9772 162.379 71.8538C219.527 76.784 276.411 85.9155 332.648 97.5334C437.138 119.084 542.053 151.274 644.81 183.494C758.814 219.215 872.463 249.278 988.939 253.195C1128.45 258.29 1278 227.021 1434.42 140.573C1627.15 33.5174 1815.22 -160.805 2016.59 -399.641" stroke="#A3A3A3" stroke-width="1.0852" stroke-miterlimit="10"/>
<path opacity="0.0435" d="M-465.889 258.602C-458.29 249.283 -448.056 238.056 -438.225 227.135C-428.304 216.101 -418.409 205.357 -407.76 195.439C-390.89 179.723 -372.414 166.337 -353.575 154.832C-334.726 143.321 -315.28 133.544 -295.115 124.701C-279.225 117.725 -262.653 110.905 -247.485 104.801C-174.609 75.3327 -97.7511 65.7758 -25.9092 64.0099C24.9158 62.6586 75.1909 61.4571 124.8 64.9228C135.162 65.6433 145.558 66.5091 155.886 67.4606C213.786 72.7863 271.369 82.1251 328.152 93.8093C433.181 115.39 538.475 146.992 642.056 179.402C756.432 215.164 870.304 247.104 986.531 251.671C1126.98 257.525 1275.21 223.699 1432.27 135.028C1624.31 25.8786 1812.33 -165.015 2016.54 -404.054" stroke="#A3A3A3" stroke-width="1.0852" stroke-miterlimit="10"/>
<path opacity="0.0217" d="M-470.723 253.28C-463.265 243.227 -454.252 232.416 -445.264 221.976C-436.184 211.423 -426.93 201.237 -417.155 191.702C-401.665 176.592 -385.008 163.241 -367.875 151.439C-350.733 139.631 -332.999 129.296 -314.612 119.993C-300.131 112.664 -285.067 105.649 -270.62 99.5689C-195.665 67.9457 -117.3 57.461 -42.4493 56.548C12.2641 55.8361 64.9424 55.9408 117.447 60.0608C128.045 60.8925 138.668 61.8674 149.179 62.9C207.849 68.647 266.143 78.206 323.484 89.965C429.072 111.587 534.771 142.598 639.173 175.143C753.881 210.871 868.056 244.583 984.032 249.907C1125.41 256.682 1272.41 220.719 1429.92 129.931C1621.17 18.7995 1809.21 -168.97 2016.21 -408.05" stroke="#A3A3A3" stroke-width="1.0852" stroke-miterlimit="10"/>
</g>
</g>
</g>
</svg>
