<svg width="24" height="24" viewBox="0 0 24 24" fill="none" xmlns="http://www.w3.org/2000/svg">
<path d="M19.7727 7.00922L12.0008 13.8578L4.22716 7.00912C3.91763 6.73643 3.44581 6.76639 3.17322 7.07573C2.90072 7.38516 2.93039 7.85697 3.23992 8.12967L11.5073 15.4134C11.6484 15.5376 11.8247 15.5997 12.0009 15.5997C12.1771 15.5997 12.3535 15.5376 12.4946 15.4133L20.7603 8.12957C21.0696 7.85697 21.0994 7.38506 20.8268 7.07563C20.554 6.76649 20.0823 6.73662 19.7727 7.00922Z" fill="#1FA169"/>
<path d="M21.7599 3.83595H2.2401C1.00496 3.83595 0 4.8408 0 6.07604V17.9239C0 19.1591 1.00496 20.164 2.2401 20.164H21.7599C22.995 20.164 24 19.1591 24 17.9239V6.07604C24 4.8409 22.995 3.83595 21.7599 3.83595ZM22.5066 17.9239C22.5066 18.3355 22.1717 18.6706 21.7599 18.6706H2.2401C1.82832 18.6706 1.4934 18.3355 1.4934 17.9239V6.07604C1.4934 5.66436 1.82832 5.32934 2.2401 5.32934H21.7599C22.1717 5.32934 22.5066 5.66436 22.5066 6.07604V17.9239Z" fill="#1FA169"/>
</svg>
