<svg width="32" height="32" viewBox="0 0 32 32" fill="none" xmlns="http://www.w3.org/2000/svg">
<g clip-path="url(#clip0_327_2158)">
<rect x="5" y="5" width="23" height="23" fill="#E5E7E7"/>
<path d="M31.4546 5.72364C31.3129 4.3988 30.7219 3.16241 29.7797 2.22027C28.8376 1.27813 27.6012 0.687063 26.2764 0.545458C19.4473 -0.183121 12.56 -0.183121 5.73091 0.545458C4.40476 0.685501 3.16668 1.27588 2.22308 2.21816C1.27947 3.16044 0.687362 4.39769 0.545458 5.72364C-0.183121 12.5527 -0.183121 19.44 0.545458 26.2691C0.685176 27.5954 1.27545 28.8336 2.21779 29.7773C3.16013 30.721 4.39756 31.313 5.72364 31.4545C12.5527 32.1831 19.44 32.1831 26.2691 31.4545C27.5954 31.3148 28.8336 30.7246 29.7773 29.7822C30.721 28.8399 31.313 27.6024 31.4546 26.2764C32.1836 19.4449 32.1836 12.5552 31.4546 5.72364ZM21.0691 14.1073L20.7473 16.8927C20.7343 17.0201 20.6748 17.1381 20.5802 17.2244C20.4856 17.3106 20.3625 17.3589 20.2346 17.36H17.3255L17.3109 25.6236C17.3119 25.7216 17.2743 25.8159 17.2063 25.8864C17.1382 25.9568 17.0452 25.9976 16.9473 26H14C13.951 26 13.9025 25.9902 13.8574 25.971C13.8123 25.9518 13.7716 25.9237 13.7376 25.8884C13.7036 25.8531 13.6772 25.8113 13.6598 25.7654C13.6424 25.7196 13.6344 25.6708 13.6364 25.6218V17.36H11.4545C11.386 17.3593 11.3183 17.3451 11.2553 17.3182C11.1922 17.2913 11.1351 17.2523 11.0872 17.2033C11.0392 17.1544 11.0014 17.0964 10.9758 17.0328C10.9503 16.9693 10.9375 16.9013 10.9382 16.8327L10.9273 14.0455C10.9263 13.9767 10.9389 13.9084 10.9643 13.8445C10.9898 13.7806 11.0275 13.7223 11.0755 13.673C11.1234 13.6237 11.1806 13.5844 11.2438 13.5572C11.307 13.53 11.3749 13.5155 11.4436 13.5145H13.6364V10.8236C13.6364 7.7 15.4909 6 18.2109 6H20.44C20.5089 6.00071 20.577 6.01503 20.6404 6.04211C20.7038 6.0692 20.7612 6.10854 20.8093 6.15786C20.8575 6.20719 20.8954 6.26553 20.9209 6.32955C20.9465 6.39357 20.9591 6.46199 20.9582 6.53091V8.87819C20.9591 8.9471 20.9465 9.01553 20.9209 9.07955C20.8954 9.14357 20.8575 9.20191 20.8093 9.25123C20.7612 9.30056 20.7038 9.33989 20.6404 9.36698C20.577 9.39407 20.5089 9.40838 20.44 9.40909H19.0727C17.5946 9.40909 17.3073 10.1364 17.3073 11.1855V13.5145H20.5564C20.6303 13.5157 20.7032 13.5325 20.7703 13.5638C20.8373 13.5951 20.897 13.6402 20.9454 13.6962C20.9938 13.7521 21.0298 13.8177 21.0511 13.8885C21.0725 13.9594 21.0786 14.0339 21.0691 14.1073Z" fill="#1FA169"/>
</g>
<defs>
<clipPath id="clip0_327_2158">
<rect width="32" height="32" fill="white"/>
</clipPath>
</defs>
</svg>
