<svg width="32" height="32" viewBox="0 0 32 32" fill="none" xmlns="http://www.w3.org/2000/svg">
<g clip-path="url(#clip0_327_2153)">
<rect x="4" y="5" width="23" height="23" fill="#E5E7E7"/>
<path d="M20.0418 8.01273H11.9582C11.4401 8.01249 10.9271 8.11432 10.4485 8.3124C9.96979 8.51048 9.53483 8.80093 9.16844 9.16715C8.80205 9.53338 8.5114 9.9682 8.3131 10.4468C8.1148 10.9254 8.01273 11.4383 8.01273 11.9564V20.04C8.01249 20.5582 8.11438 21.0714 8.31258 21.5501C8.51077 22.0289 8.80138 22.464 9.1678 22.8304C9.53421 23.1968 9.96925 23.4874 10.448 23.6856C10.9268 23.8838 11.44 23.9857 11.9582 23.9855H20.0418C20.56 23.9857 21.0732 23.8838 21.552 23.6856C22.0308 23.4874 22.4658 23.1968 22.8322 22.8304C23.1986 22.464 23.4892 22.0289 23.6874 21.5501C23.8856 21.0714 23.9875 20.5582 23.9873 20.04V11.9564C23.9873 11.4383 23.8852 10.9254 23.6869 10.4468C23.4886 9.9682 23.198 9.53338 22.8316 9.16715C22.4652 8.80093 22.0302 8.51048 21.5515 8.3124C21.0729 8.11432 20.5599 8.01249 20.0418 8.01273ZM16 21.1727C14.9769 21.1727 13.9768 20.8694 13.1262 20.301C12.2755 19.7326 11.6125 18.9247 11.221 17.9795C10.8295 17.0343 10.7271 15.9943 10.9267 14.9909C11.1263 13.9874 11.6189 13.0658 12.3423 12.3423C13.0658 11.6189 13.9874 11.1263 14.9909 10.9267C15.9943 10.7271 17.0343 10.8295 17.9795 11.221C18.9247 11.6125 19.7326 12.2755 20.301 13.1262C20.8694 13.9768 21.1727 14.9769 21.1727 16C21.1708 17.3713 20.6252 18.6859 19.6556 19.6555C18.6859 20.6252 17.3713 21.1708 16 21.1727ZM21.2018 12.1036C20.9501 12.1036 20.704 12.029 20.4947 11.8891C20.2854 11.7493 20.1223 11.5505 20.026 11.318C19.9296 11.0854 19.9044 10.8295 19.9536 10.5826C20.0027 10.3357 20.1239 10.109 20.3019 9.93096C20.4799 9.75296 20.7066 9.63175 20.9535 9.58264C21.2004 9.53353 21.4563 9.55874 21.6889 9.65507C21.9214 9.7514 22.1202 9.91452 22.2601 10.1238C22.3999 10.3331 22.4746 10.5792 22.4746 10.8309C22.4746 11.1685 22.3405 11.4922 22.1018 11.7309C21.8631 11.9695 21.5394 12.1036 21.2018 12.1036ZM16 12.8382C15.3747 12.8382 14.7634 13.0236 14.2434 13.371C13.7234 13.7185 13.3182 14.2123 13.0789 14.79C12.8396 15.3678 12.7769 16.0035 12.8989 16.6168C13.0209 17.2302 13.3221 17.7936 13.7643 18.2357C14.2065 18.6779 14.7698 18.9791 15.3832 19.1011C15.9965 19.2231 16.6322 19.1605 17.21 18.9211C17.7877 18.6818 18.2815 18.2766 18.629 17.7566C18.9764 17.2367 19.1618 16.6254 19.1618 16C19.1618 15.1614 18.8287 14.3572 18.2357 13.7643C17.6428 13.1713 16.8386 12.8382 16 12.8382ZM20.0418 8.01273H11.9582C11.4401 8.01249 10.9271 8.11432 10.4485 8.3124C9.96979 8.51048 9.53483 8.80093 9.16844 9.16715C8.80205 9.53338 8.5114 9.9682 8.3131 10.4468C8.1148 10.9254 8.01273 11.4383 8.01273 11.9564V20.04C8.01249 20.5582 8.11438 21.0714 8.31258 21.5501C8.51077 22.0289 8.80138 22.464 9.1678 22.8304C9.53421 23.1968 9.96925 23.4874 10.448 23.6856C10.9268 23.8838 11.44 23.9857 11.9582 23.9855H20.0418C20.56 23.9857 21.0732 23.8838 21.552 23.6856C22.0308 23.4874 22.4658 23.1968 22.8322 22.8304C23.1986 22.464 23.4892 22.0289 23.6874 21.5501C23.8856 21.0714 23.9875 20.5582 23.9873 20.04V11.9564C23.9873 11.4383 23.8852 10.9254 23.6869 10.4468C23.4886 9.9682 23.198 9.53338 22.8316 9.16715C22.4652 8.80093 22.0302 8.51048 21.5515 8.3124C21.0729 8.11432 20.5599 8.01249 20.0418 8.01273ZM16 21.1727C14.9769 21.1727 13.9768 20.8694 13.1262 20.301C12.2755 19.7326 11.6125 18.9247 11.221 17.9795C10.8295 17.0343 10.7271 15.9943 10.9267 14.9909C11.1263 13.9874 11.6189 13.0658 12.3423 12.3423C13.0658 11.6189 13.9874 11.1263 14.9909 10.9267C15.9943 10.7271 17.0343 10.8295 17.9795 11.221C18.9247 11.6125 19.7326 12.2755 20.301 13.1262C20.8694 13.9768 21.1727 14.9769 21.1727 16C21.1708 17.3713 20.6252 18.6859 19.6556 19.6555C18.6859 20.6252 17.3713 21.1708 16 21.1727ZM21.2018 12.1036C20.9501 12.1036 20.704 12.029 20.4947 11.8891C20.2854 11.7493 20.1223 11.5505 20.026 11.318C19.9296 11.0854 19.9044 10.8295 19.9536 10.5826C20.0027 10.3357 20.1239 10.109 20.3019 9.93096C20.4799 9.75296 20.7066 9.63175 20.9535 9.58264C21.2004 9.53353 21.4563 9.55874 21.6889 9.65507C21.9214 9.7514 22.1202 9.91452 22.2601 10.1238C22.3999 10.3331 22.4746 10.5792 22.4746 10.8309C22.4746 11.1685 22.3405 11.4922 22.1018 11.7309C21.8631 11.9695 21.5394 12.1036 21.2018 12.1036ZM16 12.8382C15.3747 12.8382 14.7634 13.0236 14.2434 13.371C13.7234 13.7185 13.3182 14.2123 13.0789 14.79C12.8396 15.3678 12.7769 16.0035 12.8989 16.6168C13.0209 17.2302 13.3221 17.7936 13.7643 18.2357C14.2065 18.6779 14.7698 18.9791 15.3832 19.1011C15.9965 19.2231 16.6322 19.1605 17.21 18.9211C17.7877 18.6818 18.2815 18.2766 18.629 17.7566C18.9764 17.2367 19.1618 16.6254 19.1618 16C19.1618 15.1614 18.8287 14.3572 18.2357 13.7643C17.6428 13.1713 16.8386 12.8382 16 12.8382ZM31.4546 5.72182C31.3129 4.39718 30.7217 3.16104 29.7796 2.2192C28.8374 1.27736 27.6011 0.686664 26.2764 0.545458C19.4473 -0.183121 12.56 -0.183121 5.73091 0.545458C4.40492 0.685102 3.16687 1.27511 2.22324 2.21709C1.27961 3.15906 0.687428 4.39607 0.545458 5.72182C-0.183121 12.5509 -0.183121 19.4382 0.545458 26.2673C0.684785 27.5939 1.27488 28.8326 2.21726 29.7766C3.15964 30.7206 4.39729 31.3129 5.72364 31.4545C12.5526 32.1867 19.4402 32.1867 26.2691 31.4545C27.5956 31.3148 28.8341 30.7242 29.7778 29.7815C30.7215 28.8388 31.3134 27.6009 31.4546 26.2745C32.1836 19.443 32.1836 12.5533 31.4546 5.72182ZM26 20.04C25.999 21.6201 25.3711 23.1352 24.2539 24.2527C23.1368 25.3701 21.6219 25.9986 20.0418 26H11.9582C10.3783 25.9981 8.86361 25.3695 7.7466 24.2521C6.62959 23.1348 6.00145 21.6199 6 20.04V11.9564C6.00193 10.3769 6.63034 8.86274 7.74735 7.74607C8.86436 6.6294 10.3787 6.00145 11.9582 6H20.0418C21.6213 6.00145 23.1356 6.6294 24.2527 7.74607C25.3697 8.86274 25.9981 10.3769 26 11.9564V20.04ZM20.0418 8.01273H11.9582C11.4401 8.01249 10.9271 8.11432 10.4485 8.3124C9.96979 8.51048 9.53483 8.80093 9.16844 9.16715C8.80205 9.53338 8.5114 9.9682 8.3131 10.4468C8.1148 10.9254 8.01273 11.4383 8.01273 11.9564V20.04C8.01249 20.5582 8.11438 21.0714 8.31258 21.5501C8.51077 22.0289 8.80138 22.464 9.1678 22.8304C9.53421 23.1968 9.96925 23.4874 10.448 23.6856C10.9268 23.8838 11.44 23.9857 11.9582 23.9855H20.0418C20.56 23.9857 21.0732 23.8838 21.552 23.6856C22.0308 23.4874 22.4658 23.1968 22.8322 22.8304C23.1986 22.464 23.4892 22.0289 23.6874 21.5501C23.8856 21.0714 23.9875 20.5582 23.9873 20.04V11.9564C23.9873 11.4383 23.8852 10.9254 23.6869 10.4468C23.4886 9.9682 23.198 9.53338 22.8316 9.16715C22.4652 8.80093 22.0302 8.51048 21.5515 8.3124C21.0729 8.11432 20.5599 8.01249 20.0418 8.01273ZM16 21.1727C14.9769 21.1727 13.9768 20.8694 13.1262 20.301C12.2755 19.7326 11.6125 18.9247 11.221 17.9795C10.8295 17.0343 10.7271 15.9943 10.9267 14.9909C11.1263 13.9874 11.6189 13.0658 12.3423 12.3423C13.0658 11.6189 13.9874 11.1263 14.9909 10.9267C15.9943 10.7271 17.0343 10.8295 17.9795 11.221C18.9247 11.6125 19.7326 12.2755 20.301 13.1262C20.8694 13.9768 21.1727 14.9769 21.1727 16C21.1708 17.3713 20.6252 18.6859 19.6556 19.6555C18.6859 20.6252 17.3713 21.1708 16 21.1727ZM21.2018 12.1036C20.9501 12.1036 20.704 12.029 20.4947 11.8891C20.2854 11.7493 20.1223 11.5505 20.026 11.318C19.9296 11.0854 19.9044 10.8295 19.9536 10.5826C20.0027 10.3357 20.1239 10.109 20.3019 9.93096C20.4799 9.75296 20.7066 9.63175 20.9535 9.58264C21.2004 9.53353 21.4563 9.55874 21.6889 9.65507C21.9214 9.7514 22.1202 9.91452 22.2601 10.1238C22.3999 10.3331 22.4746 10.5792 22.4746 10.8309C22.4746 11.1685 22.3405 11.4922 22.1018 11.7309C21.8631 11.9695 21.5394 12.1036 21.2018 12.1036ZM16 12.8382C15.3747 12.8382 14.7634 13.0236 14.2434 13.371C13.7234 13.7185 13.3182 14.2123 13.0789 14.79C12.8396 15.3678 12.7769 16.0035 12.8989 16.6168C13.0209 17.2302 13.3221 17.7936 13.7643 18.2357C14.2065 18.6779 14.7698 18.9791 15.3832 19.1011C15.9965 19.2231 16.6322 19.1605 17.21 18.9211C17.7877 18.6818 18.2815 18.2766 18.629 17.7566C18.9764 17.2367 19.1618 16.6254 19.1618 16C19.1618 15.1614 18.8287 14.3572 18.2357 13.7643C17.6428 13.1713 16.8386 12.8382 16 12.8382Z" fill="#1FA169"/>
</g>
<defs>
<clipPath id="clip0_327_2153">
<rect width="32" height="32" rx="10" fill="white"/>
</clipPath>
</defs>
</svg>
