<svg width="24" height="24" viewBox="0 0 24 24" fill="none" xmlns="http://www.w3.org/2000/svg">
<path d="M20.1868 3.14396C18.1593 1.11641 15.4634 -0.000113402 12.5962 8.63884e-09C12.1263 8.63884e-09 11.7456 0.380832 11.7456 0.850577C11.7456 1.32032 12.1264 1.70115 12.5962 1.70115C15.0091 1.70104 17.2776 2.64065 18.9839 4.3469C20.6903 6.05316 21.6299 8.32182 21.6298 10.7349C21.6298 11.2046 22.0105 11.5854 22.4803 11.5854C22.9501 11.5854 23.3309 11.2046 23.3309 10.735C23.331 7.86739 22.2145 5.17151 20.1868 3.14396Z" fill="#1FA169"/>
<path d="M16.6879 10.735C16.6879 11.2047 17.0687 11.5855 17.5386 11.5854C18.0083 11.5854 18.3891 11.2046 18.3891 10.7349C18.3888 7.54122 15.7902 4.94265 12.5963 4.9422C12.5962 4.9422 12.5964 4.9422 12.5963 4.9422C12.1266 4.9422 11.7457 5.32292 11.7456 5.79266C11.7456 6.26241 12.1263 6.64324 12.5961 6.64335C14.8521 6.64369 16.6877 8.47913 16.6879 10.735Z" fill="#1FA169"/>
<path d="M14.8058 15.0718C13.5093 15.0046 12.8488 15.9689 12.5321 16.432C12.2668 16.8198 12.3661 17.3491 12.7539 17.6143C13.1416 17.8796 13.6709 17.7802 13.9362 17.3925C14.3105 16.8453 14.48 16.7592 14.71 16.7701C15.4461 16.8566 18.3455 18.9813 18.6358 19.6456C18.7086 19.8412 18.7059 20.033 18.6278 20.2663C18.3234 21.1697 17.8195 21.8046 17.1703 22.1022C16.5536 22.3849 15.7975 22.3593 14.9842 22.0284C11.9474 20.7906 9.29431 19.0633 7.09869 16.8942C7.09778 16.8933 7.09688 16.8925 7.09608 16.8916C4.93153 14.6981 3.20736 12.0484 1.97164 9.01624C1.64059 8.20229 1.61496 7.44607 1.89769 6.82946C2.19528 6.1803 2.83015 5.67642 3.73279 5.37236C3.96687 5.29388 4.1583 5.29139 4.35212 5.36352C5.01886 5.65487 7.14337 8.55409 7.22911 9.28196C7.24136 9.52057 7.1546 9.69001 6.60785 10.0636C6.21999 10.3285 6.1203 10.8578 6.38534 11.2457C6.65027 11.6335 7.17944 11.7331 7.56742 11.4682C8.03081 11.1518 8.9948 10.4931 8.92789 9.19214C8.85417 7.83325 6.2108 4.23463 4.94775 3.77022C4.38603 3.56086 3.79516 3.55723 3.19091 3.76001C1.83135 4.21785 0.849443 5.03417 0.351345 6.12065C-0.131783 7.17468 -0.116472 8.39758 0.396142 9.6578C1.71862 12.9027 3.56891 15.7419 5.89552 18.0969C5.90119 18.1027 5.90697 18.1083 5.91287 18.1139C8.26614 20.4362 11.1021 22.2831 14.3427 23.604C14.9916 23.8679 15.6307 24 16.2418 24C16.8173 24 17.3682 23.883 17.8792 23.6487C18.9658 23.1507 19.782 22.1689 20.2402 20.8084C20.4425 20.2053 20.4393 19.6147 20.2315 19.0555C19.7655 17.7891 16.1669 15.1457 14.8058 15.0718Z" fill="#1FA169"/>
</svg>
