<svg width="32" height="32" viewBox="0 0 32 32" fill="none" xmlns="http://www.w3.org/2000/svg">
<g clip-path="url(#clip0_327_2148)">
<rect x="4" y="5" width="23" height="23" fill="#E5E7E7"/>
<path d="M31.4546 5.72182C31.3129 4.39718 30.7217 3.16104 29.7796 2.2192C28.8374 1.27736 27.6011 0.686664 26.2764 0.545458C19.4473 -0.183121 12.56 -0.183121 5.73091 0.545458C4.40492 0.685102 3.16687 1.27511 2.22324 2.21709C1.27961 3.15906 0.687428 4.39607 0.545458 5.72182C-0.183121 12.5509 -0.183121 19.4382 0.545458 26.2673C0.684785 27.5939 1.27488 28.8326 2.21726 29.7766C3.15964 30.7206 4.39729 31.3129 5.72364 31.4545C12.5526 32.1867 19.4402 32.1867 26.2691 31.4545C27.5956 31.3148 28.8341 30.7242 29.7778 29.7815C30.7215 28.8388 31.3134 27.6009 31.4546 26.2745C32.1836 19.443 32.1836 12.5533 31.4546 5.72182ZM26.3255 10.1273C25.8508 10.8369 25.2729 11.4718 24.6109 12.0109C24.5251 12.0792 24.4558 12.166 24.4082 12.2649C24.3607 12.3638 24.3361 12.4721 24.3364 12.5818V12.6491C24.3277 14.0743 24.0655 15.4867 23.5618 16.82C23.0422 18.2213 22.27 19.5154 21.2836 20.6382C20.2516 21.8146 18.986 22.7632 17.5673 23.4236C17.1761 23.6057 16.7742 23.7636 16.3636 23.8964C15.111 24.304 13.8009 24.5078 12.4836 24.5C10.3974 24.4973 8.34887 23.9434 6.54546 22.8945C6.48066 22.8581 6.42969 22.8013 6.40044 22.7329C6.37119 22.6645 6.36528 22.5884 6.38364 22.5164C6.40193 22.4451 6.44356 22.382 6.50189 22.3372C6.56023 22.2924 6.6319 22.2684 6.70546 22.2691H7.20364C8.78896 22.2686 10.3381 21.7951 11.6527 20.9091C10.8696 20.7805 10.1369 20.4391 9.53472 19.9222C8.93253 19.4053 8.48401 18.7328 8.23819 17.9782C8.22574 17.9409 8.22328 17.9009 8.23105 17.8624C8.23882 17.8238 8.25654 17.7879 8.28246 17.7583C8.30838 17.7287 8.34159 17.7064 8.3788 17.6937C8.41601 17.6809 8.45591 17.678 8.49455 17.6855C8.7343 17.731 8.97778 17.7542 9.22182 17.7545H9.31273C8.55347 17.4057 7.91157 16.8443 7.46466 16.1383C7.01776 15.4323 6.785 14.6119 6.79455 13.7764C6.79538 13.7373 6.80625 13.6992 6.82612 13.6655C6.84598 13.6319 6.87418 13.604 6.90798 13.5844C6.94179 13.5649 6.98006 13.5544 7.01911 13.5539C7.05815 13.5535 7.09666 13.5631 7.13091 13.5818C7.43907 13.7532 7.76948 13.8811 8.11273 13.9618C7.43325 13.2898 6.99591 12.4113 6.86924 11.464C6.74256 10.5168 6.93371 9.55425 7.41273 8.72728C7.43117 8.69671 7.45666 8.67099 7.48706 8.65229C7.51747 8.63359 7.55191 8.62243 7.58751 8.61976C7.62311 8.61709 7.65883 8.62298 7.69168 8.63694C7.72454 8.6509 7.75358 8.67253 7.77637 8.7C8.72918 9.87607 9.90845 10.8488 11.2442 11.5606C12.58 12.2724 14.0452 12.7087 15.5527 12.8436H15.5691C15.5915 12.8433 15.6136 12.8383 15.634 12.8289C15.6543 12.8195 15.6725 12.806 15.6873 12.7891C15.7017 12.7729 15.7126 12.7538 15.7191 12.7332C15.7257 12.7125 15.7279 12.6907 15.7255 12.6691C15.6691 12.1411 15.7035 11.6073 15.8273 11.0909C15.9357 10.6388 16.1201 10.2085 16.3727 9.81818C16.9026 8.98482 17.7103 8.36585 18.6527 8.07091C19.0948 7.93294 19.5551 7.86245 20.0182 7.86182C21.0683 7.86012 22.0829 8.24227 22.8709 8.93637C22.9713 9.02558 23.1003 9.07589 23.2346 9.07819C23.2788 9.07745 23.3227 9.07135 23.3655 9.06C24.1057 8.87309 24.8154 8.58103 25.4727 8.19273C25.512 8.16912 25.5576 8.15804 25.6033 8.16098C25.6491 8.16392 25.6928 8.18072 25.7288 8.20916C25.7647 8.23761 25.7911 8.27633 25.8045 8.32017C25.8179 8.36401 25.8176 8.41088 25.8036 8.45455C25.5837 9.14238 25.1934 9.76344 24.6691 10.26C25.1419 10.1479 25.6033 9.99212 26.0473 9.79455C26.0921 9.77459 26.1421 9.76978 26.1899 9.78085C26.2377 9.79191 26.2805 9.81826 26.312 9.85588C26.3435 9.8935 26.3618 9.94034 26.3642 9.98932C26.3666 10.0383 26.353 10.0867 26.3255 10.1273Z" fill="#1FA169"/>
</g>
<defs>
<clipPath id="clip0_327_2148">
<rect width="32" height="32" fill="white"/>
</clipPath>
</defs>
</svg>
