<svg width="1440" height="384" viewBox="0 0 1440 384" fill="none" xmlns="http://www.w3.org/2000/svg">
<g opacity="0.35" clip-path="url(#clip0_249_2297)">
<mask id="mask0_249_2297" style="mask-type:luminance" maskUnits="userSpaceOnUse" x="-142" y="-581" width="2272" height="1387">
<path d="M2129.44 804.575C2096.45 799.313 2061.31 795.412 2023.74 793.165C1485.29 760.978 1395.65 549.22 1299.02 320.956C1282.29 281.429 1265.35 241.406 1245.81 201.676C1179.6 67.0828 1107.37 -59.6047 991.595 -124.986C875.794 -190.382 716.521 -194.406 476.328 -83.5977C236.631 26.9755 80.0843 52.8081 -15.2495 -21.2255C-110.623 -95.2916 -144.931 -269.377 -140.116 -558.603C-139.992 -566.075 -139.923 -573.481 -139.896 -580.835L-141.301 -580.835C-141.326 -573.49 -141.395 -566.091 -141.519 -558.628C-146.343 -268.934 -111.884 -94.4941 -16.1064 -20.1161C79.7119 54.2954 236.706 28.4917 476.918 -82.3204C716.63 -192.904 875.486 -188.946 990.904 -123.766C1106.35 -58.571 1178.45 67.9096 1244.55 202.296C1264.04 241.925 1280.99 281.963 1297.73 321.506C1394.53 550.184 1484.33 762.328 2023.66 794.568C2061.27 796.816 2096.43 800.721 2129.44 805.995L2129.44 804.575Z" fill="white"/>
</mask>
<g mask="url(#mask0_249_2297)">
<path d="M2129.44 -580.835L2129.44 805.995L-146.343 805.995L-146.343 -580.835L2129.44 -580.835Z" fill="#B3B3B3"/>
</g>
<mask id="mask1_249_2297" style="mask-type:luminance" maskUnits="userSpaceOnUse" x="-145" y="-581" width="2275" height="1396">
<path d="M2129.44 813.004C2102.1 809.632 2073.35 807.206 2043.05 805.862C1504.17 781.974 1411.28 571.621 1311.15 344.868C1293.81 305.604 1276.26 265.843 1256.11 226.425C1187.84 92.8667 1113.67 -32.6936 996.899 -96.2829C880.106 -159.885 720.791 -161.452 482.327 -46.9591C244.363 67.2969 88.2325 95.5362 -8.22873 22.9767C-104.733 -49.6094 -141.717 -223.147 -141.354 -512.412C-141.325 -535.806 -141.777 -558.615 -142.68 -580.835L-144.086 -580.835C-143.182 -558.619 -142.731 -535.81 -142.759 -512.416C-143.122 -222.684 -105.981 -48.7957 -9.07248 24.0981C87.8787 97.0239 244.458 68.8077 482.935 -45.695C720.914 -159.957 879.812 -158.443 996.223 -95.0508C1112.66 -31.6422 1186.7 93.714 1254.86 227.066C1274.96 266.393 1292.53 306.164 1309.87 345.442C1410.18 572.602 1503.24 783.336 2042.99 807.264C2073.32 808.608 2102.09 811.042 2129.44 814.421L2129.44 813.004Z" fill="white"/>
</mask>
<g mask="url(#mask1_249_2297)">
<path d="M2129.44 -580.835L2129.44 814.421L-144.087 814.421L-144.087 -580.835L2129.44 -580.835Z" fill="#B3B3B3"/>
</g>
<mask id="mask2_249_2297" style="mask-type:luminance" maskUnits="userSpaceOnUse" x="-150" y="-581" width="2280" height="1405">
<path d="M2129.44 822.421C2107.82 820.498 2085.44 819.101 2062.07 818.425C1522.88 802.841 1426.76 593.944 1323.16 368.766C1305.2 329.748 1287.03 290.241 1266.3 251.181C1195.98 118.691 1119.89 -5.70915 1002.15 -67.4938C884.389 -129.292 725.071 -128.405 488.4 -10.252C252.222 107.656 96.5434 138.295 -1.02292 67.2339C-98.6328 -3.85917 -138.285 -176.805 -142.375 -466.042C-142.942 -506.053 -144.873 -544.354 -148.084 -580.835L-149.488 -580.835C-146.277 -544.354 -144.343 -506.048 -143.777 -466.025C-139.68 -176.319 -99.8684 -3.0239 -1.84982 68.3679C96.2143 139.791 252.341 109.166 489.027 -8.99714C725.222 -126.912 884.123 -127.847 1001.49 -66.2518C1118.89 -4.64659 1194.85 119.554 1265.06 251.841C1285.79 290.897 1303.95 330.37 1321.88 369.353C1425.68 594.94 1521.97 804.22 2062.02 819.829C2085.42 820.505 2107.81 821.904 2129.44 823.832L2129.44 822.421L2129.44 822.421Z" fill="white"/>
</mask>
<g mask="url(#mask2_249_2297)">
<path d="M2129.44 -580.835L2129.44 823.832L-149.489 823.832L-149.488 -580.835L2129.44 -580.835Z" fill="#B3B3B3"/>
</g>
<mask id="mask3_249_2297" style="mask-type:luminance" maskUnits="userSpaceOnUse" x="-158" y="-581" width="2288" height="1416">
<path d="M2129.44 832.606C2113.63 831.724 2097.48 831.088 2080.78 830.864C1541.41 823.587 1442.1 616.194 1335.03 392.637C1316.48 353.896 1297.69 314.669 1276.37 275.941C1204.02 144.554 1126.03 21.3406 1007.35 -38.6245C888.651 -98.5997 729.364 -95.2596 494.542 26.5261C260.206 148.059 105.02 181.093 6.36917 111.542C-92.3235 41.9622 -134.633 -130.353 -143.175 -419.492C-144.873 -476.957 -149.333 -530.849 -156.301 -580.835L-157.716 -580.835C-150.741 -530.848 -146.277 -476.944 -144.579 -419.454C-136.021 -129.846 -93.5454 42.8153 5.56107 112.688C104.711 182.595 260.348 149.566 495.189 27.7714C729.54 -93.7684 888.409 -97.1522 1006.72 -37.3739C1125.04 22.4148 1202.9 145.433 1275.14 276.624C1296.48 315.364 1315.24 354.548 1333.77 393.247C1441.03 617.209 1540.53 824.978 2080.76 832.266C2097.47 832.492 2113.62 833.129 2129.44 834.011L2129.44 832.606L2129.44 832.606Z" fill="white"/>
</mask>
<g mask="url(#mask3_249_2297)">
<path d="M2129.44 -580.835L2129.44 834.011L-157.717 834.011L-157.716 -580.835L2129.44 -580.835Z" fill="#B3B3B3"/>
</g>
<mask id="mask4_249_2297" style="mask-type:luminance" maskUnits="userSpaceOnUse" x="-170" y="-581" width="2300" height="1426">
<path d="M2129.44 843.515C2119.52 843.279 2109.44 843.158 2099.19 843.177C1559.78 844.212 1457.27 638.374 1346.79 416.494C1327.64 378.056 1308.26 339.136 1286.33 300.719C1211.97 170.458 1132.08 48.458 1012.5 -9.67015C892.896 -67.8083 733.681 -62.0134 500.758 63.3737C268.322 188.501 113.661 223.924 13.9517 155.899C-85.8005 87.8461 -130.758 -83.7962 -143.75 -372.769C-147.164 -448.696 -155.305 -518.314 -167.59 -580.835L-169.016 -580.835C-156.717 -518.317 -148.568 -448.679 -145.152 -372.707C-132.136 -83.2669 -87.0092 88.7219 13.1614 157.058C113.375 225.428 268.483 190.007 501.421 64.6096C733.873 -60.525 892.67 -66.3555 1011.88 -8.4049C1131.12 49.5542 1210.87 171.356 1285.12 301.414C1307.03 339.799 1326.4 378.702 1345.53 417.122C1456.22 639.406 1558.91 845.618 2099.19 844.583C2109.44 844.562 2119.52 844.684 2129.44 844.921L2129.44 843.515Z" fill="white"/>
</mask>
<g mask="url(#mask4_249_2297)">
<path d="M2129.44 -580.835L2129.44 845.618L-169.016 845.618L-169.016 -580.835L2129.44 -580.835Z" fill="#B3B3B3"/>
</g>
<mask id="mask5_249_2297" style="mask-type:luminance" maskUnits="userSpaceOnUse" x="-184" y="-581" width="2314" height="1439">
<path d="M2129.44 855.314C2125.38 855.342 2121.4 855.304 2117.29 855.375C1577.96 864.719 1472.3 660.484 1358.41 440.335C1338.68 402.187 1318.7 363.561 1296.18 325.501C1219.82 196.401 1138.07 75.6472 1017.6 19.368C897.119 -36.92 738.012 -28.6744 507.045 100.289C276.564 228.981 122.468 266.783 21.7241 200.301C-79.0644 133.795 -126.659 -37.1343 -144.098 -325.872C-149.876 -421.525 -163.009 -507.036 -182.315 -580.835L-183.76 -580.835C-164.427 -507.052 -151.281 -421.511 -145.499 -325.791C-128.031 -36.5835 -80.26 134.687 20.949 201.475C122.205 268.292 276.749 230.484 507.73 101.512C738.226 -27.1864 896.917 -35.4641 1017.01 20.6448C1137.12 76.7581 1218.73 197.318 1294.97 326.219C1317.48 364.274 1337.45 402.868 1357.17 440.982C1471.27 661.535 1577.11 866.14 2117.31 856.782C2121.42 856.711 2125.39 856.749 2129.44 856.72L2129.44 855.314L2129.44 855.314Z" fill="white"/>
</mask>
<g mask="url(#mask5_249_2297)">
<path d="M2129.44 -580.835L2129.44 866.14L-183.76 866.14L-183.76 -580.835L2129.44 -580.835Z" fill="#B3B3B3"/>
</g>
<mask id="mask6_249_2297" style="mask-type:luminance" maskUnits="userSpaceOnUse" x="-203" y="-581" width="2333" height="1451">
<path d="M2129.44 867.614C1595.25 883.653 1486.76 681.761 1369.91 464.163C1349.59 426.327 1329.02 388.018 1305.92 350.299C1227.58 222.391 1143.98 102.912 1022.66 48.4968C901.324 -5.93114 742.361 4.76569 513.409 137.27C284.936 269.496 131.44 309.667 29.6848 244.748C-72.1167 179.798 -122.336 9.62466 -144.219 -278.812C-153.093 -395.811 -172.761 -497.439 -201.011 -580.835L-202.488 -580.835C-174.195 -497.474 -154.499 -395.807 -145.615 -278.707C-123.697 10.199 -73.2973 180.714 28.9285 245.933C131.2 311.182 285.146 270.999 514.115 138.485C742.603 6.24829 901.145 -4.47167 1022.08 49.7756C1143.05 104.038 1226.51 223.325 1304.72 351.035C1327.81 388.733 1348.37 427.017 1368.67 464.825C1485.73 682.813 1594.42 885.073 2129.44 869.019L2129.44 867.614Z" fill="white"/>
</mask>
<g mask="url(#mask6_249_2297)">
<path d="M2129.44 -580.835L2129.44 885.073L-202.488 885.073L-202.488 -580.835L2129.44 -580.835Z" fill="#B3B3B3"/>
</g>
<mask id="mask7_249_2297" style="mask-type:luminance" maskUnits="userSpaceOnUse" x="-227" y="-581" width="2357" height="1465">
<path d="M2129.44 880.415C1610.56 899.557 1500.14 701.374 1381.28 487.973C1360.38 450.463 1339.23 412.48 1315.54 375.115C1235.25 248.429 1149.81 130.249 1027.68 77.7089C905.515 25.1574 746.734 38.3003 519.85 174.317C293.437 310.049 140.579 352.581 37.8369 289.235C-64.9511 225.864 -117.785 56.482 -144.106 -231.584C-156.946 -372.106 -185.04 -490.169 -224.493 -580.834L-226.022 -580.834C-186.501 -490.242 -158.354 -372.13 -145.5 -231.457C-119.137 57.0745 -66.1176 226.793 37.0987 290.428C140.365 354.096 293.672 311.545 520.573 175.523C747 39.7802 905.358 26.6184 1027.12 78.9979C1148.9 131.386 1234.19 249.376 1314.36 375.865C1338.02 413.195 1359.17 451.163 1380.05 488.659C1499.14 702.446 1609.75 900.984 2129.44 881.822L2129.44 880.415Z" fill="white"/>
</mask>
<g mask="url(#mask7_249_2297)">
<path d="M2129.44 -580.835L2129.44 900.984L-226.022 900.984L-226.022 -580.835L2129.44 -580.835Z" fill="#B3B3B3"/>
</g>
<mask id="mask8_249_2297" style="mask-type:luminance" maskUnits="userSpaceOnUse" x="-256" y="-581" width="2386" height="1478">
<path d="M2129.44 893.447C1625.63 915.358 1513.3 720.956 1392.53 511.778C1371.06 474.603 1349.33 436.961 1325.06 399.944C1242.82 274.51 1155.58 157.662 1032.65 107.009C909.688 56.3449 751.13 71.9327 526.365 211.428C302.072 350.632 149.884 395.512 46.1814 333.761C-57.5713 271.978 -113.005 103.431 -143.757 -184.196C-161.63 -351.377 -200.671 -486.339 -254.156 -580.835L-255.76 -580.835C-202.172 -486.485 -163.051 -351.453 -145.153 -184.049C-114.352 104.043 -58.726 272.924 45.4595 334.963C149.694 397.032 302.329 352.126 527.11 212.62C751.419 73.408 909.556 57.8086 1032.11 108.306C1154.68 158.811 1241.77 275.472 1323.89 400.715C1348.1 437.655 1369.84 475.301 1391.31 512.481C1512.3 722.038 1624.83 916.788 2129.44 894.852L2129.44 893.447Z" fill="white"/>
</mask>
<g mask="url(#mask8_249_2297)">
<path d="M2129.44 -580.835L2129.44 916.788L-255.76 916.788L-255.76 -580.835L2129.44 -580.835Z" fill="#B3B3B3"/>
</g>
<mask id="mask9_249_2297" style="mask-type:luminance" maskUnits="userSpaceOnUse" x="-295" y="-581" width="2425" height="1492">
<path d="M2129.44 906.769C1640.32 931.166 1526.22 740.528 1403.64 535.574C1381.6 498.728 1359.29 461.422 1334.46 424.792C1250.3 300.639 1161.27 185.149 1037.57 136.396C913.851 87.6329 755.552 105.661 532.96 248.603C310.836 391.246 159.359 438.466 54.7146 378.317C-49.9758 318.14 -107.997 150.469 -143.173 -136.651C-167.498 -335.203 -221.071 -487.704 -292.371 -580.408L-292.703 -580.835L-294.483 -580.835L-293.485 -579.548C-222.331 -487.033 -168.858 -334.774 -144.565 -136.48C-109.333 151.1 -51.114 319.104 54.0152 379.532C159.19 439.985 311.116 392.735 533.721 249.783C755.862 107.133 913.739 89.0986 1037.06 137.702C1160.4 186.316 1249.27 301.62 1333.3 425.581C1358.09 462.151 1380.4 499.455 1402.43 536.295C1525.23 741.62 1639.54 932.599 2129.44 908.172L2129.44 906.769Z" fill="white"/>
</mask>
<g mask="url(#mask9_249_2297)">
<path d="M2129.44 -580.835L2129.44 932.599L-294.483 932.599L-294.483 -580.835L2129.44 -580.835Z" fill="#B3B3B3"/>
</g>
<mask id="mask10_249_2297" style="mask-type:luminance" maskUnits="userSpaceOnUse" x="-350" y="-581" width="2480" height="1506">
<path d="M2129.44 920.37C1654.65 946.985 1538.91 760.09 1414.63 559.362C1392.03 522.868 1369.15 485.913 1343.75 449.661C1257.69 326.819 1166.89 212.714 1042.46 165.871C918.004 119.02 759.999 139.486 539.636 285.839C319.734 431.886 168.999 481.434 63.4439 422.904C-42.1618 364.347 -102.759 197.587 -142.349 -88.9549C-169.727 -287.109 -225.643 -438.764 -298.361 -530.36C-313.94 -549.984 -330.295 -566.853 -347.307 -580.836L-349.531 -580.836C-332.119 -566.706 -315.387 -549.542 -299.461 -529.483C-226.892 -438.076 -171.082 -286.657 -143.737 -88.7615C-104.083 198.243 -43.2861 365.329 62.7598 424.131C168.853 482.957 320.035 433.371 540.412 287.008C760.329 140.951 917.912 120.487 1041.96 167.186C1166.04 213.892 1256.68 327.813 1342.6 450.465C1367.95 486.637 1390.83 523.601 1413.43 560.105C1537.94 761.196 1653.89 948.429 2129.44 921.777L2129.44 920.37Z" fill="white"/>
</mask>
<g mask="url(#mask10_249_2297)">
<path d="M2129.44 -580.835L2129.44 948.429L-349.531 948.429L-349.531 -580.835L2129.44 -580.835Z" fill="#B3B3B3"/>
</g>
<mask id="mask11_249_2297" style="mask-type:luminance" maskUnits="userSpaceOnUse" x="-571" y="-577" width="2701" height="1516">
<path d="M2129.44 934.168C1668.74 962.7 1551.37 779.628 1425.49 583.148C1402.33 547.01 1378.89 510.418 1352.93 474.552C1264.99 353.05 1172.44 240.355 1047.31 195.437C922.142 150.508 764.471 173.406 546.388 323.135C328.759 472.553 178.805 524.416 72.3613 467.521C-34.1318 410.599 -97.2861 244.79 -141.283 -41.1092C-171.709 -238.816 -229.953 -389.593 -304.072 -480.055C-345.057 -530.079 -390.911 -561.68 -439.616 -572.604C-481.737 -582.05 -525.966 -576.027 -570.999 -553.084L-570.999 -551.508C-526.046 -574.564 -481.917 -580.655 -439.923 -571.235C-391.536 -560.384 -345.947 -528.943 -305.159 -479.162C-231.191 -388.883 -173.057 -238.342 -142.671 -40.8919C-98.6028 245.467 -35.2409 411.596 71.699 468.756C178.687 525.944 329.086 474.034 547.185 324.294C764.83 174.864 922.077 151.975 1046.83 196.758C1171.61 241.548 1263.99 354.06 1351.8 475.372C1377.69 511.142 1401.14 547.751 1424.3 583.905C1550.41 780.744 1667.99 964.149 2129.44 935.576L2129.44 934.168Z" fill="white"/>
</mask>
<g mask="url(#mask11_249_2297)">
<path d="M2129.44 -582.049L2129.44 964.149L-570.999 964.149L-570.999 -582.05L2129.44 -582.049Z" fill="#B3B3B3"/>
</g>
<mask id="mask12_249_2297" style="mask-type:luminance" maskUnits="userSpaceOnUse" x="-571" y="-524" width="2701" height="1477">
<path d="M2129.44 948.22C1682.48 978.427 1563.6 799.167 1436.22 606.932C1412.49 571.125 1388.47 534.87 1362 499.461C1272.2 379.333 1177.94 268.082 1052.11 225.093C926.273 182.098 768.974 207.422 553.221 360.492C337.92 513.246 188.783 567.411 81.475 512.161C-25.8813 456.887 -91.582 292.074 -139.975 6.8879C-173.439 -190.324 -233.998 -340.188 -309.504 -429.502C-351.256 -478.89 -397.59 -509.782 -446.455 -519.953C-486.656 -528.322 -528.552 -522.661 -570.999 -501.743L-570.999 -500.177C-528.629 -521.201 -486.828 -526.92 -446.741 -518.576C-398.189 -508.471 -352.12 -477.739 -310.573 -428.594C-235.226 -339.471 -174.782 -189.842 -141.361 7.11983C-92.8889 292.768 -26.9758 457.905 80.8301 513.411C188.685 568.942 338.267 514.718 554.036 361.635C769.357 208.872 926.234 183.564 1051.66 226.419C1177.11 269.28 1271.21 380.356 1360.88 500.306C1387.36 535.728 1411.35 571.943 1435.05 607.707C1562.66 800.291 1681.76 979.874 2129.44 949.629L2129.44 948.22Z" fill="white"/>
</mask>
<g mask="url(#mask12_249_2297)">
<path d="M2129.44 -528.321L2129.44 979.874L-570.999 979.874L-570.999 -528.322L2129.44 -528.321Z" fill="#B3B3B3"/>
</g>
<mask id="mask13_249_2297" style="mask-type:luminance" maskUnits="userSpaceOnUse" x="-571" y="-471" width="2701" height="1434">
<path d="M1946.99 962.847C1657.86 938.705 1555.36 789.163 1446.82 630.715C1422.55 595.273 1397.96 559.388 1370.96 524.402C1279.32 405.668 1183.36 295.881 1056.89 254.836C930.401 213.786 773.509 241.53 560.138 397.908C347.213 553.959 198.929 610.415 90.7805 556.824C-17.4133 503.21 -85.6445 339.43 -138.42 55.0217C-174.916 -141.653 -237.776 -290.564 -314.646 -378.705C-357.152 -427.441 -403.956 -457.617 -452.971 -467.033C-491.311 -474.4 -530.987 -469.069 -570.999 -449.99L-570.999 -448.427C-531.06 -467.609 -491.47 -473.002 -453.238 -465.655C-404.538 -456.3 -358 -426.277 -315.7 -377.777C-238.991 -289.825 -176.25 -141.145 -139.801 55.2771C-86.9382 340.144 -18.49 504.245 90.1586 558.083C198.853 611.944 347.583 555.427 560.97 399.036C773.912 242.974 930.382 215.255 1056.45 256.17C1182.55 297.094 1278.35 406.709 1369.85 525.263C1396.88 560.281 1421.43 596.117 1445.67 631.507C1552.47 787.417 1653.43 934.715 1931.39 962.847L1946.99 962.847ZM2129.44 962.534C2127.89 962.646 2126.37 962.74 2124.82 962.847L2129.44 962.847L2129.44 962.534Z" fill="white"/>
</mask>
<g mask="url(#mask13_249_2297)">
<path d="M2129.44 -474.4L2129.44 962.847L-570.999 962.847L-570.999 -474.4L2129.44 -474.4Z" fill="#B3B3B3"/>
</g>
<mask id="mask14_249_2297" style="mask-type:luminance" maskUnits="userSpaceOnUse" x="-571" y="-417" width="2420" height="1380">
<path d="M1848.79 962.847C1642.88 916.558 1552.35 788.766 1457.3 654.496C1432.49 619.45 1407.37 583.96 1379.81 549.367C1286.35 432.058 1188.7 323.762 1061.62 284.671C934.519 245.575 778.076 275.73 567.137 435.378C356.637 594.691 209.239 653.426 100.281 601.509C-8.72447 549.568 -79.4687 386.857 -136.618 103.293C-176.136 -92.7918 -241.28 -240.718 -319.5 -327.663C-362.752 -375.74 -410.015 -405.19 -459.169 -413.852C-495.708 -420.291 -533.274 -415.24 -571 -397.821L-571 -396.274C-533.341 -413.788 -495.854 -418.89 -459.414 -412.47C-410.574 -403.864 -363.581 -374.564 -320.54 -326.722C-242.487 -239.962 -177.464 -92.2673 -137.995 103.571C-80.7531 387.59 -9.78746 550.617 99.6767 602.775C209.188 654.958 357.03 596.155 567.983 436.498C778.497 277.174 934.522 247.045 1061.21 286.015C1187.92 324.992 1285.4 433.116 1378.71 550.245C1406.26 584.815 1431.36 620.283 1456.16 655.31C1550.43 788.49 1640.23 915.332 1842.17 962.847L1848.79 962.847Z" fill="white"/>
</mask>
<g mask="url(#mask14_249_2297)">
<path d="M1848.79 -420.291L1848.79 962.847L-571 962.847L-571 -420.291L1848.79 -420.291Z" fill="#B3B3B3"/>
</g>
<mask id="mask15_249_2297" style="mask-type:luminance" maskUnits="userSpaceOnUse" x="-571" y="-363" width="2369" height="1326">
<path d="M1797.89 962.847C1636.24 908.766 1553.76 796.046 1467.65 678.285C1442.3 643.62 1416.64 608.519 1388.55 574.363C1293.3 458.51 1194 351.732 1066.33 314.602C938.635 277.466 782.673 310.03 574.219 472.904C366.198 635.443 219.72 696.442 109.974 646.208C0.181046 595.953 -73.058 434.35 -134.564 151.703C-177.099 -43.7564 -244.51 -190.659 -324.057 -276.387C-368.043 -323.791 -415.754 -352.511 -465.038 -360.412C-499.842 -365.994 -535.415 -361.193 -570.998 -345.267L-570.998 -343.726C-535.476 -359.744 -499.976 -364.594 -465.261 -359.028C-416.297 -351.177 -368.86 -322.604 -325.088 -275.431C-245.704 -189.88 -178.415 -43.204 -135.937 152.002C-74.3298 435.106 -0.861922 597.02 109.391 647.484C219.693 697.974 366.613 636.899 575.084 474.012C783.12 311.464 938.662 278.935 1065.93 315.948C1193.23 352.967 1292.36 459.578 1387.47 575.256C1415.54 609.406 1441.19 644.479 1466.52 679.116C1552.07 796.119 1634.06 908.154 1793.35 962.847L1797.89 962.847Z" fill="white"/>
</mask>
<g mask="url(#mask15_249_2297)">
<path d="M1797.89 -365.994L1797.89 962.847L-570.998 962.847L-570.998 -365.994L1797.89 -365.994Z" fill="#B3B3B3"/>
</g>
<mask id="mask16_249_2297" style="mask-type:luminance" maskUnits="userSpaceOnUse" x="-571" y="-309" width="2334" height="1272">
<path d="M1762.6 962.847C1631.83 905.88 1556.32 805.965 1477.87 702.081C1452 667.823 1425.81 633.137 1397.18 599.387C1300.16 485.015 1199.22 379.776 1071 344.62C942.751 309.456 787.309 344.417 581.384 510.486C375.889 676.209 230.369 739.458 119.865 690.923C9.31105 642.365 -66.4067 481.908 -132.258 200.241C-177.797 5.465 -247.462 -140.384 -328.321 -224.878C-373.032 -271.601 -421.18 -299.581 -470.579 -306.724C-503.723 -311.515 -537.416 -306.927 -571 -292.33L-571 -290.797C-537.471 -305.482 -503.842 -310.115 -470.778 -305.335C-421.698 -298.238 -373.826 -270.4 -329.334 -223.907C-248.645 -139.592 -179.108 6.03092 -133.627 200.562C-67.6709 482.681 8.2798 643.444 119.297 692.203C230.365 740.988 376.329 677.658 582.266 511.579C787.774 345.845 942.797 310.925 1070.62 345.973C1198.48 381.028 1299.24 486.098 1396.11 600.296C1424.69 633.982 1450.88 668.669 1476.75 702.928C1554.74 806.202 1629.82 905.557 1758.97 962.847L1762.6 962.847Z" fill="white"/>
</mask>
<g mask="url(#mask16_249_2297)">
<path d="M1762.6 -311.515L1762.6 962.847L-570.999 962.847L-570.999 -311.515L1762.6 -311.515Z" fill="#B3B3B3"/>
</g>
</g>
<defs>
<clipPath id="clip0_249_2297">
<rect width="1544" height="2701" fill="white" transform="matrix(4.37114e-08 -1 -1 -4.37114e-08 2130 964)"/>
</clipPath>
</defs>
</svg>
