<svg width="1920" height="1191" viewBox="0 0 1920 1191" fill="none" xmlns="http://www.w3.org/2000/svg">
<g clip-path="url(#clip0_52_10017)">
<rect width="1920" height="1191" fill="white"/>
<g opacity="0.35" clip-path="url(#clip1_52_10017)">
<mask id="mask0_52_10017" style="mask-type:luminance" maskUnits="userSpaceOnUse" x="-12" y="-291" width="2272" height="1387">
<path d="M2259.44 1094.57C2226.45 1089.31 2191.31 1085.41 2153.74 1083.17C1615.29 1050.98 1525.65 839.22 1429.02 610.956C1412.29 571.429 1395.35 531.406 1375.81 491.676C1309.6 357.083 1237.37 230.395 1121.6 165.014C1005.79 99.6181 846.521 95.5941 606.328 206.402C366.631 316.976 210.084 342.808 114.751 268.775C19.377 194.708 -14.9306 20.6232 -10.1162 -268.603C-9.99164 -276.075 -9.92255 -283.481 -9.89642 -290.835L-11.3012 -290.835C-11.3259 -283.49 -11.3952 -276.091 -11.5195 -268.628C-16.3427 21.0663 18.1165 195.506 113.894 269.884C209.712 344.295 366.706 318.492 606.918 207.68C846.63 97.096 1005.49 101.054 1120.9 166.234C1236.35 231.429 1308.45 357.91 1374.55 492.296C1394.04 531.925 1410.99 571.963 1427.73 611.506C1524.53 840.184 1614.33 1052.33 2153.66 1084.57C2191.27 1086.82 2226.43 1090.72 2259.44 1095.99L2259.44 1094.57Z" fill="white"/>
</mask>
<g mask="url(#mask0_52_10017)">
<path d="M2259.44 -290.835L2259.44 1095.99L-16.3433 1095.99L-16.3432 -290.835L2259.44 -290.835Z" fill="#B3B3B3"/>
</g>
<mask id="mask1_52_10017" style="mask-type:luminance" maskUnits="userSpaceOnUse" x="-15" y="-291" width="2275" height="1396">
<path d="M2259.44 1103C2232.1 1099.63 2203.35 1097.21 2173.05 1095.86C1634.17 1071.97 1541.28 861.621 1441.15 634.868C1423.81 595.604 1406.26 555.843 1386.11 516.425C1317.84 382.867 1243.67 257.306 1126.9 193.717C1010.11 130.115 850.791 128.548 612.327 243.041C374.363 357.297 218.232 385.536 121.771 312.977C25.2669 240.391 -11.7175 66.8534 -11.3537 -222.412C-11.3249 -245.806 -11.7766 -268.615 -12.6799 -290.835L-14.0864 -290.835C-13.1818 -268.619 -12.7309 -245.81 -12.7595 -222.416C-13.122 67.3159 24.0193 241.204 120.928 314.098C217.879 387.024 374.458 358.808 612.935 244.305C850.914 130.043 1009.81 131.557 1126.22 194.949C1242.66 258.358 1316.7 383.714 1384.86 517.066C1404.96 556.393 1422.53 596.164 1439.87 635.442C1540.18 862.602 1633.24 1073.34 2172.99 1097.26C2203.32 1098.61 2232.09 1101.04 2259.44 1104.42L2259.44 1103Z" fill="white"/>
</mask>
<g mask="url(#mask1_52_10017)">
<path d="M2259.44 -290.835L2259.44 1104.42L-14.0869 1104.42L-14.0869 -290.835L2259.44 -290.835Z" fill="#B3B3B3"/>
</g>
<mask id="mask2_52_10017" style="mask-type:luminance" maskUnits="userSpaceOnUse" x="-20" y="-291" width="2280" height="1405">
<path d="M2259.44 1112.42C2237.82 1110.5 2215.44 1109.1 2192.07 1108.42C1652.88 1092.84 1556.76 883.944 1453.16 658.766C1435.2 619.748 1417.03 580.241 1396.3 541.181C1325.98 408.691 1249.89 284.291 1132.15 222.506C1014.39 160.708 855.071 161.595 618.4 279.748C382.222 397.656 226.543 428.295 128.977 357.234C31.3672 286.141 -8.28536 113.195 -12.3754 -176.042C-12.9416 -216.053 -14.8735 -254.354 -18.0839 -290.835L-19.488 -290.835C-16.2766 -254.354 -14.3432 -216.048 -13.7773 -176.025C-9.67989 113.681 30.1316 286.976 128.15 358.368C226.214 429.791 382.341 399.166 619.027 281.003C855.222 163.088 1014.12 162.153 1131.49 223.748C1248.89 285.353 1324.85 409.554 1395.06 541.841C1415.79 580.897 1433.95 620.37 1451.88 659.353C1555.68 884.94 1651.97 1094.22 2192.02 1109.83C2215.42 1110.51 2237.81 1111.9 2259.44 1113.83L2259.44 1112.42L2259.44 1112.42Z" fill="white"/>
</mask>
<g mask="url(#mask2_52_10017)">
<path d="M2259.44 -290.835L2259.44 1113.83L-19.4885 1113.83L-19.4885 -290.835L2259.44 -290.835Z" fill="#B3B3B3"/>
</g>
<mask id="mask3_52_10017" style="mask-type:luminance" maskUnits="userSpaceOnUse" x="-28" y="-291" width="2288" height="1416">
<path d="M2259.44 1122.61C2243.63 1121.72 2227.48 1121.09 2210.78 1120.86C1671.41 1113.59 1572.1 906.194 1465.03 682.637C1446.48 643.896 1427.69 604.669 1406.37 565.941C1334.02 434.554 1256.03 311.341 1137.35 251.376C1018.65 191.4 859.364 194.74 624.542 316.526C390.206 438.059 235.02 471.093 136.369 401.542C37.6765 331.962 -4.63301 159.647 -13.175 -129.492C-14.8735 -186.957 -19.3327 -240.849 -26.3007 -290.835L-27.7165 -290.835C-20.7409 -240.848 -16.277 -186.944 -14.5793 -129.454C-6.02095 160.154 36.4546 332.815 135.561 402.688C234.711 472.595 390.348 439.566 625.189 317.771C859.54 196.232 1018.41 192.848 1136.72 252.626C1255.04 312.415 1332.9 435.433 1405.14 566.624C1426.48 605.364 1445.24 644.548 1463.77 683.247C1571.03 907.209 1670.53 1114.98 2210.76 1122.27C2227.47 1122.49 2243.62 1123.13 2259.44 1124.01L2259.44 1122.61L2259.44 1122.61Z" fill="white"/>
</mask>
<g mask="url(#mask3_52_10017)">
<path d="M2259.44 -290.835L2259.44 1124.01L-27.7166 1124.01L-27.7165 -290.835L2259.44 -290.835Z" fill="#B3B3B3"/>
</g>
<mask id="mask4_52_10017" style="mask-type:luminance" maskUnits="userSpaceOnUse" x="-40" y="-291" width="2300" height="1426">
<path d="M2259.44 1133.52C2249.52 1133.28 2239.44 1133.16 2229.19 1133.18C1689.78 1134.21 1587.27 928.374 1476.79 706.494C1457.64 668.056 1438.26 629.136 1416.33 590.719C1341.97 460.458 1262.08 338.458 1142.5 280.33C1022.9 222.192 863.681 227.987 630.758 353.374C398.322 478.501 243.661 513.924 143.952 445.899C44.1995 377.846 -0.757528 206.204 -13.7504 -82.7685C-17.1645 -158.696 -25.3054 -228.314 -37.5895 -290.835L-39.0161 -290.835C-26.7167 -228.317 -18.5678 -158.679 -15.1516 -82.7074C-2.13643 206.733 42.9908 378.722 143.161 447.058C243.375 515.428 398.483 480.007 631.421 354.61C863.873 229.475 1022.67 223.645 1141.88 281.595C1261.12 339.554 1340.87 461.356 1415.12 591.414C1437.03 629.799 1456.4 668.702 1475.53 707.122C1586.22 929.406 1688.91 1135.62 2229.19 1134.58C2239.44 1134.56 2249.52 1134.68 2259.44 1134.92L2259.44 1133.52Z" fill="white"/>
</mask>
<g mask="url(#mask4_52_10017)">
<path d="M2259.44 -290.835L2259.44 1135.62L-39.0161 1135.62L-39.0161 -290.835L2259.44 -290.835Z" fill="#B3B3B3"/>
</g>
<mask id="mask5_52_10017" style="mask-type:luminance" maskUnits="userSpaceOnUse" x="-54" y="-291" width="2314" height="1439">
<path d="M2259.44 1145.31C2255.38 1145.34 2251.4 1145.3 2247.29 1145.38C1707.96 1154.72 1602.3 950.484 1488.41 730.335C1468.68 692.187 1448.7 653.561 1426.18 615.501C1349.82 486.401 1268.07 365.647 1147.6 309.368C1027.12 253.08 868.012 261.326 637.045 390.289C406.564 518.981 252.468 556.783 151.724 490.301C50.9356 423.795 3.34086 252.866 -14.0978 -35.8723C-19.8757 -131.525 -33.0087 -217.036 -52.3151 -290.835L-53.7602 -290.835C-34.4274 -217.052 -21.2814 -131.511 -15.4995 -35.7909C1.96903 253.416 49.74 424.687 150.949 491.475C252.205 558.292 406.749 520.484 637.73 391.512C868.226 262.814 1026.92 254.536 1147.01 310.645C1267.12 366.758 1348.73 487.318 1424.97 616.219C1447.48 654.274 1467.45 692.868 1487.17 730.982C1601.27 951.535 1707.11 1156.14 2247.31 1146.78C2251.42 1146.71 2255.39 1146.75 2259.44 1146.72L2259.44 1145.31L2259.44 1145.31Z" fill="white"/>
</mask>
<g mask="url(#mask5_52_10017)">
<path d="M2259.44 -290.835L2259.44 1156.14L-53.7598 1156.14L-53.7597 -290.835L2259.44 -290.835Z" fill="#B3B3B3"/>
</g>
<mask id="mask6_52_10017" style="mask-type:luminance" maskUnits="userSpaceOnUse" x="-73" y="-291" width="2333" height="1451">
<path d="M2259.44 1157.61C1725.25 1173.65 1616.76 971.761 1499.91 754.163C1479.59 716.327 1459.02 678.018 1435.92 640.299C1357.58 512.391 1273.98 392.912 1152.66 338.497C1031.32 284.069 872.361 294.766 643.409 427.27C414.936 559.496 261.44 599.667 159.685 534.748C57.8833 469.798 7.66434 299.625 -14.2187 11.1885C-23.0935 -105.811 -42.7612 -207.439 -71.0114 -290.835L-72.4877 -290.835C-44.1953 -207.474 -24.4987 -105.807 -15.6154 11.2935C6.30302 300.199 56.7027 470.714 158.928 535.933C261.2 601.182 415.146 560.999 644.115 428.485C872.603 296.248 1031.15 285.528 1152.08 339.776C1273.05 394.038 1356.51 513.325 1434.72 641.035C1457.81 678.733 1478.37 717.017 1498.67 754.825C1615.73 972.813 1724.42 1175.07 2259.44 1159.02L2259.44 1157.61Z" fill="white"/>
</mask>
<g mask="url(#mask6_52_10017)">
<path d="M2259.44 -290.835L2259.44 1175.07L-72.4878 1175.07L-72.4877 -290.835L2259.44 -290.835Z" fill="#B3B3B3"/>
</g>
<mask id="mask7_52_10017" style="mask-type:luminance" maskUnits="userSpaceOnUse" x="-97" y="-291" width="2357" height="1465">
<path d="M2259.44 1170.41C1740.56 1189.56 1630.14 991.374 1511.28 777.973C1490.38 740.463 1469.23 702.48 1445.54 665.115C1365.25 538.429 1279.81 420.249 1157.68 367.709C1035.51 315.157 876.734 328.3 649.85 464.317C423.437 600.049 270.579 642.581 167.837 579.235C65.0489 515.864 12.2146 346.482 -14.1062 58.4164C-26.9455 -82.1064 -55.0397 -200.169 -94.4929 -290.834L-96.0217 -290.834C-56.5014 -200.242 -28.3539 -82.1297 -15.5 58.5434C10.8628 347.074 63.8824 516.793 167.099 580.428C270.365 644.096 423.672 601.545 650.573 465.523C877 329.78 1035.36 316.618 1157.12 368.998C1278.9 421.386 1364.19 539.376 1444.36 665.865C1468.02 703.195 1489.17 741.163 1510.05 778.659C1629.14 992.446 1739.75 1190.98 2259.44 1171.82L2259.44 1170.41Z" fill="white"/>
</mask>
<g mask="url(#mask7_52_10017)">
<path d="M2259.44 -290.835L2259.44 1190.98L-96.0217 1190.98L-96.0217 -290.835L2259.44 -290.835Z" fill="#B3B3B3"/>
</g>
<mask id="mask8_52_10017" style="mask-type:luminance" maskUnits="userSpaceOnUse" x="-126" y="-291" width="2386" height="1478">
<path d="M2259.44 1183.45C1755.63 1205.36 1643.3 1010.96 1522.53 801.778C1501.06 764.603 1479.33 726.961 1455.06 689.944C1372.82 564.51 1285.58 447.662 1162.65 397.009C1039.69 346.345 881.13 361.933 656.365 501.428C432.072 640.632 279.884 685.512 176.181 623.761C72.4287 561.978 16.9949 393.431 -13.7565 105.804C-31.6303 -61.3768 -70.6706 -196.339 -124.156 -290.835L-125.76 -290.835C-72.1716 -196.485 -33.0512 -61.4529 -15.1533 105.951C15.648 394.043 71.274 562.924 175.459 624.963C279.694 687.032 432.329 642.126 657.11 502.62C881.419 363.408 1039.56 347.809 1162.11 398.306C1284.68 448.811 1371.77 565.472 1453.89 690.715C1478.1 727.655 1499.84 765.301 1521.31 802.481C1642.3 1012.04 1754.83 1206.79 2259.44 1184.85L2259.44 1183.45Z" fill="white"/>
</mask>
<g mask="url(#mask8_52_10017)">
<path d="M2259.44 -290.835L2259.44 1206.79L-125.76 1206.79L-125.76 -290.835L2259.44 -290.835Z" fill="#B3B3B3"/>
</g>
<mask id="mask9_52_10017" style="mask-type:luminance" maskUnits="userSpaceOnUse" x="-165" y="-291" width="2425" height="1492">
<path d="M2259.44 1196.77C1770.32 1221.17 1656.22 1030.53 1533.64 825.574C1511.6 788.728 1489.29 751.422 1464.46 714.792C1380.3 590.639 1291.27 475.149 1167.57 426.396C1043.85 377.633 885.552 395.661 662.96 538.603C440.836 681.246 289.359 728.466 184.715 668.317C80.0242 608.14 22.003 440.469 -13.173 153.349C-37.4985 -45.2027 -91.0715 -197.704 -162.371 -290.408L-162.703 -290.835L-164.483 -290.835L-163.485 -289.548C-92.331 -197.033 -38.8579 -44.7743 -14.5651 153.52C20.6668 441.1 78.886 609.104 184.015 669.532C289.19 729.985 441.116 682.735 663.721 539.783C885.862 397.133 1043.74 379.099 1167.06 427.702C1290.4 476.316 1379.27 591.62 1463.3 715.581C1488.09 752.151 1510.4 789.455 1532.43 826.295C1655.23 1031.62 1769.54 1222.6 2259.44 1198.17L2259.44 1196.77Z" fill="white"/>
</mask>
<g mask="url(#mask9_52_10017)">
<path d="M2259.44 -290.835L2259.44 1222.6L-164.483 1222.6L-164.483 -290.835L2259.44 -290.835Z" fill="#B3B3B3"/>
</g>
<mask id="mask10_52_10017" style="mask-type:luminance" maskUnits="userSpaceOnUse" x="-220" y="-291" width="2480" height="1506">
<path d="M2259.44 1210.37C1784.65 1236.99 1668.91 1050.09 1544.63 849.362C1522.03 812.868 1499.15 775.913 1473.75 739.661C1387.69 616.819 1296.89 502.714 1172.46 455.871C1048 409.02 889.999 429.486 669.636 575.839C449.734 721.886 298.999 771.434 193.444 712.904C87.8382 654.347 27.2415 487.587 -12.3493 201.045C-39.7275 2.89126 -95.6425 -148.764 -168.361 -240.36C-183.94 -259.984 -200.295 -276.853 -217.307 -290.836L-219.531 -290.836C-202.119 -276.706 -185.387 -259.542 -169.461 -239.483C-96.8915 -148.076 -41.0817 3.34292 -13.737 201.238C25.917 488.243 86.7139 655.329 192.76 714.131C298.853 772.957 450.035 723.371 670.412 577.008C890.329 430.951 1047.91 410.487 1171.96 457.186C1296.04 503.892 1386.68 617.813 1472.6 740.465C1497.95 776.637 1520.83 813.601 1543.43 850.105C1667.94 1051.2 1783.89 1238.43 2259.44 1211.78L2259.44 1210.37Z" fill="white"/>
</mask>
<g mask="url(#mask10_52_10017)">
<path d="M2259.44 -290.835L2259.44 1238.43L-219.531 1238.43L-219.531 -290.835L2259.44 -290.835Z" fill="#B3B3B3"/>
</g>
<mask id="mask11_52_10017" style="mask-type:luminance" maskUnits="userSpaceOnUse" x="-441" y="-287" width="2701" height="1516">
<path d="M2259.44 1224.17C1798.74 1252.7 1681.37 1069.63 1555.49 873.148C1532.33 837.01 1508.89 800.418 1482.93 764.552C1394.99 643.05 1302.44 530.355 1177.31 485.437C1052.14 440.508 894.471 463.406 676.388 613.135C458.759 762.553 308.805 814.416 202.361 757.521C95.8682 700.599 32.7139 534.79 -11.2832 248.891C-41.7094 51.1842 -99.9528 -99.5935 -174.072 -190.055C-215.057 -240.079 -260.911 -271.68 -309.616 -282.604C-351.737 -292.05 -395.966 -286.027 -440.999 -263.084L-440.999 -261.508C-396.046 -284.564 -351.917 -290.655 -309.923 -281.235C-261.536 -270.384 -215.947 -238.943 -175.159 -189.162C-101.191 -98.8833 -43.0568 51.6582 -12.6706 249.108C31.3972 535.467 94.7591 701.596 201.699 758.756C308.687 815.944 459.086 764.034 677.185 614.294C894.83 464.864 1052.08 441.975 1176.83 486.758C1301.61 531.548 1393.99 644.06 1481.8 765.372C1507.69 801.142 1531.14 837.751 1554.3 873.905C1680.41 1070.74 1797.99 1254.15 2259.44 1225.58L2259.44 1224.17Z" fill="white"/>
</mask>
<g mask="url(#mask11_52_10017)">
<path d="M2259.44 -292.049L2259.44 1254.15L-440.999 1254.15L-440.999 -292.05L2259.44 -292.049Z" fill="#B3B3B3"/>
</g>
<mask id="mask12_52_10017" style="mask-type:luminance" maskUnits="userSpaceOnUse" x="-441" y="-234" width="2701" height="1477">
<path d="M2259.44 1238.22C1812.48 1268.43 1693.6 1089.17 1566.22 896.932C1542.49 861.125 1518.47 824.87 1492 789.461C1402.2 669.333 1307.94 558.082 1182.11 515.093C1056.27 472.098 898.974 497.422 683.221 650.492C467.92 803.246 318.783 857.411 211.475 802.161C104.119 746.887 38.418 582.074 -9.97506 296.888C-43.4392 99.6759 -103.998 -50.1878 -179.504 -139.502C-221.256 -188.89 -267.59 -219.782 -316.455 -229.953C-356.656 -238.322 -398.552 -232.661 -440.999 -211.743L-440.999 -210.177C-398.629 -231.201 -356.828 -236.92 -316.741 -228.576C-268.189 -218.471 -222.12 -187.739 -180.573 -138.594C-105.226 -49.4707 -44.7817 100.158 -11.361 297.12C37.1111 582.768 103.024 747.905 210.83 803.411C318.685 858.942 468.267 804.718 684.036 651.635C899.357 498.872 1056.23 473.564 1181.66 516.419C1307.11 559.28 1401.21 670.356 1490.88 790.306C1517.36 825.728 1541.35 861.943 1565.05 897.707C1692.66 1090.29 1811.76 1269.87 2259.44 1239.63L2259.44 1238.22Z" fill="white"/>
</mask>
<g mask="url(#mask12_52_10017)">
<path d="M2259.44 -238.321L2259.44 1269.87L-440.999 1269.87L-440.999 -238.322L2259.44 -238.321Z" fill="#B3B3B3"/>
</g>
<mask id="mask13_52_10017" style="mask-type:luminance" maskUnits="userSpaceOnUse" x="-441" y="-181" width="2701" height="1434">
<path d="M2076.99 1252.85C1787.86 1228.7 1685.36 1079.16 1576.82 920.715C1552.55 885.273 1527.96 849.388 1500.96 814.402C1409.32 695.668 1313.36 585.881 1186.89 544.836C1060.4 503.786 903.509 531.53 690.138 687.908C477.213 843.959 328.929 900.415 220.781 846.824C112.587 793.21 44.3555 629.43 -8.42037 345.022C-44.9165 148.347 -107.776 -0.56419 -184.646 -88.7049C-227.152 -137.441 -273.956 -167.617 -322.971 -177.033C-361.311 -184.4 -400.987 -179.069 -440.999 -159.99L-440.999 -158.427C-401.06 -177.609 -361.47 -183.002 -323.238 -175.655C-274.538 -166.3 -228 -136.277 -185.7 -87.7773C-108.991 0.175067 -46.25 148.855 -9.80099 345.277C43.0618 630.144 111.51 794.245 220.159 848.083C328.853 901.944 477.583 845.427 690.97 689.036C903.912 532.974 1060.38 505.255 1186.45 546.17C1312.55 587.094 1408.35 696.709 1499.85 815.263C1526.88 850.281 1551.43 886.117 1575.67 921.507C1682.47 1077.42 1783.43 1224.71 2061.39 1252.85L2076.99 1252.85ZM2259.44 1252.53C2257.89 1252.65 2256.37 1252.74 2254.82 1252.85L2259.44 1252.85L2259.44 1252.53Z" fill="white"/>
</mask>
<g mask="url(#mask13_52_10017)">
<path d="M2259.44 -184.4L2259.44 1252.85L-440.999 1252.85L-440.999 -184.4L2259.44 -184.4Z" fill="#B3B3B3"/>
</g>
<mask id="mask14_52_10017" style="mask-type:luminance" maskUnits="userSpaceOnUse" x="-441" y="-127" width="2420" height="1380">
<path d="M1978.79 1252.85C1772.88 1206.56 1682.35 1078.77 1587.3 944.496C1562.49 909.45 1537.37 873.96 1509.81 839.367C1416.35 722.058 1318.71 613.762 1191.63 574.671C1064.52 535.575 908.078 565.73 697.139 725.378C486.639 884.691 339.241 943.426 230.282 891.509C121.277 839.568 50.5332 676.857 -6.61642 393.293C-46.1344 197.208 -111.278 49.2821 -189.498 -37.6632C-232.75 -85.7403 -280.013 -115.19 -329.167 -123.852C-365.706 -130.291 -403.272 -125.24 -440.998 -107.821L-440.998 -106.274C-403.339 -123.788 -365.852 -128.89 -329.412 -122.47C-280.572 -113.864 -233.579 -84.5642 -190.539 -36.7218C-112.485 50.0379 -47.4625 197.733 -7.99276 393.571C49.2488 677.59 120.214 840.617 229.679 892.775C339.19 944.958 487.032 886.155 697.985 726.498C908.499 567.174 1064.52 537.045 1191.21 576.015C1317.92 614.992 1415.4 723.116 1508.72 840.245C1536.26 874.815 1561.36 910.283 1586.16 945.31C1680.43 1078.49 1770.23 1205.33 1972.17 1252.85L1978.79 1252.85Z" fill="white"/>
</mask>
<g mask="url(#mask14_52_10017)">
<path d="M1978.79 -130.291L1978.79 1252.85L-440.998 1252.85L-440.998 -130.291L1978.79 -130.291Z" fill="#B3B3B3"/>
</g>
<mask id="mask15_52_10017" style="mask-type:luminance" maskUnits="userSpaceOnUse" x="-441" y="-73" width="2369" height="1326">
<path d="M1927.89 1252.85C1766.24 1198.77 1683.76 1086.05 1597.65 968.285C1572.3 933.62 1546.64 898.519 1518.55 864.363C1423.3 748.51 1324 641.732 1196.33 604.602C1068.63 567.466 912.673 600.03 704.219 762.904C496.198 925.443 349.72 986.442 239.974 936.208C130.181 885.953 56.942 724.35 -4.56405 441.703C-47.0986 246.244 -114.51 99.341 -194.057 13.6131C-238.043 -33.7909 -285.754 -62.5111 -335.038 -70.4117C-369.842 -75.9941 -405.415 -71.1931 -440.998 -55.2671L-440.998 -53.7262C-405.476 -69.7441 -369.976 -74.5945 -335.261 -69.0283C-286.297 -61.1775 -238.86 -32.6039 -195.088 14.5692C-115.704 100.12 -48.4148 246.796 -5.93698 442.002C55.6702 725.106 129.138 887.02 239.391 937.484C349.693 987.974 496.613 926.899 705.084 764.012C913.12 601.464 1068.66 568.935 1195.93 605.948C1323.23 642.967 1422.36 749.578 1517.47 865.256C1545.54 899.406 1571.19 934.479 1596.52 969.116C1682.07 1086.12 1764.06 1198.15 1923.35 1252.85L1927.89 1252.85Z" fill="white"/>
</mask>
<g mask="url(#mask15_52_10017)">
<path d="M1927.89 -75.9941L1927.89 1252.85L-440.998 1252.85L-440.998 -75.9942L1927.89 -75.9941Z" fill="#B3B3B3"/>
</g>
<mask id="mask16_52_10017" style="mask-type:luminance" maskUnits="userSpaceOnUse" x="-441" y="-19" width="2334" height="1272">
<path d="M1892.6 1252.85C1761.83 1195.88 1686.32 1095.97 1607.87 992.081C1582 957.823 1555.81 923.137 1527.18 889.387C1430.16 775.015 1329.22 669.776 1201 634.62C1072.75 599.456 917.309 634.417 711.384 800.486C505.889 966.209 360.369 1029.46 249.865 980.923C139.311 932.365 63.5933 771.908 -2.25778 490.241C-47.7971 295.465 -117.462 149.616 -198.321 65.1222C-243.032 18.3993 -291.18 -9.58066 -340.579 -16.7245C-373.723 -21.5151 -407.416 -16.9271 -441 -2.33042L-441 -0.796977C-407.471 -15.4823 -373.842 -20.1155 -340.778 -15.3353C-291.698 -8.23825 -243.826 19.6005 -199.334 66.093C-118.645 150.408 -49.1084 296.031 -3.62692 490.562C62.3291 772.681 138.28 933.444 249.297 982.203C360.365 1030.99 506.329 967.658 712.266 801.579C917.774 635.845 1072.8 600.925 1200.62 635.973C1328.48 671.028 1429.24 776.098 1526.11 890.296C1554.69 923.982 1580.88 958.669 1606.75 992.928C1684.74 1096.2 1759.82 1195.56 1888.97 1252.85L1892.6 1252.85Z" fill="white"/>
</mask>
<g mask="url(#mask16_52_10017)">
<path d="M1892.6 -21.5154L1892.6 1252.85L-440.999 1252.85L-440.999 -21.5155L1892.6 -21.5154Z" fill="#B3B3B3"/>
</g>
</g>
</g>
<defs>
<clipPath id="clip0_52_10017">
<rect width="1920" height="1191" fill="white"/>
</clipPath>
<clipPath id="clip1_52_10017">
<rect width="1544" height="2701" fill="white" transform="matrix(4.37114e-08 -1 -1 -4.37114e-08 2260 1254)"/>
</clipPath>
</defs>
</svg>
