<svg width="1440" height="284" viewBox="0 0 1440 284" fill="none" xmlns="http://www.w3.org/2000/svg">
<g clip-path="url(#clip0_58_2447)">
<rect width="1440" height="361" fill="#151515"/>
<g clip-path="url(#clip1_58_2447)">
<mask id="mask0_58_2447" style="mask-type:luminance" maskUnits="userSpaceOnUse" x="-99" y="-616" width="1605" height="1069">
<path d="M1505 -615L1505 452L-98.0001 452L-98.0001 -615L1505 -615Z" fill="white" stroke="white" stroke-width="2"/>
</mask>
<g mask="url(#mask0_58_2447)">
<g opacity="0.52">
<path d="M-136.896 584.562C-104.636 619.646 -39.7234 647.77 -2.10216 627.766C26.2742 612.642 38.9987 578.233 65.0168 567.195C108.859 548.637 168.865 576.737 220.083 618.349C267.11 655.956 313.762 701.226 354.632 739.468C383.629 765.471 425.806 798.89 430.854 762.606C441.248 700.775 388.185 567.453 363.358 485.878C343.504 414.296 323.503 329.267 350.737 277.25C369.714 241.146 417.918 242.602 464.694 254.463C568.077 280.19 689.308 323.957 789.533 378.499C921.888 449.968 1015.63 561.634 1101.26 629.719C1175.86 686.142 1254.82 722.478 1375.87 624.326C1459.76 555.628 1540.1 440.311 1608.83 329.475C1677.74 217.395 1735.03 109.795 1777.15 27.8523" fill="black"/>
<path d="M-136.896 584.562C-104.636 619.646 -39.7234 647.77 -2.10216 627.766C26.2742 612.642 38.9987 578.233 65.0168 567.195C108.859 548.637 168.865 576.737 220.083 618.349C267.11 655.956 313.762 701.226 354.632 739.468C383.629 765.471 425.806 798.89 430.854 762.606C441.248 700.775 388.185 567.453 363.358 485.878C343.504 414.296 323.503 329.267 350.737 277.25C369.714 241.146 417.918 242.602 464.694 254.463C568.077 280.19 689.308 323.957 789.533 378.499C921.888 449.968 1015.63 561.634 1101.26 629.718C1175.86 686.142 1254.82 722.478 1375.87 624.326C1459.76 555.628 1540.1 440.311 1608.83 329.475C1677.74 217.395 1735.03 109.795 1777.15 27.8523" stroke="#1FA169" stroke-width="2" stroke-miterlimit="10"/>
<g opacity="0.9783">
<path d="M-149.51 571.61C-117.656 606.128 -53.2098 633.229 -15.4195 612.888C13.2522 597.413 26.5031 562.902 52.8807 551.72C96.3869 533.207 157.771 559.637 209.405 601.647C256.142 639.077 301.429 682.908 342.617 719.22C372.5 744.64 412.985 773.548 417.787 737.502C427.633 675.384 376.346 547.232 352.26 466.213C335.286 404.168 321.128 337.907 334.057 286.392C336.172 278.047 339.153 270.845 342.742 264.807C363.104 230.376 411.074 232.423 457.476 244.355C560.679 270.398 680.919 313.064 781.855 364.604C915.553 432.411 1012.59 539.893 1099.61 608.488C1176.44 666.197 1256.22 706.206 1377.25 612.721C1461.32 547.049 1542.72 430.947 1612.77 318.524C1682.97 204.855 1741.82 94.8658 1784.39 12.6597" fill="black"/>
<path d="M-149.51 571.61C-117.656 606.128 -53.2098 633.229 -15.4195 612.888C13.2522 597.413 26.5031 562.902 52.8807 551.72C96.3869 533.207 157.771 559.637 209.405 601.647C256.142 639.077 301.429 682.908 342.617 719.22C372.5 744.64 412.985 773.548 417.787 737.502C427.633 675.384 376.346 547.232 352.26 466.213C335.286 404.168 321.128 337.907 334.057 286.392C336.172 278.047 339.153 270.845 342.742 264.807C363.104 230.376 411.074 232.423 457.476 244.355C560.679 270.398 680.919 313.064 781.855 364.604C915.553 432.411 1012.59 539.893 1099.61 608.488C1176.44 666.197 1256.22 706.206 1377.25 612.721C1461.32 547.049 1542.72 430.947 1612.77 318.524C1682.97 204.855 1741.82 94.8658 1784.39 12.6597" stroke="#1FA169" stroke-width="2" stroke-miterlimit="10"/>
</g>
<g opacity="0.9565">
<path d="M-162.133 558.634C-127.259 589.781 -69.321 619.976 -28.952 597.796C-0.0128174 582.109 13.8159 547.423 40.5509 536.102C84.7697 517.3 146.556 543.166 198.524 584.645C245.659 621.759 289.461 663.24 330.418 698.785C360.109 723.761 399.874 748.23 404.454 712.579C413.799 650.288 364.448 527.172 341.169 446.759C325.107 386.765 311.899 322.514 325.766 273.188C328.032 265.196 331.144 258.316 334.861 252.563C356.122 219.505 404.344 222.38 450.395 234.381C553.599 260.751 671.339 302.996 774.186 351.152C909.958 414.285 1010.05 518.84 1097.66 587.211C1176.87 646.188 1257.57 689.642 1378.55 601.016C1462.58 538.655 1545.08 421.753 1616.55 307.637C1688.14 192.284 1748.71 79.718 1791.63 -2.5415" fill="black"/>
<path d="M-162.133 558.634C-127.259 589.781 -69.321 619.976 -28.952 597.796C-0.0128226 582.11 13.8159 547.423 40.5509 536.102C84.7697 517.3 146.556 543.166 198.524 584.645C245.659 621.759 289.461 663.24 330.418 698.785C360.109 723.761 399.874 748.23 404.454 712.579C413.799 650.288 364.448 527.172 341.17 446.759C325.107 386.765 311.899 322.514 325.766 273.188C328.032 265.196 331.144 258.316 334.861 252.563C356.122 219.505 404.344 222.38 450.395 234.381C553.599 260.751 671.339 302.996 774.186 351.152C909.958 414.285 1010.05 518.84 1097.66 587.211C1176.87 646.188 1257.57 689.642 1378.55 601.016C1462.58 538.655 1545.08 421.753 1616.55 307.637C1688.14 192.284 1748.71 79.718 1791.63 -2.5415" stroke="#1FA169" stroke-width="2" stroke-miterlimit="10"/>
</g>
<g opacity="0.9348">
<path d="M-174.74 545.663C-143.843 578.903 -80.4903 603.197 -42.668 582.533C-13.4634 566.504 0.958069 531.839 28.0398 520.388C72.9755 501.295 135.264 526.519 187.436 567.389C234.103 603.481 277.104 643.955 318.05 678.187C348.04 702.594 386.507 723.008 390.881 687.831C399.779 625.485 352.479 507.241 330.101 427.534C314.984 369.577 302.767 307.34 317.582 260.208C320.002 252.567 323.03 245.315 327.096 240.53C351.501 211.789 393.22 211.628 443.452 224.55C546.301 250.737 663.068 292.838 766.541 338.155C902.927 397.523 1006.34 497.363 1095.38 565.942C1177.13 626.161 1258.84 672.829 1379.74 589.231C1463.52 530.44 1547.12 412.765 1620.11 296.872C1693.18 179.764 1755.63 64.4356 1798.82 -17.7278" fill="black"/>
<path d="M-174.74 545.663C-143.843 578.903 -80.4903 603.197 -42.668 582.533C-13.4634 566.504 0.958063 531.839 28.0398 520.388C72.9755 501.295 135.264 526.519 187.436 567.389C234.103 603.481 277.104 643.955 318.05 678.187C348.04 702.594 386.507 723.008 390.881 687.831C399.779 625.485 352.479 507.241 330.101 427.534C314.984 369.577 302.767 307.34 317.582 260.208C320.002 252.567 323.03 245.315 327.096 240.53C351.501 211.789 393.22 211.628 443.452 224.55C546.301 250.737 663.068 292.838 766.541 338.155C902.927 397.523 1006.34 497.363 1095.38 565.942C1177.13 626.161 1258.84 672.829 1379.74 589.231C1463.52 530.44 1547.12 412.765 1620.11 296.873C1693.18 179.764 1755.63 64.4356 1798.82 -17.7278" stroke="#1FA169" stroke-width="2" stroke-miterlimit="10"/>
</g>
<g opacity="0.913">
<path d="M-187.312 532.717C-156.73 565.123 -89.8612 588.639 -56.5392 567.137C-30.2365 549.8 -10.7475 516.691 15.3648 504.613C58.4366 484.208 123.829 509.591 176.139 549.905C222.35 584.908 264.626 624.478 305.532 657.431C335.761 681.231 372.905 697.848 377.093 663.242C385.608 600.96 340.298 487.261 319.065 408.542C305.037 352.736 293.8 292.421 309.51 247.457C312.076 240.16 315.277 233.243 319.45 228.715C344.704 201.308 386.441 202.253 436.654 214.869C539.975 240.562 656.577 282.732 758.944 325.622C894.41 382.147 1001.44 475.504 1092.77 544.739C1177.18 606.192 1260.1 655.791 1380.81 577.397C1464.06 522.464 1548.81 404.018 1623.45 286.221C1698.11 167.25 1762.67 48.9243 1805.99 -32.8777" fill="black"/>
<path d="M-187.312 532.717C-156.73 565.123 -89.8612 588.639 -56.5392 567.137C-30.2365 549.8 -10.7475 516.691 15.3648 504.613C58.4366 484.208 123.829 509.591 176.139 549.905C222.35 584.908 264.626 624.478 305.532 657.431C335.761 681.231 372.905 697.848 377.093 663.242C385.608 600.96 340.298 487.261 319.065 408.542C305.037 352.736 293.8 292.421 309.51 247.457C312.076 240.16 315.277 233.243 319.45 228.715C344.704 201.308 386.441 202.253 436.654 214.869C539.975 240.562 656.577 282.732 758.944 325.622C894.41 382.147 1001.44 475.504 1092.77 544.739C1177.18 606.192 1260.1 655.791 1380.81 577.397C1464.06 522.464 1548.81 404.018 1623.45 286.221C1698.11 167.25 1762.67 48.9243 1805.99 -32.8777" stroke="#1FA169" stroke-width="2" stroke-miterlimit="10"/>
</g>
<g opacity="0.8913">
<path d="M-199.824 519.823C-169.665 551.598 -103.837 573.26 -70.5383 551.652C-43.9766 534.039 -23.8648 500.996 2.54489 488.82C46.2993 468.152 112.098 492.72 164.633 532.234C210.384 566.077 252.08 604.864 292.885 636.545C323.294 659.695 359.12 672.818 363.124 638.818C371.275 576.598 328.161 467.763 308.083 389.805C295.113 335.925 284.896 277.723 301.556 234.95C304.281 227.995 307.647 221.405 311.927 217.127C338.035 191.039 380.18 192.681 429.999 205.338C533.712 231.416 648.219 273.228 751.417 313.551C886.926 366.343 996.971 454.403 1089.84 523.65C1177.07 586.309 1261.38 638.568 1381.76 565.529C1464.21 514.654 1550.14 395.43 1626.54 275.621C1702.91 154.698 1769.76 33.193 1813.1 -47.9825" fill="black"/>
<path d="M-199.824 519.823C-169.665 551.598 -103.837 573.26 -70.5383 551.652C-43.9766 534.039 -23.8648 500.996 2.5449 488.82C46.2993 468.152 112.098 492.72 164.633 532.234C210.384 566.077 252.08 604.864 292.885 636.545C323.295 659.695 359.12 672.818 363.124 638.818C371.275 576.598 328.161 467.763 308.083 389.805C295.113 335.925 284.896 277.722 301.556 234.95C304.281 227.995 307.647 221.405 311.927 217.127C338.035 191.039 380.18 192.681 429.999 205.338C533.712 231.416 648.219 273.228 751.417 313.551C886.926 366.343 996.971 454.403 1089.84 523.65C1177.07 586.309 1261.38 638.568 1381.76 565.529C1464.21 514.654 1550.14 395.43 1626.54 275.621C1702.91 154.698 1769.76 33.193 1813.1 -47.9825" stroke="#1FA169" stroke-width="2" stroke-miterlimit="10"/>
</g>
<g opacity="0.8696">
<path d="M-212.252 507.002C-182.523 538.12 -117.835 557.781 -84.633 536.108C-57.7889 518.265 -37.369 487.343 -10.4028 473.039C32.9536 449.472 104.331 478.429 152.918 514.403C197.171 546.17 240.174 585.962 280.136 615.531C316.202 642.204 341.689 641.386 349.006 614.534C363.479 563.327 316.238 448.209 297.171 371.316C285.215 319.416 276.124 263.263 293.732 222.675C296.619 216.056 300.148 209.794 304.537 205.762C331.644 180.865 374.125 183.464 423.949 196.322C528.287 223.007 640.114 264.148 743.988 301.935C879.227 351.058 992.174 433.681 1086.6 502.721C1176.87 566.5 1262.47 621.241 1382.58 553.64C1464.02 506.984 1551.19 386.91 1629.49 264.969C1707.67 141.989 1776.99 17.1452 1820.17 -63.032" fill="black"/>
<path d="M-212.252 507.002C-182.523 538.12 -117.835 557.781 -84.633 536.108C-57.7889 518.265 -37.369 487.343 -10.4028 473.039C32.9536 449.472 104.331 478.429 152.918 514.403C197.171 546.17 240.174 585.962 280.136 615.531C316.202 642.204 341.689 641.386 349.006 614.534C363.479 563.327 316.238 448.209 297.171 371.316C285.215 319.416 276.124 263.263 293.732 222.675C296.619 216.056 300.148 209.794 304.537 205.762C331.644 180.865 374.125 183.464 423.949 196.322C528.287 223.007 640.114 264.148 743.988 301.935C879.227 351.058 992.174 433.681 1086.6 502.721C1176.87 566.5 1262.47 621.241 1382.58 553.64C1464.02 506.985 1551.19 386.91 1629.49 264.969C1707.67 141.989 1776.99 17.1452 1820.17 -63.032" stroke="#1FA169" stroke-width="2" stroke-miterlimit="10"/>
</g>
<g opacity="0.8478">
<path d="M-224.572 494.279C-195.282 524.711 -131.823 542.234 -98.7895 520.554C-71.7206 502.456 -50.7122 471.671 -23.4508 457.321C20.5712 433.574 92.1306 461.372 141 496.468C184.889 527.045 227.415 566.043 267.313 594.433C303.173 619.98 327.672 616.831 334.772 590.418C349.003 539.033 304.13 428.83 286.348 353.115C275.424 303.169 267.501 249.082 286.047 210.673C289.098 204.385 292.792 198.443 297.292 194.648C325.525 170.844 369.083 174.855 418.476 187.959C522.519 215.295 631.254 256.067 736.686 290.792C871.867 335.297 988.102 414.061 1083.06 482.036C1176.57 546.884 1263.38 603.89 1383.27 541.781C1463.51 499.433 1551.99 378.437 1632.3 254.256C1712.42 129.129 1784.36 0.819504 1827.17 -77.9915" fill="black"/>
<path d="M-224.572 494.278C-195.282 524.711 -131.823 542.234 -98.7895 520.554C-71.7206 502.456 -50.7122 471.671 -23.4508 457.321C20.5712 433.574 92.1306 461.373 141 496.468C184.889 527.045 227.415 566.043 267.313 594.433C303.173 619.98 327.672 616.831 334.772 590.418C349.003 539.033 304.13 428.83 286.348 353.115C275.424 303.169 267.501 249.082 286.047 210.673C289.098 204.385 292.792 198.443 297.292 194.648C325.525 170.844 369.083 174.855 418.476 187.959C522.519 215.295 631.254 256.067 736.686 290.792C871.867 335.297 988.102 414.061 1083.06 482.036C1176.57 546.884 1263.38 603.89 1383.27 541.781C1463.51 499.433 1551.99 378.437 1632.3 254.256C1712.42 129.129 1784.36 0.8195 1827.17 -77.9915" stroke="#1FA169" stroke-width="2" stroke-miterlimit="10"/>
</g>
<g opacity="0.8261">
<path d="M-236.764 481.675C-207.923 511.389 -145.771 526.654 -112.982 505.024C-85.7096 486.684 -64.1213 456.083 -36.5902 441.701C8.06516 417.794 79.7166 444.33 128.872 478.461C172.291 507.707 214.768 546.151 254.426 573.269C290.012 597.651 313.542 592.372 320.443 566.466C334.469 515.051 292.02 409.612 275.616 335.209C265.732 287.185 259.025 235.185 278.491 198.942C281.707 192.979 285.912 187.982 290.179 183.79C315.251 158.912 370.774 168.586 413.272 180.024C517.304 207.209 623.987 247.801 729.517 280.111C863.731 321.248 982.666 394.156 1079.22 461.644C1176.09 527.458 1264.2 586.529 1383.82 529.962C1462.68 491.959 1552.61 369.87 1635.07 243.303C1717.25 115.902 1791.96 -15.9767 1834.09 -92.8591" fill="black"/>
<path d="M-236.764 481.675C-207.923 511.389 -145.771 526.654 -112.982 505.024C-85.7096 486.684 -64.1213 456.083 -36.5902 441.701C8.06516 417.794 79.7166 444.33 128.872 478.461C172.291 507.707 214.768 546.151 254.426 573.269C290.012 597.651 313.542 592.372 320.443 566.466C334.469 515.051 292.02 409.612 275.616 335.209C265.732 287.185 259.025 235.185 278.491 198.942C281.707 192.979 285.912 187.982 290.179 183.79C315.251 158.912 370.774 168.586 413.272 180.024C517.304 207.209 623.987 247.801 729.517 280.111C863.731 321.248 982.666 394.156 1079.22 461.644C1176.09 527.458 1264.2 586.529 1383.82 529.962C1462.68 491.959 1552.61 369.87 1635.07 243.303C1717.25 115.902 1791.96 -15.9767 1834.09 -92.8591" stroke="#1FA169" stroke-width="2" stroke-miterlimit="10"/>
</g>
<g opacity="0.8043">
<path d="M-248.799 469.219C-221.465 497.058 -159.518 511.945 -127.174 489.564C-99.5916 470.16 -77.5518 440.642 -49.7895 426.221C-4.53709 402.171 67.1037 427.355 116.553 460.432C159.575 488.354 202.069 526.214 241.518 552.073C276.768 575.24 299.369 568.033 306.067 542.685C319.863 491.401 279.751 390.297 265.007 317.615C256.41 272.281 250.47 221.014 271.088 187.486C274.54 181.895 278.867 177.147 283.222 173.187C308.173 150.184 367.682 161.533 408.344 172.494C512.35 199.525 616.981 239.852 722.526 269.88C855.52 307.83 976.955 374.747 1075.1 441.609C1175.48 508.289 1264.9 569.215 1384.23 518.213C1461.56 484.544 1553.06 361.198 1637.81 232.11C1722.18 102.315 1799.8 -33.2218 1840.95 -107.622" fill="black"/>
<path d="M-248.799 469.219C-221.465 497.058 -159.518 511.945 -127.174 489.564C-99.5916 470.16 -77.5518 440.642 -49.7895 426.222C-4.5371 402.171 67.1037 427.355 116.553 460.432C159.575 488.354 202.069 526.214 241.518 552.073C276.768 575.24 299.369 568.033 306.067 542.685C319.863 491.401 279.751 390.297 265.007 317.615C256.41 272.281 250.47 221.014 271.088 187.486C274.54 181.895 278.867 177.147 283.222 173.187C308.173 150.184 367.682 161.533 408.344 172.494C512.35 199.525 616.981 239.852 722.526 269.88C855.52 307.83 976.955 374.747 1075.1 441.609C1175.48 508.289 1264.9 569.215 1384.23 518.213C1461.56 484.544 1553.06 361.199 1637.81 232.11C1722.18 102.315 1799.8 -33.2218 1840.95 -107.622" stroke="#1FA169" stroke-width="2" stroke-miterlimit="10"/>
</g>
<g opacity="0.7826">
<path d="M-260.658 456.93C-233.778 484.119 -175.514 496.256 -141.34 474.207C-111.999 454.973 -90.3163 423.13 -63.0356 410.92C-15.0868 389.142 50.2667 409.242 104.03 442.425C146.372 468.158 188.69 505.435 228.595 530.885C263.856 553.482 285.104 543.857 291.654 519.101C305.318 468.079 267.712 371.463 254.513 300.362C246.956 256.871 242.372 207.724 263.824 176.332C267.44 171.058 271.588 166.215 276.405 162.865C304.811 142.89 360.886 153.994 403.656 165.36C507.604 192.224 610.908 231.696 715.715 260.11C847.126 295.893 969.93 355.311 1070.71 422.01C1174.62 489.842 1270.42 547.448 1384.48 506.576C1441.32 486.509 1520.98 386.254 1579.19 305.842C1684 159.737 1772.64 10.015 1847.7 -122.255" fill="black"/>
<path d="M-260.658 456.93C-233.778 484.119 -175.514 496.256 -141.34 474.207C-111.999 454.973 -90.3163 423.13 -63.0356 410.92C-15.0868 389.142 50.2667 409.242 104.03 442.425C146.372 468.158 188.69 505.435 228.595 530.885C263.856 553.482 285.104 543.857 291.654 519.101C305.318 468.079 267.712 371.463 254.513 300.362C246.956 256.871 242.372 207.724 263.824 176.332C267.44 171.058 271.588 166.215 276.405 162.865C304.811 142.89 360.886 153.994 403.656 165.36C507.604 192.224 610.908 231.696 715.715 260.11C847.126 295.893 969.93 355.311 1070.71 422.01C1174.62 489.842 1270.42 547.448 1384.48 506.576C1441.32 486.509 1520.98 386.254 1579.19 305.842C1684 159.737 1772.64 10.015 1847.7 -122.255" stroke="#1FA169" stroke-width="2" stroke-miterlimit="10"/>
</g>
<g opacity="0.7609">
<path d="M-272.318 444.835C-245.857 471.222 -189.017 480.813 -155.447 458.997C-126.013 439.548 -103.772 408.13 -76.3029 395.843C-27.8961 373.868 37.3867 392.672 91.319 424.492C133.147 448.754 176.343 485.966 215.687 509.747C247.633 528.961 272.444 523.075 277.246 495.73C287.598 438.135 255.733 352.843 244.156 283.469C237.646 241.776 234.47 194.777 256.711 165.484C260.495 160.519 264.931 156.35 270.48 153.806C304.176 138.22 355.299 147.118 399.205 158.591C503.016 185.213 606.122 226.815 709.126 250.841C837.229 280.925 964.229 338.016 1066.09 402.909C1173.99 470.465 1268.12 539.578 1384.57 495.071C1528.79 436.572 1766.45 10.419 1854.37 -136.757" fill="black"/>
<path d="M-272.318 444.835C-245.857 471.222 -189.017 480.813 -155.447 458.997C-126.013 439.548 -103.772 408.13 -76.3029 395.843C-27.8961 373.868 37.3867 392.672 91.319 424.492C133.147 448.754 176.343 485.966 215.687 509.747C247.633 528.961 272.444 523.075 277.246 495.73C287.598 438.134 255.733 352.843 244.156 283.469C237.646 241.776 234.47 194.777 256.711 165.484C260.495 160.519 264.931 156.35 270.48 153.806C304.176 138.22 355.299 147.118 399.205 158.591C503.016 185.213 606.122 226.815 709.126 250.841C837.229 280.925 964.229 338.016 1066.09 402.909C1173.99 470.465 1268.12 539.578 1384.57 495.071C1528.79 436.572 1766.45 10.419 1854.37 -136.757" stroke="#1FA169" stroke-width="2" stroke-miterlimit="10"/>
</g>
<g opacity="0.7391">
<path d="M-283.752 432.956C-256.015 460.177 -202.09 463.624 -169.459 443.973C-140.336 425.991 -117.221 393.354 -89.5662 381.026C-40.7614 358.877 24.3567 376.312 78.4302 406.682C119.79 429.476 164.043 466.63 202.822 488.702C234.276 506.499 257.826 499.112 262.877 472.601C273.731 416.528 243.936 333.355 233.948 266.966C228.335 227.133 226.769 182.197 249.759 154.963C253.709 150.296 259.626 148.232 265.342 145.938C300.198 131.827 350.893 140.743 394.977 152.173C498.386 178.506 598.596 222.564 702.985 243.722C831.997 270.071 959.325 322.097 1061.24 384.389C1120.91 420.96 1176.13 455.262 1231.52 475.021C1277.25 491.223 1326.83 507.883 1385.03 481.339C1546.94 402.755 1766.26 6.23711 1860.93 -151.1" fill="black"/>
<path d="M-283.752 432.956C-256.015 460.177 -202.09 463.624 -169.459 443.973C-140.336 425.991 -117.221 393.354 -89.5662 381.026C-40.7614 358.877 24.3567 376.312 78.4302 406.682C119.79 429.476 164.043 466.63 202.822 488.702C234.276 506.499 257.826 499.112 262.877 472.601C273.731 416.528 243.936 333.355 233.948 266.966C228.335 227.133 226.769 182.197 249.759 154.963C253.709 150.296 259.626 148.232 265.342 145.938C300.198 131.827 350.893 140.743 394.977 152.173C498.386 178.506 598.596 222.564 702.985 243.722C831.997 270.071 959.325 322.097 1061.24 384.389C1120.91 420.96 1176.13 455.262 1231.52 475.021C1277.25 491.223 1326.83 507.882 1385.03 481.339C1546.94 402.755 1766.26 6.2371 1860.93 -151.1" stroke="#1FA169" stroke-width="2" stroke-miterlimit="10"/>
</g>
<g opacity="0.7174">
<path d="M-294.943 421.317C-267.763 447.497 -215.201 448.559 -183.353 429.174C-153.926 410.869 -132.34 378.73 -102.81 366.514C-51.2059 345.031 11.128 360.35 65.3577 389.046C106.698 410.676 150.466 447.118 190.004 467.803C225.789 486.701 241.405 472.911 248.552 449.742C263.179 402.665 231.845 315.073 223.883 250.876C219.545 213.57 217.289 167.162 244.168 146.563C248.668 143.127 254.521 140.572 260.402 138.509C296.347 125.783 346.654 134.692 390.944 146.082C493.803 172.084 593.835 216.569 697.137 237.002C826.021 262.626 950.794 304.914 1056.19 366.526C1117.29 402.353 1173.86 437.66 1229.78 458.597C1277.14 476.069 1324.99 493.776 1385.81 466.542C1550.51 387.759 1768.88 -3.091 1867.37 -165.284" fill="black"/>
<path d="M-294.943 421.317C-267.763 447.497 -215.201 448.559 -183.353 429.174C-153.926 410.869 -132.34 378.73 -102.81 366.514C-51.2059 345.031 11.128 360.35 65.3577 389.046C106.698 410.676 150.466 447.118 190.004 467.803C225.789 486.701 241.405 472.911 248.552 449.742C263.179 402.665 231.845 315.073 223.883 250.876C219.545 213.57 217.289 167.162 244.168 146.563C248.668 143.127 254.521 140.572 260.402 138.509C296.347 125.783 346.654 134.692 390.944 146.082C493.803 172.084 593.835 216.569 697.137 237.002C826.021 262.626 950.794 304.914 1056.19 366.526C1117.29 402.353 1173.86 437.66 1229.78 458.597C1277.14 476.069 1324.99 493.776 1385.81 466.542C1550.51 387.759 1768.88 -3.091 1867.37 -165.284" stroke="#1FA169" stroke-width="2" stroke-miterlimit="10"/>
</g>
<g opacity="0.6957">
<path d="M-305.861 409.945C-280.781 436.009 -226.686 432.516 -197.089 414.646C-167.765 396.364 -145.58 364.626 -116.003 352.352C-64.1911 330.709 -2.15683 344.567 52.1243 371.649C93.8885 392.242 138.028 427.513 177.263 447.118C211.747 464.49 227.27 449.763 234.313 427.205C248.863 380.791 220.14 297.411 213.979 235.24C210.78 200.648 209.526 156.126 238.893 138.793C243.969 135.815 249.614 133.348 255.649 131.498C292.624 120.075 342.31 129.185 387.096 140.305C490.159 165.507 589.151 210.782 691.584 230.661C819.958 255.673 942.73 289.045 1050.98 349.403C1113.45 384.36 1171.38 420.564 1227.82 442.579C1276.62 461.248 1323.55 478.981 1386.8 451.185C1553.95 372.545 1771.38 -12.3528 1873.7 -179.288" fill="black"/>
<path d="M-305.861 409.945C-280.781 436.009 -226.686 432.516 -197.089 414.646C-167.765 396.364 -145.58 364.626 -116.003 352.352C-64.1911 330.709 -2.15682 344.567 52.1243 371.649C93.8885 392.242 138.028 427.513 177.263 447.118C211.747 464.49 227.27 449.763 234.313 427.205C248.863 380.791 220.14 297.411 213.979 235.24C210.78 200.648 209.526 156.126 238.893 138.793C243.969 135.815 249.614 133.348 255.649 131.498C292.624 120.075 342.31 129.185 387.096 140.305C490.159 165.507 589.151 210.782 691.584 230.661C819.958 255.673 942.73 289.045 1050.98 349.403C1113.45 384.36 1171.38 420.564 1227.82 442.579C1276.62 461.248 1323.55 478.981 1386.8 451.185C1553.95 372.545 1771.38 -12.3528 1873.7 -179.288" stroke="#1FA169" stroke-width="2" stroke-miterlimit="10"/>
</g>
<g opacity="0.6739">
<path d="M-316.488 398.86C-291.942 423.729 -239.288 417.909 -210.637 400.42C-181.39 381.971 -158.702 350.898 -129.118 338.574C-77.1849 316.799 -15.5358 329.148 38.741 354.537C81.0402 374.08 125.726 408.218 164.618 426.698C197.683 442.511 213.219 426.978 220.185 405.025C234.675 359.405 208.55 280.089 204.246 220.084C201.978 184.944 203.012 148.066 233.815 131.468C239.032 128.683 244.889 126.528 251.074 124.877C289.01 114.666 338.42 123.722 383.429 134.821C485.896 159.726 584.805 205.114 686.324 224.677C813.307 249.227 935.05 274.627 1045.65 333.293C1158.09 391.59 1261.55 491.978 1387.96 435.376C1557.65 356.719 1773.79 -21.5782 1879.9 -193.104" fill="black"/>
<path d="M-316.488 398.86C-291.942 423.729 -239.288 417.909 -210.637 400.42C-181.39 381.971 -158.702 350.898 -129.118 338.574C-77.1849 316.799 -15.5358 329.148 38.741 354.537C81.0402 374.08 125.726 408.218 164.618 426.698C197.683 442.511 213.219 426.978 220.185 405.025C234.675 359.405 208.55 280.089 204.246 220.084C201.978 184.944 203.012 148.066 233.815 131.468C239.032 128.683 244.889 126.528 251.074 124.877C289.01 114.666 338.42 123.722 383.429 134.821C485.896 159.726 584.805 205.114 686.324 224.677C813.308 249.227 935.05 274.627 1045.65 333.293C1158.09 391.59 1261.55 491.978 1387.96 435.376C1557.65 356.719 1773.79 -21.5782 1879.9 -193.104" stroke="#1FA169" stroke-width="2" stroke-miterlimit="10"/>
</g>
<g opacity="0.6522">
<path d="M-326.799 388.086C-302.788 411.69 -251.589 403.582 -223.965 386.54C-194.836 367.95 -171.681 337.589 -142.134 325.229C-90.1662 303.344 -28.9922 314.152 25.2204 337.775C67.9584 356.164 112.993 388.774 151.878 406.37C183.976 420.973 199.294 404.544 206.181 383.261C220.62 338.57 197.06 263.171 194.678 205.449C193.487 170.743 197.407 139.712 228.899 124.563C234.258 122.01 240.314 120.09 246.642 118.621C285.479 109.537 334.664 118.531 379.91 129.613C481.798 154.215 580.91 199.869 681.338 219.028C805.062 242.781 929.368 262.393 1040.25 318.06C1156.46 375.091 1259.35 476.358 1389.24 419.222C1561.36 340.584 1776.07 -30.7225 1885.97 -206.71" fill="black"/>
<path d="M-326.799 388.086C-302.788 411.69 -251.589 403.582 -223.965 386.54C-194.836 367.95 -171.681 337.589 -142.134 325.229C-90.1662 303.344 -28.9922 314.152 25.2204 337.775C67.9584 356.164 112.993 388.774 151.878 406.37C183.976 420.973 199.294 404.544 206.181 383.261C220.62 338.57 197.06 263.171 194.678 205.449C193.486 170.743 197.407 139.712 228.899 124.563C234.258 122.01 240.314 120.09 246.642 118.621C285.479 109.537 334.664 118.531 379.91 129.613C481.798 154.215 580.91 199.869 681.338 219.028C805.062 242.781 929.368 262.393 1040.25 318.06C1156.46 375.091 1259.35 476.358 1389.24 419.222C1561.36 340.584 1776.07 -30.7225 1885.97 -206.71" stroke="#1FA169" stroke-width="2" stroke-miterlimit="10"/>
</g>
<g opacity="0.6304">
<path d="M-336.771 377.65C-313.291 399.909 -263.568 389.581 -237.041 373.05C-208.046 354.385 -185.037 326.306 -155.023 312.356C-105.241 288.906 -39.6025 299.519 11.5756 321.421C55.2059 339.656 99.0588 368.639 138.745 385.933C170.933 400.091 185.526 382.48 192.322 361.968C206.682 318.3 188.076 248.708 185.284 191.373C183.76 157.462 193.839 130.771 224.131 118.046C229.674 115.728 235.875 114.003 242.343 112.705C282.022 104.662 331.294 113.383 376.538 124.659C476.946 149.301 577.58 194.683 676.621 213.692C797.073 237.004 924.085 252.588 1034.8 303.96C1154.77 358.387 1257.52 460.44 1390.61 402.808C1565.04 324.2 1778.22 -39.779 1891.89 -220.109" fill="black"/>
<path d="M-336.771 377.65C-313.291 399.909 -263.568 389.581 -237.041 373.05C-208.046 354.385 -185.037 326.306 -155.023 312.356C-105.241 288.906 -39.6025 299.519 11.5756 321.421C55.2059 339.656 99.0588 368.639 138.745 385.933C170.933 400.091 185.526 382.48 192.322 361.968C206.682 318.3 188.076 248.708 185.284 191.373C183.76 157.462 193.839 130.771 224.131 118.046C229.674 115.728 235.875 114.003 242.343 112.705C282.022 104.662 331.294 113.383 376.538 124.659C476.946 149.301 577.58 194.683 676.621 213.692C797.073 237.004 924.085 252.588 1034.8 303.96C1154.77 358.387 1257.52 460.44 1390.61 402.808C1565.04 324.2 1778.22 -39.779 1891.89 -220.109" stroke="#1FA169" stroke-width="2" stroke-miterlimit="10"/>
</g>
<g opacity="0.6087">
<path d="M-346.381 367.574C-320.628 386.239 -277.471 377.629 -249.828 359.984C-221.03 341.24 -197.64 313.876 -167.753 299.996C-117.991 276.594 -53.3357 285.428 -2.16827 305.54C41.5755 322.366 84.7328 348.512 125.431 365.785C154.538 378.149 174.185 363.518 178.623 341.221C188.21 292.336 174.044 230.56 176.062 177.899C177.406 146.896 187.992 123.111 219.489 111.895C225.277 109.851 231.552 108.252 238.152 107.11C278.634 100.038 327.766 108.701 373.286 119.949C473.226 144.277 573.937 189.663 672.161 208.648C790.71 231.723 916.949 244.913 1029.4 291.444C1155.12 341.918 1254.97 444.403 1392.04 386.23C1568.66 307.635 1780.24 -48.7329 1897.67 -233.279" fill="black"/>
<path d="M-346.381 367.574C-320.628 386.239 -277.471 377.629 -249.828 359.984C-221.03 341.24 -197.64 313.876 -167.753 299.996C-117.991 276.594 -53.3357 285.428 -2.16826 305.54C41.5755 322.366 84.7328 348.512 125.431 365.785C154.538 378.149 174.185 363.518 178.623 341.221C188.21 292.336 174.044 230.56 176.062 177.899C177.406 146.896 187.992 123.111 219.489 111.895C225.277 109.851 231.552 108.252 238.152 107.11C278.634 100.038 327.766 108.701 373.286 119.949C473.226 144.277 573.937 189.663 672.161 208.648C790.71 231.723 916.949 244.913 1029.4 291.444C1155.12 341.918 1254.97 444.403 1392.04 386.23C1568.66 307.635 1780.24 -48.7329 1897.67 -233.279" stroke="#1FA169" stroke-width="2" stroke-miterlimit="10"/>
</g>
<g opacity="0.587">
<path d="M-355.607 357.883C-330.843 375.465 -288.685 364.737 -262.297 347.383C-233.602 328.128 -210.006 301.989 -180.299 288.19C-130.642 264.869 -67.0798 271.931 -15.998 290.189C27.8335 305.527 70.9438 329.242 111.918 345.989C141.35 358.041 160.443 342.863 165.089 321.085C174.986 273.962 161.802 213.495 167.006 165.065C170.135 137.034 184.364 115.572 214.944 106.075C220.896 104.235 227.316 102.798 234.048 101.801C275.292 95.6269 324.335 104.235 370.142 115.457C469.654 139.484 570.456 184.79 667.94 203.87C784.841 226.885 910.466 237.992 1024.18 279.987C1154.59 326.428 1253.28 428.129 1393.48 369.571C1572.07 291.087 1782.09 -57.5607 1903.29 -246.211" fill="black"/>
<path d="M-355.607 357.883C-330.843 375.465 -288.685 364.737 -262.297 347.383C-233.602 328.128 -210.006 301.989 -180.299 288.19C-130.642 264.869 -67.0798 271.931 -15.998 290.189C27.8335 305.527 70.9438 329.242 111.918 345.989C141.35 358.041 160.443 342.863 165.089 321.085C174.986 273.962 161.802 213.495 167.006 165.065C170.135 137.034 184.364 115.572 214.944 106.075C220.896 104.235 227.316 102.798 234.048 101.801C275.292 95.6269 324.335 104.235 370.142 115.457C469.654 139.484 570.456 184.79 667.94 203.87C784.841 226.885 910.466 237.992 1024.18 279.987C1154.59 326.428 1253.28 428.129 1393.48 369.571C1572.07 291.087 1782.09 -57.5607 1903.29 -246.211" stroke="#1FA169" stroke-width="2" stroke-miterlimit="10"/>
</g>
<g opacity="0.5652">
<path d="M-364.428 348.599C-340.111 364.455 -298.304 351.997 -274.413 335.29C-247.398 315.875 -220.412 290.875 -192.629 276.985C-145.799 253.067 -80.7472 258.951 -29.8837 275.443C13.997 289.242 57.2443 311.114 98.2103 326.629C127.963 337.924 146.728 323.591 151.734 301.653C161.959 256.315 151.8 199.929 158.124 152.925C161.631 127.051 182.798 107.991 210.488 100.568C216.597 98.9151 223.161 97.6302 230.021 96.7665C271.989 91.4215 320.989 99.9734 367.093 111.17C466.22 134.906 567.123 180.063 663.956 199.339C779.454 222.444 904.297 231.869 1019.17 269.536C1153.39 311.77 1252.37 411.826 1394.92 352.905C1575.54 274.291 1783.79 -66.3694 1908.75 -258.903" fill="black"/>
<path d="M-364.428 348.599C-340.111 364.455 -298.304 351.997 -274.413 335.29C-247.398 315.875 -220.412 290.876 -192.629 276.985C-145.799 253.067 -80.7472 258.951 -29.8837 275.443C13.997 289.242 57.2443 311.114 98.2103 326.629C127.963 337.924 146.728 323.591 151.734 301.653C161.959 256.315 151.8 199.929 158.124 152.925C161.631 127.051 182.798 107.991 210.488 100.568C216.597 98.9151 223.161 97.6302 230.021 96.7665C271.989 91.4215 320.989 99.9735 367.093 111.17C466.22 134.906 567.123 180.063 663.956 199.339C779.454 222.444 904.297 231.869 1019.17 269.536C1153.39 311.77 1252.37 411.826 1394.92 352.905C1575.54 274.291 1783.79 -66.3694 1908.75 -258.903" stroke="#1FA169" stroke-width="2" stroke-miterlimit="10"/>
</g>
<g opacity="0.5435">
<path d="M-372.816 339.748C-348.955 353.825 -308.963 339.754 -286.138 323.739C-259.287 304.334 -231.767 278.717 -204.709 266.415C-156.499 244.139 -97.026 247.23 -43.7978 261.358C-0.691772 272.604 43.2403 293.612 84.3047 307.783C114.701 318.282 133.687 305.794 138.56 283.012C147.895 239.256 138.96 187.465 150.39 143.546C156.956 118.606 178.386 101.851 206.092 95.3447C212.358 93.863 219.063 92.7192 226.05 91.9774C268.711 87.3999 317.712 95.8963 364.125 107.072C462.931 130.538 563.902 175.46 660.194 195.037C774.51 218.372 898.571 226.443 1014.36 260.048C1151.53 298.115 1252.04 395.586 1396.33 336.312C1578.83 257.518 1785.34 -74.962 1914.04 -271.333" fill="black"/>
<path d="M-372.816 339.748C-348.955 353.825 -308.963 339.754 -286.138 323.739C-259.287 304.334 -231.767 278.717 -204.709 266.415C-156.499 244.139 -97.026 247.23 -43.7978 261.358C-0.691769 272.604 43.2403 293.612 84.3047 307.783C114.701 318.282 133.687 305.794 138.56 283.012C147.895 239.256 138.96 187.465 150.39 143.546C156.956 118.606 178.386 101.851 206.092 95.3447C212.358 93.863 219.063 92.7192 226.05 91.9774C268.711 87.3999 317.712 95.8963 364.125 107.072C462.931 130.538 563.902 175.46 660.194 195.037C774.51 218.372 898.571 226.443 1014.36 260.048C1151.52 298.115 1252.04 395.586 1396.33 336.312C1578.83 257.518 1785.34 -74.962 1914.04 -271.333" stroke="#1FA169" stroke-width="2" stroke-miterlimit="10"/>
</g>
<g opacity="0.5217">
<path d="M-380.756 331.354C-357.342 343.547 -319.188 328.077 -297.444 312.775C-270.781 293.462 -243.391 268.784 -216.511 256.524C-168.695 234.39 -110.298 235.925 -57.7164 248.009C-14.6617 257.724 29.1334 276.745 70.2 289.541C100.588 299.008 120.332 288.541 125.564 265.264C134.813 224.078 128.479 174.722 142.827 134.863C151.458 111.076 173.941 96.0781 201.735 90.3824C208.153 89.0569 214.997 88.0434 222.108 87.417C265.436 83.545 314.483 91.9944 361.214 103.151C459.753 126.363 560.786 170.981 656.633 190.947C769.971 214.634 893.244 221.656 1009.76 251.47C1149.21 285.524 1252.15 379.485 1397.69 319.862C1581.95 240.801 1786.73 -83.4242 1919.16 -283.49" fill="black"/>
<path d="M-380.756 331.354C-357.342 343.547 -319.188 328.077 -297.444 312.775C-270.781 293.462 -243.391 268.784 -216.511 256.524C-168.695 234.389 -110.298 235.925 -57.7164 248.009C-14.6618 257.724 29.1334 276.745 70.2 289.541C100.588 299.008 120.332 288.541 125.564 265.264C134.813 224.078 128.479 174.722 142.827 134.863C151.458 111.076 173.941 96.078 201.735 90.3824C208.153 89.0569 214.997 88.0434 222.108 87.417C265.436 83.545 314.483 91.9944 361.214 103.151C459.753 126.363 560.786 170.981 656.633 190.947C769.971 214.634 893.244 221.656 1009.76 251.47C1149.21 285.524 1252.15 379.485 1397.69 319.862C1581.95 240.801 1786.73 -83.4242 1919.16 -283.49" stroke="#1FA169" stroke-width="2" stroke-miterlimit="10"/>
</g>
<g opacity="0.5">
<path d="M-388.219 323.442C-365.252 333.646 -328.964 317.015 -308.29 302.436C-281.852 283.262 -254.659 259.552 -227.997 247.357C-180.664 225.41 -123.434 225.419 -71.6015 235.461C-28.5682 243.487 19.218 264.867 55.9083 271.999C89.0761 278.473 103.416 272.914 112.74 248.526C125.341 215.977 118.859 163.096 135.356 126.737C145.628 104.141 169.452 90.6368 197.403 85.6574C203.973 84.4751 210.953 83.5858 218.189 83.0641C262.164 79.8443 311.296 88.2487 358.354 99.3877C456.683 122.363 557.772 166.613 653.27 187.048C765.813 211.194 888.304 217.454 1005.38 243.754C1148.85 274.573 1254.95 359.713 1398.98 303.62C1578.64 231.033 1787.55 -90.9435 1924.09 -295.366" fill="black"/>
<path d="M-388.219 323.442C-365.252 333.646 -328.964 317.015 -308.29 302.436C-281.852 283.262 -254.659 259.552 -227.997 247.357C-180.664 225.41 -123.434 225.419 -71.6015 235.461C-28.5682 243.487 19.218 264.867 55.9083 271.999C89.0761 278.473 103.416 272.914 112.74 248.526C125.341 215.977 118.859 163.096 135.356 126.737C145.628 104.141 169.452 90.6369 197.403 85.6575C203.973 84.4751 210.953 83.5858 218.189 83.0641C262.164 79.8443 311.296 88.2487 358.354 99.3877C456.683 122.363 557.772 166.613 653.27 187.048C765.813 211.194 888.304 217.454 1005.38 243.754C1148.85 274.573 1254.95 359.713 1398.98 303.62C1578.64 231.033 1787.55 -90.9435 1924.09 -295.366" stroke="#1FA169" stroke-width="2" stroke-miterlimit="10"/>
</g>
<g opacity="0.4783">
<path d="M-395.189 316.016C-372.687 324.181 -338.693 306.633 -318.642 292.757C-291.922 273.786 -265.591 251.128 -239.132 238.946C-192.354 217.164 -136.271 215.71 -85.4138 223.779C-42.3035 230.312 5.11679 248.481 41.4519 255.248C74.0184 261.303 90.1261 256.353 100.088 232.904C112.996 202.762 109.455 152.173 127.94 119.104C139.935 97.6452 164.904 85.4907 193.077 81.1378C199.797 80.0858 206.915 79.3119 214.274 78.8864C258.878 76.2674 308.134 84.6312 355.533 95.7574C453.712 118.514 554.849 162.333 650.089 183.306C762.003 208.005 883.713 213.773 1001.21 236.833C1145.49 263.956 1255.55 344.308 1400.18 287.63C1581.62 214.292 1788.63 -99.1833 1928.84 -306.965" fill="black"/>
<path d="M-395.189 316.016C-372.687 324.181 -338.693 306.633 -318.642 292.757C-291.922 273.786 -265.591 251.128 -239.132 238.946C-192.354 217.164 -136.271 215.71 -85.4138 223.779C-42.3035 230.312 5.1168 248.481 41.4519 255.248C74.0184 261.303 90.1261 256.353 100.088 232.904C112.996 202.762 109.455 152.173 127.94 119.104C139.935 97.6452 164.904 85.4907 193.077 81.1377C199.797 80.0859 206.915 79.3119 214.274 78.8864C258.878 76.2674 308.134 84.6312 355.533 95.7574C453.712 118.514 554.849 162.333 650.089 183.306C762.003 208.005 883.713 213.773 1001.21 236.833C1145.49 263.956 1255.55 344.308 1400.18 287.63C1581.62 214.292 1788.63 -99.1833 1928.84 -306.965" stroke="#1FA169" stroke-width="2" stroke-miterlimit="10"/>
</g>
<g opacity="0.4565">
<path d="M-401.873 308.847C-388.622 315.933 -353.871 301.612 -328.46 283.782C-302.335 265.192 -277.937 244.545 -250.905 230.945C-203.493 206.978 -147.365 206.944 -99.1101 213.037C-56.1389 218.175 -9.57465 233.62 26.8503 239.397C59.2948 244.53 76.922 240.474 87.5942 218.538C101.055 191.009 100.244 141.996 120.542 111.927C134.263 91.5647 160.271 80.6095 188.743 76.8103C195.613 75.8803 202.867 75.2132 210.351 74.8776C255.569 72.8165 304.986 81.1462 352.74 92.2595C450.827 114.818 552.006 158.146 647.084 179.721C758.518 205.052 879.446 210.585 997.263 230.676C1141.96 254.39 1256.2 329.308 1401.29 271.965C1584.41 197.751 1789.57 -107.282 1933.4 -318.256" fill="black"/>
<path d="M-401.873 308.847C-388.622 315.933 -353.871 301.612 -328.46 283.782C-302.335 265.192 -277.937 244.545 -250.905 230.945C-203.493 206.978 -147.365 206.944 -99.1101 213.037C-56.1389 218.175 -9.57465 233.62 26.8503 239.397C59.2948 244.53 76.922 240.474 87.5942 218.538C101.055 191.009 100.244 141.996 120.542 111.927C134.263 91.5647 160.271 80.6095 188.743 76.8103C195.613 75.8803 202.867 75.2132 210.351 74.8776C255.569 72.8165 304.986 81.1462 352.74 92.2595C450.827 114.818 552.006 158.146 647.084 179.721C758.518 205.052 879.446 210.585 997.263 230.676C1141.96 254.39 1256.2 329.308 1401.29 271.965C1584.41 197.751 1789.57 -107.282 1933.4 -318.256" stroke="#1FA169" stroke-width="2" stroke-miterlimit="10"/>
</g>
<g opacity="0.4348">
<path d="M-408.389 301.848C-395.711 307.836 -362.58 293.112 -337.771 275.495C-312.384 257.238 -288.9 236.944 -262.648 223.321C-216.553 199.294 -161.976 197.554 -114.984 202.302C-71.7581 206.386 -25.0248 219.68 12.1234 224.546C36.0701 227.377 67.5045 228.484 75.0887 205.46C85.9235 172.544 92.0803 132.721 113.116 105.145C127.835 85.8093 155.521 75.936 184.374 72.6414C191.396 71.8225 198.785 71.2537 206.393 71.0036C252.221 69.4578 301.828 77.7597 349.948 88.8644C448.009 111.239 549.308 154.123 644.226 176.257C755.226 202.183 875.641 207.898 993.508 225.211C1138.1 245.689 1256.38 313.836 1402.28 256.653C1586.81 182.757 1791.91 -117.795 1937.76 -329.254" fill="black"/>
<path d="M-408.389 301.848C-395.711 307.836 -362.58 293.112 -337.771 275.495C-312.384 257.238 -288.9 236.944 -262.648 223.321C-216.553 199.294 -161.976 197.554 -114.984 202.302C-71.7581 206.386 -25.0248 219.68 12.1235 224.546C36.0701 227.377 67.5045 228.484 75.0887 205.46C85.9235 172.544 92.0803 132.721 113.116 105.145C127.835 85.8093 155.521 75.936 184.374 72.6413C191.396 71.8225 198.785 71.2537 206.393 71.0036C252.221 69.4578 301.828 77.7597 349.948 88.8645C448.009 111.239 549.308 154.123 644.226 176.257C755.226 202.183 875.641 207.898 993.508 225.211C1138.1 245.689 1256.38 313.836 1402.28 256.653C1586.81 182.757 1791.91 -117.795 1937.76 -329.254" stroke="#1FA169" stroke-width="2" stroke-miterlimit="10"/>
</g>
<g opacity="0.413">
<path d="M-414.742 295.008C-402.591 299.93 -370.836 284.987 -346.868 267.558C-322.38 249.541 -299.597 229.701 -274.198 216.09C-230.163 192.365 -177.121 188.587 -131.402 192.034C-87.2259 195.089 -40.6809 206.92 -2.68521 210.814C21.255 212.982 53.1517 213.959 62.2488 193.389C75.4804 163.372 82.8142 124.156 105.633 98.7162C122.064 80.3636 150.654 71.4653 179.957 68.6132C187.131 67.897 194.657 67.4245 202.391 67.2513C248.82 66.1866 298.655 74.4649 347.151 85.5654C445.249 107.777 546.569 150.077 641.506 172.905C752.27 199.574 871.89 205.516 989.947 220.398C1134.46 238.071 1256.88 299.851 1403.14 241.753C1589.13 166.658 1792.45 -125.494 1941.92 -339.935" fill="black"/>
<path d="M-414.742 295.008C-402.591 299.93 -370.836 284.987 -346.868 267.558C-322.38 249.541 -299.597 229.701 -274.198 216.09C-230.163 192.365 -177.121 188.587 -131.402 192.034C-87.2259 195.089 -40.6809 206.92 -2.68521 210.814C21.255 212.982 53.1517 213.959 62.2488 193.389C75.4804 163.372 82.8142 124.156 105.633 98.7162C122.064 80.3637 150.654 71.4653 179.957 68.6132C187.131 67.897 194.657 67.4245 202.391 67.2513C248.82 66.1866 298.655 74.4649 347.151 85.5654C445.249 107.777 546.569 150.077 641.506 172.905C752.27 199.574 871.89 205.516 989.947 220.398C1134.46 238.071 1256.88 299.851 1403.14 241.753C1589.13 166.658 1792.44 -125.494 1941.92 -339.935" stroke="#1FA169" stroke-width="2" stroke-miterlimit="10"/>
</g>
<g opacity="0.3913">
<path d="M-420.941 288.323C-409.278 292.214 -378.873 277.126 -355.746 259.922C-332.17 242.148 -309.494 221.307 -285.552 209.236C-242.279 187.341 -194.328 181.038 -147.751 182.428C-104.204 183.576 -57.3104 193.849 -19.1264 197.471C4.98499 199.478 36.9138 200.985 48.0567 181.645C64.3914 153.257 73.435 116.216 98.0664 92.5931C116.207 75.1877 145.658 67.1573 175.485 64.705C182.813 64.0872 190.476 63.7002 198.338 63.6019C245.371 62.9861 295.456 71.2473 344.344 82.3478C442.536 104.418 543.882 146.092 638.919 169.647C749.559 197.101 868.379 203.487 986.579 216.187C1130.78 231.336 1257.23 286.435 1403.87 227.302C1591.22 150.875 1792.81 -133.047 1945.87 -350.294" fill="black"/>
<path d="M-420.941 288.323C-409.278 292.214 -378.873 277.126 -355.746 259.922C-332.17 242.148 -309.494 221.307 -285.552 209.236C-242.279 187.341 -194.328 181.038 -147.751 182.428C-104.204 183.576 -57.3104 193.849 -19.1264 197.471C4.98497 199.478 36.9138 200.985 48.0567 181.645C64.3914 153.257 73.435 116.216 98.0664 92.5931C116.207 75.1877 145.658 67.1573 175.485 64.7051C182.813 64.0872 190.476 63.7002 198.338 63.6019C245.371 62.9861 295.456 71.2473 344.344 82.3478C442.536 104.418 543.882 146.092 638.919 169.647C749.559 197.101 868.379 203.487 986.579 216.187C1130.78 231.337 1257.23 286.435 1403.87 227.302C1591.22 150.875 1792.81 -133.047 1945.87 -350.294" stroke="#1FA169" stroke-width="2" stroke-miterlimit="10"/>
</g>
<g opacity="0.3696">
<path d="M-426.996 281.783C-415.778 284.68 -386.708 269.513 -364.425 252.56C-341.745 235.091 -319.842 214.808 -296.728 202.728C-255.137 180.92 -209.005 173.566 -164.029 173.452C-121.381 173.211 -75.6787 181.32 -37.8135 184.04C-13.2549 185.553 18.5755 186.956 32.3614 169.965C53.0872 144.388 63.9049 108.746 90.3724 86.735C110.223 70.2424 140.506 62.9797 170.928 60.8994C178.412 60.3713 186.257 59.98 194.205 60.0399C241.737 60.3734 291.943 68.0403 341.499 79.2028C439.839 101.145 541.219 142.163 636.436 166.47C747.044 194.732 865.068 201.768 983.382 212.528C1058.19 219.21 1124.13 228.846 1195.45 238.394C1263.59 247.192 1329.78 243.564 1404.45 213.343C1593.03 135.449 1793 -140.438 1949.6 -360.312" fill="black"/>
<path d="M-426.996 281.783C-415.778 284.68 -386.708 269.513 -364.425 252.56C-341.745 235.091 -319.842 214.808 -296.728 202.728C-255.137 180.92 -209.005 173.566 -164.029 173.452C-121.381 173.211 -75.6787 181.32 -37.8136 184.04C-13.2549 185.553 18.5755 186.956 32.3613 169.965C53.0873 144.388 63.9049 108.746 90.3724 86.7349C110.223 70.2424 140.506 62.9797 170.928 60.8994C178.412 60.3713 186.257 59.98 194.205 60.0399C241.737 60.3734 291.943 68.0403 341.499 79.2028C439.839 101.145 541.219 142.163 636.436 166.47C747.044 194.732 865.067 201.768 983.382 212.528C1058.19 219.21 1124.13 228.846 1195.45 238.394C1263.59 247.192 1329.78 243.564 1404.45 213.343C1593.03 135.449 1793 -140.438 1949.6 -360.312" stroke="#1FA169" stroke-width="2" stroke-miterlimit="10"/>
</g>
<g opacity="0.3478">
<path d="M-432.912 275.379C-422.105 277.325 -394.827 262.164 -372.911 245.46C-350.92 228.546 -331.104 209.016 -307.726 196.545C-267.298 174.981 -223.552 166.594 -180.214 165.073C-138.617 163.515 -94.2057 169.61 -56.8499 171.404C-31.9296 172.379 -0.454468 173.476 15.4843 158.521C40.1949 135.304 54.2225 101.618 82.5262 81.0907C104.089 65.479 135.192 58.9025 166.279 57.1643C173.921 56.7217 181.906 56.416 189.991 56.5357C238.119 57.2177 288.685 64.9424 338.618 76.1027C437.158 97.936 538.588 138.269 634.053 163.344C744.711 192.429 861.942 200.31 980.353 209.36C1054.11 214.925 1122.58 221.316 1194.17 228.938C1262.98 236.029 1330.03 230.674 1404.89 199.887C1594.59 120.4 1793.01 -147.684 1953.11 -370.008" fill="black"/>
<path d="M-432.912 275.379C-422.105 277.325 -394.827 262.164 -372.911 245.46C-350.92 228.546 -331.104 209.016 -307.726 196.545C-267.298 174.981 -223.552 166.594 -180.214 165.073C-138.617 163.515 -94.2057 169.61 -56.8499 171.404C-31.9296 172.379 -0.454456 173.476 15.4843 158.521C40.1948 135.304 54.2225 101.618 82.5262 81.0907C104.089 65.479 135.192 58.9025 166.279 57.1643C173.921 56.7218 181.906 56.416 189.991 56.5357C238.119 57.2178 288.685 64.9424 338.618 76.1027C437.158 97.936 538.588 138.269 634.053 163.344C744.711 192.429 861.942 200.31 980.353 209.36C1054.11 214.925 1122.58 221.316 1194.17 228.938C1262.98 236.029 1330.03 230.674 1404.89 199.887C1594.59 120.4 1793.01 -147.684 1953.11 -370.008" stroke="#1FA169" stroke-width="2" stroke-miterlimit="10"/>
</g>
<g opacity="0.3261">
<path d="M-438.699 269.107C-428.269 270.118 -402.255 255.004 -381.217 238.608C-360.099 222.028 -341.363 204.028 -318.555 190.667C-279.841 168.013 -236.846 159.955 -196.297 157.261C-155.988 154.486 -113.194 159.057 -76.1832 159.547C-50.7493 159.711 -20.1687 160.597 -2.46017 147.367C26.2843 125.901 44.0506 94.9813 74.4985 75.6175C97.7731 60.8546 129.704 54.8981 161.524 53.4848C169.328 53.1235 177.456 52.9034 185.676 53.0787C234.412 54.0921 285.355 61.8786 335.681 73.0411C434.472 94.7782 535.97 134.412 631.75 160.257C742.525 190.163 858.98 199.072 977.474 206.636C1050.31 211.256 1121.16 214.491 1193.01 220.155C1262.38 225.474 1330.21 218.355 1405.16 186.975C1595.87 105.772 1792.85 -154.754 1956.4 -379.353" fill="black"/>
<path d="M-438.699 269.106C-428.269 270.118 -402.255 255.004 -381.217 238.608C-360.099 222.028 -341.363 204.028 -318.555 190.667C-279.841 168.013 -236.846 159.955 -196.297 157.261C-155.988 154.486 -113.194 159.057 -76.1832 159.547C-50.7493 159.711 -20.1687 160.597 -2.46018 147.367C26.2843 125.901 44.0506 94.9813 74.4985 75.6175C97.7732 60.8546 129.704 54.8981 161.524 53.4848C169.328 53.1235 177.456 52.9034 185.676 53.0787C234.412 54.0921 285.355 61.8786 335.681 73.0411C434.472 94.7782 535.97 134.412 631.75 160.257C742.525 190.163 858.98 199.072 977.474 206.636C1050.31 211.256 1121.16 214.491 1193.01 220.155C1262.38 225.474 1330.21 218.355 1405.16 186.975C1595.87 105.772 1792.85 -154.754 1956.4 -379.353" stroke="#1FA169" stroke-width="2" stroke-miterlimit="10"/>
</g>
<g opacity="0.3043">
<path d="M-444.365 262.953C-434.277 263.056 -409.513 248.045 -389.357 231.978C-369.116 215.735 -351.063 198.283 -329.223 185.068C-292.832 163.044 -251.476 153.423 -212.269 149.977C-172.562 146.417 -132.925 147.071 -95.7614 148.444C-71.7442 149.109 -38.51 147.007 -21.3579 136.557C11.2193 116.515 33.439 88.6464 66.2666 70.2745C91.2554 56.3348 124.036 50.9384 156.652 49.8373C164.621 49.5551 172.894 49.414 181.253 49.6449C230.608 50.979 281.942 58.8277 332.684 70.003C431.772 91.6631 533.362 130.583 629.517 157.191C740.465 187.905 856.16 198.009 974.733 204.304C1046.89 208.139 1119.81 208.349 1191.96 212.041C1261.78 215.534 1330.27 206.611 1405.27 174.622C1596.94 91.5712 1792.51 -161.784 1959.46 -388.352" fill="black"/>
<path d="M-444.365 262.953C-434.277 263.056 -409.513 248.045 -389.357 231.978C-369.116 215.735 -351.063 198.283 -329.223 185.068C-292.832 163.044 -251.476 153.423 -212.269 149.977C-172.562 146.417 -132.925 147.071 -95.7614 148.444C-71.7442 149.109 -38.51 147.007 -21.3579 136.557C11.2193 116.515 33.439 88.6464 66.2666 70.2745C91.2553 56.3348 124.036 50.9384 156.652 49.8373C164.621 49.5551 172.894 49.414 181.253 49.6449C230.608 50.979 281.942 58.8277 332.684 70.003C431.772 91.6631 533.362 130.583 629.517 157.191C740.465 187.905 856.16 198.009 974.733 204.304C1046.89 208.139 1119.81 208.349 1191.96 212.041C1261.78 215.534 1330.27 206.611 1405.27 174.622C1596.94 91.5712 1792.51 -161.784 1959.46 -388.352" stroke="#1FA169" stroke-width="2" stroke-miterlimit="10"/>
</g>
<g opacity="0.2826">
<path d="M-449.92 256.913C-440.144 256.137 -416.622 241.276 -397.34 225.56C-377.977 209.679 -360.607 192.773 -339.738 179.732C-305.076 158.067 -265.681 147.724 -228.124 143.197C-189.829 138.522 -151.602 137.863 -115.543 138.081C-91.5341 138.034 -59.3742 135.616 -41.1071 126.143C-4.81702 107.153 22.4016 82.4996 57.7973 65.0278C84.5087 51.8856 118.171 47.0067 151.641 46.2113C159.781 46.0061 168.202 45.944 176.704 46.2263C226.69 47.8704 278.431 55.7895 329.605 66.9798C429.038 88.5757 530.742 126.778 627.326 154.135C738.499 185.632 853.454 197.088 972.108 202.317C1043.92 205.501 1118.18 203.414 1191 204.594C1261.52 205.672 1330.01 195.565 1405.21 162.854C1597.64 77.8558 1791.96 -168.478 1962.28 -396.988" fill="black"/>
<path d="M-449.92 256.913C-440.144 256.137 -416.622 241.276 -397.34 225.56C-377.977 209.679 -360.607 192.773 -339.738 179.732C-305.076 158.067 -265.681 147.724 -228.124 143.197C-189.829 138.522 -151.602 137.863 -115.543 138.081C-91.5341 138.034 -59.3742 135.616 -41.1071 126.143C-4.81703 107.153 22.4017 82.4996 57.7973 65.0278C84.5087 51.8856 118.171 47.0066 151.641 46.2113C159.781 46.0061 168.202 45.944 176.704 46.2263C226.69 47.8704 278.431 55.7895 329.605 66.9798C429.038 88.5758 530.742 126.778 627.326 154.135C738.499 185.632 853.454 197.088 972.108 202.317C1043.92 205.501 1118.18 203.414 1191 204.594C1261.52 205.672 1330.01 195.565 1405.21 162.854C1597.64 77.8558 1791.96 -168.478 1962.28 -396.988" stroke="#1FA169" stroke-width="2" stroke-miterlimit="10"/>
</g>
<g opacity="0.2609">
<path d="M-455.369 250.978C-445.88 249.347 -423.588 234.678 -405.178 219.334C-386.692 203.816 -369.621 186.408 -350.103 174.632C-315.955 154.078 -281.235 143.157 -243.847 136.88C-207.876 130.867 -170.781 128.967 -135.469 128.417C-111.285 127.879 -80.6894 124.841 -61.5941 116.15C-21.574 97.7948 10.8727 76.4832 49.0739 59.8239C77.8098 47.3444 112.298 43.4597 146.487 42.5724C154.696 42.3479 163.376 42.4569 172.023 42.7926C222.656 44.7425 274.818 52.7364 326.444 63.9481C426.264 85.4927 528.109 122.985 625.175 151.065C736.609 183.304 850.855 196.256 969.593 200.618C1041.43 203.269 1116.33 199.634 1190.15 197.793C1261.45 195.929 1329.5 185.192 1404.97 151.67C1598.04 64.6258 1791.21 -174.99 1964.86 -405.268" fill="black"/>
<path d="M-455.369 250.978C-445.88 249.347 -423.588 234.678 -405.178 219.334C-386.692 203.816 -369.621 186.408 -350.103 174.632C-315.955 154.078 -281.235 143.157 -243.847 136.88C-207.876 130.867 -170.781 128.967 -135.469 128.417C-111.285 127.879 -80.6894 124.841 -61.5941 116.15C-21.574 97.7948 10.8727 76.4832 49.0738 59.8239C77.8098 47.3444 112.298 43.4597 146.487 42.5724C154.696 42.3479 163.376 42.4569 172.023 42.7926C222.656 44.7425 274.818 52.7364 326.444 63.9481C426.264 85.4927 528.109 122.985 625.175 151.065C736.609 183.304 850.855 196.256 969.593 200.618C1041.43 203.269 1116.33 199.634 1190.15 197.793C1261.45 195.929 1329.5 185.192 1404.97 151.67C1598.04 64.6258 1791.21 -174.99 1964.86 -405.268" stroke="#1FA169" stroke-width="2" stroke-miterlimit="10"/>
</g>
<g opacity="0.2391">
<path d="M-460.723 245.141C-451.495 242.676 -430.422 228.241 -412.883 213.287C-395.269 198.17 -378.928 181.386 -360.333 169.753C-327.989 149.562 -294.975 138.137 -259.439 130.994C-225.047 124.099 -189.424 121.069 -155.507 119.427C-131.618 118.136 -102.363 114.687 -82.7238 106.616C-39.5578 88.6826 0.0942383 70.6892 40.0716 54.6392C69.7555 42.6942 106.014 39.4381 141.176 38.9143C149.578 38.7753 158.399 38.9485 167.2 39.3376C218.496 41.591 271.093 49.6662 323.187 60.9057C423.435 82.414 525.449 119.203 623.046 147.974C734.773 180.905 848.42 195.484 967.169 199.162C1039.09 201.404 1114.86 195.32 1189.34 191.702C1260.06 188.262 1329.91 174.994 1404.55 141.094C1597.85 52.2489 1790.25 -181.261 1967.2 -413.172" fill="black"/>
<path d="M-460.723 245.141C-451.495 242.676 -430.422 228.241 -412.883 213.287C-395.269 198.17 -378.928 181.386 -360.333 169.753C-327.989 149.562 -294.975 138.137 -259.439 130.994C-225.047 124.099 -189.424 121.069 -155.507 119.427C-131.618 118.136 -102.363 114.687 -82.7238 106.616C-39.5578 88.6826 0.0942294 70.6892 40.0716 54.6392C69.7555 42.6942 106.014 39.4381 141.176 38.9143C149.578 38.7753 158.399 38.9485 167.2 39.3376C218.496 41.591 271.093 49.6662 323.187 60.9057C423.435 82.414 525.449 119.203 623.046 147.974C734.773 180.905 848.42 195.484 967.169 199.162C1039.09 201.404 1114.86 195.32 1189.34 191.702C1260.06 188.262 1329.91 174.994 1404.55 141.093C1597.85 52.2489 1790.25 -181.261 1967.2 -413.172" stroke="#1FA169" stroke-width="2" stroke-miterlimit="10"/>
</g>
<g opacity="0.2174">
<path d="M-465.986 239.39C-456.998 236.113 -437.137 221.944 -420.469 207.397C-403.714 192.707 -388.437 177.611 -370.433 165.069C-340.644 144.316 -306.638 132.897 -274.891 125.501C-242.132 117.807 -207.74 114.078 -175.608 111.068C-149.662 108.538 -122.595 104.555 -104.395 97.5576C-58.4062 79.6005 -10.727 64.6837 30.7719 49.4247C61.4938 37.9971 99.5023 35.3652 135.698 35.2113C144.297 35.1579 153.266 35.3973 162.221 35.8399C214.198 38.3969 267.242 46.562 319.824 57.8335C420.539 79.3204 522.747 115.425 620.918 144.839C732.957 178.41 846.407 194.751 964.816 197.896C1102.94 202.223 1253.87 202.065 1403.95 131.116C1597.66 40.0454 1789.11 -187.363 1969.29 -420.709" fill="black"/>
<path d="M-465.986 239.39C-456.998 236.113 -437.137 221.944 -420.469 207.397C-403.714 192.707 -388.437 177.611 -370.433 165.069C-340.644 144.316 -306.638 132.897 -274.891 125.501C-242.132 117.807 -207.74 114.078 -175.608 111.068C-149.662 108.538 -122.595 104.555 -104.395 97.5575C-58.4062 79.6005 -10.727 64.6837 30.7719 49.4248C61.4937 37.9971 99.5023 35.3652 135.698 35.2113C144.297 35.1579 153.265 35.3973 162.221 35.8399C214.198 38.3969 267.242 46.562 319.824 57.8335C420.539 79.3204 522.747 115.425 620.918 144.839C732.957 178.41 846.407 194.751 964.816 197.896C1102.94 202.223 1253.87 202.065 1403.95 131.116C1597.66 40.0454 1789.11 -187.363 1969.29 -420.709" stroke="#1FA169" stroke-width="2" stroke-miterlimit="10"/>
</g>
<g opacity="0.1957">
<path d="M-471.17 233.722C-462.402 229.65 -443.746 215.78 -427.942 201.655C-412.055 187.39 -397.445 172.83 -380.41 160.567C-353.703 141.252 -319.57 127.611 -290.199 120.374C-258.576 112.447 -226.425 107.213 -195.733 103.304C-170.829 100.057 -144.82 95.6633 -126.514 88.9863C-77.8208 70.7877 -21.9133 58.4941 21.1584 44.1503C53.0958 33.2572 92.7607 31.2282 130.048 31.4463C138.848 31.4784 147.971 31.7863 157.087 32.2844C209.763 35.1515 263.265 43.4127 316.354 54.7206C417.574 76.1968 520.001 111.643 618.788 141.649C731.159 175.783 844.44 193.979 962.527 196.771C1100.02 200.714 1252.32 194.706 1403.17 121.743C1597.15 28.3911 1787.76 -193.247 1971.13 -427.865" fill="black"/>
<path d="M-471.17 233.722C-462.402 229.65 -443.746 215.78 -427.942 201.655C-412.055 187.39 -397.445 172.83 -380.41 160.567C-353.703 141.252 -319.57 127.611 -290.199 120.374C-258.576 112.447 -226.425 107.213 -195.733 103.304C-170.83 100.057 -144.82 95.6633 -126.514 88.9863C-77.8208 70.7876 -21.9133 58.4941 21.1584 44.1503C53.0958 33.2572 92.7607 31.2282 130.048 31.4463C138.848 31.4784 147.971 31.7863 157.087 32.2844C209.763 35.1515 263.265 43.4127 316.354 54.7206C417.574 76.1968 520.001 111.643 618.788 141.649C731.159 175.783 844.44 193.979 962.527 196.771C1100.02 200.714 1252.32 194.706 1403.17 121.743C1597.15 28.3911 1787.76 -193.247 1971.13 -427.865" stroke="#1FA169" stroke-width="2" stroke-miterlimit="10"/>
</g>
<g opacity="0.1739">
<path d="M-476.281 228.125C-467.715 223.272 -450.261 209.73 -435.319 196.036C-420.292 182.209 -406.357 168.186 -390.279 156.218C-365.157 137.438 -333.175 123.504 -305.366 115.57C-275.476 106.93 -245.161 100.948 -215.854 96.0866C-191.993 92.0714 -167.252 87.3614 -148.998 80.8983C-98.1197 62.2121 -32.7469 52.2533 11.2108 38.7732C44.032 28.2543 85.7748 26.9821 124.209 27.6C133.219 27.7197 142.498 28.096 151.779 28.6497C205.174 31.8311 259.149 40.1992 312.76 51.552C414.524 73.0325 517.207 107.841 616.628 138.385C729.32 173.008 842.49 193.124 960.275 195.732C1097.42 199.463 1250.46 188.018 1402.2 112.964C1596.19 17.4039 1786.25 -199.022 1972.71 -434.642" fill="black"/>
<path d="M-476.281 228.125C-467.715 223.272 -450.261 209.73 -435.319 196.036C-420.292 182.209 -406.357 168.186 -390.279 156.218C-365.157 137.438 -333.175 123.504 -305.366 115.57C-275.476 106.93 -245.161 100.948 -215.854 96.0866C-191.993 92.0714 -167.252 87.3614 -148.998 80.8982C-98.1197 62.2121 -32.747 52.2533 11.2108 38.7732C44.032 28.2543 85.7748 26.9821 124.209 27.6C133.219 27.7197 142.498 28.096 151.779 28.6498C205.174 31.8311 259.149 40.1992 312.76 51.552C414.524 73.0325 517.207 107.841 616.628 138.385C729.32 173.008 842.49 193.124 960.275 195.732C1097.42 199.463 1250.46 188.018 1402.2 112.964C1596.19 17.4039 1786.25 -199.022 1972.71 -434.642" stroke="#1FA169" stroke-width="2" stroke-miterlimit="10"/>
</g>
<g opacity="0.1522">
<path d="M-481.328 222.594C-472.948 216.976 -456.692 203.782 -442.611 190.533C-428.442 177.155 -415.176 163.671 -400.049 152.012C-376.485 133.786 -346.643 119.641 -320.396 111.065C-292.285 101.786 -263.662 94.9577 -235.943 89.3797C-213.319 84.7766 -189.762 79.6111 -171.771 73.3019C-115.191 53.1171 -51.8109 45.3797 0.910187 33.27C38.1591 24.547 78.5024 22.7233 118.172 23.6619C127.395 23.8735 136.834 24.3182 146.285 24.9318C200.42 28.4381 254.875 36.9217 309.027 48.3258C411.371 69.8213 514.339 104.025 614.418 135.041C727.425 170.064 840.537 192.158 958.036 194.74C1095.18 198.42 1248.33 182.038 1401.04 104.78C1595 6.89563 1784.48 -204.463 1974.02 -441.028" fill="black"/>
<path d="M-481.328 222.594C-472.948 216.976 -456.692 203.782 -442.611 190.533C-428.442 177.155 -415.176 163.671 -400.049 152.012C-376.485 133.786 -346.643 119.641 -320.396 111.065C-292.285 101.786 -263.662 94.9577 -235.943 89.3797C-213.319 84.7766 -189.762 79.6112 -171.771 73.3019C-115.191 53.1171 -51.8108 45.3797 0.910201 33.27C38.159 24.547 78.5024 22.7233 118.172 23.6619C127.395 23.8735 136.834 24.3182 146.285 24.9318C200.42 28.4382 254.875 36.9217 309.027 48.3258C411.371 69.8213 514.339 104.025 614.418 135.041C727.425 170.064 840.537 192.158 958.036 194.74C1095.18 198.42 1248.33 182.038 1401.04 104.78C1595 6.89563 1784.48 -204.463 1974.02 -441.028" stroke="#1FA169" stroke-width="2" stroke-miterlimit="10"/>
</g>
<g opacity="0.1304">
<path d="M-486.32 217.117C-478.113 210.745 -463.059 197.92 -449.833 185.122C-436.52 172.199 -423.984 159.262 -409.728 147.925C-387.138 129.953 -361.107 116.77 -335.286 106.819C-309.443 96.8499 -283.085 89.7111 -255.971 83.1282C-234.584 77.9072 -212.332 72.3826 -194.75 66.1696C-133.272 44.1717 -67.289 35.8228 -9.75085 27.5958C29.2956 21.8617 70.8523 18.2378 111.932 19.6061C121.376 19.9118 130.982 20.4292 140.606 21.1048C195.503 24.9468 250.48 33.5651 305.159 45.0162C408.054 66.5245 511.403 100.172 612.152 131.592C725.455 166.925 838.575 191.024 955.804 193.735C1093.2 197.518 1245.84 176.73 1399.68 97.1642C1593.77 -3.19568 1782.54 -209.722 1975.07 -447.027" fill="black"/>
<path d="M-486.32 217.117C-478.113 210.745 -463.059 197.92 -449.833 185.121C-436.52 172.199 -423.984 159.262 -409.728 147.925C-387.138 129.953 -361.107 116.77 -335.286 106.819C-309.443 96.8499 -283.085 89.7111 -255.971 83.1282C-234.584 77.9072 -212.332 72.3826 -194.75 66.1696C-133.272 44.1717 -67.289 35.8228 -9.75085 27.5958C29.2956 21.8617 70.8523 18.2378 111.932 19.6061C121.376 19.9118 130.982 20.4292 140.606 21.1048C195.503 24.9468 250.48 33.5651 305.159 45.0162C408.054 66.5245 511.403 100.172 612.152 131.592C725.455 166.925 838.575 191.024 955.804 193.735C1093.2 197.518 1245.84 176.73 1399.68 97.1642C1593.77 -3.19568 1782.54 -209.722 1975.07 -447.027" stroke="#1FA169" stroke-width="2" stroke-miterlimit="10"/>
</g>
<g opacity="0.1087">
<path d="M-491.264 211.688C-483.219 204.571 -469.363 192.13 -456.992 179.794C-444.53 167.338 -432.664 154.944 -419.328 143.941C-398.195 126.506 -374.097 113.21 -350.041 102.804C-325.968 92.3835 -301.343 84.5072 -275.915 77.2829C-255.866 71.5659 -234.949 65.6436 -217.868 59.484C-152.628 35.6132 -81.1862 27.925 -20.7847 21.7205C19.3853 17.3633 63.0841 13.5854 105.484 15.4199C115.155 15.8239 124.932 16.4183 134.736 17.158C190.416 21.3506 245.962 30.1229 301.148 41.6232C404.555 63.1379 508.401 96.2833 609.818 128.035C723.379 163.581 836.594 189.695 953.562 192.675C1091.47 196.735 1243.38 171.962 1398.13 90.1087C1591.89 -12.5324 1780.33 -214.663 1975.86 -452.631" fill="black"/>
<path d="M-491.264 211.688C-483.219 204.571 -469.363 192.13 -456.992 179.794C-444.53 167.338 -432.664 154.944 -419.328 143.941C-398.195 126.506 -374.097 113.21 -350.041 102.804C-325.968 92.3836 -301.343 84.5072 -275.915 77.2829C-255.866 71.5659 -234.949 65.6436 -217.868 59.484C-152.628 35.6132 -81.1862 27.925 -20.7847 21.7205C19.3853 17.3633 63.0841 13.5855 105.484 15.4199C115.155 15.8239 124.932 16.4183 134.736 17.158C190.416 21.3506 245.962 30.1229 301.148 41.6232C404.555 63.1379 508.401 96.2833 609.818 128.035C723.379 163.581 836.594 189.695 953.562 192.675C1091.47 196.735 1243.38 171.962 1398.13 90.1087C1591.89 -12.5324 1780.33 -214.663 1975.86 -452.631" stroke="#1FA169" stroke-width="2" stroke-miterlimit="10"/>
</g>
<g opacity="0.087">
<path d="M-496.168 206.298C-488.276 198.443 -475.624 186.4 -464.102 174.53C-452.488 162.542 -441.288 150.697 -428.859 140.046C-409.164 123.164 -386.97 109.802 -364.669 98.99C-342.353 88.1653 -319.46 79.6111 -295.761 71.801C-277.081 65.6265 -257.564 59.3536 -241.065 53.2218C-172.857 27.5573 -98.5645 19.7621 -34.4395 15.2253C8.53387 11.9584 54.4005 8.75143 98.814 11.0925C108.716 11.5992 118.684 12.2748 128.661 13.083C185.077 17.637 241.274 26.5802 296.978 38.1361C400.924 59.6657 505.322 92.345 607.385 124.355C721.15 160.017 834.557 188.13 951.276 191.514C1089.91 196.012 1240.75 167.748 1396.38 83.59C1589.68 -21.2896 1777.89 -219.356 1976.36 -457.833" fill="black"/>
<path d="M-496.168 206.298C-488.276 198.443 -475.624 186.4 -464.102 174.53C-452.488 162.542 -441.288 150.697 -428.859 140.046C-409.164 123.164 -386.97 109.802 -364.669 98.99C-342.353 88.1653 -319.46 79.6111 -295.761 71.801C-277.081 65.6265 -257.564 59.3536 -241.065 53.2218C-172.857 27.5573 -98.5646 19.7621 -34.4395 15.2253C8.53388 11.9584 54.4005 8.75143 98.814 11.0925C108.716 11.5992 118.684 12.2749 128.661 13.083C185.077 17.637 241.274 26.5802 296.978 38.1361C400.924 59.6657 505.322 92.3451 607.385 124.355C721.15 160.017 834.557 188.13 951.277 191.514C1089.91 196.012 1240.75 167.748 1396.38 83.59C1589.68 -21.2896 1777.89 -219.356 1976.36 -457.833" stroke="#1FA169" stroke-width="2" stroke-miterlimit="10"/>
</g>
<g opacity="0.0652">
<path d="M-501.041 200.938C-493.298 192.35 -481.852 180.713 -471.175 169.315C-460.411 157.802 -449.865 146.507 -438.33 136.217C-420.059 119.91 -399.738 106.518 -379.177 95.3425C-358.603 84.1564 -337.438 74.9738 -315.497 66.6249C-298.205 60.0313 -280.144 53.459 -264.286 47.3401C-193.651 19.8497 -117.825 11.4089 -49.8926 8.24466C-3.18069 5.88858 44.9929 3.69711 91.9209 6.59836C102.049 7.21411 112.227 7.97736 122.38 8.85394C179.528 13.7842 236.412 22.9156 292.649 34.5335C397.138 56.0845 502.054 88.2742 604.81 120.494C718.815 156.216 832.464 186.278 948.94 190.195C1088.45 195.29 1238 164.021 1394.42 77.5736C1587.15 -29.4825 1775.22 -223.805 1976.59 -462.641" fill="black"/>
<path d="M-501.041 200.938C-493.298 192.35 -481.852 180.713 -471.175 169.315C-460.411 157.802 -449.865 146.507 -438.33 136.217C-420.059 119.91 -399.738 106.518 -379.177 95.3425C-358.603 84.1564 -337.438 74.9738 -315.497 66.6249C-298.205 60.0313 -280.144 53.459 -264.286 47.3401C-193.651 19.8497 -117.825 11.4089 -49.8926 8.24467C-3.18069 5.88859 44.9928 3.6971 91.9209 6.59837C102.05 7.21411 112.227 7.97736 122.38 8.85394C179.528 13.7842 236.412 22.9156 292.649 34.5335C397.138 56.0845 502.054 88.2742 604.81 120.494C718.815 156.216 832.464 186.278 948.94 190.195C1088.45 195.29 1238 164.021 1394.42 77.5736C1587.15 -29.4825 1775.22 -223.805 1976.59 -462.641" stroke="#1FA169" stroke-width="2" stroke-miterlimit="10"/>
</g>
<g opacity="0.0435">
<path d="M-505.889 195.602C-498.29 186.282 -488.056 175.056 -478.225 164.135C-468.304 153.101 -458.409 142.357 -447.76 132.439C-430.89 116.723 -412.413 103.337 -393.575 91.832C-374.726 80.321 -355.28 70.5439 -335.115 61.7011C-319.225 54.7249 -302.653 47.9046 -287.485 41.8006C-214.609 12.3326 -137.751 2.77573 -65.9089 1.00974C-15.084 -0.341492 35.1911 -1.54303 84.8006 1.92267C95.1625 2.64316 105.559 3.50903 115.886 4.46042C173.786 9.78619 231.369 19.125 288.152 30.8091C393.181 52.3901 498.475 83.9919 602.056 116.402C716.432 152.164 830.304 184.104 946.531 188.671C1086.98 194.524 1235.21 160.699 1392.27 72.0276C1584.31 -37.1215 1772.33 -228.015 1976.54 -467.054" fill="black"/>
<path d="M-505.889 195.602C-498.29 186.282 -488.056 175.056 -478.225 164.135C-468.304 153.101 -458.409 142.357 -447.76 132.439C-430.89 116.723 -412.413 103.337 -393.575 91.832C-374.726 80.321 -355.28 70.5439 -335.115 61.7011C-319.225 54.7248 -302.653 47.9046 -287.485 41.8006C-214.609 12.3325 -137.751 2.77572 -65.9089 1.00974C-15.0839 -0.341481 35.1911 -1.54303 84.8006 1.92267C95.1625 2.64317 105.559 3.50902 115.886 4.46043C173.786 9.78619 231.369 19.125 288.152 30.8092C393.181 52.3901 498.475 83.9919 602.056 116.402C716.432 152.164 830.304 184.104 946.532 188.671C1086.98 194.524 1235.21 160.699 1392.27 72.0276C1584.31 -37.1215 1772.33 -228.015 1976.54 -467.054" stroke="#1FA169" stroke-width="2" stroke-miterlimit="10"/>
</g>
<g opacity="0.0217">
<path d="M-510.723 190.28C-503.265 180.227 -494.251 169.416 -485.263 158.976C-476.183 148.423 -466.93 138.237 -457.154 128.702C-441.665 113.592 -425.007 100.241 -407.874 88.4388C-390.733 76.6307 -372.999 66.2957 -354.612 56.9932C-340.13 49.6641 -325.067 42.6494 -310.62 36.5689C-235.664 4.94574 -157.3 -5.53903 -82.4488 -6.45197C-27.7354 -7.16394 24.9429 -7.05914 77.4478 -2.93924C88.045 -2.10754 98.668 -1.1326 109.18 -0.0999451C167.85 5.64697 226.143 15.206 283.485 26.965C389.072 48.5865 494.771 79.5983 599.173 112.143C713.882 147.871 828.057 181.583 944.032 186.907C1085.41 193.682 1232.41 157.719 1389.92 66.9306C1581.17 -44.2005 1769.21 -231.97 1976.21 -471.05" fill="black"/>
<path d="M-510.723 190.28C-503.265 180.227 -494.251 169.416 -485.263 158.976C-476.183 148.423 -466.93 138.237 -457.154 128.702C-441.665 113.592 -425.007 100.241 -407.874 88.4389C-390.733 76.6307 -372.999 66.2957 -354.612 56.9932C-340.13 49.6642 -325.067 42.6494 -310.62 36.5689C-235.664 4.94573 -157.3 -5.53905 -82.4488 -6.45197C-27.7354 -7.16393 24.9429 -7.05915 77.4478 -2.93923C88.045 -2.10754 98.668 -1.13261 109.18 -0.0999562C167.85 5.64699 226.143 15.206 283.485 26.965C389.072 48.5866 494.771 79.5983 599.173 112.143C713.882 147.871 828.057 181.583 944.032 186.907C1085.41 193.682 1232.41 157.719 1389.92 66.9306C1581.17 -44.2005 1769.21 -231.97 1976.21 -471.05" stroke="#1FA169" stroke-width="2" stroke-miterlimit="10"/>
</g>
</g>
</g>
<path d="M367.915 -75C340.749 -61.8333 337.155 -28.9 395.555 1.5M395.555 1.5C394.888 1.16667 393.955 -1 395.555 -7M395.555 1.5C393.721 1.16667 388.655 0.7 383.055 1.5" stroke="#222222" stroke-width="2"/>
</g>
</g>
<defs>
<clipPath id="clip0_58_2447">
<rect width="1440" height="284" fill="white"/>
</clipPath>
<clipPath id="clip1_58_2447">
<rect width="1605" height="1069" fill="white" transform="translate(-99 -616)"/>
</clipPath>
</defs>
</svg>
