<svg width="34" height="34" viewBox="0 0 34 34" fill="none" xmlns="http://www.w3.org/2000/svg">
<path d="M5.3125 14.8751C5.03071 14.8751 4.76046 14.7631 4.5612 14.5639C4.36194 14.3646 4.25 14.0944 4.25 13.8126V5.3147C4.25 5.0329 4.36194 4.76265 4.5612 4.5634C4.76046 4.36414 5.03071 4.2522 5.3125 4.2522H13.8125C14.0943 4.2522 14.3645 4.36414 14.5638 4.5634C14.7631 4.76265 14.875 5.0329 14.875 5.3147V13.8126C14.875 14.0944 14.7631 14.3646 14.5638 14.5639C14.3645 14.7631 14.0943 14.8751 13.8125 14.8751H5.3125ZM20.1875 14.8751C19.9057 14.8751 19.6355 14.7631 19.4362 14.5639C19.2369 14.3646 19.125 14.0944 19.125 13.8126V5.3147C19.125 5.0329 19.2369 4.76265 19.4362 4.5634C19.6355 4.36414 19.9057 4.2522 20.1875 4.2522H28.6854C28.9672 4.2522 29.2374 4.36414 29.4367 4.5634C29.6359 4.76265 29.7479 5.0329 29.7479 5.3147V13.8126C29.7479 14.0944 29.6359 14.3646 29.4367 14.5639C29.2374 14.7631 28.9672 14.8751 28.6854 14.8751H20.1875ZM5.3125 29.7501C5.03071 29.7501 4.76046 29.6381 4.5612 29.4389C4.36194 29.2396 4.25 28.9694 4.25 28.6876V20.1876C4.25 19.9058 4.36194 19.6355 4.5612 19.4363C4.76046 19.237 5.03071 19.1251 5.3125 19.1251H13.8125C14.0943 19.1251 14.3645 19.237 14.5638 19.4363C14.7631 19.6355 14.875 19.9058 14.875 20.1876V28.6876C14.875 28.9694 14.7631 29.2396 14.5638 29.4389C14.3645 29.6381 14.0943 29.7501 13.8125 29.7501H5.3125ZM20.1875 29.7501C19.9057 29.7501 19.6355 29.6381 19.4362 29.4389C19.2369 29.2396 19.125 28.9694 19.125 28.6876V20.1876C19.125 19.9058 19.2369 19.6355 19.4362 19.4363C19.6355 19.237 19.9057 19.1251 20.1875 19.1251H28.6854C28.9672 19.1251 29.2374 19.237 29.4367 19.4363C29.6359 19.6355 29.7479 19.9058 29.7479 20.1876V28.6876C29.7479 28.9694 29.6359 29.2396 29.4367 29.4389C29.2374 29.6381 28.9672 29.7501 28.6854 29.7501H20.1875Z" fill="#333333"/>
</svg>
