<svg width="461" height="119" viewBox="0 0 461 119" fill="none" xmlns="http://www.w3.org/2000/svg">
<path d="M119.95 82.5101C119.95 77.3768 120.72 72.9035 122.26 69.0901C123.873 65.2035 125.963 61.9768 128.53 59.4101C131.097 56.8435 134.03 54.9001 137.33 53.5801C140.703 52.2601 144.15 51.6001 147.67 51.6001C155.883 51.6001 162.373 54.1301 167.14 59.1901C171.907 64.1768 174.29 71.5468 174.29 81.3001C174.29 82.2535 174.253 83.3168 174.18 84.4901C174.107 85.5901 174.033 86.5801 173.96 87.4601H136.78C137.147 90.8335 138.723 93.5101 141.51 95.4901C144.297 97.4701 148.037 98.4601 152.73 98.4601C155.737 98.4601 158.67 98.2035 161.53 97.6901C164.463 97.1035 166.847 96.4068 168.68 95.6001L170.88 108.91C170 109.35 168.827 109.79 167.36 110.23C165.893 110.67 164.243 111.037 162.41 111.33C160.65 111.697 158.743 111.99 156.69 112.21C154.637 112.43 152.583 112.54 150.53 112.54C145.323 112.54 140.777 111.77 136.89 110.23C133.077 108.69 129.887 106.6 127.32 103.96C124.827 101.247 122.957 98.0568 121.71 94.3901C120.537 90.7235 119.95 86.7635 119.95 82.5101ZM158.45 76.2401C158.377 74.8468 158.12 73.4901 157.68 72.1701C157.313 70.8501 156.69 69.6768 155.81 68.6501C155.003 67.6235 153.94 66.7801 152.62 66.1201C151.373 65.4601 149.797 65.1301 147.89 65.1301C146.057 65.1301 144.48 65.4601 143.16 66.1201C141.84 66.7068 140.74 67.5135 139.86 68.5401C138.98 69.5668 138.283 70.7768 137.77 72.1701C137.33 73.4901 137 74.8468 136.78 76.2401H158.45Z" fill="white"/>
<path d="M210.038 112.1C205.272 112.027 201.385 111.513 198.378 110.56C195.445 109.607 193.098 108.287 191.338 106.6C189.652 104.84 188.478 102.75 187.818 100.33C187.232 97.8368 186.938 95.0501 186.938 91.9701V28.2801L203.328 25.6401V88.6701C203.328 90.1368 203.438 91.4568 203.658 92.6301C203.878 93.8035 204.282 94.7935 204.868 95.6001C205.528 96.4068 206.445 97.0668 207.618 97.5801C208.792 98.0935 210.368 98.4235 212.348 98.5701L210.038 112.1Z" fill="white"/>
<path d="M244.843 112.1C240.076 112.027 236.19 111.513 233.183 110.56C230.25 109.607 227.903 108.287 226.143 106.6C224.456 104.84 223.283 102.75 222.623 100.33C222.036 97.8368 221.743 95.0501 221.743 91.9701V28.2801L238.133 25.6401V88.6701C238.133 90.1368 238.243 91.4568 238.463 92.6301C238.683 93.8035 239.086 94.7935 239.673 95.6001C240.333 96.4068 241.25 97.0668 242.423 97.5801C243.596 98.0935 245.173 98.4235 247.153 98.5701L244.843 112.1Z" fill="white"/>
<path d="M310.668 81.9601C310.668 86.5068 310.008 90.6868 308.688 94.5001C307.368 98.2401 305.461 101.467 302.968 104.18C300.474 106.82 297.468 108.873 293.948 110.34C290.501 111.807 286.614 112.54 282.288 112.54C278.034 112.54 274.148 111.807 270.628 110.34C267.181 108.873 264.211 106.82 261.718 104.18C259.224 101.467 257.281 98.2401 255.888 94.5001C254.494 90.6868 253.798 86.5068 253.798 81.9601C253.798 77.4135 254.494 73.2701 255.888 69.5301C257.354 65.7901 259.334 62.6001 261.828 59.9601C264.394 57.3201 267.401 55.2668 270.848 53.8001C274.368 52.3335 278.181 51.6001 282.288 51.6001C286.468 51.6001 290.281 52.3335 293.728 53.8001C297.248 55.2668 300.254 57.3201 302.748 59.9601C305.241 62.6001 307.184 65.7901 308.578 69.5301C309.971 73.2701 310.668 77.4135 310.668 81.9601ZM293.948 81.9601C293.948 76.9001 292.921 72.9401 290.868 70.0801C288.888 67.1468 286.028 65.6801 282.288 65.6801C278.548 65.6801 275.651 67.1468 273.598 70.0801C271.544 72.9401 270.518 76.9001 270.518 81.9601C270.518 87.0201 271.544 91.0535 273.598 94.0601C275.651 96.9935 278.548 98.4601 282.288 98.4601C286.028 98.4601 288.888 96.9935 290.868 94.0601C292.921 91.0535 293.948 87.0201 293.948 81.9601Z" fill="white"/>
<path d="M344.42 70.7401L355.86 53.1401H372.8L353 80.9701C357.4 86.4701 361.397 91.8235 364.99 97.0301C368.584 102.237 371.444 106.893 373.57 111H355.97C355.384 109.9 354.65 108.543 353.77 106.93C352.89 105.243 351.9 103.52 350.8 101.76C349.7 99.9268 348.527 98.1301 347.28 96.3701C346.107 94.5368 344.934 92.8868 343.76 91.4201C342.66 92.8135 341.524 94.3535 340.35 96.0401C339.25 97.7268 338.187 99.4501 337.16 101.21C336.134 102.897 335.107 104.583 334.08 106.27C333.127 107.957 332.284 109.533 331.55 111H314.83C315.71 109.167 316.92 107.003 318.46 104.51C320 102.017 321.65 99.4501 323.41 96.8101C325.244 94.0968 327.15 91.4201 329.13 88.7801C331.11 86.0668 333.054 83.5368 334.96 81.1901C331.66 76.5701 328.36 71.9135 325.06 67.2201C321.76 62.4535 318.497 57.7601 315.27 53.1401H332.98L344.42 70.7401Z" fill="white"/>
<path d="M398.729 111H382.339V53.1401H398.729V111ZM400.269 36.4201C400.269 39.4268 399.279 41.8101 397.299 43.5701C395.392 45.2568 393.119 46.1001 390.479 46.1001C387.839 46.1001 385.529 45.2568 383.549 43.5701C381.642 41.8101 380.689 39.4268 380.689 36.4201C380.689 33.4135 381.642 31.0668 383.549 29.3801C385.529 27.6201 387.839 26.7401 390.479 26.7401C393.119 26.7401 395.392 27.6201 397.299 29.3801C399.279 31.0668 400.269 33.4135 400.269 36.4201Z" fill="white"/>
<path d="M436.246 99.5601C437.859 99.5601 439.399 99.5235 440.866 99.4501C442.332 99.3768 443.505 99.2668 444.385 99.1201V86.6901C443.725 86.5435 442.736 86.3968 441.415 86.2501C440.095 86.1035 438.885 86.0301 437.785 86.0301C436.245 86.0301 434.779 86.1401 433.385 86.3601C432.065 86.5068 430.892 86.8368 429.866 87.3501C428.839 87.8635 428.032 88.5601 427.445 89.4401C426.859 90.3201 426.565 91.4201 426.565 92.7401C426.565 95.3068 427.409 97.1035 429.095 98.1301C430.855 99.0835 433.239 99.5601 436.246 99.5601ZM434.926 51.6001C439.766 51.6001 443.799 52.1501 447.026 53.2501C450.252 54.3501 452.819 55.9268 454.725 57.9801C456.706 60.0335 458.099 62.5268 458.905 65.4601C459.712 68.3935 460.116 71.6568 460.116 75.2501V109.35C457.769 109.863 454.505 110.45 450.326 111.11C446.146 111.843 441.086 112.21 435.146 112.21C431.406 112.21 427.995 111.88 424.915 111.22C421.909 110.56 419.306 109.497 417.105 108.03C414.905 106.49 413.219 104.51 412.046 102.09C410.872 99.6701 410.285 96.7001 410.285 93.1801C410.285 89.8068 410.945 86.9468 412.266 84.6001C413.659 82.2535 415.492 80.3835 417.766 78.9901C420.039 77.5968 422.642 76.6068 425.576 76.0201C428.509 75.3601 431.552 75.0301 434.706 75.0301C436.832 75.0301 438.702 75.1401 440.315 75.3601C442.002 75.5068 443.359 75.7268 444.385 76.0201V74.4801C444.385 71.6935 443.542 69.4568 441.855 67.7701C440.169 66.0835 437.236 65.2401 433.056 65.2401C430.269 65.2401 427.519 65.4601 424.806 65.9001C422.092 66.2668 419.746 66.8168 417.766 67.5501L415.676 54.3501C416.629 54.0568 417.802 53.7635 419.195 53.4701C420.662 53.1035 422.239 52.8101 423.926 52.5901C425.612 52.2968 427.372 52.0768 429.206 51.9301C431.112 51.7101 433.019 51.6001 434.926 51.6001Z" fill="white"/>
<path d="M110.517 38.6566C109.435 29.9078 106.157 23.705 104.825 21.2989C101.382 15.0593 97.2881 11.0564 97.1466 11.1668C97.0151 11.2698 101.009 15.3682 103.508 22.1892C105.039 26.3759 105.493 30.2095 105.631 32.8952C105.631 32.8952 106.175 38.5462 105.498 44.3664C102.128 73.3646 77.3228 94.2174 69.1779 101.068C66.6608 103.172 62.9279 105.961 56.5039 110.626L63.4101 118.028C65.8309 116.446 68.3804 114.68 71.0211 112.711C72.6055 111.529 74.2223 110.274 75.8642 108.941C76.6669 108.291 77.4422 107.643 78.2068 106.997C80.938 104.689 83.4343 102.417 85.6877 100.244C85.6877 100.244 96.3641 89.8247 103.948 74.9245C106.226 70.4363 112.637 55.7127 110.517 38.6566Z" fill="#1FA169"/>
<path d="M97.6276 44.568C100.482 19.9845 83.3232 3.58342 79.3574 0C79.6663 0.853465 98.8268 53.074 63.2135 77.3115L39.0424 50.1013H0L42.692 95.8318L51.4628 105.235C58.1656 100.379 62.1615 97.4063 64.5672 95.3902C71.9109 89.2169 94.6692 70.0858 97.6276 44.568Z" fill="#1FA169"/>
</svg>
