<svg width="127" height="34" viewBox="0 0 127 34" fill="none" xmlns="http://www.w3.org/2000/svg">
<path d="M33.1086 23.4993C33.1086 22.0825 33.3212 20.8477 33.7462 19.7952C34.1916 18.7224 34.7684 17.8318 35.4769 17.1234C36.1853 16.4149 36.995 15.8785 37.9058 15.5142C38.8369 15.1498 39.7883 14.9677 40.7598 14.9677C43.0269 14.9677 44.8182 15.666 46.1339 17.0626C47.4496 18.439 48.1074 20.4733 48.1074 23.1654C48.1074 23.4285 48.0973 23.722 48.0771 24.0459C48.0568 24.3495 48.0366 24.6227 48.0163 24.8656H37.754C37.8552 25.7967 38.2904 26.5355 39.0596 27.0821C39.8287 27.6286 40.861 27.9018 42.1565 27.9018C42.9864 27.9018 43.796 27.831 44.5854 27.6893C45.3951 27.5274 46.0529 27.3351 46.559 27.1124L47.1662 30.7862C46.9233 30.9077 46.5994 31.0291 46.1946 31.1505C45.7898 31.272 45.3344 31.3732 44.8283 31.4542C44.3425 31.5554 43.8163 31.6363 43.2495 31.6971C42.6828 31.7578 42.116 31.7881 41.5493 31.7881C40.1121 31.7881 38.8572 31.5756 37.7844 31.1505C36.7318 30.7255 35.8513 30.1486 35.1429 29.4199C34.4547 28.671 33.9385 27.7905 33.5944 26.7784C33.2706 25.7664 33.1086 24.6733 33.1086 23.4993ZM43.7353 21.7687C43.7151 21.3841 43.6442 21.0097 43.5228 20.6453C43.4216 20.281 43.2495 19.9571 43.0066 19.6737C42.784 19.3904 42.4905 19.1576 42.1261 18.9754C41.782 18.7933 41.3468 18.7022 40.8206 18.7022C40.3145 18.7022 39.8793 18.7933 39.515 18.9754C39.1507 19.1374 38.847 19.36 38.6041 19.6434C38.3613 19.9268 38.169 20.2607 38.0273 20.6453C37.9058 21.0097 37.8147 21.3841 37.754 21.7687H43.7353Z" fill="#333333"/>
<path d="M57.9746 31.6667C56.6589 31.6465 55.5861 31.5048 54.7562 31.2416C53.9466 30.9785 53.2988 30.6142 52.813 30.1486C52.3475 29.6628 52.0236 29.0859 51.8415 28.418C51.6795 27.7298 51.5986 26.9606 51.5986 26.1105V8.53093L56.1225 7.80225V25.1996C56.1225 25.6044 56.1529 25.9688 56.2136 26.2926C56.2743 26.6165 56.3856 26.8898 56.5476 27.1124C56.7297 27.3351 56.9827 27.5172 57.3066 27.6589C57.6305 27.8006 58.0657 27.8917 58.6122 27.9322L57.9746 31.6667Z" fill="#333333"/>
<path d="M67.5813 31.6667C66.2656 31.6465 65.1928 31.5048 64.3629 31.2416C63.5532 30.9785 62.9055 30.6142 62.4197 30.1486C61.9542 29.6628 61.6303 29.0859 61.4482 28.418C61.2862 27.7298 61.2053 26.9606 61.2053 26.1105V8.53093L65.7292 7.80225V25.1996C65.7292 25.6044 65.7595 25.9688 65.8203 26.2926C65.881 26.6165 65.9923 26.8898 66.1543 27.1124C66.3364 27.3351 66.5894 27.5172 66.9133 27.6589C67.2372 27.8006 67.6723 27.8917 68.2189 27.9322L67.5813 31.6667Z" fill="#333333"/>
<path d="M85.75 23.3475C85.75 24.6025 85.5678 25.7563 85.2035 26.8088C84.8392 27.8411 84.3129 28.7317 83.6247 29.4806C82.9365 30.2093 82.1066 30.7761 81.135 31.1809C80.1837 31.5857 79.1109 31.7881 77.9166 31.7881C76.7426 31.7881 75.6699 31.5857 74.6983 31.1809C73.7469 30.7761 72.9272 30.2093 72.239 29.4806C71.5508 28.7317 71.0144 27.8411 70.6298 26.8088C70.2452 25.7563 70.0529 24.6025 70.0529 23.3475C70.0529 22.0926 70.2452 20.9489 70.6298 19.9166C71.0346 18.8843 71.5811 18.0038 72.2693 17.2752C72.9778 16.5465 73.8077 15.9797 74.759 15.5749C75.7306 15.1701 76.7831 14.9677 77.9166 14.9677C79.0704 14.9677 80.1229 15.1701 81.0743 15.5749C82.0459 15.9797 82.8758 16.5465 83.564 17.2752C84.2522 18.0038 84.7886 18.8843 85.1731 19.9166C85.5577 20.9489 85.75 22.0926 85.75 23.3475ZM81.135 23.3475C81.135 21.9509 80.8516 20.8579 80.2849 20.0685C79.7384 19.2588 78.9489 18.854 77.9166 18.854C76.8843 18.854 76.0848 19.2588 75.5181 20.0685C74.9513 20.8579 74.6679 21.9509 74.6679 23.3475C74.6679 24.7442 74.9513 25.8575 75.5181 26.6873C76.0848 27.497 76.8843 27.9018 77.9166 27.9018C78.9489 27.9018 79.7384 27.497 80.2849 26.6873C80.8516 25.8575 81.135 24.7442 81.135 23.3475Z" fill="#333333"/>
<path d="M95.0664 20.2506L98.224 15.3927H102.9L97.4346 23.0743C98.6491 24.5924 99.7522 26.07 100.744 27.5071C101.736 28.9443 102.525 30.2296 103.112 31.3631H98.2544C98.0924 31.0595 97.89 30.685 97.6471 30.2397C97.4042 29.7741 97.131 29.2985 96.8274 28.8127C96.5237 28.3067 96.1999 27.8107 95.8558 27.3249C95.5319 26.8189 95.2081 26.3635 94.8842 25.9587C94.5806 26.3432 94.2668 26.7683 93.943 27.2339C93.6394 27.6994 93.3459 28.1751 93.0625 28.6609C92.7791 29.1264 92.4957 29.592 92.2123 30.0575C91.9492 30.5231 91.7164 30.9583 91.514 31.3631H86.899C87.1419 30.857 87.4759 30.2599 87.901 29.5717C88.326 28.8835 88.7815 28.1751 89.2672 27.4464C89.7733 26.6975 90.2996 25.9587 90.8461 25.23C91.3926 24.4811 91.929 23.7827 92.4552 23.135C91.5444 21.8598 90.6335 20.5745 89.7227 19.279C88.8118 17.9634 87.9111 16.6679 87.0205 15.3927H91.9087L95.0664 20.2506Z" fill="#333333"/>
<path d="M110.056 31.3631H105.532V15.3927H110.056V31.3631ZM110.481 10.7777C110.481 11.6076 110.208 12.2654 109.662 12.7512C109.135 13.2168 108.508 13.4496 107.779 13.4496C107.051 13.4496 106.413 13.2168 105.866 12.7512C105.34 12.2654 105.077 11.6076 105.077 10.7777C105.077 9.94782 105.34 9.3001 105.866 8.83455C106.413 8.34876 107.051 8.10586 107.779 8.10586C108.508 8.10586 109.135 8.34876 109.662 8.83455C110.208 9.3001 110.481 9.94782 110.481 10.7777Z" fill="#333333"/>
<path d="M120.412 28.2054C120.857 28.2054 121.282 28.1953 121.687 28.1751C122.092 28.1548 122.416 28.1245 122.658 28.084V24.6531C122.476 24.6126 122.203 24.5721 121.839 24.5317C121.474 24.4912 121.14 24.4709 120.837 24.4709C120.412 24.4709 120.007 24.5013 119.622 24.562C119.258 24.6025 118.934 24.6936 118.651 24.8353C118.367 24.977 118.145 25.1693 117.983 25.4121C117.821 25.655 117.74 25.9587 117.74 26.323C117.74 27.0315 117.973 27.5274 118.438 27.8107C118.924 28.0739 119.582 28.2054 120.412 28.2054ZM120.047 14.9677C121.383 14.9677 122.497 15.1195 123.387 15.4231C124.278 15.7267 124.986 16.1619 125.512 16.7286C126.059 17.2954 126.444 17.9836 126.666 18.7933C126.889 19.6029 127 20.5036 127 21.4955V30.9077C126.352 31.0493 125.452 31.2113 124.298 31.3934C123.144 31.5959 121.748 31.6971 120.108 31.6971C119.076 31.6971 118.135 31.606 117.284 31.4238C116.455 31.2416 115.736 30.9481 115.129 30.5433C114.521 30.1182 114.056 29.5717 113.732 28.9038C113.408 28.2358 113.246 27.416 113.246 26.4445C113.246 25.5134 113.428 24.7239 113.793 24.0762C114.177 23.4285 114.683 22.9124 115.311 22.5278C115.938 22.1432 116.657 21.8699 117.467 21.708C118.276 21.5258 119.116 21.4347 119.987 21.4347C120.574 21.4347 121.09 21.4651 121.535 21.5258C122.001 21.5663 122.375 21.627 122.658 21.708V21.2829C122.658 20.5138 122.426 19.8964 121.96 19.4309C121.495 18.9653 120.685 18.7325 119.531 18.7325C118.762 18.7325 118.003 18.7933 117.254 18.9147C116.505 19.0159 115.857 19.1677 115.311 19.3701L114.734 15.7267C114.997 15.6457 115.321 15.5648 115.706 15.4838C116.11 15.3826 116.546 15.3016 117.011 15.2409C117.477 15.1599 117.962 15.0992 118.469 15.0587C118.995 14.998 119.521 14.9677 120.047 14.9677Z" fill="#333333"/>
<path d="M30.5044 11.3952C30.2059 8.98035 29.3011 7.26828 28.9334 6.60413C27.9832 4.8819 26.8531 3.77704 26.814 3.8075C26.7777 3.83595 27.8801 4.96718 28.5699 6.84987C28.9925 8.00549 29.1179 9.06361 29.156 9.80492C29.156 9.80492 29.3061 11.3647 29.1191 12.9712C28.1891 20.9752 21.3423 26.7309 19.0942 28.6218C18.3994 29.2026 17.3691 29.9724 15.5959 31.26L17.5022 33.3031C18.1704 32.8664 18.8741 32.379 19.6029 31.8354C20.0403 31.5092 20.4865 31.1627 20.9397 30.7949C21.1613 30.6154 21.3753 30.4366 21.5863 30.2582C22.3402 29.6214 23.0292 28.994 23.6512 28.3943C23.6512 28.3943 26.5981 25.5184 28.6913 21.4057C29.3202 20.1669 31.0897 16.103 30.5044 11.3952Z" fill="#1FA169"/>
<path d="M26.9469 13.0266C27.7349 6.24117 22.9986 1.71418 21.904 0.725098C21.9893 0.960669 27.2779 15.3744 17.448 22.0644L10.7764 14.5539H0L11.7837 27.1763L14.2046 29.7719C16.0547 28.4314 17.1577 27.6109 17.8217 27.0544C19.8486 25.3505 26.1303 20.07 26.9469 13.0266Z" fill="#1FA169"/>
</svg>
