<svg width="1440" height="843" viewBox="0 0 1440 843" fill="none" xmlns="http://www.w3.org/2000/svg">
<g clip-path="url(#clip0_42_1021)">
<mask id="mask0_42_1021" style="mask-type:luminance" maskUnits="userSpaceOnUse" x="-83" y="-168" width="1605" height="1069">
<path d="M-83.0001 901L1522 901L1522 -168L-83.0001 -168L-83.0001 901Z" fill="white"/>
</mask>
<g mask="url(#mask0_42_1021)">
<g opacity="0.52">
<path d="M-120.897 1032.56C-88.637 1067.65 -23.7243 1095.77 13.8969 1075.77C42.2733 1060.64 54.9977 1026.23 81.0158 1015.19C124.858 996.637 184.864 1024.74 236.082 1066.35C283.109 1103.96 329.761 1149.23 370.631 1187.47C399.628 1213.47 441.805 1246.89 446.853 1210.61C457.247 1148.77 404.184 1015.45 379.358 933.878C359.503 862.296 339.502 777.267 366.736 725.25C385.713 689.146 433.917 690.602 480.693 702.463C584.076 728.19 705.307 771.957 805.532 826.499C937.887 897.968 1031.63 1009.63 1117.26 1077.72C1191.86 1134.14 1270.82 1170.48 1391.87 1072.33C1475.76 1003.63 1556.1 888.311 1624.82 777.475C1693.73 665.395 1751.03 557.795 1793.15 475.852" stroke="#A3A3A3" stroke-width="1.0852" stroke-miterlimit="10"/>
<path opacity="0.9783" d="M-133.51 1019.61C-101.656 1054.13 -37.2098 1081.23 0.580487 1060.89C29.2522 1045.41 42.5031 1010.9 68.8807 999.72C112.387 981.207 173.771 1007.64 225.405 1049.65C272.142 1087.08 317.429 1130.91 358.617 1167.22C388.5 1192.64 428.985 1221.55 433.787 1185.5C443.633 1123.38 392.346 995.232 368.26 914.213C351.286 852.168 337.128 785.907 350.057 734.392C352.172 726.047 355.153 718.845 358.742 712.807C379.104 678.376 427.074 680.423 473.476 692.355C576.679 718.398 696.919 761.064 797.855 812.604C931.553 880.411 1028.59 987.893 1115.61 1056.49C1192.44 1114.2 1272.22 1154.21 1393.25 1060.72C1477.32 995.049 1558.72 878.947 1628.77 766.524C1698.97 652.855 1757.82 542.866 1800.39 460.66" stroke="#A3A3A3" stroke-width="1.0852" stroke-miterlimit="10"/>
<path opacity="0.9565" d="M-146.132 1006.63C-111.258 1037.78 -53.32 1067.98 -12.9511 1045.8C15.9882 1030.11 29.8168 995.423 56.5518 984.102C100.771 965.3 162.557 991.166 214.525 1032.65C261.66 1069.76 305.462 1111.24 346.419 1146.78C376.11 1171.76 415.875 1196.23 420.455 1160.58C429.8 1098.29 380.449 975.172 357.17 894.759C341.108 834.765 327.9 770.514 341.767 721.188C344.033 713.196 347.145 706.316 350.862 700.563C372.123 667.505 420.345 670.38 466.396 682.381C569.6 708.751 687.34 750.996 790.187 799.152C925.959 862.285 1026.06 966.84 1113.66 1035.21C1192.87 1094.19 1273.57 1137.64 1394.55 1049.02C1478.58 986.655 1561.08 869.753 1632.55 755.637C1704.14 640.284 1764.71 527.718 1807.63 445.458" stroke="#A3A3A3" stroke-width="1.0852" stroke-miterlimit="10"/>
<path opacity="0.9348" d="M-158.741 993.663C-127.844 1026.9 -64.4913 1051.2 -26.669 1030.53C2.53562 1014.5 16.9571 979.839 44.0388 968.388C88.9745 949.295 151.264 974.519 203.435 1015.39C250.102 1051.48 293.103 1091.96 334.049 1126.19C364.039 1150.59 402.506 1171.01 406.88 1135.83C415.778 1073.49 368.478 955.241 346.1 875.534C330.983 817.577 318.766 755.34 333.581 708.208C336.001 700.567 339.029 693.315 343.095 688.53C367.5 659.789 409.219 659.628 459.451 672.55C562.3 698.737 679.067 740.838 782.54 786.155C918.926 845.523 1022.34 945.363 1111.37 1013.94C1193.12 1074.16 1274.84 1120.83 1395.74 1037.23C1479.52 978.44 1563.12 860.765 1636.11 744.873C1709.18 627.764 1771.62 512.436 1814.82 430.272" stroke="#A3A3A3" stroke-width="1.0852" stroke-miterlimit="10"/>
<path opacity="0.913" d="M-171.313 980.717C-140.731 1013.12 -73.8621 1036.64 -40.5402 1015.14C-14.2375 997.8 5.25151 964.691 31.3638 952.613C74.4356 932.208 139.828 957.591 192.138 997.905C238.349 1032.91 280.625 1072.48 321.531 1105.43C351.76 1129.23 388.904 1145.85 393.092 1111.24C401.607 1048.96 356.297 935.261 335.064 856.542C321.036 800.736 309.799 740.421 325.509 695.457C328.075 688.16 331.276 681.243 335.449 676.715C360.703 649.308 402.44 650.253 452.653 662.869C555.974 688.562 672.576 730.732 774.943 773.622C910.409 830.147 1017.44 923.504 1108.77 992.739C1193.18 1054.19 1276.09 1103.79 1396.81 1025.4C1480.06 970.464 1564.81 852.018 1639.45 734.221C1714.11 615.25 1778.67 496.924 1821.99 415.122" stroke="#A3A3A3" stroke-width="1.0852" stroke-miterlimit="10"/>
<path opacity="0.8913" d="M-183.824 967.823C-153.665 999.598 -87.8367 1021.26 -54.5383 999.652C-27.9766 982.039 -7.86484 948.996 18.5449 936.82C62.2993 916.152 128.098 940.72 180.633 980.234C226.384 1014.08 268.08 1052.86 308.885 1084.55C339.295 1107.7 375.12 1120.82 379.124 1086.82C387.275 1024.6 344.161 915.763 324.083 837.805C311.113 783.925 300.896 725.722 317.556 682.95C320.281 675.995 323.647 669.405 327.927 665.127C354.035 639.039 396.18 640.681 445.999 653.338C549.712 679.415 664.219 721.228 767.417 761.551C902.926 814.342 1012.97 902.402 1105.84 971.65C1193.07 1034.31 1277.38 1086.57 1397.76 1013.53C1480.21 962.653 1566.14 843.43 1642.54 723.621C1718.91 602.698 1785.76 481.193 1829.1 400.017" stroke="#A3A3A3" stroke-width="1.0852" stroke-miterlimit="10"/>
<path opacity="0.8696" d="M-196.253 955.002C-166.524 986.12 -101.836 1005.78 -68.634 984.108C-41.7899 966.265 -21.37 935.343 5.59617 921.039C48.9526 897.472 120.33 926.429 168.917 962.403C213.17 994.17 256.173 1033.96 296.135 1063.53C332.201 1090.2 357.688 1089.39 365.005 1062.53C379.478 1011.33 332.237 896.209 313.17 819.316C301.214 767.416 292.123 711.263 309.731 670.675C312.618 664.056 316.147 657.794 320.536 653.762C347.643 628.865 390.124 631.464 439.948 644.322C544.286 671.007 656.113 712.148 759.987 749.935C895.226 799.058 1008.17 881.681 1102.6 950.721C1192.87 1014.5 1278.47 1069.24 1398.58 1001.64C1480.02 954.985 1567.19 834.91 1645.49 712.969C1723.67 589.989 1792.99 465.145 1836.17 384.968" stroke="#A3A3A3" stroke-width="1.0852" stroke-miterlimit="10"/>
<path opacity="0.8478" d="M-208.573 942.278C-179.283 972.711 -115.823 990.234 -82.7905 968.554C-55.7216 950.456 -34.7132 919.671 -7.45175 905.321C36.5702 881.574 108.13 909.373 156.999 944.468C200.888 975.045 243.414 1014.04 283.312 1042.43C319.172 1067.98 343.671 1064.83 350.771 1038.42C365.002 987.033 320.129 876.83 302.348 801.115C291.423 751.169 283.501 697.082 302.046 658.673C305.097 652.385 308.791 646.443 313.291 642.648C341.524 618.844 385.082 622.855 434.475 635.959C538.518 663.295 647.253 704.067 752.685 738.792C887.866 783.297 1004.1 862.061 1099.06 930.036C1192.57 994.884 1279.38 1051.89 1399.27 989.781C1479.51 947.433 1567.99 826.437 1648.3 702.256C1728.42 577.129 1800.36 448.82 1843.17 370.009" stroke="#A3A3A3" stroke-width="1.0852" stroke-miterlimit="10"/>
<path opacity="0.8261" d="M-220.765 929.675C-191.924 959.389 -129.772 974.654 -96.9828 953.024C-69.7106 934.684 -48.1223 904.083 -20.5912 889.701C24.0642 865.794 95.7157 892.33 144.871 926.461C188.29 955.707 230.767 994.151 270.425 1021.27C306.011 1045.65 329.541 1040.37 336.442 1014.47C350.468 963.051 308.019 857.612 291.616 783.209C281.731 735.185 275.024 683.185 294.49 646.942C297.706 640.979 301.911 635.982 306.178 631.79C331.25 606.912 386.773 616.586 429.271 628.024C533.303 655.209 639.986 695.801 745.516 728.111C879.73 769.248 998.665 842.156 1095.22 909.644C1192.08 975.458 1280.2 1034.53 1399.82 977.962C1478.68 939.959 1568.61 817.87 1651.07 691.303C1733.25 563.902 1807.96 432.023 1850.09 355.141" stroke="#A3A3A3" stroke-width="1.0852" stroke-miterlimit="10"/>
<path opacity="0.8043" d="M-232.8 917.219C-205.466 945.058 -143.519 959.945 -111.175 937.564C-83.5926 918.16 -61.5527 888.642 -33.7905 874.222C11.4619 850.171 83.1027 875.355 132.552 908.432C175.574 936.354 218.068 974.214 257.517 1000.07C292.767 1023.24 315.368 1016.03 322.066 990.685C335.862 939.401 295.75 838.297 281.006 765.615C272.409 720.281 266.469 669.014 287.087 635.486C290.539 629.895 294.866 625.147 299.221 621.187C324.172 598.184 383.681 609.533 424.343 620.494C528.349 647.525 632.98 687.852 738.525 717.88C871.519 755.83 992.954 822.747 1091.1 889.609C1191.48 956.289 1280.89 1017.22 1400.23 966.213C1477.56 932.544 1569.06 809.199 1653.8 680.11C1738.18 550.315 1815.8 414.778 1856.95 340.378" stroke="#A3A3A3" stroke-width="1.0852" stroke-miterlimit="10"/>
<path opacity="0.7826" d="M-244.657 904.93C-217.777 932.119 -159.513 944.256 -125.339 922.207C-95.9978 902.974 -74.3154 871.13 -47.0346 858.92C0.914206 837.142 66.2677 857.242 120.031 890.426C162.373 916.159 204.691 953.435 244.596 978.885C279.857 1001.48 301.105 991.857 307.655 967.101C321.319 916.079 283.713 819.463 270.514 748.362C262.957 704.871 258.373 655.725 279.825 624.332C283.441 619.058 287.589 614.215 292.406 610.865C320.812 590.89 376.887 601.994 419.657 613.36C523.605 640.224 626.909 679.696 731.716 708.11C863.127 743.893 985.931 803.311 1086.71 870.01C1190.62 937.842 1286.42 995.449 1400.48 954.576C1457.33 934.509 1536.98 834.254 1595.19 753.842C1700 607.737 1788.64 458.015 1863.71 325.746" stroke="#A3A3A3" stroke-width="1.0852" stroke-miterlimit="10"/>
<path opacity="0.7609" d="M-256.318 892.835C-229.857 919.222 -173.017 928.813 -139.447 906.997C-110.013 887.548 -87.772 856.13 -60.3029 843.843C-11.8961 821.868 53.3867 840.672 107.319 872.492C149.147 896.754 192.343 933.966 231.687 957.747C263.633 976.961 288.444 971.075 293.246 943.73C303.598 886.134 271.733 800.843 260.156 731.469C253.646 689.776 250.47 642.777 272.711 613.484C276.495 608.519 280.931 604.35 286.48 601.806C320.176 586.22 371.299 595.118 415.205 606.591C519.016 633.213 622.122 674.815 725.126 698.841C853.229 728.925 980.229 786.016 1082.09 850.909C1189.99 918.465 1284.12 987.578 1400.57 943.071C1544.79 884.572 1782.45 458.419 1870.37 311.243" stroke="#A3A3A3" stroke-width="1.0852" stroke-miterlimit="10"/>
<path opacity="0.7391" d="M-267.752 880.956C-240.015 908.177 -186.09 911.624 -153.459 891.974C-124.336 873.991 -101.221 841.354 -73.5662 829.026C-24.7614 806.877 40.3567 824.312 94.4302 854.683C135.79 877.476 180.043 914.63 218.822 936.703C250.276 954.499 273.826 947.112 278.877 920.601C289.731 864.528 259.936 781.355 249.948 714.966C244.335 675.133 242.769 630.197 265.759 602.963C269.709 598.296 275.626 596.232 281.342 593.938C316.198 579.828 366.893 588.743 410.977 600.173C514.386 626.507 614.596 670.564 718.985 691.722C847.997 718.071 975.325 770.097 1077.24 832.39C1136.91 868.96 1192.13 903.262 1247.52 923.022C1293.25 939.223 1342.83 955.883 1401.03 929.339C1562.94 850.755 1782.26 454.237 1876.93 296.9" stroke="#A3A3A3" stroke-width="1.0852" stroke-miterlimit="10"/>
<path opacity="0.7174" d="M-278.942 869.317C-251.762 895.497 -199.2 896.559 -167.352 877.174C-137.925 858.869 -116.339 826.73 -86.8089 814.514C-35.2049 793.031 27.129 808.35 81.3587 837.046C122.699 858.676 166.467 895.118 206.005 915.803C241.79 934.701 257.406 920.911 264.553 897.742C279.18 850.665 247.846 763.073 239.884 698.876C235.546 661.57 233.29 615.162 260.169 594.563C264.669 591.127 270.522 588.572 276.403 586.509C312.348 573.783 362.655 582.692 406.945 594.082C509.804 620.084 609.836 664.569 713.138 685.002C842.022 710.626 966.795 752.914 1072.19 814.526C1133.29 850.353 1189.86 885.66 1245.78 906.597C1293.14 924.069 1340.99 941.776 1401.81 914.542C1566.51 835.759 1784.88 444.909 1883.38 282.716" stroke="#A3A3A3" stroke-width="1.0852" stroke-miterlimit="10"/>
<path opacity="0.6957" d="M-289.86 857.945C-264.78 884.009 -210.685 880.516 -181.088 862.646C-151.764 844.364 -129.579 812.626 -100.002 800.352C-48.1902 778.709 13.8442 792.567 68.1253 819.649C109.889 840.242 154.029 875.513 193.264 895.118C227.748 912.49 243.271 897.763 250.314 875.205C264.864 828.791 236.141 745.411 229.98 683.24C226.781 648.648 225.527 604.126 254.894 586.793C259.97 583.815 265.615 581.348 271.65 579.498C308.625 568.075 358.311 577.185 403.097 588.305C506.16 613.507 605.152 658.782 707.585 678.661C835.959 703.673 958.731 737.045 1066.98 797.403C1129.45 832.36 1187.38 868.564 1243.82 890.579C1292.62 909.248 1339.55 926.981 1402.8 899.185C1569.95 820.545 1787.38 435.647 1889.7 268.712" stroke="#A3A3A3" stroke-width="1.0852" stroke-miterlimit="10"/>
<path opacity="0.6739" d="M-300.488 846.86C-275.942 871.729 -223.288 865.909 -194.637 848.42C-165.39 829.971 -142.702 798.898 -113.118 786.574C-61.1849 764.799 0.464168 777.148 54.741 802.537C97.0402 822.08 141.726 856.218 180.618 874.698C213.683 890.511 229.219 874.978 236.185 853.025C250.675 807.405 224.55 728.089 220.246 668.084C217.978 632.944 219.012 596.066 249.815 579.468C255.032 576.683 260.889 574.528 267.074 572.877C305.01 562.666 354.42 571.722 399.429 582.821C501.896 607.726 600.805 653.114 702.324 672.677C829.308 697.227 951.05 722.627 1061.65 781.293C1174.09 839.59 1277.55 939.978 1403.96 883.376C1573.65 804.719 1789.79 426.422 1895.9 254.896" stroke="#A3A3A3" stroke-width="1.0852" stroke-miterlimit="10"/>
<path opacity="0.6522" d="M-310.799 836.086C-286.788 859.69 -235.589 851.582 -207.965 834.54C-178.836 815.95 -155.681 785.589 -126.134 773.229C-74.1662 751.344 -12.9922 762.152 41.2204 785.775C83.9584 804.164 128.993 836.775 167.878 854.37C199.976 868.973 215.294 852.545 222.181 831.261C236.62 786.57 213.06 711.171 210.678 653.45C209.486 618.743 213.407 587.713 244.899 572.563C250.258 570.01 256.314 568.09 262.642 566.621C301.479 557.537 350.664 566.531 395.91 577.613C497.798 602.215 596.91 647.869 697.338 667.028C821.062 690.781 945.368 710.393 1056.25 766.06C1172.46 823.091 1275.35 924.358 1405.24 867.222C1577.36 788.584 1792.07 417.278 1901.97 241.29" stroke="#A3A3A3" stroke-width="1.0852" stroke-miterlimit="10"/>
<path opacity="0.6304" d="M-320.771 825.65C-297.29 847.909 -247.568 837.581 -221.04 821.05C-192.045 802.385 -169.036 774.306 -139.022 760.356C-89.2396 736.906 -23.6015 747.519 27.5766 769.421C71.2069 787.656 115.06 816.639 154.746 833.933C186.934 848.091 201.526 830.48 208.323 809.968C222.683 766.3 204.077 696.708 201.285 639.373C199.761 605.462 209.84 578.771 240.132 566.046C245.675 563.728 251.876 562.003 258.344 560.705C298.023 552.662 347.295 561.383 392.539 572.659C492.947 597.301 593.581 642.683 692.622 661.692C813.074 685.004 940.086 700.588 1050.8 751.96C1170.77 806.387 1273.52 908.44 1406.61 850.808C1581.04 772.2 1794.23 408.221 1907.89 227.891" stroke="#A3A3A3" stroke-width="1.0852" stroke-miterlimit="10"/>
<path opacity="0.6087" d="M-330.382 815.574C-304.629 834.239 -261.472 825.629 -233.829 807.984C-205.031 789.24 -181.641 761.876 -151.754 747.996C-101.992 724.594 -37.3366 733.428 13.8308 753.54C57.5745 770.366 100.732 796.512 141.43 813.785C170.537 826.149 190.184 811.518 194.622 789.221C204.209 740.336 190.043 678.56 192.061 625.899C193.405 594.896 203.991 571.111 235.488 559.895C241.276 557.851 247.551 556.252 254.151 555.11C294.633 548.037 343.765 556.701 389.285 567.949C489.225 592.277 589.936 637.662 688.16 656.648C806.709 679.723 932.948 692.913 1045.4 739.444C1171.12 789.918 1270.97 892.403 1408.03 834.23C1584.66 755.635 1796.23 399.267 1913.67 214.721" stroke="#A3A3A3" stroke-width="1.0852" stroke-miterlimit="10"/>
<path opacity="0.587" d="M-339.607 805.883C-314.843 823.465 -272.685 812.737 -246.297 795.383C-217.602 776.128 -194.006 749.989 -164.299 736.19C-114.642 712.869 -51.0798 719.931 0.00203294 738.189C43.8335 753.527 86.9438 777.242 127.918 793.989C157.35 806.041 176.443 790.863 181.089 769.085C190.986 721.962 177.802 661.495 183.006 613.065C186.135 585.034 200.364 563.572 230.944 554.075C236.896 552.235 243.316 550.798 250.048 549.801C291.292 543.627 340.335 552.235 386.142 563.457C485.654 587.484 586.456 632.79 683.94 651.87C800.841 674.885 926.466 685.992 1040.18 727.987C1170.59 774.428 1269.28 876.129 1409.48 817.571C1588.07 739.087 1798.09 390.439 1919.29 201.789" stroke="#A3A3A3" stroke-width="1.0852" stroke-miterlimit="10"/>
<path opacity="0.5652" d="M-348.429 796.6C-324.112 812.455 -282.305 799.997 -258.414 783.29C-231.399 763.875 -204.413 738.876 -176.63 724.985C-129.8 701.067 -64.7482 706.951 -13.8846 723.444C29.9961 737.242 73.2433 759.114 114.209 774.629C143.962 785.924 162.727 771.591 167.733 749.653C177.958 704.315 167.799 647.929 174.123 600.925C177.63 575.051 198.797 555.991 226.487 548.568C232.596 546.915 239.16 545.63 246.021 544.767C287.988 539.422 336.988 547.974 383.092 559.17C482.219 582.906 583.122 628.063 679.955 647.339C795.453 670.445 920.296 679.869 1035.17 717.536C1169.39 759.77 1268.37 859.827 1410.92 800.905C1591.54 722.291 1799.78 381.631 1924.75 189.097" stroke="#A3A3A3" stroke-width="1.0852" stroke-miterlimit="10"/>
<path opacity="0.5435" d="M-356.817 787.748C-332.956 801.825 -292.964 787.754 -270.139 771.739C-243.288 752.334 -215.768 726.717 -188.71 714.415C-140.5 692.139 -81.027 695.23 -27.7988 709.358C15.3073 720.604 59.2393 741.612 100.304 755.783C130.7 766.282 149.686 753.794 154.559 731.012C163.894 687.256 154.959 635.465 166.389 591.546C172.955 566.606 194.385 549.851 222.091 543.345C228.357 541.863 235.062 540.719 242.049 539.977C284.71 535.4 333.711 543.896 380.124 555.072C478.93 578.538 579.901 623.46 676.193 643.037C790.509 666.372 914.57 674.443 1030.36 708.048C1167.52 746.115 1268.04 843.586 1412.33 784.312C1594.83 705.518 1801.34 373.038 1930.04 176.667" stroke="#A3A3A3" stroke-width="1.0852" stroke-miterlimit="10"/>
<path opacity="0.5217" d="M-364.757 779.354C-341.343 791.547 -303.189 776.076 -281.444 760.775C-254.782 741.462 -227.392 716.783 -200.512 704.524C-152.696 682.389 -94.2993 683.924 -41.7174 696.008C1.33727 705.724 45.1324 724.745 86.199 737.541C116.587 747.008 136.331 736.541 141.563 713.264C150.812 672.078 144.478 622.722 158.826 582.863C167.457 559.076 189.94 544.078 217.734 538.382C224.152 537.057 230.996 536.043 238.107 535.417C281.435 531.545 330.482 539.994 377.213 551.15C475.752 574.363 576.785 618.981 672.632 638.947C785.97 662.634 909.243 669.655 1025.76 699.47C1165.2 733.524 1268.15 827.485 1413.69 767.862C1597.95 688.801 1802.73 364.576 1935.15 164.51" stroke="#A3A3A3" stroke-width="1.0852" stroke-miterlimit="10"/>
<path opacity="0.5" d="M-372.219 771.442C-349.252 781.646 -312.964 765.015 -292.29 750.436C-265.852 731.262 -238.659 707.552 -211.997 695.357C-164.664 673.41 -107.434 673.419 -55.6015 683.461C-12.5682 691.487 35.218 712.867 71.9083 719.999C105.076 726.473 119.416 720.914 128.74 696.526C141.341 663.977 134.859 611.096 151.356 574.737C161.628 552.141 185.452 538.637 213.403 533.657C219.973 532.475 226.953 531.586 234.189 531.064C278.164 527.844 327.296 536.249 374.354 547.388C472.683 570.363 573.772 614.613 669.27 635.048C781.813 659.194 904.304 665.454 1021.38 691.754C1164.85 722.573 1270.95 807.713 1414.98 751.62C1594.64 679.033 1803.55 357.057 1940.09 152.634" stroke="#A3A3A3" stroke-width="1.0852" stroke-miterlimit="10"/>
<path opacity="0.4783" d="M-379.188 764.016C-356.686 772.181 -322.692 754.633 -302.641 740.757C-275.921 721.786 -249.59 699.128 -223.131 686.946C-176.353 665.164 -120.27 663.71 -69.4128 671.779C-26.3025 678.312 21.1178 696.481 57.4528 703.248C90.0194 709.303 106.127 704.353 116.089 680.904C128.997 650.762 125.456 600.173 143.941 567.104C155.936 545.645 180.905 533.491 209.078 529.138C215.798 528.086 222.916 527.312 230.275 526.886C274.879 524.267 324.135 532.631 371.534 543.757C469.713 566.514 570.849 610.333 666.09 631.306C778.004 656.005 899.714 661.773 1017.21 684.833C1161.49 711.956 1271.55 792.308 1416.18 735.63C1597.62 662.292 1804.63 348.817 1944.84 141.035" stroke="#A3A3A3" stroke-width="1.0852" stroke-miterlimit="10"/>
<path opacity="0.4565" d="M-385.874 756.848C-372.623 763.933 -337.872 749.613 -312.461 731.782C-286.336 713.192 -261.938 692.545 -234.906 678.945C-187.494 654.978 -131.366 654.944 -83.1111 661.037C-40.1399 666.175 6.42437 681.62 42.8493 687.397C75.2939 692.53 92.921 688.474 103.593 666.538C117.054 639.01 116.243 589.996 136.541 559.927C150.262 539.565 176.27 528.61 204.742 524.81C211.612 523.88 218.866 523.213 226.35 522.878C271.568 520.817 320.985 529.146 368.739 540.26C466.826 562.818 568.005 606.146 663.083 627.721C774.517 653.052 895.445 658.585 1013.26 678.676C1157.96 702.391 1272.2 777.308 1417.29 719.965C1600.41 645.751 1805.57 340.718 1949.4 129.744" stroke="#A3A3A3" stroke-width="1.0852" stroke-miterlimit="10"/>
<path opacity="0.4348" d="M-392.388 749.848C-379.71 755.836 -346.579 741.112 -321.77 723.495C-296.383 705.238 -272.899 684.944 -246.647 671.321C-200.552 647.294 -145.975 645.554 -98.983 650.302C-55.7571 654.386 -9.02382 667.68 28.1244 672.546C52.071 675.377 83.5055 676.484 91.0897 653.46C101.924 620.544 108.081 580.721 129.117 553.145C143.836 533.809 171.522 523.936 200.375 520.641C207.396 519.822 214.786 519.254 222.394 519.003C268.222 517.458 317.829 525.76 365.949 536.864C464.01 559.239 565.309 602.123 660.227 624.257C771.227 650.183 891.642 655.898 1009.51 673.211C1154.1 693.689 1272.38 761.835 1418.28 704.652C1602.81 630.757 1807.91 330.205 1953.76 118.746" stroke="#A3A3A3" stroke-width="1.0852" stroke-miterlimit="10"/>
<path opacity="0.413" d="M-398.742 743.008C-386.591 747.93 -354.836 732.987 -330.868 715.558C-306.38 697.541 -283.597 677.701 -258.198 664.09C-214.163 640.365 -161.121 636.587 -115.402 640.034C-71.2259 643.089 -24.6809 654.92 13.3148 658.814C37.255 660.982 69.1517 661.959 78.2488 641.389C91.4804 611.372 98.8142 572.156 121.633 546.716C138.064 528.364 166.654 519.465 195.957 516.613C203.131 515.897 210.657 515.425 218.391 515.251C264.82 514.187 314.655 522.465 363.151 533.565C461.249 555.777 562.569 598.077 657.506 620.905C768.27 647.574 887.89 653.516 1005.95 668.398C1150.46 686.071 1272.88 747.851 1419.14 689.753C1605.13 614.658 1808.44 322.506 1957.92 108.065" stroke="#A3A3A3" stroke-width="1.0852" stroke-miterlimit="10"/>
<path opacity="0.3913" d="M-404.941 736.323C-393.278 740.214 -362.873 725.126 -339.746 707.921C-316.17 690.148 -293.494 669.307 -269.552 657.236C-226.279 635.341 -178.328 629.038 -131.751 630.428C-88.2043 631.576 -41.3104 641.849 -3.12641 645.47C20.985 647.478 52.9138 648.985 64.0567 629.645C80.3914 601.257 89.435 564.216 114.066 540.593C132.207 523.188 161.658 515.157 191.485 512.705C198.813 512.087 206.476 511.7 214.338 511.602C261.371 510.986 311.456 519.247 360.344 530.348C458.536 552.418 559.882 594.092 654.919 617.646C765.559 645.101 884.379 651.487 1002.58 664.187C1146.78 679.336 1273.23 734.435 1419.87 675.302C1607.22 598.875 1808.81 314.953 1961.87 97.7063" stroke="#A3A3A3" stroke-width="1.0852" stroke-miterlimit="10"/>
<path opacity="0.3696" d="M-410.995 729.783C-399.777 732.68 -370.707 717.513 -348.424 700.56C-325.744 683.091 -303.841 662.808 -280.727 650.728C-239.136 628.92 -193.004 621.566 -148.028 621.452C-105.38 621.211 -59.6777 629.32 -21.8126 632.04C2.74607 633.553 34.5764 634.956 48.3623 617.965C69.0882 592.388 79.9059 556.746 106.373 534.735C126.224 518.242 156.507 510.98 186.929 508.899C194.413 508.371 202.258 507.98 210.206 508.04C257.738 508.373 307.944 516.04 357.5 527.203C455.84 549.145 557.22 590.163 652.437 614.47C763.045 642.732 881.068 649.768 999.383 660.528C1074.19 667.21 1140.13 676.846 1211.45 686.394C1279.59 695.192 1345.78 691.564 1420.46 661.343C1609.03 583.449 1809 307.562 1965.6 87.6877" stroke="#A3A3A3" stroke-width="1.0852" stroke-miterlimit="10"/>
<path opacity="0.3478" d="M-416.912 723.379C-406.105 725.325 -378.827 710.164 -356.911 693.46C-334.92 676.546 -315.104 657.016 -291.726 644.545C-251.298 622.981 -207.552 614.594 -164.214 613.073C-122.617 611.515 -78.2057 617.61 -40.8499 619.404C-15.9296 620.379 15.5455 621.476 31.4843 606.521C56.1948 583.304 70.2225 549.618 98.5262 529.091C120.089 513.479 151.192 506.903 182.279 505.164C189.921 504.722 197.906 504.416 205.991 504.536C254.119 505.218 304.685 512.942 354.618 524.103C453.158 545.936 554.588 586.269 650.053 611.344C760.711 640.429 877.942 648.31 996.353 657.36C1070.11 662.925 1138.58 669.316 1210.17 676.938C1278.98 684.029 1346.03 678.674 1420.89 647.887C1610.59 568.4 1809.01 300.316 1969.11 77.9919" stroke="#A3A3A3" stroke-width="1.0852" stroke-miterlimit="10"/>
<path opacity="0.3261" d="M-422.699 717.106C-412.269 718.118 -386.255 703.004 -365.217 686.608C-344.099 670.028 -325.363 652.028 -302.555 638.667C-263.841 616.013 -220.846 607.955 -180.297 605.261C-139.988 602.486 -97.1945 607.057 -60.1832 607.547C-34.7493 607.711 -4.16868 608.597 13.5398 595.367C42.2843 573.901 60.0506 542.981 90.4985 523.617C113.773 508.855 145.704 502.898 177.524 501.485C185.328 501.124 193.456 500.903 201.676 501.079C250.412 502.092 301.355 509.879 351.681 521.041C450.472 542.778 551.97 582.412 647.75 608.257C758.525 638.163 874.98 647.072 993.474 654.636C1066.31 659.256 1137.16 662.491 1209.01 668.155C1278.38 673.474 1346.21 666.355 1421.16 634.975C1611.87 553.772 1808.85 293.246 1972.4 68.6467" stroke="#A3A3A3" stroke-width="1.0852" stroke-miterlimit="10"/>
<path opacity="0.3043" d="M-428.366 710.953C-418.278 711.056 -393.514 696.045 -373.358 679.978C-353.117 663.736 -335.064 646.283 -313.224 633.068C-276.833 611.045 -235.477 601.424 -196.27 597.977C-156.563 594.417 -116.926 595.072 -79.7624 596.444C-55.7452 597.109 -22.511 595.007 -5.35887 584.557C27.2183 564.515 49.438 536.646 82.2656 518.275C107.254 504.335 140.035 498.939 172.651 497.837C180.62 497.555 188.893 497.414 197.252 497.645C246.607 498.979 297.941 506.828 348.683 518.003C447.771 539.663 549.361 578.583 645.516 605.191C756.464 635.905 872.159 646.009 990.732 652.304C1062.89 656.139 1135.81 656.349 1207.96 660.041C1277.78 663.535 1346.27 654.611 1421.27 622.622C1612.93 539.571 1808.51 286.216 1975.46 59.6479" stroke="#A3A3A3" stroke-width="1.0852" stroke-miterlimit="10"/>
<path opacity="0.2826" d="M-433.919 704.913C-424.143 704.137 -400.621 689.276 -381.339 673.56C-361.976 657.679 -344.606 640.773 -323.737 627.732C-289.075 606.067 -249.68 595.724 -212.123 591.197C-173.828 586.522 -135.601 585.863 -99.5418 586.081C-75.5331 586.034 -43.3732 583.616 -25.1062 574.143C11.1839 555.153 38.4026 530.5 73.7982 513.028C100.51 499.886 134.172 495.007 167.641 494.211C175.782 494.006 184.203 493.944 192.705 494.226C242.691 495.87 294.432 503.79 345.606 514.98C445.039 536.576 546.742 574.778 643.327 602.135C754.5 633.632 869.455 645.088 988.109 650.317C1059.93 653.501 1134.18 651.414 1207.01 652.594C1277.52 653.672 1346.01 643.565 1421.21 610.854C1613.64 525.856 1807.96 279.522 1978.28 51.0125" stroke="#A3A3A3" stroke-width="1.0852" stroke-miterlimit="10"/>
<path opacity="0.2609" d="M-439.37 698.978C-429.881 697.347 -407.589 682.678 -389.179 667.334C-370.693 651.816 -353.622 634.408 -334.104 622.632C-299.956 602.078 -265.236 591.157 -227.848 584.88C-191.877 578.867 -154.782 576.967 -119.47 576.417C-95.2859 575.879 -64.6903 572.841 -45.5951 564.15C-5.57497 545.795 26.8717 524.483 65.0729 507.824C93.8088 495.344 128.297 491.46 162.486 490.572C170.695 490.348 179.375 490.457 188.022 490.793C238.655 492.742 290.817 500.736 342.443 511.948C442.263 533.493 544.108 570.985 641.174 599.065C752.608 631.304 866.854 644.256 985.592 648.618C1057.43 651.269 1132.33 647.634 1206.15 645.793C1277.45 643.929 1345.5 633.192 1420.97 599.67C1614.04 512.626 1807.21 273.01 1980.86 42.7319" stroke="#A3A3A3" stroke-width="1.0852" stroke-miterlimit="10"/>
<path opacity="0.2391" d="M-444.722 693.142C-435.494 690.676 -414.421 676.241 -396.882 661.288C-379.268 646.17 -362.927 629.386 -344.332 617.754C-311.988 597.562 -278.974 586.137 -243.438 578.994C-209.046 572.099 -173.423 569.069 -139.506 567.427C-115.618 566.136 -86.3616 562.687 -66.7228 554.616C-23.5568 536.683 16.0952 518.689 56.0725 502.639C85.7565 490.694 122.015 487.438 157.177 486.914C165.578 486.775 174.4 486.949 183.201 487.338C234.497 489.591 287.094 497.666 339.188 508.906C439.436 530.414 541.45 567.203 639.047 595.974C750.774 628.905 864.421 643.484 983.17 647.162C1055.09 649.405 1130.86 643.32 1205.34 639.702C1276.06 636.262 1345.91 622.994 1420.55 589.094C1613.86 500.249 1806.25 266.739 1983.2 34.8279" stroke="#A3A3A3" stroke-width="1.0852" stroke-miterlimit="10"/>
<path opacity="0.2174" d="M-449.986 687.39C-440.998 684.113 -421.137 669.944 -404.469 655.397C-387.714 640.707 -372.437 625.611 -354.433 613.069C-324.644 592.316 -290.638 580.896 -258.891 573.501C-226.132 565.806 -191.74 562.078 -159.608 559.067C-133.662 556.538 -106.595 552.555 -88.3948 545.557C-42.4062 527.6 5.27302 512.684 46.7719 497.425C77.4937 485.997 115.502 483.365 151.698 483.211C160.297 483.158 169.265 483.397 178.221 483.84C230.198 486.397 283.242 494.562 335.824 505.833C436.539 527.32 538.747 563.425 636.918 592.839C748.957 626.41 862.407 642.751 980.816 645.896C1118.94 650.223 1269.87 650.065 1419.95 579.116C1613.66 488.045 1805.11 260.637 1985.29 27.2913" stroke="#A3A3A3" stroke-width="1.0852" stroke-miterlimit="10"/>
<path opacity="0.1957" d="M-455.169 681.722C-446.401 677.65 -427.745 663.78 -411.941 649.655C-396.054 635.39 -381.444 620.83 -364.409 608.567C-337.702 589.252 -303.569 575.611 -274.198 568.374C-242.575 560.447 -210.424 555.213 -179.732 551.304C-154.829 548.057 -128.819 543.663 -110.513 536.986C-61.8198 518.788 -5.91236 506.494 37.1594 492.15C69.0968 481.257 108.762 479.228 146.049 479.446C154.849 479.478 163.972 479.786 173.088 480.284C225.764 483.151 279.266 491.413 332.355 502.721C433.575 524.197 536.002 559.643 634.789 589.649C747.16 623.783 860.441 641.979 978.528 644.771C1116.02 648.714 1268.32 642.706 1419.17 569.743C1613.15 476.391 1803.76 254.753 1987.13 20.1355" stroke="#A3A3A3" stroke-width="1.0852" stroke-miterlimit="10"/>
<path opacity="0.1739" d="M-460.282 676.125C-451.716 671.272 -434.262 657.73 -419.32 644.036C-404.293 630.209 -390.358 616.186 -374.28 604.218C-349.158 585.438 -317.176 571.504 -289.367 563.57C-259.477 554.93 -229.162 548.948 -199.855 544.086C-175.994 540.071 -151.253 535.361 -132.999 528.898C-82.1207 510.212 -16.7479 500.253 27.2098 486.773C60.031 476.254 101.774 474.982 140.208 475.6C149.218 475.72 158.497 476.096 167.778 476.65C221.173 479.831 275.148 488.199 328.759 499.552C430.523 521.032 533.206 555.841 632.627 586.385C745.319 621.007 858.489 641.124 976.274 643.732C1113.42 647.463 1266.46 636.018 1418.2 560.964C1612.19 465.404 1802.25 248.978 1988.71 13.3579" stroke="#A3A3A3" stroke-width="1.0852" stroke-miterlimit="10"/>
<path opacity="0.1522" d="M-465.328 670.594C-456.948 664.975 -440.692 651.782 -426.611 638.533C-412.442 625.155 -399.176 611.671 -384.049 600.012C-360.485 581.786 -330.643 567.641 -304.396 559.065C-276.285 549.786 -247.662 542.958 -219.943 537.38C-197.319 532.776 -173.762 527.611 -155.771 521.302C-99.1912 501.117 -35.8108 493.38 16.9102 481.27C54.159 472.547 94.5024 470.723 134.172 471.662C143.395 471.873 152.834 472.318 162.285 472.932C216.42 476.438 270.875 484.922 325.027 496.326C427.371 517.821 530.339 552.025 630.418 583.041C743.425 618.063 856.537 640.157 974.036 642.74C1111.18 646.42 1264.33 630.038 1417.04 552.78C1611 454.896 1800.48 243.537 1990.02 6.97168" stroke="#A3A3A3" stroke-width="1.0852" stroke-miterlimit="10"/>
<path opacity="0.1304" d="M-470.32 665.117C-462.113 658.746 -447.059 645.92 -433.833 633.122C-420.52 620.2 -407.984 607.263 -393.728 595.925C-371.138 577.953 -345.107 564.77 -319.286 554.82C-293.443 544.85 -267.085 537.711 -239.971 531.128C-218.584 525.907 -196.332 520.383 -178.75 514.17C-117.272 492.172 -51.289 483.823 6.24915 475.596C45.2956 469.862 86.8523 466.238 127.932 467.606C137.376 467.912 146.982 468.429 156.606 469.105C211.503 472.947 266.48 481.565 321.159 493.016C424.054 514.525 527.403 548.172 628.152 579.593C741.455 614.925 854.575 639.025 971.804 641.736C1109.2 645.518 1261.84 624.73 1415.68 545.164C1609.77 444.804 1798.54 238.278 1991.07 0.972656" stroke="#A3A3A3" stroke-width="1.0852" stroke-miterlimit="10"/>
<path opacity="0.1087" d="M-475.264 659.688C-467.219 652.571 -453.363 640.13 -440.992 627.794C-428.53 615.338 -416.664 602.944 -403.328 591.941C-382.195 574.506 -358.097 561.21 -334.041 550.804C-309.968 540.384 -285.343 532.507 -259.915 525.283C-239.866 519.566 -218.949 513.644 -201.868 507.484C-136.628 483.613 -65.1862 475.925 -4.78467 469.721C35.3853 465.363 79.0841 461.585 121.484 463.42C131.155 463.824 140.932 464.418 150.736 465.158C206.416 469.351 261.962 478.123 317.148 489.623C420.555 511.138 524.401 544.283 625.818 576.035C739.379 611.581 852.594 637.695 969.562 640.675C1107.47 644.735 1259.38 619.962 1414.13 538.109C1607.89 435.468 1796.33 233.337 1991.86 -4.6311" stroke="#A3A3A3" stroke-width="1.0852" stroke-miterlimit="10"/>
<path opacity="0.087" d="M-480.169 654.298C-472.277 646.443 -459.625 634.4 -448.103 622.53C-436.489 610.542 -425.289 598.697 -412.86 588.046C-393.165 571.164 -370.971 557.802 -348.67 546.99C-326.354 536.165 -303.461 527.611 -279.762 519.801C-261.082 513.626 -241.565 507.353 -225.066 501.222C-156.858 475.557 -82.5655 467.762 -18.4404 463.225C24.5329 459.958 70.3995 456.751 114.813 459.092C124.715 459.599 134.683 460.275 144.66 461.083C201.077 465.637 257.273 474.58 312.977 486.136C416.923 507.666 521.321 540.345 623.384 572.355C737.149 608.017 850.556 636.13 967.276 639.514C1105.9 644.012 1256.75 615.748 1412.37 531.59C1605.68 426.71 1793.88 228.644 1992.36 -9.83301" stroke="#A3A3A3" stroke-width="1.0852" stroke-miterlimit="10"/>
<path opacity="0.0652" d="M-485.042 648.938C-477.299 640.35 -465.853 628.713 -455.176 617.315C-444.412 605.802 -433.866 594.507 -422.331 584.217C-404.06 567.91 -383.739 554.518 -363.178 543.342C-342.604 532.156 -321.439 522.974 -299.498 514.625C-282.206 508.031 -264.145 501.459 -248.287 495.34C-177.652 467.85 -101.826 459.409 -33.8936 456.245C12.8183 453.888 60.9919 451.697 107.92 454.598C118.049 455.214 128.226 455.977 138.379 456.854C195.527 461.784 252.411 470.915 308.648 482.533C413.137 504.084 518.053 536.274 620.809 568.494C734.814 604.215 848.463 634.278 964.939 638.195C1104.45 643.29 1254 612.021 1410.42 525.573C1603.15 418.517 1791.22 224.195 1992.59 -14.6414" stroke="#A3A3A3" stroke-width="1.0852" stroke-miterlimit="10"/>
<path opacity="0.0435" d="M-489.889 643.602C-482.29 634.283 -472.056 623.056 -462.225 612.135C-452.304 601.101 -442.409 590.357 -431.76 580.439C-414.89 564.723 -396.413 551.337 -377.575 539.832C-358.726 528.321 -339.28 518.544 -319.115 509.701C-303.225 502.725 -286.653 495.905 -271.485 489.801C-198.609 460.333 -121.751 450.776 -49.9089 449.01C0.916055 447.659 51.1911 446.457 100.801 449.923C111.162 450.643 121.559 451.509 131.886 452.461C189.786 457.786 247.369 467.125 304.152 478.809C409.181 500.39 514.475 531.992 618.056 564.402C732.432 600.164 846.304 632.104 962.532 636.671C1102.98 642.525 1251.21 608.699 1408.27 520.028C1600.31 410.879 1788.33 219.985 1992.54 -19.054" stroke="#A3A3A3" stroke-width="1.0852" stroke-miterlimit="10"/>
<path opacity="0.0217" d="M-494.723 638.28C-487.265 628.227 -478.251 617.416 -469.263 606.976C-460.183 596.423 -450.93 586.237 -441.154 576.702C-425.665 561.592 -409.007 548.241 -391.874 536.439C-374.733 524.631 -356.999 514.296 -338.612 504.993C-324.13 497.664 -309.067 490.649 -294.62 484.569C-219.664 452.946 -141.3 442.461 -66.4488 441.548C-11.7354 440.836 40.9429 440.941 93.4478 445.061C104.045 445.892 114.668 446.867 125.18 447.9C183.85 453.647 242.143 463.206 299.485 474.965C405.072 496.587 510.771 527.598 615.173 560.143C729.882 595.871 844.057 629.583 960.032 634.907C1101.41 641.682 1248.41 605.719 1405.92 514.931C1597.17 403.799 1785.21 216.03 1992.21 -23.05" stroke="#A3A3A3" stroke-width="1.0852" stroke-miterlimit="10"/>
</g>
</g>
</g>
<defs>
<clipPath id="clip0_42_1021">
<rect width="1605" height="1069" fill="white" transform="translate(-83 -168)"/>
</clipPath>
</defs>
</svg>
