<svg width="1440" height="843" viewBox="0 0 1440 843" fill="none" xmlns="http://www.w3.org/2000/svg">
<g clip-path="url(#clip0_48_3735)">
<rect width="1440" height="843" fill="#F3F3F3"/>
<g opacity="0.35">
<mask id="mask0_48_3735" style="mask-type:luminance" maskUnits="userSpaceOnUse" x="-49" y="188" width="1539" height="713">
<path d="M1307.36 645.865C1313.31 650.486 1318.79 655.636 1323.8 661.284C1333.26 662.406 1342.22 664.02 1350.72 666.087C1338.36 657.196 1323.71 650.636 1307.36 645.865ZM1276.67 639.578C1282.1 645.494 1287 652.053 1291.45 659.116C1301.96 659.256 1311.96 659.904 1321.53 660.973C1316.17 655.083 1310.3 649.753 1303.9 645.001C1295.29 642.695 1286.2 640.9 1276.67 639.578ZM1258.11 622.704C1264.28 627.31 1269.97 632.486 1275.28 638.101C1284.39 639.283 1293.09 640.898 1301.36 642.967C1288.8 634.156 1274.26 627.519 1258.11 622.704ZM1244.94 636.975C1249.72 644.086 1254.08 651.748 1257.91 660.063C1268.88 659.344 1279.54 658.951 1289.73 659.037C1285.12 651.875 1280.05 645.246 1274.43 639.272C1265.03 638.048 1255.19 637.282 1244.94 636.975ZM1228.28 616.375C1233.97 622.259 1239.21 628.725 1244.03 635.734C1254.1 635.984 1263.78 636.668 1273.04 637.793C1267.37 631.943 1261.29 626.584 1254.67 621.852C1246.28 619.557 1237.47 617.745 1228.28 616.375ZM1208.94 599.557C1215.3 604.168 1221.24 609.316 1226.83 614.928C1235.61 616.151 1244.03 617.795 1252.07 619.858C1239.29 611.165 1224.9 604.39 1208.94 599.557ZM1212.43 637.342C1216.61 645.457 1220.38 654.144 1223.68 663.46C1234.95 662.033 1245.93 660.916 1256.53 660.186C1252.6 651.802 1248.16 644.05 1243.25 636.897C1233.34 636.643 1223.07 636.788 1212.43 637.342ZM1197.63 613.573C1202.73 620.578 1207.5 628.069 1211.77 636.231C1222.31 635.649 1232.5 635.453 1242.33 635.655C1237.36 628.558 1231.95 622.003 1226.07 616.072C1216.96 614.8 1207.48 613.973 1197.63 613.573ZM1179.96 593.184C1185.91 599.037 1191.49 605.406 1196.66 612.359C1206.33 612.697 1215.66 613.452 1224.62 614.625C1218.66 608.788 1212.33 603.438 1205.51 598.715C1197.34 596.438 1188.83 594.59 1179.96 593.184ZM1160.19 576.669C1166.61 581.223 1172.7 586.25 1178.45 591.764C1186.91 593.021 1195.02 594.705 1202.84 596.754C1189.99 588.257 1175.78 581.526 1160.19 576.669ZM1179.54 640.118C1183.31 649.07 1186.74 658.55 1189.78 668.607C1200.98 666.652 1211.91 664.986 1222.56 663.618C1219.18 654.237 1215.31 645.54 1211.04 637.382C1200.86 637.941 1190.35 638.863 1179.54 640.118ZM1166.44 613.627C1171.04 621.554 1175.3 630.02 1179.16 639.08C1189.85 637.814 1200.28 636.86 1210.38 636.271C1206.01 628.065 1201.16 620.521 1195.95 613.494C1186.44 613.155 1176.6 613.199 1166.44 613.627ZM1150.37 590.18C1155.83 597.105 1160.99 604.496 1165.73 612.543C1175.79 612.081 1185.55 611.993 1194.98 612.281C1189.65 605.235 1183.9 598.781 1177.76 592.884C1168.96 591.571 1159.83 590.666 1150.37 590.18ZM1131.72 570.007C1137.92 575.812 1143.82 582.108 1149.34 588.989C1158.62 589.41 1167.59 590.247 1176.25 591.461C1170.02 585.628 1163.42 580.315 1156.42 575.59C1148.49 573.308 1140.25 571.455 1131.72 570.007ZM1111.93 554.052C1118.28 558.466 1124.36 563.315 1130.15 568.61C1138.27 569.912 1146.09 571.621 1153.68 573.659C1140.92 565.431 1126.97 558.925 1111.93 554.052ZM1147.4 644.704C1150.96 654.265 1154.22 664.327 1157.17 674.917C1167.93 672.628 1178.44 670.611 1188.76 668.798C1185.7 658.702 1182.24 649.182 1178.43 640.219C1168.35 641.411 1157.97 642.945 1147.4 644.704ZM1135.13 615.991C1139.42 624.709 1143.41 633.949 1147.08 643.724C1157.65 641.949 1167.98 640.451 1178.06 639.238C1174.13 630.106 1169.76 621.641 1165.07 613.668C1155.37 614.107 1145.38 614.89 1135.13 615.991ZM1120.47 589.918C1125.52 597.724 1130.26 606.077 1134.69 614.978C1144.83 613.865 1154.73 613.052 1164.35 612.582C1159.52 604.488 1154.27 597.047 1148.71 590.101C1139.58 589.679 1130.17 589.61 1120.47 589.918ZM1103.16 566.796C1108.97 573.628 1114.51 580.934 1119.7 588.854C1129.3 588.511 1138.62 588.539 1147.68 588.909C1141.99 581.936 1135.93 575.556 1129.53 569.707C1121.02 568.346 1112.23 567.374 1103.16 566.796ZM1083.56 546.845C1090.02 552.593 1096.2 558.83 1102.07 565.627C1110.97 566.143 1119.59 567.046 1127.96 568.309C1121.44 562.493 1114.6 557.201 1107.4 552.479C1099.74 550.167 1091.76 548.339 1083.56 546.845ZM1063.84 531.463C1070.09 535.719 1076.11 540.406 1081.93 545.467C1089.71 546.81 1097.24 548.547 1104.58 550.571C1091.96 542.632 1078.33 536.32 1063.84 531.463ZM1116.74 650.498C1120.23 660.479 1123.49 670.931 1126.49 681.861C1136.6 679.401 1146.47 677.213 1156.24 675.128C1153.27 664.512 1149.98 654.428 1146.4 644.85C1136.73 646.477 1126.78 648.427 1116.74 650.498ZM1104.75 620.075C1108.91 629.406 1112.8 639.244 1116.44 649.566C1126.49 647.482 1136.41 645.556 1146.08 643.912C1142.38 634.101 1138.37 624.823 1134.04 616.093C1124.5 617.137 1114.72 618.493 1104.75 620.075ZM1090.69 591.862C1095.52 600.424 1100.07 609.526 1104.37 619.12C1114.31 617.524 1124.07 616.144 1133.59 615.079C1129.1 606.125 1124.25 597.796 1119.12 589.957C1109.88 590.28 1100.4 590.912 1090.69 591.862ZM1074.52 566.211C1080.01 573.891 1085.22 582.132 1090.19 590.87C1099.8 589.905 1109.18 589.248 1118.34 588.892C1113.06 580.924 1107.42 573.572 1101.51 566.717C1092.75 566.206 1083.76 566.029 1074.52 566.211ZM1056.01 543.423C1062.16 550.155 1068.06 557.381 1073.69 565.169C1082.84 564.953 1091.75 565.088 1100.43 565.547C1094.39 558.658 1088.03 552.338 1081.38 546.545C1073.16 545.136 1064.7 544.097 1056.01 543.423ZM1035.78 523.932C1042.38 529.55 1048.74 535.662 1054.86 542.27C1063.38 542.881 1071.67 543.853 1079.74 545.166C1073.09 539.504 1066.18 534.337 1058.97 529.707C1051.48 527.363 1043.72 525.491 1035.78 523.932ZM1015.92 508.903C1022.05 512.991 1027.98 517.522 1033.78 522.334C1041.24 523.711 1048.48 525.46 1055.56 527.494C1043.11 519.865 1029.86 513.71 1015.92 508.903ZM1088.09 656.94C1091.64 667.271 1095.01 677.989 1098.15 689.221C1107.38 686.745 1116.62 684.28 1125.62 682.076C1122.6 671.121 1119.33 660.671 1115.81 650.675C1106.74 652.559 1097.45 654.716 1088.09 656.94ZM1075.96 625.285C1080.09 635.124 1084.1 645.27 1087.82 656.05C1097.16 653.818 1106.46 651.638 1115.52 649.743C1111.86 639.399 1107.94 629.561 1103.77 620.22C1094.67 621.68 1085.37 623.405 1075.96 625.285ZM1062.01 595.435C1066.74 604.629 1071.3 614.208 1075.6 624.378C1085.01 622.488 1094.3 620.739 1103.38 619.264C1099.05 609.65 1094.47 600.53 1089.61 591.963C1080.6 592.863 1071.4 594.024 1062.01 595.435ZM1046.22 567.729C1051.54 576.169 1056.68 585.052 1061.57 594.5C1070.93 593.074 1080.11 591.893 1089.1 590.971C1084.07 582.177 1078.74 573.965 1073.17 566.249C1064.39 566.452 1055.41 566.932 1046.22 567.729ZM1028.59 542.508C1034.49 550.087 1040.19 558.152 1045.66 566.757C1054.75 565.947 1063.64 565.438 1072.35 565.206C1066.62 557.368 1060.62 550.101 1054.37 543.343C1045.98 542.742 1037.39 542.456 1028.59 542.508ZM1008.92 520.058C1015.38 526.712 1021.67 533.805 1027.7 541.483C1036.41 541.396 1044.91 541.64 1053.22 542.19C1046.84 535.389 1040.2 529.128 1033.3 523.395C1025.38 521.917 1017.24 520.82 1008.92 520.058ZM988.378 501.236C995.007 506.678 1001.46 512.565 1007.71 518.922C1015.87 519.618 1023.82 520.675 1031.59 522.031C1024.94 516.613 1018.07 511.631 1010.97 507.151C1003.64 504.796 996.089 502.857 988.378 501.236ZM968.185 486.378C974.319 490.395 980.286 494.839 986.15 499.539C993.099 500.915 999.964 502.462 1006.61 504.424C994.391 497.128 981.574 491.119 968.185 486.378ZM1061.7 663.587C1065.42 674.13 1068.99 685.067 1072.41 696.402C1080.78 693.995 1089.1 691.644 1097.3 689.442C1094.15 678.208 1090.78 667.468 1087.23 657.139C1078.84 659.145 1070.3 661.319 1061.7 663.587ZM1049.22 631.083C1053.43 641.197 1057.48 651.758 1061.37 662.745C1069.99 660.466 1078.54 658.267 1086.95 656.249C1083.22 645.456 1079.2 635.309 1075.05 625.463C1066.56 627.166 1057.94 629.054 1049.22 631.083ZM1035.01 600.054C1039.77 609.697 1044.4 619.671 1048.83 630.229C1057.56 628.186 1066.2 626.273 1074.69 624.554C1070.37 614.368 1065.79 604.782 1061.03 595.58C1052.5 596.874 1043.83 598.357 1035.01 600.054ZM1019.17 570.78C1024.47 579.82 1029.65 589.177 1034.6 599.168C1043.41 597.46 1052.07 595.955 1060.59 594.645C1055.67 585.178 1050.5 576.274 1045.14 567.829C1036.64 568.582 1028 569.543 1019.17 570.78ZM1001.72 543.592C1007.53 551.897 1013.21 560.584 1018.68 569.867C1027.47 568.619 1036.08 567.633 1044.55 566.861C1039.02 558.207 1033.22 550.154 1027.25 542.546C1018.9 542.626 1010.4 542.951 1001.72 543.592ZM982.674 518.809C988.978 526.276 995.138 534.178 1001.1 542.638C1009.69 541.981 1018.1 541.63 1026.36 541.519C1020.23 533.79 1013.85 526.657 1007.28 519.977C999.244 519.29 991.052 518.877 982.674 518.809ZM962.318 497.087C968.943 503.534 975.432 510.4 981.737 517.798C990.023 517.832 998.123 518.205 1006.07 518.84C999.513 512.254 992.731 506.203 985.765 500.614C978.125 499.085 970.292 497.941 962.318 497.087ZM941.141 478.567C947.845 483.877 954.417 489.606 960.84 495.77C968.54 496.541 976.139 497.526 983.532 498.914C976.906 493.724 970.109 488.959 963.144 484.622C955.964 482.256 948.624 480.247 941.141 478.567ZM920.651 463.89C926.823 467.862 932.86 472.265 938.825 476.882C945.466 478.293 952.046 479.846 958.454 481.794C946.311 474.631 933.705 468.659 920.651 463.89ZM1037.94 670.003C1041.98 680.629 1045.89 691.661 1049.71 702.993C1057.11 700.746 1064.33 698.722 1071.6 696.636C1068.17 685.295 1064.59 674.354 1060.86 663.809C1053.27 665.808 1045.69 667.8 1037.94 670.003ZM1024.65 637.053C1029.1 647.36 1033.41 658.119 1037.63 669.194C1045.37 666.987 1052.96 664.972 1060.54 662.967C1056.63 651.975 1052.56 641.415 1048.33 631.29C1040.52 633.111 1032.66 634.977 1024.65 637.053ZM1010 605.219C1014.89 615.121 1019.64 625.504 1024.28 636.234C1032.28 634.151 1040.13 632.266 1047.94 630.437C1043.51 619.879 1038.88 609.871 1034.11 600.232C1026.16 601.764 1018.17 603.37 1010 605.219ZM993.893 574.801C999.243 584.215 1004.46 594.093 1009.56 604.385C1017.73 602.524 1025.75 600.891 1033.7 599.344C1028.73 589.338 1023.52 579.973 1018.2 570.927C1010.2 572.057 1002.14 573.288 993.893 574.801ZM976.24 546.116C982.075 554.966 987.812 564.175 993.39 573.944C1001.63 572.417 1009.71 571.159 1017.71 570.014C1012.21 560.712 1006.5 552.003 1000.65 543.694C992.631 544.299 984.528 545.051 976.24 546.116ZM957.218 519.51C963.494 527.644 969.672 536.143 975.687 545.22C983.93 544.144 991.994 543.37 999.969 542.745C993.944 534.244 987.71 526.336 981.335 518.846C973.435 518.812 965.403 519.018 957.218 519.51ZM937.053 495.457C943.651 502.705 950.154 510.334 956.501 518.513C964.62 518.001 972.559 517.828 980.396 517.835C973.936 510.313 967.277 503.362 960.481 496.834C952.823 496.063 944.992 495.648 937.053 495.457ZM915.878 474.163C922.702 480.446 929.418 487.159 936.009 494.337C943.79 494.488 951.487 494.815 959.001 495.515C952.32 489.187 945.472 483.352 938.487 477.938C931.089 476.357 923.547 475.112 915.878 474.163ZM894.078 455.928C900.933 461.155 907.681 466.817 914.33 472.859C921.723 473.721 929.021 474.812 936.168 476.253C929.412 471.134 922.519 466.43 915.5 462.125C908.472 459.75 901.335 457.674 894.078 455.928ZM873.124 441.372C879.388 445.316 885.552 449.686 891.665 454.251C898.073 455.714 904.42 457.346 910.65 459.302C898.485 452.212 885.983 446.19 873.124 441.372ZM1017.31 676.131C1021.75 686.793 1026.1 697.794 1030.39 709.101C1036.57 707.147 1042.83 705.106 1048.94 703.239C1045.11 691.9 1041.19 680.866 1037.15 670.239C1030.61 672.111 1023.95 674.135 1017.31 676.131ZM1002.9 642.971C1007.68 653.372 1012.35 664.232 1016.98 675.32C1023.63 673.317 1030.28 671.306 1036.83 669.429C1032.6 658.351 1028.28 647.587 1023.82 637.279C1016.92 639.077 1009.93 640.999 1002.9 642.971ZM987.363 610.662C992.507 620.739 997.537 631.331 1002.52 642.149C1009.56 640.166 1016.54 638.266 1023.45 636.46C1018.79 625.723 1014.03 615.337 1009.13 605.429C1001.95 607.062 994.697 608.8 987.363 610.662ZM970.628 579.479C976.153 589.149 981.563 599.362 986.92 609.823C994.263 607.951 1001.5 606.238 1008.69 604.596C1003.57 594.299 998.343 584.401 992.977 574.985C985.615 576.346 978.171 577.831 970.628 579.479ZM952.658 549.724C958.571 558.894 964.371 568.61 970.109 578.618C977.661 576.958 985.083 575.503 992.451 574.133C986.86 564.366 981.124 555.106 975.272 546.264C967.841 547.238 960.291 548.406 952.658 549.724ZM933.389 521.715C939.697 530.309 945.912 539.363 952.042 548.831C959.695 547.495 967.232 546.361 974.681 545.374C968.627 536.272 962.424 527.701 956.107 519.553C948.663 520.03 941.045 520.836 933.389 521.715ZM912.958 495.759C919.629 503.67 926.223 511.965 932.716 520.769C940.355 519.872 947.92 519.12 955.348 518.623C948.924 510.389 942.357 502.668 935.675 495.388C928.229 495.245 920.632 495.421 912.958 495.759ZM891.556 472.167C898.505 479.271 905.384 486.755 912.162 494.751C919.718 494.393 927.217 494.161 934.556 494.264C927.834 487.005 920.981 480.239 914.018 473.906C906.649 473.042 899.155 472.479 891.556 472.167ZM869.426 451.241C876.539 457.435 883.581 464.011 890.533 471.066C897.944 471.336 905.27 471.812 912.468 472.602C905.55 466.39 898.516 460.63 891.378 455.293C884.166 453.642 876.848 452.293 869.426 451.241ZM846.985 433.269C854.043 438.444 861.035 444.007 867.954 449.967C875.048 450.925 882.058 452.117 888.96 453.615C882.084 448.583 875.113 443.918 868.049 439.659C861.108 437.253 854.096 435.085 846.985 433.269ZM825.189 418.684C831.738 422.694 838.238 427.006 844.681 431.644C850.86 433.152 856.978 434.875 863.027 436.836C850.658 429.732 838.064 423.574 825.189 418.684ZM999.859 681.421C1004.67 692.055 1009.45 702.942 1014.17 714.232C1019.38 712.531 1024.49 710.963 1029.64 709.339C1025.35 698.023 1020.98 687.026 1016.54 676.361C1011 678.025 1005.48 679.658 999.859 681.421ZM984.15 648.403C989.31 658.904 994.458 669.486 999.52 680.643C1005.13 678.878 1010.67 677.219 1016.21 675.55C1011.58 664.452 1006.89 653.594 1002.1 643.187C996.166 644.859 990.172 646.612 984.15 648.403ZM967.505 615.986C972.973 626.209 978.4 636.711 983.77 647.617C989.785 645.822 995.788 644.043 1001.72 642.365C996.726 631.538 991.682 620.946 986.524 610.863C980.254 612.467 973.878 614.23 967.505 615.986ZM949.853 584.404C955.645 594.291 961.382 604.572 967.073 615.186C973.436 613.425 979.818 611.635 986.081 610.025C980.708 599.55 975.279 589.338 969.736 579.658C963.192 581.104 956.517 582.761 949.853 584.404ZM931.152 553.919C937.277 563.401 943.341 573.336 949.361 583.585C956.012 581.939 962.687 580.252 969.218 578.798C963.457 568.772 957.63 559.056 951.692 549.871C944.938 551.057 938.047 552.483 931.152 553.919ZM911.39 524.82C917.844 533.81 924.236 543.279 930.583 553.076C937.457 551.634 944.342 550.174 951.078 548.978C944.932 539.51 938.711 530.4 932.386 521.811C925.485 522.626 918.453 523.693 911.39 524.82ZM890.562 497.419C897.336 505.833 904.057 514.689 910.725 523.946C917.757 522.808 924.771 521.703 931.647 520.871C925.13 512.064 918.523 503.695 911.83 495.789C904.838 496.122 897.73 496.705 890.562 497.419ZM868.726 472.014C875.799 479.776 882.838 487.867 889.809 496.493C896.929 495.765 904.002 495.141 910.953 494.784C904.133 486.778 897.23 479.202 890.237 472.1C883.161 471.838 875.986 471.819 868.726 472.014ZM846.151 448.893C853.432 455.88 860.685 463.173 867.871 471.021C875.018 470.805 882.092 470.77 889.064 470.991C882.02 463.893 874.896 457.214 867.689 451C860.598 450.038 853.419 449.333 846.151 448.893ZM823.078 428.335C830.449 434.447 837.793 440.86 845.078 447.802C852.154 448.197 859.152 448.821 866.062 449.705C858.926 443.624 851.719 437.923 844.436 432.674C837.394 430.952 830.279 429.486 823.078 428.335ZM799.901 410.599C807.186 415.755 814.451 421.163 821.662 427.088C828.486 428.133 835.235 429.445 841.918 431C834.932 426.065 827.896 421.425 820.788 417.223C813.88 414.76 806.931 412.486 799.901 410.599ZM778.103 396.458C784.711 400.432 791.315 404.49 797.87 409.063C803.823 410.604 809.718 412.431 815.583 414.395C803.242 407.428 790.759 401.352 778.103 396.458ZM985.428 686.105C990.676 696.627 995.894 707.562 1001.1 718.585C1005.21 717.216 1009.34 715.805 1013.42 714.469C1008.7 703.184 1003.93 692.289 999.113 681.663C994.589 683.092 989.988 684.629 985.428 686.105ZM968.573 653.147C974.088 663.49 979.567 674.381 985.038 685.341C989.618 683.855 994.231 682.322 998.774 680.885C993.705 669.721 988.549 659.142 983.384 648.638C978.473 650.103 973.537 651.603 968.573 653.147ZM950.538 620.711C956.432 631.02 962.321 641.409 968.171 652.363C973.146 650.813 978.083 649.32 983.002 647.85C977.624 636.936 972.184 626.434 966.707 616.208C961.333 617.686 955.992 619.113 950.538 620.711ZM931.705 588.963C937.854 598.96 943.984 609.245 950.091 619.911C955.553 618.303 960.892 616.891 966.275 615.408C960.573 604.786 954.819 594.502 949.014 584.608C943.267 586.021 937.548 587.391 931.705 588.963ZM912.034 558.112C918.454 567.765 924.849 577.83 931.228 588.183C937.06 586.607 942.782 585.211 948.522 583.792C942.484 573.528 936.4 563.592 930.257 554.102C924.226 555.362 918.175 556.657 912.034 558.112ZM891.459 528.333C898.159 537.584 904.833 547.322 911.494 557.313C917.619 555.851 923.67 554.527 929.69 553.259C923.318 543.444 916.898 533.973 910.42 524.971C904.154 525.98 897.846 527.078 891.459 528.333ZM869.994 499.903C876.964 508.673 883.909 517.962 890.842 527.508C897.208 526.247 903.509 525.116 909.753 524.095C903.062 514.83 896.32 505.938 889.524 497.518C883.075 498.171 876.575 498.947 869.994 499.903ZM847.688 473.117C854.903 481.317 862.099 490.039 869.28 499.044C875.83 498.079 882.311 497.267 888.73 496.597C881.735 487.969 874.682 479.803 867.584 472.044C861.017 472.235 854.398 472.563 847.688 473.117ZM824.523 448.274C831.981 455.855 839.428 463.802 846.853 472.209C853.529 471.638 860.126 471.268 866.666 471.052C859.434 463.186 852.138 455.819 844.809 448.824C838.111 448.442 831.36 448.226 824.523 448.274ZM800.837 425.634C808.437 432.474 816.031 439.626 823.606 447.291C830.361 447.218 837.036 447.386 843.655 447.728C836.286 440.748 828.866 434.235 821.41 428.105C814.613 427.055 807.764 426.189 800.837 425.634ZM776.873 405.453C784.489 411.45 792.1 417.756 799.694 424.551C806.459 425.06 813.15 425.85 819.79 426.827C812.441 420.849 805.051 415.255 797.625 410.072C790.758 408.287 783.851 406.689 776.873 405.453ZM753.211 388.114C760.604 393.153 767.995 398.446 775.375 404.209C781.986 405.335 788.533 406.791 795.045 408.41C787.967 403.56 780.862 398.97 773.721 394.818C766.923 392.307 760.088 390.05 753.211 388.114ZM732.077 374.768C738.337 378.467 744.597 382.219 750.851 386.417C756.71 388.005 762.519 389.972 768.323 391.975C756.314 385.29 744.225 379.603 732.077 374.768ZM974.107 689.78C979.918 700.322 985.731 710.778 991.545 721.833C994.485 720.836 997.444 719.816 1000.38 718.833C995.16 707.808 989.937 696.873 984.684 686.346C981.162 687.485 977.654 688.603 974.107 689.78ZM955.693 657.137C961.691 667.523 967.691 678.144 973.693 689.022C977.25 687.84 980.763 686.725 984.291 685.583C978.817 674.624 973.339 663.715 967.821 653.375C963.782 654.625 959.775 655.827 955.693 657.137ZM936.714 624.932C942.89 635.032 949.075 645.701 955.257 656.396C959.344 655.081 963.373 653.848 967.42 652.591C961.56 641.632 955.662 631.242 949.76 620.927C945.449 622.201 941.06 623.601 936.714 624.932ZM916.61 593.267C923.147 603.33 929.689 613.49 936.235 624.18C940.586 622.843 944.996 621.409 949.312 620.127C943.199 609.463 937.062 599.184 930.908 589.189C926.185 590.475 921.381 591.901 916.61 593.267ZM895.704 562.21C902.502 572.023 909.306 582.023 916.115 592.489C920.896 591.114 925.698 589.702 930.429 588.411C924.038 578.049 917.628 567.98 911.195 558.323C906.069 559.548 900.896 560.861 895.704 562.21ZM874.031 531.968C881.064 541.441 888.105 551.254 895.154 561.41C900.354 560.051 905.522 558.755 910.655 557.523C903.975 547.52 897.281 537.78 890.562 528.519C885.085 529.6 879.593 530.713 874.031 531.968ZM851.602 502.798C858.86 511.861 866.132 521.359 873.41 531.141C878.978 529.874 884.463 528.783 889.944 527.695C882.986 518.133 876.013 508.838 869.017 500.056C863.245 500.894 857.474 501.725 851.602 502.798ZM828.467 474.975C835.929 483.551 843.406 492.611 850.891 501.934C856.769 500.847 862.525 500.045 868.302 499.198C861.089 490.171 853.859 481.436 846.609 473.219C840.596 473.714 834.59 474.185 828.467 474.975ZM804.746 448.81C812.381 456.82 820.036 465.343 827.697 474.124C833.793 473.323 839.776 472.824 845.764 472.313C838.314 463.905 830.845 455.883 823.364 448.304C817.197 448.352 811.024 448.414 804.746 448.81ZM780.365 424.558C788.176 431.968 796.003 439.715 803.847 447.916C810.1 447.5 816.258 447.395 822.404 447.322C814.775 439.63 807.126 432.417 799.471 425.562C793.143 425.069 786.795 424.646 780.365 424.558ZM755.771 402.524C763.619 409.192 771.482 416.115 779.367 423.565C785.747 423.626 792.047 424.018 798.327 424.479C790.62 417.617 782.895 411.255 775.166 405.216C768.739 404.118 762.282 403.18 755.771 402.524ZM731.308 382.979C738.988 388.766 746.684 394.791 754.404 401.31C760.874 401.925 767.277 402.904 773.662 403.969C766 398.036 758.327 392.577 750.652 387.42C744.236 385.696 737.783 384.249 731.308 382.979ZM707.57 366.238C714.836 371.049 722.115 376.043 729.42 381.493C735.763 382.688 742.067 384.201 748.356 385.844C740.991 380.97 733.62 376.498 726.25 372.315C720.043 369.994 713.806 368.105 707.57 366.238ZM686.409 353.135C692.48 356.672 698.558 360.267 704.659 364.241C710.203 365.832 715.736 367.666 721.262 369.582C709.643 363.23 698.021 357.865 686.409 353.135ZM1065.68 875.331C1062.83 869.611 1059.98 863.955 1057.14 858.402C1061.61 868.442 1066.08 878.281 1070.55 888.63C1068.92 884.195 1067.31 879.704 1065.68 875.331ZM946.114 660.332C952.595 670.576 959.083 680.903 965.609 691.658C968.084 690.822 970.504 690.066 972.959 689.259C966.953 678.396 960.951 667.763 954.95 657.385C952.024 658.337 949.047 659.368 946.114 660.332ZM925.498 628.436C932.198 638.6 938.914 648.948 945.656 659.596C948.6 658.628 951.581 657.6 954.514 656.644C948.323 645.951 942.131 635.273 935.945 625.172C932.477 626.239 928.991 627.33 925.498 628.436ZM904.26 596.788C911.139 606.734 918.068 617.179 925 627.687C928.504 626.574 931.99 625.491 935.467 624.419C928.917 613.737 922.372 603.544 915.83 593.49C911.976 594.586 908.156 595.62 904.26 596.788ZM882.209 565.78C889.348 575.565 896.517 585.633 903.715 596.023C907.632 594.843 911.463 593.815 915.337 592.712C908.513 582.24 901.699 572.231 894.888 562.415C890.676 563.509 886.469 564.596 882.209 565.78ZM859.39 535.508C866.792 545.092 874.206 554.805 881.67 565.019C885.919 563.834 890.132 562.713 894.336 561.614C887.272 551.451 880.214 541.627 873.165 532.15C868.61 533.192 863.995 534.363 859.39 535.508ZM835.933 506.039C843.52 515.281 851.138 524.827 858.794 534.726C863.383 533.577 867.999 532.371 872.542 531.322C865.241 521.526 857.946 512.018 850.664 502.945C845.803 503.858 840.847 504.998 835.933 506.039ZM811.867 477.618C819.626 486.454 827.43 495.707 835.262 505.23C840.17 504.183 845.119 503.03 849.974 502.105C842.465 492.771 834.963 483.707 827.478 475.125C822.322 475.822 817.082 476.754 811.867 477.618ZM787.276 450.513C795.175 458.867 803.129 467.704 811.106 476.771C816.326 475.894 821.556 474.988 826.715 474.282C819.012 465.476 811.318 456.945 803.646 448.917C798.236 449.298 792.751 449.919 787.276 450.513ZM762.292 425.01C770.277 432.79 778.325 441.102 786.394 449.612C791.868 449.003 797.338 448.414 802.745 448.022C794.873 439.815 787.011 431.98 779.171 424.569C773.59 424.538 767.938 424.782 762.292 425.01ZM736.824 401.386C744.919 408.59 753.054 416.083 761.242 424.034C766.908 423.785 772.564 423.58 778.167 423.596C770.166 416.065 762.186 409.042 754.223 402.313C748.463 401.787 742.64 401.603 736.824 401.386ZM711.384 379.893C719.435 386.381 727.517 393.089 735.662 400.307C741.466 400.498 747.262 400.74 753.011 401.235C745.075 394.569 737.165 388.405 729.273 382.511C723.337 381.406 717.362 380.634 711.384 379.893ZM686.329 360.803C694.147 366.453 701.997 372.326 709.908 378.662C715.781 379.354 721.651 380.075 727.484 381.106C719.811 375.429 712.166 370.234 704.537 365.262C698.481 363.532 692.406 362.13 686.329 360.803ZM662.266 344.415C669.58 349.119 676.922 354.01 684.32 359.308C690.093 360.521 695.871 361.705 701.627 363.265C694.5 358.701 687.404 354.604 680.32 350.632C674.298 348.321 668.282 346.31 662.266 344.415ZM641.139 331.576C647.128 335.009 653.138 338.57 659.187 342.398C664.262 343.935 669.337 345.411 674.418 347.223C663.261 341.215 652.18 336.175 641.139 331.576ZM1039.18 820.413C1036.62 816.13 1034.05 811.839 1031.49 807.582C1036.61 817.151 1041.77 827.205 1046.92 837.191C1044.34 831.531 1041.76 825.966 1039.18 820.413ZM1055.31 847.694C1051.23 840.692 1047.18 833.822 1043.13 826.991C1046.21 833.682 1049.29 840.8 1052.37 847.647C1056.02 854.719 1059.65 861.658 1063.31 868.86C1060.64 861.769 1057.99 854.618 1055.31 847.694ZM1071.44 875.859C1066.93 867.956 1062.42 859.99 1057.95 852.306C1060.78 859.685 1063.58 867.535 1066.39 875.105C1070.4 883.057 1074.43 891.335 1078.46 899.535C1076.12 891.639 1073.81 883.548 1071.44 875.859ZM917.463 630.946C924.613 640.959 931.814 651.265 939.054 661.796C941.01 661.142 942.969 660.486 944.92 659.84C938.172 649.206 931.446 638.827 924.74 628.673C922.312 629.433 919.909 630.154 917.463 630.946ZM894.704 599.739C902.082 609.697 909.48 619.764 916.942 630.202C919.399 629.404 921.806 628.686 924.242 627.923C917.301 617.42 910.363 606.958 903.473 597.013C900.565 597.893 897.625 598.834 894.704 599.739ZM871.485 568.914C878.989 578.629 886.568 588.769 894.163 599.011C897.077 598.105 900.026 597.132 902.927 596.247C895.734 585.878 888.563 575.772 881.426 566.007C878.134 566.937 874.797 567.95 871.485 568.914ZM847.559 538.546C855.275 548.075 863.073 558.051 870.894 568.167C874.226 567.193 877.575 566.183 880.887 565.249C873.411 555.031 865.982 545.303 858.569 535.719C854.912 536.632 851.247 537.563 847.559 538.546ZM822.761 508.841C830.78 518.251 838.812 527.736 846.943 537.764C850.641 536.775 854.307 535.856 857.971 534.938C850.297 525.032 842.661 515.47 835.056 506.226C830.965 507.082 826.9 507.868 822.761 508.841ZM797.56 480.08C805.677 489.096 813.844 498.38 822.079 508.031C826.227 507.049 830.288 506.279 834.387 505.416C826.529 495.881 818.702 486.613 810.917 477.77C806.479 478.499 802.051 479.202 797.56 480.08ZM771.968 452.42C780.193 461.025 788.495 470.025 796.845 479.287C801.316 478.404 805.737 477.663 810.157 476.923C802.144 467.837 794.157 458.982 786.224 450.616C781.495 451.136 776.747 451.724 771.968 452.42ZM746.025 426.043C754.327 434.171 762.722 442.782 771.157 451.586C775.909 450.883 780.638 450.25 785.341 449.715C777.221 441.174 769.123 432.844 761.09 425.041C756.096 425.26 751.07 425.612 746.025 426.043ZM719.869 401.227C728.193 408.797 736.624 416.892 745.087 425.155C750.09 424.71 755.084 424.307 760.039 424.066C751.82 416.109 743.644 408.519 735.517 401.315C730.324 401.145 725.103 401.145 719.869 401.227ZM693.415 378.232C701.805 385.261 710.243 392.525 718.777 400.26C723.986 400.157 729.188 400.097 734.355 400.237C726.11 392.96 717.929 386.199 709.781 379.671C704.343 379.029 698.885 378.575 693.415 378.232ZM667.216 357.297C675.474 363.622 683.775 370.147 692.177 377.159C697.567 377.469 702.948 377.845 708.307 378.438C700.222 372.002 692.203 366.044 684.216 360.32C678.556 359.13 672.89 358.144 667.216 357.297ZM641.638 338.673C649.578 344.184 657.565 349.908 665.645 356.061C671.17 356.85 676.695 357.717 682.209 358.826C674.454 353.322 666.761 348.263 659.1 343.412C653.274 341.639 647.455 340.063 641.638 338.673ZM617.32 322.654C624.659 327.239 632.046 332.03 639.508 337.166C645.01 338.434 650.513 339.794 656.023 341.395C648.882 336.946 641.802 332.907 634.745 329.008C628.92 326.71 623.11 324.569 617.32 322.654ZM596.29 310.093C602.169 313.407 608.098 316.941 614.059 320.61C618.842 322.135 623.627 323.654 628.434 325.433C617.617 319.685 606.905 314.598 596.29 310.093ZM1025.58 791.706C1020.68 784.452 1015.79 777.213 1010.93 770.128C1014.89 777.263 1018.85 784.387 1022.83 791.701C1027.17 798.832 1031.55 806.196 1035.92 813.535C1032.47 806.172 1029.02 798.885 1025.58 791.706ZM1043.86 818.861C1038.65 811.022 1033.49 803.421 1028.32 795.743C1032.17 803.803 1036.02 811.826 1039.87 820.113C1044.37 827.673 1048.85 835.119 1053.38 842.834C1050.22 834.713 1047.04 826.761 1043.86 818.861ZM1062.16 846.925C1056.74 838.59 1051.29 830.119 1045.93 822.037C1049.3 830.447 1052.67 838.788 1056.02 847.447C1060.76 855.573 1065.57 864.08 1070.35 872.472C1067.65 863.775 1064.9 855.37 1062.16 846.925ZM1079.78 873.962C1074.39 865.609 1069.07 857.543 1063.72 849.319C1066.54 858.042 1069.38 866.629 1072.15 875.619C1076.83 883.812 1081.49 891.839 1086.2 900.149C1084.11 891.211 1081.93 882.639 1079.78 873.962ZM888.29 601.796C896.007 611.486 903.853 621.682 911.7 631.884C913.204 631.389 914.695 630.916 916.188 630.437C908.727 620.024 901.319 609.922 893.94 599.985C892.063 600.576 890.168 601.202 888.29 601.796ZM863.47 571.257C871.511 581.022 879.565 590.834 887.729 601.074C889.615 600.475 891.514 599.851 893.4 599.257C885.795 589.025 878.203 578.858 870.689 569.146C868.286 569.844 865.889 570.53 863.47 571.257ZM838.162 540.989C846.322 550.547 854.573 560.458 862.862 570.514C865.287 569.781 867.69 569.099 870.1 568.399C862.276 558.296 854.465 548.27 846.748 538.753C843.883 539.501 841.053 540.18 838.162 540.989ZM812.581 511.423C820.797 520.648 829.17 530.475 837.531 540.259C840.421 539.448 843.268 538.729 846.132 537.974C837.986 527.942 829.934 518.434 821.901 509.024C818.815 509.768 815.682 510.64 812.581 511.423ZM786.132 482.558C794.674 491.723 803.221 500.904 811.921 510.662C815.011 509.877 818.148 508.973 821.226 508.22C812.98 498.574 804.8 489.282 796.673 480.271C793.178 480.976 789.647 481.793 786.132 482.558ZM759.28 454.478C767.913 463.291 776.609 472.34 785.405 481.765C788.927 480.993 792.459 480.188 795.958 479.479C787.582 470.206 779.253 461.187 771.003 452.577C767.112 453.154 763.202 453.793 759.28 454.478ZM732.11 427.412C740.803 435.819 749.599 444.604 758.464 453.643C762.39 452.948 766.297 452.327 770.192 451.743C761.721 442.919 753.289 434.291 744.951 426.15C740.682 426.517 736.414 426.886 732.11 427.412ZM704.757 401.615C713.459 409.541 722.294 417.946 731.176 426.519C735.482 425.98 739.744 425.635 744.013 425.26C735.505 416.975 727.027 408.844 718.659 401.258C714.034 401.322 709.417 401.333 704.757 401.615ZM677.483 377.451C686.114 384.806 694.893 392.679 703.71 400.688C708.349 400.39 712.943 400.371 717.547 400.291C708.98 392.553 700.488 385.186 692.069 378.16C687.215 377.849 682.363 377.502 677.483 377.451ZM650.142 355.103C658.796 361.95 667.503 368.975 676.347 376.489C681.192 376.519 686.01 376.805 690.831 377.086C682.322 370.013 673.915 363.432 665.555 357.067C660.422 356.307 655.286 355.563 650.142 355.103ZM623.268 334.737C631.705 340.891 640.197 347.228 648.821 354.027C653.881 354.454 658.935 355.118 663.986 355.83C655.724 349.573 647.555 343.76 639.439 338.174C634.044 336.9 628.651 335.669 623.268 334.737ZM597.25 316.591C605.287 321.955 613.385 327.533 621.599 333.493C626.829 334.366 632.067 335.479 637.309 336.668C629.466 331.319 621.711 326.361 614.004 321.619C608.406 319.8 602.811 318.038 597.25 316.591ZM572.741 300.952C580.082 305.41 587.495 310.106 594.989 315.069C600.221 316.386 605.479 317.934 610.746 319.576C603.619 315.257 596.567 311.262 589.556 307.449C583.932 305.168 578.305 302.874 572.741 300.952ZM554.774 290.214C559.545 292.893 564.44 295.976 569.278 298.871C573.787 300.376 578.327 302.048 582.88 303.804C573.407 298.838 564.032 294.284 554.774 290.214ZM968.9 707.681C966.08 704.108 963.257 700.517 960.435 696.939C966.95 705.893 973.604 715.413 980.239 724.857C976.428 718.941 972.689 713.464 968.9 707.681ZM982.478 724.912C979.819 721.505 977.218 718.272 974.559 714.863C976.841 718.372 979.095 721.714 981.387 725.283C981.75 725.161 982.114 725.038 982.478 724.912ZM990.282 735.062C987.867 731.925 985.422 728.692 983.025 725.604C982.628 725.74 982.235 725.872 981.842 726.006C983.932 729.28 986.046 732.709 988.14 736.007C992.95 742.866 997.694 749.46 1002.53 756.453C998.439 749.184 994.358 742.085 990.282 735.062ZM1032.38 790.662C1026.34 782.575 1020.4 774.809 1014.42 766.876C1018.36 774.852 1022.31 783.176 1026.26 791.394C1031.67 799.41 1037.04 807.245 1042.49 815.417C1039.13 807.095 1035.77 798.733 1032.38 790.662ZM1052.93 818.738C1046.74 810.265 1040.49 801.611 1034.39 793.407C1037.8 801.575 1041.17 810.167 1044.56 818.592C1050.09 826.908 1055.72 835.677 1061.31 844.274C1058.52 835.729 1055.76 827.018 1052.93 818.738ZM1072.77 845.851C1066.64 837.393 1060.58 829.199 1054.5 820.881C1057.33 829.209 1060.08 838.069 1062.87 846.667C1068.33 855.044 1073.76 863.29 1079.25 871.804C1077.1 863.14 1074.99 854.245 1072.77 845.851ZM1092.43 873.465C1086.3 864.828 1080.09 855.951 1074.05 847.602C1076.27 856.023 1078.35 865.025 1080.5 873.716C1085.92 882.139 1091.46 891.112 1096.95 899.836C1095.44 891.062 1094.03 881.959 1092.43 873.465ZM983.766 725.352C984.893 726.797 986.034 728.279 987.168 729.739C986.266 728.187 985.365 726.661 984.463 725.116L983.766 725.352ZM959.565 694.642C961.019 696.492 962.46 698.304 963.918 700.167C962.652 698.246 961.392 696.359 960.127 694.445C959.94 694.51 959.75 694.578 959.565 694.642ZM858.5 572.71C866.824 582.186 875.366 592.312 883.865 602.313C884.901 601.979 885.938 601.648 886.972 601.317C878.801 591.082 870.734 581.247 862.686 571.487C861.29 571.895 859.909 572.278 858.5 572.71ZM831.771 542.906C840.418 552.45 849.054 561.957 857.86 571.975C859.278 571.538 860.67 571.155 862.077 570.743C853.785 560.696 845.529 550.784 837.363 541.228C835.508 541.769 833.626 542.371 831.771 542.906ZM804.728 513.486C813.439 522.799 822.247 532.391 831.122 542.181C832.983 541.642 834.87 541.042 836.734 540.499C828.369 530.717 819.983 520.854 811.764 511.636C809.426 512.235 807.075 512.862 804.728 513.486ZM777.281 484.479C786.063 493.518 795.052 503.157 804.02 512.735C806.378 512.107 808.734 511.485 811.08 510.882C802.376 501.131 793.809 491.902 785.264 482.746C782.606 483.317 779.959 483.851 777.281 484.479ZM749.18 456.241C758.204 465.152 767.282 474.215 776.502 483.696C779.2 483.057 781.861 482.531 784.537 481.954C775.717 472.515 766.998 463.453 758.343 454.631C755.292 455.151 752.254 455.635 749.18 456.241ZM720.941 429.007C730.007 437.569 739.138 446.318 748.408 455.463C751.462 454.855 754.492 454.327 757.526 453.795C748.626 444.737 739.799 435.936 731.073 427.514C727.71 427.944 724.321 428.497 720.941 429.007ZM692.547 402.771C701.609 410.924 710.798 419.434 720.073 428.182C723.427 427.669 726.8 427.068 730.138 426.621C721.219 418.029 712.349 409.615 703.612 401.675C699.938 401.942 696.233 402.421 692.547 402.771ZM664.166 377.789C673.164 385.456 682.34 393.614 691.557 401.891C695.243 401.527 698.944 401.075 702.619 400.794C693.762 392.767 684.936 384.848 676.267 377.482C672.242 377.486 668.202 377.663 664.166 377.789ZM635.907 354.321C644.81 361.463 653.881 369.067 663.008 376.826C667.038 376.685 671.069 376.535 675.09 376.521C666.21 369.001 657.444 361.871 648.759 355.027C644.478 354.687 640.192 354.498 635.907 354.321ZM607.773 332.575C616.629 339.223 625.526 345.973 634.613 353.244C638.89 353.402 643.167 353.622 647.439 353.95C638.701 347.088 630.099 340.696 621.556 334.497C616.957 333.746 612.362 333.124 607.773 332.575ZM580.406 312.806C588.898 318.732 597.454 324.829 606.168 331.342C610.735 331.86 615.309 332.519 619.885 333.254C611.475 327.183 603.186 321.52 594.963 316.076C590.1 314.871 585.245 313.78 580.406 312.806ZM554.33 295.293C562.227 300.388 570.209 305.707 578.306 311.322C583.088 312.248 587.893 313.376 592.704 314.554C584.803 309.368 577.004 304.511 569.275 299.887C564.275 298.251 559.289 296.701 554.33 295.293ZM530.732 280.566C537.5 284.592 544.389 288.932 551.308 293.353C556.112 294.666 560.962 296.228 565.815 297.808C558.732 293.631 551.721 289.677 544.78 285.961C540.068 284.044 535.391 282.271 530.732 280.566ZM512.453 270.031C516.75 272.415 521.128 275 525.488 277.544C529.52 278.953 533.618 280.625 537.699 282.23C529.175 277.823 520.761 273.762 512.453 270.031ZM925.27 650.758C921.169 646.11 917.164 641.696 913.095 637.127C920.214 645.746 927.359 654.44 934.549 663.273C931.469 659.152 928.333 654.808 925.27 650.758ZM935.795 662.883C934.403 661.284 932.986 659.627 931.602 658.051C932.829 659.685 934.072 661.387 935.305 663.045L935.795 662.883ZM950.211 679.488C945.585 674.132 940.983 668.837 936.394 663.572L935.834 663.759C939.044 668.077 942.258 672.408 945.476 676.762C949.94 682.337 954.488 688.164 959.024 693.957C959.233 693.885 959.445 693.81 959.656 693.737C956.501 688.95 953.342 684.13 950.211 679.488ZM961.9 692.952C959.263 689.911 956.649 686.92 954.004 683.858C956.124 687.014 958.259 690.283 960.384 693.481C960.892 693.303 961.399 693.123 961.9 692.952ZM973.605 706.557C969.877 702.192 966.168 697.88 962.48 693.622C961.945 693.804 961.399 693.998 960.856 694.191C963.759 698.558 966.657 702.888 969.574 707.343C974.151 713.201 978.656 718.843 983.22 724.661L984.035 724.385C980.553 718.393 977.071 712.373 973.605 706.557ZM987.558 723.187C983.853 718.757 980.118 714.254 976.473 709.973C979.23 714.618 981.996 719.403 984.76 724.138C985.692 723.821 986.624 723.505 987.558 723.187ZM1042.61 789.682C1035.63 781.079 1028.55 772.245 1021.67 763.911C1025.48 772.635 1029.3 781.353 1033.08 790.381C1039.32 798.76 1045.73 807.649 1052.07 816.32C1048.95 807.237 1045.78 798.454 1042.61 789.682ZM1064.65 816.807C1057.73 808.229 1050.91 799.877 1044.05 791.447C1047.26 800.37 1050.48 809.221 1053.64 818.464C1059.82 826.905 1065.98 835.249 1072.21 843.835C1069.74 834.587 1067.19 825.74 1064.65 816.807ZM1086.44 844.196C1079.57 835.53 1072.63 826.7 1065.86 818.294C1068.42 827.338 1071.01 836.223 1073.49 845.587C1079.6 854.028 1085.86 862.953 1092.06 871.673C1090.27 862.246 1088.33 853.296 1086.44 844.196ZM1107.86 871.363C1101.06 862.742 1094.23 854.021 1087.5 845.537C1089.4 854.729 1091.37 863.706 1093.16 873.23C1099.24 881.757 1105.36 890.468 1111.47 899.109C1110.39 889.563 1109.08 880.575 1107.86 871.363ZM988.875 723.616C991.188 726.381 993.476 729.085 995.792 731.86C994.264 728.912 992.732 725.767 991.204 722.824L988.875 723.616ZM974.268 706.205C978.873 711.603 983.602 717.3 988.304 722.934L990.825 722.077C985.005 711.028 979.189 700.551 973.372 690.017C970.93 690.816 968.528 691.56 966.064 692.39C968.791 696.903 971.535 701.618 974.268 706.205ZM963.229 693.362C965.943 696.48 968.651 699.581 971.401 702.787C969.375 699.403 967.345 695.967 965.324 692.631C964.629 692.869 963.92 693.128 963.229 693.362ZM950.857 679.109C954.8 683.668 958.725 688.183 962.646 692.692C963.384 692.442 964.133 692.173 964.877 691.913C958.352 681.179 951.857 670.798 945.377 660.577C943.443 661.216 941.498 661.871 939.558 662.517C943.314 667.983 947.079 673.514 950.857 679.109ZM937.148 663.32C940.459 667.139 943.743 670.895 947.063 674.74C944.299 670.665 941.562 666.746 938.812 662.765C938.259 662.95 937.705 663.135 937.148 663.32ZM925.906 650.369C929.402 654.329 932.992 658.522 936.55 662.63C937.137 662.432 937.722 662.239 938.308 662.045C931.072 651.544 923.857 641.164 916.71 631.181C915.22 631.651 913.749 632.09 912.244 632.584C916.794 638.492 921.315 644.298 925.906 650.369ZM910.529 633.172C913.53 636.497 916.527 639.81 919.556 643.197C916.841 639.633 914.191 636.322 911.496 632.841C911.173 632.953 910.848 633.067 910.529 633.172ZM902.867 624.665C905.222 627.287 907.572 629.897 909.918 632.495C910.26 632.381 910.605 632.261 910.952 632.141C903.105 621.946 895.249 611.714 887.534 602.039C886.513 602.365 885.493 602.694 884.472 603.021C890.599 610.221 896.664 617.239 902.867 624.665ZM883.624 603.292C884.306 604.049 884.994 604.822 885.668 605.562C885.009 604.788 884.357 604.031 883.703 603.267L883.624 603.292ZM855.967 573.451C864.93 583.057 873.876 592.617 882.994 602.592L883.095 602.559C874.588 592.546 866.06 582.469 857.715 572.94C857.134 573.107 856.555 573.269 855.967 573.451ZM828.225 543.969C837.109 553.23 846.205 562.993 855.287 572.726C855.884 572.542 856.47 572.377 857.06 572.208C848.243 562.157 839.629 552.706 830.98 543.143C830.061 543.417 829.139 543.701 828.225 543.969ZM799.738 514.796C808.926 524.103 818.143 533.479 827.529 543.257C828.46 542.984 829.396 542.697 830.329 542.419C821.429 532.588 812.629 523.055 803.894 513.705C802.509 514.066 801.13 514.416 799.738 514.796ZM770.817 485.96C780.125 495.112 789.5 504.423 799.011 514.05C800.409 513.667 801.795 513.319 803.187 512.954C794.188 503.332 785.202 493.747 776.393 484.671C774.536 485.095 772.685 485.499 770.817 485.96ZM741.902 457.853C751.146 466.641 760.606 475.931 770.07 485.228C771.922 484.768 773.769 484.322 775.613 483.888C766.392 474.399 757.321 465.349 748.299 456.436C746.174 456.88 744.03 457.401 741.902 457.853ZM712.446 430.405C721.881 439.047 731.409 447.902 741.076 457.084C743.224 456.625 745.382 456.108 747.525 455.657C738.221 446.475 729.079 437.758 719.983 429.164C717.475 429.552 714.961 429.975 712.446 430.405ZM682.663 403.752C692.198 412.136 701.783 420.635 711.564 429.583C714.087 429.145 716.603 428.733 719.116 428.34C709.797 419.55 700.587 411.064 691.484 402.877C688.546 403.149 685.613 403.391 682.663 403.752ZM652.9 378.124C662.359 386.078 671.954 394.341 681.664 402.87C684.618 402.498 687.553 402.272 690.495 401.996C681.216 393.667 672.008 385.53 662.953 377.819C659.603 377.899 656.261 377.904 652.9 378.124ZM623.626 353.971C632.88 361.384 642.344 369.265 651.852 377.25C655.175 377.021 658.482 376.959 661.795 376.858C652.632 369.071 643.51 361.407 634.577 354.246C630.927 354.096 627.278 353.977 623.626 353.971ZM594.606 331.301C603.728 338.222 613.016 345.513 622.396 353.01C625.998 352.999 629.601 353.046 633.2 353.167C624.047 345.854 615.07 339.027 606.153 332.35C602.3 331.911 598.452 331.587 594.606 331.301ZM565.973 310.315C574.961 316.739 583.979 323.225 593.228 330.223C597 330.485 600.77 330.721 604.548 331.117C595.666 324.492 586.961 318.345 578.309 312.335C574.184 311.546 570.08 310.936 565.973 310.315ZM538.403 291.264C546.917 296.968 555.505 302.835 564.265 309.072C568.246 309.65 572.214 310.134 576.21 310.851C567.799 305.044 559.532 299.616 551.336 294.373C546.999 293.201 542.706 292.255 538.403 291.264ZM512.523 274.46C520.289 279.317 528.178 284.442 536.158 289.757C540.237 290.664 544.291 291.442 548.396 292.484C540.682 287.598 533.069 282.971 525.544 278.574C521.165 277.054 516.854 275.798 512.523 274.46ZM489.945 260.6C496.27 264.296 502.818 268.466 509.291 272.478C513.27 273.665 517.232 274.796 521.238 276.091C514.584 272.266 507.956 268.51 501.45 265.061C497.567 263.427 493.778 262.081 489.945 260.6ZM470.461 249.807C475.077 252.33 479.676 254.818 484.373 257.511C487.213 258.563 490.063 259.64 492.911 260.715C485.336 256.853 477.834 253.169 470.461 249.807ZM1002.5 757.712L1001.93 757.911C1005.71 763.952 1009.46 769.74 1013.25 775.882C1010.97 771.745 1008.67 767.523 1006.39 763.445C1005.09 761.516 1003.78 759.569 1002.5 757.712ZM1006.42 756.336C1005.56 756.631 1004.69 756.943 1003.82 757.248C1004.9 759.165 1005.99 761.205 1007.07 763.135C1012.51 771.034 1018.02 779.215 1023.52 787.358C1019.63 779.315 1015.75 771.322 1011.86 763.511C1010.05 761.117 1008.23 758.723 1006.42 756.336ZM1007.95 755.799C1007.68 755.894 1007.41 755.99 1007.15 756.08L1009.99 759.827C1009.31 758.462 1008.63 757.156 1007.95 755.799ZM1013.35 753.927C1011.79 754.457 1010.23 755.002 1008.66 755.548C1009.96 758.125 1011.25 760.589 1012.54 763.191C1018.73 771.371 1024.84 779.302 1031.08 787.636C1027.37 778.849 1023.65 770.261 1019.92 761.766C1017.72 759.113 1015.56 756.601 1013.35 753.927ZM1016.15 753.001C1015.46 753.225 1014.79 753.445 1014.1 753.679C1015.72 755.637 1017.31 757.507 1018.91 759.415C1017.98 757.315 1017.07 755.083 1016.15 753.001ZM1027.42 749.269C1023.9 750.438 1020.42 751.558 1016.87 752.763C1018.12 755.579 1019.36 758.588 1020.61 761.438C1027.59 769.889 1034.79 778.884 1041.88 787.617C1037.12 774.483 1032.29 761.721 1027.42 749.269ZM1042.29 744.348C1037.6 745.879 1032.88 747.45 1028.16 749.026C1033.27 762.104 1038.32 775.553 1043.31 789.382C1050.25 797.901 1057.16 806.363 1064.16 815.034C1057.12 790.381 1049.89 766.6 1042.29 744.348ZM1060.17 738.567C1054.5 740.365 1048.77 742.233 1043.04 744.101C1050.8 766.869 1058.19 791.244 1065.36 816.522C1072.19 825 1079.18 833.866 1086.11 842.596C1078.3 805.255 1069.67 770.52 1060.17 738.567ZM1081.49 731.987C1074.68 734.061 1067.85 736.144 1060.93 738.333C1070.55 770.739 1079.28 806.003 1087.17 843.939C1093.95 852.469 1100.83 861.264 1107.67 869.945C1100.88 819.02 1092.13 773.056 1081.49 731.987ZM1106.17 724.656C1098.28 726.938 1090.31 729.304 1082.28 731.746C1092.99 773.204 1101.79 819.645 1108.6 871.124C1113.89 877.829 1119.09 884.331 1124.46 891.236C1125.94 893.144 1127.4 895.006 1128.88 896.884C1125.08 831.423 1117.44 774.075 1106.17 724.656ZM1372.39 684.476C1382.2 685.536 1391.43 687.133 1400.14 689.212C1387.95 680.279 1373.31 673.68 1356.68 669.036C1362.41 673.676 1367.66 678.812 1372.39 684.476ZM1338.98 682.593C1349.86 682.631 1360.22 683.164 1370.08 684.159C1365 678.268 1359.36 672.937 1353.18 668.158C1344.34 665.864 1335.03 664.034 1325.12 662.79C1330.29 668.8 1334.93 675.376 1338.98 682.593ZM1304.1 684.015C1315.57 683.171 1326.69 682.661 1337.3 682.642C1333.08 675.278 1328.24 668.589 1322.86 662.48C1313.13 661.323 1303 660.573 1292.3 660.382C1296.78 667.629 1300.75 675.462 1304.1 684.015ZM1268.14 687.827C1280.02 686.246 1291.56 684.992 1302.69 684.142C1299.25 675.502 1295.17 667.603 1290.58 660.304C1280.27 660.158 1269.59 660.385 1258.45 661.089C1262.19 669.362 1265.38 678.327 1268.14 687.827ZM1232.35 693.474C1244.21 691.341 1255.77 689.504 1267 687.989C1264.19 678.442 1260.9 669.495 1257.08 661.213C1246.4 661.923 1235.35 663.021 1223.98 664.443C1227.18 673.568 1229.97 683.244 1232.35 693.474ZM1197.74 700.357C1209.18 697.875 1220.37 695.649 1231.32 693.666C1228.91 683.424 1226.1 673.721 1222.87 664.604C1212.2 665.958 1201.26 667.599 1190.03 669.548C1192.94 679.299 1195.53 689.552 1197.74 700.357ZM1164.98 707.925C1175.78 705.264 1186.36 702.837 1196.79 700.567C1194.55 689.756 1191.95 679.497 1189.02 669.739C1178.68 671.544 1168.17 673.536 1157.39 675.821C1160.21 686.037 1162.76 696.708 1164.98 707.925ZM1134.61 715.688C1144.62 712.986 1154.38 710.547 1164.09 708.152C1161.86 696.927 1159.3 686.252 1156.46 676.033C1146.69 678.111 1136.81 680.323 1126.71 682.774C1129.58 693.296 1132.24 704.223 1134.61 715.688ZM1106.78 723.568C1115.84 720.949 1124.89 718.335 1133.75 715.931C1131.37 704.462 1128.71 693.505 1125.83 682.972C1116.85 685.166 1107.64 687.619 1098.42 690.084C1101.4 700.819 1104.15 712.06 1106.78 723.568ZM1082.06 730.92C1090.09 728.473 1098.07 726.088 1105.96 723.8C1103.32 712.283 1100.56 701.05 1097.57 690.305C1089.36 692.504 1081.05 694.827 1072.67 697.233C1075.94 708.101 1079.06 719.354 1082.06 730.92ZM1060.69 737.508C1067.62 735.312 1074.45 733.24 1081.28 731.161C1078.27 719.589 1075.14 708.335 1071.87 697.467C1064.6 699.55 1057.39 701.568 1049.99 703.812C1053.66 714.717 1057.24 725.903 1060.69 737.508ZM1042.75 743.318C1048.49 741.443 1054.25 739.549 1059.94 737.742C1056.47 726.133 1052.89 714.947 1049.21 704.04C1043.11 705.902 1036.85 707.953 1030.68 709.9C1034.78 720.723 1038.82 731.802 1042.75 743.318ZM1027.85 748.247C1032.59 746.666 1037.31 745.1 1042.01 743.564C1038.07 732.049 1034.03 720.961 1029.93 710.138C1024.8 711.756 1019.7 713.326 1014.51 715.016C1019 725.798 1023.43 736.969 1027.85 748.247ZM1016.53 751.991C1020.1 750.783 1023.58 749.664 1027.12 748.491C1022.7 737.207 1018.26 726.042 1013.76 715.253C1009.68 716.586 1005.56 717.97 1001.46 719.338C1006.5 730.008 1011.53 740.759 1016.53 751.991ZM1013.52 752.989C1014.29 752.726 1015.05 752.482 1015.81 752.23C1010.81 741 1005.77 730.251 1000.73 719.587C997.807 720.567 994.854 721.588 991.924 722.581C993.925 726.423 995.926 730.531 997.93 734.408C1003.15 740.649 1008.26 746.653 1013.52 752.989ZM1008.29 754.817C1009.79 754.288 1011.3 753.748 1012.77 753.244C1008.27 747.808 1003.87 742.656 999.398 737.299C1002.36 743.076 1005.33 748.917 1008.29 754.817ZM1006.63 755.399C1006.95 755.291 1007.26 755.179 1007.58 755.068C1004.14 748.228 1000.7 741.432 997.26 734.751C994.203 731.09 991.178 727.509 988.13 723.869L985.187 724.869C987.113 728.162 989.036 731.409 990.964 734.745C996.13 741.454 1001.41 748.531 1006.63 755.399ZM1003.43 756.524C1004.25 756.234 1005.08 755.938 1005.9 755.654C1001.97 750.472 997.994 745.182 994.079 740.067C997.188 745.461 1000.31 750.982 1003.43 756.524ZM1001.49 757.204L1002.03 757.016C999.799 753.796 997.599 750.684 995.383 747.508C997.419 750.744 999.449 753.947 1001.49 757.204ZM649.627 900.682C768.295 846.651 889.111 796.193 1000.77 757.457C996.329 750.371 991.905 743.375 987.476 736.349C985.135 733.025 982.814 729.776 980.477 726.47C850.551 771.263 707.159 834.205 569.561 900.682H567.829C705.76 833.986 849.605 770.777 979.975 725.763C972.672 715.406 965.364 705.039 958.169 695.129C811.428 745.265 646.301 821.771 492.623 900.682H491.028C644.956 821.586 810.486 744.813 957.653 694.435C953.319 688.473 949.077 682.88 944.78 677.071C941.28 672.69 937.842 668.492 934.385 664.242C772.544 718.794 587.017 809.81 420.69 900.682H419.157C585.659 809.653 771.554 718.365 933.812 663.543C925.568 653.395 917.371 643.388 909.25 633.611C733.714 691.664 528.994 798.425 353.468 900.682H352.031C527.673 798.299 732.734 691.262 908.682 632.918C906.565 630.37 904.387 627.638 902.277 625.114C895.791 617.893 889.257 610.556 882.855 603.54C694.887 664.044 472.274 787.907 291.129 900.682H289.747C470.939 787.811 693.855 663.663 882.223 602.838C873.088 592.842 864.151 583.318 855.168 573.684C655.724 635.612 416.469 778.388 233.354 900.682H232.035C415.137 778.329 654.658 635.26 854.501 572.971C845.403 563.218 836.32 553.5 827.416 544.211C617.04 606.153 362.054 770.119 180.439 900.682H179.191C360.735 770.104 615.952 605.847 826.721 543.501C817.323 533.701 808.106 524.338 798.909 515.014C577.919 575.565 308.449 763.54 132.162 900.682H130.972C307.131 763.57 576.796 575.284 798.181 514.269C788.656 504.619 779.293 495.352 769.972 486.186C538.267 543.635 255.592 759.228 88.5989 900.682H87.481C254.29 759.323 537.126 543.427 769.226 485.455C759.734 476.129 750.272 466.866 741 458.053C497.936 510.103 203.319 758.065 49.8238 900.682H48.7554C201.999 758.234 496.726 509.959 740.175 457.284C730.492 448.086 720.948 439.212 711.502 430.561C455.714 474.907 150.888 761.646 15.8118 900.682H14.7919C149.545 761.908 454.452 474.822 710.619 429.738C700.797 420.753 691.192 412.27 681.619 403.855C410.505 437.799 97.2104 772.923 -13.373 900.682H-14.3447C95.824 773.329 409.144 437.829 680.622 402.974C670.888 394.429 661.293 386.2 651.813 378.232C359.894 398.222 38.7801 799.69 -37.6227 900.682H-38.5387C37.2343 800.463 358.41 398.429 650.765 377.358C641.195 369.327 631.691 361.454 622.377 354.002C312.963 354.759 -1.86581 816.846 -48.6094 888.118V886.775C0.313721 812.354 313.217 355.15 621.148 353.041C611.731 345.524 602.383 338.159 593.229 331.225C280.945 309.446 -4.30894 783.405 -48.6094 860.546V859.068C-2.3472 778.733 281.205 310.052 591.851 330.147C582.488 323.074 573.379 316.559 564.287 310.08C245.954 263.725 -7.2919 748.573 -48.6094 832.509V830.835C-5.2953 743.17 246.403 264.721 562.579 308.837C553.637 302.487 544.89 296.565 536.204 290.775C208.493 217.709 -10.5421 710.96 -48.6094 803.709V801.759C-8.70154 705.018 209.035 219.346 533.962 289.268C525.642 283.752 517.452 278.52 509.363 273.503C168.66 171.732 -14.4188 669.675 -48.6094 773.571V771.183C-12.6718 662.799 169.432 174.371 506.139 271.523C498.836 267.039 491.567 262.621 484.453 258.538C127.739 126.432 -18.8366 621.443 -48.6094 740.721V737.635C-17.3154 613.788 128.611 131.378 478.884 255.452C473.211 252.257 467.518 249.019 461.967 246.076C88.6778 83.7529 -23.7903 559.609 -48.6094 701.29V696.949C-22.6466 551.832 88.8884 95.0872 448.522 239.257C61.8041 45.026 -28.1161 466.343 -48.6094 641.646V635.208C-26.4419 453.923 67.8682 36.3886 461.84 245.033C474.732 250.635 487.889 256.887 501.407 264.045C515.511 269.947 530.002 277.036 544.748 284.934C559.414 290.936 574.38 298.163 589.593 306.439C604.471 312.415 619.543 319.566 634.815 327.996C649.908 333.93 665.11 341.04 680.419 349.613C695.736 355.481 711.069 362.598 726.396 371.291C742.349 377.253 758.215 384.668 773.93 393.809C789.866 399.659 805.576 407.084 821.014 416.2C837.159 421.994 852.958 429.385 868.312 438.621C884.677 444.342 900.554 451.736 915.814 461.076C932.418 466.697 948.349 474.141 963.509 483.558C980.368 489.07 996.33 496.589 1011.38 506.065C1028.5 511.496 1044.52 519.03 1059.43 528.598C1076.97 533.979 1093.15 541.637 1108.02 551.408C1125.98 556.744 1142.32 564.509 1157.11 574.501C1175.32 579.77 1191.7 587.511 1206.28 597.602C1224.74 602.812 1241.18 610.519 1255.53 620.716C1274.21 625.899 1290.77 633.501 1304.84 643.838C1323.78 648.976 1340.43 656.524 1354.23 666.973C1373.47 672.013 1390.14 679.577 1403.68 690.112C1482.26 710.303 1513.42 773.887 1469.61 900.683H1468.51C1511.19 776.589 1481.69 713.34 1406.06 692.223C1448.85 727.651 1459.16 793.884 1424.09 900.683H1423.08C1458.48 792.518 1447.14 726.13 1402.54 691.33C1393.51 689.006 1383.89 687.223 1373.65 686.017C1406.81 727.265 1412.4 796.231 1380.71 900.683H1379.73C1411.48 795.634 1405.38 726.627 1371.35 685.702C1361.32 684.585 1350.83 683.894 1339.71 683.801C1364.82 729.722 1367.14 800.044 1339.72 900.683H1338.78C1366.17 799.8 1363.55 729.506 1337.99 683.783C1327.34 683.751 1316.12 684.253 1304.59 685.067C1323.49 734.357 1323.97 804.791 1301.27 900.683H1300.37C1323.01 804.714 1322.33 734.342 1303.18 685.194C1291.99 686.018 1280.35 687.266 1268.38 688.837C1283.08 740.265 1283.18 809.821 1265.38 900.683H1264.53C1282.28 809.814 1282.08 740.312 1267.24 688.999C1255.99 690.497 1244.42 692.32 1232.55 694.441C1244.61 746.971 1245.28 814.947 1232.29 900.683H1231.46C1244.4 814.977 1243.67 747.064 1231.51 694.632C1220.55 696.602 1209.35 698.814 1197.9 701.285C1208.6 754.072 1210.48 819.998 1202.1 900.683H1201.28C1209.64 820.052 1207.7 754.195 1196.95 701.498C1186.52 703.757 1175.94 706.169 1165.14 708.822C1175.42 761.22 1178.97 824.828 1174.9 900.683H1174.11C1178.15 824.897 1174.57 761.361 1164.24 709.048C1154.54 711.434 1144.79 713.864 1134.79 716.555C1145.4 768.103 1150.87 829.341 1150.8 900.682H1150.02C1150.07 829.42 1144.58 768.251 1133.96 716.784C1125.11 719.18 1116.04 721.816 1106.99 724.425C1118.31 774.184 1125.95 831.968 1129.71 897.954L1131.84 900.682H1130.91L1129.78 899.236L1129.86 900.682H1129.09L1128.95 898.167C1127.25 896.004 1125.56 893.856 1123.86 891.661C1118.76 885.096 1113.81 878.917 1108.79 872.543C1110 881.795 1111.31 890.819 1112.39 900.406L1112.58 900.683H1111.65L1111.65 900.629C1105.59 892.066 1099.52 883.448 1093.5 874.979C1095.05 883.249 1096.41 892.119 1097.86 900.683H1096.61C1091.41 892.384 1086.15 883.856 1081.03 875.875C1083.06 884.132 1085.14 892.228 1087.12 900.683H1085.66C1081.5 893.354 1077.38 886.271 1073.23 879.006C1075.38 886.003 1077.46 893.437 1079.56 900.683H1078.2C1075.05 894.262 1071.9 887.845 1068.76 881.575C1071.1 887.919 1073.44 894.24 1075.78 900.683H1074.77C1067.08 882.586 1059.39 865.031 1051.69 847.946C1041.8 828.78 1031.94 810.017 1022.13 791.984C1015.11 780.439 1008.16 769.257 1001.21 758.164C890.025 796.683 769.69 846.884 651.419 900.683H649.627V900.682Z" fill="white"/>
</mask>
<g mask="url(#mask0_48_3735)">
<path d="M1513.42 36.3887H-48.6094V900.682H1513.42V36.3887Z" fill="#B3B3B3"/>
</g>
</g>
</g>
<defs>
<clipPath id="clip0_48_3735">
<rect width="1440" height="843" fill="white"/>
</clipPath>
</defs>
</svg>
