<svg width="1440" height="361" viewBox="0 0 1440 361" fill="none" xmlns="http://www.w3.org/2000/svg">
<g clip-path="url(#clip0_48_4021)">
<rect width="1440" height="361" fill="#151515"/>
<g clip-path="url(#clip1_48_4021)">
<mask id="mask0_48_4021" style="mask-type:luminance" maskUnits="userSpaceOnUse" x="-99" y="-577" width="1605" height="1069">
<path d="M1505 -576L1505 491L-98.0001 491L-98.0001 -576L1505 -576Z" fill="white" stroke="white" stroke-width="2"/>
</mask>
<g mask="url(#mask0_48_4021)">
<g opacity="0.52">
<path d="M-136.896 623.562C-104.636 658.646 -39.7234 686.77 -2.10216 666.766C26.2742 651.642 38.9987 617.233 65.0168 606.195C108.859 587.637 168.865 615.737 220.083 657.349C267.11 694.956 313.762 740.226 354.632 778.468C383.629 804.471 425.806 837.89 430.854 801.606C441.248 739.775 388.185 606.453 363.358 524.878C343.504 453.296 323.503 368.267 350.737 316.25C369.714 280.146 417.918 281.602 464.694 293.463C568.077 319.19 689.308 362.957 789.533 417.499C921.888 488.968 1015.63 600.634 1101.26 668.719C1175.86 725.142 1254.82 761.478 1375.87 663.326C1459.76 594.628 1540.1 479.311 1608.83 368.475C1677.74 256.395 1735.03 148.795 1777.15 66.8523" fill="black"/>
<path d="M-136.896 623.562C-104.636 658.646 -39.7234 686.77 -2.10216 666.766C26.2742 651.642 38.9987 617.233 65.0168 606.195C108.859 587.637 168.865 615.737 220.083 657.349C267.11 694.956 313.762 740.226 354.632 778.468C383.629 804.471 425.806 837.89 430.854 801.606C441.248 739.775 388.185 606.453 363.358 524.878C343.504 453.296 323.503 368.267 350.737 316.25C369.714 280.146 417.918 281.602 464.694 293.463C568.077 319.19 689.308 362.957 789.533 417.499C921.888 488.968 1015.63 600.634 1101.26 668.718C1175.86 725.142 1254.82 761.478 1375.87 663.326C1459.76 594.628 1540.1 479.311 1608.83 368.475C1677.74 256.395 1735.03 148.795 1777.15 66.8523" stroke="#1FA169" stroke-width="2" stroke-miterlimit="10"/>
<g opacity="0.9783">
<path d="M-149.51 610.61C-117.656 645.128 -53.2098 672.229 -15.4195 651.888C13.2522 636.413 26.5031 601.902 52.8807 590.72C96.3869 572.207 157.771 598.637 209.405 640.647C256.142 678.077 301.429 721.908 342.617 758.22C372.5 783.64 412.985 812.548 417.787 776.502C427.633 714.384 376.346 586.232 352.26 505.213C335.286 443.168 321.128 376.907 334.057 325.392C336.172 317.047 339.153 309.845 342.742 303.807C363.104 269.376 411.074 271.423 457.476 283.355C560.679 309.398 680.919 352.064 781.855 403.604C915.553 471.411 1012.59 578.893 1099.61 647.488C1176.44 705.197 1256.22 745.206 1377.25 651.721C1461.32 586.049 1542.72 469.947 1612.77 357.524C1682.97 243.855 1741.82 133.866 1784.39 51.6597" fill="black"/>
<path d="M-149.51 610.61C-117.656 645.128 -53.2098 672.229 -15.4195 651.888C13.2522 636.413 26.5031 601.902 52.8807 590.72C96.3869 572.207 157.771 598.637 209.405 640.647C256.142 678.077 301.429 721.908 342.617 758.22C372.5 783.64 412.985 812.548 417.787 776.502C427.633 714.384 376.346 586.232 352.26 505.213C335.286 443.168 321.128 376.907 334.057 325.392C336.172 317.047 339.153 309.845 342.742 303.807C363.104 269.376 411.074 271.423 457.476 283.355C560.679 309.398 680.919 352.064 781.855 403.604C915.553 471.411 1012.59 578.893 1099.61 647.488C1176.44 705.197 1256.22 745.206 1377.25 651.721C1461.32 586.049 1542.72 469.947 1612.77 357.524C1682.97 243.855 1741.82 133.866 1784.39 51.6597" stroke="#1FA169" stroke-width="2" stroke-miterlimit="10"/>
</g>
<g opacity="0.9565">
<path d="M-162.133 597.634C-127.259 628.781 -69.321 658.976 -28.952 636.796C-0.0128174 621.109 13.8159 586.423 40.5509 575.102C84.7697 556.3 146.556 582.166 198.524 623.645C245.659 660.759 289.461 702.24 330.418 737.785C360.109 762.761 399.874 787.23 404.454 751.579C413.799 689.288 364.448 566.172 341.169 485.759C325.107 425.765 311.899 361.514 325.766 312.188C328.032 304.196 331.144 297.316 334.861 291.563C356.122 258.505 404.344 261.38 450.395 273.381C553.599 299.751 671.339 341.996 774.186 390.152C909.958 453.285 1010.05 557.84 1097.66 626.211C1176.87 685.188 1257.57 728.642 1378.55 640.016C1462.58 577.655 1545.08 460.753 1616.55 346.637C1688.14 231.284 1748.71 118.718 1791.63 36.4585" fill="black"/>
<path d="M-162.133 597.634C-127.259 628.781 -69.321 658.976 -28.952 636.796C-0.0128226 621.11 13.8159 586.423 40.5509 575.102C84.7697 556.3 146.556 582.166 198.524 623.645C245.659 660.759 289.461 702.24 330.418 737.785C360.109 762.761 399.874 787.23 404.454 751.579C413.799 689.288 364.448 566.172 341.17 485.759C325.107 425.765 311.899 361.514 325.766 312.188C328.032 304.196 331.144 297.316 334.861 291.563C356.122 258.505 404.344 261.38 450.395 273.381C553.599 299.751 671.339 341.996 774.186 390.152C909.958 453.285 1010.05 557.84 1097.66 626.211C1176.87 685.188 1257.57 728.642 1378.55 640.016C1462.58 577.655 1545.08 460.753 1616.55 346.637C1688.14 231.284 1748.71 118.718 1791.63 36.4585" stroke="#1FA169" stroke-width="2" stroke-miterlimit="10"/>
</g>
<g opacity="0.9348">
<path d="M-174.74 584.663C-143.843 617.903 -80.4903 642.197 -42.668 621.533C-13.4634 605.504 0.958069 570.839 28.0398 559.388C72.9755 540.295 135.264 565.519 187.436 606.389C234.103 642.481 277.104 682.955 318.05 717.187C348.04 741.594 386.507 762.008 390.881 726.831C399.779 664.485 352.479 546.241 330.101 466.534C314.984 408.577 302.767 346.34 317.582 299.208C320.002 291.567 323.03 284.315 327.096 279.53C351.501 250.789 393.22 250.628 443.452 263.55C546.301 289.737 663.068 331.838 766.541 377.155C902.927 436.523 1006.34 536.363 1095.38 604.942C1177.13 665.161 1258.84 711.829 1379.74 628.231C1463.52 569.44 1547.12 451.765 1620.11 335.872C1693.18 218.764 1755.63 103.436 1798.82 21.2722" fill="black"/>
<path d="M-174.74 584.663C-143.843 617.903 -80.4903 642.197 -42.668 621.533C-13.4634 605.504 0.958063 570.839 28.0398 559.388C72.9755 540.295 135.264 565.519 187.436 606.389C234.103 642.481 277.104 682.955 318.05 717.187C348.04 741.594 386.507 762.008 390.881 726.831C399.779 664.485 352.479 546.241 330.101 466.534C314.984 408.577 302.767 346.34 317.582 299.208C320.002 291.567 323.03 284.315 327.096 279.53C351.501 250.789 393.22 250.628 443.452 263.55C546.301 289.737 663.068 331.838 766.541 377.155C902.927 436.523 1006.34 536.363 1095.38 604.942C1177.13 665.161 1258.84 711.829 1379.74 628.231C1463.52 569.44 1547.12 451.765 1620.11 335.873C1693.18 218.764 1755.63 103.436 1798.82 21.2722" stroke="#1FA169" stroke-width="2" stroke-miterlimit="10"/>
</g>
<g opacity="0.913">
<path d="M-187.312 571.717C-156.73 604.123 -89.8612 627.639 -56.5392 606.137C-30.2365 588.8 -10.7475 555.691 15.3648 543.613C58.4366 523.208 123.829 548.591 176.139 588.905C222.35 623.908 264.626 663.478 305.532 696.431C335.761 720.231 372.905 736.848 377.093 702.242C385.608 639.96 340.298 526.261 319.065 447.542C305.037 391.736 293.8 331.421 309.51 286.457C312.076 279.16 315.277 272.243 319.45 267.715C344.704 240.308 386.441 241.253 436.654 253.869C539.975 279.562 656.577 321.732 758.944 364.622C894.41 421.147 1001.44 514.504 1092.77 583.739C1177.18 645.192 1260.1 694.791 1380.81 616.397C1464.06 561.464 1548.81 443.018 1623.45 325.221C1698.11 206.25 1762.67 87.9243 1805.99 6.12231" fill="black"/>
<path d="M-187.312 571.717C-156.73 604.123 -89.8612 627.639 -56.5392 606.137C-30.2365 588.8 -10.7475 555.691 15.3648 543.613C58.4366 523.208 123.829 548.591 176.139 588.905C222.35 623.908 264.626 663.478 305.532 696.431C335.761 720.231 372.905 736.848 377.093 702.242C385.608 639.96 340.298 526.261 319.065 447.542C305.037 391.736 293.8 331.421 309.51 286.457C312.076 279.16 315.277 272.243 319.45 267.715C344.704 240.308 386.441 241.253 436.654 253.869C539.975 279.562 656.577 321.732 758.944 364.622C894.41 421.147 1001.44 514.504 1092.77 583.739C1177.18 645.192 1260.1 694.791 1380.81 616.397C1464.06 561.464 1548.81 443.018 1623.45 325.221C1698.11 206.25 1762.67 87.9243 1805.99 6.12231" stroke="#1FA169" stroke-width="2" stroke-miterlimit="10"/>
</g>
<g opacity="0.8913">
<path d="M-199.824 558.823C-169.665 590.598 -103.837 612.26 -70.5383 590.652C-43.9766 573.039 -23.8648 539.996 2.54489 527.82C46.2993 507.152 112.098 531.72 164.633 571.234C210.384 605.077 252.08 643.864 292.885 675.545C323.294 698.695 359.12 711.818 363.124 677.818C371.275 615.598 328.161 506.763 308.083 428.805C295.113 374.925 284.896 316.723 301.556 273.95C304.281 266.995 307.647 260.405 311.927 256.127C338.035 230.039 380.18 231.681 429.999 244.338C533.712 270.416 648.219 312.228 751.417 352.551C886.926 405.343 996.971 493.403 1089.84 562.65C1177.07 625.309 1261.38 677.568 1381.76 604.529C1464.21 553.654 1550.14 434.43 1626.54 314.621C1702.91 193.698 1769.76 72.193 1813.1 -8.98254" fill="black"/>
<path d="M-199.824 558.823C-169.665 590.598 -103.837 612.26 -70.5383 590.652C-43.9766 573.039 -23.8648 539.996 2.5449 527.82C46.2993 507.152 112.098 531.72 164.633 571.234C210.384 605.077 252.08 643.864 292.885 675.545C323.295 698.695 359.12 711.818 363.124 677.818C371.275 615.598 328.161 506.763 308.083 428.805C295.113 374.925 284.896 316.722 301.556 273.95C304.281 266.995 307.647 260.405 311.927 256.127C338.035 230.039 380.18 231.681 429.999 244.338C533.712 270.416 648.219 312.228 751.417 352.551C886.926 405.343 996.971 493.403 1089.84 562.65C1177.07 625.309 1261.38 677.568 1381.76 604.529C1464.21 553.654 1550.14 434.43 1626.54 314.621C1702.91 193.698 1769.76 72.193 1813.1 -8.98254" stroke="#1FA169" stroke-width="2" stroke-miterlimit="10"/>
</g>
<g opacity="0.8696">
<path d="M-212.252 546.002C-182.523 577.12 -117.835 596.781 -84.633 575.108C-57.7889 557.265 -37.369 526.343 -10.4028 512.039C32.9536 488.472 104.331 517.429 152.918 553.403C197.171 585.17 240.174 624.962 280.136 654.531C316.202 681.204 341.689 680.386 349.006 653.534C363.479 602.327 316.238 487.209 297.171 410.316C285.215 358.416 276.124 302.263 293.732 261.675C296.619 255.056 300.148 248.794 304.537 244.762C331.644 219.865 374.125 222.464 423.949 235.322C528.287 262.007 640.114 303.148 743.988 340.935C879.227 390.058 992.174 472.681 1086.6 541.721C1176.87 605.5 1262.47 660.241 1382.58 592.64C1464.02 545.984 1551.19 425.91 1629.49 303.969C1707.67 180.989 1776.99 56.1452 1820.17 -24.032" fill="black"/>
<path d="M-212.252 546.002C-182.523 577.12 -117.835 596.781 -84.633 575.108C-57.7889 557.265 -37.369 526.343 -10.4028 512.039C32.9536 488.472 104.331 517.429 152.918 553.403C197.171 585.17 240.174 624.962 280.136 654.531C316.202 681.204 341.689 680.386 349.006 653.534C363.479 602.327 316.238 487.209 297.171 410.316C285.215 358.416 276.124 302.263 293.732 261.675C296.619 255.056 300.148 248.794 304.537 244.762C331.644 219.865 374.125 222.464 423.949 235.322C528.287 262.007 640.114 303.148 743.988 340.935C879.227 390.058 992.174 472.681 1086.6 541.721C1176.87 605.5 1262.47 660.241 1382.58 592.64C1464.02 545.985 1551.19 425.91 1629.49 303.969C1707.67 180.989 1776.99 56.1452 1820.17 -24.032" stroke="#1FA169" stroke-width="2" stroke-miterlimit="10"/>
</g>
<g opacity="0.8478">
<path d="M-224.572 533.279C-195.282 563.711 -131.823 581.234 -98.7895 559.554C-71.7206 541.456 -50.7122 510.671 -23.4508 496.321C20.5712 472.574 92.1306 500.372 141 535.468C184.889 566.045 227.415 605.043 267.313 633.433C303.173 658.98 327.672 655.831 334.772 629.418C349.003 578.033 304.13 467.83 286.348 392.115C275.424 342.169 267.501 288.082 286.047 249.673C289.098 243.385 292.792 237.443 297.292 233.648C325.525 209.844 369.083 213.855 418.476 226.959C522.519 254.295 631.254 295.067 736.686 329.792C871.867 374.297 988.102 453.061 1083.06 521.036C1176.57 585.884 1263.38 642.89 1383.27 580.781C1463.51 538.433 1551.99 417.437 1632.3 293.256C1712.42 168.129 1784.36 39.8195 1827.17 -38.9915" fill="black"/>
<path d="M-224.572 533.278C-195.282 563.711 -131.823 581.234 -98.7895 559.554C-71.7206 541.456 -50.7122 510.671 -23.4508 496.321C20.5712 472.574 92.1306 500.373 141 535.468C184.889 566.045 227.415 605.043 267.313 633.433C303.173 658.98 327.672 655.831 334.772 629.418C349.003 578.033 304.13 467.83 286.348 392.115C275.424 342.169 267.501 288.082 286.047 249.673C289.098 243.385 292.792 237.443 297.292 233.648C325.525 209.844 369.083 213.855 418.476 226.959C522.519 254.295 631.254 295.067 736.686 329.792C871.867 374.297 988.102 453.061 1083.06 521.036C1176.57 585.884 1263.38 642.89 1383.27 580.781C1463.51 538.433 1551.99 417.437 1632.3 293.256C1712.42 168.129 1784.36 39.8195 1827.17 -38.9915" stroke="#1FA169" stroke-width="2" stroke-miterlimit="10"/>
</g>
<g opacity="0.8261">
<path d="M-236.764 520.675C-207.923 550.389 -145.771 565.654 -112.982 544.024C-85.7096 525.684 -64.1213 495.083 -36.5902 480.701C8.06516 456.794 79.7166 483.33 128.872 517.461C172.291 546.707 214.768 585.151 254.426 612.269C290.012 636.651 313.542 631.372 320.443 605.466C334.469 554.051 292.02 448.612 275.616 374.209C265.732 326.185 259.025 274.185 278.491 237.942C281.707 231.979 285.912 226.982 290.179 222.79C315.251 197.912 370.774 207.586 413.272 219.024C517.304 246.209 623.987 286.801 729.517 319.111C863.731 360.248 982.666 433.156 1079.22 500.644C1176.09 566.458 1264.2 625.529 1383.82 568.962C1462.68 530.959 1552.61 408.87 1635.07 282.303C1717.25 154.902 1791.96 23.0233 1834.09 -53.8591" fill="black"/>
<path d="M-236.764 520.675C-207.923 550.389 -145.771 565.654 -112.982 544.024C-85.7096 525.684 -64.1213 495.083 -36.5902 480.701C8.06516 456.794 79.7166 483.33 128.872 517.461C172.291 546.707 214.768 585.151 254.426 612.269C290.012 636.651 313.542 631.372 320.443 605.466C334.469 554.051 292.02 448.612 275.616 374.209C265.732 326.185 259.025 274.185 278.491 237.942C281.707 231.979 285.912 226.982 290.179 222.79C315.251 197.912 370.774 207.586 413.272 219.024C517.304 246.209 623.987 286.801 729.517 319.111C863.731 360.248 982.666 433.156 1079.22 500.644C1176.09 566.458 1264.2 625.529 1383.82 568.962C1462.68 530.959 1552.61 408.87 1635.07 282.303C1717.25 154.902 1791.96 23.0233 1834.09 -53.8591" stroke="#1FA169" stroke-width="2" stroke-miterlimit="10"/>
</g>
<g opacity="0.8043">
<path d="M-248.8 508.219C-221.466 536.058 -159.519 550.945 -127.175 528.564C-99.5926 509.16 -77.5527 479.642 -49.7905 465.221C-4.53807 441.171 67.1027 466.355 116.552 499.432C159.574 527.354 202.068 565.214 241.517 591.073C276.767 614.24 299.368 607.033 306.066 581.685C319.862 530.401 279.75 429.297 265.006 356.615C256.409 311.281 250.469 260.014 271.087 226.486C274.539 220.895 278.866 216.147 283.221 212.187C308.172 189.184 367.681 200.533 408.343 211.494C512.349 238.525 616.98 278.852 722.525 308.88C855.519 346.83 976.954 413.747 1075.1 480.609C1175.48 547.289 1264.89 608.215 1384.23 557.213C1461.56 523.544 1553.06 400.198 1637.8 271.11C1722.18 141.315 1799.8 5.77818 1840.95 -68.6221" fill="black"/>
<path d="M-248.8 508.219C-221.466 536.058 -159.519 550.945 -127.175 528.564C-99.5926 509.16 -77.5527 479.642 -49.7905 465.222C-4.53807 441.171 67.1027 466.355 116.552 499.432C159.574 527.354 202.068 565.214 241.517 591.073C276.767 614.24 299.368 607.033 306.066 581.685C319.862 530.401 279.75 429.297 265.006 356.615C256.409 311.281 250.469 260.014 271.087 226.486C274.539 220.895 278.866 216.147 283.221 212.187C308.172 189.184 367.681 200.533 408.343 211.494C512.349 238.525 616.98 278.852 722.525 308.88C855.519 346.83 976.954 413.747 1075.1 480.609C1175.48 547.289 1264.89 608.215 1384.23 557.213C1461.56 523.544 1553.06 400.199 1637.8 271.11C1722.18 141.315 1799.8 5.77818 1840.95 -68.6221" stroke="#1FA169" stroke-width="2" stroke-miterlimit="10"/>
</g>
<g opacity="0.7826">
<path d="M-260.657 495.93C-233.777 523.119 -175.513 535.256 -141.339 513.207C-111.998 493.973 -90.3154 462.13 -63.0346 449.92C-15.0858 428.142 50.2677 448.242 104.031 481.425C146.373 507.158 188.691 544.435 228.596 569.885C263.857 592.482 285.105 582.857 291.655 558.101C305.319 507.079 267.713 410.463 254.514 339.362C246.957 295.871 242.373 246.724 263.825 215.332C267.441 210.058 271.589 205.215 276.406 201.865C304.812 181.89 360.887 192.994 403.657 204.36C507.605 231.224 610.909 270.696 715.716 299.11C847.127 334.893 969.931 394.311 1070.71 461.01C1174.62 528.842 1270.42 586.448 1384.48 545.576C1441.33 525.509 1520.98 425.254 1579.19 344.842C1684 198.737 1772.64 49.015 1847.71 -83.2545" fill="black"/>
<path d="M-260.657 495.93C-233.777 523.119 -175.513 535.256 -141.339 513.207C-111.998 493.973 -90.3154 462.13 -63.0346 449.92C-15.0858 428.142 50.2677 448.242 104.031 481.425C146.373 507.158 188.691 544.435 228.596 569.885C263.857 592.482 285.105 582.857 291.655 558.101C305.319 507.079 267.713 410.463 254.514 339.362C246.957 295.871 242.373 246.724 263.825 215.332C267.441 210.058 271.589 205.215 276.406 201.865C304.812 181.89 360.887 192.994 403.657 204.36C507.605 231.224 610.909 270.696 715.716 299.11C847.127 334.893 969.931 394.311 1070.71 461.01C1174.62 528.842 1270.42 586.448 1384.48 545.576C1441.33 525.509 1520.98 425.254 1579.19 344.842C1684 198.737 1772.64 49.015 1847.71 -83.2545" stroke="#1FA169" stroke-width="2" stroke-miterlimit="10"/>
</g>
<g opacity="0.7609">
<path d="M-272.318 483.835C-245.857 510.222 -189.017 519.813 -155.447 497.997C-126.013 478.548 -103.772 447.13 -76.3029 434.843C-27.8961 412.868 37.3867 431.672 91.319 463.492C133.147 487.754 176.343 524.966 215.687 548.747C247.633 567.961 272.444 562.075 277.246 534.73C287.598 477.135 255.733 391.843 244.156 322.469C237.646 280.776 234.47 233.777 256.711 204.484C260.495 199.519 264.931 195.35 270.48 192.806C304.176 177.22 355.299 186.118 399.205 197.591C503.016 224.213 606.122 265.815 709.126 289.841C837.229 319.925 964.229 377.016 1066.09 441.909C1173.99 509.465 1268.12 578.578 1384.57 534.071C1528.79 475.572 1766.45 49.419 1854.37 -97.7566" fill="black"/>
<path d="M-272.318 483.835C-245.857 510.222 -189.017 519.813 -155.447 497.997C-126.013 478.548 -103.772 447.13 -76.3029 434.843C-27.8961 412.868 37.3867 431.672 91.319 463.492C133.147 487.754 176.343 524.966 215.687 548.747C247.633 567.961 272.444 562.075 277.246 534.73C287.598 477.134 255.733 391.843 244.156 322.469C237.646 280.776 234.47 233.777 256.711 204.484C260.495 199.519 264.931 195.35 270.48 192.806C304.176 177.22 355.299 186.118 399.205 197.591C503.016 224.213 606.122 265.815 709.126 289.841C837.229 319.925 964.229 377.016 1066.09 441.909C1173.99 509.465 1268.12 578.578 1384.57 534.071C1528.79 475.572 1766.45 49.419 1854.37 -97.7566" stroke="#1FA169" stroke-width="2" stroke-miterlimit="10"/>
</g>
<g opacity="0.7391">
<path d="M-283.752 471.956C-256.015 499.177 -202.09 502.624 -169.459 482.973C-140.336 464.991 -117.221 432.354 -89.5662 420.026C-40.7614 397.877 24.3567 415.312 78.4302 445.682C119.79 468.476 164.043 505.63 202.822 527.702C234.276 545.499 257.826 538.112 262.877 511.601C273.731 455.528 243.936 372.355 233.948 305.966C228.335 266.133 226.769 221.197 249.759 193.963C253.709 189.296 259.626 187.232 265.342 184.938C300.198 170.827 350.893 179.743 394.977 191.173C498.386 217.506 598.596 261.564 702.985 282.722C831.997 309.071 959.325 361.097 1061.24 423.389C1120.91 459.96 1176.13 494.262 1231.52 514.021C1277.25 530.223 1326.83 546.883 1385.03 520.339C1546.94 441.755 1766.26 45.2371 1860.93 -112.1" fill="black"/>
<path d="M-283.752 471.956C-256.015 499.177 -202.09 502.624 -169.459 482.973C-140.336 464.991 -117.221 432.354 -89.5662 420.026C-40.7614 397.877 24.3567 415.312 78.4302 445.682C119.79 468.476 164.043 505.63 202.822 527.702C234.276 545.499 257.826 538.112 262.877 511.601C273.731 455.528 243.936 372.355 233.948 305.966C228.335 266.133 226.769 221.197 249.759 193.963C253.709 189.296 259.626 187.232 265.342 184.938C300.198 170.827 350.893 179.743 394.977 191.173C498.386 217.506 598.596 261.564 702.985 282.722C831.997 309.071 959.325 361.097 1061.24 423.389C1120.91 459.96 1176.13 494.262 1231.52 514.021C1277.25 530.223 1326.83 546.882 1385.03 520.339C1546.94 441.755 1766.26 45.2371 1860.93 -112.1" stroke="#1FA169" stroke-width="2" stroke-miterlimit="10"/>
</g>
<g opacity="0.7174">
<path d="M-294.942 460.317C-267.762 486.497 -215.2 487.559 -183.352 468.174C-153.925 449.869 -132.339 417.73 -102.809 405.514C-51.2049 384.031 11.129 399.35 65.3587 428.046C106.699 449.676 150.467 486.118 190.005 506.803C225.79 525.701 241.406 511.911 248.553 488.742C263.18 441.665 231.846 354.073 223.884 289.876C219.546 252.57 217.29 206.162 244.169 185.563C248.669 182.127 254.522 179.572 260.403 177.509C296.348 164.783 346.655 173.692 390.945 185.082C493.804 211.084 593.836 255.569 697.138 276.002C826.022 301.626 950.795 343.914 1056.19 405.526C1117.29 441.353 1173.86 476.66 1229.78 497.597C1277.14 515.069 1324.99 532.776 1385.81 505.542C1550.51 426.759 1768.88 35.909 1867.38 -126.284" fill="black"/>
<path d="M-294.942 460.317C-267.762 486.497 -215.2 487.559 -183.352 468.174C-153.925 449.869 -132.339 417.73 -102.809 405.514C-51.2049 384.031 11.129 399.35 65.3587 428.046C106.699 449.676 150.467 486.118 190.005 506.803C225.79 525.701 241.406 511.911 248.553 488.742C263.18 441.665 231.846 354.073 223.884 289.876C219.546 252.57 217.29 206.162 244.169 185.563C248.669 182.127 254.522 179.572 260.403 177.509C296.348 164.783 346.655 173.692 390.945 185.082C493.804 211.084 593.836 255.569 697.138 276.002C826.022 301.626 950.795 343.914 1056.19 405.526C1117.29 441.353 1173.86 476.66 1229.78 497.597C1277.14 515.069 1324.99 532.776 1385.81 505.542C1550.51 426.759 1768.88 35.909 1867.38 -126.284" stroke="#1FA169" stroke-width="2" stroke-miterlimit="10"/>
</g>
<g opacity="0.6957">
<path d="M-305.86 448.945C-280.78 475.009 -226.685 471.516 -197.088 453.646C-167.764 435.364 -145.579 403.626 -116.002 391.352C-64.1902 369.709 -2.15585 383.567 52.1252 410.649C93.8895 431.242 138.029 466.513 177.264 486.118C211.748 503.49 227.271 488.763 234.314 466.205C248.864 419.791 220.141 336.411 213.98 274.24C210.781 239.648 209.526 195.126 238.894 177.793C243.97 174.815 249.615 172.348 255.65 170.498C292.625 159.075 342.311 168.185 387.097 179.305C490.16 204.507 589.152 249.782 691.585 269.661C819.959 294.673 942.731 328.045 1050.98 388.403C1113.45 423.36 1171.38 459.564 1227.82 481.579C1276.62 500.248 1323.55 517.981 1386.8 490.185C1553.95 411.545 1771.38 26.6472 1873.7 -140.288" fill="black"/>
<path d="M-305.86 448.945C-280.78 475.009 -226.685 471.516 -197.088 453.646C-167.764 435.364 -145.579 403.626 -116.002 391.352C-64.1902 369.709 -2.15584 383.567 52.1253 410.649C93.8895 431.242 138.029 466.513 177.264 486.118C211.748 503.49 227.271 488.763 234.314 466.205C248.864 419.791 220.141 336.411 213.98 274.24C210.781 239.648 209.527 195.126 238.894 177.793C243.97 174.815 249.615 172.348 255.65 170.498C292.625 159.075 342.311 168.185 387.097 179.305C490.16 204.507 589.152 249.782 691.585 269.661C819.959 294.673 942.731 328.045 1050.98 388.403C1113.45 423.36 1171.38 459.564 1227.82 481.579C1276.62 500.248 1323.55 517.981 1386.8 490.185C1553.95 411.545 1771.38 26.6472 1873.7 -140.288" stroke="#1FA169" stroke-width="2" stroke-miterlimit="10"/>
</g>
<g opacity="0.6739">
<path d="M-316.488 437.86C-291.942 462.729 -239.288 456.909 -210.637 439.42C-181.39 420.971 -158.702 389.898 -129.118 377.574C-77.1849 355.799 -15.5358 368.148 38.741 393.537C81.0402 413.08 125.726 447.218 164.618 465.698C197.683 481.511 213.219 465.978 220.185 444.025C234.675 398.405 208.55 319.089 204.246 259.084C201.978 223.944 203.012 187.066 233.815 170.468C239.032 167.683 244.889 165.528 251.074 163.877C289.01 153.666 338.42 162.722 383.429 173.821C485.896 198.726 584.805 244.114 686.324 263.677C813.307 288.227 935.05 313.627 1045.65 372.293C1158.09 430.59 1261.55 530.978 1387.96 474.376C1557.65 395.719 1773.79 17.4218 1879.9 -154.104" fill="black"/>
<path d="M-316.488 437.86C-291.942 462.729 -239.288 456.909 -210.637 439.42C-181.39 420.971 -158.702 389.898 -129.118 377.574C-77.1849 355.799 -15.5358 368.148 38.741 393.537C81.0402 413.08 125.726 447.218 164.618 465.698C197.683 481.511 213.219 465.978 220.185 444.025C234.675 398.405 208.55 319.089 204.246 259.084C201.978 223.944 203.012 187.066 233.815 170.468C239.032 167.683 244.889 165.528 251.074 163.877C289.01 153.666 338.42 162.722 383.429 173.821C485.896 198.726 584.805 244.114 686.324 263.677C813.308 288.227 935.05 313.627 1045.65 372.293C1158.09 430.59 1261.55 530.978 1387.96 474.376C1557.65 395.719 1773.79 17.4218 1879.9 -154.104" stroke="#1FA169" stroke-width="2" stroke-miterlimit="10"/>
</g>
<g opacity="0.6522">
<path d="M-326.799 427.086C-302.788 450.69 -251.589 442.582 -223.965 425.54C-194.836 406.95 -171.681 376.589 -142.134 364.229C-90.1662 342.344 -28.9922 353.152 25.2204 376.775C67.9584 395.164 112.993 427.774 151.878 445.37C183.976 459.973 199.294 443.544 206.181 422.261C220.62 377.57 197.06 302.171 194.678 244.449C193.487 209.743 197.407 178.712 228.899 163.563C234.258 161.01 240.314 159.09 246.642 157.621C285.479 148.537 334.664 157.531 379.91 168.613C481.798 193.215 580.91 238.869 681.338 258.028C805.062 281.781 929.368 301.393 1040.25 357.06C1156.46 414.091 1259.35 515.358 1389.24 458.222C1561.36 379.584 1776.07 8.2775 1885.97 -167.71" fill="black"/>
<path d="M-326.799 427.086C-302.788 450.69 -251.589 442.582 -223.965 425.54C-194.836 406.95 -171.681 376.589 -142.134 364.229C-90.1662 342.344 -28.9922 353.152 25.2204 376.775C67.9584 395.164 112.993 427.774 151.878 445.37C183.976 459.973 199.294 443.544 206.181 422.261C220.62 377.57 197.06 302.171 194.678 244.449C193.486 209.743 197.407 178.712 228.899 163.563C234.258 161.01 240.314 159.09 246.642 157.621C285.479 148.537 334.664 157.531 379.91 168.613C481.798 193.215 580.91 238.869 681.338 258.028C805.062 281.781 929.368 301.393 1040.25 357.06C1156.46 414.091 1259.35 515.358 1389.24 458.222C1561.36 379.584 1776.07 8.2775 1885.97 -167.71" stroke="#1FA169" stroke-width="2" stroke-miterlimit="10"/>
</g>
<g opacity="0.6304">
<path d="M-336.771 416.65C-313.29 438.909 -263.568 428.581 -237.04 412.05C-208.045 393.385 -185.036 365.306 -155.022 351.356C-105.24 327.906 -39.6015 338.519 11.5766 360.421C55.2069 378.656 99.0598 407.639 138.746 424.933C170.934 439.091 185.526 421.48 192.323 400.968C206.683 357.3 188.077 287.708 185.285 230.373C183.761 196.462 193.84 169.771 224.132 157.046C229.675 154.728 235.876 153.003 242.344 151.705C282.023 143.662 331.295 152.383 376.539 163.659C476.947 188.301 577.581 233.683 676.622 252.692C797.074 276.004 924.086 291.588 1034.8 342.96C1154.77 397.387 1257.52 499.44 1390.61 441.808C1565.04 363.2 1778.23 -0.779022 1891.89 -181.109" fill="black"/>
<path d="M-336.771 416.65C-313.29 438.909 -263.568 428.581 -237.04 412.05C-208.045 393.385 -185.036 365.306 -155.022 351.356C-105.24 327.906 -39.6015 338.519 11.5766 360.421C55.2069 378.656 99.0598 407.639 138.746 424.933C170.934 439.091 185.526 421.48 192.323 400.968C206.683 357.3 188.077 287.708 185.285 230.373C183.761 196.462 193.84 169.771 224.132 157.046C229.675 154.728 235.876 153.003 242.344 151.705C282.023 143.662 331.295 152.383 376.539 163.659C476.947 188.301 577.581 233.683 676.622 252.692C797.074 276.004 924.086 291.588 1034.8 342.96C1154.77 397.387 1257.52 499.44 1390.61 441.808C1565.04 363.2 1778.23 -0.779029 1891.89 -181.109" stroke="#1FA169" stroke-width="2" stroke-miterlimit="10"/>
</g>
<g opacity="0.6087">
<path d="M-346.382 406.574C-320.629 425.239 -277.472 416.629 -249.829 398.984C-221.031 380.24 -197.641 352.876 -167.754 338.996C-117.992 315.594 -53.3366 324.428 -2.16925 344.54C41.5745 361.366 84.7319 387.512 125.43 404.785C154.537 417.149 174.184 402.518 178.622 380.221C188.209 331.336 174.043 269.56 176.061 216.899C177.405 185.896 187.991 162.111 219.488 150.895C225.276 148.851 231.551 147.252 238.151 146.11C278.633 139.038 327.765 147.701 373.285 158.949C473.225 183.277 573.936 228.663 672.16 247.648C790.709 270.723 916.948 283.913 1029.4 330.444C1155.12 380.918 1254.97 483.403 1392.03 425.23C1568.66 346.635 1780.23 -9.73294 1897.67 -194.279" fill="black"/>
<path d="M-346.382 406.574C-320.629 425.239 -277.472 416.629 -249.829 398.984C-221.031 380.24 -197.641 352.876 -167.754 338.996C-117.992 315.594 -53.3366 324.428 -2.16924 344.54C41.5745 361.366 84.7319 387.512 125.43 404.785C154.537 417.149 174.184 402.518 178.622 380.221C188.209 331.336 174.043 269.56 176.061 216.899C177.405 185.896 187.991 162.111 219.488 150.895C225.276 148.851 231.551 147.252 238.151 146.11C278.633 139.038 327.765 147.701 373.285 158.949C473.225 183.277 573.936 228.663 672.16 247.648C790.709 270.723 916.948 283.913 1029.4 330.444C1155.12 380.918 1254.97 483.403 1392.03 425.23C1568.66 346.635 1780.23 -9.73294 1897.67 -194.279" stroke="#1FA169" stroke-width="2" stroke-miterlimit="10"/>
</g>
<g opacity="0.587">
<path d="M-355.607 396.883C-330.843 414.465 -288.685 403.737 -262.297 386.383C-233.602 367.128 -210.006 340.989 -180.299 327.19C-130.642 303.869 -67.0798 310.931 -15.998 329.189C27.8335 344.527 70.9438 368.242 111.918 384.989C141.35 397.041 160.443 381.863 165.089 360.085C174.986 312.962 161.802 252.495 167.006 204.065C170.135 176.034 184.364 154.572 214.944 145.075C220.896 143.235 227.316 141.798 234.048 140.801C275.292 134.627 324.335 143.235 370.142 154.457C469.654 178.484 570.456 223.79 667.94 242.87C784.841 265.885 910.466 276.992 1024.18 318.987C1154.59 365.428 1253.28 467.129 1393.48 408.571C1572.07 330.087 1782.09 -18.5607 1903.29 -207.211" fill="black"/>
<path d="M-355.607 396.883C-330.843 414.465 -288.685 403.737 -262.297 386.383C-233.602 367.128 -210.006 340.989 -180.299 327.19C-130.642 303.869 -67.0798 310.931 -15.998 329.189C27.8335 344.527 70.9438 368.242 111.918 384.989C141.35 397.041 160.443 381.863 165.089 360.085C174.986 312.962 161.802 252.495 167.006 204.065C170.135 176.034 184.364 154.572 214.944 145.075C220.896 143.235 227.316 141.798 234.048 140.801C275.292 134.627 324.335 143.235 370.142 154.457C469.654 178.484 570.456 223.79 667.94 242.87C784.841 265.885 910.466 276.992 1024.18 318.987C1154.59 365.428 1253.28 467.129 1393.48 408.571C1572.07 330.087 1782.09 -18.5607 1903.29 -207.211" stroke="#1FA169" stroke-width="2" stroke-miterlimit="10"/>
</g>
<g opacity="0.5652">
<path d="M-364.429 387.599C-340.112 403.455 -298.305 390.997 -274.414 374.29C-247.399 354.875 -220.413 329.875 -192.63 315.985C-145.8 292.067 -80.7482 297.951 -29.8846 314.443C13.9961 328.242 57.2433 350.114 98.2094 365.629C127.962 376.924 146.727 362.591 151.733 340.653C161.958 295.315 151.799 238.929 158.123 191.925C161.63 166.051 182.797 146.991 210.487 139.568C216.596 137.915 223.16 136.63 230.021 135.766C271.988 130.421 320.988 138.973 367.092 150.17C466.219 173.906 567.122 219.063 663.955 238.339C779.453 261.444 904.296 270.869 1019.17 308.536C1153.39 350.77 1252.37 450.826 1394.92 391.905C1575.54 313.291 1783.78 -27.3694 1908.75 -219.903" fill="black"/>
<path d="M-364.429 387.599C-340.112 403.455 -298.305 390.997 -274.414 374.29C-247.399 354.875 -220.413 329.876 -192.63 315.985C-145.8 292.067 -80.7482 297.951 -29.8846 314.443C13.9961 328.242 57.2433 350.114 98.2094 365.629C127.962 376.924 146.727 362.591 151.733 340.653C161.958 295.315 151.799 238.929 158.123 191.925C161.63 166.051 182.797 146.991 210.487 139.568C216.596 137.915 223.16 136.63 230.021 135.766C271.988 130.421 320.988 138.973 367.092 150.17C466.219 173.906 567.122 219.063 663.955 238.339C779.453 261.444 904.296 270.869 1019.17 308.536C1153.39 350.77 1252.37 450.826 1394.92 391.905C1575.54 313.291 1783.78 -27.3694 1908.75 -219.903" stroke="#1FA169" stroke-width="2" stroke-miterlimit="10"/>
</g>
<g opacity="0.5435">
<path d="M-372.817 378.748C-348.956 392.825 -308.964 378.754 -286.139 362.739C-259.288 343.334 -231.768 317.717 -204.71 305.415C-156.5 283.139 -97.027 286.23 -43.7988 300.358C-0.692749 311.604 43.2393 332.612 84.3038 346.783C114.7 357.282 133.686 344.794 138.559 322.012C147.894 278.256 138.959 226.465 150.389 182.546C156.955 157.606 178.385 140.851 206.091 134.345C212.357 132.863 219.062 131.719 226.049 130.977C268.71 126.4 317.711 134.896 364.124 146.072C462.93 169.538 563.901 214.46 660.193 234.037C774.509 257.372 898.57 265.443 1014.36 299.048C1151.52 337.115 1252.04 434.586 1396.33 375.312C1578.83 296.518 1785.34 -35.962 1914.04 -232.333" fill="black"/>
<path d="M-372.817 378.748C-348.956 392.825 -308.964 378.754 -286.139 362.739C-259.288 343.334 -231.768 317.717 -204.71 305.415C-156.5 283.139 -97.027 286.23 -43.7988 300.358C-0.692745 311.604 43.2393 332.612 84.3038 346.783C114.7 357.282 133.686 344.794 138.559 322.012C147.894 278.256 138.959 226.465 150.389 182.546C156.955 157.606 178.385 140.851 206.091 134.345C212.357 132.863 219.062 131.719 226.049 130.977C268.71 126.4 317.711 134.896 364.124 146.072C462.93 169.538 563.901 214.46 660.193 234.037C774.509 257.372 898.57 265.443 1014.36 299.048C1151.52 337.115 1252.04 434.586 1396.33 375.312C1578.83 296.518 1785.34 -35.962 1914.04 -232.333" stroke="#1FA169" stroke-width="2" stroke-miterlimit="10"/>
</g>
<g opacity="0.5217">
<path d="M-380.757 370.354C-357.343 382.547 -319.189 367.077 -297.444 351.775C-270.782 332.462 -243.392 307.784 -216.512 295.524C-168.696 273.39 -110.299 274.925 -57.7174 287.009C-14.6627 296.724 29.1324 315.745 70.199 328.541C100.587 338.008 120.331 327.541 125.563 304.264C134.812 263.078 128.478 213.722 142.826 173.863C151.457 150.076 173.94 135.078 201.734 129.382C208.152 128.057 214.996 127.043 222.107 126.417C265.435 122.545 314.482 130.994 361.213 142.151C459.752 165.363 560.785 209.981 656.632 229.947C769.97 253.634 893.243 260.656 1009.76 290.47C1149.2 324.524 1252.15 418.485 1397.69 358.862C1581.95 279.801 1786.73 -44.4242 1919.15 -244.49" fill="black"/>
<path d="M-380.757 370.354C-357.343 382.547 -319.189 367.077 -297.444 351.775C-270.782 332.462 -243.392 307.784 -216.512 295.524C-168.696 273.389 -110.299 274.925 -57.7174 287.009C-14.6627 296.724 29.1324 315.745 70.199 328.541C100.587 338.008 120.331 327.541 125.563 304.264C134.812 263.078 128.478 213.722 142.826 173.863C151.457 150.076 173.94 135.078 201.734 129.382C208.152 128.057 214.996 127.043 222.107 126.417C265.435 122.545 314.482 130.994 361.213 142.151C459.752 165.363 560.785 209.981 656.632 229.947C769.97 253.634 893.243 260.656 1009.76 290.47C1149.2 324.524 1252.15 418.485 1397.69 358.862C1581.95 279.801 1786.73 -44.4242 1919.15 -244.49" stroke="#1FA169" stroke-width="2" stroke-miterlimit="10"/>
</g>
<g opacity="0.5">
<path d="M-388.219 362.442C-365.252 372.646 -328.964 356.015 -308.29 341.436C-281.852 322.262 -254.659 298.552 -227.997 286.357C-180.664 264.41 -123.434 264.419 -71.6015 274.461C-28.5682 282.487 19.218 303.867 55.9083 310.999C89.0761 317.473 103.416 311.914 112.74 287.526C125.341 254.977 118.859 202.096 135.356 165.737C145.628 143.141 169.452 129.637 197.403 124.657C203.973 123.475 210.953 122.586 218.189 122.064C262.164 118.844 311.296 127.249 358.354 138.388C456.683 161.363 557.772 205.613 653.27 226.048C765.813 250.194 888.304 256.454 1005.38 282.754C1148.85 313.573 1254.95 398.713 1398.98 342.62C1578.64 270.033 1787.55 -51.9435 1924.09 -256.366" fill="black"/>
<path d="M-388.219 362.442C-365.252 372.646 -328.964 356.015 -308.29 341.436C-281.852 322.262 -254.659 298.552 -227.997 286.357C-180.664 264.41 -123.434 264.419 -71.6015 274.461C-28.5682 282.487 19.218 303.867 55.9083 310.999C89.0761 317.473 103.416 311.914 112.74 287.526C125.341 254.977 118.859 202.096 135.356 165.737C145.628 143.141 169.452 129.637 197.403 124.657C203.973 123.475 210.953 122.586 218.189 122.064C262.164 118.844 311.296 127.249 358.354 138.388C456.683 161.363 557.772 205.613 653.27 226.048C765.813 250.194 888.304 256.454 1005.38 282.754C1148.85 313.573 1254.95 398.713 1398.98 342.62C1578.64 270.033 1787.55 -51.9435 1924.09 -256.366" stroke="#1FA169" stroke-width="2" stroke-miterlimit="10"/>
</g>
<g opacity="0.4783">
<path d="M-395.188 355.016C-372.686 363.181 -338.692 345.633 -318.641 331.757C-291.921 312.786 -265.59 290.128 -239.131 277.946C-192.353 256.164 -136.27 254.71 -85.4128 262.779C-42.3025 269.312 5.11777 287.481 41.4529 294.248C74.0193 300.303 90.1271 295.353 100.089 271.904C112.997 241.762 109.456 191.173 127.941 158.104C139.936 136.645 164.905 124.491 193.078 120.138C199.798 119.086 206.916 118.312 214.275 117.886C258.879 115.267 308.135 123.631 355.534 134.757C453.713 157.514 554.849 201.333 650.09 222.306C762.004 247.005 883.714 252.773 1001.21 275.833C1145.49 302.956 1255.55 383.308 1400.18 326.63C1581.62 253.292 1788.63 -60.1833 1928.84 -267.965" fill="black"/>
<path d="M-395.188 355.016C-372.686 363.181 -338.692 345.633 -318.641 331.757C-291.921 312.786 -265.59 290.128 -239.131 277.946C-192.353 256.164 -136.27 254.71 -85.4128 262.779C-42.3025 269.312 5.11778 287.481 41.4528 294.248C74.0194 300.303 90.1271 295.353 100.089 271.904C112.997 241.762 109.456 191.173 127.941 158.104C139.936 136.645 164.905 124.491 193.078 120.138C199.798 119.086 206.916 118.312 214.275 117.886C258.879 115.267 308.135 123.631 355.534 134.757C453.713 157.514 554.849 201.333 650.09 222.306C762.004 247.005 883.714 252.773 1001.21 275.833C1145.49 302.956 1255.55 383.308 1400.18 326.63C1581.62 253.292 1788.63 -60.1833 1928.84 -267.965" stroke="#1FA169" stroke-width="2" stroke-miterlimit="10"/>
</g>
<g opacity="0.4565">
<path d="M-401.874 347.847C-388.623 354.933 -353.872 340.612 -328.461 322.782C-302.336 304.192 -277.938 283.545 -250.906 269.945C-203.494 245.978 -147.366 245.944 -99.1111 252.037C-56.1399 257.175 -9.57562 272.62 26.8493 278.397C59.2939 283.53 76.921 279.474 87.5932 257.538C101.054 230.009 100.243 180.996 120.541 150.927C134.262 130.565 160.27 119.61 188.742 115.81C195.612 114.88 202.866 114.213 210.35 113.878C255.568 111.817 304.985 120.146 352.739 131.26C450.826 153.818 552.005 197.146 647.083 218.721C758.517 244.052 879.445 249.585 997.262 269.676C1141.96 293.39 1256.2 368.308 1401.29 310.965C1584.41 236.751 1789.57 -68.2822 1933.4 -279.256" fill="black"/>
<path d="M-401.874 347.847C-388.623 354.933 -353.872 340.612 -328.461 322.782C-302.336 304.192 -277.938 283.545 -250.906 269.945C-203.494 245.978 -147.366 245.944 -99.1111 252.037C-56.1399 257.175 -9.57563 272.62 26.8493 278.397C59.2939 283.53 76.921 279.474 87.5932 257.538C101.054 230.009 100.243 180.996 120.541 150.927C134.262 130.565 160.27 119.61 188.742 115.81C195.612 114.88 202.866 114.213 210.35 113.878C255.568 111.817 304.985 120.146 352.739 131.26C450.826 153.818 552.005 197.146 647.083 218.721C758.517 244.052 879.445 249.585 997.262 269.676C1141.96 293.39 1256.2 368.308 1401.29 310.965C1584.41 236.751 1789.57 -68.2822 1933.4 -279.256" stroke="#1FA169" stroke-width="2" stroke-miterlimit="10"/>
</g>
<g opacity="0.4348">
<path d="M-408.388 340.848C-395.71 346.836 -362.579 332.112 -337.77 314.495C-312.383 296.238 -288.899 275.944 -262.647 262.321C-216.552 238.294 -161.975 236.554 -114.983 241.302C-71.7571 245.386 -25.0238 258.68 12.1244 263.546C36.071 266.377 67.5055 267.484 75.0897 244.46C85.9245 211.544 92.0812 171.721 113.117 144.145C127.836 124.809 155.522 114.936 184.375 111.641C191.396 110.822 198.786 110.254 206.394 110.004C252.222 108.458 301.829 116.76 349.949 127.864C448.01 150.239 549.309 193.123 644.227 215.257C755.227 241.183 875.642 246.898 993.509 264.211C1138.1 284.689 1256.38 352.836 1402.28 295.653C1586.81 221.757 1791.91 -78.7946 1937.76 -290.254" fill="black"/>
<path d="M-408.388 340.848C-395.71 346.836 -362.579 332.112 -337.77 314.495C-312.383 296.238 -288.899 275.944 -262.647 262.321C-216.552 238.294 -161.975 236.554 -114.983 241.302C-71.7571 245.386 -25.0238 258.68 12.1244 263.546C36.071 266.377 67.5055 267.484 75.0897 244.46C85.9245 211.544 92.0812 171.721 113.117 144.145C127.836 124.809 155.522 114.936 184.375 111.641C191.396 110.822 198.786 110.254 206.394 110.004C252.222 108.458 301.829 116.76 349.949 127.864C448.01 150.239 549.309 193.123 644.227 215.257C755.227 241.183 875.642 246.898 993.509 264.211C1138.1 284.689 1256.38 352.836 1402.28 295.653C1586.81 221.757 1791.91 -78.7946 1937.76 -290.254" stroke="#1FA169" stroke-width="2" stroke-miterlimit="10"/>
</g>
<g opacity="0.413">
<path d="M-414.742 334.008C-402.591 338.93 -370.836 323.987 -346.868 306.558C-322.38 288.541 -299.597 268.701 -274.198 255.09C-230.163 231.365 -177.121 227.587 -131.402 231.034C-87.2259 234.089 -40.6809 245.92 -2.68521 249.814C21.255 251.982 53.1517 252.959 62.2488 232.389C75.4804 202.372 82.8142 163.156 105.633 137.716C122.064 119.364 150.654 110.465 179.957 107.613C187.131 106.897 194.657 106.425 202.391 106.251C248.82 105.187 298.655 113.465 347.151 124.565C445.249 146.777 546.569 189.077 641.506 211.905C752.27 238.574 871.89 244.516 989.947 259.398C1134.46 277.071 1256.88 338.851 1403.14 280.753C1589.13 205.658 1792.45 -86.4937 1941.92 -300.935" fill="black"/>
<path d="M-414.742 334.008C-402.591 338.93 -370.836 323.987 -346.868 306.558C-322.38 288.541 -299.597 268.701 -274.198 255.09C-230.163 231.365 -177.121 227.587 -131.402 231.034C-87.2259 234.089 -40.6809 245.92 -2.68521 249.814C21.255 251.982 53.1517 252.959 62.2488 232.389C75.4804 202.372 82.8142 163.156 105.633 137.716C122.064 119.364 150.654 110.465 179.957 107.613C187.131 106.897 194.657 106.425 202.391 106.251C248.82 105.187 298.655 113.465 347.151 124.565C445.249 146.777 546.569 189.077 641.506 211.905C752.27 238.574 871.89 244.516 989.947 259.398C1134.46 277.071 1256.88 338.851 1403.14 280.753C1589.13 205.658 1792.44 -86.4937 1941.92 -300.935" stroke="#1FA169" stroke-width="2" stroke-miterlimit="10"/>
</g>
<g opacity="0.3913">
<path d="M-420.941 327.323C-409.278 331.214 -378.873 316.126 -355.746 298.922C-332.17 281.148 -309.494 260.307 -285.552 248.236C-242.279 226.341 -194.328 220.038 -147.751 221.428C-104.204 222.576 -57.3104 232.849 -19.1264 236.471C4.98499 238.478 36.9138 239.985 48.0567 220.645C64.3914 192.257 73.435 155.216 98.0664 131.593C116.207 114.188 145.658 106.157 175.485 103.705C182.813 103.087 190.476 102.7 198.338 102.602C245.371 101.986 295.456 110.247 344.344 121.348C442.536 143.418 543.882 185.092 638.919 208.647C749.559 236.101 868.379 242.487 986.579 255.187C1130.78 270.336 1257.23 325.435 1403.87 266.302C1591.22 189.875 1792.81 -94.0471 1945.87 -311.294" fill="black"/>
<path d="M-420.941 327.323C-409.278 331.214 -378.873 316.126 -355.746 298.922C-332.17 281.148 -309.494 260.307 -285.552 248.236C-242.279 226.341 -194.328 220.038 -147.751 221.428C-104.204 222.576 -57.3104 232.849 -19.1264 236.471C4.98497 238.478 36.9138 239.985 48.0567 220.645C64.3914 192.257 73.435 155.216 98.0664 131.593C116.207 114.188 145.658 106.157 175.485 103.705C182.813 103.087 190.476 102.7 198.338 102.602C245.371 101.986 295.456 110.247 344.344 121.348C442.536 143.418 543.882 185.092 638.919 208.647C749.559 236.101 868.379 242.487 986.579 255.187C1130.78 270.337 1257.23 325.435 1403.87 266.302C1591.22 189.875 1792.81 -94.0471 1945.87 -311.294" stroke="#1FA169" stroke-width="2" stroke-miterlimit="10"/>
</g>
<g opacity="0.3696">
<path d="M-426.995 320.783C-415.777 323.68 -386.707 308.513 -364.424 291.56C-341.744 274.091 -319.841 253.808 -296.727 241.728C-255.136 219.92 -209.004 212.566 -164.028 212.452C-121.38 212.211 -75.6777 220.32 -37.8126 223.04C-13.2539 224.553 18.5764 225.956 32.3623 208.965C53.0882 183.388 63.9059 147.746 90.3734 125.735C110.224 109.242 140.507 101.98 170.929 99.8994C178.413 99.3713 186.258 98.98 194.206 99.0399C241.738 99.3734 291.944 107.04 341.5 118.203C439.84 140.145 541.22 181.163 636.437 205.47C747.045 233.732 865.068 240.768 983.383 251.528C1058.19 258.21 1124.13 267.846 1195.45 277.394C1263.59 286.192 1329.78 282.564 1404.46 252.343C1593.03 174.449 1793 -101.438 1949.6 -321.312" fill="black"/>
<path d="M-426.995 320.783C-415.777 323.68 -386.707 308.513 -364.424 291.56C-341.744 274.091 -319.841 253.808 -296.727 241.728C-255.136 219.92 -209.004 212.566 -164.028 212.452C-121.38 212.211 -75.6777 220.32 -37.8126 223.04C-13.2539 224.553 18.5764 225.956 32.3623 208.965C53.0882 183.388 63.9059 147.746 90.3734 125.735C110.224 109.242 140.507 101.98 170.929 99.8994C178.413 99.3713 186.258 98.98 194.206 99.0399C241.738 99.3734 291.944 107.04 341.5 118.203C439.84 140.145 541.22 181.163 636.437 205.47C747.045 233.732 865.068 240.768 983.383 251.528C1058.19 258.21 1124.13 267.846 1195.45 277.394C1263.59 286.192 1329.78 282.564 1404.46 252.343C1593.03 174.449 1793 -101.438 1949.6 -321.312" stroke="#1FA169" stroke-width="2" stroke-miterlimit="10"/>
</g>
<g opacity="0.3478">
<path d="M-432.912 314.379C-422.105 316.325 -394.827 301.164 -372.911 284.46C-350.92 267.546 -331.104 248.016 -307.726 235.545C-267.298 213.981 -223.552 205.594 -180.214 204.073C-138.617 202.515 -94.2057 208.61 -56.8499 210.404C-31.9296 211.379 -0.454468 212.476 15.4843 197.521C40.1949 174.304 54.2225 140.618 82.5262 120.091C104.089 104.479 135.192 97.9025 166.279 96.1643C173.921 95.7217 181.906 95.416 189.991 95.5357C238.119 96.2177 288.685 103.942 338.618 115.103C437.158 136.936 538.588 177.269 634.053 202.344C744.711 231.429 861.942 239.31 980.353 248.36C1054.11 253.925 1122.58 260.316 1194.17 267.938C1262.98 275.029 1330.03 269.674 1404.89 238.887C1594.59 159.4 1793.01 -108.684 1953.11 -331.008" fill="black"/>
<path d="M-432.912 314.379C-422.105 316.325 -394.827 301.164 -372.911 284.46C-350.92 267.546 -331.104 248.016 -307.726 235.545C-267.298 213.981 -223.552 205.594 -180.214 204.073C-138.617 202.515 -94.2057 208.61 -56.8499 210.404C-31.9296 211.379 -0.454456 212.476 15.4843 197.521C40.1948 174.304 54.2225 140.618 82.5262 120.091C104.089 104.479 135.192 97.9025 166.279 96.1643C173.921 95.7218 181.906 95.416 189.991 95.5357C238.119 96.2178 288.685 103.942 338.618 115.103C437.158 136.936 538.588 177.269 634.053 202.344C744.711 231.429 861.942 239.31 980.353 248.36C1054.11 253.925 1122.58 260.316 1194.17 267.938C1262.98 275.029 1330.03 269.674 1404.89 238.887C1594.59 159.4 1793.01 -108.684 1953.11 -331.008" stroke="#1FA169" stroke-width="2" stroke-miterlimit="10"/>
</g>
<g opacity="0.3261">
<path d="M-438.699 308.107C-428.269 309.118 -402.255 294.004 -381.217 277.608C-360.099 261.028 -341.363 243.028 -318.555 229.667C-279.841 207.013 -236.846 198.955 -196.297 196.261C-155.988 193.486 -113.194 198.057 -76.1832 198.547C-50.7493 198.711 -20.1687 199.597 -2.46017 186.367C26.2843 164.901 44.0506 133.981 74.4985 114.617C97.7731 99.8546 129.704 93.8981 161.524 92.4848C169.328 92.1235 177.456 91.9034 185.676 92.0787C234.412 93.0921 285.355 100.879 335.681 112.041C434.472 133.778 535.97 173.412 631.75 199.257C742.525 229.163 858.98 238.072 977.474 245.636C1050.31 250.256 1121.16 253.491 1193.01 259.155C1262.38 264.474 1330.21 257.355 1405.16 225.975C1595.87 144.772 1792.85 -115.754 1956.4 -340.353" fill="black"/>
<path d="M-438.699 308.106C-428.269 309.118 -402.255 294.004 -381.217 277.608C-360.099 261.028 -341.363 243.028 -318.555 229.667C-279.841 207.013 -236.846 198.955 -196.297 196.261C-155.988 193.486 -113.194 198.057 -76.1832 198.547C-50.7493 198.711 -20.1687 199.597 -2.46018 186.367C26.2843 164.901 44.0506 133.981 74.4985 114.617C97.7732 99.8546 129.704 93.8981 161.524 92.4848C169.328 92.1235 177.456 91.9034 185.676 92.0787C234.412 93.0921 285.355 100.879 335.681 112.041C434.472 133.778 535.97 173.412 631.75 199.257C742.525 229.163 858.98 238.072 977.474 245.636C1050.31 250.256 1121.16 253.491 1193.01 259.155C1262.38 264.474 1330.21 257.355 1405.16 225.975C1595.87 144.772 1792.85 -115.754 1956.4 -340.353" stroke="#1FA169" stroke-width="2" stroke-miterlimit="10"/>
</g>
<g opacity="0.3043">
<path d="M-444.366 301.953C-434.278 302.056 -409.514 287.045 -389.358 270.978C-369.117 254.735 -351.064 237.283 -329.224 224.068C-292.833 202.044 -251.477 192.423 -212.27 188.977C-172.563 185.417 -132.926 186.071 -95.7624 187.444C-71.7451 188.109 -38.511 186.007 -21.3589 175.557C11.2184 155.515 33.438 127.646 66.2656 109.275C91.2544 95.3348 124.035 89.9384 156.651 88.8373C164.62 88.5551 172.893 88.414 181.252 88.6449C230.607 89.979 281.941 97.8277 332.683 109.003C431.771 130.663 533.361 169.583 629.516 196.191C740.464 226.905 856.159 237.009 974.732 243.304C1046.89 247.139 1119.81 247.349 1191.96 251.041C1261.78 254.534 1330.27 245.611 1405.27 213.622C1596.93 130.571 1792.51 -122.784 1959.46 -349.352" fill="black"/>
<path d="M-444.366 301.953C-434.278 302.056 -409.514 287.045 -389.358 270.978C-369.117 254.735 -351.064 237.283 -329.224 224.068C-292.833 202.044 -251.477 192.423 -212.27 188.977C-172.563 185.417 -132.926 186.071 -95.7624 187.444C-71.7452 188.109 -38.511 186.007 -21.3589 175.557C11.2183 155.515 33.438 127.646 66.2656 109.275C91.2544 95.3348 124.035 89.9384 156.651 88.8373C164.62 88.5551 172.893 88.414 181.252 88.6449C230.607 89.979 281.941 97.8277 332.683 109.003C431.771 130.663 533.361 169.583 629.516 196.191C740.464 226.905 856.159 237.009 974.732 243.304C1046.89 247.139 1119.81 247.349 1191.96 251.041C1261.78 254.534 1330.27 245.611 1405.27 213.622C1596.93 130.571 1792.51 -122.784 1959.46 -349.352" stroke="#1FA169" stroke-width="2" stroke-miterlimit="10"/>
</g>
<g opacity="0.2826">
<path d="M-449.919 295.913C-440.143 295.137 -416.621 280.276 -397.339 264.56C-377.976 248.679 -360.606 231.773 -339.737 218.732C-305.075 197.067 -265.68 186.724 -228.123 182.197C-189.828 177.522 -151.601 176.863 -115.542 177.081C-91.5331 177.034 -59.3732 174.616 -41.1062 165.143C-4.81604 146.153 22.4026 121.5 57.7982 104.028C84.5097 90.8856 118.172 86.0067 151.641 85.2113C159.782 85.0061 168.203 84.944 176.705 85.2263C226.691 86.8704 278.432 94.7895 329.606 105.98C429.039 127.576 530.742 165.778 627.327 193.135C738.5 224.632 853.455 236.088 972.109 241.317C1043.93 244.501 1118.18 242.414 1191.01 243.594C1261.52 244.672 1330.01 234.565 1405.21 201.854C1597.64 116.856 1791.96 -129.478 1962.28 -357.988" fill="black"/>
<path d="M-449.919 295.913C-440.143 295.137 -416.621 280.276 -397.339 264.56C-377.976 248.679 -360.606 231.773 -339.737 218.732C-305.075 197.067 -265.68 186.724 -228.123 182.197C-189.828 177.522 -151.601 176.863 -115.542 177.081C-91.5331 177.034 -59.3732 174.616 -41.1062 165.143C-4.81605 146.153 22.4026 121.5 57.7982 104.028C84.5097 90.8856 118.172 86.0066 151.641 85.2113C159.782 85.0061 168.203 84.944 176.705 85.2263C226.691 86.8704 278.432 94.7895 329.606 105.98C429.039 127.576 530.742 165.778 627.327 193.135C738.5 224.632 853.455 236.088 972.109 241.317C1043.93 244.501 1118.18 242.414 1191.01 243.594C1261.52 244.672 1330.01 234.565 1405.21 201.854C1597.64 116.856 1791.96 -129.478 1962.28 -357.988" stroke="#1FA169" stroke-width="2" stroke-miterlimit="10"/>
</g>
<g opacity="0.2609">
<path d="M-455.37 289.978C-445.881 288.347 -423.589 273.678 -405.179 258.334C-386.693 242.816 -369.622 225.408 -350.104 213.632C-315.956 193.078 -281.236 182.157 -243.848 175.88C-207.877 169.867 -170.782 167.967 -135.47 167.417C-111.286 166.879 -80.6903 163.841 -61.5951 155.15C-21.575 136.795 10.8717 115.483 49.0729 98.8239C77.8088 86.3444 112.297 82.4597 146.486 81.5724C154.695 81.3479 163.375 81.4569 172.022 81.7926C222.655 83.7425 274.817 91.7364 326.443 102.948C426.263 124.493 528.108 161.985 625.174 190.065C736.608 222.304 850.854 235.256 969.592 239.618C1041.43 242.269 1116.33 238.634 1190.15 236.793C1261.45 234.929 1329.5 224.192 1404.97 190.67C1598.04 103.626 1791.21 -135.99 1964.86 -366.268" fill="black"/>
<path d="M-455.37 289.978C-445.881 288.347 -423.589 273.678 -405.179 258.334C-386.693 242.816 -369.622 225.408 -350.104 213.632C-315.956 193.078 -281.236 182.157 -243.848 175.88C-207.877 169.867 -170.782 167.967 -135.47 167.417C-111.286 166.879 -80.6903 163.841 -61.5951 155.15C-21.575 136.795 10.8717 115.483 49.0729 98.8239C77.8088 86.3444 112.297 82.4597 146.486 81.5724C154.695 81.3479 163.375 81.4569 172.022 81.7926C222.655 83.7425 274.817 91.7364 326.443 102.948C426.263 124.493 528.108 161.985 625.174 190.065C736.608 222.304 850.854 235.256 969.592 239.618C1041.43 242.269 1116.33 238.634 1190.15 236.793C1261.45 234.929 1329.5 224.192 1404.97 190.67C1598.04 103.626 1791.21 -135.99 1964.86 -366.268" stroke="#1FA169" stroke-width="2" stroke-miterlimit="10"/>
</g>
<g opacity="0.2391">
<path d="M-460.722 284.141C-451.494 281.676 -430.421 267.241 -412.882 252.287C-395.268 237.17 -378.927 220.386 -360.332 208.753C-327.988 188.562 -294.974 177.137 -259.438 169.994C-225.046 163.099 -189.423 160.069 -155.506 158.427C-131.617 157.136 -102.362 153.687 -82.7228 145.616C-39.5569 127.683 0.0952148 109.689 40.0725 93.6392C69.7565 81.6942 106.015 78.4381 141.177 77.9143C149.578 77.7753 158.4 77.9485 167.201 78.3376C218.497 80.591 271.094 88.6662 323.188 99.9057C423.436 121.414 525.45 158.203 623.047 186.974C734.774 219.905 848.421 234.484 967.17 238.162C1039.09 240.404 1114.86 234.32 1189.34 230.702C1260.06 227.262 1329.91 213.994 1404.55 180.094C1597.86 91.2489 1790.25 -142.261 1967.2 -374.172" fill="black"/>
<path d="M-460.722 284.141C-451.494 281.676 -430.421 267.241 -412.882 252.287C-395.268 237.17 -378.927 220.386 -360.332 208.753C-327.988 188.562 -294.974 177.137 -259.438 169.994C-225.046 163.099 -189.423 160.069 -155.506 158.427C-131.618 157.136 -102.362 153.687 -82.7228 145.616C-39.5568 127.683 0.0952059 109.689 40.0725 93.6392C69.7565 81.6942 106.015 78.4381 141.177 77.9143C149.578 77.7753 158.4 77.9485 167.201 78.3376C218.497 80.591 271.094 88.6662 323.188 99.9057C423.436 121.414 525.45 158.203 623.047 186.974C734.774 219.905 848.421 234.484 967.17 238.162C1039.09 240.404 1114.86 234.32 1189.34 230.702C1260.06 227.262 1329.91 213.994 1404.55 180.093C1597.86 91.2489 1790.25 -142.261 1967.2 -374.172" stroke="#1FA169" stroke-width="2" stroke-miterlimit="10"/>
</g>
<g opacity="0.2174">
<path d="M-465.986 278.39C-456.998 275.113 -437.137 260.944 -420.469 246.397C-403.714 231.707 -388.437 216.611 -370.433 204.069C-340.644 183.316 -306.638 171.897 -274.891 164.501C-242.132 156.807 -207.74 153.078 -175.608 150.068C-149.662 147.538 -122.595 143.555 -104.395 136.558C-58.4062 118.6 -10.727 103.684 30.7719 88.4247C61.4938 76.9971 99.5023 74.3652 135.698 74.2113C144.297 74.1579 153.266 74.3973 162.221 74.8399C214.198 77.3969 267.242 85.562 319.824 96.8335C420.539 118.32 522.747 154.425 620.918 183.839C732.957 217.41 846.407 233.751 964.816 236.896C1102.94 241.223 1253.87 241.065 1403.95 170.116C1597.66 79.0454 1789.11 -148.363 1969.29 -381.709" fill="black"/>
<path d="M-465.986 278.39C-456.998 275.113 -437.137 260.944 -420.469 246.397C-403.714 231.707 -388.437 216.611 -370.433 204.069C-340.644 183.316 -306.638 171.897 -274.891 164.501C-242.132 156.807 -207.74 153.078 -175.608 150.068C-149.662 147.538 -122.595 143.555 -104.395 136.558C-58.4062 118.6 -10.727 103.684 30.7719 88.4248C61.4937 76.9971 99.5023 74.3652 135.698 74.2113C144.297 74.1579 153.265 74.3973 162.221 74.8399C214.198 77.3969 267.242 85.562 319.824 96.8335C420.539 118.32 522.747 154.425 620.918 183.839C732.957 217.41 846.407 233.751 964.816 236.896C1102.94 241.223 1253.87 241.065 1403.95 170.116C1597.66 79.0454 1789.11 -148.363 1969.29 -381.709" stroke="#1FA169" stroke-width="2" stroke-miterlimit="10"/>
</g>
<g opacity="0.1957">
<path d="M-471.169 272.722C-462.401 268.65 -443.745 254.78 -427.941 240.655C-412.054 226.39 -397.444 211.83 -380.409 199.567C-353.702 180.252 -319.569 166.611 -290.198 159.374C-258.575 151.447 -226.424 146.213 -195.732 142.304C-170.829 139.057 -144.819 134.663 -126.513 127.986C-77.8199 109.788 -21.9124 97.4941 21.1594 83.1503C53.0968 72.2572 92.7617 70.2282 130.049 70.4463C138.849 70.4784 147.972 70.7863 157.088 71.2844C209.764 74.1515 263.266 82.4127 316.355 93.7206C417.575 115.197 520.002 150.643 618.789 180.649C731.16 214.783 844.441 232.979 962.528 235.771C1100.02 239.714 1252.32 233.706 1403.17 160.743C1597.15 67.3911 1787.76 -154.247 1971.13 -388.865" fill="black"/>
<path d="M-471.169 272.722C-462.401 268.65 -443.745 254.78 -427.941 240.655C-412.054 226.39 -397.444 211.83 -380.409 199.567C-353.702 180.252 -319.569 166.611 -290.198 159.374C-258.575 151.447 -226.424 146.213 -195.732 142.304C-170.829 139.057 -144.819 134.663 -126.513 127.986C-77.8198 109.788 -21.9124 97.4941 21.1594 83.1503C53.0968 72.2572 92.7617 70.2282 130.049 70.4463C138.849 70.4784 147.972 70.7863 157.088 71.2844C209.764 74.1515 263.266 82.4127 316.355 93.7206C417.575 115.197 520.002 150.643 618.789 180.649C731.16 214.783 844.441 232.979 962.528 235.771C1100.02 239.714 1252.32 233.706 1403.17 160.743C1597.15 67.3911 1787.76 -154.247 1971.13 -388.865" stroke="#1FA169" stroke-width="2" stroke-miterlimit="10"/>
</g>
<g opacity="0.1739">
<path d="M-476.282 267.125C-467.716 262.272 -450.262 248.73 -435.32 235.036C-420.293 221.209 -406.358 207.186 -390.28 195.218C-365.158 176.438 -333.176 162.504 -305.367 154.57C-275.477 145.93 -245.162 139.948 -215.855 135.087C-191.994 131.071 -167.253 126.361 -148.999 119.898C-98.1207 101.212 -32.7479 91.2533 11.2098 77.7732C44.031 67.2543 85.7738 65.9821 124.208 66.6C133.218 66.7197 142.497 67.096 151.778 67.6497C205.173 70.8311 259.148 79.1992 312.759 90.552C414.523 112.033 517.206 146.841 616.627 177.385C729.319 212.008 842.489 232.124 960.274 234.732C1097.42 238.463 1250.46 227.018 1402.2 151.964C1596.19 56.4039 1786.25 -160.022 1972.71 -395.642" fill="black"/>
<path d="M-476.282 267.125C-467.716 262.272 -450.262 248.73 -435.32 235.036C-420.293 221.209 -406.358 207.186 -390.28 195.218C-365.158 176.438 -333.176 162.504 -305.367 154.57C-275.477 145.93 -245.162 139.948 -215.855 135.087C-191.994 131.071 -167.253 126.361 -148.999 119.898C-98.1207 101.212 -32.7479 91.2533 11.2098 77.7732C44.031 67.2543 85.7738 65.9821 124.208 66.6C133.218 66.7197 142.497 67.096 151.778 67.6498C205.173 70.8311 259.148 79.1992 312.759 90.552C414.523 112.033 517.206 146.841 616.627 177.385C729.319 212.008 842.489 232.124 960.274 234.732C1097.42 238.463 1250.46 227.018 1402.2 151.964C1596.19 56.4039 1786.25 -160.022 1972.71 -395.642" stroke="#1FA169" stroke-width="2" stroke-miterlimit="10"/>
</g>
<g opacity="0.1522">
<path d="M-481.328 261.594C-472.948 255.976 -456.692 242.782 -442.611 229.533C-428.442 216.155 -415.176 202.671 -400.049 191.012C-376.485 172.786 -346.643 158.641 -320.396 150.065C-292.285 140.786 -263.662 133.958 -235.943 128.38C-213.319 123.777 -189.762 118.611 -171.771 112.302C-115.191 92.1171 -51.8109 84.3797 0.910187 72.27C38.1591 63.547 78.5024 61.7233 118.172 62.6619C127.395 62.8735 136.834 63.3182 146.285 63.9318C200.42 67.4381 254.875 75.9217 309.027 87.3258C411.371 108.821 514.339 143.025 614.418 174.041C727.425 209.064 840.537 231.158 958.036 233.74C1095.18 237.42 1248.33 221.038 1401.04 143.78C1595 45.8956 1784.48 -165.463 1974.02 -402.028" fill="black"/>
<path d="M-481.328 261.594C-472.948 255.976 -456.692 242.782 -442.611 229.533C-428.442 216.155 -415.176 202.671 -400.049 191.012C-376.485 172.786 -346.643 158.641 -320.396 150.065C-292.285 140.786 -263.662 133.958 -235.943 128.38C-213.319 123.777 -189.762 118.611 -171.771 112.302C-115.191 92.1171 -51.8108 84.3797 0.910201 72.27C38.159 63.547 78.5024 61.7233 118.172 62.6619C127.395 62.8735 136.834 63.3182 146.285 63.9318C200.42 67.4382 254.875 75.9217 309.027 87.3258C411.371 108.821 514.339 143.025 614.418 174.041C727.425 209.064 840.537 231.158 958.036 233.74C1095.18 237.42 1248.33 221.038 1401.04 143.78C1595 45.8956 1784.48 -165.463 1974.02 -402.028" stroke="#1FA169" stroke-width="2" stroke-miterlimit="10"/>
</g>
<g opacity="0.1304">
<path d="M-486.32 256.117C-478.113 249.745 -463.059 236.92 -449.833 224.122C-436.52 211.199 -423.984 198.262 -409.728 186.925C-387.138 168.953 -361.107 155.77 -335.286 145.819C-309.443 135.85 -283.085 128.711 -255.971 122.128C-234.584 116.907 -212.332 111.383 -194.75 105.17C-133.272 83.1717 -67.289 74.8228 -9.75085 66.5958C29.2956 60.8617 70.8523 57.2378 111.932 58.6061C121.376 58.9118 130.982 59.4292 140.606 60.1048C195.503 63.9468 250.48 72.5651 305.159 84.0162C408.054 105.524 511.403 139.172 612.152 170.592C725.455 205.925 838.575 230.024 955.804 232.735C1093.2 236.518 1245.84 215.73 1399.68 136.164C1593.77 35.8043 1782.54 -170.722 1975.07 -408.027" fill="black"/>
<path d="M-486.32 256.117C-478.113 249.745 -463.059 236.92 -449.833 224.121C-436.52 211.199 -423.984 198.262 -409.728 186.925C-387.138 168.953 -361.107 155.77 -335.286 145.819C-309.443 135.85 -283.085 128.711 -255.971 122.128C-234.584 116.907 -212.332 111.383 -194.75 105.17C-133.272 83.1717 -67.289 74.8228 -9.75085 66.5958C29.2956 60.8617 70.8523 57.2378 111.932 58.6061C121.376 58.9118 130.982 59.4292 140.606 60.1048C195.503 63.9468 250.48 72.5651 305.159 84.0162C408.054 105.524 511.403 139.172 612.152 170.592C725.455 205.925 838.575 230.024 955.804 232.735C1093.2 236.518 1245.84 215.73 1399.68 136.164C1593.77 35.8043 1782.54 -170.722 1975.07 -408.027" stroke="#1FA169" stroke-width="2" stroke-miterlimit="10"/>
</g>
<g opacity="0.1087">
<path d="M-491.264 250.688C-483.219 243.571 -469.363 231.13 -456.992 218.794C-444.53 206.338 -432.664 193.944 -419.328 182.941C-398.195 165.506 -374.097 152.21 -350.041 141.804C-325.968 131.384 -301.343 123.507 -275.915 116.283C-255.866 110.566 -234.949 104.644 -217.868 98.484C-152.628 74.6132 -81.1862 66.925 -20.7847 60.7205C19.3853 56.3633 63.0841 52.5854 105.484 54.4199C115.155 54.8239 124.932 55.4183 134.736 56.158C190.416 60.3506 245.962 69.1229 301.148 80.6232C404.555 102.138 508.401 135.283 609.818 167.035C723.379 202.581 836.594 228.695 953.562 231.675C1091.47 235.735 1243.38 210.962 1398.13 129.109C1591.89 26.4676 1780.33 -175.663 1975.86 -413.631" fill="black"/>
<path d="M-491.264 250.688C-483.219 243.571 -469.363 231.13 -456.992 218.794C-444.53 206.338 -432.664 193.944 -419.328 182.941C-398.195 165.506 -374.097 152.21 -350.041 141.804C-325.968 131.384 -301.343 123.507 -275.915 116.283C-255.866 110.566 -234.949 104.644 -217.868 98.484C-152.628 74.6132 -81.1862 66.925 -20.7847 60.7205C19.3853 56.3633 63.0841 52.5855 105.484 54.4199C115.155 54.8239 124.932 55.4183 134.736 56.158C190.416 60.3506 245.962 69.1229 301.148 80.6232C404.555 102.138 508.401 135.283 609.818 167.035C723.379 202.581 836.594 228.695 953.562 231.675C1091.47 235.735 1243.38 210.962 1398.13 129.109C1591.89 26.4676 1780.33 -175.663 1975.86 -413.631" stroke="#1FA169" stroke-width="2" stroke-miterlimit="10"/>
</g>
<g opacity="0.087">
<path d="M-496.169 245.298C-488.277 237.443 -475.625 225.4 -464.103 213.53C-452.489 201.542 -441.289 189.697 -428.86 179.046C-409.165 162.164 -386.971 148.802 -364.67 137.99C-342.354 127.165 -319.461 118.611 -295.762 110.801C-277.082 104.626 -257.565 98.3536 -241.066 92.2218C-172.858 66.5573 -98.5655 58.7621 -34.4404 54.2253C8.5329 50.9584 54.3995 47.7514 98.813 50.0925C108.715 50.5992 118.683 51.2748 128.66 52.083C185.076 56.637 241.273 65.5802 296.977 77.1361C400.923 98.6657 505.321 131.345 607.384 163.355C721.149 199.017 834.556 227.13 951.276 230.514C1089.9 235.012 1240.75 206.748 1396.37 122.59C1589.68 17.7104 1777.88 -180.356 1976.36 -418.833" fill="black"/>
<path d="M-496.169 245.298C-488.277 237.443 -475.625 225.4 -464.103 213.53C-452.489 201.542 -441.289 189.697 -428.86 179.046C-409.165 162.164 -386.971 148.802 -364.67 137.99C-342.354 127.165 -319.461 118.611 -295.762 110.801C-277.082 104.626 -257.565 98.3536 -241.066 92.2218C-172.858 66.5573 -98.5655 58.7621 -34.4404 54.2253C8.53291 50.9584 54.3995 47.7514 98.8131 50.0925C108.715 50.5992 118.683 51.2749 128.66 52.083C185.077 56.637 241.273 65.5802 296.977 77.1361C400.923 98.6657 505.321 131.345 607.384 163.355C721.149 199.017 834.556 227.13 951.276 230.514C1089.9 235.012 1240.75 206.748 1396.37 122.59C1589.68 17.7104 1777.88 -180.356 1976.36 -418.833" stroke="#1FA169" stroke-width="2" stroke-miterlimit="10"/>
</g>
<g opacity="0.0652">
<path d="M-501.042 239.938C-493.299 231.35 -481.853 219.713 -471.176 208.315C-460.412 196.802 -449.866 185.507 -438.331 175.217C-420.06 158.91 -399.739 145.518 -379.178 134.342C-358.604 123.156 -337.439 113.974 -315.498 105.625C-298.206 99.0313 -280.145 92.459 -264.287 86.3401C-193.652 58.8497 -117.826 50.4089 -49.8936 47.2447C-3.18167 44.8886 44.9919 42.6971 91.9199 45.5984C102.049 46.2141 112.226 46.9774 122.379 47.8539C179.527 52.7842 236.411 61.9156 292.648 73.5335C397.137 95.0845 502.053 127.274 604.809 159.494C718.814 195.216 832.463 225.278 948.939 229.195C1088.45 234.29 1238 203.021 1394.42 116.574C1587.15 9.51752 1775.22 -184.805 1976.59 -423.641" fill="black"/>
<path d="M-501.042 239.938C-493.299 231.35 -481.853 219.713 -471.176 208.315C-460.412 196.802 -449.866 185.507 -438.331 175.217C-420.06 158.91 -399.739 145.518 -379.178 134.342C-358.604 123.156 -337.439 113.974 -315.498 105.625C-298.206 99.0313 -280.145 92.459 -264.287 86.3401C-193.652 58.8497 -117.826 50.4089 -49.8936 47.2447C-3.18167 44.8886 44.9919 42.6971 91.9199 45.5984C102.049 46.2141 112.226 46.9774 122.379 47.8539C179.527 52.7842 236.411 61.9156 292.648 73.5335C397.137 95.0845 502.053 127.274 604.809 159.494C718.814 195.216 832.463 225.278 948.939 229.195C1088.45 234.29 1238 203.021 1394.42 116.574C1587.15 9.51752 1775.22 -184.805 1976.59 -423.641" stroke="#1FA169" stroke-width="2" stroke-miterlimit="10"/>
</g>
<g opacity="0.0435">
<path d="M-505.889 234.602C-498.29 225.282 -488.056 214.056 -478.225 203.135C-468.304 192.101 -458.409 181.357 -447.76 171.439C-430.89 155.723 -412.413 142.337 -393.575 130.832C-374.726 119.321 -355.28 109.544 -335.115 100.701C-319.225 93.7249 -302.653 86.9046 -287.485 80.8006C-214.609 51.3326 -137.751 41.7757 -65.9089 40.0097C-15.084 38.6585 35.1911 37.457 84.8006 40.9227C95.1625 41.6432 105.559 42.509 115.886 43.4604C173.786 48.7862 231.369 58.125 288.152 69.8091C393.181 91.3901 498.475 122.992 602.056 155.402C716.432 191.164 830.304 223.104 946.531 227.671C1086.98 233.524 1235.21 199.699 1392.27 111.028C1584.31 1.87848 1772.33 -189.015 1976.54 -428.054" fill="black"/>
<path d="M-505.889 234.602C-498.29 225.282 -488.056 214.056 -478.225 203.135C-468.304 192.101 -458.409 181.357 -447.76 171.439C-430.89 155.723 -412.413 142.337 -393.575 130.832C-374.726 119.321 -355.28 109.544 -335.115 100.701C-319.225 93.7248 -302.653 86.9046 -287.485 80.8006C-214.609 51.3325 -137.751 41.7757 -65.9089 40.0097C-15.0839 38.6585 35.1911 37.457 84.8006 40.9227C95.1625 41.6432 105.559 42.509 115.886 43.4604C173.786 48.7862 231.369 58.125 288.152 69.8092C393.181 91.3901 498.475 122.992 602.056 155.402C716.432 191.164 830.304 223.104 946.532 227.671C1086.98 233.524 1235.21 199.699 1392.27 111.028C1584.31 1.87847 1772.33 -189.015 1976.54 -428.054" stroke="#1FA169" stroke-width="2" stroke-miterlimit="10"/>
</g>
<g opacity="0.0217">
<path d="M-510.723 229.28C-503.265 219.227 -494.251 208.416 -485.263 197.976C-476.183 187.423 -466.93 177.237 -457.154 167.702C-441.665 152.592 -425.007 139.241 -407.874 127.439C-390.733 115.631 -372.999 105.296 -354.612 95.9932C-340.13 88.6641 -325.067 81.6494 -310.62 75.5689C-235.664 43.9457 -157.3 33.461 -82.4488 32.548C-27.7354 31.8361 24.9429 31.9409 77.4478 36.0608C88.045 36.8925 98.668 37.8674 109.18 38.9001C167.85 44.647 226.143 54.206 283.485 65.965C389.072 87.5865 494.771 118.598 599.173 151.143C713.882 186.871 828.057 220.583 944.032 225.907C1085.41 232.682 1232.41 196.719 1389.92 105.931C1581.17 -5.2005 1769.21 -192.97 1976.21 -432.05" fill="black"/>
<path d="M-510.723 229.28C-503.265 219.227 -494.251 208.416 -485.263 197.976C-476.183 187.423 -466.93 177.237 -457.154 167.702C-441.665 152.592 -425.007 139.241 -407.874 127.439C-390.733 115.631 -372.999 105.296 -354.612 95.9932C-340.13 88.6642 -325.067 81.6494 -310.62 75.5689C-235.664 43.9457 -157.3 33.461 -82.4488 32.548C-27.7354 31.8361 24.9429 31.9408 77.4478 36.0608C88.045 36.8925 98.668 37.8674 109.18 38.9C167.85 44.647 226.143 54.206 283.485 65.965C389.072 87.5866 494.771 118.598 599.173 151.143C713.882 186.871 828.057 220.583 944.032 225.907C1085.41 232.682 1232.41 196.719 1389.92 105.931C1581.17 -5.2005 1769.21 -192.97 1976.21 -432.05" stroke="#1FA169" stroke-width="2" stroke-miterlimit="10"/>
</g>
</g>
</g>
</g>
</g>
<defs>
<clipPath id="clip0_48_4021">
<rect width="1440" height="361" fill="white"/>
</clipPath>
<clipPath id="clip1_48_4021">
<rect width="1605" height="1069" fill="white" transform="translate(-99 -577)"/>
</clipPath>
</defs>
</svg>
