<svg width="1440" height="361" viewBox="0 0 1440 361" fill="none" xmlns="http://www.w3.org/2000/svg">
<g clip-path="url(#clip0_48_4547)">
<rect width="1440" height="361" fill="#1FA169"/>
<mask id="mask0_48_4547" style="mask-type:luminance" maskUnits="userSpaceOnUse" x="-83" y="-577" width="1605" height="1069">
<path d="M1521 -576L1521 491L-82 491L-82 -576L1521 -576Z" fill="white" stroke="white" stroke-width="2"/>
</mask>
<g mask="url(#mask0_48_4547)">
<g opacity="0.52">
<path d="M-120.896 623.562C-88.636 658.646 -23.7234 686.77 13.8978 666.766C42.2742 651.642 54.9987 617.233 81.0168 606.195C124.859 587.637 184.865 615.737 236.083 657.349C283.11 694.956 329.762 740.226 370.632 778.468C399.629 804.471 441.806 837.89 446.854 801.606C457.248 739.775 404.185 606.453 379.358 524.878C359.504 453.296 339.503 368.267 366.737 316.25C385.714 280.146 433.918 281.602 480.694 293.463C584.077 319.19 705.308 362.957 805.533 417.499C937.888 488.968 1031.63 600.634 1117.26 668.718C1191.86 725.142 1270.82 761.478 1391.87 663.326C1475.76 594.628 1556.1 479.311 1624.83 368.475C1693.74 256.395 1751.03 148.795 1793.15 66.8523" stroke="white" stroke-width="2" stroke-miterlimit="10"/>
<path opacity="0.9783" d="M-133.51 610.61C-101.656 645.128 -37.2098 672.229 0.580487 651.888C29.2522 636.413 42.5031 601.902 68.8807 590.72C112.387 572.207 173.771 598.637 225.405 640.647C272.142 678.077 317.429 721.908 358.617 758.22C388.5 783.64 428.985 812.548 433.787 776.502C443.633 714.384 392.346 586.232 368.26 505.213C351.286 443.168 337.128 376.907 350.057 325.392C352.172 317.047 355.153 309.845 358.742 303.807C379.104 269.376 427.074 271.423 473.476 283.355C576.679 309.398 696.919 352.064 797.855 403.604C931.553 471.411 1028.59 578.893 1115.61 647.488C1192.44 705.197 1272.22 745.206 1393.25 651.721C1477.32 586.049 1558.72 469.947 1628.77 357.524C1698.97 243.855 1757.82 133.866 1800.39 51.6597" stroke="white" stroke-width="2" stroke-miterlimit="10"/>
<path opacity="0.9565" d="M-146.133 597.634C-111.259 628.781 -53.321 658.976 -12.952 636.796C15.9872 621.11 29.8159 586.423 56.5509 575.102C100.77 556.3 162.556 582.166 214.524 623.645C261.659 660.759 305.461 702.24 346.418 737.785C376.109 762.761 415.874 787.23 420.454 751.579C429.799 689.288 380.448 566.172 357.17 485.759C341.107 425.765 327.899 361.514 341.766 312.188C344.032 304.196 347.144 297.316 350.861 291.563C372.122 258.505 420.344 261.38 466.395 273.381C569.599 299.751 687.339 341.996 790.186 390.152C925.958 453.285 1026.05 557.84 1113.66 626.211C1192.87 685.188 1273.57 728.642 1394.55 640.016C1478.58 577.655 1561.08 460.753 1632.55 346.637C1704.14 231.284 1764.71 118.718 1807.63 36.4585" stroke="white" stroke-width="2" stroke-miterlimit="10"/>
<path opacity="0.9348" d="M-158.74 584.663C-127.843 617.903 -64.4903 642.197 -26.668 621.533C2.5366 605.504 16.9581 570.839 44.0398 559.388C88.9755 540.295 151.264 565.519 203.436 606.389C250.103 642.481 293.104 682.955 334.05 717.187C364.04 741.594 402.507 762.008 406.881 726.831C415.779 664.485 368.479 546.241 346.101 466.534C330.984 408.577 318.767 346.34 333.582 299.208C336.002 291.567 339.03 284.315 343.096 279.53C367.501 250.789 409.22 250.628 459.452 263.55C562.301 289.737 679.068 331.838 782.541 377.155C918.927 436.523 1022.34 536.363 1111.38 604.942C1193.13 665.161 1274.84 711.829 1395.74 628.231C1479.52 569.44 1563.12 451.765 1636.11 335.873C1709.18 218.764 1771.63 103.436 1814.82 21.2722" stroke="white" stroke-width="2" stroke-miterlimit="10"/>
<path opacity="0.913" d="M-171.312 571.717C-140.73 604.123 -73.8612 627.639 -40.5392 606.137C-14.2365 588.8 5.25249 555.691 31.3648 543.613C74.4366 523.208 139.829 548.591 192.139 588.905C238.35 623.908 280.626 663.478 321.532 696.431C351.761 720.231 388.905 736.848 393.093 702.242C401.608 639.96 356.298 526.261 335.065 447.542C321.037 391.736 309.8 331.421 325.51 286.457C328.076 279.16 331.277 272.243 335.45 267.715C360.704 240.308 402.441 241.253 452.654 253.869C555.975 279.562 672.577 321.732 774.944 364.622C910.41 421.147 1017.44 514.504 1108.77 583.739C1193.18 645.192 1276.1 694.791 1396.81 616.397C1480.06 561.464 1564.81 443.018 1639.45 325.221C1714.11 206.25 1778.67 87.9243 1821.99 6.12231" stroke="white" stroke-width="2" stroke-miterlimit="10"/>
<path opacity="0.8913" d="M-183.824 558.823C-153.665 590.598 -87.8367 612.26 -54.5383 590.652C-27.9766 573.039 -7.86484 539.996 18.5449 527.82C62.2993 507.152 128.098 531.72 180.633 571.234C226.384 605.077 268.08 643.864 308.885 675.545C339.295 698.695 375.12 711.818 379.124 677.818C387.275 615.598 344.161 506.763 324.083 428.805C311.113 374.925 300.896 316.722 317.556 273.95C320.281 266.995 323.647 260.405 327.927 256.127C354.035 230.039 396.18 231.681 445.999 244.338C549.712 270.415 664.219 312.228 767.417 352.551C902.926 405.342 1012.97 493.402 1105.84 562.65C1193.07 625.308 1277.38 677.568 1397.76 604.529C1480.21 553.653 1566.14 434.43 1642.54 314.621C1718.91 193.698 1785.76 72.1929 1829.1 -8.98267" stroke="white" stroke-width="2" stroke-miterlimit="10"/>
<path opacity="0.8696" d="M-196.252 546.002C-166.523 577.12 -101.835 596.781 -68.633 575.108C-41.7889 557.265 -21.369 526.343 5.59715 512.039C48.9536 488.472 120.331 517.429 168.918 553.403C213.171 585.17 256.174 624.962 296.136 654.531C332.202 681.204 357.689 680.386 365.006 653.534C379.479 602.327 332.238 487.209 313.171 410.316C301.215 358.416 292.124 302.263 309.732 261.675C312.619 255.056 316.148 248.794 320.537 244.762C347.644 219.865 390.125 222.464 439.949 235.322C544.287 262.007 656.114 303.148 759.988 340.935C895.227 390.058 1008.17 472.681 1102.6 541.721C1192.87 605.5 1278.47 660.241 1398.58 592.64C1480.02 545.985 1567.19 425.91 1645.49 303.969C1723.67 180.989 1792.99 56.1452 1836.17 -24.032" stroke="white" stroke-width="2" stroke-miterlimit="10"/>
<path opacity="0.8478" d="M-208.572 533.278C-179.282 563.711 -115.823 581.234 -82.7895 559.554C-55.7206 541.456 -34.7122 510.671 -7.45077 496.321C36.5712 472.574 108.131 500.373 157 535.468C200.889 566.045 243.415 605.043 283.313 633.433C319.173 658.98 343.672 655.831 350.772 629.418C365.003 578.033 320.13 467.83 302.348 392.115C291.424 342.169 283.501 288.082 302.047 249.673C305.098 243.385 308.792 237.443 313.292 233.648C341.525 209.844 385.083 213.855 434.476 226.959C538.519 254.295 647.254 295.067 752.686 329.792C887.867 374.297 1004.1 453.061 1099.06 521.036C1192.57 585.884 1279.38 642.89 1399.27 580.781C1479.51 538.433 1567.99 417.437 1648.3 293.256C1728.42 168.129 1800.36 39.8195 1843.17 -38.9915" stroke="white" stroke-width="2" stroke-miterlimit="10"/>
<path opacity="0.8261" d="M-220.764 520.675C-191.923 550.389 -129.771 565.654 -96.9818 544.024C-69.7096 525.684 -48.1213 495.083 -20.5902 480.701C24.0652 456.794 95.7166 483.33 144.872 517.461C188.291 546.707 230.768 585.151 270.426 612.269C306.012 636.651 329.542 631.372 336.443 605.466C350.469 554.051 308.02 448.612 291.616 374.209C281.732 326.185 275.025 274.185 294.491 237.942C297.707 231.979 301.912 226.982 306.179 222.79C331.251 197.912 386.774 207.586 429.272 219.024C533.304 246.209 639.987 286.801 745.517 319.111C879.731 360.248 998.666 433.156 1095.22 500.644C1192.09 566.458 1280.2 625.529 1399.82 568.962C1478.68 530.959 1568.61 408.87 1651.07 282.303C1733.25 154.902 1807.96 23.0233 1850.09 -53.8591" stroke="white" stroke-width="2" stroke-miterlimit="10"/>
<path opacity="0.8043" d="M-232.799 508.219C-205.465 536.058 -143.518 550.945 -111.174 528.564C-83.5916 509.16 -61.5518 479.642 -33.7895 465.222C11.4629 441.171 83.1037 466.355 132.553 499.432C175.575 527.354 218.069 565.214 257.518 591.073C292.768 614.24 315.369 607.033 322.067 581.685C335.863 530.401 295.751 429.297 281.007 356.615C272.41 311.281 266.47 260.014 287.088 226.486C290.54 220.895 294.867 216.147 299.222 212.187C324.173 189.184 383.682 200.533 424.344 211.494C528.35 238.525 632.981 278.852 738.526 308.88C871.52 346.83 992.955 413.747 1091.1 480.609C1191.48 547.289 1280.9 608.215 1400.23 557.213C1477.56 523.544 1569.06 400.199 1653.81 271.11C1738.18 141.315 1815.8 5.77818 1856.95 -68.6221" stroke="white" stroke-width="2" stroke-miterlimit="10"/>
<path opacity="0.7826" d="M-244.658 495.93C-217.778 523.119 -159.514 535.256 -125.34 513.207C-95.9988 493.974 -74.3163 462.13 -47.0356 449.92C0.913229 428.142 66.2667 448.242 120.03 481.426C162.372 507.159 204.69 544.435 244.595 569.885C279.856 592.482 301.104 582.857 307.654 558.101C321.318 507.079 283.712 410.463 270.513 339.362C262.956 295.871 258.372 246.725 279.824 215.332C283.44 210.058 287.588 205.215 292.405 201.865C320.811 181.89 376.886 192.994 419.656 204.36C523.604 231.224 626.908 270.696 731.715 299.11C863.126 334.893 985.93 394.311 1086.71 461.01C1190.62 528.842 1286.42 586.449 1400.48 545.576C1457.32 525.509 1536.98 425.254 1595.19 344.842C1700 198.737 1788.64 49.0151 1863.7 -83.2544" stroke="white" stroke-width="2" stroke-miterlimit="10"/>
<path opacity="0.7609" d="M-256.318 483.835C-229.857 510.222 -173.017 519.813 -139.447 497.997C-110.013 478.548 -87.772 447.13 -60.3029 434.843C-11.8961 412.868 53.3867 431.672 107.319 463.492C149.147 487.754 192.343 524.966 231.687 548.747C263.633 567.961 288.444 562.075 293.246 534.73C303.598 477.134 271.733 391.843 260.156 322.469C253.646 280.776 250.47 233.777 272.711 204.484C276.495 199.519 280.931 195.35 286.48 192.806C320.176 177.22 371.299 186.118 415.205 197.591C519.016 224.213 622.122 265.815 725.126 289.841C853.229 319.925 980.229 377.016 1082.09 441.909C1189.99 509.465 1284.12 578.578 1400.57 534.071C1544.79 475.572 1782.45 49.419 1870.37 -97.7566" stroke="white" stroke-width="2" stroke-miterlimit="10"/>
<path opacity="0.7391" d="M-267.752 471.956C-240.015 499.177 -186.09 502.624 -153.459 482.974C-124.336 464.991 -101.221 432.354 -73.5662 420.026C-24.7614 397.877 40.3567 415.312 94.4302 445.683C135.79 468.476 180.043 505.63 218.822 527.703C250.276 545.499 273.826 538.112 278.877 511.601C289.731 455.528 259.936 372.355 249.948 305.966C244.335 266.133 242.769 221.197 265.759 193.963C269.709 189.296 275.626 187.232 281.342 184.938C316.198 170.828 366.893 179.743 410.977 191.173C514.386 217.507 614.596 261.564 718.985 282.722C847.997 309.071 975.325 361.097 1077.24 423.39C1136.91 459.96 1192.13 494.262 1247.52 514.022C1293.25 530.223 1342.83 546.883 1401.03 520.339C1562.94 441.755 1782.26 45.2372 1876.93 -112.1" stroke="white" stroke-width="2" stroke-miterlimit="10"/>
<path opacity="0.7174" d="M-278.943 460.317C-251.763 486.497 -199.201 487.559 -167.353 468.174C-137.926 449.869 -116.34 417.73 -86.8099 405.514C-35.2059 384.031 27.128 399.35 81.3577 428.046C122.698 449.676 166.466 486.118 206.004 506.803C241.789 525.701 257.405 511.911 264.552 488.742C279.179 441.665 247.845 354.073 239.883 289.876C235.545 252.57 233.289 206.162 260.168 185.563C264.668 182.127 270.521 179.572 276.402 177.509C312.347 164.783 362.654 173.692 406.944 185.082C509.803 211.084 609.835 255.569 713.137 276.002C842.021 301.626 966.794 343.914 1072.19 405.526C1133.29 441.353 1189.86 476.66 1245.78 497.597C1293.14 515.069 1340.99 532.776 1401.81 505.542C1566.51 426.759 1784.88 35.909 1883.37 -126.284" stroke="white" stroke-width="2" stroke-miterlimit="10"/>
<path opacity="0.6957" d="M-289.861 448.945C-264.781 475.009 -210.686 471.516 -181.089 453.646C-151.765 435.364 -129.58 403.626 -100.003 391.352C-48.1911 369.709 13.8432 383.567 68.1243 410.649C109.889 431.242 154.028 466.513 193.263 486.118C227.747 503.49 243.27 488.763 250.313 466.205C264.863 419.791 236.14 336.411 229.979 274.24C226.78 239.648 225.526 195.126 254.893 177.793C259.969 174.815 265.614 172.348 271.649 170.498C308.624 159.075 358.31 168.185 403.096 179.305C506.159 204.507 605.151 249.782 707.584 269.661C835.958 294.673 958.73 328.045 1066.98 388.403C1129.45 423.36 1187.38 459.564 1243.82 481.579C1292.62 500.248 1339.55 517.981 1402.8 490.185C1569.95 411.545 1787.38 26.6472 1889.7 -140.288" stroke="white" stroke-width="2" stroke-miterlimit="10"/>
<path opacity="0.6739" d="M-300.488 437.86C-275.942 462.729 -223.288 456.909 -194.637 439.42C-165.39 420.971 -142.702 389.898 -113.118 377.574C-61.1849 355.799 0.464168 368.148 54.741 393.537C97.0402 413.08 141.726 447.218 180.618 465.698C213.683 481.511 229.219 465.978 236.185 444.025C250.675 398.405 224.55 319.089 220.246 259.084C217.978 223.944 219.012 187.066 249.815 170.468C255.032 167.683 260.889 165.528 267.074 163.877C305.01 153.666 354.42 162.722 399.429 173.821C501.896 198.726 600.805 244.114 702.324 263.677C829.308 288.227 951.05 313.627 1061.65 372.293C1174.09 430.59 1277.55 530.978 1403.96 474.376C1573.65 395.719 1789.79 17.4218 1895.9 -154.104" stroke="white" stroke-width="2" stroke-miterlimit="10"/>
<path opacity="0.6522" d="M-310.799 427.086C-286.788 450.69 -235.589 442.582 -207.965 425.54C-178.836 406.95 -155.681 376.589 -126.134 364.229C-74.1662 342.344 -12.9922 353.152 41.2204 376.775C83.9584 395.164 128.993 427.775 167.878 445.37C199.976 459.973 215.294 443.545 222.181 422.261C236.62 377.57 213.06 302.171 210.678 244.45C209.486 209.743 213.407 178.713 244.899 163.563C250.258 161.01 256.314 159.09 262.642 157.621C301.479 148.537 350.664 157.531 395.91 168.613C497.798 193.215 596.91 238.869 697.338 258.028C821.062 281.781 945.368 301.393 1056.25 357.06C1172.46 414.091 1275.35 515.358 1405.24 458.222C1577.36 379.584 1792.07 8.27762 1901.97 -167.71" stroke="white" stroke-width="2" stroke-miterlimit="10"/>
<path opacity="0.6304" d="M-320.771 416.65C-297.291 438.909 -247.568 428.581 -221.041 412.05C-192.046 393.385 -169.037 365.306 -139.023 351.356C-89.2406 327.906 -23.6025 338.519 27.5756 360.421C71.2059 378.656 115.059 407.639 154.745 424.933C186.933 439.091 201.526 421.48 208.322 400.968C222.682 357.3 204.076 287.708 201.284 230.373C199.76 196.462 209.839 169.771 240.131 157.046C245.674 154.728 251.875 153.003 258.343 151.705C298.022 143.662 347.294 152.383 392.538 163.659C492.946 188.301 593.58 233.683 692.621 252.692C813.073 276.004 940.085 291.588 1050.8 342.96C1170.77 397.387 1273.52 499.44 1406.61 441.808C1581.04 363.2 1794.22 -0.779029 1907.89 -181.109" stroke="white" stroke-width="2" stroke-miterlimit="10"/>
<path opacity="0.6087" d="M-330.381 406.574C-304.628 425.239 -261.471 416.629 -233.828 398.984C-205.03 380.24 -181.64 352.876 -151.753 338.996C-101.991 315.594 -37.3357 324.428 13.8317 344.54C57.5755 361.366 100.733 387.512 141.431 404.785C170.538 417.149 190.185 402.518 194.623 380.221C204.21 331.336 190.044 269.56 192.062 216.899C193.406 185.896 203.992 162.111 235.489 150.895C241.277 148.851 247.552 147.252 254.152 146.11C294.634 139.037 343.766 147.701 389.286 158.949C489.226 183.277 589.937 228.662 688.161 247.648C806.71 270.723 932.949 283.913 1045.4 330.444C1171.12 380.918 1270.97 483.403 1408.04 425.23C1584.66 346.635 1796.24 -9.73306 1913.67 -194.279" stroke="white" stroke-width="2" stroke-miterlimit="10"/>
<path opacity="0.587" d="M-339.607 396.883C-314.843 414.465 -272.685 403.737 -246.297 386.383C-217.602 367.128 -194.006 340.989 -164.299 327.19C-114.642 303.869 -51.0798 310.931 0.00203294 329.189C43.8335 344.527 86.9438 368.242 127.918 384.989C157.35 397.041 176.443 381.863 181.089 360.085C190.986 312.962 177.802 252.495 183.006 204.065C186.135 176.034 200.364 154.572 230.944 145.075C236.896 143.235 243.316 141.798 250.048 140.801C291.292 134.627 340.335 143.235 386.142 154.457C485.654 178.484 586.456 223.79 683.94 242.87C800.841 265.885 926.466 276.992 1040.18 318.987C1170.59 365.428 1269.28 467.129 1409.48 408.571C1588.07 330.087 1798.09 -18.5607 1919.29 -207.211" stroke="white" stroke-width="2" stroke-miterlimit="10"/>
<path opacity="0.5652" d="M-348.428 387.6C-324.111 403.455 -282.304 390.997 -258.413 374.29C-231.398 354.875 -204.412 329.876 -176.629 315.985C-129.799 292.067 -64.7472 297.951 -13.8837 314.444C29.997 328.242 73.2443 350.114 114.21 365.629C143.963 376.924 162.728 362.591 167.734 340.653C177.959 295.315 167.8 238.929 174.124 191.925C177.631 166.051 198.798 146.991 226.488 139.568C232.597 137.915 239.161 136.63 246.021 135.767C287.989 130.422 336.989 138.974 383.093 150.17C482.22 173.906 583.123 219.063 679.956 238.339C795.454 261.445 920.297 270.869 1035.17 308.536C1169.39 350.77 1268.37 450.827 1410.92 391.905C1591.54 313.291 1799.79 -27.3692 1924.75 -219.903" stroke="white" stroke-width="2" stroke-miterlimit="10"/>
<path opacity="0.5435" d="M-356.816 378.748C-332.955 392.825 -292.963 378.754 -270.138 362.739C-243.287 343.334 -215.767 317.717 -188.709 305.415C-140.499 283.139 -81.026 286.23 -27.7978 300.358C15.3082 311.604 59.2403 332.612 100.305 346.783C130.701 357.282 149.687 344.794 154.56 322.012C163.895 278.256 154.96 226.465 166.39 182.546C172.956 157.606 194.386 140.851 222.092 134.345C228.358 132.863 235.063 131.719 242.05 130.977C284.711 126.4 333.712 134.896 380.125 146.072C478.931 169.538 579.902 214.46 676.194 234.037C790.51 257.372 914.571 265.443 1030.36 299.048C1167.52 337.115 1268.04 434.586 1412.33 375.312C1594.83 296.518 1801.34 -35.962 1930.04 -232.333" stroke="white" stroke-width="2" stroke-miterlimit="10"/>
<path opacity="0.5217" d="M-364.756 370.354C-341.342 382.547 -303.188 367.076 -281.444 351.775C-254.781 332.462 -227.391 307.783 -200.511 295.524C-152.695 273.389 -94.2984 274.924 -41.7164 287.008C1.33824 296.724 45.1334 315.745 86.2 328.541C116.588 338.008 136.332 327.541 141.564 304.264C150.813 263.078 144.479 213.722 158.827 173.863C167.458 150.076 189.941 135.078 217.735 129.382C224.153 128.057 230.997 127.043 238.108 126.417C281.436 122.545 330.483 130.994 377.214 142.15C475.753 165.363 576.786 209.981 672.633 229.947C785.971 253.634 909.244 260.655 1025.76 290.47C1165.21 324.524 1268.15 418.485 1413.69 358.862C1597.95 279.801 1802.73 -44.4243 1935.16 -244.49" stroke="white" stroke-width="2" stroke-miterlimit="10"/>
<path opacity="0.5" d="M-372.219 362.442C-349.252 372.646 -312.964 356.015 -292.29 341.436C-265.852 322.262 -238.659 298.552 -211.997 286.357C-164.664 264.41 -107.434 264.419 -55.6015 274.461C-12.5682 282.487 35.218 303.867 71.9083 310.999C105.076 317.473 119.416 311.914 128.74 287.526C141.341 254.977 134.859 202.096 151.356 165.737C161.628 143.141 185.452 129.637 213.403 124.657C219.973 123.475 226.953 122.586 234.189 122.064C278.164 118.844 327.296 127.249 374.354 138.388C472.683 161.363 573.772 205.613 669.27 226.048C781.813 250.194 904.304 256.454 1021.38 282.754C1164.85 313.573 1270.95 398.713 1414.98 342.62C1594.64 270.033 1803.55 -51.9435 1940.09 -256.366" stroke="white" stroke-width="2" stroke-miterlimit="10"/>
<path opacity="0.4783" d="M-379.189 355.016C-356.687 363.181 -322.693 345.633 -302.642 331.757C-275.922 312.786 -249.591 290.128 -223.132 277.946C-176.354 256.164 -120.271 254.71 -69.4138 262.779C-26.3035 269.312 21.1168 287.481 57.4519 294.248C90.0184 300.303 106.126 295.353 116.088 271.904C128.996 241.762 125.455 191.173 143.94 158.104C155.935 136.645 180.904 124.491 209.077 120.138C215.797 119.086 222.915 118.312 230.274 117.886C274.878 115.267 324.134 123.631 371.533 134.757C469.712 157.514 570.849 201.333 666.089 222.306C778.003 247.005 899.713 252.773 1017.21 275.833C1161.49 302.956 1271.55 383.308 1416.18 326.63C1597.62 253.292 1804.63 -60.1833 1944.84 -267.965" stroke="white" stroke-width="2" stroke-miterlimit="10"/>
<path opacity="0.4565" d="M-385.873 347.848C-372.622 354.933 -337.871 340.613 -312.46 322.782C-286.335 304.192 -261.937 283.545 -234.905 269.945C-187.493 245.978 -131.365 245.944 -83.1101 252.037C-40.1389 257.175 6.42535 272.62 42.8503 278.397C75.2948 283.53 92.922 279.474 103.594 257.538C117.055 230.01 116.244 180.996 136.542 150.927C150.263 130.565 176.271 119.61 204.743 115.81C211.613 114.88 218.867 114.213 226.351 113.878C271.569 111.817 320.986 120.146 368.74 131.26C466.827 153.818 568.006 197.146 663.084 218.721C774.518 244.052 895.446 249.585 1013.26 269.676C1157.96 293.391 1272.2 368.308 1417.29 310.965C1600.41 236.751 1805.57 -68.282 1949.4 -279.256" stroke="white" stroke-width="2" stroke-miterlimit="10"/>
<path opacity="0.4348" d="M-392.389 340.848C-379.711 346.836 -346.58 332.112 -321.771 314.495C-296.384 296.238 -272.9 275.944 -246.648 262.321C-200.553 238.294 -145.976 236.554 -98.984 241.302C-55.7581 245.386 -9.0248 258.68 28.1235 263.546C52.0701 266.377 83.5045 267.484 91.0887 244.46C101.924 211.544 108.08 171.721 129.116 144.145C143.835 124.809 171.521 114.936 200.374 111.641C207.396 110.822 214.785 110.254 222.393 110.003C268.221 108.458 317.828 116.76 365.948 127.864C464.009 150.239 565.308 193.123 660.226 215.257C771.226 241.183 891.641 246.898 1009.51 264.211C1154.1 284.689 1272.38 352.835 1418.28 295.652C1602.81 221.757 1807.91 -78.7948 1953.76 -290.254" stroke="white" stroke-width="2" stroke-miterlimit="10"/>
<path opacity="0.413" d="M-398.742 334.008C-386.591 338.93 -354.836 323.987 -330.868 306.558C-306.38 288.541 -283.597 268.701 -258.198 255.09C-214.163 231.365 -161.121 227.587 -115.402 231.034C-71.2259 234.089 -24.6809 245.92 13.3148 249.814C37.255 251.982 69.1517 252.959 78.2488 232.389C91.4804 202.372 98.8142 163.156 121.633 137.716C138.064 119.364 166.654 110.465 195.957 107.613C203.131 106.897 210.657 106.425 218.391 106.251C264.82 105.187 314.655 113.465 363.151 124.565C461.249 146.777 562.569 189.077 657.506 211.905C768.27 238.574 887.89 244.516 1005.95 259.398C1150.46 277.071 1272.88 338.851 1419.14 280.753C1605.13 205.658 1808.44 -86.4937 1957.92 -300.935" stroke="white" stroke-width="2" stroke-miterlimit="10"/>
<path opacity="0.3913" d="M-404.941 327.323C-393.278 331.214 -362.873 316.126 -339.746 298.921C-316.17 281.148 -293.494 260.307 -269.552 248.236C-226.279 226.341 -178.328 220.038 -131.751 221.428C-88.2043 222.576 -41.3104 232.849 -3.12641 236.47C20.985 238.478 52.9138 239.985 64.0567 220.645C80.3914 192.257 89.435 155.216 114.066 131.593C132.207 114.188 161.658 106.157 191.485 103.705C198.813 103.087 206.476 102.7 214.338 102.602C261.371 101.986 311.456 110.247 360.344 121.348C458.536 143.418 559.882 185.092 654.919 208.646C765.559 236.101 884.379 242.487 1002.58 255.187C1146.78 270.336 1273.23 325.435 1419.87 266.302C1607.22 189.875 1808.81 -94.0472 1961.87 -311.294" stroke="white" stroke-width="2" stroke-miterlimit="10"/>
<path opacity="0.3696" d="M-410.996 320.783C-399.778 323.68 -370.708 308.513 -348.425 291.56C-325.745 274.091 -303.842 253.808 -280.728 241.728C-239.137 219.92 -193.005 212.566 -148.029 212.452C-105.381 212.211 -59.6787 220.32 -21.8136 223.04C2.74509 224.553 34.5755 225.956 48.3613 208.965C69.0873 183.388 79.9049 147.746 106.372 125.735C126.223 109.242 156.506 101.98 186.928 99.8994C194.412 99.3713 202.257 98.98 210.205 99.0399C257.737 99.3734 307.943 107.04 357.499 118.203C455.839 140.145 557.219 181.163 652.436 205.47C763.044 233.732 881.067 240.768 999.382 251.528C1074.19 258.21 1140.13 267.846 1211.45 277.394C1279.59 286.192 1345.78 282.564 1420.45 252.343C1609.03 174.449 1809 -101.438 1965.6 -321.312" stroke="white" stroke-width="2" stroke-miterlimit="10"/>
<path opacity="0.3478" d="M-416.912 314.379C-406.105 316.325 -378.827 301.164 -356.911 284.46C-334.92 267.546 -315.104 248.016 -291.726 235.545C-251.298 213.981 -207.552 205.594 -164.214 204.073C-122.617 202.515 -78.2057 208.61 -40.8499 210.404C-15.9296 211.379 15.5455 212.476 31.4843 197.521C56.1948 174.304 70.2225 140.618 98.5262 120.091C120.089 104.479 151.192 97.9025 182.279 96.1643C189.921 95.7218 197.906 95.416 205.991 95.5357C254.119 96.2178 304.685 103.942 354.618 115.103C453.158 136.936 554.588 177.269 650.053 202.344C760.711 231.429 877.942 239.31 996.353 248.36C1070.11 253.925 1138.58 260.316 1210.17 267.938C1278.98 275.029 1346.03 269.674 1420.89 238.887C1610.59 159.4 1809.01 -108.684 1969.11 -331.008" stroke="white" stroke-width="2" stroke-miterlimit="10"/>
<path opacity="0.3261" d="M-422.699 308.106C-412.269 309.118 -386.255 294.004 -365.217 277.608C-344.099 261.028 -325.363 243.028 -302.555 229.667C-263.841 207.013 -220.846 198.955 -180.297 196.261C-139.988 193.486 -97.1945 198.057 -60.1832 198.547C-34.7493 198.711 -4.16868 199.597 13.5398 186.367C42.2843 164.901 60.0506 133.981 90.4985 114.617C113.773 99.8546 145.704 93.8981 177.524 92.4848C185.328 92.1235 193.456 91.9034 201.676 92.0787C250.412 93.0921 301.355 100.879 351.681 112.041C450.472 133.778 551.97 173.412 647.75 199.257C758.525 229.163 874.98 238.072 993.474 245.636C1066.31 250.256 1137.16 253.491 1209.01 259.155C1278.38 264.474 1346.21 257.355 1421.16 225.975C1611.87 144.772 1808.85 -115.754 1972.4 -340.353" stroke="white" stroke-width="2" stroke-miterlimit="10"/>
<path opacity="0.3043" d="M-428.365 301.953C-418.277 302.056 -393.513 287.045 -373.357 270.978C-353.116 254.736 -335.063 237.283 -313.223 224.068C-276.832 202.045 -235.476 192.424 -196.269 188.977C-156.562 185.417 -116.925 186.072 -79.7614 187.444C-55.7442 188.109 -22.51 186.007 -5.3579 175.557C27.2193 155.515 49.439 127.646 82.2666 109.275C107.255 95.3349 140.036 89.9385 172.652 88.8375C180.621 88.5553 188.894 88.4142 197.253 88.6451C246.608 89.9792 297.942 97.8278 348.684 109.003C447.772 130.663 549.362 169.583 645.517 196.191C756.465 226.905 872.16 237.009 990.733 243.304C1062.89 247.139 1135.81 247.349 1207.96 251.041C1277.78 254.535 1346.27 245.611 1421.27 213.622C1612.94 130.571 1808.51 -122.784 1975.46 -349.352" stroke="white" stroke-width="2" stroke-miterlimit="10"/>
<path opacity="0.2826" d="M-433.92 295.913C-424.144 295.137 -400.622 280.276 -381.34 264.56C-361.977 248.679 -344.607 231.773 -323.738 218.732C-289.076 197.067 -249.681 186.724 -212.124 182.197C-173.829 177.522 -135.602 176.863 -99.5428 177.081C-75.5341 177.034 -43.3742 174.616 -25.1071 165.143C11.183 146.153 38.4017 121.5 73.7973 104.028C100.509 90.8856 134.171 86.0066 167.641 85.2113C175.781 85.0061 184.202 84.944 192.704 85.2263C242.69 86.8704 294.431 94.7895 345.605 105.98C445.038 127.576 546.742 165.778 643.326 193.135C754.499 224.632 869.454 236.088 988.108 241.317C1059.92 244.501 1134.18 242.414 1207 243.594C1277.52 244.672 1346.01 234.565 1421.21 201.854C1613.64 116.856 1807.96 -129.478 1978.28 -357.988" stroke="white" stroke-width="2" stroke-miterlimit="10"/>
<path opacity="0.2609" d="M-439.369 289.978C-429.88 288.347 -407.588 273.678 -389.178 258.334C-370.692 242.816 -353.621 225.408 -334.103 213.632C-299.955 193.078 -265.235 182.157 -227.847 175.88C-191.876 169.867 -154.781 167.967 -119.469 167.417C-95.285 166.879 -64.6894 163.841 -45.5941 155.15C-5.57399 136.795 26.8727 115.483 65.0738 98.8239C93.8098 86.3444 128.298 82.4597 162.487 81.5724C170.696 81.3479 179.376 81.4569 188.023 81.7926C238.656 83.7425 290.818 91.7364 342.444 102.948C442.264 124.493 544.109 161.985 641.175 190.065C752.609 222.304 866.855 235.256 985.593 239.618C1057.43 242.269 1132.33 238.634 1206.15 236.793C1277.45 234.929 1345.5 224.192 1420.97 190.67C1614.04 103.626 1807.21 -135.99 1980.86 -366.268" stroke="white" stroke-width="2" stroke-miterlimit="10"/>
<path opacity="0.2391" d="M-444.723 284.142C-435.495 281.676 -414.422 267.241 -396.883 252.288C-379.269 237.17 -362.928 220.386 -344.333 208.754C-311.989 188.562 -278.975 177.137 -243.439 169.994C-209.047 163.099 -173.424 160.069 -139.507 158.427C-115.618 157.136 -86.3625 153.687 -66.7238 145.616C-23.5578 127.683 16.0942 109.689 56.0716 93.6393C85.7555 81.6943 122.014 78.4382 157.176 77.9144C165.578 77.7754 174.399 77.9486 183.2 78.3377C234.496 80.5912 287.093 88.6663 339.187 99.9058C439.435 121.414 541.449 158.203 639.046 186.974C750.773 219.905 864.42 234.484 983.169 238.162C1055.09 240.405 1130.86 234.32 1205.34 230.702C1276.06 227.262 1345.91 213.994 1420.55 180.094C1613.85 91.249 1806.25 -142.261 1983.2 -374.172" stroke="white" stroke-width="2" stroke-miterlimit="10"/>
<path opacity="0.2174" d="M-449.986 278.39C-440.998 275.113 -421.137 260.944 -404.469 246.397C-387.714 231.707 -372.437 216.611 -354.433 204.069C-324.644 183.316 -290.638 171.896 -258.891 164.501C-226.132 156.806 -191.74 153.078 -159.608 150.067C-133.662 147.538 -106.595 143.555 -88.3948 136.557C-42.4062 118.6 5.27302 103.684 46.7719 88.4246C77.4937 76.997 115.502 74.3651 151.698 74.2112C160.297 74.1577 169.265 74.3972 178.221 74.8398C230.198 77.3968 283.242 85.5619 335.824 96.8334C436.539 118.32 538.747 154.425 636.918 183.839C748.957 217.41 862.407 233.751 980.816 236.896C1118.94 241.223 1269.87 241.065 1419.95 170.116C1613.66 79.0453 1805.11 -148.363 1985.29 -381.709" stroke="white" stroke-width="2" stroke-miterlimit="10"/>
<path opacity="0.1957" d="M-455.17 272.722C-446.402 268.65 -427.746 254.78 -411.942 240.655C-396.055 226.39 -381.445 211.83 -364.41 199.567C-337.703 180.252 -303.57 166.611 -274.199 159.374C-242.576 151.447 -210.425 146.213 -179.733 142.304C-154.83 139.057 -128.82 134.663 -110.514 127.986C-61.8208 109.788 -5.91334 97.4941 37.1584 83.1503C69.0958 72.2572 108.761 70.2282 146.048 70.4463C154.848 70.4784 163.971 70.7863 173.087 71.2844C225.763 74.1515 279.265 82.4127 332.354 93.7206C433.574 115.197 536.001 150.643 634.788 180.649C747.159 214.783 860.44 232.979 978.527 235.771C1116.02 239.714 1268.32 233.706 1419.17 160.743C1613.15 67.3911 1803.76 -154.247 1987.13 -388.865" stroke="white" stroke-width="2" stroke-miterlimit="10"/>
<path opacity="0.1739" d="M-460.281 267.125C-451.715 262.272 -434.261 248.73 -419.319 235.036C-404.292 221.209 -390.357 207.186 -374.279 195.218C-349.157 176.438 -317.175 162.504 -289.366 154.57C-259.476 145.93 -229.161 139.948 -199.854 135.086C-175.993 131.071 -151.252 126.361 -132.998 119.898C-82.1197 101.212 -16.747 91.2532 27.2108 77.7731C60.032 67.2541 101.775 65.982 140.209 66.5999C149.219 66.7196 158.498 67.0959 167.779 67.6496C221.174 70.831 275.149 79.1991 328.76 90.5519C430.524 112.032 533.207 146.841 632.628 177.385C745.32 212.007 858.49 232.124 976.275 234.732C1113.42 238.463 1266.46 227.018 1418.2 151.964C1612.19 56.4038 1802.25 -160.022 1988.71 -395.642" stroke="white" stroke-width="2" stroke-miterlimit="10"/>
<path opacity="0.1522" d="M-465.328 261.594C-456.948 255.975 -440.692 242.782 -426.611 229.533C-412.442 216.155 -399.176 202.671 -384.049 191.012C-360.485 172.786 -330.643 158.641 -304.396 150.065C-276.285 140.786 -247.662 133.958 -219.943 128.38C-197.319 123.776 -173.762 118.611 -155.771 112.302C-99.1912 92.117 -35.8108 84.3795 16.9102 72.2699C54.159 63.5469 94.5024 61.7232 134.172 62.6618C143.395 62.8734 152.834 63.3181 162.285 63.9317C216.42 67.438 270.875 75.9216 325.027 87.3257C427.371 108.821 530.339 143.025 630.418 174.041C743.425 209.063 856.537 231.157 974.036 233.74C1111.18 237.42 1264.33 221.038 1417.04 143.78C1611 45.8955 1800.48 -165.463 1990.02 -402.028" stroke="white" stroke-width="2" stroke-miterlimit="10"/>
<path opacity="0.1304" d="M-470.32 256.117C-462.113 249.746 -447.059 236.92 -433.833 224.122C-420.52 211.2 -407.984 198.263 -393.728 186.925C-371.138 168.953 -345.107 155.77 -319.286 145.82C-293.443 135.85 -267.085 128.711 -239.971 122.128C-218.584 116.907 -196.332 111.383 -178.75 105.17C-117.272 83.1718 -51.289 74.8229 6.24915 66.5959C45.2956 60.8618 86.8523 57.2379 127.932 58.6062C137.376 58.912 146.982 59.4293 156.606 60.1049C211.503 63.9469 266.48 72.5652 321.159 84.0163C424.054 105.525 527.403 139.172 628.152 170.593C741.455 205.925 854.575 230.025 971.804 232.736C1109.2 236.518 1261.84 215.73 1415.68 136.164C1609.77 35.8044 1798.54 -170.722 1991.07 -408.027" stroke="white" stroke-width="2" stroke-miterlimit="10"/>
<path opacity="0.1087" d="M-475.264 250.688C-467.219 243.571 -453.363 231.13 -440.992 218.794C-428.53 206.338 -416.664 193.944 -403.328 182.941C-382.195 165.506 -358.097 152.21 -334.041 141.804C-309.968 131.384 -285.343 123.507 -259.915 116.283C-239.866 110.566 -218.949 104.644 -201.868 98.484C-136.628 74.6132 -65.1862 66.925 -4.78467 60.7205C35.3853 56.3633 79.0841 52.5855 121.484 54.4199C131.155 54.8239 140.932 55.4183 150.736 56.158C206.416 60.3506 261.962 69.1229 317.148 80.6232C420.555 102.138 524.401 135.283 625.818 167.035C739.379 202.581 852.594 228.695 969.562 231.675C1107.47 235.735 1259.38 210.962 1414.13 129.109C1607.89 26.4676 1796.33 -175.663 1991.86 -413.631" stroke="white" stroke-width="2" stroke-miterlimit="10"/>
<path opacity="0.087" d="M-480.168 245.298C-472.276 237.443 -459.624 225.4 -448.102 213.53C-436.488 201.542 -425.288 189.697 -412.859 179.046C-393.164 162.164 -370.97 148.802 -348.669 137.99C-326.353 127.165 -303.46 118.611 -279.761 110.801C-261.081 104.626 -241.564 98.3535 -225.065 92.2217C-156.857 66.5571 -82.5646 58.762 -18.4395 54.2251C24.5339 50.9583 70.4005 47.7513 114.814 50.0924C124.716 50.5991 134.684 51.2747 144.661 52.0829C201.077 56.6368 257.274 65.5801 312.978 77.136C416.924 98.6656 521.322 131.345 623.385 163.355C737.15 199.017 850.557 227.13 967.277 230.514C1105.91 235.012 1256.75 206.748 1412.38 122.59C1605.68 17.7103 1793.89 -180.356 1992.36 -418.833" stroke="white" stroke-width="2" stroke-miterlimit="10"/>
<path opacity="0.0652" d="M-485.041 239.938C-477.298 231.35 -465.852 219.713 -455.175 208.315C-444.411 196.802 -433.865 185.507 -422.33 175.217C-404.059 158.91 -383.738 145.518 -363.177 134.342C-342.603 123.156 -321.438 113.974 -299.497 105.625C-282.205 99.0312 -264.144 92.4589 -248.286 86.34C-177.651 58.8496 -101.825 50.4088 -33.8926 47.2445C12.8193 44.8885 60.9928 42.697 107.921 45.5982C118.05 46.214 128.227 46.9772 138.38 47.8538C195.528 52.784 252.412 61.9155 308.649 73.5334C413.138 95.0844 518.054 127.274 620.81 159.494C734.815 195.215 848.464 225.278 964.94 229.195C1104.45 234.29 1254 203.021 1410.42 116.573C1603.15 9.5174 1791.22 -184.805 1992.59 -423.641" stroke="white" stroke-width="2" stroke-miterlimit="10"/>
<path opacity="0.0435" d="M-489.889 234.602C-482.29 225.283 -472.056 214.056 -462.225 203.135C-452.304 192.101 -442.409 181.357 -431.76 171.439C-414.89 155.723 -396.413 142.337 -377.575 130.832C-358.726 119.321 -339.28 109.544 -319.115 100.701C-303.225 93.725 -286.653 86.9047 -271.485 80.8007C-198.609 51.3327 -121.751 41.7758 -49.9089 40.0099C0.916055 38.6586 51.1911 37.4571 100.801 40.9228C111.162 41.6433 121.559 42.5091 131.886 43.4606C189.786 48.7863 247.369 58.1251 304.152 69.8093C409.181 91.3902 514.475 122.992 618.056 155.402C732.432 191.164 846.304 223.104 962.532 227.671C1102.98 233.525 1251.21 199.699 1408.27 111.028C1600.31 1.87859 1788.33 -189.015 1992.54 -428.054" stroke="white" stroke-width="2" stroke-miterlimit="10"/>
<path opacity="0.0217" d="M-494.723 229.28C-487.265 219.227 -478.251 208.416 -469.263 197.976C-460.183 187.423 -450.93 177.237 -441.154 167.702C-425.665 152.592 -409.007 139.241 -391.874 127.439C-374.733 115.631 -356.999 105.296 -338.612 95.9932C-324.13 88.6642 -309.067 81.6494 -294.62 75.5689C-219.664 43.9457 -141.3 33.461 -66.4488 32.548C-11.7354 31.8361 40.9429 31.9408 93.4478 36.0608C104.045 36.8925 114.668 37.8674 125.18 38.9C183.85 44.647 242.143 54.206 299.485 65.965C405.072 87.5866 510.771 118.598 615.173 151.143C729.882 186.871 844.057 220.583 960.032 225.907C1101.41 232.682 1248.41 196.719 1405.92 105.931C1597.17 -5.2005 1785.21 -192.97 1992.21 -432.05" stroke="white" stroke-width="2" stroke-miterlimit="10"/>
</g>
</g>
</g>
<defs>
<clipPath id="clip0_48_4547">
<rect width="1440" height="361" fill="white"/>
</clipPath>
</defs>
</svg>
